<svg width="20" height="21" viewBox="0 0 20 21" fill="none" xmlns="http://www.w3.org/2000/svg">
<path d="M9.90803 0.75C12.512 0.75 15.0093 1.77723 16.8505 3.60571C18.6918 5.43419 19.7262 7.91414 19.7262 10.5C19.7262 13.0859 18.6918 15.5658 16.8505 17.3943C15.0093 19.2228 12.512 20.25 9.90803 20.25C7.30408 20.25 4.80679 19.2228 2.96552 17.3943C1.12426 15.5658 0.0898438 13.0859 0.0898438 10.5C0.0898438 7.91414 1.12426 5.43419 2.96552 3.60571C4.80679 1.77723 7.30408 0.75 9.90803 0.75ZM1.93075 10.5C1.93075 12.601 2.77121 14.616 4.26724 16.1016C5.76327 17.5873 7.79232 18.4219 9.90803 18.4219C12.0237 18.4219 14.0528 17.5873 15.5488 16.1016C17.0448 14.616 17.8853 12.601 17.8853 10.5C17.8853 8.39899 17.0448 6.38403 15.5488 4.89839C14.0528 3.41275 12.0237 2.57812 9.90803 2.57812C7.79232 2.57812 5.76327 3.41275 4.26724 4.89839C2.77121 6.38403 1.93075 8.39899 1.93075 10.5ZM7.91862 7.12041L13.1517 10.2392C13.1969 10.2663 13.2343 10.3046 13.2603 10.3503C13.2863 10.396 13.2999 10.4475 13.2999 10.5C13.2999 10.5525 13.2863 10.604 13.2603 10.6497C13.2343 10.6954 13.1969 10.7337 13.1517 10.7608L7.91862 13.8796C7.87208 13.9074 7.81894 13.9225 7.76462 13.9233C7.7103 13.924 7.65675 13.9104 7.60944 13.8839C7.56214 13.8574 7.52277 13.8189 7.49537 13.7723C7.46797 13.7257 7.45351 13.6727 7.45348 13.6188V7.38244C7.45329 7.32839 7.46759 7.27526 7.4949 7.2285C7.52222 7.18175 7.56156 7.14305 7.60891 7.11638C7.65625 7.08971 7.70989 7.07603 7.76431 7.07674C7.81874 7.07744 7.87199 7.09252 7.91862 7.12041Z" fill="white"/>
</svg>
