<svg
  width="120"
  height="124"
  viewBox="0 0 120 124"
  fill="none"
  xmlns="http://www.w3.org/2000/svg"
>
  <path
    d="M70.2202 15.0323C68.2642 10.6713 61.6666 13.6613 61.6666 13.6613C67.2032 17.1798 70.2202 15.0323 70.2202 15.0323ZM59.3293 14.3881C60.009 14.3881 60.5726 13.8264 60.5726 13.1492C60.5726 12.4719 60.009 11.9102 59.3293 11.9102C58.6497 11.9102 58.0861 12.4719 58.0861 13.1492C58.0861 13.8264 58.6497 14.3881 59.3293 14.3881ZM74.4141 15.4618C74.4141 15.4618 72.0271 15.4123 69.8555 16.7173L76.8675 16.8164C76.9448 16.7503 77.0277 16.6897 77.1161 16.6347C77.1161 16.6347 73.6184 7.20231 64.3189 6.04597C64.3189 6.04597 66.5568 13.017 74.4141 15.4618ZM79.3374 17.2954C79.3374 16.7834 78.923 16.3704 78.4091 16.3704C77.8952 16.3704 77.4808 16.7834 77.4808 17.2954C77.4808 17.8075 77.8952 18.2205 78.4091 18.2205C78.923 18.2205 79.3374 17.8075 79.3374 17.2954ZM41.8741 16.8329L48.886 16.7338C46.6979 15.4288 44.3108 15.4784 44.3108 15.4784C52.1682 13.0335 54.406 6.06249 54.406 6.06249C45.1065 7.21883 41.6088 16.6512 41.6088 16.6512C41.7249 16.7338 41.7415 16.7338 41.8575 16.8329M39.6196 17.8075C39.6196 18.3196 40.034 18.7326 40.5479 18.7326C41.0618 18.7326 41.4762 18.3196 41.4762 17.8075C41.4762 17.2954 41.0618 16.8825 40.5479 16.8825C40.034 16.8825 39.6196 17.2954 39.6196 17.8075ZM40.1998 25.2576C35.1439 21.673 27.7673 24.4482 27.7673 24.4482C34.3151 19.476 34.2654 11.5468 34.2654 11.5468C25.9273 15.8087 25.8776 25.8523 25.8776 25.8523C36.0722 28.8588 40.1998 25.2576 40.1998 25.2576ZM43.0179 23.2919L43.0842 19.8889C39.2881 18.7822 35.4423 19.4925 35.4423 19.4925C42.7526 15.7427 44.0953 7.91263 44.0953 7.91263C35.1439 10.6548 33.3371 20.5497 33.3371 20.5497C37.4647 22.5981 40.6805 23.2258 43.0013 23.2753M83.4152 18.9474C83.4152 18.9474 80.3651 18.0223 76.5359 19.3273V22.8128C78.8567 22.7633 81.2437 22.2016 85.5371 19.9385C85.5371 19.9385 83.4981 10.0931 74.497 7.54921C74.497 7.54921 76.022 15.3462 83.4152 18.9308M48.5047 15.4453C48.5047 15.4453 51.588 17.4772 56.992 13.7604C56.992 13.7604 50.295 11.0182 48.5047 15.4453ZM95.4002 62.6237H91.4715V67.5629H95.4002V62.6237ZM84.8243 28.7597L82.8019 31.1715L93.7591 42.0905L95.9804 39.877L84.8243 28.7597ZM106.158 28.4293L96.113 18.4187L87.1118 28.165L96.7761 37.6634L106.158 28.4293ZM24.2862 27.306C24.2862 27.8181 24.7006 28.2311 25.2145 28.2311C25.7284 28.2311 26.1428 27.8181 26.1428 27.306C26.1428 26.7939 25.7284 26.3809 25.2145 26.3809C24.7006 26.3809 24.2862 26.7939 24.2862 27.306ZM98.6492 37.8617C100.373 38.3572 102.495 38.7207 105.098 38.8198C105.098 38.8198 106.274 35.3177 105.761 31.0723L102.379 34.3101C102.744 35.1691 103.208 36.0281 103.788 36.887C103.788 36.887 102.86 36.1106 101.351 35.2847L98.6658 37.8617H98.6492ZM95.5991 86.8076H91.687V91.7468H95.5991V86.8076ZM89.8967 22.7302L92.1677 20.4341C91.2063 17.1963 89.2502 13.2813 84.4098 10.9521C84.4098 10.9521 84.2109 17.8901 89.8967 22.7302ZM110.286 57.3376C110.286 57.8497 110.7 58.2627 111.214 58.2627C111.728 58.2627 112.143 57.8497 112.143 57.3376C112.143 56.8255 111.728 56.4126 111.214 56.4126C110.7 56.4126 110.286 56.8255 110.286 57.3376ZM98.069 11.4312C101.003 12.8849 103.357 11.3651 103.357 11.3651C106.623 9.76276 108.977 11.9928 108.977 11.9928C111.248 13.7604 110.883 16.1061 110.883 16.1061C110.883 17.8901 110.369 18.0223 110.369 18.0223C109.275 18.7656 109.557 17.5102 109.557 17.5102C109.59 17.5102 109.805 16.6347 109.805 16.6347C110.236 12.5875 106.589 12.0094 106.589 12.0094C102.744 11.3486 101.766 14.9002 101.766 14.9002C101.517 15.8748 101.5 16.7503 101.616 17.5102L96.7926 12.7032L97.0247 16.7668L107.783 27.4877H111.629L107.717 23.5892C109.789 24.2334 111.596 24.2995 111.596 24.2995C117.099 23.9691 117.663 18.7326 117.663 18.7326C119.105 13.2648 113.9 8.83769 113.9 8.83769C110.435 5.86426 105.18 5.61648 105.18 5.61648C97.7044 4.75749 95.0521 0 95.0521 0C94.1735 2.164 94.4056 5.36869 94.4056 5.36869C94.9029 10.3079 98.0525 11.4642 98.0525 11.4642M111.612 55.8179C111.612 55.8179 117.878 47.9383 114.032 39.4145C114.032 39.4145 109.026 45.5926 111.015 53.5548C111.015 53.5548 107.004 46.7985 100.804 46.4516C100.804 46.4516 101.749 51.8203 111.612 55.8344M105.247 41.3637C105.761 41.3637 106.175 40.9507 106.175 40.4386C106.175 39.9266 105.761 39.5136 105.247 39.5136C104.733 39.5136 104.318 39.9266 104.318 40.4386C104.318 40.9507 104.733 41.3637 105.247 41.3637ZM86.5317 26.3479L89.3497 23.4405C86.9627 22.8954 82.4538 22.1025 78.8069 24.7951C78.8069 24.7951 80.6801 26.9095 86.5317 26.3479ZM109.093 47.0297C109.093 47.0297 113.9 38.1755 108.628 30.4611C108.628 30.4611 104.766 37.3991 108.131 44.8988C108.131 44.8988 102.992 38.9354 96.8258 39.6622C96.8258 39.6622 98.699 44.7997 109.093 47.0297ZM76.221 114.593C76.221 115.105 76.6354 115.518 77.1493 115.518C77.6631 115.518 78.0776 115.105 78.0776 114.593C78.0776 114.081 77.6631 113.668 77.1493 113.668C76.6354 113.668 76.221 114.081 76.221 114.593ZM80.879 113.701C80.879 113.701 86.1504 109.191 86.2001 103.574L84.327 103.657C82.6196 105.144 80.1331 108.299 78.7572 114.692C78.7572 114.692 87.6423 119.466 95.3836 114.213C95.3836 114.213 88.4048 110.364 80.8956 113.717M72.2094 116.591C72.2094 116.591 78.9893 112.577 79.3374 106.416C79.3374 106.416 73.9334 107.357 69.9218 117.186C69.9218 117.186 77.8289 123.43 86.3825 119.598C86.3825 119.598 80.1828 114.609 72.2094 116.591ZM63.1088 118.524C70.1539 115.27 71.7121 109.819 71.7121 109.819C66.2418 110.199 61.534 118.392 61.534 118.392C67.6674 124.636 75.6242 123.843 75.6242 123.843C71.9773 119.036 63.1088 118.524 63.1088 118.524ZM59.1967 115.666V117.979C58.1192 116.294 53.9419 110.199 49.2175 109.901C49.2175 109.901 50.8255 115.336 57.8871 118.541C57.8871 118.541 49.0186 119.119 45.4049 123.975C45.4049 123.975 53.1296 124.669 59.1967 118.673V122.439H61.5506V115.666H59.1967ZM91.687 94.3403V99.2795L113.867 117.616H118.309L95.7317 94.3403H91.687ZM88.9353 109.356C88.9353 109.356 90.9576 106.944 91.9522 103.574L88.1728 103.508C87.576 105.359 87.1284 107.704 87.0124 110.694C87.0124 110.694 95.1847 113.403 101.716 108.679L99.1963 106.664C96.4114 106.515 92.5656 106.911 88.9353 109.356ZM44.9242 114.956C44.9242 114.444 44.5098 114.031 43.9959 114.031C43.482 114.031 43.0676 114.444 43.0676 114.956C43.0676 115.468 43.482 115.881 43.9959 115.881C44.5098 115.881 44.9242 115.468 44.9242 114.956ZM106.938 89.0872C106.938 89.0872 108.214 81.3398 103.705 77.1109C103.705 77.1109 100.97 81.8354 105.926 91.2017C105.926 91.2017 115.806 89.1864 118.359 80.1835C118.359 80.1835 110.535 81.7032 106.938 89.0872ZM97.7872 105.491L94.5216 102.831C94.5879 103.657 94.6874 104.533 94.8532 105.474C94.8532 105.474 96.0301 105.606 97.7872 105.474M92.8474 106.697C93.3613 106.697 93.7757 106.284 93.7757 105.772C93.7757 105.259 93.3613 104.846 92.8474 104.846C92.3335 104.846 91.9191 105.259 91.9191 105.772C91.9191 106.284 92.3335 106.697 92.8474 106.697ZM15.0364 93.1675C15.0364 93.6795 15.4508 94.0925 15.9647 94.0925C16.4786 94.0925 16.893 93.6795 16.893 93.1675C16.893 92.6554 16.4786 92.2424 15.9647 92.2424C15.4508 92.2424 15.0364 92.6554 15.0364 93.1675ZM8.25654 75.2278C15.9813 67.9263 14.8872 62.5742 14.8872 62.5742C9.25114 65.1511 7.97474 72.8986 7.97474 72.8986C6.94698 64.7547 0.0179271 60.8232 0.0179271 60.8232C-0.44622 70.1564 8.25654 75.2278 8.25654 75.2278ZM8.28969 76.5163C8.28969 77.0283 8.70411 77.4413 9.21799 77.4413C9.73187 77.4413 10.1463 77.0283 10.1463 76.5163C10.1463 76.0042 9.73187 75.5912 9.21799 75.5912C8.70411 75.5912 8.28969 76.0042 8.28969 76.5163ZM21.5345 18.6005L14.3402 11.3651C9.88106 6.92148 4.60967 9.86187 4.60967 9.86187L18.7827 23.9196C19.7276 20.3184 21.5345 18.6005 21.5345 18.6005ZM16.0144 23.0276L3.78084 10.8365C3.78084 10.8365 -1.34136 14.4872 2.63704 23.0276H15.9979H16.0144ZM10.7099 84.0159C17.0422 75.4921 15.0364 70.4042 15.0364 70.4042C9.93079 73.9062 10.0302 81.7693 10.0302 81.7693C7.5769 73.9558 0.0676572 71.2797 0.0676572 71.2797C1.22803 80.5469 10.6933 84.0324 10.6933 84.0324M16.3791 108.183C16.3791 108.183 17.8213 107.324 19.9265 107.01L17.6058 106.465L17.3737 106.746C17.5063 106.564 17.6058 106.465 17.6058 106.465L7.27852 117.302C7.27852 117.302 6.10157 118.987 7.21221 120.094C7.21221 120.094 8.25654 120.936 9.68214 119.961L19.7442 111.19C18.733 110.661 16.5117 108.828 16.3791 108.183ZM35.9728 103.773H34.6632C34.5969 109.587 40.2164 114.18 40.2164 114.18C32.6243 111.008 25.7449 115.022 25.7449 115.022C33.6189 120.094 42.3714 115.105 42.3714 115.105C40.664 108.018 37.6802 104.979 35.9728 103.773ZM14.6386 92.2754C19.3795 82.7935 16.5449 78.1186 16.5449 78.1186C12.1189 82.4631 13.5777 90.1775 13.5777 90.1775C9.79817 82.8926 1.9574 81.5546 1.9574 81.5546C4.72571 90.4749 14.6386 92.2589 14.6386 92.2589M41.5757 106.862C42.073 113.023 48.9357 116.872 48.9357 116.872C40.9126 115.072 34.829 120.209 34.829 120.209C43.4654 123.827 51.2233 117.417 51.2233 117.417C46.9797 107.704 41.5591 106.878 41.5591 106.878M19.4458 32.3608C30.0217 33.5502 33.4365 29.2883 33.4365 29.2883C27.8336 26.6452 21.0537 30.6428 21.0537 30.6428C26.6401 24.6134 25.2145 16.7999 25.2145 16.7999C17.7384 22.4329 19.4458 32.3443 19.4458 32.3443M19.9597 99.709C22.9766 89.5498 19.3629 85.4531 19.3629 85.4531C15.7658 90.4914 18.5507 97.8424 18.5507 97.8424C13.5611 91.3173 5.60427 91.3669 5.60427 91.3669C9.88106 99.676 19.9597 99.7255 19.9597 99.7255M97.2236 91.3999C97.2236 91.3999 96.5606 92.0937 96.3451 93.1344L98.3177 95.1663C98.2017 93.8943 97.8867 92.6058 97.2236 91.3834M31.4805 50.73L35.1108 53.9182H43.2831C42.8852 53.2739 43.0179 50.8126 43.0179 50.8126L31.4805 50.7465V50.73ZM51.7538 26.8765V22.3172H65.9766V28.8257H70.6678V33.5006H66.1092V35.582H70.6678V40.6534H66.1092V55.8674H62.1971L56.7765 50.4657L51.8201 55.4049L48.2395 51.8368L56.4616 43.6433L60.7052 47.8722V26.8765H51.7703H51.7538ZM44.4435 48.6816C44.4435 59.4686 51.2233 64.4573 59.6111 64.4573C67.9989 64.4573 74.7954 59.4851 74.7954 48.6816V17.9232H44.46C44.46 17.9232 44.46 37.9112 44.46 48.6816M33.2708 30.9237C33.2708 30.9237 32.359 32.2617 28.8614 33.0051L33.2708 37.0688V30.9237ZM72.0436 75.839C73.0382 75.839 73.0382 75.0956 73.0382 74.3357V67.3151H75.0606V74.7487C75.0606 75.839 74.9446 77.6726 72.0271 77.6726C70.1373 77.6726 69.0101 76.7971 69.0101 74.8809V67.3151H71.0325V73.9062C71.0325 74.6826 70.933 75.839 72.0436 75.839ZM77.2487 79.7375V81.6206H75.1932V83.8342H77.0001V85.7339H75.1932V88.03H77.2819V89.9297H73.1874V79.7375H77.2487ZM76.7017 67.3151H78.9727L79.5529 68.7358C79.7187 69.2314 79.9341 69.76 80.0336 70.2886H80.0502C80.1662 69.76 80.332 69.2479 80.5143 68.7358L81.1277 67.3151H83.3158L81.1277 72.2543L83.465 77.5074H81.1277L80.4812 75.8885C80.2823 75.3764 80.1662 74.8643 80.0336 74.3688H80.0005C79.8513 74.8809 79.7352 75.3764 79.5529 75.8885L78.9561 77.5074H76.6851L78.8567 72.2543L76.6851 67.3151H76.7017ZM82.8516 89.9297L82.4704 88.2117H80.4149L80.0502 89.9297H78.0444L80.4149 79.7375H82.5533L85.0066 89.9297H82.8516ZM69.9052 89.9297L69.4245 82.5787H69.3914L69.0598 85.0896L68.1978 89.9297H66.6396L65.645 85.0401L65.3135 82.7605V82.5622H65.2803L64.982 89.9132H62.8104L63.7056 79.7209H66.3744L67.369 85.7339H67.3856L68.1978 79.7209H70.9164L71.9939 89.9132H69.9218L69.9052 89.9297ZM63.3575 67.3151H65.3798V75.6242H67.485V77.5074H63.3409V67.3151H63.3575ZM60.7549 65.7458V100.32C60.7549 100.32 62.711 98.3875 65.4461 98.3875H86.9792V55.4875H75.359C75.359 55.4875 72.0602 65.6137 60.7383 65.7624M52.0522 70.1895C52.0522 69.4626 51.704 68.8679 50.6763 68.9175H50.4111V71.6266H50.7592C51.6875 71.6266 52.0356 71.0154 52.0356 70.1895M81.4426 82.3475H81.4095L81.194 83.8838L80.763 86.5929H82.1886L81.6747 83.8838L81.4426 82.3475ZM26.9716 36.9201C26.6069 37.2009 24.021 39.5631 20.0757 40.0257L21.4184 41.2811L35.5086 41.215L31.1324 36.8705L28.9111 34.657C28.9111 34.657 27.3529 36.6558 26.955 36.9201M105.545 92.1102C105.545 91.5981 105.131 91.1852 104.617 91.1852C104.103 91.1852 103.689 91.5981 103.689 92.1102C103.689 92.6223 104.103 93.0353 104.617 93.0353C105.131 93.0353 105.545 92.6223 105.545 92.1102ZM110.982 76.2685C111.496 76.2685 111.911 75.8555 111.911 75.3434C111.911 74.8313 111.496 74.4183 110.982 74.4183C110.468 74.4183 110.054 74.8313 110.054 75.3434C110.054 75.8555 110.468 76.2685 110.982 76.2685ZM105.015 69.3635C105.015 69.3635 103.142 74.5009 109.673 82.8761C109.673 82.8761 119.055 79.1758 120 69.8756C120 69.8756 112.574 72.7334 110.319 80.613C110.319 80.613 110.22 72.7499 105.031 69.3635M112.126 71.6762C112.126 71.6762 110.667 63.9453 104.982 61.5169C104.982 61.5169 104.02 66.8856 111.911 74.0054C111.911 74.0054 120.514 68.7358 119.818 59.419C119.818 59.419 112.988 63.5158 112.143 71.6762M101.053 84.4949C101.053 84.4949 97.5386 88.6908 100.788 98.7674C100.788 98.7674 110.866 98.4866 114.944 90.0784C114.944 90.0784 106.971 90.2271 102.147 96.8677C102.147 96.8677 104.749 89.4507 101.053 84.4949ZM112.375 62.5742C112.375 62.5742 109.59 55.2232 103.556 53.8026C103.556 53.8026 103.556 59.2704 112.557 64.9034C112.557 64.9034 120.099 58.2131 117.795 49.1772C117.795 49.1772 111.795 54.3972 112.375 62.5742ZM105.893 103.013C107.435 102.055 108.91 100.75 110.137 98.9656C110.137 98.9656 106.772 98.5362 102.843 99.8577L105.893 103.013ZM47.1786 83.8342L46.9465 82.2814H46.9134L46.6979 83.8342L46.2669 86.5433H47.6925L47.1786 83.8342ZM17.2245 23.5727C10.8425 30.4116 14.2573 39.877 14.2573 39.877C24.8664 39.2327 27.5021 34.4422 27.5021 34.4422C21.5179 32.8068 15.5503 37.9112 15.5503 37.9112C19.9928 31.0063 17.2411 23.5562 17.2411 23.5562M57.0417 105.458H63.1585C63.1585 105.458 63.5564 102.815 65.2969 102.815H90.709V58.2462L88.1893 55.6031V99.7586H65.4295C65.4295 99.7586 62.3629 100.023 59.9758 102.947C59.9758 102.947 58.1192 100.155 54.1242 99.9072H31.8949V56.0161L29.1597 58.7418V102.831H53.9751C53.9751 102.831 57.0417 102.963 57.0417 105.474M9.48322 58.56C9.48322 58.048 9.0688 57.635 8.55492 57.635C8.04104 57.635 7.62663 58.048 7.62663 58.56C7.62663 59.0721 8.04104 59.4851 8.55492 59.4851C9.0688 59.4851 9.48322 59.0721 9.48322 58.56ZM8.67096 54.7441C10.4778 46.7489 5.32247 40.7029 5.32247 40.7029C1.6756 49.3094 8.12393 57.0403 8.12393 57.0403C17.8876 52.8114 18.6999 47.4097 18.6999 47.4097C12.5167 47.9053 8.65438 54.7441 8.65438 54.7441M1.79163 50.5318C-0.29703 59.6338 7.39455 66.1423 7.39455 66.1423C16.2631 60.2945 16.1305 54.8267 16.1305 54.8267C10.1297 56.3795 7.51059 63.7966 7.51059 63.7966C7.90843 55.6031 1.77506 50.5318 1.77506 50.5318M11.9034 32.3773C11.9034 32.3773 11.373 29.0735 14.8209 24.1343H3.15092C3.15092 24.1343 3.64822 25.4889 11.9034 32.3773ZM42.7526 49.5737V48.3182L36.6856 42.2723H22.4628L30.4859 49.5737H42.7361H42.7526ZM28.0988 100.75C28.132 101.179 28.2149 100.651 28.2149 100.651V94.6211L27.2203 95.7279C27.7839 97.2477 27.9828 99.4447 28.0988 100.75ZM13.1632 41.4959C13.1632 42.0079 13.5777 42.4209 14.0915 42.4209C14.6054 42.4209 15.0198 42.0079 15.0198 41.4959C15.0198 40.9838 14.6054 40.5708 14.0915 40.5708C13.5777 40.5708 13.1632 40.9838 13.1632 41.4959ZM28.0491 107.506C28.563 107.506 28.9774 107.093 28.9774 106.581C28.9774 106.069 28.563 105.656 28.0491 105.656C27.5352 105.656 27.1208 106.069 27.1208 106.581C27.1208 107.093 27.5352 107.506 28.0491 107.506ZM34.5306 38.4398L42.7526 46.4846V40.2569L34.5306 32.0635V38.4398ZM28.1486 86.3451H24.2365V91.2843H28.1486V86.3451ZM82.6196 33.3024L76.221 40.2239L76.2873 51.2917C76.2873 51.2917 76.0884 53.1253 75.6905 54.0338H79.8015L91.5378 42.3218L82.603 33.2859L82.6196 33.3024ZM47.9909 67.2491V69.1488H45.9354V71.3623H47.7422V73.262H45.9354V75.5581H48.0074V77.4578H43.913V67.2821L41.0784 77.4578H39.4207L36.4701 67.2656H38.625L39.8517 72.1717C40.0341 72.7499 40.1004 73.3281 40.2164 73.9062H40.233C40.349 73.3116 40.3822 72.7334 40.5479 72.1387L41.7746 67.2656H47.9577L47.9909 67.2491ZM50.5271 89.8636H48.3721L47.9909 88.1457H45.9354L45.5707 89.8636H43.5649L45.9354 79.6714H48.0572L50.5105 89.8636H50.5271ZM48.4053 67.2491H50.4442C51.7372 67.2491 54.0414 67.3812 54.0414 70.1729C54.0414 71.2962 53.5938 72.2543 52.5826 72.7995L54.3563 77.4413H52.2179L50.4442 72.7334H50.4111V77.4413H48.3887V67.2491H48.4053ZM54.7542 67.2491H56.7765V77.4413H54.7542V67.2491ZM53.2623 90.0123C52.6821 90.0123 51.9858 89.8471 51.5217 89.5002V87.584C52.0024 87.9144 52.45 88.1291 53.0633 88.1291C53.7098 88.1291 54.2237 87.6997 54.2237 87.0224C54.2237 86.246 53.5938 85.9486 53.0302 85.5357C51.8532 84.7593 51.1404 83.9994 51.1404 82.5127C51.1404 80.9103 52.0687 79.5227 53.8093 79.5227C54.4558 79.5227 55.0525 79.7044 55.5996 80.0183V81.9841C55.1852 81.6372 54.6878 81.3398 54.1408 81.3398C53.5109 81.3398 53.1131 81.7198 53.1131 82.331C53.1131 84.0159 56.1963 84.0985 56.1963 86.8572C56.1963 88.6743 55.152 90.0288 53.2623 90.0288M43.2002 81.5546H41.5923V89.8471H39.5699V81.5546H37.9785V79.6549H43.1836V81.5546H43.2002ZM33.105 55.471V98.371H54.4392C56.8594 98.4205 59.3293 100.304 59.3293 100.304V65.9771C46.4161 65.6963 43.797 55.4545 43.797 55.4545H33.105V55.471ZM34.0333 111.305C33.8344 108.035 33.2376 105.656 32.5082 103.74H28.7288C29.7565 107.324 32.0772 110.017 32.0772 110.017C25.1648 105.59 17.6887 108.332 17.6887 108.332C24.5514 114.692 34.0499 111.289 34.0499 111.289M21.2029 42.5861L19.3132 40.8186C14.7214 41.9749 11.373 46.0386 11.373 46.0386C13.5279 40.9012 12.3676 36.0776 11.3895 33.5172L10.0137 32.3939C6.01869 39.9265 10.4447 48.1861 10.4447 48.1861C16.578 46.7159 19.6945 44.3041 21.2029 42.5696M10.8922 100.386C16.5449 107.82 26.4909 106.135 26.4909 106.135C27.701 95.5958 23.4242 92.1763 23.4242 92.1763C20.7719 97.7598 24.7835 104.516 24.7835 104.516C18.7496 98.9491 10.9088 100.386 10.9088 100.386M28.016 63.0037H24.1039V67.9429H28.016V63.0037Z"
    fill="white"
  />
</svg>
