<svg id="레이어_1" data-name="레이어 1" xmlns="http://www.w3.org/2000/svg" width="67.31mm" height="54.09mm" viewBox="0 0 190.81 153.32">
  <g>
    <line x1="22.95" y1="99.88" x2="22.95" y2="100.5" fill="none" stroke="#231815" stroke-linejoin="round" stroke-width="0.4"/>
    <line x1="22.95" y1="101.42" x2="22.95" y2="127.12" fill="none" stroke="#231815" stroke-linejoin="round" stroke-width="0.4" stroke-dasharray="1.26 0.92"/>
    <line x1="22.95" y1="127.58" x2="22.95" y2="128.2" fill="none" stroke="#231815" stroke-linejoin="round" stroke-width="0.4"/>
  </g>
  <polyline points="159.01 60.2 159.01 9.17 22.95 9.17 22.95 99.88" fill="none" stroke="#231815" stroke-linejoin="round" stroke-width="0.75"/>
  <g>
    <line x1="22.95" y1="128.2" x2="22.95" y2="128.82" fill="none" stroke="#231815" stroke-linejoin="round" stroke-width="0.4"/>
    <line x1="22.95" y1="129.72" x2="22.95" y2="144.17" fill="none" stroke="#231815" stroke-linejoin="round" stroke-width="0.4" stroke-dasharray="1.23 0.9"/>
    <polyline points="22.95 144.62 22.95 145.24 23.57 145.24" fill="none" stroke="#231815" stroke-linejoin="round" stroke-width="0.4"/>
    <line x1="24.46" y1="145.24" x2="157.95" y2="145.24" fill="none" stroke="#231815" stroke-linejoin="round" stroke-width="0.4" stroke-dasharray="1.23 0.89"/>
    <polyline points="158.39 145.24 159.01 145.24 159.01 144.62" fill="none" stroke="#231815" stroke-linejoin="round" stroke-width="0.4"/>
    <line x1="159.01" y1="143.72" x2="159.01" y2="61.26" fill="none" stroke="#231815" stroke-linejoin="round" stroke-width="0.4" stroke-dasharray="1.23 0.89"/>
    <line x1="159.01" y1="60.82" x2="159.01" y2="60.2" fill="none" stroke="#231815" stroke-linejoin="round" stroke-width="0.4"/>
  </g>
  <polygon points="9.34 118.02 90.98 9.17 159.01 60.2 22.95 128.23 9.34 118.02" fill="none" stroke="#231815" stroke-linejoin="round" stroke-width="0.75"/>
  <path d="M37.72,45.55v-.28a1.82,1.82,0,0,0,.93-.14c.15-.1.18-.31.07-.61l-.65-1.84H35l-.51,1.59c-.13.41-.13.67,0,.81a1.48,1.48,0,0,0,.94.19v.28H33v-.28a1,1,0,0,0,.68-.19,2.42,2.42,0,0,0,.49-.95l2.19-6.4.61-.27,2.43,7a1.14,1.14,0,0,0,.4.61,1.19,1.19,0,0,0,.7.17v.28Zm-1.2-7.28-1.4,4.09H38Z" transform="translate(-18.74 -36.73)" fill="#221e1f"/>
  <path d="M39.25,189.2a3,3,0,0,1-2.08.67H33.62v-.28a1.73,1.73,0,0,0,.84-.14.66.66,0,0,0,.21-.58V183a.71.71,0,0,0-.21-.58,1.45,1.45,0,0,0-.84-.18V182H37a3.3,3.3,0,0,1,2,.52,1.59,1.59,0,0,1,.69,1.34,1.53,1.53,0,0,1-.38,1,2.87,2.87,0,0,1-1.35.72,2.84,2.84,0,0,1,1.6.78,2.06,2.06,0,0,1-.22,2.85Zm-.86-6.48a2,2,0,0,0-1.45-.49h-.65a1.09,1.09,0,0,0-.7.18.74.74,0,0,0-.22.58v2.53h1.57a1.83,1.83,0,0,0,1.36-.59,1.65,1.65,0,0,0,.53-1.19A1.4,1.4,0,0,0,38.39,182.72Zm.24,3.66a2.15,2.15,0,0,0-1.52-.59H35.37v3.08a.68.68,0,0,0,.22.58,1.26,1.26,0,0,0,.7.14H37a2.23,2.23,0,0,0,1.61-.59,1.75,1.75,0,0,0,.56-1.3A1.79,1.79,0,0,0,38.63,186.38Z" transform="translate(-18.74 -36.73)" fill="#221e1f"/>
  <path d="M184,189.36a2.66,2.66,0,0,1-1.82.68,2.9,2.9,0,0,1-2.29-1.08,4.63,4.63,0,0,1-1-3.1,4.82,4.82,0,0,1,.86-2.89,2.69,2.69,0,0,1,2.24-1.2,3.18,3.18,0,0,1,.62.06l.64.2.07,0,.79-.25.76,2-.17.11a5.69,5.69,0,0,0-1.07-1.22,2.57,2.57,0,0,0-1.62-.65,2,2,0,0,0-1.7,1.08,5.21,5.21,0,0,0-.67,2.73,4.07,4.07,0,0,0,.81,2.59,2.42,2.42,0,0,0,2,1.05,2.17,2.17,0,0,0,1.3-.44,4,4,0,0,0,1.14-1.41l.21.08A4.4,4.4,0,0,1,184,189.36Z" transform="translate(-18.74 -36.73)" fill="#221e1f"/>
  <path d="M184.47,44.22a3.55,3.55,0,0,1-2.91,1.25h-3v-.28a1.32,1.32,0,0,0,.82-.19.74.74,0,0,0,.23-.62V38.57a.66.66,0,0,0-.23-.57,1.45,1.45,0,0,0-.82-.17v-.28h3a3.57,3.57,0,0,1,2.91,1.23,4.52,4.52,0,0,1,0,5.44ZM183.86,39a2.72,2.72,0,0,0-2.3-1.15h-.34a1.07,1.07,0,0,0-.68.17.71.71,0,0,0-.2.57v5.81a.78.78,0,0,0,.2.62,1,1,0,0,0,.68.19h.34a2.74,2.74,0,0,0,2.3-1.15,4.16,4.16,0,0,0,.77-2.54A4.1,4.1,0,0,0,183.86,39Z" transform="translate(-18.74 -36.73)" fill="#221e1f"/>
  <path d="M111.64,44.65v-.28a1.23,1.23,0,0,0,.82-.21.62.62,0,0,0,.23-.55V37.1h-.12l-2.87,7.63h-.17l-2.84-7.47h-.12v6.35a.71.71,0,0,0,.21.58,1.45,1.45,0,0,0,.84.18v.28H105.2v-.28a1.45,1.45,0,0,0,.84-.18.71.71,0,0,0,.21-.58v-6a.5.5,0,0,0-.24-.47,1.72,1.72,0,0,0-.81-.13v-.28h2l2.61,6.92,2.59-6.92h2V37a1.73,1.73,0,0,0-.86.14.51.51,0,0,0-.2.46v6a.67.67,0,0,0,.22.55,1.29,1.29,0,0,0,.84.21v.28Z" transform="translate(-18.74 -36.73)" fill="#221e1f"/>
  <path d="M190,93.74a.48.48,0,0,0-.25.45v7.09h-.19l-4.83-7v5.88a.69.69,0,0,0,.23.59,1.75,1.75,0,0,0,.91.17v.28h-2.52V101a1.48,1.48,0,0,0,.81-.17.69.69,0,0,0,.23-.59V94.35a.65.65,0,0,0-.23-.59,1.39,1.39,0,0,0-.81-.17v-.28h1.49l4.59,6.64V94.19a.48.48,0,0,0-.26-.46,2,2,0,0,0-.91-.14v-.28h2.55v.28A1.69,1.69,0,0,0,190,93.74Z" transform="translate(-18.74 -36.73)" fill="#221e1f"/>
  <path d="M39.44,133.44a2.39,2.39,0,0,1-1.66.57H36v2.65a.73.73,0,0,0,.23.6,1.57,1.57,0,0,0,.91.2v.28H34.22v-.28a1.29,1.29,0,0,0,.82-.2.7.7,0,0,0,.23-.6v-5.85a.61.61,0,0,0-.23-.56,1.58,1.58,0,0,0-.82-.15v-.28h3.64a2.4,2.4,0,0,1,1.59.52,1.8,1.8,0,0,1,.67,1.47A2,2,0,0,1,39.44,133.44Zm-.53-2.82a1.7,1.7,0,0,0-1.3-.52h-.86a.89.89,0,0,0-.59.15.72.72,0,0,0-.19.56v2.92h1.62a1.61,1.61,0,0,0,1.32-.62,2,2,0,0,0,.46-1.3A1.64,1.64,0,0,0,38.91,130.62Z" transform="translate(-18.74 -36.73)" fill="#221e1f"/>
  <path d="M40.14,172.92a2.63,2.63,0,0,1-.48.38,1.19,1.19,0,0,1-.61.17,1.28,1.28,0,0,1-.89-.38,2.83,2.83,0,0,1-.6-.9,2.74,2.74,0,0,1-.53.17,2.59,2.59,0,0,1-.47,0,2.92,2.92,0,0,1-2.49-1.29,4.7,4.7,0,0,1-.84-2.83,4.78,4.78,0,0,1,.84-2.85,3,3,0,0,1,5,0,4.62,4.62,0,0,1,.9,2.85,5.38,5.38,0,0,1-.43,2.16A2.8,2.8,0,0,1,38.16,172a1.79,1.79,0,0,0,.42.62.94.94,0,0,0,.67.32,1.5,1.5,0,0,0,.4-.05,1.59,1.59,0,0,0,.43-.17l.13.17Zm-1.65-7.29a2.15,2.15,0,0,0-3.86,0A5.08,5.08,0,0,0,34,168.3a6.2,6.2,0,0,0,.2,1.57,3.12,3.12,0,0,0,.63,1.32,1,1,0,0,1,.32-1,1.36,1.36,0,0,1,.82-.2,1.79,1.79,0,0,1,1,.31A3.37,3.37,0,0,1,38,171.57a2.79,2.79,0,0,0,.9-1.5,5.84,5.84,0,0,0,.26-1.77A5.08,5.08,0,0,0,38.49,165.63Zm-1.89,5a1.3,1.3,0,0,0-.81-.27.79.79,0,0,0-.48.12,1,1,0,0,0-.32.87,2.87,2.87,0,0,0,.81.61,1.79,1.79,0,0,0,.76.16,1.33,1.33,0,0,0,.43-.07,4,4,0,0,0,.44-.17A2.73,2.73,0,0,0,36.6,170.64Z" transform="translate(-18.74 -36.73)" fill="#221e1f"/>
  <g>
    <path d="M24.36,157.35a3.09,3.09,0,0,1-2.08.66H18.74v-.28a1.68,1.68,0,0,0,.83-.14.65.65,0,0,0,.22-.58v-5.86a.71.71,0,0,0-.22-.58,1.41,1.41,0,0,0-.83-.18v-.28h3.32a3.24,3.24,0,0,1,2,.52A1.58,1.58,0,0,1,24.7,152a1.47,1.47,0,0,1-.38,1,2.62,2.62,0,0,1-1.34.72,2.84,2.84,0,0,1,1.59.78,1.91,1.91,0,0,1,.48,1.34A1.94,1.94,0,0,1,24.36,157.35Zm-.87-6.47a2,2,0,0,0-1.44-.49H21.4a1.11,1.11,0,0,0-.7.18.72.72,0,0,0-.21.58v2.52h1.56a1.88,1.88,0,0,0,1.36-.58,1.69,1.69,0,0,0,.53-1.19A1.37,1.37,0,0,0,23.49,150.88Zm.24,3.65a2.1,2.1,0,0,0-1.51-.58H20.49V157a.67.67,0,0,0,.21.58,1.26,1.26,0,0,0,.7.14h.75a2.19,2.19,0,0,0,1.6-.59,1.71,1.71,0,0,0,.56-1.3A1.75,1.75,0,0,0,23.73,154.53Z" transform="translate(-18.74 -36.73)"/>
    <path d="M27.86,149.42H29l-2.3,3.09Z" transform="translate(-18.74 -36.73)"/>
  </g>
  <polyline points="23 136.21 31.51 136.21 31.51 144.72" fill="none" stroke="#221e1f" stroke-miterlimit="10" stroke-width="0.4"/>
  <polyline points="159.01 136.73 150.51 136.73 150.51 145.24" fill="none" stroke="#221e1f" stroke-miterlimit="10" stroke-width="0.4"/>
  <polyline points="22.98 18.2 31.48 18.2 31.48 9.69" fill="none" stroke="#221e1f" stroke-miterlimit="10" stroke-width="0.4"/>
  <polyline points="158.99 17.68 150.48 17.68 150.48 9.17" fill="none" stroke="#221e1f" stroke-miterlimit="10" stroke-width="0.4"/>
  <polyline points="97.7 14.28 92.6 21.08 85.8 15.98" fill="none" stroke="#221e1f" stroke-miterlimit="10" stroke-width="0.4"/>
  <polyline points="14.58 110.99 21.38 116.09 16.28 122.89" fill="none" stroke="#221e1f" stroke-miterlimit="10" stroke-width="0.4"/>
  <g>
    <path d="M151,67.37l.49.39" transform="translate(-18.74 -36.73)" fill="none" stroke="#221e1f" stroke-miterlimit="10" stroke-width="0.4"/>
    <path d="M152.22,68.31C166.06,79.23,176,90.09,177.58,95.86" transform="translate(-18.74 -36.73)" fill="none" stroke="#221e1f" stroke-miterlimit="10" stroke-width="0.4" stroke-dasharray="1.23 0.89"/>
    <path d="M177.68,96.29a4.69,4.69,0,0,1,.1.6" transform="translate(-18.74 -36.73)" fill="none" stroke="#221e1f" stroke-miterlimit="10" stroke-width="0.4"/>
  </g>
  <g>
    <path d="M109.82,45.94l.61-.08" transform="translate(-18.74 -36.73)" fill="none" stroke="#221e1f" stroke-miterlimit="10" stroke-width="0.4"/>
    <path d="M111.31,45.85c6.12.22,18.91,6.53,32.83,16.41" transform="translate(-18.74 -36.73)" fill="none" stroke="#221e1f" stroke-miterlimit="10" stroke-width="0.4" stroke-dasharray="1.21 0.88"/>
    <path d="M144.51,62.52l.5.36" transform="translate(-18.74 -36.73)" fill="none" stroke="#221e1f" stroke-miterlimit="10" stroke-width="0.4"/>
  </g>
  <g>
    <path d="M186.31,136.61c0-.21,0-.42,0-.62" transform="translate(-18.74 -36.73)" fill="none" stroke="#221e1f" stroke-miterlimit="10" stroke-width="0.4"/>
    <path d="M186.28,135.07c-.43-17.93-3.56-32.66-7.72-37.43" transform="translate(-18.74 -36.73)" fill="none" stroke="#221e1f" stroke-miterlimit="10" stroke-width="0.4" stroke-dasharray="1.26 0.91"/>
    <path d="M178.25,97.31l-.45-.42" transform="translate(-18.74 -36.73)" fill="none" stroke="#221e1f" stroke-miterlimit="10" stroke-width="0.4"/>
  </g>
  <g>
    <path d="M177.78,181.77a4.48,4.48,0,0,0,.46-.42" transform="translate(-18.74 -36.73)" fill="none" stroke="#221e1f" stroke-miterlimit="10" stroke-width="0.4"/>
    <path d="M178.82,180.69c4-5,7-19.17,7.44-36.4" transform="translate(-18.74 -36.73)" fill="none" stroke="#221e1f" stroke-miterlimit="10" stroke-width="0.4" stroke-dasharray="1.22 0.89"/>
    <path d="M186.27,143.84c0-.21,0-.42,0-.63" transform="translate(-18.74 -36.73)" fill="none" stroke="#221e1f" stroke-miterlimit="10" stroke-width="0.4"/>
  </g>
  <g>
    <path d="M186.12,66.24c0-.2,0-.41-.05-.62" transform="translate(-18.74 -36.73)" fill="none" stroke="#221e1f" stroke-miterlimit="10" stroke-width="0.4"/>
    <path d="M186,64.76C185,56,182.2,49,178.59,46.39" transform="translate(-18.74 -36.73)" fill="none" stroke="#221e1f" stroke-miterlimit="10" stroke-width="0.4" stroke-dasharray="1.2 0.87"/>
    <path d="M178.23,46.15a4.85,4.85,0,0,0-.54-.3" transform="translate(-18.74 -36.73)" fill="none" stroke="#221e1f" stroke-miterlimit="10" stroke-width="0.4"/>
  </g>
  <g>
    <path d="M177.68,96.89a3.92,3.92,0,0,0,.53-.29" transform="translate(-18.74 -36.73)" fill="none" stroke="#221e1f" stroke-miterlimit="10" stroke-width="0.4"/>
    <path d="M179,96.06c3.66-3,6.44-10.49,7.18-19.78" transform="translate(-18.74 -36.73)" fill="none" stroke="#221e1f" stroke-miterlimit="10" stroke-width="0.4" stroke-dasharray="1.27 0.92"/>
    <path d="M186.17,75.82c0-.21,0-.42,0-.62" transform="translate(-18.74 -36.73)" fill="none" stroke="#221e1f" stroke-miterlimit="10" stroke-width="0.4"/>
  </g>
  <path d="M188.83,138.37a.55.55,0,0,1-.42.19.45.45,0,0,1-.31-.1.36.36,0,0,1-.12-.28.56.56,0,0,1,.16-.39.74.74,0,0,1,.38-.2.66.66,0,0,0-.27-.12l-.28,0a.92.92,0,0,0-.75.44,2.34,2.34,0,0,0-.34.86l-.51,2.06a1.67,1.67,0,0,0-.05.47.79.79,0,0,0,.14.43.49.49,0,0,0,.18.17.67.67,0,0,0,.28.06.92.92,0,0,0,.38-.09,2,2,0,0,0,.35-.19,2.16,2.16,0,0,0,.42-.48,2.48,2.48,0,0,0,.28-.59v0a.47.47,0,0,1,.08-.15s.08,0,.15,0,.08.06.08.13a1.67,1.67,0,0,1-.07.24,3,3,0,0,1-.37.65,2.43,2.43,0,0,1-.56.55,1.34,1.34,0,0,1-.37.16,1.23,1.23,0,0,1-.39.06,1.25,1.25,0,0,1-.45-.07.89.89,0,0,1-.33-.19,2.1,2.1,0,0,1-.26-.27,1,1,0,0,1-.14-.3,2.09,2.09,0,0,1-.48.59,1.13,1.13,0,0,1-.68.24,1.25,1.25,0,0,1-.68-.17.6.6,0,0,1-.35-.55.66.66,0,0,1,.17-.45.59.59,0,0,1,.43-.19.46.46,0,0,1,.29.1.37.37,0,0,1,.12.29.56.56,0,0,1-.16.39.71.71,0,0,1-.36.2.76.76,0,0,0,.26.11,1.27,1.27,0,0,0,.29,0,.84.84,0,0,0,.69-.4,2.17,2.17,0,0,0,.35-.75l.45-1.75h0a5.46,5.46,0,0,0,.13-.63,1.17,1.17,0,0,0,0-.61.49.49,0,0,0-.22-.25.57.57,0,0,0-.32-.09,1.36,1.36,0,0,0-.73.27,2.28,2.28,0,0,0-.45.51,2.81,2.81,0,0,0-.29.66.21.21,0,0,1-.08.1.15.15,0,0,1-.13,0c-.06,0-.08-.07-.05-.18a1.73,1.73,0,0,1,.08-.26l0,0a2.17,2.17,0,0,1,.37-.6,2.2,2.2,0,0,1,.53-.48,1.22,1.22,0,0,1,.36-.18,1.48,1.48,0,0,1,.39,0,1.27,1.27,0,0,1,.74.22,1.17,1.17,0,0,1,.45.61,1.48,1.48,0,0,1,.46-.59,1.16,1.16,0,0,1,.7-.24,1.34,1.34,0,0,1,.66.16.59.59,0,0,1,.36.56A.66.66,0,0,1,188.83,138.37Z" transform="translate(-18.74 -36.73)"/>
  <path d="M150.63,63.67a.55.55,0,0,1-.42.19.41.41,0,0,1-.31-.11.34.34,0,0,1-.12-.27.57.57,0,0,1,.16-.39.67.67,0,0,1,.38-.2.66.66,0,0,0-.27-.12,1.27,1.27,0,0,0-.28,0,.89.89,0,0,0-.75.44,2.47,2.47,0,0,0-.34.85l-.51,2.07a1.61,1.61,0,0,0,0,.46.82.82,0,0,0,.14.44.47.47,0,0,0,.18.16.68.68,0,0,0,.28.07,1,1,0,0,0,.39-.09,1.93,1.93,0,0,0,.34-.19,2.22,2.22,0,0,0,.42-.49,2.85,2.85,0,0,0,.29-.58v0a.72.72,0,0,1,.07-.15.17.17,0,0,1,.15,0c.06,0,.08.06.08.14a1.67,1.67,0,0,1-.07.24,3.21,3.21,0,0,1-.37.65,2.65,2.65,0,0,1-.56.55,1.46,1.46,0,0,1-.36.16,1.34,1.34,0,0,1-.4.06,1.25,1.25,0,0,1-.45-.07.91.91,0,0,1-.33-.2,1.59,1.59,0,0,1-.26-.26,1.35,1.35,0,0,1-.14-.3,1.88,1.88,0,0,1-.48.58,1.08,1.08,0,0,1-.68.25,1.34,1.34,0,0,1-.68-.17.61.61,0,0,1-.35-.56.64.64,0,0,1,.18-.45.54.54,0,0,1,.42-.18.39.39,0,0,1,.29.1.37.37,0,0,1,.12.29.52.52,0,0,1-.16.38.73.73,0,0,1-.35.21.63.63,0,0,0,.25.1.93.93,0,0,0,.29,0,.85.85,0,0,0,.69-.4,2.17,2.17,0,0,0,.35-.75l.45-1.76h0a5,5,0,0,0,.13-.62,1.16,1.16,0,0,0,0-.61.61.61,0,0,0-.21-.26.7.7,0,0,0-.33-.08,1.06,1.06,0,0,0-.38.07,1.33,1.33,0,0,0-.35.19,2.14,2.14,0,0,0-.45.52,2.9,2.9,0,0,0-.28.65s0,.09-.09.11h-.13c-.06,0-.07-.08,0-.18a1.44,1.44,0,0,1,.08-.26l0,0a1.92,1.92,0,0,1,.37-.6,2.18,2.18,0,0,1,.53-.48,1.55,1.55,0,0,1,.36-.19,2.25,2.25,0,0,1,.4,0,1.19,1.19,0,0,1,.73.22,1.13,1.13,0,0,1,.45.61,1.36,1.36,0,0,1,.47-.59,1.11,1.11,0,0,1,.69-.24,1.41,1.41,0,0,1,.67.15.62.62,0,0,1,.35.57A.67.67,0,0,1,150.63,63.67Z" transform="translate(-18.74 -36.73)"/>
  <path d="M186.77,73.35a2.41,2.41,0,0,1-.49.68,2.35,2.35,0,0,1-.79.49,2.66,2.66,0,0,1-.9.16,2.94,2.94,0,0,1-.44,0,3.42,3.42,0,0,1-.4-.09,2.14,2.14,0,0,1-1-.58,1.49,1.49,0,0,1-.41-1,.71.71,0,0,1,.15-.48.62.62,0,0,1,.46-.17.58.58,0,0,1,.62.62.58.58,0,0,1-.22.48.63.63,0,0,1-.5.13,1.43,1.43,0,0,0,.7.61,2.31,2.31,0,0,0,1,.23,1.08,1.08,0,0,0,.43-.1,1.27,1.27,0,0,0,.37-.25,1.76,1.76,0,0,0,.34-.7,3.06,3.06,0,0,0,.1-.77c0-.15,0-.29,0-.4s0-.25-.06-.35a1.53,1.53,0,0,0-.42-.79,1.12,1.12,0,0,0-.81-.29H184a.37.37,0,0,1-.17,0,.11.11,0,0,1-.07-.11c0-.06,0-.1,0-.12h.43l.35,0a1,1,0,0,0,.58-.34,1.52,1.52,0,0,0,.34-.59c0-.18.08-.33.1-.44a2.42,2.42,0,0,0,0-.45,1.64,1.64,0,0,0-.07-.52,1.09,1.09,0,0,0-.28-.46.92.92,0,0,0-.35-.19,1,1,0,0,0-.36-.05l-.38,0a2,2,0,0,0-.38.1,1.62,1.62,0,0,0-.41.22,1,1,0,0,0-.3.33h.19a.58.58,0,0,1,.37.16.48.48,0,0,1,.13.37.55.55,0,0,1-.56.56.54.54,0,0,1-.42-.16.56.56,0,0,1-.15-.41,1.26,1.26,0,0,1,.36-.88,1.89,1.89,0,0,1,.81-.5,2.34,2.34,0,0,1,.38-.09,2.75,2.75,0,0,1,.41,0,2.92,2.92,0,0,1,.73.09,2.25,2.25,0,0,1,.66.32,1.47,1.47,0,0,1,.46.47,1.14,1.14,0,0,1,.19.64,1.57,1.57,0,0,1-.13.62,2.61,2.61,0,0,1-.31.56,2.49,2.49,0,0,1-.51.45,2.44,2.44,0,0,1-.6.31,2.35,2.35,0,0,1,1,.45,2.06,2.06,0,0,1,.69.88c0,.11.06.22.09.32a2.21,2.21,0,0,1,0,.35A1.82,1.82,0,0,1,186.77,73.35Z" transform="translate(-18.74 -36.73)"/>
  <path d="M192.06,72.18a4,4,0,0,1-.33,1.22,2.24,2.24,0,0,1-.78.93,2,2,0,0,1-1.9.2,2,2,0,0,1-.65-.41,2.8,2.8,0,0,1-.75-1.5,7.64,7.64,0,0,1-.16-1.71,9.68,9.68,0,0,1,.13-1.65,3.17,3.17,0,0,1,.68-1.5,1.9,1.9,0,0,1,.68-.5,2.19,2.19,0,0,1,1.62,0,2.26,2.26,0,0,1,.65.44,2.86,2.86,0,0,1,.74,1.5,8.39,8.39,0,0,1,.15,1.72A8.83,8.83,0,0,1,192.06,72.18Zm-.85-2.5a8.72,8.72,0,0,0-.07-.89,2.11,2.11,0,0,0-.27-.82,1.35,1.35,0,0,0-.46-.46,1.06,1.06,0,0,0-.6-.18,1.1,1.1,0,0,0-.62.18,1.3,1.3,0,0,0-.44.46,2.19,2.19,0,0,0-.26.85,6.85,6.85,0,0,0-.07.89c0,.37,0,.75,0,1.13s0,.75,0,1.12a5.45,5.45,0,0,0,.07.92,2.49,2.49,0,0,0,.26.88,1.49,1.49,0,0,0,.44.49,1.08,1.08,0,0,0,.62.19,1.1,1.1,0,0,0,.64-.2,1.53,1.53,0,0,0,.45-.52,2.84,2.84,0,0,0,.23-.86c0-.23.05-.53.07-.9s0-.75,0-1.15,0-.76,0-1.15Z" transform="translate(-18.74 -36.73)"/>
  <path d="M201.52,71.08a.73.73,0,0,1-.25,0h-6.39a.72.72,0,0,1-.26,0,.18.18,0,0,1-.11-.19.19.19,0,0,1,.12-.2.87.87,0,0,1,.26,0h6.37a.83.83,0,0,1,.25,0,.2.2,0,0,1,.13.2A.18.18,0,0,1,201.52,71.08Z" transform="translate(-18.74 -36.73)"/>
  <path d="M209.38,70.74a.55.55,0,0,1-.42.19.45.45,0,0,1-.31-.11.35.35,0,0,1-.12-.28.52.52,0,0,1,.16-.38.68.68,0,0,1,.38-.21.66.66,0,0,0-.27-.12l-.28,0a.92.92,0,0,0-.76.44,2.53,2.53,0,0,0-.34.86l-.51,2.08a1.67,1.67,0,0,0,0,.47.85.85,0,0,0,.14.44.47.47,0,0,0,.18.16.67.67,0,0,0,.28.06,1.18,1.18,0,0,0,.39-.08,2.57,2.57,0,0,0,.35-.2,2,2,0,0,0,.42-.48,3,3,0,0,0,.29-.59v0a.34.34,0,0,1,.07-.15.17.17,0,0,1,.15,0c.06,0,.08.06.08.14a1.67,1.67,0,0,1-.07.24,3.21,3.21,0,0,1-.37.65,2.42,2.42,0,0,1-.56.55,1.37,1.37,0,0,1-.37.17,1.29,1.29,0,0,1-.4.06,1.25,1.25,0,0,1-.45-.08.88.88,0,0,1-.34-.19,1.54,1.54,0,0,1-.25-.27.81.81,0,0,1-.14-.3,2.11,2.11,0,0,1-.49.59,1.08,1.08,0,0,1-.68.25,1.41,1.41,0,0,1-.69-.17.61.61,0,0,1-.34-.56.66.66,0,0,1,.17-.45.54.54,0,0,1,.43-.19.41.41,0,0,1,.29.1.37.37,0,0,1,.12.29.56.56,0,0,1-.16.39.64.64,0,0,1-.36.2.68.68,0,0,0,.26.11.92.92,0,0,0,.29,0,.82.82,0,0,0,.69-.4,2.38,2.38,0,0,0,.36-.75l.45-1.77h0a5,5,0,0,0,.13-.62,1.15,1.15,0,0,0,0-.61.52.52,0,0,0-.22-.26.57.57,0,0,0-.32-.09,1.09,1.09,0,0,0-.39.08,1,1,0,0,0-.34.19,2,2,0,0,0-.46.52,2.93,2.93,0,0,0-.29.65.2.2,0,0,1-.09.11.13.13,0,0,1-.12,0q-.09,0-.06-.18c0-.07,0-.15.09-.26l0,0a2.41,2.41,0,0,1,.91-1.09,1.06,1.06,0,0,1,.35-.18,1.62,1.62,0,0,1,.4-.05,1.29,1.29,0,0,1,.74.22,1.24,1.24,0,0,1,.46.61,1.46,1.46,0,0,1,.46-.59,1.14,1.14,0,0,1,.7-.24,1.41,1.41,0,0,1,.67.15.62.62,0,0,1,.35.57A.63.63,0,0,1,209.38,70.74Z" transform="translate(-18.74 -36.73)"/>
</svg>
