<svg id="레이어_1" data-name="레이어 1" xmlns="http://www.w3.org/2000/svg" width="66.45mm" height="56.11mm" viewBox="0 0 188.35 159.06">
  <g>
    <line x1="22.95" y1="105.63" x2="22.95" y2="106.25" fill="none" stroke="#231815" stroke-linejoin="round" stroke-width="0.4"/>
    <line x1="22.95" y1="107.16" x2="22.95" y2="132.87" fill="none" stroke="#231815" stroke-linejoin="round" stroke-width="0.4" stroke-dasharray="1.26 0.92"/>
    <line x1="22.95" y1="133.32" x2="22.95" y2="133.94" fill="none" stroke="#231815" stroke-linejoin="round" stroke-width="0.4"/>
  </g>
  <polyline points="159.01 65.94 159.01 14.92 22.95 14.92 22.95 105.63" fill="none" stroke="#231815" stroke-linejoin="round" stroke-width="0.75"/>
  <g>
    <line x1="22.95" y1="133.94" x2="22.95" y2="134.56" fill="none" stroke="#231815" stroke-linejoin="round" stroke-width="0.4"/>
    <line x1="22.95" y1="135.46" x2="22.95" y2="149.91" fill="none" stroke="#231815" stroke-linejoin="round" stroke-width="0.4" stroke-dasharray="1.23 0.9"/>
    <polyline points="22.95 150.36 22.95 150.98 23.57 150.98" fill="none" stroke="#231815" stroke-linejoin="round" stroke-width="0.4"/>
    <line x1="24.46" y1="150.98" x2="157.95" y2="150.98" fill="none" stroke="#231815" stroke-linejoin="round" stroke-width="0.4" stroke-dasharray="1.23 0.89"/>
    <polyline points="158.39 150.98 159.01 150.98 159.01 150.36" fill="none" stroke="#231815" stroke-linejoin="round" stroke-width="0.4"/>
    <line x1="159.01" y1="149.47" x2="159.01" y2="67.01" fill="none" stroke="#231815" stroke-linejoin="round" stroke-width="0.4" stroke-dasharray="1.23 0.89"/>
    <line x1="159.01" y1="66.56" x2="159.01" y2="65.94" fill="none" stroke="#231815" stroke-linejoin="round" stroke-width="0.4"/>
  </g>
  <polygon points="9.34 123.77 90.98 14.92 159.01 65.94 22.95 133.97 9.34 123.77" fill="none" stroke="#231815" stroke-linejoin="round" stroke-width="0.75"/>
  <path d="M37.91,49.15v-.28a1.82,1.82,0,0,0,.93-.14c.15-.1.18-.31.07-.61l-.65-1.84H35.2l-.51,1.59q-.19.6,0,.81a1.48,1.48,0,0,0,.94.19v.28H33.22v-.28a1,1,0,0,0,.68-.19,2.42,2.42,0,0,0,.49-1l2.19-6.4.61-.27,2.43,7a1.09,1.09,0,0,0,.4.61,1.27,1.27,0,0,0,.7.17v.28Zm-1.2-7.28L35.31,46h2.83Z" transform="translate(-18.93 -34.58)" fill="#221e1f"/>
  <path d="M39.44,192.8a3,3,0,0,1-2.08.67H33.81v-.28a1.65,1.65,0,0,0,.83-.14c.15-.09.22-.29.22-.58v-5.88a.68.68,0,0,0-.22-.58,1.41,1.41,0,0,0-.83-.18v-.28h3.33a3.3,3.3,0,0,1,2,.52,1.58,1.58,0,0,1,.69,1.34,1.55,1.55,0,0,1-.38,1,2.87,2.87,0,0,1-1.35.72,2.84,2.84,0,0,1,1.6.78,2.06,2.06,0,0,1-.22,2.85Zm-.86-6.48a2.05,2.05,0,0,0-1.45-.49h-.65a1.09,1.09,0,0,0-.7.18.69.69,0,0,0-.22.58v2.52h1.57a1.84,1.84,0,0,0,1.36-.58,1.65,1.65,0,0,0,.53-1.19A1.4,1.4,0,0,0,38.58,186.32Zm.23,3.65a2.14,2.14,0,0,0-1.51-.58H35.56v3.08a.66.66,0,0,0,.22.58,1.26,1.26,0,0,0,.7.14h.75a2.23,2.23,0,0,0,1.61-.59,1.76,1.76,0,0,0,.56-1.3A1.8,1.8,0,0,0,38.81,190Z" transform="translate(-18.93 -34.58)" fill="#221e1f"/>
  <path d="M184.18,193a2.66,2.66,0,0,1-1.82.68,2.9,2.9,0,0,1-2.29-1.08,4.63,4.63,0,0,1-1-3.1,4.74,4.74,0,0,1,.86-2.89,2.69,2.69,0,0,1,2.24-1.2,3.26,3.26,0,0,1,.62.06l.64.2.07,0,.78-.25.77,2-.17.11a6,6,0,0,0-1.07-1.22,2.57,2.57,0,0,0-1.62-.65,2,2,0,0,0-1.7,1.08,5.21,5.21,0,0,0-.67,2.73,4.07,4.07,0,0,0,.81,2.59,2.42,2.42,0,0,0,2,1,2.17,2.17,0,0,0,1.3-.44,4,4,0,0,0,1.14-1.41l.21.08A4.4,4.4,0,0,1,184.18,193Z" transform="translate(-18.93 -34.58)" fill="#221e1f"/>
  <path d="M184.66,47.82a3.55,3.55,0,0,1-2.91,1.25h-3v-.28a1.27,1.27,0,0,0,.81-.19.73.73,0,0,0,.24-.62V42.17a.64.64,0,0,0-.24-.57,1.38,1.38,0,0,0-.81-.18v-.27h3a3.57,3.57,0,0,1,2.91,1.23,4.52,4.52,0,0,1,0,5.44Zm-.61-5.25a2.74,2.74,0,0,0-2.3-1.15h-.34a1,1,0,0,0-.68.18.71.71,0,0,0-.21.57V48a.79.79,0,0,0,.21.62,1,1,0,0,0,.68.19h.34a2.74,2.74,0,0,0,2.3-1.15,4.61,4.61,0,0,0,0-5.07Z" transform="translate(-18.93 -34.58)" fill="#221e1f"/>
  <path d="M111.73,43.81v-.28a1.25,1.25,0,0,0,.82-.2.66.66,0,0,0,.23-.56v-6.5h-.12l-2.87,7.63h-.18l-2.83-7.47h-.13v6.34a.7.7,0,0,0,.22.58,1.45,1.45,0,0,0,.84.18v.28h-2.42v-.28a1.41,1.41,0,0,0,.83-.18.67.67,0,0,0,.22-.58v-6a.5.5,0,0,0-.24-.47,1.72,1.72,0,0,0-.81-.13v-.28h2l2.6,6.92,2.6-6.92h2v.28a1.82,1.82,0,0,0-.86.14.52.52,0,0,0-.2.46v6a.65.65,0,0,0,.22.56,1.29,1.29,0,0,0,.84.2v.28Z" transform="translate(-18.93 -34.58)" fill="#221e1f"/>
  <path d="M189.77,98.13a.48.48,0,0,0-.25.45v7.09h-.19l-4.83-7v5.88a.69.69,0,0,0,.23.59,1.76,1.76,0,0,0,.92.17v.28h-2.53v-.28a1.48,1.48,0,0,0,.81-.17.67.67,0,0,0,.24-.59V98.74a.67.67,0,0,0-.24-.59,1.48,1.48,0,0,0-.81-.17V97.7h1.49l4.59,6.64V98.58a.49.49,0,0,0-.26-.46A2.17,2.17,0,0,0,188,98V97.7h2.55V98A1.71,1.71,0,0,0,189.77,98.13Z" transform="translate(-18.93 -34.58)" fill="#221e1f"/>
  <path d="M39.63,137a2.39,2.39,0,0,1-1.66.57H36.16v2.65a.75.75,0,0,0,.23.6,1.55,1.55,0,0,0,.91.2v.28H34.41v-.28a1.31,1.31,0,0,0,.82-.2.75.75,0,0,0,.23-.6v-5.85a.63.63,0,0,0-.23-.56,1.58,1.58,0,0,0-.82-.15v-.28h3.64a2.4,2.4,0,0,1,1.59.52,1.8,1.8,0,0,1,.67,1.47A2,2,0,0,1,39.63,137Zm-.53-2.82a1.72,1.72,0,0,0-1.31-.52h-.85a.89.89,0,0,0-.59.15.69.69,0,0,0-.19.56v2.92h1.62a1.64,1.64,0,0,0,1.32-.62,2,2,0,0,0,.46-1.3A1.69,1.69,0,0,0,39.1,134.22Z" transform="translate(-18.93 -34.58)" fill="#221e1f"/>
  <path d="M40.32,176.52a2.65,2.65,0,0,1-.47.38,1.2,1.2,0,0,1-.62.17,1.26,1.26,0,0,1-.88-.38,2.83,2.83,0,0,1-.6-.9,3.66,3.66,0,0,1-.53.17,2.59,2.59,0,0,1-.47,0,2.92,2.92,0,0,1-2.49-1.29,5.22,5.22,0,0,1,0-5.68,3,3,0,0,1,5,0,4.61,4.61,0,0,1,.9,2.84,5.56,5.56,0,0,1-.43,2.17,2.8,2.8,0,0,1-1.33,1.51,1.79,1.79,0,0,0,.42.62.94.94,0,0,0,.67.32,1.5,1.5,0,0,0,.4-.05,1.59,1.59,0,0,0,.43-.17l.13.17Zm-1.64-7.29a2.17,2.17,0,0,0-1.93-1.2,2.21,2.21,0,0,0-1.94,1.2,5.08,5.08,0,0,0-.65,2.67,6.07,6.07,0,0,0,.2,1.56,3.11,3.11,0,0,0,.63,1.33,1,1,0,0,1,.32-1,1.36,1.36,0,0,1,.82-.2,1.79,1.79,0,0,1,1,.31,3.18,3.18,0,0,1,1.06,1.23,2.74,2.74,0,0,0,.91-1.5,5.84,5.84,0,0,0,.26-1.77A5.08,5.08,0,0,0,38.68,169.23Zm-1.89,5A1.32,1.32,0,0,0,36,174a.84.84,0,0,0-.49.12,1,1,0,0,0-.31.87,2.87,2.87,0,0,0,.81.61,1.79,1.79,0,0,0,.76.16,1.33,1.33,0,0,0,.43-.07c.14,0,.29-.1.44-.17A2.73,2.73,0,0,0,36.79,174.24Z" transform="translate(-18.93 -34.58)" fill="#221e1f"/>
  <g>
    <path d="M24.55,160.94a3,3,0,0,1-2.08.67H18.93v-.28a1.68,1.68,0,0,0,.83-.14.65.65,0,0,0,.22-.58v-5.86a.71.71,0,0,0-.22-.58,1.44,1.44,0,0,0-.83-.18v-.28h3.32a3.24,3.24,0,0,1,1.95.52,1.58,1.58,0,0,1,.69,1.33,1.47,1.47,0,0,1-.38,1,2.62,2.62,0,0,1-1.34.72,2.81,2.81,0,0,1,1.59.78,2,2,0,0,1-.21,2.84Zm-.87-6.46a2,2,0,0,0-1.44-.49h-.65a1.11,1.11,0,0,0-.7.18.72.72,0,0,0-.21.58v2.52h1.56a1.88,1.88,0,0,0,1.36-.58,1.69,1.69,0,0,0,.53-1.19A1.36,1.36,0,0,0,23.68,154.48Zm.24,3.64a2.13,2.13,0,0,0-1.51-.57H20.68v3.06a.67.67,0,0,0,.21.58,1.26,1.26,0,0,0,.7.14h.75a2.21,2.21,0,0,0,1.6-.59,1.71,1.71,0,0,0,.56-1.3A1.78,1.78,0,0,0,23.92,158.12Z" transform="translate(-18.93 -34.58)"/>
    <path d="M28.05,153h1.1l-2.3,3.09Z" transform="translate(-18.93 -34.58)"/>
  </g>
  <polyline points="23 141.96 31.51 141.96 31.51 150.46" fill="none" stroke="#221e1f" stroke-miterlimit="10" stroke-width="0.4"/>
  <polyline points="159.01 142.48 150.51 142.48 150.51 150.98" fill="none" stroke="#221e1f" stroke-miterlimit="10" stroke-width="0.4"/>
  <polyline points="22.98 23.94 31.48 23.94 31.48 15.44" fill="none" stroke="#221e1f" stroke-miterlimit="10" stroke-width="0.4"/>
  <polyline points="158.99 23.42 150.48 23.42 150.48 14.92" fill="none" stroke="#221e1f" stroke-miterlimit="10" stroke-width="0.4"/>
  <polyline points="97.7 20.02 92.6 26.82 85.8 21.72" fill="none" stroke="#221e1f" stroke-miterlimit="10" stroke-width="0.4"/>
  <polyline points="14.58 116.73 21.38 121.83 16.28 128.64" fill="none" stroke="#221e1f" stroke-miterlimit="10" stroke-width="0.4"/>
  <g>
    <path d="M153.27,72.59l.49.39" transform="translate(-18.93 -34.58)" fill="none" stroke="#221e1f" stroke-miterlimit="10" stroke-width="0.4"/>
    <path d="M154.44,73.54C167.22,83.9,176.24,94,177.77,99.47" transform="translate(-18.93 -34.58)" fill="none" stroke="#221e1f" stroke-miterlimit="10" stroke-width="0.4" stroke-dasharray="1.21 0.88"/>
    <path d="M177.87,99.89a4.69,4.69,0,0,1,.1.6" transform="translate(-18.93 -34.58)" fill="none" stroke="#221e1f" stroke-miterlimit="10" stroke-width="0.4"/>
  </g>
  <g>
    <path d="M110,49.54l.61-.08" transform="translate(-18.93 -34.58)" fill="none" stroke="#221e1f" stroke-miterlimit="10" stroke-width="0.4"/>
    <path d="M111.5,49.45c5.68.21,17,5.63,29.74,14.26" transform="translate(-18.93 -34.58)" fill="none" stroke="#221e1f" stroke-miterlimit="10" stroke-width="0.4" stroke-dasharray="1.22 0.89"/>
    <path d="M141.61,64l.51.35" transform="translate(-18.93 -34.58)" fill="none" stroke="#221e1f" stroke-miterlimit="10" stroke-width="0.4"/>
  </g>
  <g>
    <path d="M189.15,71l-.06-.61" transform="translate(-18.93 -34.58)" fill="none" stroke="#221e1f" stroke-miterlimit="10" stroke-width="0.4"/>
    <path d="M189,69.47c-1.11-9.46-5-17-10-19.59" transform="translate(-18.93 -34.58)" fill="none" stroke="#221e1f" stroke-miterlimit="10" stroke-width="0.4" stroke-dasharray="1.22 0.89"/>
    <path d="M178.56,49.68l-.56-.23" transform="translate(-18.93 -34.58)" fill="none" stroke="#221e1f" stroke-miterlimit="10" stroke-width="0.4"/>
  </g>
  <g>
    <path d="M178,100.52c.2-.07.39-.15.57-.23" transform="translate(-18.93 -34.58)" fill="none" stroke="#221e1f" stroke-miterlimit="10" stroke-width="0.4"/>
    <path d="M179.36,99.87c4.66-2.67,8.29-9.64,9.51-18.39" transform="translate(-18.93 -34.58)" fill="none" stroke="#221e1f" stroke-miterlimit="10" stroke-width="0.4" stroke-dasharray="1.26 0.92"/>
    <path d="M188.93,81c0-.21,0-.41.08-.62" transform="translate(-18.93 -34.58)" fill="none" stroke="#221e1f" stroke-miterlimit="10" stroke-width="0.4"/>
  </g>
  <g>
    <path d="M189.23,138.39c0-.21,0-.42,0-.62" transform="translate(-18.93 -34.58)" fill="none" stroke="#221e1f" stroke-miterlimit="10" stroke-width="0.4"/>
    <path d="M189.17,136.87c-.79-17.27-4.91-31.28-10.32-35.75" transform="translate(-18.93 -34.58)" fill="none" stroke="#221e1f" stroke-miterlimit="10" stroke-width="0.4" stroke-dasharray="1.24 0.9"/>
    <path d="M178.5,100.84l-.5-.35" transform="translate(-18.93 -34.58)" fill="none" stroke="#221e1f" stroke-miterlimit="10" stroke-width="0.4"/>
  </g>
  <g>
    <path d="M178,185.43c.17-.1.34-.22.51-.34" transform="translate(-18.93 -34.58)" fill="none" stroke="#221e1f" stroke-miterlimit="10" stroke-width="0.4"/>
    <path d="M179.17,184.52c5.28-4.78,9.27-18.7,10-35.76" transform="translate(-18.93 -34.58)" fill="none" stroke="#221e1f" stroke-miterlimit="10" stroke-width="0.4" stroke-dasharray="1.23 0.89"/>
    <path d="M189.21,148.31c0-.21,0-.41,0-.62" transform="translate(-18.93 -34.58)" fill="none" stroke="#221e1f" stroke-miterlimit="10" stroke-width="0.4"/>
  </g>
  <g>
    <path d="M137.14,38.25l-.61.06" transform="translate(-18.93 -34.58)" fill="none" stroke="#221e1f" stroke-miterlimit="10" stroke-width="0.4"/>
    <path d="M135.62,38.39c-12.14,1.23-21.76,5.07-25.07,10" transform="translate(-18.93 -34.58)" fill="none" stroke="#221e1f" stroke-miterlimit="10" stroke-width="0.4" stroke-dasharray="1.25 0.91"/>
    <path d="M110.31,48.76q-.16.27-.3.54" transform="translate(-18.93 -34.58)" fill="none" stroke="#221e1f" stroke-miterlimit="10" stroke-width="0.4"/>
  </g>
  <g>
    <path d="M177.92,49.32q-.13-.27-.3-.54" transform="translate(-18.93 -34.58)" fill="none" stroke="#221e1f" stroke-miterlimit="10" stroke-width="0.4"/>
    <path d="M177.12,48c-3.52-4.75-13-8.44-24.83-9.64" transform="translate(-18.93 -34.58)" fill="none" stroke="#221e1f" stroke-miterlimit="10" stroke-width="0.4" stroke-dasharray="1.23 0.9"/>
    <path d="M151.83,38.35l-.61-.06" transform="translate(-18.93 -34.58)" fill="none" stroke="#221e1f" stroke-miterlimit="10" stroke-width="0.4"/>
  </g>
  <path d="M187.34,79.24h-1.79l-.89.05v-.35h.53a1.62,1.62,0,0,0,.61-.07.46.46,0,0,0,.24-.46v-5.7a2.92,2.92,0,0,1-.59.19,5.74,5.74,0,0,1-.62.1h-.23v-.35H185a2.75,2.75,0,0,0,.56-.1,2.55,2.55,0,0,0,.53-.18l.29-.18.26-.23h.26v6.47a.44.44,0,0,0,.24.46,1.65,1.65,0,0,0,.62.07h.52v.35Z" transform="translate(-18.93 -34.58)"/>
  <path d="M192.5,79.24h-1.79l-.89.05v-.35h.53a1.65,1.65,0,0,0,.61-.07.46.46,0,0,0,.24-.46v-5.7a3,3,0,0,1-.6.19,5.18,5.18,0,0,1-.61.1h-.24v-.35h.37a2.75,2.75,0,0,0,.56-.1,2.55,2.55,0,0,0,.53-.18l.29-.18.26-.23H192v6.47c0,.24.07.39.23.46a1.71,1.71,0,0,0,.63.07h.51v.35Z" transform="translate(-18.93 -34.58)"/>
  <path d="M196,78.64a.58.58,0,0,1-.41.17.57.57,0,0,1-.42-.17.54.54,0,0,1-.17-.4.6.6,0,0,1,.59-.61.55.55,0,0,1,.41.18.57.57,0,0,1,.17.41A.61.61,0,0,1,196,78.64Z" transform="translate(-18.93 -34.58)"/>
  <path d="M201.69,79.29H197.6V79l2.24-2.51.43-.55a6.64,6.64,0,0,0,.38-.6,3.83,3.83,0,0,0,.24-.63,2,2,0,0,0,.11-.66,2.69,2.69,0,0,0-.08-.65,1.72,1.72,0,0,0-.27-.58,1.58,1.58,0,0,0-.51-.43,1.39,1.39,0,0,0-.61-.13,1.51,1.51,0,0,0-.94.3,1.61,1.61,0,0,0-.56.82h.14a.6.6,0,0,1,.42.15.56.56,0,0,1,.17.43.57.57,0,0,1-.16.41.58.58,0,0,1-.41.17.56.56,0,0,1-.44-.18.68.68,0,0,1-.15-.45,2,2,0,0,1,.15-.74,2.11,2.11,0,0,1,.41-.61,1.82,1.82,0,0,1,.68-.49,2.18,2.18,0,0,1,.82-.15,2.91,2.91,0,0,1,.89.14,2.39,2.39,0,0,1,.79.45,2.22,2.22,0,0,1,.49.7,2,2,0,0,1,.17.85,2.37,2.37,0,0,1-.12.78,2.69,2.69,0,0,1-.41.67c-.18.18-.38.39-.61.6l-.6.57-.63.59-1.17,1.15h2l.5,0a.94.94,0,0,0,.42-.07.74.74,0,0,0,.19-.36c0-.09,0-.24.08-.45l0-.18H202Z" transform="translate(-18.93 -34.58)"/>
  <path d="M207.09,78a2.59,2.59,0,0,1-.53.8,2.29,2.29,0,0,1-.78.51,2.22,2.22,0,0,1-.91.19,1.77,1.77,0,0,1-.8-.17,2,2,0,0,1-.65-.47,2,2,0,0,1-.55-1.37.64.64,0,0,1,.14-.42.54.54,0,0,1,.41-.16.52.52,0,0,1,.39.14.51.51,0,0,1,.16.4.52.52,0,0,1-.17.4.54.54,0,0,1-.38.15l-.1,0a.14.14,0,0,1-.09,0,1.47,1.47,0,0,0,.22.48,1.82,1.82,0,0,0,.35.39,2,2,0,0,0,.5.26,1.33,1.33,0,0,0,.56.11,1.28,1.28,0,0,0,.68-.2,1.53,1.53,0,0,0,.49-.52,2.16,2.16,0,0,0,.23-.73,5.82,5.82,0,0,0,0-.79,6.29,6.29,0,0,0,0-.7,2.6,2.6,0,0,0-.17-.68,1.59,1.59,0,0,0-.37-.5.87.87,0,0,0-.57-.21,1.74,1.74,0,0,0-.53.08,1.51,1.51,0,0,0-.56.32.84.84,0,0,0-.21.21.58.58,0,0,0-.11.15.3.3,0,0,1-.07.08.12.12,0,0,1-.08,0,.14.14,0,0,1-.15-.08.3.3,0,0,1,0-.16V72.22a.62.62,0,0,1,0-.25s.1,0,.22,0a3,3,0,0,0,.71.23,3.84,3.84,0,0,0,.76.08,3,3,0,0,0,.48,0,4.44,4.44,0,0,0,.56-.1l.37-.16.18-.07a.16.16,0,0,1,.09,0,.12.12,0,0,1,0,.1,1.24,1.24,0,0,1-.25.36,2.84,2.84,0,0,1-.29.24v0a2.91,2.91,0,0,1-.75.37,2.41,2.41,0,0,1-.83.14,2.59,2.59,0,0,1-.48,0,3.11,3.11,0,0,1-.46-.1v2.16a2.12,2.12,0,0,1,.31-.25,1,1,0,0,1,.34-.17,1.37,1.37,0,0,1,.36-.11,2.47,2.47,0,0,1,.39,0,1.92,1.92,0,0,1,.82.18,2,2,0,0,1,.68.53,2.75,2.75,0,0,1,.6,1.7A2.41,2.41,0,0,1,207.09,78Z" transform="translate(-18.93 -34.58)"/>
  <path d="M145.85,72.08h-1.79l-.89,0v-.35h.53a1.65,1.65,0,0,0,.61-.07.45.45,0,0,0,.24-.46v-5.7a3,3,0,0,1-.6.19,5.55,5.55,0,0,1-.61.1h-.24v-.35h.37a3.75,3.75,0,0,0,1.09-.28l.29-.18.26-.23h.26v6.47c0,.24.07.39.23.46a1.71,1.71,0,0,0,.63.07h.51v.35Z" transform="translate(-18.93 -34.58)"/>
  <path d="M152.13,71.09a2,2,0,0,1-.49.67,2.3,2.3,0,0,1-.76.44,2.34,2.34,0,0,1-.86.16,2.53,2.53,0,0,1-.83-.13,2.19,2.19,0,0,1-.75-.37,1.69,1.69,0,0,1-.51-.63,1.6,1.6,0,0,1-.19-.77,1.87,1.87,0,0,1,.14-.71,2,2,0,0,1,.41-.6,2.44,2.44,0,0,1,.49-.4,3.18,3.18,0,0,1,.55-.32l-.13-.08a5.78,5.78,0,0,1-.52-.37,1.86,1.86,0,0,1-.43-.53,2,2,0,0,1-.16-.41,1.42,1.42,0,0,1-.06-.42,1.75,1.75,0,0,1,.15-.72,2.2,2.2,0,0,1,1.09-1,2.39,2.39,0,0,1,.77-.13,2.45,2.45,0,0,1,.71.11,2,2,0,0,1,.65.33,1.5,1.5,0,0,1,.45.52,1.53,1.53,0,0,1,.17.69,1.32,1.32,0,0,1-.1.51,1.5,1.5,0,0,1-.27.45,3.38,3.38,0,0,1-.44.4,2.83,2.83,0,0,1-.53.34l.45.28a3.24,3.24,0,0,1,.64.5,1.78,1.78,0,0,1,.43.72,2,2,0,0,1,.08.33,1.53,1.53,0,0,1,0,.3A2,2,0,0,1,152.13,71.09Zm-.45-.85a1.13,1.13,0,0,0-.21-.35,2.75,2.75,0,0,0-.48-.41l-.61-.38-.2-.13-.61-.38a4.18,4.18,0,0,0-.6.41,2.16,2.16,0,0,0-.39.48,2.05,2.05,0,0,0-.22.48,1.73,1.73,0,0,0-.07.5,1.5,1.5,0,0,0,.13.62,1.45,1.45,0,0,0,.38.51,1.63,1.63,0,0,0,.57.34,1.67,1.67,0,0,0,.67.13,1.69,1.69,0,0,0,.62-.11,1.89,1.89,0,0,0,.57-.28,1.35,1.35,0,0,0,.38-.45,1.06,1.06,0,0,0,.15-.55A1.26,1.26,0,0,0,151.68,70.24Zm-.26-4.36a1.1,1.1,0,0,0-.34-.43,1.32,1.32,0,0,0-.5-.29,1.54,1.54,0,0,0-.56-.1,2,2,0,0,0-.55.07,1.34,1.34,0,0,0-.48.23,1.08,1.08,0,0,0-.34.37.85.85,0,0,0-.13.47.88.88,0,0,0,.16.51,1.42,1.42,0,0,0,.39.38l1.38.88.44-.32a3.75,3.75,0,0,0,.34-.36,1.44,1.44,0,0,0,.23-.42,1.32,1.32,0,0,0,.08-.44A1.26,1.26,0,0,0,151.42,65.88Z" transform="translate(-18.93 -34.58)"/>
  <path d="M154.51,71.6a.6.6,0,0,1-.41.17.57.57,0,0,1-.42-.17.6.6,0,0,1,.42-1,.6.6,0,0,1,.58.59A.61.61,0,0,1,154.51,71.6Z" transform="translate(-18.93 -34.58)"/>
  <path d="M159.32,67.51a3.66,3.66,0,0,0-.59,1.39,7.91,7.91,0,0,0-.19,1.39l0,.5v1a.67.67,0,0,1-.12.43.45.45,0,0,1-.39.17.44.44,0,0,1-.4-.18.72.72,0,0,1-.11-.42,7.39,7.39,0,0,1,.07-.91,7.14,7.14,0,0,1,.23-1,6.5,6.5,0,0,1,.42-1.1,9.23,9.23,0,0,1,.64-1.11l.34-.49a5.64,5.64,0,0,1,.35-.49l.55-.76h-3c-.2,0-.32,0-.35.08a.76.76,0,0,0-.16.4c0,.13-.07.32-.11.55v0h-.28l.37-2.28h.28l0,.14q.08.14.6.18c.19,0,.44,0,.72,0h2.74v.25Z" transform="translate(-18.93 -34.58)"/>
  <path d="M165.59,70.86a2.56,2.56,0,0,1-.52.8,2.51,2.51,0,0,1-.78.51,2.22,2.22,0,0,1-.91.19,1.77,1.77,0,0,1-.8-.17,1.87,1.87,0,0,1-.65-.47,1.89,1.89,0,0,1-.41-.64,2,2,0,0,1-.14-.73.64.64,0,0,1,.14-.42.53.53,0,0,1,.41-.16.52.52,0,0,1,.39.14.51.51,0,0,1,.16.4.56.56,0,0,1-.17.4.55.55,0,0,1-.38.15h-.11l-.08,0a1.26,1.26,0,0,0,.21.48,1.87,1.87,0,0,0,.36.39,2.11,2.11,0,0,0,.49.26,1.36,1.36,0,0,0,.56.11,1.26,1.26,0,0,0,.68-.2,1.56,1.56,0,0,0,.5-.52,2,2,0,0,0,.22-.73,5.61,5.61,0,0,0,.05-.79,6.29,6.29,0,0,0,0-.7,2.26,2.26,0,0,0-.18-.68,1.43,1.43,0,0,0-.36-.5.91.91,0,0,0-.57-.21,1.74,1.74,0,0,0-.53.08,1.51,1.51,0,0,0-.56.32,1.11,1.11,0,0,0-.22.21l-.11.15a.32.32,0,0,1-.06.08.13.13,0,0,1-.09,0,.14.14,0,0,1-.15-.08.51.51,0,0,1,0-.16V65.06a1.07,1.07,0,0,1,0-.25.32.32,0,0,1,.23,0,3.26,3.26,0,0,0,.71.22,3.77,3.77,0,0,0,.76.08,3,3,0,0,0,.48,0,5.18,5.18,0,0,0,.56-.1l.37-.16.18-.07a.16.16,0,0,1,.09,0,.16.16,0,0,1,0,.1,1.24,1.24,0,0,1-.25.36,2.84,2.84,0,0,1-.29.24v0a2.82,2.82,0,0,1-.76.37,2.37,2.37,0,0,1-.83.14,2.56,2.56,0,0,1-.47,0,2.07,2.07,0,0,1-.46-.1v2.16a1.7,1.7,0,0,1,.31-.25,1,1,0,0,1,.33-.17,1.58,1.58,0,0,1,.37-.11,2.38,2.38,0,0,1,.39,0,2,2,0,0,1,.82.18,2,2,0,0,1,.67.53,2.39,2.39,0,0,1,.45.79,2.76,2.76,0,0,1,.16.91A2.42,2.42,0,0,1,165.59,70.86Z" transform="translate(-18.93 -34.58)"/>
  <path d="M142,41.89H140.2l-.89,0v-.35h.53a1.62,1.62,0,0,0,.61-.07.45.45,0,0,0,.24-.46v-5.7a2.92,2.92,0,0,1-.59.19,5.74,5.74,0,0,1-.62.1h-.23V35.3h.36a2.63,2.63,0,0,0,.56-.1,2.55,2.55,0,0,0,.53-.18l.29-.18.26-.23h.26v6.47a.44.44,0,0,0,.24.46,1.65,1.65,0,0,0,.62.07h.52v.35Z" transform="translate(-18.93 -34.58)"/>
  <path d="M148.18,40.67a2.56,2.56,0,0,1-.52.8,2.4,2.4,0,0,1-.78.51,2.23,2.23,0,0,1-.92.19,1.75,1.75,0,0,1-.79-.17,1.87,1.87,0,0,1-.65-.47,2.06,2.06,0,0,1-.41-.64,2,2,0,0,1-.14-.73.64.64,0,0,1,.14-.42.53.53,0,0,1,.41-.16.52.52,0,0,1,.39.14.51.51,0,0,1,.16.4.56.56,0,0,1-.17.4.54.54,0,0,1-.38.15h-.11l-.08,0a1.26,1.26,0,0,0,.21.48,1.87,1.87,0,0,0,.36.39,2.11,2.11,0,0,0,.49.26,1.36,1.36,0,0,0,.56.11,1.26,1.26,0,0,0,.68-.2,1.56,1.56,0,0,0,.5-.52,2.16,2.16,0,0,0,.23-.73c0-.21,0-.47,0-.79a6.29,6.29,0,0,0,0-.7,2.26,2.26,0,0,0-.18-.68,1.43,1.43,0,0,0-.36-.5.91.91,0,0,0-.57-.21,1.74,1.74,0,0,0-.53.08,1.51,1.51,0,0,0-.56.32,1.11,1.11,0,0,0-.22.21l-.11.15a.32.32,0,0,1-.06.08.13.13,0,0,1-.09,0,.14.14,0,0,1-.15-.08.51.51,0,0,1,0-.16V34.87a1.07,1.07,0,0,1,0-.25.32.32,0,0,1,.23,0,3.26,3.26,0,0,0,.71.22,3.84,3.84,0,0,0,.76.08l.48,0,.56-.11.37-.16.18-.07.09,0a.12.12,0,0,1,0,.1,1.24,1.24,0,0,1-.25.36,2.84,2.84,0,0,1-.29.24v0a2.82,2.82,0,0,1-.76.37,2.37,2.37,0,0,1-.83.14,2.56,2.56,0,0,1-.47,0,2.07,2.07,0,0,1-.46-.1v2.16a1.7,1.7,0,0,1,.31-.25,1,1,0,0,1,.33-.17,1.58,1.58,0,0,1,.37-.11,2.38,2.38,0,0,1,.39,0,2,2,0,0,1,.82.18,2,2,0,0,1,.68.53,2.75,2.75,0,0,1,.6,1.7A2.42,2.42,0,0,1,148.18,40.67Z" transform="translate(-18.93 -34.58)"/>
  <path d="M187.34,146.6h-1.79l-.89.05v-.35h.53a1.62,1.62,0,0,0,.61-.07.45.45,0,0,0,.24-.46v-5.7a2.92,2.92,0,0,1-.59.19,5.74,5.74,0,0,1-.62.1h-.23V140H185a2.2,2.2,0,0,0,.56-.1,2.55,2.55,0,0,0,.53-.18l.29-.18.26-.23h.26v6.47a.44.44,0,0,0,.24.46,1.65,1.65,0,0,0,.62.07h.52v.35Z" transform="translate(-18.93 -34.58)"/>
  <path d="M193.62,145.61a2,2,0,0,1-.48.67,2.45,2.45,0,0,1-.77.44,2.34,2.34,0,0,1-.86.16,2.57,2.57,0,0,1-.83-.13,2.06,2.06,0,0,1-.74-.37,1.76,1.76,0,0,1-.7-1.4,1.7,1.7,0,0,1,.14-.71,1.83,1.83,0,0,1,.41-.6,2.13,2.13,0,0,1,.48-.4,4.17,4.17,0,0,1,.55-.32l-.13-.08c-.22-.15-.4-.27-.52-.37a1.86,1.86,0,0,1-.43-.53,1.81,1.81,0,0,1-.16-.41,1.42,1.42,0,0,1-.05-.42,1.79,1.79,0,0,1,.15-.72,1.63,1.63,0,0,1,.44-.58,2,2,0,0,1,.65-.41,2.33,2.33,0,0,1,.76-.13,2.45,2.45,0,0,1,.71.11,2,2,0,0,1,.65.33,1.5,1.5,0,0,1,.45.52,1.41,1.41,0,0,1,.17.69,1.52,1.52,0,0,1-.09.51,2.07,2.07,0,0,1-.27.45,5.48,5.48,0,0,1-.44.4,3.2,3.2,0,0,1-.53.34l.44.28a3.33,3.33,0,0,1,.65.5,1.9,1.9,0,0,1,.43.72,1.94,1.94,0,0,1,.07.33,1.53,1.53,0,0,1,0,.3A2,2,0,0,1,193.62,145.61Zm-.45-.85a1,1,0,0,0-.21-.35,2.75,2.75,0,0,0-.48-.41l-.6-.38-.21-.13-.6-.37a3.22,3.22,0,0,0-.61.4,1.87,1.87,0,0,0-.38.48,2.1,2.1,0,0,0-.23.48,2.14,2.14,0,0,0-.06.5,1.67,1.67,0,0,0,.12.62,1.58,1.58,0,0,0,.38.51,1.84,1.84,0,0,0,.57.34,1.67,1.67,0,0,0,.67.13,1.74,1.74,0,0,0,.63-.11,2.12,2.12,0,0,0,.57-.27,1.45,1.45,0,0,0,.37-.46,1.13,1.13,0,0,0,.07-1Zm-.26-4.36a1.18,1.18,0,0,0-.33-.43,1.44,1.44,0,0,0-.51-.29,1.54,1.54,0,0,0-.56-.1,2,2,0,0,0-.55.07,1.29,1.29,0,0,0-.47.23,1,1,0,0,0-.35.37.85.85,0,0,0-.13.47,1,1,0,0,0,.16.51,1.42,1.42,0,0,0,.39.38l1.38.88a3.84,3.84,0,0,0,.44-.32,3.91,3.91,0,0,0,.35-.36,1.41,1.41,0,0,0,.22-.42A1.32,1.32,0,0,0,193,141,1.26,1.26,0,0,0,192.91,140.4Z" transform="translate(-18.93 -34.58)"/>
  <path d="M196,146.12a.58.58,0,0,1-.41.17.57.57,0,0,1-.42-.17.54.54,0,0,1-.17-.4.6.6,0,0,1,.59-.61.55.55,0,0,1,.41.18.57.57,0,0,1,.17.41A.61.61,0,0,1,196,146.12Z" transform="translate(-18.93 -34.58)"/>
  <path d="M200.81,142a3.66,3.66,0,0,0-.58,1.39,7.87,7.87,0,0,0-.2,1.39l0,.5v1a.67.67,0,0,1-.12.43.44.44,0,0,1-.39.17.45.45,0,0,1-.4-.18.73.73,0,0,1-.1-.42,7.31,7.31,0,0,1,.06-.91,8.79,8.79,0,0,1,.23-1,6.5,6.5,0,0,1,.42-1.1,10.8,10.8,0,0,1,.64-1.11l.34-.49.35-.49.55-.76h-3a.66.66,0,0,0-.36.08c-.05,0-.1.17-.16.41s-.06.31-.11.54v.05h-.28l.37-2.28h.28l0,.14q.07.13.6.18c.2,0,.44,0,.73,0h2.73v.25Z" transform="translate(-18.93 -34.58)"/>
  <path d="M207.09,145.38a2.59,2.59,0,0,1-.53.8,2.29,2.29,0,0,1-.78.51,2.22,2.22,0,0,1-.91.19,1.77,1.77,0,0,1-.8-.17,2,2,0,0,1-.65-.47,2.06,2.06,0,0,1-.41-.64,2,2,0,0,1-.14-.73.64.64,0,0,1,.14-.42.54.54,0,0,1,.41-.16.52.52,0,0,1,.39.14.57.57,0,0,1,0,.8.54.54,0,0,1-.38.15h-.1l-.09,0a1.47,1.47,0,0,0,.22.48,1.82,1.82,0,0,0,.35.39,2,2,0,0,0,.5.26,1.33,1.33,0,0,0,.56.11,1.28,1.28,0,0,0,.68-.2,1.53,1.53,0,0,0,.49-.52,2.16,2.16,0,0,0,.23-.73,5.82,5.82,0,0,0,0-.79,6.29,6.29,0,0,0,0-.7,2.6,2.6,0,0,0-.17-.68,1.59,1.59,0,0,0-.37-.5.87.87,0,0,0-.57-.21,1.74,1.74,0,0,0-.53.08,1.51,1.51,0,0,0-.56.32.84.84,0,0,0-.21.21.58.58,0,0,0-.11.15.3.3,0,0,1-.07.08.09.09,0,0,1-.08,0,.14.14,0,0,1-.15-.08.3.3,0,0,1,0-.16v-3.31a.62.62,0,0,1,0-.25s.1,0,.22,0a3.44,3.44,0,0,0,.71.22,3.84,3.84,0,0,0,.76.08,3,3,0,0,0,.48,0,4.44,4.44,0,0,0,.56-.1l.37-.16.18-.07.09,0a.12.12,0,0,1,0,.1,1.24,1.24,0,0,1-.25.36,2.84,2.84,0,0,1-.29.24v0a2.91,2.91,0,0,1-.75.37,2.41,2.41,0,0,1-.83.14,2.59,2.59,0,0,1-.48,0,2.21,2.21,0,0,1-.46-.1v2.16a2.12,2.12,0,0,1,.31-.25,1,1,0,0,1,.34-.17,1.37,1.37,0,0,1,.36-.11,2.47,2.47,0,0,1,.39,0,1.92,1.92,0,0,1,.82.18,2,2,0,0,1,.68.53,2.75,2.75,0,0,1,.6,1.7A2.37,2.37,0,0,1,207.09,145.38Z" transform="translate(-18.93 -34.58)"/>
</svg>
