<svg id="레이어_1" data-name="레이어 1" xmlns="http://www.w3.org/2000/svg" width="175.05" height="159.26" viewBox="0 0 175.05 159.26">
  <g>
    <line x1="22.95" y1="105.83" x2="22.95" y2="106.45" fill="none" stroke="#231815" stroke-linejoin="round" stroke-width="0.4"/>
    <line x1="22.95" y1="107.36" x2="22.95" y2="133.07" fill="none" stroke="#231815" stroke-linejoin="round" stroke-width="0.4" stroke-dasharray="1.26 0.92"/>
    <line x1="22.95" y1="133.53" x2="22.95" y2="134.15" fill="none" stroke="#231815" stroke-linejoin="round" stroke-width="0.4"/>
  </g>
  <polyline points="159.01 66.14 159.01 15.12 22.95 15.12 22.95 105.83" fill="none" stroke="#231815" stroke-linejoin="round" stroke-width="0.75"/>
  <g>
    <line x1="22.95" y1="134.15" x2="22.95" y2="134.77" fill="none" stroke="#231815" stroke-linejoin="round" stroke-width="0.4"/>
    <line x1="22.95" y1="135.66" x2="22.95" y2="150.11" fill="none" stroke="#231815" stroke-linejoin="round" stroke-width="0.4" stroke-dasharray="1.23 0.9"/>
    <polyline points="22.95 150.56 22.95 151.18 23.57 151.18" fill="none" stroke="#231815" stroke-linejoin="round" stroke-width="0.4"/>
    <line x1="24.46" y1="151.18" x2="157.95" y2="151.18" fill="none" stroke="#231815" stroke-linejoin="round" stroke-width="0.4" stroke-dasharray="1.23 0.89"/>
    <polyline points="158.39 151.18 159.01 151.18 159.01 150.56" fill="none" stroke="#231815" stroke-linejoin="round" stroke-width="0.4"/>
    <line x1="159.01" y1="149.67" x2="159.01" y2="67.21" fill="none" stroke="#231815" stroke-linejoin="round" stroke-width="0.4" stroke-dasharray="1.23 0.89"/>
    <line x1="159.01" y1="66.76" x2="159.01" y2="66.14" fill="none" stroke="#231815" stroke-linejoin="round" stroke-width="0.4"/>
  </g>
  <polygon points="9.34 123.97 90.98 15.12 159.01 66.14 22.95 134.17 9.34 123.97" fill="none" stroke="#231815" stroke-linejoin="round" stroke-width="0.75"/>
  <path d="M44.62,49.26V49a1.94,1.94,0,0,0,.93-.14c.15-.11.18-.31.07-.61L45,46.39H41.91L41.4,48q-.19.6,0,.81a1.56,1.56,0,0,0,.94.19v.28H39.93V49a1,1,0,0,0,.68-.19,2.5,2.5,0,0,0,.49-.95l2.19-6.41.61-.26,2.43,7a1.12,1.12,0,0,0,.4.62,1.27,1.27,0,0,0,.7.17v.28ZM43.42,42,42,46.07h2.83Z" transform="translate(-25.64 -34.49)" fill="#221e1f"/>
  <path d="M46.15,192.91a3.07,3.07,0,0,1-2.08.66H40.52v-.28a1.55,1.55,0,0,0,.83-.14c.15-.09.22-.28.22-.58V186.7a.67.67,0,0,0-.22-.58,1.31,1.31,0,0,0-.83-.19v-.28h3.33a3.3,3.3,0,0,1,2,.53,1.58,1.58,0,0,1,.69,1.33,1.51,1.51,0,0,1-.38,1,2.7,2.7,0,0,1-1.35.72,2.91,2.91,0,0,1,1.6.79,1.91,1.91,0,0,1,.47,1.34A1.94,1.94,0,0,1,46.15,192.91Zm-.86-6.48a2.06,2.06,0,0,0-1.45-.5h-.65a1,1,0,0,0-.7.19.69.69,0,0,0-.22.58v2.52h1.57a1.82,1.82,0,0,0,1.36-.58,1.69,1.69,0,0,0,.53-1.19A1.37,1.37,0,0,0,45.29,186.43Zm.24,3.65A2.14,2.14,0,0,0,44,189.5H42.27v3.07a.64.64,0,0,0,.22.58,1.18,1.18,0,0,0,.7.14h.75a2.19,2.19,0,0,0,1.61-.59,1.75,1.75,0,0,0,.56-1.3A1.79,1.79,0,0,0,45.53,190.08Z" transform="translate(-25.64 -34.49)" fill="#221e1f"/>
  <path d="M190.89,193.06a2.67,2.67,0,0,1-1.82.69,2.9,2.9,0,0,1-2.29-1.08,4.67,4.67,0,0,1-1-3.1,4.74,4.74,0,0,1,.86-2.89,2.69,2.69,0,0,1,2.24-1.2,3.18,3.18,0,0,1,.62.06l.64.19.07,0,.79-.25.76,2-.17.11a5.72,5.72,0,0,0-1.07-1.22,2.53,2.53,0,0,0-1.62-.66,2,2,0,0,0-1.7,1.09,5.16,5.16,0,0,0-.67,2.73,4.09,4.09,0,0,0,.81,2.59,2.41,2.41,0,0,0,2,1,2.1,2.1,0,0,0,1.3-.44,4,4,0,0,0,1.14-1.41l.21.09A4.27,4.27,0,0,1,190.89,193.06Z" transform="translate(-25.64 -34.49)" fill="#221e1f"/>
  <path d="M191.37,47.93a3.54,3.54,0,0,1-2.91,1.24h-3v-.28a1.34,1.34,0,0,0,.81-.18.73.73,0,0,0,.24-.62V42.27a.67.67,0,0,0-.24-.57,1.48,1.48,0,0,0-.81-.17v-.28h3a3.54,3.54,0,0,1,2.91,1.24,4.52,4.52,0,0,1,0,5.44Zm-.61-5.25a2.72,2.72,0,0,0-2.3-1.15h-.34a1.11,1.11,0,0,0-.68.17.71.71,0,0,0-.2.57v5.82a.81.81,0,0,0,.2.62,1,1,0,0,0,.68.18h.34a2.72,2.72,0,0,0,2.3-1.15,4.54,4.54,0,0,0,0-5.06Z" transform="translate(-25.64 -34.49)" fill="#221e1f"/>
  <path d="M118.44,43.92v-.28a1.31,1.31,0,0,0,.82-.2.68.68,0,0,0,.23-.56V36.37h-.12L116.5,44h-.18l-2.83-7.46h-.13v6.34a.7.7,0,0,0,.22.58,1.45,1.45,0,0,0,.84.18v.28H112v-.28a1.41,1.41,0,0,0,.83-.18.67.67,0,0,0,.22-.58v-6a.5.5,0,0,0-.24-.47,1.72,1.72,0,0,0-.81-.13V36h2l2.6,6.92,2.6-6.92h2v.28a1.73,1.73,0,0,0-.86.14.51.51,0,0,0-.2.46v6a.68.68,0,0,0,.22.56,1.36,1.36,0,0,0,.84.2v.28Z" transform="translate(-25.64 -34.49)" fill="#221e1f"/>
  <path d="M196.48,98.24a.47.47,0,0,0-.24.45v7.09H196l-4.83-7v5.88a.72.72,0,0,0,.23.59,1.76,1.76,0,0,0,.92.17v.28h-2.53v-.28a1.48,1.48,0,0,0,.81-.17.69.69,0,0,0,.24-.59V98.85a.66.66,0,0,0-.24-.59,1.39,1.39,0,0,0-.81-.17v-.28h1.49l4.59,6.64V98.69a.46.46,0,0,0-.26-.46,2,2,0,0,0-.91-.14v-.28h2.55v.28A1.71,1.71,0,0,0,196.48,98.24Z" transform="translate(-25.64 -34.49)" fill="#221e1f"/>
  <path d="M46.34,137.15a2.39,2.39,0,0,1-1.66.57H42.87v2.64a.73.73,0,0,0,.23.6,1.48,1.48,0,0,0,.91.21v.28H41.12v-.28a1.23,1.23,0,0,0,.82-.21.73.73,0,0,0,.23-.6v-5.84a.62.62,0,0,0-.23-.56,1.58,1.58,0,0,0-.82-.15v-.28h3.64a2.45,2.45,0,0,1,1.59.51,1.84,1.84,0,0,1,.67,1.48A2.05,2.05,0,0,1,46.34,137.15Zm-.53-2.83a1.73,1.73,0,0,0-1.31-.51h-.85a.89.89,0,0,0-.59.15.68.68,0,0,0-.19.56v2.92h1.62a1.62,1.62,0,0,0,1.32-.63,1.94,1.94,0,0,0,.46-1.29A1.65,1.65,0,0,0,45.81,134.32Z" transform="translate(-25.64 -34.49)" fill="#221e1f"/>
  <path d="M47,176.62a2.38,2.38,0,0,1-.48.39,1.19,1.19,0,0,1-.62.16,1.24,1.24,0,0,1-.88-.37,3,3,0,0,1-.6-.91,2.74,2.74,0,0,1-.53.17,2,2,0,0,1-.47.06A2.92,2.92,0,0,1,41,174.83a4.73,4.73,0,0,1-.84-2.84,4.8,4.8,0,0,1,.84-2.85,3,3,0,0,1,5,0,4.66,4.66,0,0,1,.9,2.85,5.34,5.34,0,0,1-.43,2.16,2.82,2.82,0,0,1-1.33,1.52,1.79,1.79,0,0,0,.42.62.93.93,0,0,0,.67.31,1.54,1.54,0,0,0,.4,0,2,2,0,0,0,.43-.17l.13.17Zm-1.65-7.28a2.16,2.16,0,0,0-1.93-1.21,2.2,2.2,0,0,0-1.94,1.21,5.16,5.16,0,0,0-.65,2.66,6.2,6.2,0,0,0,.2,1.57,3,3,0,0,0,.63,1.32,1,1,0,0,1,.32-.95,1.36,1.36,0,0,1,.82-.21,1.88,1.88,0,0,1,1,.31,3.41,3.41,0,0,1,1.07,1.24,2.82,2.82,0,0,0,.9-1.51,5.74,5.74,0,0,0,.26-1.77A5.07,5.07,0,0,0,45.39,169.34Zm-1.89,5a1.32,1.32,0,0,0-.81-.27.87.87,0,0,0-.48.11,1,1,0,0,0-.32.87,2.92,2.92,0,0,0,.81.62,2,2,0,0,0,.76.16,1.35,1.35,0,0,0,.43-.08,2.65,2.65,0,0,0,.44-.17A2.69,2.69,0,0,0,43.5,174.35Z" transform="translate(-25.64 -34.49)" fill="#221e1f"/>
  <g>
    <path d="M31.26,161.05a3.09,3.09,0,0,1-2.08.67H25.64v-.28a1.68,1.68,0,0,0,.83-.14.67.67,0,0,0,.22-.58v-5.87a.72.72,0,0,0-.22-.58,1.44,1.44,0,0,0-.83-.18v-.28H29a3.24,3.24,0,0,1,1.95.53,1.56,1.56,0,0,1,.69,1.33,1.49,1.49,0,0,1-.38,1,2.78,2.78,0,0,1-1.34.72,2.78,2.78,0,0,1,1.59.78,1.91,1.91,0,0,1,.48,1.34A1.93,1.93,0,0,1,31.26,161.05Zm-.87-6.46a2,2,0,0,0-1.44-.5H28.3a1.11,1.11,0,0,0-.7.18.75.75,0,0,0-.21.58v2.52H29a1.84,1.84,0,0,0,1.36-.58,1.65,1.65,0,0,0,.53-1.19A1.34,1.34,0,0,0,30.39,154.59Zm.24,3.64a2.14,2.14,0,0,0-1.51-.58H27.39v3.07a.68.68,0,0,0,.21.58,1.26,1.26,0,0,0,.7.14h.75a2.19,2.19,0,0,0,1.6-.59,1.71,1.71,0,0,0,.56-1.3A1.75,1.75,0,0,0,30.63,158.23Z" transform="translate(-25.64 -34.49)"/>
    <path d="M34.76,153.13h1.1l-2.3,3.08Z" transform="translate(-25.64 -34.49)"/>
  </g>
  <polyline points="23 142.16 31.51 142.16 31.51 150.66" fill="none" stroke="#221e1f" stroke-miterlimit="10" stroke-width="0.4"/>
  <polyline points="159.01 142.68 150.51 142.68 150.51 151.18" fill="none" stroke="#221e1f" stroke-miterlimit="10" stroke-width="0.4"/>
  <polyline points="22.98 24.14 31.48 24.14 31.48 15.64" fill="none" stroke="#221e1f" stroke-miterlimit="10" stroke-width="0.4"/>
  <polyline points="158.99 23.62 150.48 23.62 150.48 15.12" fill="none" stroke="#221e1f" stroke-miterlimit="10" stroke-width="0.4"/>
  <polyline points="97.7 20.22 92.6 27.02 85.8 21.92" fill="none" stroke="#221e1f" stroke-miterlimit="10" stroke-width="0.4"/>
  <polyline points="14.58 116.93 21.38 122.04 16.28 128.84" fill="none" stroke="#221e1f" stroke-miterlimit="10" stroke-width="0.4"/>
  <g>
    <path d="M160,72.7l.49.39" transform="translate(-25.64 -34.49)" fill="none" stroke="#221e1f" stroke-miterlimit="10" stroke-width="0.4"/>
    <path d="M161.15,73.64C173.93,84,183,94.09,184.48,99.57" transform="translate(-25.64 -34.49)" fill="none" stroke="#221e1f" stroke-miterlimit="10" stroke-width="0.4" stroke-dasharray="1.21 0.88"/>
    <path d="M184.58,100a4.83,4.83,0,0,1,.1.61" transform="translate(-25.64 -34.49)" fill="none" stroke="#221e1f" stroke-miterlimit="10" stroke-width="0.4"/>
  </g>
  <g>
    <path d="M116.72,49.65a5.63,5.63,0,0,1,.61-.08" transform="translate(-25.64 -34.49)" fill="none" stroke="#221e1f" stroke-miterlimit="10" stroke-width="0.4"/>
    <path d="M118.21,49.56c5.68.21,17,5.63,29.74,14.26" transform="translate(-25.64 -34.49)" fill="none" stroke="#221e1f" stroke-miterlimit="10" stroke-width="0.4" stroke-dasharray="1.22 0.89"/>
    <path d="M148.32,64.07l.51.35" transform="translate(-25.64 -34.49)" fill="none" stroke="#221e1f" stroke-miterlimit="10" stroke-width="0.4"/>
  </g>
  <g>
    <path d="M195.86,71.08l-.06-.62" transform="translate(-25.64 -34.49)" fill="none" stroke="#221e1f" stroke-miterlimit="10" stroke-width="0.4"/>
    <path d="M195.71,69.58c-1.11-9.46-5-17-10-19.6" transform="translate(-25.64 -34.49)" fill="none" stroke="#221e1f" stroke-miterlimit="10" stroke-width="0.4" stroke-dasharray="1.22 0.89"/>
    <path d="M185.28,49.79l-.57-.24" transform="translate(-25.64 -34.49)" fill="none" stroke="#221e1f" stroke-miterlimit="10" stroke-width="0.4"/>
  </g>
  <g>
    <path d="M184.68,100.63a4.87,4.87,0,0,0,.57-.24" transform="translate(-25.64 -34.49)" fill="none" stroke="#221e1f" stroke-miterlimit="10" stroke-width="0.4"/>
    <path d="M186.07,100c4.66-2.67,8.29-9.65,9.51-18.4" transform="translate(-25.64 -34.49)" fill="none" stroke="#221e1f" stroke-miterlimit="10" stroke-width="0.4" stroke-dasharray="1.26 0.92"/>
    <path d="M195.64,81.12c0-.2.05-.41.08-.61" transform="translate(-25.64 -34.49)" fill="none" stroke="#221e1f" stroke-miterlimit="10" stroke-width="0.4"/>
  </g>
  <g>
    <path d="M195.94,138.49c0-.21,0-.41,0-.62" transform="translate(-25.64 -34.49)" fill="none" stroke="#221e1f" stroke-miterlimit="10" stroke-width="0.4"/>
    <path d="M195.88,137c-.79-17.27-4.91-31.27-10.32-35.75" transform="translate(-25.64 -34.49)" fill="none" stroke="#221e1f" stroke-miterlimit="10" stroke-width="0.4" stroke-dasharray="1.24 0.9"/>
    <path d="M185.21,101a5.62,5.62,0,0,0-.5-.35" transform="translate(-25.64 -34.49)" fill="none" stroke="#221e1f" stroke-miterlimit="10" stroke-width="0.4"/>
  </g>
  <g>
    <path d="M184.68,185.54a4.59,4.59,0,0,0,.51-.35" transform="translate(-25.64 -34.49)" fill="none" stroke="#221e1f" stroke-miterlimit="10" stroke-width="0.4"/>
    <path d="M185.88,184.63c5.28-4.78,9.27-18.7,10-35.76" transform="translate(-25.64 -34.49)" fill="none" stroke="#221e1f" stroke-miterlimit="10" stroke-width="0.4" stroke-dasharray="1.23 0.89"/>
    <path d="M195.92,148.41c0-.2,0-.41,0-.62" transform="translate(-25.64 -34.49)" fill="none" stroke="#221e1f" stroke-miterlimit="10" stroke-width="0.4"/>
  </g>
  <g>
    <path d="M143.86,38.36l-.62,0" transform="translate(-25.64 -34.49)" fill="none" stroke="#221e1f" stroke-miterlimit="10" stroke-width="0.4"/>
    <path d="M142.33,38.5c-12.14,1.23-21.76,5.07-25.07,10" transform="translate(-25.64 -34.49)" fill="none" stroke="#221e1f" stroke-miterlimit="10" stroke-width="0.4" stroke-dasharray="1.25 0.91"/>
    <path d="M117,48.86q-.17.27-.3.54" transform="translate(-25.64 -34.49)" fill="none" stroke="#221e1f" stroke-miterlimit="10" stroke-width="0.4"/>
  </g>
  <g>
    <path d="M184.63,49.42q-.13-.27-.3-.54" transform="translate(-25.64 -34.49)" fill="none" stroke="#221e1f" stroke-miterlimit="10" stroke-width="0.4"/>
    <path d="M183.83,48.14c-3.52-4.75-13-8.44-24.83-9.64" transform="translate(-25.64 -34.49)" fill="none" stroke="#221e1f" stroke-miterlimit="10" stroke-width="0.4" stroke-dasharray="1.23 0.9"/>
    <path d="M158.54,38.45l-.61-.05" transform="translate(-25.64 -34.49)" fill="none" stroke="#221e1f" stroke-miterlimit="10" stroke-width="0.4"/>
  </g>
  <path d="M153.41,72.64h-1.79c-.33,0-.63,0-.89,0v-.35h.53a1.62,1.62,0,0,0,.61-.07.44.44,0,0,0,.24-.45V66.1a2.92,2.92,0,0,1-.59.19,5.74,5.74,0,0,1-.62.1h-.24V66H151a2.72,2.72,0,0,0,.56-.09,3.35,3.35,0,0,0,.53-.19,2.82,2.82,0,0,0,.29-.18l.26-.23h.26v6.48a.45.45,0,0,0,.23.45,1.71,1.71,0,0,0,.63.07h.52v.35C154,72.66,153.74,72.64,153.41,72.64Z" transform="translate(-25.64 -34.49)"/>
  <path d="M159.84,70.42a4.19,4.19,0,0,1-.33,1.21,2.21,2.21,0,0,1-.78.94,2,2,0,0,1-1.14.35,2,2,0,0,1-.77-.16,1.8,1.8,0,0,1-.64-.41,2.81,2.81,0,0,1-.76-1.49,8.35,8.35,0,0,1-.15-1.71,8.76,8.76,0,0,1,.13-1.65,3.08,3.08,0,0,1,.68-1.5,1.79,1.79,0,0,1,.68-.5,2.13,2.13,0,0,1,1.62,0,2.38,2.38,0,0,1,.65.45,2.75,2.75,0,0,1,.73,1.49,7.84,7.84,0,0,1,.16,1.73A8.83,8.83,0,0,1,159.84,70.42Zm-.85-2.5a8.83,8.83,0,0,0-.08-.9,1.83,1.83,0,0,0-.27-.81,1.45,1.45,0,0,0-.45-.47,1.19,1.19,0,0,0-.6-.17,1.24,1.24,0,0,0-.63.17,1.32,1.32,0,0,0-.43.47,2,2,0,0,0-.27.85c0,.24,0,.54-.06.89s0,.74,0,1.13,0,.75,0,1.12a6.88,6.88,0,0,0,.06.92,2.78,2.78,0,0,0,.27.88,1.54,1.54,0,0,0,.43.48,1.14,1.14,0,0,0,.63.2,1,1,0,0,0,.63-.21,1.53,1.53,0,0,0,.46-.51,2.87,2.87,0,0,0,.22-.86c0-.23.06-.53.08-.9s0-.76,0-1.15,0-.76,0-1.15Z" transform="translate(-25.64 -34.49)"/>
  <path d="M153.5,40.8a1.87,1.87,0,0,1-.48.66,2.3,2.3,0,0,1-.77.45,2.57,2.57,0,0,1-.86.16,2.88,2.88,0,0,1-.83-.13,2.07,2.07,0,0,1-.74-.38,1.72,1.72,0,0,1-.7-1.4,1.7,1.7,0,0,1,.14-.71,1.8,1.8,0,0,1,.41-.59,2.16,2.16,0,0,1,.48-.41,3.26,3.26,0,0,1,.55-.31l-.13-.09a5.27,5.27,0,0,1-.52-.37,1.83,1.83,0,0,1-.43-.52,2.25,2.25,0,0,1-.16-.41,1.51,1.51,0,0,1-.05-.42,1.72,1.72,0,0,1,.15-.72A1.58,1.58,0,0,1,150,35a2,2,0,0,1,.65-.41,2.33,2.33,0,0,1,.76-.12,2.44,2.44,0,0,1,.71.1,2.24,2.24,0,0,1,.65.34,1.47,1.47,0,0,1,.45.51,1.41,1.41,0,0,1,.17.69,1.48,1.48,0,0,1-.09.51,1.86,1.86,0,0,1-.27.45,3.39,3.39,0,0,1-.45.4,2.75,2.75,0,0,1-.52.34l.44.29a3.33,3.33,0,0,1,.65.49,1.9,1.9,0,0,1,.43.72,1.86,1.86,0,0,1,.07.34,1.53,1.53,0,0,1,0,.3A2,2,0,0,1,153.5,40.8Zm-.45-.85a1.1,1.1,0,0,0-.21-.36,3.26,3.26,0,0,0-.48-.41l-.6-.38-.21-.12-.6-.38a3.24,3.24,0,0,0-.61.41,1.67,1.67,0,0,0-.38.47,2.38,2.38,0,0,0-.23.49,2.05,2.05,0,0,0-.06.49,1.72,1.72,0,0,0,.12.63,1.55,1.55,0,0,0,.38.5,1.89,1.89,0,0,0,1.24.48,2,2,0,0,0,.63-.11,2.51,2.51,0,0,0,.57-.28,1.53,1.53,0,0,0,.37-.45,1.11,1.11,0,0,0,.15-.55A1,1,0,0,0,153.05,40Zm-.26-4.37a1.27,1.27,0,0,0-.33-.43,1.61,1.61,0,0,0-.51-.29,1.77,1.77,0,0,0-.56-.09,2.51,2.51,0,0,0-.55.06,1.48,1.48,0,0,0-.47.24,1,1,0,0,0-.35.36.89.89,0,0,0-.13.48.9.9,0,0,0,.16.5,1.29,1.29,0,0,0,.39.38l1.38.88a3.54,3.54,0,0,0,.44-.32,2.89,2.89,0,0,0,.35-.35,1.41,1.41,0,0,0,.22-.42,1.42,1.42,0,0,0,.08-.45A1.26,1.26,0,0,0,152.79,35.58Z" transform="translate(-25.64 -34.49)"/>
  <path d="M197.77,78a2.33,2.33,0,0,1-.49.84,2.36,2.36,0,0,1-.73.51,2.15,2.15,0,0,1-.87.18,2,2,0,0,1-.87-.2,2,2,0,0,1-.67-.55,3.64,3.64,0,0,1-.62-1.44,7,7,0,0,1-.14-1.53,5.57,5.57,0,0,1,.2-1.51,4,4,0,0,1,.71-1.34,2.48,2.48,0,0,1,.88-.73,2.29,2.29,0,0,1,1.11-.28,2.13,2.13,0,0,1,.6.08,1,1,0,0,1,.45.27,1.11,1.11,0,0,1,.35.83.54.54,0,0,1-.14.38.49.49,0,0,1-.37.16.5.5,0,0,1-.37-.15.48.48,0,0,1-.13-.35.44.44,0,0,1,.17-.4.74.74,0,0,1,.43-.1.92.92,0,0,0-.43-.34,1.4,1.4,0,0,0-.54-.1,1.51,1.51,0,0,0-1.12.5,2.39,2.39,0,0,0-.6,1,4.65,4.65,0,0,0-.16.73,9.25,9.25,0,0,0,0,1v.26a1.78,1.78,0,0,1,.53-.78,1.26,1.26,0,0,1,.86-.31,2.21,2.21,0,0,1,.84.17,2.13,2.13,0,0,1,.71.53,2.31,2.31,0,0,1,.48.82A2.84,2.84,0,0,1,198,77,2.56,2.56,0,0,1,197.77,78Zm-.81-1.1a6.13,6.13,0,0,0,0-.72,1.59,1.59,0,0,0-.16-.65,1.46,1.46,0,0,0-.41-.51,1,1,0,0,0-.6-.18,1.07,1.07,0,0,0-.62.17,1.46,1.46,0,0,0-.43.48,2.12,2.12,0,0,0-.24.63,3,3,0,0,0-.07.69c0,.21,0,.4,0,.57a3.41,3.41,0,0,0,.07.58,1.73,1.73,0,0,0,.37.86,1.07,1.07,0,0,0,.84.41,1.14,1.14,0,0,0,.66-.2,1.3,1.3,0,0,0,.43-.52,2,2,0,0,0,.16-.67,5.73,5.73,0,0,0,0-.69v-.25Z" transform="translate(-25.64 -34.49)"/>
  <path d="M194.19,146.84H192.4l-.9,0v-.34H192a1.56,1.56,0,0,0,.61-.08.44.44,0,0,0,.24-.45V140.3a2.91,2.91,0,0,1-.59.2,5.58,5.58,0,0,1-.61.09h-.24v-.34h.36a3.78,3.78,0,0,0,.57-.1,2.68,2.68,0,0,0,.52-.18l.29-.18.26-.23h.26V146q0,.36.24.45a1.62,1.62,0,0,0,.62.08h.52v.34Z" transform="translate(-25.64 -34.49)"/>
  <path d="M200.62,144.62a4,4,0,0,1-.34,1.22,2.34,2.34,0,0,1-.78.94,1.94,1.94,0,0,1-1.14.34,2,2,0,0,1-.76-.15,1.84,1.84,0,0,1-.65-.41,2.8,2.8,0,0,1-.75-1.5,8.22,8.22,0,0,1-.15-1.71,8.76,8.76,0,0,1,.13-1.65,3,3,0,0,1,.67-1.49,1.93,1.93,0,0,1,.68-.51,2.19,2.19,0,0,1,1.62,0,2.45,2.45,0,0,1,.66.44,2.86,2.86,0,0,1,.73,1.5,8.46,8.46,0,0,1,.15,1.72A10.71,10.71,0,0,1,200.62,144.62Zm-.86-2.5c0-.36,0-.65-.07-.89a2.11,2.11,0,0,0-.27-.82A1.52,1.52,0,0,0,199,140a1.1,1.1,0,0,0-.61-.17,1.09,1.09,0,0,0-.62.17,1.2,1.2,0,0,0-.43.46,2.07,2.07,0,0,0-.27.85,7,7,0,0,0-.07.9c0,.36,0,.74,0,1.13s0,.74,0,1.12a5.41,5.41,0,0,0,.07.91,2.34,2.34,0,0,0,.27.89,1.33,1.33,0,0,0,.43.48,1.08,1.08,0,0,0,.62.19,1,1,0,0,0,.64-.2,1.44,1.44,0,0,0,.45-.52,2.84,2.84,0,0,0,.23-.86c0-.23,0-.53.07-.89s0-.76,0-1.16,0-.75,0-1.15Z" transform="translate(-25.64 -34.49)"/>
</svg>
