<svg id="레이어_1" data-name="레이어 1" xmlns="http://www.w3.org/2000/svg" width="155.13" height="123.47" viewBox="0 0 155.13 123.47">
  <g>
    <path d="M186,87.48l0-.62" transform="translate(-35.82 -50.66)" fill="none" stroke="#221e1f" stroke-miterlimit="10" stroke-width="0.4"/>
    <path d="M185.88,86c-.72-11.62-2.81-20.86-5.49-24.33" transform="translate(-35.82 -50.66)" fill="none" stroke="#221e1f" stroke-miterlimit="10" stroke-width="0.4" stroke-dasharray="1.24 0.9"/>
    <path d="M180.11,61.29a3.65,3.65,0,0,0-.44-.44" transform="translate(-35.82 -50.66)" fill="none" stroke="#221e1f" stroke-miterlimit="10" stroke-width="0.4"/>
  </g>
  <g>
    <path d="M179.66,128.89a6.08,6.08,0,0,0,.44-.44" transform="translate(-35.82 -50.66)" fill="none" stroke="#221e1f" stroke-miterlimit="10" stroke-width="0.4"/>
    <path d="M180.65,127.74c2.59-3.76,4.59-13,5.26-24.43" transform="translate(-35.82 -50.66)" fill="none" stroke="#221e1f" stroke-miterlimit="10" stroke-width="0.4" stroke-dasharray="1.24 0.9"/>
    <path d="M185.93,102.86l0-.62" transform="translate(-35.82 -50.66)" fill="none" stroke="#221e1f" stroke-miterlimit="10" stroke-width="0.4"/>
  </g>
  <g>
    <path d="M142.88,79.94l-.48.4" transform="translate(-35.82 -50.66)" fill="none" stroke="#221e1f" stroke-miterlimit="10" stroke-width="0.4"/>
    <path d="M141.71,80.92c-8.87,7.55-15,14.76-16.18,19" transform="translate(-35.82 -50.66)" fill="none" stroke="#221e1f" stroke-miterlimit="10" stroke-width="0.4" stroke-dasharray="1.24 0.9"/>
    <path d="M125.42,100.33a4.88,4.88,0,0,0-.08.61" transform="translate(-35.82 -50.66)" fill="none" stroke="#221e1f" stroke-miterlimit="10" stroke-width="0.4"/>
  </g>
  <g>
    <path d="M179.79,60.16a5.24,5.24,0,0,0-.61-.09" transform="translate(-35.82 -50.66)" fill="none" stroke="#221e1f" stroke-miterlimit="10" stroke-width="0.4"/>
    <path d="M178.29,60.05c-4.56.19-13.13,4.11-22.7,10.44" transform="translate(-35.82 -50.66)" fill="none" stroke="#221e1f" stroke-miterlimit="10" stroke-width="0.4" stroke-dasharray="1.24 0.9"/>
    <path d="M155.21,70.75l-.52.34" transform="translate(-35.82 -50.66)" fill="none" stroke="#221e1f" stroke-miterlimit="10" stroke-width="0.4"/>
  </g>
  <path d="M151.1,73.83a.55.55,0,0,1-.42.19.43.43,0,0,1-.31-.1.36.36,0,0,1-.12-.28.54.54,0,0,1,.16-.39.67.67,0,0,1,.38-.2.66.66,0,0,0-.27-.12,1.27,1.27,0,0,0-.28,0,.9.9,0,0,0-.76.44,2.53,2.53,0,0,0-.35.86l-.51,2.07a1.61,1.61,0,0,0-.05.46.79.79,0,0,0,.14.44.53.53,0,0,0,.19.17.64.64,0,0,0,.28.06,1,1,0,0,0,.39-.09,1.93,1.93,0,0,0,.34-.19,1.91,1.91,0,0,0,.42-.48,2.7,2.7,0,0,0,.29-.59v0a.47.47,0,0,1,.08-.15.17.17,0,0,1,.15,0c.06,0,.08.06.08.14a1.67,1.67,0,0,1-.07.24,2.84,2.84,0,0,1-.38.65,2.25,2.25,0,0,1-.56.55,1.74,1.74,0,0,1-.76.23,1.26,1.26,0,0,1-.46-.08.89.89,0,0,1-.33-.19,2.1,2.1,0,0,1-.26-.27,1,1,0,0,1-.14-.3,2.11,2.11,0,0,1-.49.59,1.14,1.14,0,0,1-.68.25,1.27,1.27,0,0,1-.69-.18.6.6,0,0,1-.35-.55.69.69,0,0,1,.17-.46.59.59,0,0,1,.44-.18.43.43,0,0,1,.29.1.37.37,0,0,1,.12.29.61.61,0,0,1-.16.39.8.8,0,0,1-.36.2.68.68,0,0,0,.26.11.85.85,0,0,0,.29,0,.82.82,0,0,0,.69-.4,2.38,2.38,0,0,0,.36-.75l.45-1.76h0a5.46,5.46,0,0,0,.13-.63,1.16,1.16,0,0,0,0-.61.56.56,0,0,0-.22-.26.66.66,0,0,0-.32-.08,1.07,1.07,0,0,0-.39.07,1.13,1.13,0,0,0-.35.2,2.08,2.08,0,0,0-.45.51,2.81,2.81,0,0,0-.29.66.18.18,0,0,1-.09.1.15.15,0,0,1-.13,0c-.06,0-.07-.07,0-.18a1.73,1.73,0,0,1,.08-.26l0,0a1.88,1.88,0,0,1,.36-.6,2.22,2.22,0,0,1,.54-.48,1.55,1.55,0,0,1,.36-.19,1.59,1.59,0,0,1,.4,0,1.2,1.2,0,0,1,.74.22,1.15,1.15,0,0,1,.46.61,1.34,1.34,0,0,1,.46-.59,1.17,1.17,0,0,1,.71-.24,1.41,1.41,0,0,1,.67.15.62.62,0,0,1,.35.57A.66.66,0,0,1,151.1,73.83Z" transform="translate(-35.82 -50.66)" fill="#221e1f"/>
  <path d="M188.48,93.58a.59.59,0,0,1-.43.19.45.45,0,0,1-.31-.1.38.38,0,0,1-.12-.28.57.57,0,0,1,.16-.39.68.68,0,0,1,.38-.21.81.81,0,0,0-.27-.11,1.2,1.2,0,0,0-.28,0,.92.92,0,0,0-.76.45,2.45,2.45,0,0,0-.34.86L186,96a1.61,1.61,0,0,0-.05.46.74.74,0,0,0,.14.44.4.4,0,0,0,.18.16.55.55,0,0,0,.28.07,1,1,0,0,0,.39-.09,2,2,0,0,0,.35-.19,2.22,2.22,0,0,0,.42-.49,2.7,2.7,0,0,0,.29-.59v0c0-.08.05-.13.08-.15s.08-.05.15,0,.08.06.07.14,0,.13-.06.23a3.07,3.07,0,0,1-.38.66,2.43,2.43,0,0,1-.56.55,1.73,1.73,0,0,1-.37.16,1.29,1.29,0,0,1-.4.06,1.25,1.25,0,0,1-.45-.07.94.94,0,0,1-.34-.19,3.12,3.12,0,0,1-.26-.27,1.35,1.35,0,0,1-.14-.3,2.06,2.06,0,0,1-.48.59,1.16,1.16,0,0,1-.69.24,1.31,1.31,0,0,1-.69-.17.6.6,0,0,1-.34-.56.68.68,0,0,1,.17-.45.58.58,0,0,1,.43-.18.39.39,0,0,1,.29.1.36.36,0,0,1,.12.29.52.52,0,0,1-.16.38.72.72,0,0,1-.36.21.74.74,0,0,0,.26.1.94.94,0,0,0,.3,0,.85.85,0,0,0,.69-.4,2.17,2.17,0,0,0,.35-.75l.46-1.76v0c.06-.26.11-.47.13-.62a1.14,1.14,0,0,0,0-.61.55.55,0,0,0-.21-.26.6.6,0,0,0-.33-.09,1.09,1.09,0,0,0-.39.08,1.28,1.28,0,0,0-.34.19,2,2,0,0,0-.46.52,3.47,3.47,0,0,0-.29.65.2.2,0,0,1-.08.11.15.15,0,0,1-.13,0q-.09,0-.06-.18l.09-.26,0,0a1.92,1.92,0,0,1,.37-.6,2.27,2.27,0,0,1,.54-.49,1.22,1.22,0,0,1,.36-.18,1.51,1.51,0,0,1,.39,0,1.32,1.32,0,0,1,.75.21,1.27,1.27,0,0,1,.46.62,1.43,1.43,0,0,1,.46-.6,1.22,1.22,0,0,1,.7-.23,1.41,1.41,0,0,1,.67.15.62.62,0,0,1,.36.57A.67.67,0,0,1,188.48,93.58Z" transform="translate(-35.82 -50.66)" fill="#221e1f"/>
  <g>
    <path d="M99.69,170.73h.62" transform="translate(-35.82 -50.66)" fill="none" stroke="#221e1f" stroke-miterlimit="10" stroke-width="0.4"/>
    <path d="M101.21,170.69c20.93-.57,38-3.75,43.44-7.94" transform="translate(-35.82 -50.66)" fill="none" stroke="#221e1f" stroke-miterlimit="10" stroke-width="0.4" stroke-dasharray="1.24 0.9"/>
    <path d="M145,162.47l.45-.42" transform="translate(-35.82 -50.66)" fill="none" stroke="#221e1f" stroke-miterlimit="10" stroke-width="0.4"/>
  </g>
  <g>
    <path d="M43.4,162l.45.42" transform="translate(-35.82 -50.66)" fill="none" stroke="#221e1f" stroke-miterlimit="10" stroke-width="0.4"/>
    <path d="M44.56,163c5.86,4.09,22.82,7.18,43.53,7.7" transform="translate(-35.82 -50.66)" fill="none" stroke="#221e1f" stroke-miterlimit="10" stroke-width="0.4" stroke-dasharray="1.24 0.9"/>
    <path d="M88.55,170.72h.62" transform="translate(-35.82 -50.66)" fill="none" stroke="#221e1f" stroke-miterlimit="10" stroke-width="0.4"/>
  </g>
  <g>
    <path d="M74.15,126.17l-.49.39" transform="translate(-35.82 -50.66)" fill="none" stroke="#221e1f" stroke-miterlimit="10" stroke-width="0.4"/>
    <path d="M72.94,127.13c-16.48,13.25-27.82,26.75-29,34.2" transform="translate(-35.82 -50.66)" fill="none" stroke="#221e1f" stroke-miterlimit="10" stroke-width="0.4" stroke-dasharray="1.27 0.92"/>
    <path d="M43.88,161.78c0,.21,0,.41,0,.61" transform="translate(-35.82 -50.66)" fill="none" stroke="#221e1f" stroke-miterlimit="10" stroke-width="0.4"/>
  </g>
  <g>
    <path d="M125.9,100.94l-.6-.13" transform="translate(-35.82 -50.66)" fill="none" stroke="#221e1f" stroke-miterlimit="10" stroke-width="0.4"/>
    <path d="M124.39,100.69c-7.72-.66-23.75,6.5-40.9,18.52" transform="translate(-35.82 -50.66)" fill="none" stroke="#221e1f" stroke-miterlimit="10" stroke-width="0.4" stroke-dasharray="1.27 0.92"/>
    <path d="M83.11,119.48l-.51.36" transform="translate(-35.82 -50.66)" fill="none" stroke="#221e1f" stroke-miterlimit="10" stroke-width="0.4"/>
  </g>
  <path d="M125.15,94.9a2.42,2.42,0,0,1-1.67.57h-1.8v2.64a.7.7,0,0,0,.23.6,1.45,1.45,0,0,0,.9.21v.28h-2.88v-.28a1.24,1.24,0,0,0,.82-.21.73.73,0,0,0,.23-.6V92.26a.61.61,0,0,0-.23-.55,1.58,1.58,0,0,0-.82-.16v-.27h3.64a2.48,2.48,0,0,1,1.59.51,1.83,1.83,0,0,1,.67,1.47A2.09,2.09,0,0,1,125.15,94.9Zm-.53-2.83a1.75,1.75,0,0,0-1.31-.52h-.85a.94.94,0,0,0-.6.16.7.7,0,0,0-.18.55v2.93h1.62a1.62,1.62,0,0,0,1.32-.63,2,2,0,0,0,.45-1.3A1.68,1.68,0,0,0,124.62,92.07Z" transform="translate(-35.82 -50.66)" fill="#221e1f"/>
  <path d="M146.87,173.52a3.4,3.4,0,0,1-.48.39,1.24,1.24,0,0,1-1.5-.22,2.83,2.83,0,0,1-.6-.9,2.74,2.74,0,0,1-.53.17,1.93,1.93,0,0,1-.47,0,2.91,2.91,0,0,1-2.49-1.28,4.73,4.73,0,0,1-.84-2.84,4.8,4.8,0,0,1,.84-2.85,3,3,0,0,1,4.95,0,4.62,4.62,0,0,1,.9,2.85,5.38,5.38,0,0,1-.43,2.16,2.76,2.76,0,0,1-1.33,1.51,1.83,1.83,0,0,0,.42.63,1,1,0,0,0,.67.31,2.15,2.15,0,0,0,.4,0,1.65,1.65,0,0,0,.43-.18l.13.18Zm-1.65-7.29a2.15,2.15,0,0,0-3.86,0,5.11,5.11,0,0,0-.66,2.67,6.2,6.2,0,0,0,.2,1.57,3,3,0,0,0,.63,1.32,1,1,0,0,1,.32-1,1.44,1.44,0,0,1,.82-.2,1.79,1.79,0,0,1,1,.31,3.41,3.41,0,0,1,1.07,1.24,2.86,2.86,0,0,0,.9-1.51,5.74,5.74,0,0,0,.26-1.77A5.11,5.11,0,0,0,145.22,166.23Zm-1.89,5a1.32,1.32,0,0,0-.81-.27.79.79,0,0,0-.48.12,1,1,0,0,0-.32.87,2.69,2.69,0,0,0,.81.61,1.8,1.8,0,0,0,.76.17,1.35,1.35,0,0,0,.43-.08,2.65,2.65,0,0,0,.44-.17A2.78,2.78,0,0,0,143.33,171.24Z" transform="translate(-35.82 -50.66)" fill="#221e1f"/>
  <path d="M189.45,132.85l-2.17-3.93h-1.17v2.87a.68.68,0,0,0,.24.59,1.3,1.3,0,0,0,.82.19v.28h-2.81v-.28a1.35,1.35,0,0,0,.83-.19.72.72,0,0,0,.22-.59v-5.92a.58.58,0,0,0-.22-.51,1.55,1.55,0,0,0-.83-.16v-.27h3.21a3,3,0,0,1,1.94.55,1.7,1.7,0,0,1,.67,1.41,1.83,1.83,0,0,1-.53,1.36,2.35,2.35,0,0,1-1.63.64l1.81,3.18a.8.8,0,0,0,.43.4,1.93,1.93,0,0,0,.69.1v.28Zm-.53-7.19a2.05,2.05,0,0,0-1.4-.46h-.61a.92.92,0,0,0-.6.16.61.61,0,0,0-.2.51v2.77h1.67a1.54,1.54,0,0,0,1.28-.54,1.92,1.92,0,0,0,.37-1.21A1.53,1.53,0,0,0,188.92,125.66Z" transform="translate(-35.82 -50.66)" fill="#221e1f"/>
  <circle cx="109.62" cy="77.69" r="1.42" fill="#231815"/>
  <path d="M135.35,130.89v-.28a2,2,0,0,0,.9-.15.53.53,0,0,0,.25-.5v-6a.6.6,0,0,0-.25-.57,1.91,1.91,0,0,0-.9-.15V123h3v.28a1.86,1.86,0,0,0-.9.15.62.62,0,0,0-.24.57v6a.55.55,0,0,0,.24.5,1.91,1.91,0,0,0,.9.15v.28Z" transform="translate(-35.82 -50.66)" fill="#221e1f"/>
  <g>
    <path d="M141.59,137.32c0-.2.07-.41.11-.61" transform="translate(-35.82 -50.66)" fill="none" stroke="#221e1f" stroke-miterlimit="10" stroke-width="0.4"/>
    <path d="M141.86,135.89c.66-3.14,1.64-5.58,2.81-6.87" transform="translate(-35.82 -50.66)" fill="none" stroke="#221e1f" stroke-miterlimit="10" stroke-width="0.4" stroke-dasharray="1.14 0.83"/>
    <path d="M145,128.72a3.32,3.32,0,0,1,.49-.37" transform="translate(-35.82 -50.66)" fill="none" stroke="#221e1f" stroke-miterlimit="10" stroke-width="0.4"/>
  </g>
  <g>
    <path d="M145.45,162.23a3.4,3.4,0,0,1-.49-.38" transform="translate(-35.82 -50.66)" fill="none" stroke="#221e1f" stroke-miterlimit="10" stroke-width="0.4"/>
    <path d="M144.35,161.17c-1.16-1.54-2.12-4.27-2.72-7.68" transform="translate(-35.82 -50.66)" fill="none" stroke="#221e1f" stroke-miterlimit="10" stroke-width="0.4" stroke-dasharray="1.26 0.91"/>
    <path d="M141.55,153l-.09-.62" transform="translate(-35.82 -50.66)" fill="none" stroke="#221e1f" stroke-miterlimit="10" stroke-width="0.4"/>
  </g>
  <polyline points="143.64 106.03 137.97 106.03 137.97 111.7" fill="none" stroke="#221e1f" stroke-miterlimit="10" stroke-width="0.4"/>
  <polyline points="143.24 83.28 137.57 83.28 137.57 77.61" fill="none" stroke="#221e1f" stroke-miterlimit="10" stroke-width="0.4"/>
  <polyline points="109.62 106.03 115.29 106.03 115.29 111.7" fill="none" stroke="#221e1f" stroke-miterlimit="10" stroke-width="0.4"/>
  <path d="M181.06,58.75v-.28a1.87,1.87,0,0,0,.93-.14c.15-.1.17-.31.06-.61l-.65-1.84h-3.06l-.5,1.59c-.14.41-.14.67,0,.81a1.46,1.46,0,0,0,.94.19v.28h-2.41v-.28a1,1,0,0,0,.68-.19,2.59,2.59,0,0,0,.48-1l2.2-6.4.6-.27,2.43,7a1.14,1.14,0,0,0,.4.61,1.2,1.2,0,0,0,.71.17v.28Zm-1.2-7.28-1.41,4.09h2.83Z" transform="translate(-35.82 -50.66)" fill="#221e1f"/>
  <path d="M41.45,166.78a3,3,0,0,1-2.08.67H35.82v-.28a1.65,1.65,0,0,0,.83-.14c.15-.09.22-.29.22-.58v-5.88a.68.68,0,0,0-.22-.58,1.39,1.39,0,0,0-.83-.18v-.28h3.33a3.3,3.3,0,0,1,2,.52,1.59,1.59,0,0,1,.69,1.34,1.53,1.53,0,0,1-.38,1,2.7,2.7,0,0,1-1.35.72,2.84,2.84,0,0,1,1.6.78,2.06,2.06,0,0,1-.22,2.85Zm-.86-6.48a2.05,2.05,0,0,0-1.45-.49h-.65a1.09,1.09,0,0,0-.7.18.71.71,0,0,0-.22.58v2.53h1.57a1.86,1.86,0,0,0,1.36-.58,1.69,1.69,0,0,0,.53-1.2A1.4,1.4,0,0,0,40.59,160.3Zm.24,3.66a2.14,2.14,0,0,0-1.52-.58H37.57v3.07a.64.64,0,0,0,.22.58,1.26,1.26,0,0,0,.7.14h.75a2.23,2.23,0,0,0,1.61-.59,1.75,1.75,0,0,0,.56-1.3A1.79,1.79,0,0,0,40.83,164Z" transform="translate(-35.82 -50.66)" fill="#221e1f"/>
  <path d="M185.22,168.72a2.67,2.67,0,0,1-1.82.69,2.88,2.88,0,0,1-2.29-1.09,4.62,4.62,0,0,1-1-3.09,4.74,4.74,0,0,1,.86-2.89,2.7,2.7,0,0,1,2.24-1.21,3.27,3.27,0,0,1,.62.07l.64.19.07,0,.78-.24.77,2-.17.1a5.9,5.9,0,0,0-1.07-1.21,2.53,2.53,0,0,0-1.62-.66,2,2,0,0,0-1.7,1.09,5.16,5.16,0,0,0-.67,2.73,4.11,4.11,0,0,0,.81,2.59,2.43,2.43,0,0,0,2,1,2.1,2.1,0,0,0,1.3-.44A4,4,0,0,0,186.1,167l.21.09A4.27,4.27,0,0,1,185.22,168.72Z" transform="translate(-35.82 -50.66)" fill="#221e1f"/>
  <line x1="109.62" y1="77.69" x2="109.62" y2="111.62" fill="none" stroke="#221e1f" stroke-miterlimit="10" stroke-width="0.4"/>
  <line x1="109.31" y1="77.61" x2="143.24" y2="77.61" fill="none" stroke="#221e1f" stroke-miterlimit="10" stroke-width="0.4"/>
  <line x1="7.58" y1="111.62" x2="143.64" y2="111.62" fill="none" stroke="#221e1f" stroke-linejoin="round" stroke-width="0.75"/>
  <line x1="143.64" y1="111.73" x2="143.64" y2="9.69" fill="none" stroke="#221e1f" stroke-linejoin="round" stroke-width="0.75"/>
  <line x1="143.64" y1="9.69" x2="7.58" y2="111.62" fill="none" stroke="#221e1f" stroke-linejoin="round" stroke-width="0.75"/>
  <line x1="109.62" y1="77.6" x2="89.26" y2="50.42" fill="none" stroke="#221e1f" stroke-linejoin="round" stroke-width="0.4"/>
  <circle cx="109.62" cy="77.61" r="34.02" fill="none" stroke="#221e1f" stroke-linejoin="round" stroke-width="0.75"/>
  <g>
    <path d="M182.92,137.32c0-.2-.07-.41-.11-.61" transform="translate(-35.82 -50.66)" fill="none" stroke="#221e1f" stroke-miterlimit="10" stroke-width="0.4"/>
    <path d="M182.65,135.89c-.66-3.14-1.64-5.58-2.81-6.87" transform="translate(-35.82 -50.66)" fill="none" stroke="#221e1f" stroke-miterlimit="10" stroke-width="0.4" stroke-dasharray="1.14 0.83"/>
    <path d="M179.56,128.72a3.32,3.32,0,0,0-.49-.37" transform="translate(-35.82 -50.66)" fill="none" stroke="#221e1f" stroke-miterlimit="10" stroke-width="0.4"/>
  </g>
  <g>
    <path d="M179.06,162.23a3.4,3.4,0,0,0,.49-.38" transform="translate(-35.82 -50.66)" fill="none" stroke="#221e1f" stroke-miterlimit="10" stroke-width="0.4"/>
    <path d="M180.16,161.17c1.16-1.54,2.12-4.27,2.72-7.68" transform="translate(-35.82 -50.66)" fill="none" stroke="#221e1f" stroke-miterlimit="10" stroke-width="0.4" stroke-dasharray="1.26 0.91"/>
    <path d="M183,153l.09-.62" transform="translate(-35.82 -50.66)" fill="none" stroke="#221e1f" stroke-miterlimit="10" stroke-width="0.4"/>
  </g>
  <g>
    <path d="M170.35,124.41l.61.11" transform="translate(-35.82 -50.66)" fill="none" stroke="#221e1f" stroke-miterlimit="10" stroke-width="0.4"/>
    <path d="M171.78,124.68c3.15.66,5.59,1.64,6.88,2.81" transform="translate(-35.82 -50.66)" fill="none" stroke="#221e1f" stroke-miterlimit="10" stroke-width="0.4" stroke-dasharray="1.14 0.83"/>
    <path d="M179,127.77a3.4,3.4,0,0,1,.38.49" transform="translate(-35.82 -50.66)" fill="none" stroke="#221e1f" stroke-miterlimit="10" stroke-width="0.4"/>
  </g>
  <g>
    <path d="M145.45,128.27a3.32,3.32,0,0,1,.37-.49" transform="translate(-35.82 -50.66)" fill="none" stroke="#221e1f" stroke-miterlimit="10" stroke-width="0.4"/>
    <path d="M146.5,127.17a19.08,19.08,0,0,1,7.69-2.72" transform="translate(-35.82 -50.66)" fill="none" stroke="#221e1f" stroke-miterlimit="10" stroke-width="0.4" stroke-dasharray="1.26 0.91"/>
    <path d="M154.64,124.37l.62-.09" transform="translate(-35.82 -50.66)" fill="none" stroke="#221e1f" stroke-miterlimit="10" stroke-width="0.4"/>
  </g>
  <g>
    <path d="M170.35,166.09,171,166" transform="translate(-35.82 -50.66)" fill="none" stroke="#221e1f" stroke-miterlimit="10" stroke-width="0.4"/>
    <path d="M171.78,165.82c3.15-.67,5.59-1.65,6.88-2.81" transform="translate(-35.82 -50.66)" fill="none" stroke="#221e1f" stroke-miterlimit="10" stroke-width="0.4" stroke-dasharray="1.14 0.83"/>
    <path d="M179,162.72a4,4,0,0,0,.38-.48" transform="translate(-35.82 -50.66)" fill="none" stroke="#221e1f" stroke-miterlimit="10" stroke-width="0.4"/>
  </g>
  <g>
    <path d="M145.45,162.23a3.94,3.94,0,0,0,.37.49" transform="translate(-35.82 -50.66)" fill="none" stroke="#221e1f" stroke-miterlimit="10" stroke-width="0.4"/>
    <path d="M146.5,163.32c1.55,1.17,4.27,2.13,7.69,2.73" transform="translate(-35.82 -50.66)" fill="none" stroke="#221e1f" stroke-miterlimit="10" stroke-width="0.4" stroke-dasharray="1.26 0.91"/>
    <path d="M154.64,166.12l.62.1" transform="translate(-35.82 -50.66)" fill="none" stroke="#221e1f" stroke-miterlimit="10" stroke-width="0.4"/>
  </g>
  <path d="M96.64,172.6a2.51,2.51,0,0,1-.49.84,2.58,2.58,0,0,1-.74.51,2.11,2.11,0,0,1-.86.18,2,2,0,0,1-.87-.2,1.89,1.89,0,0,1-.67-.55,3.63,3.63,0,0,1-.63-1.45,7.53,7.53,0,0,1-.14-1.53,5.18,5.18,0,0,1,.21-1.5,3.83,3.83,0,0,1,.71-1.34,2.54,2.54,0,0,1,.87-.73,2.45,2.45,0,0,1,1.72-.21,1.29,1.29,0,0,1,.45.27,1.09,1.09,0,0,1,.34.84.51.51,0,0,1-.14.38.46.46,0,0,1-.36.16.5.5,0,0,1-.51-.5.46.46,0,0,1,.17-.4.76.76,0,0,1,.43-.1.79.79,0,0,0-.43-.34,1.33,1.33,0,0,0-.54-.1,1.53,1.53,0,0,0-1.12.49,2.41,2.41,0,0,0-.59,1,4.65,4.65,0,0,0-.16.73,7.08,7.08,0,0,0-.05,1v.26a1.76,1.76,0,0,1,.52-.78,1.29,1.29,0,0,1,.87-.31,2.21,2.21,0,0,1,.84.17,2.24,2.24,0,0,1,.71.53,2.29,2.29,0,0,1,.47.82,2.6,2.6,0,0,1,.16.93A2.55,2.55,0,0,1,96.64,172.6Zm-.82-1.1a6.57,6.57,0,0,0,0-.72,1.88,1.88,0,0,0-.16-.66,1.41,1.41,0,0,0-.41-.5,1.15,1.15,0,0,0-1.22,0,1.36,1.36,0,0,0-.43.48,2,2,0,0,0-.25.63,3.69,3.69,0,0,0-.06.69c0,.21,0,.4,0,.57a3.44,3.44,0,0,0,.06.58,1.83,1.83,0,0,0,.38.86,1.07,1.07,0,0,0,.84.41,1.13,1.13,0,0,0,.66-.21,1.28,1.28,0,0,0,.43-.51,2.27,2.27,0,0,0,.16-.67c0-.15,0-.38,0-.69v-.25Z" transform="translate(-35.82 -50.66)"/>
  <path d="M79.9,125.07a2.53,2.53,0,0,1-.5.84,2.41,2.41,0,0,1-.73.51,2.11,2.11,0,0,1-.86.18,1.86,1.86,0,0,1-.87-.21,1.76,1.76,0,0,1-.67-.54,3.63,3.63,0,0,1-.63-1.45,7.6,7.6,0,0,1-.14-1.53,5.13,5.13,0,0,1,.21-1.5,3.83,3.83,0,0,1,.71-1.34,2.43,2.43,0,0,1,.87-.73,2.45,2.45,0,0,1,1.72-.21,1.29,1.29,0,0,1,.45.27,1.09,1.09,0,0,1,.34.84.51.51,0,0,1-.14.38.46.46,0,0,1-.36.16.48.48,0,0,1-.37-.15.49.49,0,0,1-.14-.36.45.45,0,0,1,.17-.39.76.76,0,0,1,.43-.1.85.85,0,0,0-.43-.35,1.56,1.56,0,0,0-1.66.4,2.41,2.41,0,0,0-.59,1,3.74,3.74,0,0,0-.16.73,7,7,0,0,0-.06.95v.25A1.83,1.83,0,0,1,77,122a1.28,1.28,0,0,1,.86-.31,2.05,2.05,0,0,1,.85.17,2.24,2.24,0,0,1,.71.53,2.5,2.5,0,0,1,.47.81,2.69,2.69,0,0,1,.16.94A2.77,2.77,0,0,1,79.9,125.07Zm-.82-1.1a6.57,6.57,0,0,0,0-.72,1.88,1.88,0,0,0-.16-.66,1.43,1.43,0,0,0-.41-.5,1,1,0,0,0-.61-.19,1,1,0,0,0-.61.18,1.36,1.36,0,0,0-.43.48,2,2,0,0,0-.25.63,3.69,3.69,0,0,0-.06.69c0,.21,0,.4,0,.57a3.56,3.56,0,0,0,.06.58,1.74,1.74,0,0,0,.38.86,1.07,1.07,0,0,0,.84.41,1.13,1.13,0,0,0,.66-.21,1.28,1.28,0,0,0,.43-.51,2.35,2.35,0,0,0,.16-.67c0-.15,0-.38,0-.69V124Z" transform="translate(-35.82 -50.66)"/>
  <g>
    <path d="M142.57,147.38h-4.1v-.26l2.25-2.51.43-.55a4.87,4.87,0,0,0,.37-.6,3.92,3.92,0,0,0,.25-.63,2.19,2.19,0,0,0,0-1.31,1.41,1.41,0,0,0-.27-.58,1.46,1.46,0,0,0-.5-.43,1.41,1.41,0,0,0-.62-.13,1.48,1.48,0,0,0-.93.3,1.61,1.61,0,0,0-.56.82h.14a.6.6,0,0,1,.42.15.58.58,0,0,1,.17.43.62.62,0,0,1-.16.41.62.62,0,0,1-.86,0,.68.68,0,0,1-.15-.45,2,2,0,0,1,.15-.74,2.14,2.14,0,0,1,.42-.61,1.87,1.87,0,0,1,.67-.49,2.21,2.21,0,0,1,.82-.15,2.93,2.93,0,0,1,.9.14,2.34,2.34,0,0,1,.78.45,2.25,2.25,0,0,1,.5.7,2.2,2.2,0,0,1,.17.86,2.11,2.11,0,0,1-.13.77,2.2,2.2,0,0,1-.41.67,8.47,8.47,0,0,1-.6.6l-.6.57-.63.59-1.17,1.15h2.54a1,1,0,0,0,.42-.08.74.74,0,0,0,.18-.36q0-.14.09-.45l0-.18h.28Z" transform="translate(-35.82 -50.66)"/>
    <path d="M185.64,147.38h-4.09v-.26l2.24-2.51c.16-.2.31-.38.43-.55a6.64,6.64,0,0,0,.38-.6,3.83,3.83,0,0,0,.24-.63,2,2,0,0,0,.11-.65,2.71,2.71,0,0,0-.08-.66,1.72,1.72,0,0,0-.27-.58,1.58,1.58,0,0,0-.51-.43,1.39,1.39,0,0,0-.61-.13,1.51,1.51,0,0,0-.94.3,1.61,1.61,0,0,0-.56.82h.14a.6.6,0,0,1,.42.15.58.58,0,0,1,.17.43.57.57,0,0,1-.16.41.58.58,0,0,1-.41.17.54.54,0,0,1-.44-.18.68.68,0,0,1-.15-.45,2,2,0,0,1,.15-.74,1.93,1.93,0,0,1,.41-.61,1.82,1.82,0,0,1,.68-.49,2.16,2.16,0,0,1,.81-.15,2.93,2.93,0,0,1,.9.14,2.39,2.39,0,0,1,.79.45,2.22,2.22,0,0,1,.49.7,2,2,0,0,1,.17.86,2.11,2.11,0,0,1-.13.77,2.37,2.37,0,0,1-.4.67c-.18.19-.38.39-.61.6l-.6.57-.63.59-1.17,1.15H185a1,1,0,0,0,.42-.08.74.74,0,0,0,.18-.36,2.88,2.88,0,0,0,.09-.45l0-.18H186Z" transform="translate(-35.82 -50.66)"/>
    <path d="M164.68,126.31h-4.09v-.26l2.24-2.51.43-.54c.14-.21.27-.41.38-.61a3.43,3.43,0,0,0,.24-.62,2,2,0,0,0,.11-.66,2.78,2.78,0,0,0-.08-.66,1.82,1.82,0,0,0-.27-.58,1.72,1.72,0,0,0-.51-.43,1.55,1.55,0,0,0-.61-.13,1.51,1.51,0,0,0-.94.3,1.7,1.7,0,0,0-.56.82h.14a.6.6,0,0,1,.42.15.58.58,0,0,1,.17.43.56.56,0,0,1-.16.41.6.6,0,0,1-.85,0,.63.63,0,0,1-.15-.44,1.92,1.92,0,0,1,.15-.74,2,2,0,0,1,.41-.62,1.91,1.91,0,0,1,.68-.48,2.16,2.16,0,0,1,.81-.15,2.65,2.65,0,0,1,.9.14,2.39,2.39,0,0,1,.79.45,2.11,2.11,0,0,1,.49.7,2,2,0,0,1,.17.85,2.13,2.13,0,0,1-.13.78,2.33,2.33,0,0,1-.4.66c-.18.19-.38.39-.61.61l-.6.57-.63.59-1.17,1.14H164a1.12,1.12,0,0,0,.42-.07.86.86,0,0,0,.18-.36,2.88,2.88,0,0,0,.09-.45l0-.19H165Z" transform="translate(-35.82 -50.66)"/>
    <path d="M164.68,170.5h-4.09v-.26l2.24-2.51c.16-.2.31-.38.43-.55a6.64,6.64,0,0,0,.38-.6,3.51,3.51,0,0,0,.24-.63,1.93,1.93,0,0,0,.11-.65,2.71,2.71,0,0,0-.08-.66,1.72,1.72,0,0,0-.27-.58,1.58,1.58,0,0,0-.51-.43,1.39,1.39,0,0,0-.61-.13,1.51,1.51,0,0,0-.94.3,1.61,1.61,0,0,0-.56.82h.14a.6.6,0,0,1,.42.15.58.58,0,0,1,.17.43.57.57,0,0,1-.16.41.58.58,0,0,1-.41.17.54.54,0,0,1-.44-.18.65.65,0,0,1-.15-.44,2,2,0,0,1,.15-.75,1.93,1.93,0,0,1,.41-.61,1.69,1.69,0,0,1,.68-.48,2.17,2.17,0,0,1,.81-.16,2.93,2.93,0,0,1,.9.14,2.6,2.6,0,0,1,.79.46,2,2,0,0,1,.49.7,2,2,0,0,1,.17.85,2.11,2.11,0,0,1-.13.77,2.24,2.24,0,0,1-.4.67c-.18.19-.38.39-.61.6s-.32.32-.6.57l-.63.6-1.17,1.14H164a1,1,0,0,0,.42-.08.75.75,0,0,0,.18-.35,3.37,3.37,0,0,0,.09-.46l0-.18H165Z" transform="translate(-35.82 -50.66)"/>
  </g>
</svg>
