<svg id="레이어_1" data-name="레이어 1" xmlns="http://www.w3.org/2000/svg" width="176.13" height="160.02" viewBox="0 0 176.13 160.02">
  <g>
    <line x1="22.95" y1="106.58" x2="22.95" y2="107.2" fill="none" stroke="#231815" stroke-linejoin="round" stroke-width="0.4"/>
    <line x1="22.95" y1="108.12" x2="22.95" y2="133.82" fill="none" stroke="#231815" stroke-linejoin="round" stroke-width="0.4" stroke-dasharray="1.26 0.92"/>
    <line x1="22.95" y1="134.28" x2="22.95" y2="134.9" fill="none" stroke="#231815" stroke-linejoin="round" stroke-width="0.4"/>
  </g>
  <polyline points="159.01 66.89 159.01 15.87 22.95 15.87 22.95 106.58" fill="none" stroke="#231815" stroke-linejoin="round" stroke-width="0.75"/>
  <g>
    <line x1="22.95" y1="134.9" x2="22.95" y2="135.52" fill="none" stroke="#231815" stroke-linejoin="round" stroke-width="0.4"/>
    <line x1="22.95" y1="136.41" x2="22.95" y2="150.87" fill="none" stroke="#231815" stroke-linejoin="round" stroke-width="0.4" stroke-dasharray="1.23 0.9"/>
    <polyline points="22.95 151.31 22.95 151.93 23.57 151.93" fill="none" stroke="#231815" stroke-linejoin="round" stroke-width="0.4"/>
    <line x1="24.46" y1="151.93" x2="157.95" y2="151.93" fill="none" stroke="#231815" stroke-linejoin="round" stroke-width="0.4" stroke-dasharray="1.23 0.89"/>
    <polyline points="158.39 151.93 159.01 151.93 159.01 151.31" fill="none" stroke="#231815" stroke-linejoin="round" stroke-width="0.4"/>
    <line x1="159.01" y1="150.42" x2="159.01" y2="67.96" fill="none" stroke="#231815" stroke-linejoin="round" stroke-width="0.4" stroke-dasharray="1.23 0.89"/>
    <line x1="159.01" y1="67.51" x2="159.01" y2="66.89" fill="none" stroke="#231815" stroke-linejoin="round" stroke-width="0.4"/>
  </g>
  <polygon points="9.34 124.72 90.98 15.87 159.01 66.89 22.95 134.93 9.34 124.72" fill="none" stroke="#231815" stroke-linejoin="round" stroke-width="0.75"/>
  <path d="M44.62,49.26V49a1.94,1.94,0,0,0,.93-.14c.15-.11.18-.31.07-.61L45,46.39H41.91L41.4,48q-.19.6,0,.81a1.56,1.56,0,0,0,.94.19v.28H39.93V49a1,1,0,0,0,.68-.19,2.5,2.5,0,0,0,.49-.95l2.19-6.41.61-.26,2.43,7a1.12,1.12,0,0,0,.4.62,1.27,1.27,0,0,0,.7.17v.28ZM43.42,42,42,46.07h2.83Z" transform="translate(-25.64 -33.73)" fill="#221e1f"/>
  <path d="M46.15,192.91a3.07,3.07,0,0,1-2.08.66H40.52v-.28a1.55,1.55,0,0,0,.83-.14c.15-.09.22-.28.22-.58V186.7a.67.67,0,0,0-.22-.58,1.31,1.31,0,0,0-.83-.19v-.28h3.33a3.3,3.3,0,0,1,2,.53,1.58,1.58,0,0,1,.69,1.33,1.51,1.51,0,0,1-.38,1,2.7,2.7,0,0,1-1.35.72,2.91,2.91,0,0,1,1.6.79,1.91,1.91,0,0,1,.47,1.34A1.94,1.94,0,0,1,46.15,192.91Zm-.86-6.48a2.06,2.06,0,0,0-1.45-.5h-.65a1,1,0,0,0-.7.19.69.69,0,0,0-.22.58v2.52h1.57a1.82,1.82,0,0,0,1.36-.58,1.69,1.69,0,0,0,.53-1.19A1.37,1.37,0,0,0,45.29,186.43Zm.24,3.65A2.14,2.14,0,0,0,44,189.5H42.27v3.07a.64.64,0,0,0,.22.58,1.18,1.18,0,0,0,.7.14h.75a2.19,2.19,0,0,0,1.61-.59,1.75,1.75,0,0,0,.56-1.3A1.79,1.79,0,0,0,45.53,190.08Z" transform="translate(-25.64 -33.73)" fill="#221e1f"/>
  <path d="M190.89,193.06a2.67,2.67,0,0,1-1.82.69,2.9,2.9,0,0,1-2.29-1.08,4.67,4.67,0,0,1-1-3.1,4.74,4.74,0,0,1,.86-2.89,2.69,2.69,0,0,1,2.24-1.2,3.18,3.18,0,0,1,.62.06l.64.19.07,0,.79-.25.76,2-.17.11a5.72,5.72,0,0,0-1.07-1.22,2.53,2.53,0,0,0-1.62-.66,2,2,0,0,0-1.7,1.09,5.16,5.16,0,0,0-.67,2.73,4.09,4.09,0,0,0,.81,2.59,2.41,2.41,0,0,0,2,1,2.1,2.1,0,0,0,1.3-.44,4,4,0,0,0,1.14-1.41l.21.09A4.27,4.27,0,0,1,190.89,193.06Z" transform="translate(-25.64 -33.73)" fill="#221e1f"/>
  <path d="M191.37,47.93a3.54,3.54,0,0,1-2.91,1.24h-3v-.28a1.34,1.34,0,0,0,.81-.18.73.73,0,0,0,.24-.62V42.27a.67.67,0,0,0-.24-.57,1.48,1.48,0,0,0-.81-.17v-.28h3a3.54,3.54,0,0,1,2.91,1.24,4.52,4.52,0,0,1,0,5.44Zm-.61-5.25a2.72,2.72,0,0,0-2.3-1.15h-.34a1.11,1.11,0,0,0-.68.17.71.71,0,0,0-.2.57v5.82a.81.81,0,0,0,.2.62,1,1,0,0,0,.68.18h.34a2.72,2.72,0,0,0,2.3-1.15,4.54,4.54,0,0,0,0-5.06Z" transform="translate(-25.64 -33.73)" fill="#221e1f"/>
  <path d="M118.44,43.92v-.28a1.31,1.31,0,0,0,.82-.2.68.68,0,0,0,.23-.56V36.37h-.12L116.5,44h-.18l-2.83-7.46h-.13v6.34a.7.7,0,0,0,.22.58,1.45,1.45,0,0,0,.84.18v.28H112v-.28a1.41,1.41,0,0,0,.83-.18.67.67,0,0,0,.22-.58v-6a.5.5,0,0,0-.24-.47,1.72,1.72,0,0,0-.81-.13V36h2l2.6,6.92,2.6-6.92h2v.28a1.73,1.73,0,0,0-.86.14.51.51,0,0,0-.2.46v6a.68.68,0,0,0,.22.56,1.36,1.36,0,0,0,.84.2v.28Z" transform="translate(-25.64 -33.73)" fill="#221e1f"/>
  <path d="M196.48,98.24a.47.47,0,0,0-.24.45v7.09H196l-4.83-7v5.88a.72.72,0,0,0,.23.59,1.76,1.76,0,0,0,.92.17v.28h-2.53v-.28a1.48,1.48,0,0,0,.81-.17.69.69,0,0,0,.24-.59V98.85a.66.66,0,0,0-.24-.59,1.39,1.39,0,0,0-.81-.17v-.28h1.49l4.59,6.64V98.69a.46.46,0,0,0-.26-.46,2,2,0,0,0-.91-.14v-.28h2.55v.28A1.71,1.71,0,0,0,196.48,98.24Z" transform="translate(-25.64 -33.73)" fill="#221e1f"/>
  <path d="M46.34,137.15a2.39,2.39,0,0,1-1.66.57H42.87v2.64a.73.73,0,0,0,.23.6,1.48,1.48,0,0,0,.91.21v.28H41.12v-.28a1.23,1.23,0,0,0,.82-.21.73.73,0,0,0,.23-.6v-5.84a.62.62,0,0,0-.23-.56,1.58,1.58,0,0,0-.82-.15v-.28h3.64a2.45,2.45,0,0,1,1.59.51,1.84,1.84,0,0,1,.67,1.48A2.05,2.05,0,0,1,46.34,137.15Zm-.53-2.83a1.73,1.73,0,0,0-1.31-.51h-.85a.89.89,0,0,0-.59.15.68.68,0,0,0-.19.56v2.92h1.62a1.62,1.62,0,0,0,1.32-.63,1.94,1.94,0,0,0,.46-1.29A1.65,1.65,0,0,0,45.81,134.32Z" transform="translate(-25.64 -33.73)" fill="#221e1f"/>
  <path d="M47,176.62a2.38,2.38,0,0,1-.48.39,1.19,1.19,0,0,1-.62.16,1.24,1.24,0,0,1-.88-.37,3,3,0,0,1-.6-.91,2.74,2.74,0,0,1-.53.17,2,2,0,0,1-.47.06A2.92,2.92,0,0,1,41,174.83a4.73,4.73,0,0,1-.84-2.84,4.8,4.8,0,0,1,.84-2.85,3,3,0,0,1,5,0,4.66,4.66,0,0,1,.9,2.85,5.34,5.34,0,0,1-.43,2.16,2.82,2.82,0,0,1-1.33,1.52,1.79,1.79,0,0,0,.42.62.93.93,0,0,0,.67.31,1.54,1.54,0,0,0,.4,0,2,2,0,0,0,.43-.17l.13.17Zm-1.65-7.28a2.16,2.16,0,0,0-1.93-1.21,2.2,2.2,0,0,0-1.94,1.21,5.16,5.16,0,0,0-.65,2.66,6.2,6.2,0,0,0,.2,1.57,3,3,0,0,0,.63,1.32,1,1,0,0,1,.32-.95,1.36,1.36,0,0,1,.82-.21,1.88,1.88,0,0,1,1,.31,3.41,3.41,0,0,1,1.07,1.24,2.82,2.82,0,0,0,.9-1.51,5.74,5.74,0,0,0,.26-1.77A5.07,5.07,0,0,0,45.39,169.34Zm-1.89,5a1.32,1.32,0,0,0-.81-.27.87.87,0,0,0-.48.11,1,1,0,0,0-.32.87,2.92,2.92,0,0,0,.81.62,2,2,0,0,0,.76.16,1.35,1.35,0,0,0,.43-.08,2.65,2.65,0,0,0,.44-.17A2.69,2.69,0,0,0,43.5,174.35Z" transform="translate(-25.64 -33.73)" fill="#221e1f"/>
  <g>
    <path d="M31.26,161.05a3.09,3.09,0,0,1-2.08.67H25.64v-.28a1.68,1.68,0,0,0,.83-.14.67.67,0,0,0,.22-.58v-5.87a.72.72,0,0,0-.22-.58,1.44,1.44,0,0,0-.83-.18v-.28H29a3.24,3.24,0,0,1,1.95.53,1.56,1.56,0,0,1,.69,1.33,1.49,1.49,0,0,1-.38,1,2.78,2.78,0,0,1-1.34.72,2.78,2.78,0,0,1,1.59.78,1.91,1.91,0,0,1,.48,1.34A1.93,1.93,0,0,1,31.26,161.05Zm-.87-6.46a2,2,0,0,0-1.44-.5H28.3a1.11,1.11,0,0,0-.7.18.75.75,0,0,0-.21.58v2.52H29a1.84,1.84,0,0,0,1.36-.58,1.65,1.65,0,0,0,.53-1.19A1.34,1.34,0,0,0,30.39,154.59Zm.24,3.64a2.14,2.14,0,0,0-1.51-.58H27.39v3.07a.68.68,0,0,0,.21.58,1.26,1.26,0,0,0,.7.14h.75a2.19,2.19,0,0,0,1.6-.59,1.71,1.71,0,0,0,.56-1.3A1.75,1.75,0,0,0,30.63,158.23Z" transform="translate(-25.64 -33.73)"/>
    <path d="M34.76,153.13h1.1l-2.3,3.08Z" transform="translate(-25.64 -33.73)"/>
  </g>
  <polyline points="23 142.91 31.51 142.91 31.51 151.41" fill="none" stroke="#221e1f" stroke-miterlimit="10" stroke-width="0.4"/>
  <polyline points="159.01 143.43 150.51 143.43 150.51 151.93" fill="none" stroke="#221e1f" stroke-miterlimit="10" stroke-width="0.4"/>
  <polyline points="22.98 24.89 31.48 24.89 31.48 16.39" fill="none" stroke="#221e1f" stroke-miterlimit="10" stroke-width="0.4"/>
  <polyline points="158.99 24.38 150.48 24.38 150.48 15.87" fill="none" stroke="#221e1f" stroke-miterlimit="10" stroke-width="0.4"/>
  <polyline points="97.7 20.97 92.6 27.78 85.8 22.67" fill="none" stroke="#221e1f" stroke-miterlimit="10" stroke-width="0.4"/>
  <polyline points="14.58 117.69 21.38 122.79 16.28 129.59" fill="none" stroke="#221e1f" stroke-miterlimit="10" stroke-width="0.4"/>
  <g>
    <path d="M160,72.7l.49.39" transform="translate(-25.64 -33.73)" fill="none" stroke="#221e1f" stroke-miterlimit="10" stroke-width="0.4"/>
    <path d="M161.15,73.64C173.93,84,183,94.09,184.48,99.57" transform="translate(-25.64 -33.73)" fill="none" stroke="#221e1f" stroke-miterlimit="10" stroke-width="0.4" stroke-dasharray="1.21 0.88"/>
    <path d="M184.58,100a4.83,4.83,0,0,1,.1.61" transform="translate(-25.64 -33.73)" fill="none" stroke="#221e1f" stroke-miterlimit="10" stroke-width="0.4"/>
  </g>
  <g>
    <path d="M116.72,49.65a5.63,5.63,0,0,1,.61-.08" transform="translate(-25.64 -33.73)" fill="none" stroke="#221e1f" stroke-miterlimit="10" stroke-width="0.4"/>
    <path d="M118.21,49.56c5.68.21,17,5.63,29.74,14.26" transform="translate(-25.64 -33.73)" fill="none" stroke="#221e1f" stroke-miterlimit="10" stroke-width="0.4" stroke-dasharray="1.22 0.89"/>
    <path d="M148.32,64.07l.51.35" transform="translate(-25.64 -33.73)" fill="none" stroke="#221e1f" stroke-miterlimit="10" stroke-width="0.4"/>
  </g>
  <g>
    <path d="M195.86,71.08l-.06-.62" transform="translate(-25.64 -33.73)" fill="none" stroke="#221e1f" stroke-miterlimit="10" stroke-width="0.4"/>
    <path d="M195.71,69.58c-1.11-9.46-5-17-10-19.6" transform="translate(-25.64 -33.73)" fill="none" stroke="#221e1f" stroke-miterlimit="10" stroke-width="0.4" stroke-dasharray="1.22 0.89"/>
    <path d="M185.28,49.79l-.57-.24" transform="translate(-25.64 -33.73)" fill="none" stroke="#221e1f" stroke-miterlimit="10" stroke-width="0.4"/>
  </g>
  <g>
    <path d="M184.68,100.63a4.87,4.87,0,0,0,.57-.24" transform="translate(-25.64 -33.73)" fill="none" stroke="#221e1f" stroke-miterlimit="10" stroke-width="0.4"/>
    <path d="M186.07,100c4.66-2.67,8.29-9.65,9.51-18.4" transform="translate(-25.64 -33.73)" fill="none" stroke="#221e1f" stroke-miterlimit="10" stroke-width="0.4" stroke-dasharray="1.26 0.92"/>
    <path d="M195.64,81.12c0-.2.05-.41.08-.61" transform="translate(-25.64 -33.73)" fill="none" stroke="#221e1f" stroke-miterlimit="10" stroke-width="0.4"/>
  </g>
  <g>
    <path d="M195.94,138.49c0-.21,0-.41,0-.62" transform="translate(-25.64 -33.73)" fill="none" stroke="#221e1f" stroke-miterlimit="10" stroke-width="0.4"/>
    <path d="M195.88,137c-.79-17.27-4.91-31.27-10.32-35.75" transform="translate(-25.64 -33.73)" fill="none" stroke="#221e1f" stroke-miterlimit="10" stroke-width="0.4" stroke-dasharray="1.24 0.9"/>
    <path d="M185.21,101a5.62,5.62,0,0,0-.5-.35" transform="translate(-25.64 -33.73)" fill="none" stroke="#221e1f" stroke-miterlimit="10" stroke-width="0.4"/>
  </g>
  <g>
    <path d="M184.68,185.54a4.59,4.59,0,0,0,.51-.35" transform="translate(-25.64 -33.73)" fill="none" stroke="#221e1f" stroke-miterlimit="10" stroke-width="0.4"/>
    <path d="M185.88,184.63c5.28-4.78,9.27-18.7,10-35.76" transform="translate(-25.64 -33.73)" fill="none" stroke="#221e1f" stroke-miterlimit="10" stroke-width="0.4" stroke-dasharray="1.23 0.89"/>
    <path d="M195.92,148.41c0-.2,0-.41,0-.62" transform="translate(-25.64 -33.73)" fill="none" stroke="#221e1f" stroke-miterlimit="10" stroke-width="0.4"/>
  </g>
  <g>
    <path d="M143.86,38.36l-.62,0" transform="translate(-25.64 -33.73)" fill="none" stroke="#221e1f" stroke-miterlimit="10" stroke-width="0.4"/>
    <path d="M142.33,38.5c-12.14,1.23-21.76,5.07-25.07,10" transform="translate(-25.64 -33.73)" fill="none" stroke="#221e1f" stroke-miterlimit="10" stroke-width="0.4" stroke-dasharray="1.25 0.91"/>
    <path d="M117,48.86q-.17.27-.3.54" transform="translate(-25.64 -33.73)" fill="none" stroke="#221e1f" stroke-miterlimit="10" stroke-width="0.4"/>
  </g>
  <g>
    <path d="M184.63,49.42q-.13-.27-.3-.54" transform="translate(-25.64 -33.73)" fill="none" stroke="#221e1f" stroke-miterlimit="10" stroke-width="0.4"/>
    <path d="M183.83,48.14c-3.52-4.75-13-8.44-24.83-9.64" transform="translate(-25.64 -33.73)" fill="none" stroke="#221e1f" stroke-miterlimit="10" stroke-width="0.4" stroke-dasharray="1.23 0.9"/>
    <path d="M158.54,38.45l-.61-.05" transform="translate(-25.64 -33.73)" fill="none" stroke="#221e1f" stroke-miterlimit="10" stroke-width="0.4"/>
  </g>
  <path d="M150.9,41.08h-4.1v-.26L149,38.31c.17-.2.31-.38.43-.55a5,5,0,0,0,.38-.6,3.58,3.58,0,0,0,.25-.63,2.22,2.22,0,0,0,.11-.65,2.29,2.29,0,0,0-.09-.66,1.72,1.72,0,0,0-.27-.58,1.46,1.46,0,0,0-.5-.43,1.44,1.44,0,0,0-.62-.13,1.53,1.53,0,0,0-.94.3,1.75,1.75,0,0,0-.56.82h.14a.57.57,0,0,1,.42.15.55.55,0,0,1,.18.43.58.58,0,0,1-.17.41.56.56,0,0,1-.4.17.58.58,0,0,1-.45-.18.65.65,0,0,1-.15-.44A2,2,0,0,1,147,35a2.11,2.11,0,0,1,.41-.61,1.77,1.77,0,0,1,.68-.48,2,2,0,0,1,.82-.16,2.86,2.86,0,0,1,.89.14,2.49,2.49,0,0,1,.79.46,2,2,0,0,1,.5.7,2.15,2.15,0,0,1,.17.85,2.11,2.11,0,0,1-.13.77,2.29,2.29,0,0,1-.41.67,8.47,8.47,0,0,1-.6.6c-.12.13-.33.32-.61.57l-.62.6-1.17,1.14h2.54a1,1,0,0,0,.42-.08.75.75,0,0,0,.18-.35l.09-.46,0-.18h.28Z" transform="translate(-25.64 -33.73)"/>
  <path d="M156.41,38.82a4.19,4.19,0,0,1-.33,1.21,2.21,2.21,0,0,1-.78.94,2,2,0,0,1-1.14.35,2,2,0,0,1-.77-.15,2,2,0,0,1-.64-.41,2.88,2.88,0,0,1-.76-1.5,8.35,8.35,0,0,1-.15-1.71A8.76,8.76,0,0,1,152,35.9a3.08,3.08,0,0,1,.68-1.5,1.79,1.79,0,0,1,.68-.5,2.07,2.07,0,0,1,.84-.17,1.83,1.83,0,0,1,.77.16,2.24,2.24,0,0,1,.66.44,2.79,2.79,0,0,1,.73,1.49,7.84,7.84,0,0,1,.16,1.73A8.83,8.83,0,0,1,156.41,38.82Zm-.85-2.5a8.34,8.34,0,0,0-.08-.89,1.83,1.83,0,0,0-.27-.82,1.56,1.56,0,0,0-.45-.47,1.19,1.19,0,0,0-.6-.17,1.24,1.24,0,0,0-.63.17,1.32,1.32,0,0,0-.43.47,2,2,0,0,0-.27.85c0,.24-.05.54-.06.89s0,.74,0,1.13,0,.75,0,1.12a6.88,6.88,0,0,0,.06.92,2.7,2.7,0,0,0,.27.88,1.71,1.71,0,0,0,.43.49,1.22,1.22,0,0,0,.63.19,1,1,0,0,0,.63-.21,1.53,1.53,0,0,0,.46-.51,2.87,2.87,0,0,0,.22-.86c0-.23.06-.53.08-.9s0-.76,0-1.15,0-.76,0-1.15Z" transform="translate(-25.64 -33.73)"/>
  <path d="M195.26,78.59h-1.79l-.89,0v-.34h.53a1.56,1.56,0,0,0,.61-.08.44.44,0,0,0,.24-.45V72.05a2.91,2.91,0,0,1-.59.2,5.77,5.77,0,0,1-.62.09h-.24V72h.37a3.66,3.66,0,0,0,.56-.1,2.55,2.55,0,0,0,.53-.18,2.9,2.9,0,0,0,.29-.19,2.75,2.75,0,0,0,.26-.22h.26v6.47c0,.24.08.39.23.45a1.68,1.68,0,0,0,.63.08h.52v.34Z" transform="translate(-25.64 -33.73)"/>
  <path d="M201.57,77.36a2.49,2.49,0,0,1-.52.81,2.77,2.77,0,0,1-.78.51,2.4,2.4,0,0,1-.92.19,1.92,1.92,0,0,1-1.44-.65,1.76,1.76,0,0,1-.41-.63,2.06,2.06,0,0,1-.14-.73.61.61,0,0,1,.14-.42.53.53,0,0,1,.41-.17.56.56,0,0,1,.39.14.52.52,0,0,1,.16.4.54.54,0,0,1-.17.4.55.55,0,0,1-.38.15h-.11l-.08,0a1.16,1.16,0,0,0,.21.47,1.48,1.48,0,0,0,.36.39,1.83,1.83,0,0,0,.49.27,1.55,1.55,0,0,0,.56.11,1.19,1.19,0,0,0,.68-.21,1.62,1.62,0,0,0,.5-.51,2.15,2.15,0,0,0,.23-.74c0-.2,0-.47,0-.78a6.16,6.16,0,0,0,0-.7,2.18,2.18,0,0,0-.18-.68,1.38,1.38,0,0,0-.36-.51,1,1,0,0,0-.57-.2,1.74,1.74,0,0,0-.53.07,1.69,1.69,0,0,0-.56.33,1.07,1.07,0,0,0-.22.2l-.11.15a.45.45,0,0,1-.06.09.12.12,0,0,1-.09,0c-.08,0-.13,0-.15-.07a.59.59,0,0,1,0-.17v-3.3a1,1,0,0,1,0-.25s.11,0,.23,0a3.28,3.28,0,0,0,.71.23,3.74,3.74,0,0,0,.75.07l.49,0a5,5,0,0,0,.56-.11l.37-.16.18-.06a.16.16,0,0,1,.09,0,.16.16,0,0,1,0,.1,1.22,1.22,0,0,1-.25.35,2.77,2.77,0,0,1-.29.25v0a2.85,2.85,0,0,1-.76.38,2.63,2.63,0,0,1-.83.14,2.59,2.59,0,0,1-.47,0,2.88,2.88,0,0,1-.46-.09v2.15a2.27,2.27,0,0,1,.31-.25,1.73,1.73,0,0,1,.33-.17,2.26,2.26,0,0,1,.37-.11,2.38,2.38,0,0,1,.39,0,2,2,0,0,1,.82.18,2.16,2.16,0,0,1,.68.53,2.6,2.6,0,0,1,.44.8,2.75,2.75,0,0,1,.16.9A2.38,2.38,0,0,1,201.57,77.36Z" transform="translate(-25.64 -33.73)"/>
  <path d="M153.91,72.68h-4.1v-.26l2.24-2.51c.17-.2.31-.38.43-.55a5,5,0,0,0,.38-.6,3.92,3.92,0,0,0,.25-.63,2.22,2.22,0,0,0,.11-.65,2.29,2.29,0,0,0-.09-.66,1.72,1.72,0,0,0-.27-.58,1.46,1.46,0,0,0-.5-.43,1.44,1.44,0,0,0-.62-.13,1.53,1.53,0,0,0-.94.3,1.68,1.68,0,0,0-.56.82h.14a.57.57,0,0,1,.42.15.55.55,0,0,1,.18.43.58.58,0,0,1-.17.41.57.57,0,0,1-.41.17.57.57,0,0,1-.44-.18.65.65,0,0,1-.15-.44,2,2,0,0,1,.15-.75,2.11,2.11,0,0,1,.41-.61,1.91,1.91,0,0,1,.68-.49,2.21,2.21,0,0,1,.82-.15,2.86,2.86,0,0,1,.89.14,2.31,2.31,0,0,1,.79.46,2,2,0,0,1,.5.7,2.27,2.27,0,0,1,0,1.62,2.29,2.29,0,0,1-.41.67,8.47,8.47,0,0,1-.6.6c-.12.13-.33.32-.61.57l-.62.6-1.18,1.14h2.55a1,1,0,0,0,.42-.08.75.75,0,0,0,.18-.35l.09-.46,0-.18h.28Z" transform="translate(-25.64 -33.73)"/>
  <path d="M159.18,71.41a2.76,2.76,0,0,1-.53.81,2.49,2.49,0,0,1-.77.5,2.28,2.28,0,0,1-.92.2,2,2,0,0,1-1.44-.65,1.89,1.89,0,0,1-.41-.64,2,2,0,0,1-.14-.73.64.64,0,0,1,.14-.42.53.53,0,0,1,.41-.16.56.56,0,0,1,.39.14.57.57,0,0,1,0,.8.55.55,0,0,1-.38.15h-.11l-.08,0a1.29,1.29,0,0,0,.21.47,1.64,1.64,0,0,0,.36.39,2.34,2.34,0,0,0,.49.27,1.54,1.54,0,0,0,.56.1,1.18,1.18,0,0,0,.68-.2,1.56,1.56,0,0,0,.5-.52,2.1,2.1,0,0,0,.22-.73,5.61,5.61,0,0,0,.05-.79,5.88,5.88,0,0,0,0-.7,2.19,2.19,0,0,0-.17-.67,1.3,1.3,0,0,0-.37-.51.87.87,0,0,0-.57-.21,1.67,1.67,0,0,0-.52.08,1.43,1.43,0,0,0-.56.32,1.49,1.49,0,0,0-.22.21,1,1,0,0,0-.11.15l-.06.08a.1.1,0,0,1-.09,0,.14.14,0,0,1-.15-.08.51.51,0,0,1,0-.16V65.61a1,1,0,0,1,0-.24s.11,0,.23,0a3.26,3.26,0,0,0,.71.22,3.67,3.67,0,0,0,.75.08l.49,0a5.46,5.46,0,0,0,.56-.11l.36-.16.19-.07a.1.1,0,0,1,.08,0s0,.06,0,.09a1.24,1.24,0,0,1-.25.36l-.29.25v0a2.82,2.82,0,0,1-.76.37,2.37,2.37,0,0,1-.83.14,2.49,2.49,0,0,1-.47,0,2.3,2.3,0,0,1-.47-.1v2.16a2.16,2.16,0,0,1,.32-.25,1,1,0,0,1,.33-.17,1.58,1.58,0,0,1,.37-.11,2.38,2.38,0,0,1,.39,0,1.88,1.88,0,0,1,.81.18,1.93,1.93,0,0,1,.68.53,2.41,2.41,0,0,1,.44.8,2.44,2.44,0,0,1,.17.9A2.38,2.38,0,0,1,159.18,71.41Z" transform="translate(-25.64 -33.73)"/>
  <path d="M195.63,146.52h-4.1v-.26l2.24-2.51c.17-.2.31-.38.43-.55a5,5,0,0,0,.38-.6,3.92,3.92,0,0,0,.25-.63,2.19,2.19,0,0,0,0-1.31,1.72,1.72,0,0,0-.27-.58,1.46,1.46,0,0,0-.5-.43,1.44,1.44,0,0,0-.62-.13,1.53,1.53,0,0,0-.94.3,1.68,1.68,0,0,0-.56.82h.14a.57.57,0,0,1,.42.15.55.55,0,0,1,.18.43.58.58,0,0,1-.17.41.57.57,0,0,1-.41.17.57.57,0,0,1-.44-.18.67.67,0,0,1-.15-.44,2,2,0,0,1,.15-.75,2.11,2.11,0,0,1,.41-.61,1.91,1.91,0,0,1,.68-.49,2.18,2.18,0,0,1,.82-.15,2.86,2.86,0,0,1,.89.14,2.16,2.16,0,0,1,.79.46,2.1,2.1,0,0,1,.5.69,2.2,2.2,0,0,1,.17.86,2.11,2.11,0,0,1-.13.77,2.42,2.42,0,0,1-.41.67,8.47,8.47,0,0,1-.6.6l-.61.57-.62.6-1.18,1.14h2.55a1,1,0,0,0,.42-.08.75.75,0,0,0,.18-.35l.09-.46,0-.18h.28Z" transform="translate(-25.64 -33.73)"/>
  <path d="M200.9,145.25a2.59,2.59,0,0,1-.53.8,2.35,2.35,0,0,1-.77.51,2.26,2.26,0,0,1-.92.19,1.8,1.8,0,0,1-.8-.17,1.83,1.83,0,0,1-.64-.47,1.89,1.89,0,0,1-.41-.64,2,2,0,0,1-.14-.73.64.64,0,0,1,.14-.42.53.53,0,0,1,.41-.16.56.56,0,0,1,.39.14.57.57,0,0,1,0,.8.55.55,0,0,1-.38.15h-.11l-.09,0a1.47,1.47,0,0,0,.22.48,1.64,1.64,0,0,0,.36.39,2.34,2.34,0,0,0,.49.27,1.54,1.54,0,0,0,.56.1,1.26,1.26,0,0,0,.68-.2,1.56,1.56,0,0,0,.5-.52,2.17,2.17,0,0,0,.22-.73,5.61,5.61,0,0,0,.05-.79,5.88,5.88,0,0,0,0-.7,2.26,2.26,0,0,0-.17-.68,1.34,1.34,0,0,0-.37-.5.87.87,0,0,0-.57-.21,1.67,1.67,0,0,0-.52.08,1.55,1.55,0,0,0-.57.32l-.21.21a1,1,0,0,0-.11.15l-.06.08a.1.1,0,0,1-.09,0,.14.14,0,0,1-.15-.08.51.51,0,0,1,0-.16v-3.31a.9.9,0,0,1,0-.24s.11,0,.23,0a3.26,3.26,0,0,0,.71.22,3.67,3.67,0,0,0,.75.08l.49,0,.56-.11.36-.16.19-.07a.13.13,0,0,1,.08,0,.13.13,0,0,1,0,.1,1.24,1.24,0,0,1-.25.36,2.84,2.84,0,0,1-.29.24v0a2.82,2.82,0,0,1-.76.37,2.37,2.37,0,0,1-.83.14,2.49,2.49,0,0,1-.47,0,2.3,2.3,0,0,1-.47-.1v2.16a2.16,2.16,0,0,1,.32-.25,1,1,0,0,1,.33-.17,1.58,1.58,0,0,1,.37-.11,2.38,2.38,0,0,1,.39,0,1.88,1.88,0,0,1,.81.18,1.93,1.93,0,0,1,.68.53,2.36,2.36,0,0,1,.44.79,2.53,2.53,0,0,1,.17.91A2.38,2.38,0,0,1,200.9,145.25Z" transform="translate(-25.64 -33.73)"/>
</svg>
