<svg id="레이어_1" data-name="레이어 1" xmlns="http://www.w3.org/2000/svg" width="198.79" height="183.04" viewBox="0 0 198.79 183.04">
  <path d="M44.75,30.75a4,4,0,0,1-.61,1.05,3.28,3.28,0,0,1-.8.7,1.91,1.91,0,0,1-1,.31,1,1,0,0,1-.6-.18,1.44,1.44,0,0,1-.41-.53c-.11.38-.2.71-.27,1s-.18.74-.24,1a.69.69,0,0,0,0,.25c0,.06.1.09.23.1h.35l.16,0a.11.11,0,0,1,.08.11.23.23,0,0,1-.05.16.18.18,0,0,1-.15.07l-.52,0-.58,0-.47,0-.45,0a.16.16,0,0,1-.11-.05.19.19,0,0,1,0-.09c0-.09,0-.15.08-.18a.36.36,0,0,1,.18,0l.28,0a.26.26,0,0,0,.2-.13.67.67,0,0,0,.09-.23l0-.08,1.24-4.9a2.19,2.19,0,0,0,.08-.67c0-.27-.13-.4-.35-.4a.45.45,0,0,0-.28.09.59.59,0,0,0-.19.26,1.66,1.66,0,0,0-.17.42,4,4,0,0,0-.17.55v0a.75.75,0,0,1,0,.15.15.15,0,0,1-.13.06c-.07,0-.11,0-.13-.06a.36.36,0,0,1,0-.14v0c.06-.25.11-.44.16-.58a2.73,2.73,0,0,1,.24-.54.9.9,0,0,1,.31-.33.82.82,0,0,1,.44-.11,1,1,0,0,1,.64.21,1,1,0,0,1,.35.6,3,3,0,0,1,.64-.58,1.5,1.5,0,0,1,.8-.23,1.28,1.28,0,0,1,1.08.54A2,2,0,0,1,45,29.58,3,3,0,0,1,44.75,30.75Zm-.7-2.35a.59.59,0,0,0-.56-.34A1.86,1.86,0,0,0,42,29.26c-.08.28-.18.68-.31,1.18s-.26,1-.28,1.14a1.54,1.54,0,0,0,.29.7.69.69,0,0,0,.58.29,1.17,1.17,0,0,0,.81-.39,2.34,2.34,0,0,0,.52-.75A6.86,6.86,0,0,0,44,30.29a5,5,0,0,0,.21-1.19A1.45,1.45,0,0,0,44.05,28.4Z" transform="translate(-13.96 -21.87)"/>
  <rect x="0.18" y="0.18" width="57.57" height="14.02" fill="none"/>
  <path d="M101.08,34.07l0,.07a.47.47,0,0,0,0,.22c0,.06.09.1.22.11h.33l.16,0c.07,0,.1,0,.1.11a.23.23,0,0,1,0,.16.18.18,0,0,1-.15.07l-.61,0h-.52l-.56,0-.55,0a.11.11,0,0,1-.1,0,.09.09,0,0,1,0-.08.25.25,0,0,1,.06-.2.36.36,0,0,1,.19,0l.37,0a.55.55,0,0,0,.29-.1.53.53,0,0,0,.14-.25c.06-.22.12-.48.19-.77s.11-.44.2-.78l.1-.43a2.48,2.48,0,0,1-.59.47,1.47,1.47,0,0,1-.71.2,1.29,1.29,0,0,1-1.1-.56A2,2,0,0,1,98.06,31a3.31,3.31,0,0,1,.22-1.17,3.23,3.23,0,0,1,.62-1,2.73,2.73,0,0,1,.79-.7,2,2,0,0,1,1-.3,1,1,0,0,1,.62.21,1.48,1.48,0,0,1,.4.55,2,2,0,0,1,.27-.37,1.93,1.93,0,0,1,.33-.32.26.26,0,0,1,.15-.07c.08,0,.11,0,.11.11Zm.25-5.7a.85.85,0,0,0-.61-.31,1.2,1.2,0,0,0-.85.44,2.67,2.67,0,0,0-.53.83A9.14,9.14,0,0,0,99,30.4a5.6,5.6,0,0,0-.17,1.13,1.6,1.6,0,0,0,.14.69.58.58,0,0,0,.56.35,1.33,1.33,0,0,0,.81-.34,2.08,2.08,0,0,0,.59-.68s.13-.42.34-1.19a11,11,0,0,0,.31-1.33A1,1,0,0,0,101.33,28.37Z" transform="translate(-13.96 -21.87)"/>
  <rect x="57.75" y="0.18" width="57.69" height="14.02" fill="none"/>
  <path d="M147.78,29.49a.54.54,0,0,1-.22,0h-5.77a.6.6,0,0,1-.23,0,.16.16,0,0,1-.1-.16.19.19,0,0,1,.11-.19l.23,0h5.75l.22,0a.19.19,0,0,1,.12.19A.15.15,0,0,1,147.78,29.49Z" transform="translate(-13.96 -21.87)"/>
  <path d="M152.91,25.26a5.34,5.34,0,0,0-.49,1.18,6.8,6.8,0,0,0-.26,1.24,10.64,10.64,0,0,0-.08,1.29,11.78,11.78,0,0,0,.06,1.23,7.16,7.16,0,0,0,.24,1.19,5.39,5.39,0,0,0,.49,1.2,5,5,0,0,0,.76,1c.12.11.17.21.14.28s-.12,0-.27-.09a4.24,4.24,0,0,1-.77-.8,6.06,6.06,0,0,1-.58-1,6.32,6.32,0,0,1-.51-1.52A8.15,8.15,0,0,1,151.5,29a7.77,7.77,0,0,1,.14-1.55,6.41,6.41,0,0,1,.48-1.48,5.35,5.35,0,0,1,.58-1,4.06,4.06,0,0,1,.79-.84c.14-.1.24-.13.29-.09s0,.11-.11.23A5,5,0,0,0,152.91,25.26Z" transform="translate(-13.96 -21.87)"/>
  <path d="M158.9,31a3.45,3.45,0,0,1-.55.94,2.88,2.88,0,0,1-.73.63,1.66,1.66,0,0,1-.9.28.89.89,0,0,1-.54-.16,1.23,1.23,0,0,1-.37-.48c-.1.34-.18.64-.25.88s-.16.68-.21,1a.53.53,0,0,0,0,.22s.09.08.21.09h.32c.06,0,.11,0,.13,0a.09.09,0,0,1,.08.09.21.21,0,0,1-.05.15.14.14,0,0,1-.13.06l-.47,0-.53,0-.41,0-.41,0a.13.13,0,0,1-.1,0,.19.19,0,0,1,0-.09c0-.08,0-.13.07-.15a.32.32,0,0,1,.16,0l.26,0a.23.23,0,0,0,.18-.12.57.57,0,0,0,.08-.2l0-.08,1.12-4.42a2,2,0,0,0,.07-.6c0-.24-.12-.36-.32-.36a.43.43,0,0,0-.25.07.55.55,0,0,0-.17.24,2,2,0,0,0-.16.38c0,.14-.1.3-.15.49v0l0,.14a.14.14,0,0,1-.12.06c-.07,0-.1,0-.12-.06a.72.72,0,0,1,0-.13v0a3.86,3.86,0,0,1,.15-.52,2.49,2.49,0,0,1,.21-.49.86.86,0,0,1,.28-.29.77.77,0,0,1,.39-.11.94.94,0,0,1,.59.2.87.87,0,0,1,.31.54,2.44,2.44,0,0,1,.58-.52,1.29,1.29,0,0,1,.72-.22,1.14,1.14,0,0,1,1,.5,1.73,1.73,0,0,1,.34,1.09A2.9,2.9,0,0,1,158.9,31Zm-.63-2.13a.54.54,0,0,0-.51-.3,1.31,1.31,0,0,0-.79.35,1.35,1.35,0,0,0-.52.73c-.07.25-.17.61-.28,1.06s-.24.9-.26,1a1.5,1.5,0,0,0,.27.64.64.64,0,0,0,.52.26,1,1,0,0,0,.73-.36,2.31,2.31,0,0,0,.47-.67,7.17,7.17,0,0,0,.32-1,4.75,4.75,0,0,0,.18-1.08A1.34,1.34,0,0,0,158.27,28.82Z" transform="translate(-13.96 -21.87)"/>
  <path d="M168,29.54a.6.6,0,0,1-.23,0H165v2.77a.54.54,0,0,1,0,.22.14.14,0,0,1-.14.12c-.1,0-.16,0-.19-.1a.51.51,0,0,1,0-.21v-2.8h-2.79a.63.63,0,0,1-.23,0,.2.2,0,0,1,0-.35l.23,0h2.76V26.4a.66.66,0,0,1,0-.23.2.2,0,0,1,.19-.11.15.15,0,0,1,.16.1.57.57,0,0,1,0,.22v2.79h2.78l.23,0a.17.17,0,0,1,.11.18A.17.17,0,0,1,168,29.54Z" transform="translate(-13.96 -21.87)"/>
  <path d="M173.66,33.94l0,.06a.55.55,0,0,0,0,.2s.09.09.2.1h.3a.32.32,0,0,1,.15,0,.08.08,0,0,1,.08.09.28.28,0,0,1,0,.15.18.18,0,0,1-.14.06l-.56,0h-.46l-.51,0-.49,0a.13.13,0,0,1-.1,0,.11.11,0,0,1,0-.08c0-.09,0-.15.05-.17a.32.32,0,0,1,.17,0l.33,0a.48.48,0,0,0,.27-.09A.45.45,0,0,0,173,34c.06-.21.11-.44.18-.7s.1-.4.17-.7l.1-.39a2.22,2.22,0,0,1-.53.42,1.32,1.32,0,0,1-.64.18,1.17,1.17,0,0,1-1-.5,1.89,1.89,0,0,1-.32-1.09,2.9,2.9,0,0,1,.21-1.06,3.06,3.06,0,0,1,.55-.94,2.37,2.37,0,0,1,.72-.63,1.7,1.7,0,0,1,.92-.28.88.88,0,0,1,.57.2,1.36,1.36,0,0,1,.36.49,1.33,1.33,0,0,1,.24-.33,2,2,0,0,1,.3-.29.27.27,0,0,1,.14-.07.1.1,0,0,1,.1.11Zm.23-5.14a.74.74,0,0,0-.56-.28,1,1,0,0,0-.76.4,2.3,2.3,0,0,0-.48.74,9.63,9.63,0,0,0-.29,1,4.48,4.48,0,0,0-.16,1,1.32,1.32,0,0,0,.13.62.54.54,0,0,0,.5.32,1.24,1.24,0,0,0,.73-.31,1.92,1.92,0,0,0,.54-.61s.11-.38.3-1.08a9.7,9.7,0,0,0,.28-1.2A.91.91,0,0,0,173.89,28.8Z" transform="translate(-13.96 -21.87)"/>
  <path d="M178.52,30.68a6.46,6.46,0,0,1-.5,1.52,6.36,6.36,0,0,1-.59.94,4.3,4.3,0,0,1-.75.81c-.17.12-.26.15-.29.08s0-.16.14-.28a4.69,4.69,0,0,0,.77-1,6.45,6.45,0,0,0,.47-1.18,9.41,9.41,0,0,0,.26-1.22,9.74,9.74,0,0,0,.08-1.22,9.11,9.11,0,0,0-.09-1.29,6.8,6.8,0,0,0-.26-1.24,5.57,5.57,0,0,0-.5-1.17,4.86,4.86,0,0,0-.76-1q-.18-.18-.12-.24t.3.09a4.32,4.32,0,0,1,.77.84,5.88,5.88,0,0,1,.6,1,6.64,6.64,0,0,1,.47,1.49,7.08,7.08,0,0,1,.16,1.55A7.36,7.36,0,0,1,178.52,30.68Z" transform="translate(-13.96 -21.87)"/>
  <path d="M190,28.57a.51.51,0,0,1-.22,0h-6a.6.6,0,0,1-.23,0,.17.17,0,0,1-.1-.18.16.16,0,0,1,.11-.17l.23,0h5.94l.22,0a.16.16,0,0,1,.12.17A.17.17,0,0,1,190,28.57Zm0,1.92a.51.51,0,0,1-.22,0h-6a.6.6,0,0,1-.23,0c-.07,0-.1-.08-.1-.17a.18.18,0,0,1,.11-.18l.23,0h5.94l.22,0a.17.17,0,0,1,.12.18A.16.16,0,0,1,190,30.49Z" transform="translate(-13.96 -21.87)"/>
  <path d="M199.31,29.34a.5.5,0,0,1-.4.19.37.37,0,0,1-.27-.09.33.33,0,0,1-.11-.26.48.48,0,0,1,.18-.38.58.58,0,0,1,.39-.16.31.31,0,0,0-.15-.1.59.59,0,0,0-.2,0,1.07,1.07,0,0,0-.49.12,3.33,3.33,0,0,0-.48.38l-.38.36-.46.47a3.49,3.49,0,0,1-.46.36,4.21,4.21,0,0,1,.55.09,2.38,2.38,0,0,1,.51.22.9.9,0,0,1,.33.37.88.88,0,0,1,.08.49l0,.25,0,.2a1.34,1.34,0,0,0,0,.48.29.29,0,0,0,.3.28.66.66,0,0,0,.56-.41,3.23,3.23,0,0,0,.27-.72l0-.08,0-.1q0-.08,0-.09l.1,0c.06,0,.09,0,.1.06a.31.31,0,0,1,0,.13,3.3,3.3,0,0,1-.37,1,.89.89,0,0,1-.76.49.86.86,0,0,1-.36-.07.84.84,0,0,1-.49-.51,1.31,1.31,0,0,1-.06-.41v-.14a1,1,0,0,0,0-.12l0-.2a.76.76,0,0,0,0-.26.67.67,0,0,0-.12-.24,1.12,1.12,0,0,0-.46-.32,2.31,2.31,0,0,0-.56-.12L196,31c-.08.32-.13.55-.17.71s-.13.51-.19.71a.57.57,0,0,1-.14.28.32.32,0,0,1-.29.1c-.14,0-.22-.08-.24-.17a.93.93,0,0,1,0-.31l1.44-5.74v0a.69.69,0,0,0,0-.16c0-.07,0-.11-.07-.13a.29.29,0,0,0-.14,0h-.31a.26.26,0,0,1-.14,0,.09.09,0,0,1-.07-.1.28.28,0,0,1,0-.16.42.42,0,0,1,.14-.05l.61-.06.61,0a.13.13,0,0,1,.09,0,.08.08,0,0,1,0,.08l-1,4.21a1.9,1.9,0,0,0,.52-.35,5.48,5.48,0,0,0,.47-.48l.28-.29a3.32,3.32,0,0,1,.6-.49,1.33,1.33,0,0,1,.69-.19.71.71,0,0,1,.46.16.56.56,0,0,1,.22.47A.6.6,0,0,1,199.31,29.34Z" transform="translate(-13.96 -21.87)"/>
  <rect x="115.44" y="0.18" width="83.12" height="14.02" fill="none"/>
  <path d="M43.29,46.79H41.5l-.89.05v-.35h.53a1.62,1.62,0,0,0,.61-.07A.45.45,0,0,0,42,46v-5.7a2.92,2.92,0,0,1-.59.19,5.74,5.74,0,0,1-.62.1h-.23V40.2h.36a2.13,2.13,0,0,0,.56-.1A2.55,2.55,0,0,0,42,39.9l.29-.18.26-.23h.26V46a.44.44,0,0,0,.24.46,1.65,1.65,0,0,0,.62.07h.52v.35Z" transform="translate(-13.96 -21.87)"/>
  <rect x="0.18" y="14.2" width="57.57" height="14.02" fill="none"/>
  <path d="M98.71,45v1c0,.23.06.37.18.44a1.16,1.16,0,0,0,.52.07h.38v.35L99,46.79H97.54l-.75.05v-.35h.35a1.49,1.49,0,0,0,.54-.06.48.48,0,0,0,.18-.45V45H94.93v-.35l3.38-5.17a.48.48,0,0,1,.09-.1.24.24,0,0,1,.14,0,.16.16,0,0,1,.15.07.54.54,0,0,1,0,.17v5.06h1.11V45Zm-.79-4.46-2.68,4.11h2.68Z" transform="translate(-13.96 -21.87)"/>
  <path d="M104.65,45.57a2.56,2.56,0,0,1-.52.8,2.4,2.4,0,0,1-.78.51,2.22,2.22,0,0,1-.91.19,1.77,1.77,0,0,1-.8-.17,1.87,1.87,0,0,1-.65-.47,1.89,1.89,0,0,1-.41-.64,2,2,0,0,1-.14-.73.64.64,0,0,1,.14-.42.53.53,0,0,1,.41-.16.56.56,0,0,1,.39.14.51.51,0,0,1,.16.4.54.54,0,0,1-.17.4.55.55,0,0,1-.38.15h-.11l-.08,0A1.26,1.26,0,0,0,101,46a1.87,1.87,0,0,0,.36.39,2.62,2.62,0,0,0,.49.27,1.54,1.54,0,0,0,.56.1,1.26,1.26,0,0,0,.68-.2,1.56,1.56,0,0,0,.5-.52,2.16,2.16,0,0,0,.23-.73c0-.21,0-.47,0-.79a6.29,6.29,0,0,0,0-.7,2.26,2.26,0,0,0-.18-.68,1.43,1.43,0,0,0-.36-.5.91.91,0,0,0-.57-.21,1.74,1.74,0,0,0-.53.08,1.51,1.51,0,0,0-.56.32,1.11,1.11,0,0,0-.22.21l-.11.15a.32.32,0,0,1-.06.08.1.1,0,0,1-.09,0,.14.14,0,0,1-.15-.08.51.51,0,0,1,0-.16V39.77a1.07,1.07,0,0,1,0-.25.32.32,0,0,1,.23,0,3.26,3.26,0,0,0,.71.22,3.84,3.84,0,0,0,.76.08l.48,0,.56-.11.37-.16.18-.07.09,0a.18.18,0,0,1,0,.1,1.24,1.24,0,0,1-.25.36,2.84,2.84,0,0,1-.29.24v0a2.82,2.82,0,0,1-.76.37,2.37,2.37,0,0,1-.83.14,2.56,2.56,0,0,1-.47,0,2.21,2.21,0,0,1-.46-.1v2.16a1.7,1.7,0,0,1,.31-.25,1,1,0,0,1,.33-.17,1.58,1.58,0,0,1,.37-.11,2.38,2.38,0,0,1,.39,0,2,2,0,0,1,.82.18,2,2,0,0,1,.68.53,2.55,2.55,0,0,1,.44.79,2.76,2.76,0,0,1,.16.91A2.38,2.38,0,0,1,104.65,45.57Z" transform="translate(-13.96 -21.87)"/>
  <rect x="57.75" y="14.2" width="57.69" height="14.02" fill="none"/>
  <path d="M167.72,43.47a.73.73,0,0,1-.25,0h-6.39a.72.72,0,0,1-.26,0,.18.18,0,0,1-.11-.18.21.21,0,0,1,.12-.21l.26,0h6.37l.25,0a.22.22,0,0,1,.13.21A.17.17,0,0,1,167.72,43.47Z" transform="translate(-13.96 -21.87)"/>
  <path d="M173.91,45v1c0,.23.06.37.18.44a1.16,1.16,0,0,0,.52.07H175v.35l-.76-.05h-1.5l-.74.05v-.35h.35a1.42,1.42,0,0,0,.53-.06c.13-.07.19-.22.19-.45V45h-2.93v-.35l3.38-5.17a.48.48,0,0,1,.09-.1.22.22,0,0,1,.14,0,.16.16,0,0,1,.15.07.54.54,0,0,1,0,.17v5.06H175V45Zm-.79-4.46-2.68,4.11h2.68Z" transform="translate(-13.96 -21.87)"/>
  <path d="M180,45.54a2.46,2.46,0,0,1-.49.85,2.36,2.36,0,0,1-.74.5,2.11,2.11,0,0,1-.86.18,1.85,1.85,0,0,1-.87-.2,1.79,1.79,0,0,1-.67-.55,3.65,3.65,0,0,1-.63-1.44,7.67,7.67,0,0,1-.14-1.53,5.25,5.25,0,0,1,.21-1.51,3.92,3.92,0,0,1,.71-1.34,2.54,2.54,0,0,1,.87-.73,2.47,2.47,0,0,1,1.11-.28,2.25,2.25,0,0,1,.61.08,1.29,1.29,0,0,1,.45.27,1.31,1.31,0,0,1,.26.37,1.16,1.16,0,0,1,.08.47.49.49,0,0,1-.14.37.48.48,0,0,1-.36.17.46.46,0,0,1-.37-.16.48.48,0,0,1-.14-.35.46.46,0,0,1,.17-.4.85.85,0,0,1,.43-.1.83.83,0,0,0-.43-.34,1.33,1.33,0,0,0-.54-.1,1.55,1.55,0,0,0-1.12.5,2.37,2.37,0,0,0-.59,1,4.92,4.92,0,0,0-.16.73,7.18,7.18,0,0,0,0,1v.26a1.76,1.76,0,0,1,.52-.78,1.36,1.36,0,0,1,.87-.31,2.21,2.21,0,0,1,.84.17,2.4,2.4,0,0,1,.71.53,2.29,2.29,0,0,1,.47.82,2.65,2.65,0,0,1,.16.94A2.54,2.54,0,0,1,180,45.54Zm-.82-1.09a6.32,6.32,0,0,0,0-.72,1.77,1.77,0,0,0-.16-.66,1.46,1.46,0,0,0-.41-.51,1,1,0,0,0-.61-.18,1.12,1.12,0,0,0-.61.17,1.32,1.32,0,0,0-.43.49,2.06,2.06,0,0,0-.25.62,3.85,3.85,0,0,0-.06.69c0,.21,0,.41,0,.57a3.44,3.44,0,0,0,.06.58,1.79,1.79,0,0,0,.38.86,1,1,0,0,0,.84.41,1.19,1.19,0,0,0,.66-.2,1.31,1.31,0,0,0,.43-.52,2.27,2.27,0,0,0,.16-.67c0-.15,0-.38,0-.69v-.24Z" transform="translate(-13.96 -21.87)"/>
  <rect x="115.44" y="14.2" width="83.12" height="14.02" fill="none"/>
  <path d="M44.42,59.77a2.2,2.2,0,0,1-.48.68,2.35,2.35,0,0,1-.79.49,2.7,2.7,0,0,1-.9.16,2.94,2.94,0,0,1-.44,0,3.42,3.42,0,0,1-.4-.09,2.14,2.14,0,0,1-1-.58,1.44,1.44,0,0,1-.41-1,.71.71,0,0,1,.15-.48.62.62,0,0,1,.46-.17.6.6,0,0,1,.44.17.61.61,0,0,1,.18.45.59.59,0,0,1-.22.48.64.64,0,0,1-.51.13,1.51,1.51,0,0,0,.71.61,2.31,2.31,0,0,0,1,.23,1.08,1.08,0,0,0,.43-.1,1.11,1.11,0,0,0,.36-.25,1.65,1.65,0,0,0,.35-.7,3.06,3.06,0,0,0,.1-.77,2.33,2.33,0,0,0,0-.4,2.94,2.94,0,0,0,0-.35,1.61,1.61,0,0,0-.42-.79,1.12,1.12,0,0,0-.81-.29h-.52a.35.35,0,0,1-.16,0,.11.11,0,0,1-.07-.11c0-.06,0-.1,0-.12h.43l.35,0a1,1,0,0,0,.58-.34,1.52,1.52,0,0,0,.34-.59c.05-.18.08-.33.1-.44a2.42,2.42,0,0,0,0-.45,1.64,1.64,0,0,0-.07-.52,1.09,1.09,0,0,0-.28-.46.92.92,0,0,0-.35-.19,1,1,0,0,0-.36-.05,2.43,2.43,0,0,0-.38,0,2,2,0,0,0-.38.1,1.47,1.47,0,0,0-.41.22,1,1,0,0,0-.3.33h.18a.58.58,0,0,1,.38.16.48.48,0,0,1,.13.37.55.55,0,0,1-.56.56.54.54,0,0,1-.42-.16.56.56,0,0,1-.15-.41,1.29,1.29,0,0,1,.35-.88,1.88,1.88,0,0,1,.82-.49,1.51,1.51,0,0,1,.38-.1,2.75,2.75,0,0,1,.41,0,2.92,2.92,0,0,1,.73.09,2.25,2.25,0,0,1,.66.32,1.58,1.58,0,0,1,.46.47,1.14,1.14,0,0,1,.19.64,1.77,1.77,0,0,1-.13.62,2.61,2.61,0,0,1-.31.56,2.22,2.22,0,0,1-.51.45,2.44,2.44,0,0,1-.6.31,2.35,2.35,0,0,1,1,.45,2.06,2.06,0,0,1,.69.88c0,.11.06.22.08.32a1.48,1.48,0,0,1,0,.35A1.7,1.7,0,0,1,44.42,59.77Z" transform="translate(-13.96 -21.87)"/>
  <rect x="0.18" y="28.23" width="57.57" height="14.02" fill="none"/>
  <path d="M98.34,60.82H96.55l-.89,0v-.34h.53a1.56,1.56,0,0,0,.61-.08A.44.44,0,0,0,97,60V54.28a2.91,2.91,0,0,1-.59.2,5.77,5.77,0,0,1-.62.09H95.6v-.34H96a3.45,3.45,0,0,0,.56-.1,2.55,2.55,0,0,0,.53-.18,2.9,2.9,0,0,0,.29-.19,2.75,2.75,0,0,0,.26-.22h.26V60q0,.36.24.45a1.58,1.58,0,0,0,.62.08h.52v.34Z" transform="translate(-13.96 -21.87)"/>
  <path d="M104.65,59.59a2.6,2.6,0,0,1-.52.81,2.54,2.54,0,0,1-.78.5,2.23,2.23,0,0,1-.91.2,1.92,1.92,0,0,1-1.45-.65,1.85,1.85,0,0,1-.41-.63,2.07,2.07,0,0,1-.14-.74.64.64,0,0,1,.14-.42.61.61,0,0,1,.8,0,.52.52,0,0,1,.16.4.54.54,0,0,1-.17.4.55.55,0,0,1-.38.15h-.11l-.08,0A1.22,1.22,0,0,0,101,60a1.48,1.48,0,0,0,.36.39,2.15,2.15,0,0,0,.49.27,1.55,1.55,0,0,0,.56.11,1.19,1.19,0,0,0,.68-.21,1.62,1.62,0,0,0,.5-.51,2.15,2.15,0,0,0,.23-.74c0-.2,0-.47,0-.78a6.16,6.16,0,0,0,0-.7,2.18,2.18,0,0,0-.18-.68,1.38,1.38,0,0,0-.36-.51,1,1,0,0,0-.57-.2,1.74,1.74,0,0,0-.53.07,1.69,1.69,0,0,0-.56.33,1.07,1.07,0,0,0-.22.2l-.11.15s0,.07-.06.09a.12.12,0,0,1-.09,0,.14.14,0,0,1-.15-.08.47.47,0,0,1,0-.16V53.8a1,1,0,0,1,0-.25s.11,0,.23,0a3.28,3.28,0,0,0,.71.23,3.84,3.84,0,0,0,.76.07l.48,0a5,5,0,0,0,.56-.11l.37-.16.18-.06.09,0a.16.16,0,0,1,0,.1,1.22,1.22,0,0,1-.25.35,2.77,2.77,0,0,1-.29.25v0a2.85,2.85,0,0,1-.76.38,2.63,2.63,0,0,1-.83.14,2.59,2.59,0,0,1-.47-.05,3.12,3.12,0,0,1-.46-.09v2.15a2.27,2.27,0,0,1,.31-.25,1.3,1.3,0,0,1,.33-.17,1.58,1.58,0,0,1,.37-.11,2.38,2.38,0,0,1,.39,0,2,2,0,0,1,.82.18,2.16,2.16,0,0,1,.68.53,2.6,2.6,0,0,1,.44.8,2.75,2.75,0,0,1,.16.9A2.38,2.38,0,0,1,104.65,59.59Z" transform="translate(-13.96 -21.87)"/>
  <rect x="57.75" y="28.23" width="57.69" height="14.02" fill="none"/>
  <path d="M167.72,57.5a.73.73,0,0,1-.25,0h-6.39a.72.72,0,0,1-.26,0,.18.18,0,0,1-.11-.19.2.2,0,0,1,.12-.2.87.87,0,0,1,.26,0h6.37a.83.83,0,0,1,.25,0,.21.21,0,0,1,.13.2A.18.18,0,0,1,167.72,57.5Z" transform="translate(-13.96 -21.87)"/>
  <path d="M173.54,60.82h-1.79l-.89,0v-.34h.53a1.56,1.56,0,0,0,.61-.08.44.44,0,0,0,.24-.45V54.28a2.91,2.91,0,0,1-.59.2,5.77,5.77,0,0,1-.62.09h-.24v-.34h.37a3.66,3.66,0,0,0,.56-.1,2.55,2.55,0,0,0,.53-.18,2.9,2.9,0,0,0,.29-.19,2.75,2.75,0,0,0,.26-.22h.26V60c0,.24.08.39.23.45a1.68,1.68,0,0,0,.63.08h.52v.34Z" transform="translate(-13.96 -21.87)"/>
  <path d="M179.94,59.83a2,2,0,0,1-.48.67,2.45,2.45,0,0,1-.77.44,2.57,2.57,0,0,1-.86.16A2.53,2.53,0,0,1,177,61a2.21,2.21,0,0,1-.75-.38,1.8,1.8,0,0,1-.7-1.4,1.87,1.87,0,0,1,.14-.71,2.09,2.09,0,0,1,.41-.59,2.48,2.48,0,0,1,.49-.41,3.59,3.59,0,0,1,.55-.31l-.13-.09a5.47,5.47,0,0,1-.52-.36,2,2,0,0,1-.43-.53,2.25,2.25,0,0,1-.16-.41,1.51,1.51,0,0,1-.05-.42,1.72,1.72,0,0,1,.15-.72,1.47,1.47,0,0,1,.44-.58,1.8,1.8,0,0,1,.64-.41,2.19,2.19,0,0,1,.77-.13,2.44,2.44,0,0,1,.71.1,2.24,2.24,0,0,1,.65.34,1.5,1.5,0,0,1,.45.52,1.46,1.46,0,0,1,.17.68,1.44,1.44,0,0,1-.09.51,1.68,1.68,0,0,1-.27.45,3.39,3.39,0,0,1-.45.4,2.78,2.78,0,0,1-.52.35l.44.28a3,3,0,0,1,.64.49,1.8,1.8,0,0,1,.44.72,1.86,1.86,0,0,1,.07.34,1.53,1.53,0,0,1,0,.3A2,2,0,0,1,179.94,59.83Zm-.45-.85a1.1,1.1,0,0,0-.21-.36,3.26,3.26,0,0,0-.48-.41l-.61-.37-.2-.13-.6-.38a3.8,3.8,0,0,0-.61.41,1.91,1.91,0,0,0-.39.47,2.32,2.32,0,0,0-.22.49,2.07,2.07,0,0,0-.07.49,1.69,1.69,0,0,0,.13.63,1.55,1.55,0,0,0,.38.5,1.83,1.83,0,0,0,1.86.37,2.39,2.39,0,0,0,.58-.28,1.53,1.53,0,0,0,.37-.45,1.11,1.11,0,0,0,.15-.55A1.22,1.22,0,0,0,179.49,59Zm-.26-4.36a1.14,1.14,0,0,0-.34-.44,1.64,1.64,0,0,0-.5-.29,1.77,1.77,0,0,0-.56-.09,2.51,2.51,0,0,0-.55.06,1.54,1.54,0,0,0-.48.24,1.06,1.06,0,0,0-.34.36.91.91,0,0,0-.13.48.83.83,0,0,0,.16.5,1.29,1.29,0,0,0,.39.38l1.38.88a3.54,3.54,0,0,0,.44-.32,2.89,2.89,0,0,0,.35-.35,1.41,1.41,0,0,0,.22-.42,1.38,1.38,0,0,0,.08-.45A1.19,1.19,0,0,0,179.23,54.62Z" transform="translate(-13.96 -21.87)"/>
  <rect x="115.44" y="28.23" width="83.12" height="14.02" fill="none"/>
  <path d="M44.33,73.62a2.59,2.59,0,0,1-.53.8,2.29,2.29,0,0,1-.78.51,2.22,2.22,0,0,1-.91.19,1.77,1.77,0,0,1-.8-.17,2,2,0,0,1-.65-.47,2,2,0,0,1-.55-1.37.64.64,0,0,1,.14-.42.53.53,0,0,1,.41-.16.52.52,0,0,1,.39.14.51.51,0,0,1,.16.4.52.52,0,0,1-.17.4.54.54,0,0,1-.38.15.22.22,0,0,1-.1,0,.14.14,0,0,1-.09,0,1.47,1.47,0,0,0,.22.48,1.82,1.82,0,0,0,.35.39,2,2,0,0,0,.5.26,1.33,1.33,0,0,0,.56.11,1.28,1.28,0,0,0,.68-.2,1.53,1.53,0,0,0,.49-.52,2,2,0,0,0,.23-.73,5.82,5.82,0,0,0,0-.79,6.29,6.29,0,0,0,0-.7,2.6,2.6,0,0,0-.17-.68,1.59,1.59,0,0,0-.37-.5.87.87,0,0,0-.57-.21,1.78,1.78,0,0,0-.53.08,1.51,1.51,0,0,0-.56.32.84.84,0,0,0-.21.21.58.58,0,0,0-.11.15.3.3,0,0,1-.07.08.12.12,0,0,1-.08,0,.14.14,0,0,1-.15-.08.3.3,0,0,1,0-.16V67.82a.62.62,0,0,1,0-.25s.1,0,.22,0a3,3,0,0,0,.71.23,3.84,3.84,0,0,0,.76.08,3,3,0,0,0,.48,0,4.44,4.44,0,0,0,.56-.1l.37-.16.18-.07a.16.16,0,0,1,.09,0,.12.12,0,0,1,0,.1,1.24,1.24,0,0,1-.25.36,2.84,2.84,0,0,1-.29.24v0a2.91,2.91,0,0,1-.75.37,2.41,2.41,0,0,1-.83.14,2.59,2.59,0,0,1-.48,0,2.21,2.21,0,0,1-.46-.1v2.16a2.12,2.12,0,0,1,.31-.25,1,1,0,0,1,.34-.17,1.37,1.37,0,0,1,.36-.11,2.38,2.38,0,0,1,.39,0,1.92,1.92,0,0,1,.82.18,2,2,0,0,1,.68.53,2.75,2.75,0,0,1,.6,1.7A2.41,2.41,0,0,1,44.33,73.62Z" transform="translate(-13.96 -21.87)"/>
  <rect x="0.18" y="42.25" width="57.57" height="14.14" fill="none"/>
  <path d="M102.09,72.73a4.32,4.32,0,0,1-.64,1.35,2.74,2.74,0,0,1-.86.74,2.08,2.08,0,0,1-1.06.3,1.91,1.91,0,0,1-1.07-.27,1,1,0,0,1-.47-.91.52.52,0,0,1,.14-.39.46.46,0,0,1,.36-.15.5.5,0,0,1,.42.2.58.58,0,0,1,.07.47.52.52,0,0,1-.22.27.58.58,0,0,1-.33.08.81.81,0,0,0,.39.27,1.69,1.69,0,0,0,.48.12,1.47,1.47,0,0,0,.74-.12,1.54,1.54,0,0,0,.61-.45,3,3,0,0,0,.52-1.21,6.32,6.32,0,0,0,.12-1.3v-.35a1.89,1.89,0,0,1-.51.77,1.24,1.24,0,0,1-.86.32,2,2,0,0,1-.87-.19,2.07,2.07,0,0,1-.7-.52,2.4,2.4,0,0,1-.48-.82,2.82,2.82,0,0,1-.15-.92,2.93,2.93,0,0,1,.15-1,2.59,2.59,0,0,1,.55-.81,2.07,2.07,0,0,1,.73-.53,2.56,2.56,0,0,1,.89-.16,1.78,1.78,0,0,1,.83.2,1.82,1.82,0,0,1,.66.55,2.55,2.55,0,0,1,.3.49,2.92,2.92,0,0,1,.24.65,4.19,4.19,0,0,1,.16.8,6.5,6.5,0,0,1,.07,1A5.07,5.07,0,0,1,102.09,72.73Zm-.85-3.29a4,4,0,0,0-.14-.75,1.45,1.45,0,0,0-.4-.62,1,1,0,0,0-.66-.25,1.31,1.31,0,0,0-.69.18,1.67,1.67,0,0,0-.41.51,1.7,1.7,0,0,0-.21.68,6.12,6.12,0,0,0,0,.71v.18a6.61,6.61,0,0,0,0,.74,2.3,2.3,0,0,0,.18.71,1.31,1.31,0,0,0,.4.5,1,1,0,0,0,.62.2,1.16,1.16,0,0,0,1-.68,2.63,2.63,0,0,0,.31-1.3A6.86,6.86,0,0,0,101.24,69.44Z" transform="translate(-13.96 -21.87)"/>
  <rect x="57.75" y="42.25" width="57.69" height="14.14" fill="none"/>
  <path d="M167.72,71.52a.73.73,0,0,1-.25,0h-6.39a.72.72,0,0,1-.26,0,.18.18,0,0,1-.11-.18.21.21,0,0,1,.12-.21l.26,0h6.37l.25,0a.22.22,0,0,1,.13.21A.17.17,0,0,1,167.72,71.52Z" transform="translate(-13.96 -21.87)"/>
  <path d="M173.54,74.84h-1.79l-.89,0v-.35h.53a1.62,1.62,0,0,0,.61-.07.45.45,0,0,0,.24-.46v-5.7a2.92,2.92,0,0,1-.59.19,5.74,5.74,0,0,1-.62.1h-.24v-.35h.37a2.75,2.75,0,0,0,.56-.1,2.55,2.55,0,0,0,.53-.18l.29-.18.26-.23h.26V74a.45.45,0,0,0,.23.46,1.75,1.75,0,0,0,.63.07h.52v.35Z" transform="translate(-13.96 -21.87)"/>
  <path d="M179.19,73.07v1a.48.48,0,0,0,.18.45,1.16,1.16,0,0,0,.52.07h.37v.35l-.75,0H178l-.74,0v-.35h.34a1.49,1.49,0,0,0,.54-.06c.12-.07.18-.22.18-.46v-1H175.4v-.35l3.39-5.17.08-.11.14,0c.08,0,.13,0,.15.07a.32.32,0,0,1,0,.17v5.06h1.11v.35Zm-.79-4.46-2.68,4.11h2.68Z" transform="translate(-13.96 -21.87)"/>
  <rect x="115.44" y="42.25" width="83.12" height="14.14" fill="none"/>
  <path d="M44.4,86.76a4.26,4.26,0,0,1-.64,1.34,2.86,2.86,0,0,1-.85.75,2.12,2.12,0,0,1-1.07.3,1.91,1.91,0,0,1-1.07-.27A1,1,0,0,1,40.3,88a.51.51,0,0,1,.14-.38.46.46,0,0,1,.36-.15.48.48,0,0,1,.42.2.55.55,0,0,1,.07.46.46.46,0,0,1-.22.27.58.58,0,0,1-.33.09,1,1,0,0,0,.39.27,2.11,2.11,0,0,0,.48.12,1.79,1.79,0,0,0,.75-.12,1.82,1.82,0,0,0,.6-.45,2.92,2.92,0,0,0,.52-1.21,6.35,6.35,0,0,0,.13-1.3V85.4a2.05,2.05,0,0,1-.52.78,1.29,1.29,0,0,1-.86.32,2.16,2.16,0,0,1-.87-.19A2.28,2.28,0,0,1,40.18,85,2.83,2.83,0,0,1,40,84a2.93,2.93,0,0,1,.15-1,2.45,2.45,0,0,1,.55-.8,2,2,0,0,1,.73-.53,2.36,2.36,0,0,1,.9-.16,1.84,1.84,0,0,1,.83.19,1.89,1.89,0,0,1,.65.55,2.65,2.65,0,0,1,.3.5,2.84,2.84,0,0,1,.24.64,4.14,4.14,0,0,1,.16.81,6.45,6.45,0,0,1,.07,1A5.14,5.14,0,0,1,44.4,86.76Zm-.85-3.3a3.24,3.24,0,0,0-.14-.74,1.4,1.4,0,0,0-.4-.63,1,1,0,0,0-.65-.24,1.27,1.27,0,0,0-.69.18,1.46,1.46,0,0,0-.42.51,1.65,1.65,0,0,0-.21.67,6.32,6.32,0,0,0,0,.72v.18a6.41,6.41,0,0,0,0,.73,2.23,2.23,0,0,0,.18.71,1.44,1.44,0,0,0,.4.51,1,1,0,0,0,.62.19,1.14,1.14,0,0,0,1-.68,2.58,2.58,0,0,0,.31-1.3A6.86,6.86,0,0,0,43.55,83.46Z" transform="translate(-13.96 -21.87)"/>
  <rect x="0.18" y="56.4" width="57.57" height="14.02" fill="none"/>
  <path d="M102,87.64a2.83,2.83,0,0,1-.53.81,2.43,2.43,0,0,1-.78.5,2.23,2.23,0,0,1-.91.2A1.91,1.91,0,0,1,99,89a2.19,2.19,0,0,1-1.06-1.11,2.07,2.07,0,0,1-.14-.74.64.64,0,0,1,.14-.42.61.61,0,0,1,.8,0,.52.52,0,0,1,.16.4.54.54,0,0,1-.17.4.54.54,0,0,1-.38.15h-.1l-.09,0a1.39,1.39,0,0,0,.21.47,1.67,1.67,0,0,0,.36.39,2.42,2.42,0,0,0,.5.27,1.51,1.51,0,0,0,.56.11,1.16,1.16,0,0,0,.67-.21,1.52,1.52,0,0,0,.5-.51,2.23,2.23,0,0,0,.23-.74,5.66,5.66,0,0,0,0-.78,6.16,6.16,0,0,0,0-.7,2.5,2.5,0,0,0-.17-.68,1.53,1.53,0,0,0-.37-.51.92.92,0,0,0-.57-.2,1.74,1.74,0,0,0-.53.07,1.69,1.69,0,0,0-.56.33,1.07,1.07,0,0,0-.22.2,1,1,0,0,0-.1.15l-.07.09a.11.11,0,0,1-.08,0,.17.17,0,0,1-.16-.08.47.47,0,0,1,0-.16v-3.3a.58.58,0,0,1,0-.25s.1,0,.22,0a3.28,3.28,0,0,0,.71.23,3.84,3.84,0,0,0,.76.07l.48,0a5,5,0,0,0,.56-.11l.37-.16.18-.06a.16.16,0,0,1,.09,0,.12.12,0,0,1,0,.1,1.22,1.22,0,0,1-.25.35,2.77,2.77,0,0,1-.29.25v0a2.94,2.94,0,0,1-.75.38,2.68,2.68,0,0,1-.83.14,2.61,2.61,0,0,1-.48,0,3.12,3.12,0,0,1-.46-.09v2.15a3.09,3.09,0,0,1,.31-.25,1.3,1.3,0,0,1,.33-.17,1.58,1.58,0,0,1,.37-.11,2.38,2.38,0,0,1,.39,0,1.92,1.92,0,0,1,.82.18,2.16,2.16,0,0,1,.68.53,2.6,2.6,0,0,1,.44.8,2.51,2.51,0,0,1,.16.9A2.37,2.37,0,0,1,102,87.64Z" transform="translate(-13.96 -21.87)"/>
  <rect x="57.75" y="56.4" width="57.69" height="14.02" fill="none"/>
  <path d="M167.72,85.55a.73.73,0,0,1-.25,0h-6.39a.72.72,0,0,1-.26,0,.18.18,0,0,1-.11-.19.19.19,0,0,1,.12-.2.87.87,0,0,1,.26,0h6.37a.83.83,0,0,1,.25,0,.2.2,0,0,1,.13.2A.18.18,0,0,1,167.72,85.55Z" transform="translate(-13.96 -21.87)"/>
  <path d="M173.54,88.87h-1.79l-.89,0v-.34h.53a1.56,1.56,0,0,0,.61-.08.44.44,0,0,0,.24-.45V82.33a2.91,2.91,0,0,1-.59.2,5.77,5.77,0,0,1-.62.09h-.24v-.34h.37a3.66,3.66,0,0,0,.56-.1,2.55,2.55,0,0,0,.53-.18,2.9,2.9,0,0,0,.29-.19,2.75,2.75,0,0,0,.26-.22h.26V88c0,.24.08.39.23.45a1.68,1.68,0,0,0,.63.08h.52v.34Z" transform="translate(-13.96 -21.87)"/>
  <path d="M179.19,87.09v1c0,.23.06.38.18.44a1.12,1.12,0,0,0,.52.08h.37v.34l-.75,0H178l-.74,0v-.34h.34a1.24,1.24,0,0,0,.54-.07q.18-.09.18-.45v-1H175.4v-.34l3.39-5.17a.27.27,0,0,1,.08-.11l.14,0q.12,0,.15.06a.36.36,0,0,1,0,.18v5.06h1.11v.34Zm-.79-4.46-2.68,4.12h2.68Z" transform="translate(-13.96 -21.87)"/>
  <rect x="115.44" y="56.4" width="83.12" height="14.02" fill="none"/>
  <path d="M40.65,103H38.87c-.33,0-.63,0-.9,0v-.35h.53a1.62,1.62,0,0,0,.61-.07.46.46,0,0,0,.24-.46v-5.7a2.92,2.92,0,0,1-.59.19,5.74,5.74,0,0,1-.62.1h-.23v-.35h.36a2.63,2.63,0,0,0,.56-.1,2.55,2.55,0,0,0,.53-.18l.29-.18a1.94,1.94,0,0,0,.26-.23h.26v6.47a.44.44,0,0,0,.24.46,1.68,1.68,0,0,0,.62.07h.52v.35C41.28,103,41,103,40.65,103Z" transform="translate(-13.96 -21.87)"/>
  <path d="M47,101.79a2.79,2.79,0,0,1-.53.8,2.29,2.29,0,0,1-.78.51,2.22,2.22,0,0,1-.91.19,1.77,1.77,0,0,1-.8-.17,2.12,2.12,0,0,1-.65-.47,2,2,0,0,1-.55-1.37.64.64,0,0,1,.14-.42.53.53,0,0,1,.41-.16.52.52,0,0,1,.39.14.51.51,0,0,1,.16.4.52.52,0,0,1-.17.39.51.51,0,0,1-.38.16l-.11,0a.13.13,0,0,1-.08,0,1.44,1.44,0,0,0,.21.48,1.85,1.85,0,0,0,.36.38,1.74,1.74,0,0,0,.5.27,1.3,1.3,0,0,0,.56.11,1.22,1.22,0,0,0,.67-.2,1.47,1.47,0,0,0,.5-.52,2.16,2.16,0,0,0,.23-.73,5.82,5.82,0,0,0,0-.79,6.29,6.29,0,0,0,0-.7,2.6,2.6,0,0,0-.17-.68,1.48,1.48,0,0,0-.37-.5.87.87,0,0,0-.57-.21,1.74,1.74,0,0,0-.53.08,1.51,1.51,0,0,0-.56.32.88.88,0,0,0-.22.21,1,1,0,0,0-.1.15.3.3,0,0,1-.07.08.11.11,0,0,1-.08,0,.17.17,0,0,1-.16-.07.51.51,0,0,1,0-.16V96a1,1,0,0,1,0-.25s.11,0,.23,0a3.28,3.28,0,0,0,.71.23,3.84,3.84,0,0,0,.76.08,3,3,0,0,0,.48,0,4.78,4.78,0,0,0,.56-.1l.37-.16.18-.07a.16.16,0,0,1,.09,0,.12.12,0,0,1,0,.1,1.24,1.24,0,0,1-.25.36,2.84,2.84,0,0,1-.29.24v0A2.8,2.8,0,0,1,44.6,97a2.59,2.59,0,0,1-.48,0,3.11,3.11,0,0,1-.46-.1V99a1.62,1.62,0,0,1,.31-.25,1,1,0,0,1,.33-.17,1.58,1.58,0,0,1,.37-.11,2.38,2.38,0,0,1,.39,0,1.92,1.92,0,0,1,.82.18,2,2,0,0,1,.68.53,2.75,2.75,0,0,1,.6,1.7A2.41,2.41,0,0,1,47,101.79Z" transform="translate(-13.96 -21.87)"/>
  <rect x="0.18" y="70.42" width="57.57" height="14.02" fill="none"/>
  <path d="M102.11,102a2.33,2.33,0,0,1-.48.68,2.43,2.43,0,0,1-.79.48,2.51,2.51,0,0,1-.9.16,2.94,2.94,0,0,1-.44,0,2.15,2.15,0,0,1-.4-.09,2,2,0,0,1-1-.58,1.41,1.41,0,0,1-.41-1,.68.68,0,0,1,.15-.47.59.59,0,0,1,.46-.18.57.57,0,0,1,.44.18.63.63,0,0,1,0,.92.61.61,0,0,1-.51.13,1.54,1.54,0,0,0,.7.62,2.38,2.38,0,0,0,1,.22.94.94,0,0,0,.43-.1,1.19,1.19,0,0,0,.36-.24,1.71,1.71,0,0,0,.35-.7,3.1,3.1,0,0,0,.09-.78,2.49,2.49,0,0,0,0-.4,2.75,2.75,0,0,0,0-.34,1.64,1.64,0,0,0-.42-.8,1.16,1.16,0,0,0-.81-.29h-.52l-.16,0a.11.11,0,0,1-.07-.12c0-.06,0-.1,0-.12h.43l.35,0a1.06,1.06,0,0,0,.58-.35,1.52,1.52,0,0,0,.34-.59,4.21,4.21,0,0,0,.1-.44,2.32,2.32,0,0,0,0-.44,1.7,1.7,0,0,0-.07-.53,1.12,1.12,0,0,0-.28-.45.94.94,0,0,0-.35-.2,1.36,1.36,0,0,0-.36-.05,2.43,2.43,0,0,0-.38,0,3.06,3.06,0,0,0-.38.1,1.5,1.5,0,0,0-.41.23,1,1,0,0,0-.3.32h.18a.67.67,0,0,1,.38.16.5.5,0,0,1,.13.38.55.55,0,0,1-.56.56.54.54,0,0,1-.42-.16.59.59,0,0,1-.15-.41,1.27,1.27,0,0,1,.35-.88,1.84,1.84,0,0,1,.82-.5,2.11,2.11,0,0,1,.38-.1l.41,0a2.57,2.57,0,0,1,.73.1,2,2,0,0,1,.66.31,1.86,1.86,0,0,1,.46.47,1.28,1.28,0,0,1,.19.64,1.68,1.68,0,0,1-.13.62,2.44,2.44,0,0,1-.32.56,2.23,2.23,0,0,1-.5.46,2.69,2.69,0,0,1-.61.31,2.26,2.26,0,0,1,1,.44,2.12,2.12,0,0,1,.69.88c0,.12.06.23.08.33a1.4,1.4,0,0,1,0,.34A1.77,1.77,0,0,1,102.11,102Z" transform="translate(-13.96 -21.87)"/>
  <rect x="57.75" y="70.42" width="57.69" height="14.02" fill="none"/>
  <path d="M167.72,99.69a.73.73,0,0,1-.25,0h-6.39a.72.72,0,0,1-.26,0,.18.18,0,0,1-.11-.18.21.21,0,0,1,.12-.21l.26,0h6.37l.25,0a.22.22,0,0,1,.13.21A.17.17,0,0,1,167.72,99.69Z" transform="translate(-13.96 -21.87)"/>
  <path d="M173.54,103h-1.79c-.33,0-.63,0-.89,0v-.35h.53a1.62,1.62,0,0,0,.61-.07.46.46,0,0,0,.24-.46v-5.7a2.92,2.92,0,0,1-.59.19,5.74,5.74,0,0,1-.62.1h-.24v-.35h.37a2.75,2.75,0,0,0,.56-.1,2.55,2.55,0,0,0,.53-.18l.29-.18.26-.23h.26v6.47a.45.45,0,0,0,.23.46,1.75,1.75,0,0,0,.63.07h.52v.35C174.17,103,173.87,103,173.54,103Z" transform="translate(-13.96 -21.87)"/>
  <path d="M179.94,102a2,2,0,0,1-.48.67,2.45,2.45,0,0,1-.77.44,2.34,2.34,0,0,1-.86.16,2.53,2.53,0,0,1-.83-.13,2.19,2.19,0,0,1-.75-.37,1.69,1.69,0,0,1-.51-.63,1.72,1.72,0,0,1-.19-.77,1.87,1.87,0,0,1,.14-.71,2,2,0,0,1,.41-.6,2.88,2.88,0,0,1,.49-.41,4.69,4.69,0,0,1,.55-.31l-.13-.08c-.22-.15-.4-.27-.52-.37a1.86,1.86,0,0,1-.43-.53,2,2,0,0,1-.16-.41,1.42,1.42,0,0,1-.05-.42,1.72,1.72,0,0,1,.15-.72,1.63,1.63,0,0,1,.44-.58,1.8,1.8,0,0,1,.64-.41,2.19,2.19,0,0,1,.77-.13,2.45,2.45,0,0,1,.71.11,2,2,0,0,1,.65.33,1.5,1.5,0,0,1,.45.52,1.49,1.49,0,0,1,.08,1.2,2.07,2.07,0,0,1-.27.45,5.82,5.82,0,0,1-.45.4,2.75,2.75,0,0,1-.52.34l.44.28a3,3,0,0,1,.64.5,1.67,1.67,0,0,1,.44.72,1.94,1.94,0,0,1,.07.33,1.53,1.53,0,0,1,0,.3A2,2,0,0,1,179.94,102Zm-.45-.85a1,1,0,0,0-.21-.35,2.38,2.38,0,0,0-.48-.41l-.61-.38-.2-.13-.6-.38a3.8,3.8,0,0,0-.61.41,2,2,0,0,0-.39.48,2.05,2.05,0,0,0-.22.48,2.15,2.15,0,0,0-.07.5,1.68,1.68,0,0,0,.13.62,1.58,1.58,0,0,0,.38.51,1.84,1.84,0,0,0,.57.34,1.8,1.8,0,0,0,1.29,0,1.83,1.83,0,0,0,.58-.28,1.31,1.31,0,0,0,.37-.45,1.06,1.06,0,0,0,.15-.55A1.26,1.26,0,0,0,179.49,101.17Zm-.26-4.36a1.1,1.1,0,0,0-.34-.43,1.32,1.32,0,0,0-.5-.29,1.54,1.54,0,0,0-.56-.1,2,2,0,0,0-.55.07,1.34,1.34,0,0,0-.48.23,1.08,1.08,0,0,0-.34.37.85.85,0,0,0-.13.47.88.88,0,0,0,.16.51,1.42,1.42,0,0,0,.39.38l1.38.88a5,5,0,0,0,.44-.32,3.91,3.91,0,0,0,.35-.36,1.41,1.41,0,0,0,.22-.42,1.32,1.32,0,0,0,.08-.44A1.26,1.26,0,0,0,179.23,96.81Z" transform="translate(-13.96 -21.87)"/>
  <rect x="115.44" y="70.42" width="83.12" height="14.02" fill="none"/>
  <path d="M41,115.26v1c0,.23.06.38.18.44a1.15,1.15,0,0,0,.52.08h.38v.34c-.23,0-.48,0-.76,0H39.85c-.28,0-.53,0-.75,0v-.34h.35a1.42,1.42,0,0,0,.54-.07q.18-.09.18-.45v-1H37.24v-.34l3.38-5.17a.39.39,0,0,1,.09-.11.26.26,0,0,1,.14,0q.12,0,.15.06a.59.59,0,0,1,0,.17v5.07h1.11v.34Zm-.79-4.46-2.68,4.12h2.68Z" transform="translate(-13.96 -21.87)"/>
  <path d="M47,115.81a3,3,0,0,1-.53.81,2.43,2.43,0,0,1-.78.5,2.23,2.23,0,0,1-.91.2,1.91,1.91,0,0,1-.8-.17A2.19,2.19,0,0,1,42.89,116a2.07,2.07,0,0,1-.14-.74.64.64,0,0,1,.14-.42.61.61,0,0,1,.8,0,.52.52,0,0,1,.16.4.54.54,0,0,1-.17.4.54.54,0,0,1-.38.15h-.11l-.08,0a1.39,1.39,0,0,0,.21.47,1.67,1.67,0,0,0,.36.39,2.42,2.42,0,0,0,.5.27,1.47,1.47,0,0,0,.56.11,1.16,1.16,0,0,0,.67-.21,1.47,1.47,0,0,0,.5-.52,2.09,2.09,0,0,0,.23-.73,5.75,5.75,0,0,0,0-.78,6,6,0,0,0,0-.7,2.5,2.5,0,0,0-.17-.68,1.53,1.53,0,0,0-.37-.51.92.92,0,0,0-.57-.2,1.74,1.74,0,0,0-.53.07,1.53,1.53,0,0,0-.56.33,1.07,1.07,0,0,0-.22.2,1,1,0,0,0-.1.15l-.07.09a.11.11,0,0,1-.08,0,.17.17,0,0,1-.16-.08.47.47,0,0,1,0-.16V110a1,1,0,0,1,0-.25s.11,0,.23,0a3.28,3.28,0,0,0,.71.23,3.84,3.84,0,0,0,.76.07l.48,0a5,5,0,0,0,.56-.11l.37-.16.18-.06a.16.16,0,0,1,.09,0,.1.1,0,0,1,0,.09,1.12,1.12,0,0,1-.25.36l-.29.25v0a3.31,3.31,0,0,1-.75.38,2.68,2.68,0,0,1-.83.14,2.61,2.61,0,0,1-.48,0,3.12,3.12,0,0,1-.46-.09V113a3.09,3.09,0,0,1,.31-.25,1.3,1.3,0,0,1,.33-.17,1.58,1.58,0,0,1,.37-.11,2.38,2.38,0,0,1,.39,0,1.92,1.92,0,0,1,.82.18,2.16,2.16,0,0,1,.68.53,2.6,2.6,0,0,1,.44.8,2.51,2.51,0,0,1,.16.9A2.37,2.37,0,0,1,47,115.81Z" transform="translate(-13.96 -21.87)"/>
  <rect x="0.18" y="84.45" width="57.57" height="14.02" fill="none"/>
  <path d="M101,117H99.19c-.33,0-.63,0-.89,0v-.34h.53a1.56,1.56,0,0,0,.61-.08.44.44,0,0,0,.24-.45V110.5a2.92,2.92,0,0,1-.59.19,4,4,0,0,1-.62.1h-.24v-.34h.37a3.66,3.66,0,0,0,.56-.1,3.31,3.31,0,0,0,.53-.18A2.9,2.9,0,0,0,100,110a2.75,2.75,0,0,0,.26-.22h.26v6.47c0,.24.08.39.23.45a1.65,1.65,0,0,0,.63.08h.52v.34C101.61,117.06,101.31,117,101,117Z" transform="translate(-13.96 -21.87)"/>
  <rect x="57.75" y="84.45" width="57.69" height="14.02" fill="none"/>
  <path d="M167.72,113.71a.51.51,0,0,1-.25,0h-6.39a.51.51,0,0,1-.26,0,.17.17,0,0,1-.11-.18.19.19,0,0,1,.12-.2.87.87,0,0,1,.26,0h6.37a.83.83,0,0,1,.25,0,.2.2,0,0,1,.13.2A.17.17,0,0,1,167.72,113.71Z" transform="translate(-13.96 -21.87)"/>
  <path d="M173.91,115.26v1c0,.23.06.38.18.44a1.12,1.12,0,0,0,.52.08H175v.34c-.23,0-.49,0-.76,0h-1.5c-.28,0-.52,0-.74,0v-.34h.35a1.36,1.36,0,0,0,.53-.07c.13-.06.19-.21.19-.45v-1h-2.93v-.34l3.38-5.17a.39.39,0,0,1,.09-.11s.07,0,.14,0,.13,0,.15.06a.59.59,0,0,1,0,.17v5.07H175v.34Zm-.79-4.46-2.68,4.12h2.68Z" transform="translate(-13.96 -21.87)"/>
  <path d="M180,115.79a2.51,2.51,0,0,1-.49.84,2.36,2.36,0,0,1-.74.5,2,2,0,0,1-.86.19,1.86,1.86,0,0,1-.87-.21,1.79,1.79,0,0,1-.67-.55,3.52,3.52,0,0,1-.63-1.44,7.67,7.67,0,0,1-.14-1.53,5.25,5.25,0,0,1,.21-1.51,3.78,3.78,0,0,1,.71-1.33,2.43,2.43,0,0,1,.87-.73,2.34,2.34,0,0,1,1.11-.28,2.27,2.27,0,0,1,.61.07,1.29,1.29,0,0,1,.45.27,1.35,1.35,0,0,1,.26.38,1.11,1.11,0,0,1,.08.46.51.51,0,0,1-.14.38.46.46,0,0,1-.36.16.48.48,0,0,1-.37-.15.49.49,0,0,1-.14-.36.47.47,0,0,1,.17-.4.86.86,0,0,1,.43-.09.85.85,0,0,0-.43-.35,1.56,1.56,0,0,0-1.66.4,2.37,2.37,0,0,0-.59,1,5.06,5.06,0,0,0-.16.74,7,7,0,0,0,0,.94v.26a1.67,1.67,0,0,1,.52-.77,1.32,1.32,0,0,1,.87-.32,2,2,0,0,1,.84.18,2.2,2.2,0,0,1,1.18,1.34,2.69,2.69,0,0,1,.16.94A2.55,2.55,0,0,1,180,115.79Zm-.82-1.1a6.45,6.45,0,0,0,0-.72,1.88,1.88,0,0,0-.16-.66,1.33,1.33,0,0,0-.41-.5,1,1,0,0,0-.61-.19,1.12,1.12,0,0,0-.61.17,1.5,1.5,0,0,0-.43.49,2.06,2.06,0,0,0-.25.62,3.85,3.85,0,0,0-.06.69c0,.22,0,.41,0,.57a3.57,3.57,0,0,0,.06.59,1.83,1.83,0,0,0,.38.86,1.07,1.07,0,0,0,.84.41,1.13,1.13,0,0,0,.66-.21,1.24,1.24,0,0,0,.43-.52,2.2,2.2,0,0,0,.16-.66c0-.15,0-.38,0-.69v-.25Z" transform="translate(-13.96 -21.87)"/>
  <rect x="115.44" y="84.45" width="83.12" height="14.02" fill="none"/>
  <path d="M42.27,127.74a.73.73,0,0,1-.25,0H35.63a.72.72,0,0,1-.26,0,.18.18,0,0,1-.11-.18.21.21,0,0,1,.12-.21l.26,0H42l.24,0a.21.21,0,0,1,.13.21A.18.18,0,0,1,42.27,127.74Z" transform="translate(-13.96 -21.87)"/>
  <path d="M48.21,131.06H46.42c-.33,0-.63,0-.89.05v-.35h.53a1.65,1.65,0,0,0,.61-.07.46.46,0,0,0,.24-.46v-5.7a3.86,3.86,0,0,1-.6.19l-.61.1h-.24v-.35h.37a2.75,2.75,0,0,0,.56-.1,2.55,2.55,0,0,0,.53-.18l.29-.18.26-.23h.26v6.47c0,.24.07.39.23.46a1.71,1.71,0,0,0,.63.07h.51v.35C48.84,131.08,48.54,131.07,48.21,131.06Z" transform="translate(-13.96 -21.87)"/>
  <rect x="0.18" y="98.47" width="57.57" height="14.14" fill="none"/>
  <path d="M97.32,127.74a.73.73,0,0,1-.25,0H90.68a.72.72,0,0,1-.26,0,.18.18,0,0,1-.11-.18.21.21,0,0,1,.12-.21l.26,0h6.37l.25,0a.21.21,0,0,1,.12.21A.17.17,0,0,1,97.32,127.74Z" transform="translate(-13.96 -21.87)"/>
  <path d="M103.63,129.29v1a.48.48,0,0,0,.18.45,1.16,1.16,0,0,0,.52.07h.37v.35c-.23,0-.48,0-.75-.05h-1.5a7.4,7.4,0,0,0-.74.05v-.35h.34a1.49,1.49,0,0,0,.54-.06.49.49,0,0,0,.19-.46v-1H99.84v-.35l3.39-5.17a.38.38,0,0,1,.08-.11l.14,0a.17.17,0,0,1,.16.07.54.54,0,0,1,0,.17v5.06h1.11v.35Zm-.79-4.46-2.68,4.11h2.68Z" transform="translate(-13.96 -21.87)"/>
  <path d="M109.45,129.83a2.52,2.52,0,0,1-.53.81,2.35,2.35,0,0,1-.77.51,2.26,2.26,0,0,1-.92.19,1.73,1.73,0,0,1-.79-.17,2,2,0,0,1-.65-.47,1.89,1.89,0,0,1-.41-.64,2.06,2.06,0,0,1-.14-.73.64.64,0,0,1,.14-.42.53.53,0,0,1,.41-.16.52.52,0,0,1,.39.14.54.54,0,0,1,.16.4.52.52,0,0,1-.17.39.55.55,0,0,1-.38.15h-.11l-.09,0a1.47,1.47,0,0,0,.22.48,1.43,1.43,0,0,0,.36.38,1.69,1.69,0,0,0,.49.27,1.55,1.55,0,0,0,.56.11,1.26,1.26,0,0,0,.68-.2,1.66,1.66,0,0,0,.5-.52,2.17,2.17,0,0,0,.22-.73,5.61,5.61,0,0,0,0-.79,5.88,5.88,0,0,0,0-.7,2.26,2.26,0,0,0-.17-.68,1.26,1.26,0,0,0-.37-.5.87.87,0,0,0-.57-.21,1.67,1.67,0,0,0-.52.08,1.43,1.43,0,0,0-.56.32,1.07,1.07,0,0,0-.22.2l-.11.16-.06.08a.12.12,0,0,1-.09,0c-.08,0-.13,0-.15-.07a.51.51,0,0,1,0-.16V124a1,1,0,0,1,0-.25s.1,0,.23,0a3.28,3.28,0,0,0,.71.23,3.67,3.67,0,0,0,.75.08,3.19,3.19,0,0,0,.49,0,5.18,5.18,0,0,0,.56-.1l.36-.17.19-.06a.13.13,0,0,1,.08,0,.12.12,0,0,1,0,.1,1.1,1.1,0,0,1-.25.35,1.94,1.94,0,0,1-.29.25v0a2.85,2.85,0,0,1-.76.38,2.63,2.63,0,0,1-.83.14,2.49,2.49,0,0,1-.47,0,3.25,3.25,0,0,1-.47-.1V127a1.65,1.65,0,0,1,.32-.25,1,1,0,0,1,.33-.17,1.21,1.21,0,0,1,.37-.11,2.33,2.33,0,0,1,.38,0,1.9,1.9,0,0,1,.82.19,1.93,1.93,0,0,1,.68.53,2.36,2.36,0,0,1,.44.79,2.53,2.53,0,0,1,.17.91A2.33,2.33,0,0,1,109.45,129.83Z" transform="translate(-13.96 -21.87)"/>
  <rect x="57.75" y="98.47" width="57.69" height="14.14" fill="none"/>
  <path d="M169.11,129.29v1a.48.48,0,0,0,.18.45,1.19,1.19,0,0,0,.52.07h.38v.35c-.23,0-.48,0-.76-.05h-1.49c-.28,0-.53,0-.75.05v-.35h.35a1.49,1.49,0,0,0,.54-.06c.12-.07.18-.22.18-.46v-1h-2.93v-.35l3.38-5.17a.65.65,0,0,1,.09-.11.41.41,0,0,1,.14,0c.08,0,.13,0,.15.07a.54.54,0,0,1,0,.17v5.06h1.11v.35Zm-.78-4.46-2.69,4.11h2.69Z" transform="translate(-13.96 -21.87)"/>
  <path d="M175,129.81a2.33,2.33,0,0,1-.49.84,2.4,2.4,0,0,1-.74.51,2.11,2.11,0,0,1-.86.18,2,2,0,0,1-.87-.2,1.79,1.79,0,0,1-.67-.55,3.64,3.64,0,0,1-.62-1.44,7,7,0,0,1-.14-1.53,5.62,5.62,0,0,1,.2-1.51,4,4,0,0,1,.71-1.34,2.48,2.48,0,0,1,.88-.73,2.29,2.29,0,0,1,1.11-.28,2.13,2.13,0,0,1,.6.08,1,1,0,0,1,.45.27,1.14,1.14,0,0,1,.26.37,1.16,1.16,0,0,1,.09.47.53.53,0,0,1-.14.37.49.49,0,0,1-.37.16.5.5,0,0,1-.37-.15.48.48,0,0,1-.14-.35.44.44,0,0,1,.18-.4.74.74,0,0,1,.43-.1.92.92,0,0,0-.43-.34,1.4,1.4,0,0,0-.54-.1,1.51,1.51,0,0,0-1.12.5,2.39,2.39,0,0,0-.6,1,4.92,4.92,0,0,0-.16.73,9.41,9.41,0,0,0-.05,1v.26a1.78,1.78,0,0,1,.53-.78,1.26,1.26,0,0,1,.86-.31,2.21,2.21,0,0,1,.84.17,2.24,2.24,0,0,1,.71.53,2.15,2.15,0,0,1,.47.82,2.6,2.6,0,0,1,.17.93A2.56,2.56,0,0,1,175,129.81Zm-.82-1.1a6.57,6.57,0,0,0,0-.72,1.59,1.59,0,0,0-.16-.65,1.46,1.46,0,0,0-.41-.51,1,1,0,0,0-.6-.18,1.15,1.15,0,0,0-.62.17,1.46,1.46,0,0,0-.43.48,2.13,2.13,0,0,0-.25.63,3.69,3.69,0,0,0-.06.69c0,.21,0,.4,0,.57a3.41,3.41,0,0,0,.07.58,1.73,1.73,0,0,0,.37.86,1.07,1.07,0,0,0,.84.41,1.14,1.14,0,0,0,.66-.2,1.38,1.38,0,0,0,.43-.52,2.27,2.27,0,0,0,.16-.67,6.26,6.26,0,0,0,0-.69v-.25Z" transform="translate(-13.96 -21.87)"/>
  <rect x="115.44" y="98.47" width="83.12" height="14.14" fill="none"/>
  <path d="M42.27,141.76a.51.51,0,0,1-.25,0H35.63a.51.51,0,0,1-.26,0,.17.17,0,0,1-.11-.18.19.19,0,0,1,.12-.2.79.79,0,0,1,.26,0H42a.7.7,0,0,1,.24,0,.19.19,0,0,1,.13.2A.17.17,0,0,1,42.27,141.76Z" transform="translate(-13.96 -21.87)"/>
  <path d="M49.34,144a2.2,2.2,0,0,1-.48.68,2.56,2.56,0,0,1-.79.49,2.75,2.75,0,0,1-.9.16,2.15,2.15,0,0,1-.45,0l-.39-.08a2.09,2.09,0,0,1-1-.58,1.45,1.45,0,0,1-.41-1,.7.7,0,0,1,.15-.47.68.68,0,0,1,.9,0,.67.67,0,0,1,0,.93.69.69,0,0,1-.51.13,1.53,1.53,0,0,0,.7.61,2.38,2.38,0,0,0,1,.23,1.13,1.13,0,0,0,.44-.1,1.23,1.23,0,0,0,.36-.25,1.84,1.84,0,0,0,.35-.7,3.07,3.07,0,0,0,.09-.77,2.36,2.36,0,0,0,0-.4,2.94,2.94,0,0,0,0-.35,1.56,1.56,0,0,0-.42-.79,1.13,1.13,0,0,0-.81-.3h-.52a.37.37,0,0,1-.16,0,.11.11,0,0,1-.07-.12.12.12,0,0,1,0-.11h.12l.31,0,.34,0a1,1,0,0,0,.59-.34,1.66,1.66,0,0,0,.34-.59c0-.18.08-.33.1-.45a2.25,2.25,0,0,0,0-.44,1.74,1.74,0,0,0-.07-.53,1,1,0,0,0-.29-.45.88.88,0,0,0-.34-.19,1.07,1.07,0,0,0-.37-.05l-.37,0a2.62,2.62,0,0,0-.38.09,1.81,1.81,0,0,0-.41.23,1,1,0,0,0-.3.32h.18a.67.67,0,0,1,.38.17.48.48,0,0,1,.13.37.54.54,0,0,1-.16.4.52.52,0,0,1-.4.16.54.54,0,0,1-.42-.16.58.58,0,0,1-.15-.41,1.29,1.29,0,0,1,.35-.88,1.93,1.93,0,0,1,.82-.5,2.11,2.11,0,0,1,.38-.09,2.68,2.68,0,0,1,.41,0,3,3,0,0,1,.73.09,2.5,2.5,0,0,1,.66.31,1.74,1.74,0,0,1,.46.48,1.21,1.21,0,0,1,.18.63,1.58,1.58,0,0,1-.13.63,2.24,2.24,0,0,1-.31.56,2.45,2.45,0,0,1-.5.45,2.69,2.69,0,0,1-.61.31,2.43,2.43,0,0,1,1,.44,2.09,2.09,0,0,1,.69.89c0,.11.06.22.08.32a1.48,1.48,0,0,1,.05.35A1.87,1.87,0,0,1,49.34,144Z" transform="translate(-13.96 -21.87)"/>
  <rect x="0.18" y="112.62" width="57.57" height="14.02" fill="none"/>
  <path d="M97.32,141.76a.51.51,0,0,1-.25,0H90.68a.51.51,0,0,1-.26,0,.17.17,0,0,1-.11-.18.19.19,0,0,1,.12-.2.79.79,0,0,1,.26,0h6.37a.81.81,0,0,1,.25,0,.19.19,0,0,1,.12.2C97.43,141.67,97.4,141.74,97.32,141.76Z" transform="translate(-13.96 -21.87)"/>
  <path d="M103.26,145.09h-1.79c-.33,0-.63,0-.89,0v-.34h.53a1.59,1.59,0,0,0,.61-.08.44.44,0,0,0,.24-.45v-5.71a3,3,0,0,1-.6.19,3.7,3.7,0,0,1-.61.1h-.24v-.34h.16l.21,0a2.72,2.72,0,0,0,.56-.09,3.75,3.75,0,0,0,.53-.19,1.75,1.75,0,0,0,.29-.18l.26-.22h.26v6.47c0,.23.07.39.23.45a1.65,1.65,0,0,0,.63.08h.51v.34C103.89,145.11,103.59,145.09,103.26,145.09Z" transform="translate(-13.96 -21.87)"/>
  <path d="M109.45,143.86a2.76,2.76,0,0,1-.53.81,2.49,2.49,0,0,1-.77.5,2.28,2.28,0,0,1-.92.2,2,2,0,0,1-1.44-.65,1.89,1.89,0,0,1-.41-.64,2,2,0,0,1-.14-.73.64.64,0,0,1,.14-.42.61.61,0,0,1,.8,0,.57.57,0,0,1,0,.8.55.55,0,0,1-.38.15h-.11l-.09,0a1.52,1.52,0,0,0,.22.47,1.64,1.64,0,0,0,.36.39,2.34,2.34,0,0,0,.49.27,1.55,1.55,0,0,0,.56.11,1.19,1.19,0,0,0,.68-.21,1.56,1.56,0,0,0,.5-.52,2.1,2.1,0,0,0,.22-.73,5.56,5.56,0,0,0,0-.78,5.93,5.93,0,0,0,0-.71,2.19,2.19,0,0,0-.17-.67,1.3,1.3,0,0,0-.37-.51.86.86,0,0,0-.57-.2,1.68,1.68,0,0,0-.52.07,1.57,1.57,0,0,0-.56.32,1.49,1.49,0,0,0-.22.21,1,1,0,0,0-.11.15l-.06.09a.12.12,0,0,1-.09,0,.14.14,0,0,1-.15-.08.51.51,0,0,1,0-.16v-3.3a1,1,0,0,1,0-.25s.1,0,.23,0a3.26,3.26,0,0,0,.71.22,3.67,3.67,0,0,0,.75.08l.49,0a5.46,5.46,0,0,0,.56-.11l.36-.16.19-.07s0,0,.08,0,0,.06,0,.09a1.24,1.24,0,0,1-.25.36l-.29.25v0a3.18,3.18,0,0,1-.76.38,2.62,2.62,0,0,1-.83.13,2.49,2.49,0,0,1-.47,0,3.26,3.26,0,0,1-.47-.09v2.15a3.14,3.14,0,0,1,.32-.25,1,1,0,0,1,.33-.17,1.58,1.58,0,0,1,.37-.11,2.34,2.34,0,0,1,.38,0,1.89,1.89,0,0,1,.82.18,1.93,1.93,0,0,1,.68.53,2.41,2.41,0,0,1,.44.8,2.48,2.48,0,0,1,.17.9A2.38,2.38,0,0,1,109.45,143.86Z" transform="translate(-13.96 -21.87)"/>
  <rect x="57.75" y="112.62" width="57.69" height="14.02" fill="none"/>
  <path d="M168.75,145.09H167c-.33,0-.63,0-.9,0v-.34h.53a1.56,1.56,0,0,0,.61-.08.44.44,0,0,0,.24-.45v-5.71a2.92,2.92,0,0,1-.59.19,4,4,0,0,1-.62.1H166v-.34h.16l.2,0a2.62,2.62,0,0,0,.56-.09,3.35,3.35,0,0,0,.53-.19,1.75,1.75,0,0,0,.29-.18,3,3,0,0,0,.26-.22h.26v6.47a.43.43,0,0,0,.24.45,1.62,1.62,0,0,0,.62.08h.52v.34C169.37,145.11,169.08,145.09,168.75,145.09Z" transform="translate(-13.96 -21.87)"/>
  <path d="M175,144.1a1.84,1.84,0,0,1-.48.66,2.48,2.48,0,0,1-.77.45,2.52,2.52,0,0,1-.86.16,2.88,2.88,0,0,1-.83-.13,2.16,2.16,0,0,1-.74-.38,1.72,1.72,0,0,1-.7-1.4,1.7,1.7,0,0,1,.14-.71,1.8,1.8,0,0,1,.41-.59,2.16,2.16,0,0,1,.48-.41,3.26,3.26,0,0,1,.55-.31l-.13-.09c-.22-.14-.39-.27-.52-.37a2,2,0,0,1-.43-.52,2.25,2.25,0,0,1-.16-.41,2,2,0,0,1,0-.42,1.72,1.72,0,0,1,.15-.72,1.69,1.69,0,0,1,.44-.59,2,2,0,0,1,.65-.41,2.33,2.33,0,0,1,.76-.12,2.39,2.39,0,0,1,.71.1,1.92,1.92,0,0,1,.65.34,1.47,1.47,0,0,1,.45.51,1.42,1.42,0,0,1,.18.69,1.49,1.49,0,0,1-.1.51,2.07,2.07,0,0,1-.27.45,4.08,4.08,0,0,1-.44.4,3.2,3.2,0,0,1-.53.34l.44.28a3.77,3.77,0,0,1,.65.5,1.9,1.9,0,0,1,.43.72,1.94,1.94,0,0,1,.07.33,1.15,1.15,0,0,1,0,.31A2,2,0,0,1,175,144.1Zm-.45-.85a1.07,1.07,0,0,0-.2-.36,4.15,4.15,0,0,0-.49-.41l-.6-.38-.21-.13-.6-.37a2.86,2.86,0,0,0-.6.41,1.55,1.55,0,0,0-.39.47,2.59,2.59,0,0,0-.23.48,2.2,2.2,0,0,0-.06.5,1.47,1.47,0,0,0,.13.62,1.34,1.34,0,0,0,.37.51,1.87,1.87,0,0,0,.57.35,1.9,1.9,0,0,0,.67.13,2,2,0,0,0,.63-.11,2.51,2.51,0,0,0,.57-.28,1.53,1.53,0,0,0,.37-.45,1,1,0,0,0,.07-1Zm-.26-4.37a1.27,1.27,0,0,0-.33-.43,1.51,1.51,0,0,0-.51-.29,1.77,1.77,0,0,0-.56-.09,2.51,2.51,0,0,0-.55.06,1.48,1.48,0,0,0-.47.24,1.09,1.09,0,0,0-.35.36,1,1,0,0,0-.13.48.93.93,0,0,0,.16.5,1.42,1.42,0,0,0,.39.38l1.38.88a3.84,3.84,0,0,0,.44-.32,2.38,2.38,0,0,0,.35-.36,1.2,1.2,0,0,0,.22-.42,1.32,1.32,0,0,0,.08-.44A1.26,1.26,0,0,0,174.31,138.88Z" transform="translate(-13.96 -21.87)"/>
  <rect x="115.44" y="112.62" width="83.12" height="14.02" fill="none"/>
  <path d="M42.27,155.91a.73.73,0,0,1-.25,0H35.63a.72.72,0,0,1-.26,0,.18.18,0,0,1-.11-.18.21.21,0,0,1,.12-.21l.26,0H42l.24,0a.2.2,0,0,1,.13.21A.18.18,0,0,1,42.27,155.91Z" transform="translate(-13.96 -21.87)"/>
  <path d="M49.25,158a2.7,2.7,0,0,1-.53.81,2.4,2.4,0,0,1-.78.51,2.22,2.22,0,0,1-.91.19,1.91,1.91,0,0,1-.8-.17,2,2,0,0,1-.65-.47A2,2,0,0,1,45,157.5a.64.64,0,0,1,.14-.42.53.53,0,0,1,.41-.16.52.52,0,0,1,.39.14.5.5,0,0,1,.16.39.53.53,0,0,1-.17.4.54.54,0,0,1-.38.15h-.11l-.08,0a1.44,1.44,0,0,0,.21.48,1.61,1.61,0,0,0,.36.38,1.83,1.83,0,0,0,.49.27,1.55,1.55,0,0,0,.56.11,1.19,1.19,0,0,0,.68-.21,1.53,1.53,0,0,0,.5-.51,2.16,2.16,0,0,0,.23-.73c0-.21,0-.47,0-.79a6.16,6.16,0,0,0,0-.7,2.26,2.26,0,0,0-.18-.68,1.38,1.38,0,0,0-.36-.51,1,1,0,0,0-.57-.2,1.74,1.74,0,0,0-.53.08,1.51,1.51,0,0,0-.56.32,1.07,1.07,0,0,0-.22.2l-.11.15a.26.26,0,0,1-.06.09.12.12,0,0,1-.09,0c-.08,0-.13,0-.15-.07a.57.57,0,0,1,0-.16v-3.31a1,1,0,0,1,0-.25s.11,0,.23,0a3.28,3.28,0,0,0,.71.23,3.84,3.84,0,0,0,.76.07,3.25,3.25,0,0,0,.48,0,3.44,3.44,0,0,0,.56-.11l.37-.16.18-.06.09,0a.12.12,0,0,1,0,.1,1.1,1.1,0,0,1-.25.35,1.94,1.94,0,0,1-.29.25v0a2.85,2.85,0,0,1-.76.38,2.63,2.63,0,0,1-.83.14,2.56,2.56,0,0,1-.47,0l-.46-.1v2.15a1.62,1.62,0,0,1,.31-.24,1.35,1.35,0,0,1,.33-.18,1.56,1.56,0,0,1,.37-.1,1.61,1.61,0,0,1,.39,0,1.83,1.83,0,0,1,.82.19,2,2,0,0,1,.68.52,2.72,2.72,0,0,1,.44.8,2.54,2.54,0,0,1,0,1.85Z" transform="translate(-13.96 -21.87)"/>
  <rect x="0.18" y="126.64" width="57.57" height="14.02" fill="none"/>
  <path d="M100,155.91a.62.62,0,0,1-.24,0H93.32a.72.72,0,0,1-.26,0,.18.18,0,0,1-.11-.18.21.21,0,0,1,.12-.21l.26,0H99.7l.24,0a.2.2,0,0,1,.13.21A.17.17,0,0,1,100,155.91Z" transform="translate(-13.96 -21.87)"/>
  <path d="M107,157.12a4.22,4.22,0,0,1-.65,1.35,2.84,2.84,0,0,1-.85.74,2.09,2.09,0,0,1-1.07.3,1.89,1.89,0,0,1-1.06-.27,1,1,0,0,1-.48-.91.56.56,0,0,1,.14-.39.5.5,0,0,1,.37-.15.5.5,0,0,1,.42.2.58.58,0,0,1,.07.47.52.52,0,0,1-.22.27.7.7,0,0,1-.33.08.83.83,0,0,0,.38.27,1.85,1.85,0,0,0,.49.12,1.72,1.72,0,0,0,.74-.12,1.51,1.51,0,0,0,.6-.45,2.75,2.75,0,0,0,.52-1.21,5.66,5.66,0,0,0,.13-1.3v-.36a1.94,1.94,0,0,1-.52.78,1.27,1.27,0,0,1-.86.32,2,2,0,0,1-.86-.19,2.1,2.1,0,0,1-.7-.52,2.19,2.19,0,0,1-.48-.82,2.58,2.58,0,0,1-.16-.92,2.65,2.65,0,0,1,.16-1,2.34,2.34,0,0,1,.54-.81,2.11,2.11,0,0,1,.74-.53,2.35,2.35,0,0,1,.89-.16,1.81,1.81,0,0,1,.83.19,2.16,2.16,0,0,1,.66.55,3,3,0,0,1,.3.5,4.75,4.75,0,0,1,.24.64,5,5,0,0,1,.16.81,8.05,8.05,0,0,1,.06,1A5.12,5.12,0,0,1,107,157.12Zm-.85-3.29a3.88,3.88,0,0,0-.14-.75,1.55,1.55,0,0,0-.4-.62,1,1,0,0,0-.66-.25,1.31,1.31,0,0,0-.69.18,1.55,1.55,0,0,0-.42.51,1.7,1.7,0,0,0-.2.68,5.66,5.66,0,0,0,0,.71l0,.13,0,.05a5.78,5.78,0,0,0,0,.73,2.23,2.23,0,0,0,.18.71,1.44,1.44,0,0,0,.4.51,1,1,0,0,0,.61.19,1.15,1.15,0,0,0,1-.67,2.64,2.64,0,0,0,.31-1.31A6.8,6.8,0,0,0,106.16,153.83Z" transform="translate(-13.96 -21.87)"/>
  <rect x="57.75" y="126.64" width="57.69" height="14.02" fill="none"/>
  <path d="M168.75,159.23H167l-.9,0v-.34h.53a1.56,1.56,0,0,0,.61-.08.44.44,0,0,0,.24-.45v-5.71a2.91,2.91,0,0,1-.59.2l-.62.1H166v-.35h.36a3.45,3.45,0,0,0,.56-.1,2.55,2.55,0,0,0,.53-.18l.29-.18.26-.23h.26v6.47q0,.36.24.45a1.62,1.62,0,0,0,.62.08h.52v.34Z" transform="translate(-13.96 -21.87)"/>
  <path d="M174.27,157.45v1c0,.23.06.38.18.44a1.12,1.12,0,0,0,.52.08h.38v.34l-.76,0h-1.5l-.74,0v-.34h.35a1.42,1.42,0,0,0,.53-.06c.13-.07.19-.22.19-.46v-1h-2.93v-.34l3.38-5.17a.37.37,0,0,1,.09-.11l.14,0c.07,0,.13,0,.15.07a.49.49,0,0,1,0,.17v5.06h1.11v.34Zm-.79-4.45-2.68,4.11h2.68Z" transform="translate(-13.96 -21.87)"/>
  <rect x="115.44" y="126.64" width="83.12" height="14.02" fill="none"/>
  <path d="M42.27,169.93a.51.51,0,0,1-.25,0H35.63a.51.51,0,0,1-.26,0,.18.18,0,0,1-.11-.18.21.21,0,0,1,.12-.21l.26,0H42l.24,0a.21.21,0,0,1,.13.21A.18.18,0,0,1,42.27,169.93Z" transform="translate(-13.96 -21.87)"/>
  <path d="M49.32,171.14a4,4,0,0,1-.65,1.35,2.6,2.6,0,0,1-.85.74,2,2,0,0,1-1.06.31,1.91,1.91,0,0,1-1.07-.27,1,1,0,0,1-.47-.92.52.52,0,0,1,.14-.39.46.46,0,0,1,.36-.15.49.49,0,0,1,.42.21.55.55,0,0,1,.07.46.49.49,0,0,1-.22.27.58.58,0,0,1-.33.09.89.89,0,0,0,.38.26,1.85,1.85,0,0,0,.49.12,1.47,1.47,0,0,0,.74-.12,1.54,1.54,0,0,0,.61-.45,2.87,2.87,0,0,0,.51-1.2,5.75,5.75,0,0,0,.13-1.31v-.35a1.92,1.92,0,0,1-.51.77,1.28,1.28,0,0,1-.87.33,2,2,0,0,1-.86-.2,2.17,2.17,0,0,1-.7-.51,2.33,2.33,0,0,1-.48-.82,3.11,3.11,0,0,1,0-1.91,2.43,2.43,0,0,1,.55-.81,2,2,0,0,1,.73-.52,2.35,2.35,0,0,1,.89-.17,1.82,1.82,0,0,1,.83.2,2,2,0,0,1,.66.55,2.9,2.9,0,0,1,.3.49,3.82,3.82,0,0,1,.24.65,5,5,0,0,1,.16.81,7.91,7.91,0,0,1,.07,1A5,5,0,0,1,49.32,171.14Zm-.85-3.29a3.91,3.91,0,0,0-.14-.74,1.43,1.43,0,0,0-.4-.63,1,1,0,0,0-.66-.25,1.23,1.23,0,0,0-.69.19,1.66,1.66,0,0,0-.42.5,1.94,1.94,0,0,0-.2.68,6.24,6.24,0,0,0,0,.71v.19a6.41,6.41,0,0,0,0,.73,2.23,2.23,0,0,0,.18.71,1.44,1.44,0,0,0,.4.51,1,1,0,0,0,.61.19A1.16,1.16,0,0,0,48.2,170a2.6,2.6,0,0,0,.31-1.3A6.86,6.86,0,0,0,48.47,167.85Z" transform="translate(-13.96 -21.87)"/>
  <rect x="0.18" y="140.67" width="57.57" height="14.02" fill="none"/>
  <path d="M100,169.93a.45.45,0,0,1-.24,0H93.32a.51.51,0,0,1-.26,0,.18.18,0,0,1-.11-.18.21.21,0,0,1,.12-.21l.26,0H99.7l.24,0a.21.21,0,0,1,.13.21A.17.17,0,0,1,100,169.93Z" transform="translate(-13.96 -21.87)"/>
  <path d="M106.93,172a2.73,2.73,0,0,1-.52.81,2.67,2.67,0,0,1-.78.5,2.28,2.28,0,0,1-.92.2,2,2,0,0,1-1.44-.65,1.89,1.89,0,0,1-.41-.64,2,2,0,0,1-.14-.73.64.64,0,0,1,.14-.42.53.53,0,0,1,.41-.16.56.56,0,0,1,.39.14.51.51,0,0,1,.16.4.54.54,0,0,1-.17.4.55.55,0,0,1-.38.15h-.11l-.08,0a1.29,1.29,0,0,0,.21.47,1.64,1.64,0,0,0,.36.39,2.62,2.62,0,0,0,.49.27,1.54,1.54,0,0,0,.56.1,1.18,1.18,0,0,0,.68-.2,1.56,1.56,0,0,0,.5-.52,1.91,1.91,0,0,0,.22-.73,5.61,5.61,0,0,0,.05-.79,4.31,4.31,0,0,0,0-.7,1.94,1.94,0,0,0-.17-.67,1.38,1.38,0,0,0-.36-.51.91.91,0,0,0-.58-.2,1.68,1.68,0,0,0-.52.07,1.51,1.51,0,0,0-.56.32,1.49,1.49,0,0,0-.22.21l-.11.15-.06.09a.12.12,0,0,1-.09,0,.14.14,0,0,1-.15-.08.51.51,0,0,1,0-.16v-3.31a.9.9,0,0,1,0-.24s.11,0,.23,0a3.26,3.26,0,0,0,.71.22,3.74,3.74,0,0,0,.75.08l.49,0a5.46,5.46,0,0,0,.56-.11l.37-.16.18-.07a.09.09,0,0,1,.08,0s0,.06,0,.09a1.24,1.24,0,0,1-.25.36l-.29.25v0a2.82,2.82,0,0,1-.76.37,2.37,2.37,0,0,1-.83.14,2.49,2.49,0,0,1-.47,0,2.07,2.07,0,0,1-.46-.1v2.16a1.7,1.7,0,0,1,.31-.25,1,1,0,0,1,.33-.17,1.58,1.58,0,0,1,.37-.11,2.38,2.38,0,0,1,.39,0,2,2,0,0,1,.82.18,2,2,0,0,1,.67.53,2.43,2.43,0,0,1,.45.8,2.66,2.66,0,0,1,.16.9A2.38,2.38,0,0,1,106.93,172Z" transform="translate(-13.96 -21.87)"/>
  <rect x="57.75" y="140.67" width="57.69" height="14.02" fill="none"/>
  <path d="M168.75,173.26H167c-.33,0-.63,0-.9,0V173h.53a1.62,1.62,0,0,0,.61-.07.44.44,0,0,0,.24-.45v-5.71a2.92,2.92,0,0,1-.59.19,4,4,0,0,1-.62.1H166v-.34l.16,0h.2a2.62,2.62,0,0,0,.56-.09,3.35,3.35,0,0,0,.53-.19,1.75,1.75,0,0,0,.29-.18A1.94,1.94,0,0,0,168,166h.26v6.48a.44.44,0,0,0,.24.45,1.68,1.68,0,0,0,.62.07h.52v.35C169.37,173.28,169.08,173.26,168.75,173.26Z" transform="translate(-13.96 -21.87)"/>
  <path d="M174.27,171.48v1c0,.23.06.37.18.44a1.16,1.16,0,0,0,.52.07h.38v.35c-.23,0-.49,0-.76,0h-1.5c-.28,0-.52,0-.74,0V173h.35a1.42,1.42,0,0,0,.53-.06c.13-.06.19-.22.19-.45v-1h-2.93v-.35l3.38-5.17c0-.05.06-.09.09-.1s.07,0,.14,0a.16.16,0,0,1,.15.06.59.59,0,0,1,0,.17v5.06h1.11v.35Zm-.79-4.46-2.68,4.11h2.68Z" transform="translate(-13.96 -21.87)"/>
  <rect x="115.44" y="140.67" width="83.12" height="14.02" fill="none"/>
  <path d="M39.75,184a.73.73,0,0,1-.25,0H33.11a.72.72,0,0,1-.26,0,.18.18,0,0,1-.11-.18.21.21,0,0,1,.12-.21l.26,0h6.37l.25,0a.21.21,0,0,1,.13.21A.17.17,0,0,1,39.75,184Z" transform="translate(-13.96 -21.87)"/>
  <path d="M45.57,187.28H43.78l-.89,0V187h.53a1.56,1.56,0,0,0,.61-.08.44.44,0,0,0,.24-.45v-5.71a2.91,2.91,0,0,1-.59.2l-.62.1h-.24v-.35h.37a3.66,3.66,0,0,0,.56-.1,2.55,2.55,0,0,0,.53-.18l.29-.18.26-.23h.26v6.47c0,.24.08.39.23.45A1.65,1.65,0,0,0,46,187h.52v.34Z" transform="translate(-13.96 -21.87)"/>
  <path d="M51.88,186.05a2.27,2.27,0,0,1-1.3,1.32,2.23,2.23,0,0,1-.92.19,1.9,1.9,0,0,1-.79-.17,2,2,0,0,1-.65-.47,1.89,1.89,0,0,1-.41-.64,2.06,2.06,0,0,1-.14-.73.64.64,0,0,1,.14-.42.53.53,0,0,1,.41-.16.52.52,0,0,1,.39.14.5.5,0,0,1,.16.39.54.54,0,0,1-.17.4.55.55,0,0,1-.38.15h-.11L48,186a1.26,1.26,0,0,0,.21.48,1.43,1.43,0,0,0,.36.38,1.83,1.83,0,0,0,.49.27,1.55,1.55,0,0,0,.56.11,1.19,1.19,0,0,0,.68-.21,1.53,1.53,0,0,0,.5-.51,2,2,0,0,0,.22-.73,5.61,5.61,0,0,0,.05-.79,4.23,4.23,0,0,0,0-.7,1.94,1.94,0,0,0-.17-.68,1.38,1.38,0,0,0-.36-.51,1,1,0,0,0-.57-.2,1.69,1.69,0,0,0-.53.08,1.51,1.51,0,0,0-.56.32,1.07,1.07,0,0,0-.22.2l-.11.15-.06.09a.12.12,0,0,1-.09,0c-.08,0-.13,0-.15-.07a.57.57,0,0,1,0-.16v-3.31a1,1,0,0,1,0-.25s.11,0,.23,0a3.28,3.28,0,0,0,.71.23,3.74,3.74,0,0,0,.75.07,3.33,3.33,0,0,0,.49,0,3.65,3.65,0,0,0,.56-.11l.37-.16.18-.06a.11.11,0,0,1,.08,0,.12.12,0,0,1,0,.1,1.1,1.1,0,0,1-.25.35,1.94,1.94,0,0,1-.29.25v0a2.85,2.85,0,0,1-.76.38,2.63,2.63,0,0,1-.83.14,2.49,2.49,0,0,1-.47,0l-.46-.1v2.15a1.62,1.62,0,0,1,.31-.24,1.35,1.35,0,0,1,.33-.18,1.56,1.56,0,0,1,.37-.1,1.61,1.61,0,0,1,.39,0,1.83,1.83,0,0,1,.82.19,2,2,0,0,1,.67.52,2.54,2.54,0,0,1,.45.8,2.76,2.76,0,0,1,.16.91A2.33,2.33,0,0,1,51.88,186.05Z" transform="translate(-13.96 -21.87)"/>
  <rect x="0.18" y="154.69" width="57.57" height="14.14" fill="none"/>
  <path d="M100,184a.62.62,0,0,1-.24,0H93.32a.72.72,0,0,1-.26,0,.18.18,0,0,1-.11-.18.21.21,0,0,1,.12-.21l.26,0H99.7l.24,0a.2.2,0,0,1,.13.21A.17.17,0,0,1,100,184Z" transform="translate(-13.96 -21.87)"/>
  <path d="M107,186.24a2.33,2.33,0,0,1-.48.68,2.5,2.5,0,0,1-1.7.64,3.15,3.15,0,0,1-.44,0,2.59,2.59,0,0,1-.4-.09,2.11,2.11,0,0,1-1-.58,1.45,1.45,0,0,1-.41-1,.68.68,0,0,1,.16-.48.68.68,0,0,1,.9,0,.61.61,0,0,1,.17.46.57.57,0,0,1-.21.47.62.62,0,0,1-.51.13,1.48,1.48,0,0,0,.7.61,2.31,2.31,0,0,0,1,.23.91.91,0,0,0,.43-.1,1.12,1.12,0,0,0,.37-.24,1.68,1.68,0,0,0,.34-.71,2.57,2.57,0,0,0,.1-.77c0-.15,0-.28,0-.4a2.75,2.75,0,0,0,0-.34,1.6,1.6,0,0,0-.42-.8,1.16,1.16,0,0,0-.81-.29h-.52l-.16,0a.12.12,0,0,1-.08-.12.14.14,0,0,1,0-.12h.43l.34,0a1,1,0,0,0,.58-.35,1.54,1.54,0,0,0,.35-.59c0-.18.07-.33.1-.44a3.77,3.77,0,0,0,0-.44,1.69,1.69,0,0,0-.08-.53.94.94,0,0,0-.28-.45.79.79,0,0,0-.34-.2,1.38,1.38,0,0,0-.37-.05,2.31,2.31,0,0,0-.37,0,2.66,2.66,0,0,0-.38.1,1.5,1.5,0,0,0-.41.23,1,1,0,0,0-.3.32h.18a.61.61,0,0,1,.38.16.54.54,0,0,1,.13.38.56.56,0,0,1-.16.4.61.61,0,0,1-.82,0,.59.59,0,0,1-.15-.41,1.27,1.27,0,0,1,.35-.89,1.91,1.91,0,0,1,.82-.49,1.41,1.41,0,0,1,.38-.1l.41,0a2.57,2.57,0,0,1,.73.1,2.22,2.22,0,0,1,.66.31,1.86,1.86,0,0,1,.46.47,1.24,1.24,0,0,1,.18.64,1.53,1.53,0,0,1-.13.62,2.08,2.08,0,0,1-.31.56,2,2,0,0,1-.51.45,2.46,2.46,0,0,1-.6.32,2.31,2.31,0,0,1,1,.44,2.12,2.12,0,0,1,.68.88,2.66,2.66,0,0,1,.09.32,1.5,1.5,0,0,1,0,.35A1.9,1.9,0,0,1,107,186.24Z" transform="translate(-13.96 -21.87)"/>
  <rect x="57.75" y="154.69" width="57.69" height="14.14" fill="none"/>
  <path d="M168.75,187.28H167l-.9,0V187h.53a1.56,1.56,0,0,0,.61-.08.44.44,0,0,0,.24-.45v-5.71a2.91,2.91,0,0,1-.59.2l-.62.1H166v-.35h.36a3.45,3.45,0,0,0,.56-.1,2.55,2.55,0,0,0,.53-.18l.29-.18L168,180h.26v6.47q0,.36.24.45a1.62,1.62,0,0,0,.62.08h.52v.34Z" transform="translate(-13.96 -21.87)"/>
  <path d="M175,186.29a1.88,1.88,0,0,1-.48.67,2.45,2.45,0,0,1-.77.44,2.3,2.3,0,0,1-.86.16,2.57,2.57,0,0,1-.83-.13,2,2,0,0,1-.74-.38,1.62,1.62,0,0,1-.52-.62,1.71,1.71,0,0,1-.18-.77,1.75,1.75,0,0,1,.14-.72,1.91,1.91,0,0,1,.41-.59,2.16,2.16,0,0,1,.48-.41,4.14,4.14,0,0,1,.55-.31l-.13-.09c-.22-.14-.39-.26-.52-.36a2,2,0,0,1-.43-.53,1.71,1.71,0,0,1-.21-.83,1.72,1.72,0,0,1,.15-.72,1.66,1.66,0,0,1,.44-.58,1.84,1.84,0,0,1,.65-.41,2.09,2.09,0,0,1,.76-.13,2.4,2.4,0,0,1,.71.11,1.9,1.9,0,0,1,.65.33,1.5,1.5,0,0,1,.45.52,1.37,1.37,0,0,1,.18.69,1.44,1.44,0,0,1-.1.5,1.92,1.92,0,0,1-.27.46,5.34,5.34,0,0,1-.44.39,3.24,3.24,0,0,1-.53.35l.44.28a3.33,3.33,0,0,1,.65.49,1.86,1.86,0,0,1,.43.73,1.6,1.6,0,0,1,.07.33,1,1,0,0,1,0,.3A2,2,0,0,1,175,186.29Zm-.45-.85a1.07,1.07,0,0,0-.2-.36,4.15,4.15,0,0,0-.49-.41l-.6-.37-.21-.13-.6-.38a3.29,3.29,0,0,0-.6.41,1.55,1.55,0,0,0-.39.47,2.38,2.38,0,0,0-.23.49,2.14,2.14,0,0,0-.06.5,1.51,1.51,0,0,0,.5,1.13,1.84,1.84,0,0,0,.57.34,1.7,1.7,0,0,0,.67.13,2,2,0,0,0,.63-.11,2.16,2.16,0,0,0,.57-.28,1.41,1.41,0,0,0,.37-.45,1,1,0,0,0,.16-.55A1.07,1.07,0,0,0,174.57,185.44Zm-.26-4.36a1.18,1.18,0,0,0-.33-.43,1.36,1.36,0,0,0-.51-.29,1.54,1.54,0,0,0-.56-.1,2.51,2.51,0,0,0-.55.06,1.48,1.48,0,0,0-.47.24,1,1,0,0,0-.35.37,1,1,0,0,0-.13.47,1,1,0,0,0,.16.51,1.39,1.39,0,0,0,.39.37l1.38.89a3,3,0,0,0,.44-.33,2.89,2.89,0,0,0,.35-.35,1.41,1.41,0,0,0,.22-.42,1.36,1.36,0,0,0,.08-.44A1.23,1.23,0,0,0,174.31,181.08Z" transform="translate(-13.96 -21.87)"/>
  <rect x="115.44" y="154.69" width="83.12" height="14.14" fill="none"/>
  <path d="M39.75,198a.67.67,0,0,1-.25,0H33.11a.66.66,0,0,1-.26,0,.18.18,0,0,1-.11-.18.21.21,0,0,1,.12-.21l.26,0h6.37l.25,0a.22.22,0,0,1,.13.21A.17.17,0,0,1,39.75,198Z" transform="translate(-13.96 -21.87)"/>
  <path d="M45.94,199.53v1c0,.23.06.37.18.44a1.16,1.16,0,0,0,.52.07H47v.35c-.23,0-.49,0-.76,0h-1.5c-.28,0-.52,0-.74,0V201h.35a1.42,1.42,0,0,0,.53-.06c.13-.06.19-.22.19-.45v-1H42.16v-.35L45.54,194s.06-.09.09-.1.07,0,.14,0a.16.16,0,0,1,.15.06.59.59,0,0,1,0,.17v5.06h1.11v.35Zm-.79-4.46-2.68,4.11h2.68Z" transform="translate(-13.96 -21.87)"/>
  <path d="M51.88,200.08a2.73,2.73,0,0,1-.52.81,2.67,2.67,0,0,1-.78.5,2.24,2.24,0,0,1-.92.2,2,2,0,0,1-1.44-.65,1.89,1.89,0,0,1-.41-.64,2,2,0,0,1-.14-.73.64.64,0,0,1,.14-.42.53.53,0,0,1,.41-.16.56.56,0,0,1,.39.14.51.51,0,0,1,.16.4.54.54,0,0,1-.17.4.55.55,0,0,1-.38.15h-.11l-.08,0a1.29,1.29,0,0,0,.21.47,1.64,1.64,0,0,0,.36.39,2.62,2.62,0,0,0,.49.27,1.54,1.54,0,0,0,.56.1,1.18,1.18,0,0,0,.68-.2,1.56,1.56,0,0,0,.5-.52,1.91,1.91,0,0,0,.22-.73,5.61,5.61,0,0,0,.05-.79,4.31,4.31,0,0,0,0-.7,1.88,1.88,0,0,0-.17-.67,1.38,1.38,0,0,0-.36-.51A.9.9,0,0,0,50,197a1.7,1.7,0,0,0-.53.07,1.51,1.51,0,0,0-.56.32,1.49,1.49,0,0,0-.22.21l-.11.15-.06.08a.1.1,0,0,1-.09,0,.14.14,0,0,1-.15-.08.51.51,0,0,1,0-.16v-3.31a.9.9,0,0,1,0-.24s.11,0,.23,0a3.26,3.26,0,0,0,.71.22,3.74,3.74,0,0,0,.75.08l.49,0a5.46,5.46,0,0,0,.56-.11l.37-.16.18-.07a.09.09,0,0,1,.08,0s0,.06,0,.09a1.24,1.24,0,0,1-.25.36l-.29.25v0a2.82,2.82,0,0,1-.76.37,2.37,2.37,0,0,1-.83.14,2.49,2.49,0,0,1-.47,0,2.07,2.07,0,0,1-.46-.1v2.16a1.7,1.7,0,0,1,.31-.25,1,1,0,0,1,.33-.17,1.58,1.58,0,0,1,.37-.11,2.38,2.38,0,0,1,.39,0,2,2,0,0,1,.82.18,2,2,0,0,1,.67.53,2.43,2.43,0,0,1,.45.8,2.66,2.66,0,0,1,.16.9A2.38,2.38,0,0,1,51.88,200.08Z" transform="translate(-13.96 -21.87)"/>
  <rect x="0.18" y="168.83" width="57.57" height="14.02" fill="none"/>
  <path d="M100,198a.57.57,0,0,1-.24,0H93.32a.66.66,0,0,1-.26,0,.18.18,0,0,1-.11-.18.21.21,0,0,1,.12-.21l.26,0H99.7l.24,0a.21.21,0,0,1,.13.21A.17.17,0,0,1,100,198Z" transform="translate(-13.96 -21.87)"/>
  <path d="M105.9,201.31h-1.79c-.33,0-.63,0-.89,0V201h.52a1.68,1.68,0,0,0,.62-.07.44.44,0,0,0,.24-.45v-5.71a3,3,0,0,1-.6.19,5.55,5.55,0,0,1-.61.1h-.24v-.35h.37a2.83,2.83,0,0,0,.56-.09,3.75,3.75,0,0,0,.53-.19c.1,0,.19-.12.29-.18l.26-.23h.25v6.48a.44.44,0,0,0,.24.45,1.71,1.71,0,0,0,.63.07h.51v.35C106.53,201.33,106.23,201.31,105.9,201.31Z" transform="translate(-13.96 -21.87)"/>
  <rect x="57.75" y="168.83" width="57.69" height="14.02" fill="none"/>
  <path d="M169.11,199.53v1c0,.23.06.37.18.44a1.19,1.19,0,0,0,.52.07h.38v.35c-.23,0-.48,0-.76,0h-1.49c-.28,0-.53,0-.75,0V201h.35a1.49,1.49,0,0,0,.54-.06c.12-.06.18-.22.18-.45v-1h-2.93v-.35l3.38-5.17a.48.48,0,0,1,.09-.1.26.26,0,0,1,.14,0q.12,0,.15.06a.59.59,0,0,1,0,.17v5.06h1.11v.35Zm-.78-4.46-2.69,4.11h2.69Z" transform="translate(-13.96 -21.87)"/>
  <path d="M175,200.06a2.51,2.51,0,0,1-.49.84,2.36,2.36,0,0,1-.74.5,2.11,2.11,0,0,1-.86.19,1.86,1.86,0,0,1-.87-.21,1.79,1.79,0,0,1-.67-.55,3.64,3.64,0,0,1-.62-1.44,7,7,0,0,1-.14-1.53,5.62,5.62,0,0,1,.2-1.51,4,4,0,0,1,.71-1.33,2.51,2.51,0,0,1,.88-.74,2.4,2.4,0,0,1,1.11-.28,2.13,2.13,0,0,1,.6.08,1.29,1.29,0,0,1,.45.27,1.08,1.08,0,0,1,.26.38,1.11,1.11,0,0,1,.09.46.57.57,0,0,1-.14.38.52.52,0,0,1-.37.16.5.5,0,0,1-.37-.15.52.52,0,0,1-.14-.36.44.44,0,0,1,.18-.4.83.83,0,0,1,.43-.09.88.88,0,0,0-.43-.35,1.62,1.62,0,0,0-.54-.1,1.51,1.51,0,0,0-1.12.5,2.39,2.39,0,0,0-.6,1,4.92,4.92,0,0,0-.16.73,9.41,9.41,0,0,0-.05.95v.26a1.69,1.69,0,0,1,.53-.77,1.27,1.27,0,0,1,.86-.32,2.21,2.21,0,0,1,.84.17,2.4,2.4,0,0,1,.71.53,2.15,2.15,0,0,1,.47.82,2.7,2.7,0,0,1,.17.94A2.6,2.6,0,0,1,175,200.06Zm-.82-1.1a6.32,6.32,0,0,0,0-.72,1.6,1.6,0,0,0-.16-.66,1.46,1.46,0,0,0-.41-.51,1,1,0,0,0-.6-.18,1.15,1.15,0,0,0-.62.17,1.41,1.41,0,0,0-.43.49,2.06,2.06,0,0,0-.25.62,3.85,3.85,0,0,0-.06.69c0,.22,0,.41,0,.57a3.41,3.41,0,0,0,.07.58,1.72,1.72,0,0,0,.37.87,1.06,1.06,0,0,0,.84.4,1.08,1.08,0,0,0,.66-.2,1.24,1.24,0,0,0,.43-.52,2.27,2.27,0,0,0,.16-.67,6.16,6.16,0,0,0,0-.68V199Z" transform="translate(-13.96 -21.87)"/>
  <rect x="115.44" y="168.83" width="83.12" height="14.02" fill="none"/>
  <line x1="0.18" y1="0.18" x2="0.18" y2="182.86" fill="none" stroke="#000" stroke-miterlimit="10" stroke-width="0.36"/>
  <line x1="57.75" y1="0.18" x2="57.75" y2="182.86" fill="none" stroke="#000" stroke-miterlimit="10" stroke-width="0.36"/>
  <line x1="115.44" y1="0.18" x2="115.44" y2="182.86" fill="none" stroke="#000" stroke-miterlimit="10" stroke-width="0.36"/>
  <line x1="198.55" y1="0.18" x2="198.55" y2="182.86" fill="none" stroke="#000" stroke-miterlimit="10" stroke-width="0.36"/>
  <line x1="0.06" y1="0.18" x2="198.79" y2="0.18" fill="none" stroke="#000" stroke-miterlimit="10" stroke-width="0.36"/>
  <line x1="0.06" y1="14.2" x2="198.79" y2="14.2" fill="none" stroke="#000" stroke-miterlimit="10" stroke-width="0.36"/>
  <line x1="0.06" y1="28.23" x2="198.79" y2="28.23" fill="none" stroke="#000" stroke-miterlimit="10" stroke-width="0.36"/>
  <line x1="0.06" y1="42.25" x2="198.79" y2="42.25" fill="none" stroke="#000" stroke-miterlimit="10" stroke-width="0.36"/>
  <line x1="0.06" y1="56.4" x2="198.79" y2="56.4" fill="none" stroke="#000" stroke-miterlimit="10" stroke-width="0.36"/>
  <line x1="0.06" y1="70.42" x2="198.79" y2="70.42" fill="none" stroke="#000" stroke-miterlimit="10" stroke-width="0.36"/>
  <line x1="0.06" y1="84.45" x2="198.79" y2="84.45" fill="none" stroke="#000" stroke-miterlimit="10" stroke-width="0.36"/>
  <line x1="0.06" y1="98.47" x2="198.79" y2="98.47" fill="none" stroke="#000" stroke-miterlimit="10" stroke-width="0.36"/>
  <line x1="0.06" y1="112.62" x2="198.79" y2="112.62" fill="none" stroke="#000" stroke-miterlimit="10" stroke-width="0.36"/>
  <line x1="0.06" y1="126.64" x2="198.79" y2="126.64" fill="none" stroke="#000" stroke-miterlimit="10" stroke-width="0.36"/>
  <line x1="0.06" y1="140.67" x2="198.79" y2="140.67" fill="none" stroke="#000" stroke-miterlimit="10" stroke-width="0.36"/>
  <line x1="0.06" y1="154.69" x2="198.79" y2="154.69" fill="none" stroke="#000" stroke-miterlimit="10" stroke-width="0.36"/>
  <line x1="0.06" y1="168.83" x2="198.79" y2="168.83" fill="none" stroke="#000" stroke-miterlimit="10" stroke-width="0.36"/>
  <line x1="0.06" y1="182.86" x2="198.79" y2="182.86" fill="none" stroke="#000" stroke-miterlimit="10" stroke-width="0.36"/>
  <line x1="198.55" y1="0.18" x2="198.55" y2="182.86" fill="none" stroke="#000" stroke-miterlimit="10" stroke-width="0.36"/>
  <line x1="0.18" y1="0.18" x2="0.18" y2="182.86" fill="none" stroke="#000" stroke-miterlimit="10" stroke-width="0.36"/>
  <line x1="0.06" y1="182.86" x2="198.79" y2="182.86" fill="none" stroke="#000" stroke-miterlimit="10" stroke-width="0.36"/>
  <line x1="0.06" y1="0.18" x2="198.79" y2="0.18" fill="none" stroke="#000" stroke-miterlimit="10" stroke-width="0.36"/>
</svg>
