<svg id="레이어_1" data-name="레이어 1" xmlns="http://www.w3.org/2000/svg" width="115.68" height="183.04" viewBox="0 0 115.68 183.04">
  <path d="M86.31,30.75a4,4,0,0,1-.61,1.05,3.14,3.14,0,0,1-.81.7,1.86,1.86,0,0,1-1,.31,1,1,0,0,1-.6-.18,1.34,1.34,0,0,1-.41-.53c-.11.38-.2.71-.27,1s-.18.74-.24,1a.69.69,0,0,0,0,.25c0,.06.1.09.23.1h.35l.15,0c.06,0,.09,0,.09.11a.25.25,0,0,1,0,.16.19.19,0,0,1-.16.07l-.51,0-.58,0-.47,0-.45,0a.16.16,0,0,1-.11-.05.19.19,0,0,1,0-.09.25.25,0,0,1,.07-.18.44.44,0,0,1,.19,0l.28,0a.29.29,0,0,0,.2-.13.67.67,0,0,0,.09-.23l0-.08,1.24-4.9a2.14,2.14,0,0,0,.07-.67c0-.27-.12-.4-.34-.4a.45.45,0,0,0-.28.09.59.59,0,0,0-.19.26,1.65,1.65,0,0,0-.18.42c0,.15-.11.34-.16.55v0a.75.75,0,0,1,0,.15.15.15,0,0,1-.13.06c-.07,0-.12,0-.13-.06a.36.36,0,0,1,0-.14v0c.06-.25.11-.44.16-.59a2.91,2.91,0,0,1,.24-.53.9.9,0,0,1,.31-.33.8.8,0,0,1,.43-.12,1,1,0,0,1,.65.22.92.92,0,0,1,.34.6,3,3,0,0,1,.65-.58,1.49,1.49,0,0,1,.8-.24,1.29,1.29,0,0,1,1.08.55,2,2,0,0,1,.37,1.21A3.25,3.25,0,0,1,86.31,30.75ZM85.6,28.4a.58.58,0,0,0-.56-.34,1.49,1.49,0,0,0-.87.39,1.46,1.46,0,0,0-.58.81c-.08.28-.18.68-.31,1.18s-.26,1-.28,1.14a1.44,1.44,0,0,0,.29.7.68.68,0,0,0,.58.29,1.18,1.18,0,0,0,.81-.39,2.51,2.51,0,0,0,.52-.75,6.86,6.86,0,0,0,.35-1.14,5,5,0,0,0,.21-1.19A1.34,1.34,0,0,0,85.6,28.4Z" transform="translate(-55.52 -21.87)"/>
  <rect x="0.18" y="0.18" width="57.57" height="14.03" fill="none"/>
  <path d="M142.64,34.07l0,.07a.36.36,0,0,0,0,.22c0,.06.09.09.21.11h.34l.16,0c.06,0,.1,0,.1.11a.25.25,0,0,1,0,.16.18.18,0,0,1-.15.07l-.61,0h-.52l-.56,0-.55,0a.16.16,0,0,1-.11,0,.11.11,0,0,1,0-.08.3.3,0,0,1,0-.2.43.43,0,0,1,.2,0l.36,0a.7.7,0,0,0,.3-.1.63.63,0,0,0,.14-.25c.05-.22.12-.48.19-.77s.11-.44.19-.78l.11-.43a2.48,2.48,0,0,1-.59.47,1.5,1.5,0,0,1-.71.2,1.27,1.27,0,0,1-1.1-.56,2,2,0,0,1-.36-1.21,3.33,3.33,0,0,1,.23-1.17,3.28,3.28,0,0,1,.61-1,2.9,2.9,0,0,1,.8-.7,2,2,0,0,1,1-.31,1,1,0,0,1,.63.22,1.48,1.48,0,0,1,.4.55,2,2,0,0,1,.27-.37,1.93,1.93,0,0,1,.33-.32.28.28,0,0,1,.15-.08c.07,0,.11,0,.11.12Zm.25-5.7a.85.85,0,0,0-.62-.31,1.22,1.22,0,0,0-.85.44,2.87,2.87,0,0,0-.53.83c-.11.31-.22.67-.32,1.07a5.6,5.6,0,0,0-.17,1.13,1.6,1.6,0,0,0,.14.69.58.58,0,0,0,.56.35,1.33,1.33,0,0,0,.81-.34,2.21,2.21,0,0,0,.59-.68s.13-.42.33-1.19a12.32,12.32,0,0,0,.32-1.33A1,1,0,0,0,142.89,28.37Z" transform="translate(-55.52 -21.87)"/>
  <rect x="57.75" y="0.18" width="57.69" height="14.03" fill="none"/>
  <path d="M84.85,46.79H83.06l-.89.05v-.35h.53a1.65,1.65,0,0,0,.61-.07.45.45,0,0,0,.24-.46v-5.7a3,3,0,0,1-.6.19,5.18,5.18,0,0,1-.61.1H82.1V40.2h.37a2.75,2.75,0,0,0,.56-.1,2.55,2.55,0,0,0,.53-.18l.29-.18.26-.23h.26V46c0,.24.07.39.23.46a1.71,1.71,0,0,0,.63.07h.52v.35Z" transform="translate(-55.52 -21.87)"/>
  <rect x="0.18" y="14.21" width="57.57" height="14.02" fill="none"/>
  <path d="M140.27,45v1c0,.23.06.37.18.44a1.16,1.16,0,0,0,.52.07h.37v.35l-.75-.05h-1.5l-.74.05v-.35h.34a1.49,1.49,0,0,0,.54-.06.48.48,0,0,0,.19-.45V45h-2.93v-.35l3.38-5.17a.22.22,0,0,1,.09-.1.21.21,0,0,1,.13,0,.19.19,0,0,1,.16.07.54.54,0,0,1,0,.17v5.06h1.11V45Zm-.79-4.46-2.68,4.11h2.68Z" transform="translate(-55.52 -21.87)"/>
  <path d="M146.21,45.57a2.59,2.59,0,0,1-.53.8,2.35,2.35,0,0,1-.77.51,2.26,2.26,0,0,1-.92.19,1.75,1.75,0,0,1-.79-.17,1.87,1.87,0,0,1-.65-.47,1.89,1.89,0,0,1-.41-.64,2,2,0,0,1-.14-.73.64.64,0,0,1,.14-.42.53.53,0,0,1,.41-.16.52.52,0,0,1,.39.14.54.54,0,0,1,.16.4.56.56,0,0,1-.17.4.55.55,0,0,1-.38.15h-.11l-.09,0a1.47,1.47,0,0,0,.22.48,1.64,1.64,0,0,0,.36.39,1.93,1.93,0,0,0,.49.26,1.36,1.36,0,0,0,.56.11,1.26,1.26,0,0,0,.68-.2,1.56,1.56,0,0,0,.5-.52,2.17,2.17,0,0,0,.22-.73,5.61,5.61,0,0,0,.05-.79,4.31,4.31,0,0,0,0-.7,2.26,2.26,0,0,0-.17-.68,1.45,1.45,0,0,0-.37-.5.87.87,0,0,0-.57-.21,1.67,1.67,0,0,0-.52.08,1.43,1.43,0,0,0-.56.32,1.11,1.11,0,0,0-.22.21,1,1,0,0,0-.11.15l-.06.08a.13.13,0,0,1-.09,0,.14.14,0,0,1-.15-.08.51.51,0,0,1,0-.16V39.77a1.07,1.07,0,0,1,0-.25s.1,0,.23,0a3.26,3.26,0,0,0,.71.22,3.67,3.67,0,0,0,.75.08,3.19,3.19,0,0,0,.49,0,5.18,5.18,0,0,0,.56-.1l.36-.16.19-.07a.13.13,0,0,1,.08,0,.12.12,0,0,1,0,.1,1.24,1.24,0,0,1-.25.36,2.84,2.84,0,0,1-.29.24v0a2.82,2.82,0,0,1-.76.37,2.37,2.37,0,0,1-.83.14,2.49,2.49,0,0,1-.47,0,2.3,2.3,0,0,1-.47-.1v2.16a2.16,2.16,0,0,1,.32-.25,1,1,0,0,1,.33-.17,1.58,1.58,0,0,1,.37-.11,2.34,2.34,0,0,1,.38,0,1.89,1.89,0,0,1,.82.18,1.93,1.93,0,0,1,.68.53,2.36,2.36,0,0,1,.44.79,2.53,2.53,0,0,1,.17.91A2.42,2.42,0,0,1,146.21,45.57Z" transform="translate(-55.52 -21.87)"/>
  <rect x="57.75" y="14.21" width="57.69" height="14.02" fill="none"/>
  <path d="M86,59.77a2.2,2.2,0,0,1-.48.68,2.56,2.56,0,0,1-.79.49,2.75,2.75,0,0,1-.9.16,3.19,3.19,0,0,1-.45,0A3.75,3.75,0,0,1,83,61a2.09,2.09,0,0,1-1-.58,1.44,1.44,0,0,1-.41-1,.71.71,0,0,1,.15-.48.62.62,0,0,1,1.07.45.59.59,0,0,1-.21.48.64.64,0,0,1-.51.13,1.53,1.53,0,0,0,.7.61,2.38,2.38,0,0,0,1,.23,1.09,1.09,0,0,0,.44-.1,1.23,1.23,0,0,0,.36-.25,1.77,1.77,0,0,0,.35-.7A3.07,3.07,0,0,0,85,59a2.42,2.42,0,0,0,0-.4,2.94,2.94,0,0,0,0-.35,1.61,1.61,0,0,0-.42-.79,1.12,1.12,0,0,0-.81-.29H83.2a.35.35,0,0,1-.16,0A.11.11,0,0,1,83,57c0-.06,0-.1,0-.12h.43l.34,0a1,1,0,0,0,.59-.34,1.66,1.66,0,0,0,.34-.59c0-.18.08-.33.1-.44a2.42,2.42,0,0,0,0-.45,1.64,1.64,0,0,0-.07-.52A1.09,1.09,0,0,0,84.5,54a1,1,0,0,0-.35-.19,1.07,1.07,0,0,0-.37-.05l-.37,0a1.78,1.78,0,0,0-.38.1,1.47,1.47,0,0,0-.41.22,1,1,0,0,0-.3.33h.18a.61.61,0,0,1,.38.16A.48.48,0,0,1,83,55a.54.54,0,0,1-.16.4.52.52,0,0,1-.4.16.54.54,0,0,1-.42-.16.56.56,0,0,1-.15-.41,1.29,1.29,0,0,1,.35-.88,1.82,1.82,0,0,1,.82-.49,1.51,1.51,0,0,1,.38-.1,2.68,2.68,0,0,1,.41,0,3,3,0,0,1,.73.09,2.52,2.52,0,0,1,.66.32,1.58,1.58,0,0,1,.46.47,1.21,1.21,0,0,1,.18.64,1.75,1.75,0,0,1-.12.62,2.67,2.67,0,0,1-.32.56,2,2,0,0,1-.5.45,2.34,2.34,0,0,1-.61.31,2.44,2.44,0,0,1,1,.45,2.06,2.06,0,0,1,.69.88c0,.11.06.22.08.32a1.48,1.48,0,0,1,0,.35A1.84,1.84,0,0,1,86,59.77Z" transform="translate(-55.52 -21.87)"/>
  <rect x="0.18" y="28.23" width="57.57" height="14.02" fill="none"/>
  <path d="M139.9,60.82h-1.79l-.89,0v-.34h.53a1.59,1.59,0,0,0,.61-.08.44.44,0,0,0,.24-.45V54.28a3,3,0,0,1-.6.2,5.24,5.24,0,0,1-.61.09h-.24v-.34h.37a3.66,3.66,0,0,0,.56-.1,2.55,2.55,0,0,0,.53-.18,2.9,2.9,0,0,0,.29-.19,2.75,2.75,0,0,0,.26-.22h.26V60c0,.24.08.39.23.45a1.65,1.65,0,0,0,.63.08h.51v.34Z" transform="translate(-55.52 -21.87)"/>
  <path d="M146.21,59.59a2.64,2.64,0,0,1-.53.81,2.49,2.49,0,0,1-.77.5,2.28,2.28,0,0,1-.92.2,1.92,1.92,0,0,1-1.44-.65,1.85,1.85,0,0,1-.41-.63,2.07,2.07,0,0,1-.14-.74.64.64,0,0,1,.14-.42.61.61,0,0,1,.8,0,.56.56,0,0,1,.16.4.54.54,0,0,1-.17.4.55.55,0,0,1-.38.15h-.11l-.09,0a1.43,1.43,0,0,0,.22.47,1.33,1.33,0,0,0,.36.39,2,2,0,0,0,.49.27,1.55,1.55,0,0,0,.56.11,1.19,1.19,0,0,0,.68-.21,1.62,1.62,0,0,0,.5-.51,2.16,2.16,0,0,0,.22-.74,5.46,5.46,0,0,0,.05-.78,4.23,4.23,0,0,0,0-.7,2.19,2.19,0,0,0-.17-.68,1.4,1.4,0,0,0-.37-.51.92.92,0,0,0-.57-.2,1.68,1.68,0,0,0-.52.07,1.59,1.59,0,0,0-.56.33,1.07,1.07,0,0,0-.22.2,1,1,0,0,0-.11.15l-.06.09a.12.12,0,0,1-.09,0,.14.14,0,0,1-.15-.08.47.47,0,0,1,0-.16V53.8a1,1,0,0,1,0-.25s.1,0,.23,0a3.28,3.28,0,0,0,.71.23,3.67,3.67,0,0,0,.75.07l.49,0a5.46,5.46,0,0,0,.56-.11l.36-.16.19-.06a.13.13,0,0,1,.08,0,.12.12,0,0,1,0,.1,1.22,1.22,0,0,1-.25.35,2.77,2.77,0,0,1-.29.25v0a2.85,2.85,0,0,1-.76.38,2.63,2.63,0,0,1-.83.14,2.5,2.5,0,0,1-.47-.05,3.26,3.26,0,0,1-.47-.09v2.15a3.14,3.14,0,0,1,.32-.25,1.15,1.15,0,0,1,.33-.17,1.58,1.58,0,0,1,.37-.11,2.34,2.34,0,0,1,.38,0,1.89,1.89,0,0,1,.82.18,2.06,2.06,0,0,1,.68.53,2.41,2.41,0,0,1,.44.8,2.52,2.52,0,0,1,.17.9A2.38,2.38,0,0,1,146.21,59.59Z" transform="translate(-55.52 -21.87)"/>
  <rect x="57.75" y="28.23" width="57.69" height="14.02" fill="none"/>
  <path d="M85.89,73.62a2.79,2.79,0,0,1-.53.8,2.4,2.4,0,0,1-.78.51,2.22,2.22,0,0,1-.91.19,1.77,1.77,0,0,1-.8-.17,1.87,1.87,0,0,1-.65-.47,2,2,0,0,1-.55-1.37.64.64,0,0,1,.14-.42.53.53,0,0,1,.41-.16.52.52,0,0,1,.39.14.51.51,0,0,1,.16.4.52.52,0,0,1-.17.39.51.51,0,0,1-.38.16l-.11,0a.13.13,0,0,1-.08,0,1.44,1.44,0,0,0,.21.48,1.85,1.85,0,0,0,.36.38,1.83,1.83,0,0,0,.49.27,1.36,1.36,0,0,0,.56.11,1.26,1.26,0,0,0,.68-.2,1.56,1.56,0,0,0,.5-.52,2.16,2.16,0,0,0,.23-.73c0-.21,0-.47,0-.79a6.29,6.29,0,0,0,0-.7,2.26,2.26,0,0,0-.18-.68,1.34,1.34,0,0,0-.36-.5.91.91,0,0,0-.57-.21,1.74,1.74,0,0,0-.53.08,1.51,1.51,0,0,0-.56.32,1.11,1.11,0,0,0-.22.21l-.11.15a.32.32,0,0,1-.06.08.12.12,0,0,1-.09,0c-.08,0-.13,0-.15-.07a.51.51,0,0,1,0-.16V67.82a1.07,1.07,0,0,1,0-.25s.11,0,.23,0a2.81,2.81,0,0,0,.71.23,3.84,3.84,0,0,0,.76.08,3,3,0,0,0,.48,0,4.78,4.78,0,0,0,.56-.1l.37-.16.18-.07.09,0a.12.12,0,0,1,0,.1,1.24,1.24,0,0,1-.25.36,2.84,2.84,0,0,1-.29.24v0a2.58,2.58,0,0,1-.76.38,2.63,2.63,0,0,1-.83.14,2.56,2.56,0,0,1-.47,0,3.11,3.11,0,0,1-.46-.1v2.16a1.62,1.62,0,0,1,.31-.25,1,1,0,0,1,.33-.17,1.58,1.58,0,0,1,.37-.11,2.38,2.38,0,0,1,.39,0,1.92,1.92,0,0,1,.82.18,2,2,0,0,1,.68.53,2.75,2.75,0,0,1,.6,1.7A2.6,2.6,0,0,1,85.89,73.62Z" transform="translate(-55.52 -21.87)"/>
  <rect x="0.18" y="42.25" width="57.57" height="14.15" fill="none"/>
  <path d="M143.65,72.73a4.22,4.22,0,0,1-.65,1.35,2.84,2.84,0,0,1-.85.74,2.09,2.09,0,0,1-1.07.3,1.89,1.89,0,0,1-1.06-.27,1,1,0,0,1-.48-.91.56.56,0,0,1,.14-.39.5.5,0,0,1,.37-.15.5.5,0,0,1,.42.2.58.58,0,0,1,.07.47.52.52,0,0,1-.22.27.67.67,0,0,1-.33.08.83.83,0,0,0,.38.27,1.85,1.85,0,0,0,.49.12,1.47,1.47,0,0,0,.74-.12,1.61,1.61,0,0,0,.61-.45,2.86,2.86,0,0,0,.51-1.21,5.66,5.66,0,0,0,.13-1.3v-.35a1.91,1.91,0,0,1-.52.77,1.23,1.23,0,0,1-.86.32,2.09,2.09,0,0,1-1.56-.71,2.25,2.25,0,0,1-.48-.82,2.82,2.82,0,0,1-.16-.92,2.92,2.92,0,0,1,.16-1,2.54,2.54,0,0,1,.54-.81,2.11,2.11,0,0,1,.74-.53,2.56,2.56,0,0,1,.89-.16,1.82,1.82,0,0,1,.83.2,2,2,0,0,1,.66.54,3,3,0,0,1,.3.5,4.43,4.43,0,0,1,.24.65,5.13,5.13,0,0,1,.16.8,8.05,8.05,0,0,1,.06,1A5.07,5.07,0,0,1,143.65,72.73Zm-.85-3.29a4,4,0,0,0-.14-.75,1.55,1.55,0,0,0-.4-.62,1,1,0,0,0-.66-.25,1.31,1.31,0,0,0-.69.18,1.55,1.55,0,0,0-.42.51,1.7,1.7,0,0,0-.2.68,5.66,5.66,0,0,0,0,.71l0,.13,0,0a6.1,6.1,0,0,0,0,.74,2.3,2.3,0,0,0,.18.71,1.4,1.4,0,0,0,.4.5,1,1,0,0,0,.61.2,1.16,1.16,0,0,0,1.05-.68,2.64,2.64,0,0,0,.31-1.31A6.8,6.8,0,0,0,142.8,69.44Z" transform="translate(-55.52 -21.87)"/>
  <rect x="57.75" y="42.25" width="57.69" height="14.15" fill="none"/>
  <path d="M86,86.76a4.07,4.07,0,0,1-.65,1.34,2.63,2.63,0,0,1-.85.75,2.08,2.08,0,0,1-1.06.3,1.91,1.91,0,0,1-1.07-.27,1,1,0,0,1-.47-.92.51.51,0,0,1,.14-.38.47.47,0,0,1,.36-.16.49.49,0,0,1,.42.21.55.55,0,0,1,.07.46.46.46,0,0,1-.22.27.58.58,0,0,1-.33.09,1,1,0,0,0,.39.27,2.8,2.8,0,0,0,.48.12,1.72,1.72,0,0,0,.74-.12,1.76,1.76,0,0,0,.61-.45A2.92,2.92,0,0,0,85,87.06a5.72,5.72,0,0,0,.13-1.3V85.4a2,2,0,0,1-.51.78,1.32,1.32,0,0,1-.87.32,2,2,0,0,1-.86-.2,2.17,2.17,0,0,1-.7-.51,2.33,2.33,0,0,1-.48-.82,2.83,2.83,0,0,1-.15-.93,2.93,2.93,0,0,1,.15-1,2.3,2.3,0,0,1,.55-.8,2,2,0,0,1,.73-.53,2.35,2.35,0,0,1,.89-.16,1.81,1.81,0,0,1,.83.19,2,2,0,0,1,.66.55,2.9,2.9,0,0,1,.3.49,3.82,3.82,0,0,1,.24.65,5,5,0,0,1,.16.81,7.91,7.91,0,0,1,.07,1A5.14,5.14,0,0,1,86,86.76Zm-.85-3.3a3.91,3.91,0,0,0-.14-.74,1.43,1.43,0,0,0-.4-.63,1,1,0,0,0-.66-.24,1.31,1.31,0,0,0-.69.18,1.59,1.59,0,0,0-.42.51,1.82,1.82,0,0,0-.2.67,6.24,6.24,0,0,0,0,.71v.19a6.41,6.41,0,0,0,0,.73,2.23,2.23,0,0,0,.18.71,1.44,1.44,0,0,0,.4.51,1,1,0,0,0,.61.19,1.16,1.16,0,0,0,1-.68,2.6,2.6,0,0,0,.31-1.3A6.86,6.86,0,0,0,85.11,83.46Z" transform="translate(-55.52 -21.87)"/>
  <rect x="0.18" y="56.4" width="57.57" height="14.03" fill="none"/>
  <path d="M143.57,87.64a2.73,2.73,0,0,1-.52.81,2.67,2.67,0,0,1-.78.5,2.24,2.24,0,0,1-.92.2,1.92,1.92,0,0,1-1.44-.65,1.85,1.85,0,0,1-.41-.63,2.07,2.07,0,0,1-.14-.74.64.64,0,0,1,.14-.42.61.61,0,0,1,.8,0,.52.52,0,0,1,.16.4.54.54,0,0,1-.17.4.55.55,0,0,1-.38.15h-.11l-.08,0a1.22,1.22,0,0,0,.21.47,1.66,1.66,0,0,0,.36.39,2.62,2.62,0,0,0,.49.27,1.55,1.55,0,0,0,.56.11,1.19,1.19,0,0,0,.68-.21,1.56,1.56,0,0,0,.5-.52,1.91,1.91,0,0,0,.22-.73,5.56,5.56,0,0,0,0-.78,4.16,4.16,0,0,0,0-.7,1.94,1.94,0,0,0-.17-.68,1.38,1.38,0,0,0-.36-.51,1,1,0,0,0-.57-.2,1.74,1.74,0,0,0-.53.07,1.53,1.53,0,0,0-.56.33,1.07,1.07,0,0,0-.22.2l-.11.15s0,.07-.06.09a.12.12,0,0,1-.09,0,.14.14,0,0,1-.15-.08.47.47,0,0,1,0-.16v-3.3a1,1,0,0,1,0-.25s.11,0,.23,0a3.28,3.28,0,0,0,.71.23,3.74,3.74,0,0,0,.75.07l.49,0a5.46,5.46,0,0,0,.56-.11l.37-.16.18-.06a.16.16,0,0,1,.09,0,.15.15,0,0,1,0,.09,1.12,1.12,0,0,1-.25.36l-.29.25v0a3.18,3.18,0,0,1-.76.38,2.63,2.63,0,0,1-.83.14,2.5,2.5,0,0,1-.47,0,2.88,2.88,0,0,1-.46-.09v2.15a2.27,2.27,0,0,1,.31-.25,1.3,1.3,0,0,1,.33-.17,1.58,1.58,0,0,1,.37-.11,2.38,2.38,0,0,1,.39,0,2,2,0,0,1,.82.18,2.12,2.12,0,0,1,.67.53,2.43,2.43,0,0,1,.45.8,2.75,2.75,0,0,1,.16.9A2.38,2.38,0,0,1,143.57,87.64Z" transform="translate(-55.52 -21.87)"/>
  <rect x="57.75" y="56.4" width="57.69" height="14.03" fill="none"/>
  <path d="M82.21,103H80.42c-.33,0-.63,0-.89,0v-.35h.53a1.62,1.62,0,0,0,.61-.07.46.46,0,0,0,.24-.46v-5.7a3.72,3.72,0,0,1-.59.19l-.62.1h-.24v-.35h.37a2.75,2.75,0,0,0,.56-.1,2.55,2.55,0,0,0,.53-.18l.29-.18.26-.23h.26v6.47a.45.45,0,0,0,.23.46,1.71,1.71,0,0,0,.63.07h.52v.35C82.84,103,82.54,103,82.21,103Z" transform="translate(-55.52 -21.87)"/>
  <path d="M88.52,101.78a2.27,2.27,0,0,1-1.3,1.32,2.23,2.23,0,0,1-.92.19,1.9,1.9,0,0,1-.79-.17,2,2,0,0,1-.65-.47,1.89,1.89,0,0,1-.41-.64,2.06,2.06,0,0,1-.14-.73.64.64,0,0,1,.14-.42.53.53,0,0,1,.41-.16.52.52,0,0,1,.39.14.51.51,0,0,1,.16.4.52.52,0,0,1-.17.39.55.55,0,0,1-.38.15h-.11a.13.13,0,0,1-.08,0,1.26,1.26,0,0,0,.21.48,1.61,1.61,0,0,0,.36.38,1.83,1.83,0,0,0,.49.27,1.36,1.36,0,0,0,.56.11,1.26,1.26,0,0,0,.68-.2,1.66,1.66,0,0,0,.5-.52,2,2,0,0,0,.22-.73,5.61,5.61,0,0,0,0-.79,6.29,6.29,0,0,0,0-.7,2.26,2.26,0,0,0-.18-.68,1.34,1.34,0,0,0-.36-.5.91.91,0,0,0-.57-.21,1.74,1.74,0,0,0-.53.08,1.51,1.51,0,0,0-.56.32,1.07,1.07,0,0,0-.22.2l-.11.16-.06.08a.12.12,0,0,1-.09,0c-.08,0-.13,0-.15-.07a.51.51,0,0,1,0-.16V96a1,1,0,0,1,0-.25s.11,0,.23,0a3.28,3.28,0,0,0,.71.23,3.74,3.74,0,0,0,.75.08,3.1,3.1,0,0,0,.49,0,5.18,5.18,0,0,0,.56-.1l.37-.17.18-.06a.16.16,0,0,1,.09,0,.16.16,0,0,1,0,.1,1.1,1.1,0,0,1-.25.35,1.94,1.94,0,0,1-.29.25v0a2.85,2.85,0,0,1-.76.38,2.63,2.63,0,0,1-.83.14,2.56,2.56,0,0,1-.47,0,2.85,2.85,0,0,1-.46-.1V99a1.62,1.62,0,0,1,.31-.24,1.35,1.35,0,0,1,.33-.18,1.56,1.56,0,0,1,.37-.1,2.34,2.34,0,0,1,.39,0,2,2,0,0,1,.82.19,2,2,0,0,1,.67.53,2.39,2.39,0,0,1,.45.79,2.76,2.76,0,0,1,.16.91A2.33,2.33,0,0,1,88.52,101.78Z" transform="translate(-55.52 -21.87)"/>
  <rect x="0.18" y="70.42" width="57.57" height="14.02" fill="none"/>
  <path d="M143.67,102a2.33,2.33,0,0,1-.48.68,2.5,2.5,0,0,1-1.7.64,3.15,3.15,0,0,1-.44,0,2.59,2.59,0,0,1-.4-.09,2.11,2.11,0,0,1-1-.58,1.45,1.45,0,0,1-.41-1,.68.68,0,0,1,.16-.47.62.62,0,0,1,1.07.45.57.57,0,0,1-.21.47.62.62,0,0,1-.51.13,1.43,1.43,0,0,0,.7.61,2.18,2.18,0,0,0,1,.23.91.91,0,0,0,.43-.1,1.12,1.12,0,0,0,.37-.24,1.84,1.84,0,0,0,.35-.7,3.1,3.1,0,0,0,.09-.78,2.49,2.49,0,0,0,0-.4,2.75,2.75,0,0,0-.05-.34,1.64,1.64,0,0,0-.42-.8,1.16,1.16,0,0,0-.81-.29h-.52l-.16,0a.12.12,0,0,1-.08-.12.14.14,0,0,1,0-.12h.43l.34,0a1,1,0,0,0,.58-.35,1.54,1.54,0,0,0,.35-.59c0-.18.07-.33.1-.44a2.39,2.39,0,0,0,0-.44,1.69,1.69,0,0,0-.08-.53.94.94,0,0,0-.28-.45.9.9,0,0,0-.34-.2,1.38,1.38,0,0,0-.37-.05,2.31,2.31,0,0,0-.37,0,2.66,2.66,0,0,0-.38.1,1.5,1.5,0,0,0-.41.23,1,1,0,0,0-.3.32h.18a.67.67,0,0,1,.38.16.54.54,0,0,1,.13.38.56.56,0,0,1-.16.4.61.61,0,0,1-.82,0,.59.59,0,0,1-.15-.41,1.27,1.27,0,0,1,.35-.89,2.41,2.41,0,0,1,1.2-.59l.41,0a2.57,2.57,0,0,1,.73.1,2.22,2.22,0,0,1,.66.31,1.86,1.86,0,0,1,.46.47,1.24,1.24,0,0,1,.18.64,1.5,1.5,0,0,1-.13.62,2.08,2.08,0,0,1-.31.56,2.23,2.23,0,0,1-.5.46,2.69,2.69,0,0,1-.61.31,2.31,2.31,0,0,1,1,.44,2.12,2.12,0,0,1,.68.88,2.77,2.77,0,0,1,.09.33,1.37,1.37,0,0,1,0,.34A1.9,1.9,0,0,1,143.67,102Z" transform="translate(-55.52 -21.87)"/>
  <rect x="57.75" y="70.42" width="57.69" height="14.02" fill="none"/>
  <path d="M82.58,115.26v1c0,.23.06.38.18.44a1.12,1.12,0,0,0,.52.08h.38v.34c-.23,0-.49,0-.76,0H81.4c-.28,0-.52,0-.74,0v-.34H81a1.36,1.36,0,0,0,.53-.07c.13-.06.19-.21.19-.45v-1H78.8v-.34l3.38-5.17c0-.06.06-.1.09-.11s.07,0,.14,0a.16.16,0,0,1,.15.06.59.59,0,0,1,0,.17v5.07h1.11v.34Zm-.79-4.46-2.68,4.12h2.68Z" transform="translate(-55.52 -21.87)"/>
  <path d="M88.52,115.81a2.73,2.73,0,0,1-.52.81,2.67,2.67,0,0,1-.78.5,2.24,2.24,0,0,1-.92.2,2,2,0,0,1-1.44-.65,2,2,0,0,1-.41-.63,2.11,2.11,0,0,1-.14-.74.64.64,0,0,1,.14-.42.61.61,0,0,1,.8,0,.51.51,0,0,1,.16.4.54.54,0,0,1-.17.4.55.55,0,0,1-.38.15h-.11l-.08,0a1.22,1.22,0,0,0,.21.47,1.87,1.87,0,0,0,.36.39,2.62,2.62,0,0,0,.49.27,1.55,1.55,0,0,0,.56.11,1.19,1.19,0,0,0,.68-.21,1.56,1.56,0,0,0,.5-.52,1.91,1.91,0,0,0,.22-.73,5.56,5.56,0,0,0,0-.78,6,6,0,0,0,0-.7,2.18,2.18,0,0,0-.18-.68,1.38,1.38,0,0,0-.36-.51.9.9,0,0,0-.57-.2,1.74,1.74,0,0,0-.53.07,1.66,1.66,0,0,0-.56.32,1.49,1.49,0,0,0-.22.21l-.11.15-.06.09a.12.12,0,0,1-.09,0,.14.14,0,0,1-.15-.08.51.51,0,0,1,0-.16V110a1,1,0,0,1,0-.25s.11,0,.23,0a3.26,3.26,0,0,0,.71.22,3.74,3.74,0,0,0,.75.08l.49,0a5.46,5.46,0,0,0,.56-.11l.37-.16.18-.07a.18.18,0,0,1,.09,0,.15.15,0,0,1,0,.09,1.24,1.24,0,0,1-.25.36l-.29.25v0a3.18,3.18,0,0,1-.76.38,2.63,2.63,0,0,1-.83.14,2.59,2.59,0,0,1-.47,0,2.88,2.88,0,0,1-.46-.09V113a2.27,2.27,0,0,1,.31-.25,1,1,0,0,1,.33-.17,1.58,1.58,0,0,1,.37-.11,2.38,2.38,0,0,1,.39,0,2,2,0,0,1,.82.18,2,2,0,0,1,.67.53,2.43,2.43,0,0,1,.45.8,2.7,2.7,0,0,1,.16.9A2.38,2.38,0,0,1,88.52,115.81Z" transform="translate(-55.52 -21.87)"/>
  <rect x="0.18" y="84.45" width="57.57" height="14.03" fill="none"/>
  <path d="M142.54,117h-1.79c-.33,0-.63,0-.89,0v-.34h.52a1.62,1.62,0,0,0,.62-.08.44.44,0,0,0,.24-.45V110.5a3,3,0,0,1-.6.19,3.88,3.88,0,0,1-.61.1h-.24v-.34H140l.21,0a2.83,2.83,0,0,0,.56-.09,3.75,3.75,0,0,0,.53-.19,2.29,2.29,0,0,0,.29-.18l.26-.22h.25v6.47q0,.36.24.45a1.65,1.65,0,0,0,.63.08h.51v.34C143.17,117.06,142.87,117,142.54,117Z" transform="translate(-55.52 -21.87)"/>
  <rect x="57.75" y="84.45" width="57.69" height="14.03" fill="none"/>
  <path d="M83.82,127.74a.62.62,0,0,1-.24,0H77.19a.72.72,0,0,1-.26,0,.17.17,0,0,1-.11-.18.21.21,0,0,1,.12-.21,1.34,1.34,0,0,1,.26,0h6.36l.25,0a.21.21,0,0,1,.13.21A.17.17,0,0,1,83.82,127.74Z" transform="translate(-55.52 -21.87)"/>
  <path d="M89.77,131.06H88c-.33,0-.63,0-.89.05v-.35h.52a1.68,1.68,0,0,0,.62-.07.46.46,0,0,0,.23-.46v-5.7a3.72,3.72,0,0,1-.59.19l-.61.1H87v-.35h.37a2.87,2.87,0,0,0,.56-.1,2.76,2.76,0,0,0,.53-.18l.29-.18a1.84,1.84,0,0,0,.25-.23h.26v6.47a.44.44,0,0,0,.24.46,1.71,1.71,0,0,0,.63.07h.51v.35C90.4,131.08,90.1,131.07,89.77,131.06Z" transform="translate(-55.52 -21.87)"/>
  <rect x="0.18" y="98.47" width="57.57" height="14.14" fill="none"/>
  <path d="M138.87,127.74a.62.62,0,0,1-.24,0h-6.39a.72.72,0,0,1-.26,0,.18.18,0,0,1-.11-.18.21.21,0,0,1,.12-.21,1.34,1.34,0,0,1,.26,0h6.36l.25,0a.21.21,0,0,1,.13.21A.17.17,0,0,1,138.87,127.74Z" transform="translate(-55.52 -21.87)"/>
  <path d="M145.18,129.29v1a.48.48,0,0,0,.19.45,1.13,1.13,0,0,0,.51.07h.38v.35c-.23,0-.48,0-.75-.05H144a7.4,7.4,0,0,0-.74.05v-.35h.34a1.49,1.49,0,0,0,.54-.06c.12-.07.18-.22.18-.46v-1H141.4v-.35l3.39-5.17a.38.38,0,0,1,.08-.11l.14,0c.08,0,.13,0,.15.07a.35.35,0,0,1,0,.17v5.06h1.11v.35Zm-.78-4.46-2.69,4.11h2.69Z" transform="translate(-55.52 -21.87)"/>
  <path d="M151,129.83a2.52,2.52,0,0,1-.53.81,2.35,2.35,0,0,1-.77.51,2.26,2.26,0,0,1-.92.19,1.94,1.94,0,0,1-.8-.17,2,2,0,0,1-.64-.47,1.89,1.89,0,0,1-.41-.64,1.86,1.86,0,0,1-.14-.73.59.59,0,0,1,.14-.42.56.56,0,0,1,1,.38.5.5,0,0,1-.18.39.51.51,0,0,1-.37.15h-.11l-.09,0a1.47,1.47,0,0,0,.22.48,1.57,1.57,0,0,0,.35.38,1.88,1.88,0,0,0,.5.27,1.51,1.51,0,0,0,.56.11,1.28,1.28,0,0,0,.68-.2,1.63,1.63,0,0,0,.49-.52,2,2,0,0,0,.23-.73,5.82,5.82,0,0,0,0-.79,6.29,6.29,0,0,0,0-.7,2.6,2.6,0,0,0-.17-.68,1.39,1.39,0,0,0-.37-.5.87.87,0,0,0-.57-.21,1.78,1.78,0,0,0-.53.08,1.59,1.59,0,0,0-.56.32,1,1,0,0,0-.21.2l-.11.15a.25.25,0,0,1-.07.09.11.11,0,0,1-.08,0c-.08,0-.13,0-.15-.07a.32.32,0,0,1,0-.16V124a.66.66,0,0,1,0-.25s.1,0,.22,0a3.37,3.37,0,0,0,.72.23,3.67,3.67,0,0,0,.75.08,3,3,0,0,0,.48,0,4.92,4.92,0,0,0,.57-.1l.36-.17.19-.06.08,0a.12.12,0,0,1,0,.1,1,1,0,0,1-.25.35,1.54,1.54,0,0,1-.29.25v0a2.79,2.79,0,0,1-.75.38,2.63,2.63,0,0,1-.83.14,2.42,2.42,0,0,1-.47,0,3,3,0,0,1-.47-.1V127a2,2,0,0,1,.31-.24,1.24,1.24,0,0,1,.34-.18,1.36,1.36,0,0,1,.36-.1,2.58,2.58,0,0,1,.39,0,2,2,0,0,1,1.5.72,2.75,2.75,0,0,1,.6,1.7A2.32,2.32,0,0,1,151,129.83Z" transform="translate(-55.52 -21.87)"/>
  <rect x="57.75" y="98.47" width="57.69" height="14.14" fill="none"/>
  <path d="M83.82,141.76a.45.45,0,0,1-.24,0H77.19a.51.51,0,0,1-.26,0c-.08,0-.11-.09-.11-.18a.19.19,0,0,1,.12-.2.75.75,0,0,1,.26,0h6.36a.73.73,0,0,1,.25,0,.19.19,0,0,1,.13.2A.17.17,0,0,1,83.82,141.76Z" transform="translate(-55.52 -21.87)"/>
  <path d="M90.9,144a2.2,2.2,0,0,1-.48.68,2.56,2.56,0,0,1-.79.49,2.76,2.76,0,0,1-.91.16,2.06,2.06,0,0,1-.44,0l-.4-.08a2.19,2.19,0,0,1-1-.58,1.49,1.49,0,0,1-.41-1,.68.68,0,0,1,.15-.47.61.61,0,0,1,.47-.17.58.58,0,0,1,.44.17.63.63,0,0,1,.17.45.6.6,0,0,1-.21.48.66.66,0,0,1-.51.12,1.49,1.49,0,0,0,.7.62,2.31,2.31,0,0,0,1,.23,1,1,0,0,0,.43-.1,1.15,1.15,0,0,0,.37-.25,1.7,1.7,0,0,0,.34-.7,2.66,2.66,0,0,0,.1-.77c0-.16,0-.29,0-.4s0-.25,0-.35a1.5,1.5,0,0,0-.43-.79,1.09,1.09,0,0,0-.8-.3h-.52a.34.34,0,0,1-.16,0,.12.12,0,0,1-.08-.12.13.13,0,0,1,.05-.11l.11,0h.32l.34,0a1,1,0,0,0,.58-.34,1.54,1.54,0,0,0,.35-.59c0-.18.07-.33.1-.45a3.42,3.42,0,0,0,0-.44,1.74,1.74,0,0,0-.08-.53,1,1,0,0,0-.28-.45.77.77,0,0,0-.34-.19,1.06,1.06,0,0,0-.37-.06,2.58,2.58,0,0,0-.38,0l-.37.09a1.81,1.81,0,0,0-.41.23,1,1,0,0,0-.3.32h.18a.71.71,0,0,1,.38.17.57.57,0,0,1,0,.77.5.5,0,0,1-.39.16.54.54,0,0,1-.42-.16.54.54,0,0,1-.16-.41,1.26,1.26,0,0,1,.36-.88,2.16,2.16,0,0,1,1.2-.59,2.68,2.68,0,0,1,.41,0,3,3,0,0,1,.73.09,2.5,2.5,0,0,1,.66.31,1.9,1.9,0,0,1,.46.48,1.21,1.21,0,0,1,.18.63,1.58,1.58,0,0,1-.13.63,2.43,2.43,0,0,1-.31.56,2.83,2.83,0,0,1-.51.45,2.43,2.43,0,0,1-.6.31,2.34,2.34,0,0,1,1,.44,2.09,2.09,0,0,1,.69.89,2.23,2.23,0,0,1,.09.32,1.45,1.45,0,0,1,0,.35A1.86,1.86,0,0,1,90.9,144Z" transform="translate(-55.52 -21.87)"/>
  <rect x="0.18" y="112.62" width="57.57" height="14.02" fill="none"/>
  <path d="M138.87,141.76a.45.45,0,0,1-.24,0h-6.39a.51.51,0,0,1-.26,0,.17.17,0,0,1-.11-.18.19.19,0,0,1,.12-.2.75.75,0,0,1,.26,0h6.36a.73.73,0,0,1,.25,0,.19.19,0,0,1,.13.2A.17.17,0,0,1,138.87,141.76Z" transform="translate(-55.52 -21.87)"/>
  <path d="M144.82,145.09H143c-.33,0-.63,0-.9,0v-.34h.53a1.62,1.62,0,0,0,.62-.08.45.45,0,0,0,.23-.45v-5.71a2.92,2.92,0,0,1-.59.19,3.88,3.88,0,0,1-.61.1h-.24v-.34l.16,0h.21a2.83,2.83,0,0,0,.56-.09,3.24,3.24,0,0,0,.52-.19,2.38,2.38,0,0,0,.3-.18l.25-.22h.26v6.47a.44.44,0,0,0,.24.45,1.65,1.65,0,0,0,.63.08h.51v.34C145.45,145.11,145.15,145.09,144.82,145.09Z" transform="translate(-55.52 -21.87)"/>
  <path d="M151,143.86a2.76,2.76,0,0,1-.53.81,2.49,2.49,0,0,1-.77.5,2.28,2.28,0,0,1-.92.2,1.8,1.8,0,0,1-.8-.18,1.72,1.72,0,0,1-.64-.47,1.89,1.89,0,0,1-.41-.64,1.83,1.83,0,0,1-.14-.73.59.59,0,0,1,.14-.42.55.55,0,0,1,.41-.16.56.56,0,0,1,.38.14.55.55,0,0,1-.38,1h-.11l-.09,0a1.52,1.52,0,0,0,.22.47,1.82,1.82,0,0,0,.35.39,2.7,2.7,0,0,0,.5.27,1.51,1.51,0,0,0,.56.11,1.21,1.21,0,0,0,.68-.21,1.53,1.53,0,0,0,.49-.52,1.9,1.9,0,0,0,.23-.73,5.75,5.75,0,0,0,0-.78,6.37,6.37,0,0,0,0-.71,2.52,2.52,0,0,0-.17-.67,1.53,1.53,0,0,0-.37-.51.86.86,0,0,0-.57-.2,1.79,1.79,0,0,0-.53.07,1.76,1.76,0,0,0-.56.32,1.39,1.39,0,0,0-.21.21,1,1,0,0,0-.11.15l-.07.09a.11.11,0,0,1-.08,0,.14.14,0,0,1-.15-.08.32.32,0,0,1,0-.16v-3.31a.63.63,0,0,1,0-.24s.1,0,.22,0a3.35,3.35,0,0,0,.72.22,3.67,3.67,0,0,0,.75.08l.48,0a5.12,5.12,0,0,0,.57-.11l.36-.16.19-.07.08,0a.1.1,0,0,1,0,.09,1.07,1.07,0,0,1-.25.36,2.92,2.92,0,0,1-.29.25v0a3.11,3.11,0,0,1-.75.38,2.62,2.62,0,0,1-.83.13,2.42,2.42,0,0,1-.47,0,3,3,0,0,1-.47-.09v2.15a3.09,3.09,0,0,1,.31-.25,1,1,0,0,1,.34-.17,1.37,1.37,0,0,1,.36-.11,2.56,2.56,0,0,1,.39,0,1.92,1.92,0,0,1,1.5.71,2.6,2.6,0,0,1,.44.8,2.47,2.47,0,0,1,.16.9A2.37,2.37,0,0,1,151,143.86Z" transform="translate(-55.52 -21.87)"/>
  <rect x="57.75" y="112.62" width="57.69" height="14.02" fill="none"/>
  <path d="M83.82,155.91a.62.62,0,0,1-.24,0H77.19a.72.72,0,0,1-.26,0,.17.17,0,0,1-.11-.18.21.21,0,0,1,.12-.21,1.34,1.34,0,0,1,.26,0h6.36l.25,0a.2.2,0,0,1,.13.21A.17.17,0,0,1,83.82,155.91Z" transform="translate(-55.52 -21.87)"/>
  <path d="M90.8,158a2.52,2.52,0,0,1-.53.81,2.35,2.35,0,0,1-.77.51,2.26,2.26,0,0,1-.92.19,1.9,1.9,0,0,1-.79-.17,2,2,0,0,1-.65-.47,1.89,1.89,0,0,1-.41-.64,2.06,2.06,0,0,1-.14-.73.63.63,0,0,1,.14-.42.53.53,0,0,1,.41-.16.52.52,0,0,1,.39.14.53.53,0,0,1,.16.39.53.53,0,0,1-.17.4.55.55,0,0,1-.38.15H87a.13.13,0,0,1-.08,0,1.26,1.26,0,0,0,.21.48,1.43,1.43,0,0,0,.36.38,1.69,1.69,0,0,0,.49.27,1.55,1.55,0,0,0,.56.11,1.19,1.19,0,0,0,.68-.21,1.53,1.53,0,0,0,.5-.51,2.17,2.17,0,0,0,.22-.73,5.61,5.61,0,0,0,0-.79,4.23,4.23,0,0,0,0-.7,2,2,0,0,0-.17-.68,1.3,1.3,0,0,0-.37-.51.92.92,0,0,0-.57-.2,1.67,1.67,0,0,0-.52.08,1.51,1.51,0,0,0-.56.32,1.07,1.07,0,0,0-.22.2l-.11.15-.06.09a.12.12,0,0,1-.09,0c-.08,0-.13,0-.15-.07a.57.57,0,0,1,0-.16v-3.31a1,1,0,0,1,0-.25s.11,0,.23,0a3.28,3.28,0,0,0,.71.23,3.67,3.67,0,0,0,.75.07,3.4,3.4,0,0,0,.49,0,3.65,3.65,0,0,0,.56-.11l.36-.16.19-.06a.11.11,0,0,1,.08,0,.12.12,0,0,1,0,.1,1.1,1.1,0,0,1-.25.35,2.77,2.77,0,0,1-.29.25v0a2.85,2.85,0,0,1-.76.38,2.63,2.63,0,0,1-.83.14,3.73,3.73,0,0,1-.47,0l-.47-.1v2.15a2,2,0,0,1,.32-.24,1.35,1.35,0,0,1,.33-.18,1.56,1.56,0,0,1,.37-.1,1.61,1.61,0,0,1,.39,0,1.75,1.75,0,0,1,.81.19,1.9,1.9,0,0,1,.68.52,2.51,2.51,0,0,1,.44.8,2.53,2.53,0,0,1,.17.91A2.33,2.33,0,0,1,90.8,158Z" transform="translate(-55.52 -21.87)"/>
  <rect x="0.18" y="126.64" width="57.57" height="14.03" fill="none"/>
  <path d="M141.51,155.91a.65.65,0,0,1-.25,0h-6.39a.69.69,0,0,1-.25,0,.17.17,0,0,1-.11-.18.21.21,0,0,1,.12-.21l.25,0h6.37l.25,0a.2.2,0,0,1,.13.21A.17.17,0,0,1,141.51,155.91Z" transform="translate(-55.52 -21.87)"/>
  <path d="M148.57,157.12a4.45,4.45,0,0,1-.65,1.35,2.84,2.84,0,0,1-.85.74,2.12,2.12,0,0,1-1.07.3,1.87,1.87,0,0,1-1.06-.27,1,1,0,0,1-.48-.91.56.56,0,0,1,.14-.39.48.48,0,0,1,.37-.15.5.5,0,0,1,.42.2.58.58,0,0,1,.06.47.45.45,0,0,1-.21.26.64.64,0,0,1-.34.09.86.86,0,0,0,.39.27,1.58,1.58,0,0,0,1.23,0,1.58,1.58,0,0,0,.6-.45,2.75,2.75,0,0,0,.52-1.21,5.66,5.66,0,0,0,.13-1.3v-.36a1.94,1.94,0,0,1-.52.78,1.27,1.27,0,0,1-.86.32,2,2,0,0,1-.86-.19,2.1,2.1,0,0,1-.7-.52,2.36,2.36,0,0,1-.49-.82,2.82,2.82,0,0,1-.15-.92,2.88,2.88,0,0,1,.15-1,2.38,2.38,0,0,1,.55-.81,2.17,2.17,0,0,1,.73-.53,2.44,2.44,0,0,1,.9-.16,1.84,1.84,0,0,1,.83.19,2.16,2.16,0,0,1,.66.55,5.5,5.5,0,0,1,.3.5,3.7,3.7,0,0,1,.23.64,4.1,4.1,0,0,1,.17.81,8,8,0,0,1,.06,1A5.51,5.51,0,0,1,148.57,157.12Zm-.86-3.29a4,4,0,0,0-.13-.75,1.55,1.55,0,0,0-.4-.62,1,1,0,0,0-.66-.25,1.27,1.27,0,0,0-.69.18,1.55,1.55,0,0,0-.42.51,1.65,1.65,0,0,0-.21.68,6.12,6.12,0,0,0,0,.71v.18a6.29,6.29,0,0,0,0,.73,2,2,0,0,0,.19.71,1.34,1.34,0,0,0,.4.51,1,1,0,0,0,.61.19,1.16,1.16,0,0,0,1-.67,2.76,2.76,0,0,0,.31-1.31A6.73,6.73,0,0,0,147.71,153.83Z" transform="translate(-55.52 -21.87)"/>
  <rect x="57.75" y="126.64" width="57.69" height="14.03" fill="none"/>
  <path d="M83.82,169.93a.45.45,0,0,1-.24,0H77.19a.51.51,0,0,1-.26,0,.17.17,0,0,1-.11-.18.19.19,0,0,1,.12-.2.75.75,0,0,1,.26,0h6.36a.73.73,0,0,1,.25,0,.19.19,0,0,1,.13.2A.17.17,0,0,1,83.82,169.93Z" transform="translate(-55.52 -21.87)"/>
  <path d="M90.88,171.15a4.28,4.28,0,0,1-.65,1.34,2.71,2.71,0,0,1-.85.74,2,2,0,0,1-1.07.31,1.89,1.89,0,0,1-1.06-.27,1,1,0,0,1-.48-.92.56.56,0,0,1,.14-.39.5.5,0,0,1,.37-.15.49.49,0,0,1,.42.21.52.52,0,0,1,.06.46.41.41,0,0,1-.21.27.62.62,0,0,1-.34.09,1.13,1.13,0,0,0,.39.27,2.35,2.35,0,0,0,.49.11,1.58,1.58,0,0,0,.74-.11,1.73,1.73,0,0,0,.6-.46,2.75,2.75,0,0,0,.52-1.2,5.75,5.75,0,0,0,.13-1.31v-.35a1.84,1.84,0,0,1-.52.77,1.23,1.23,0,0,1-.86.33,2,2,0,0,1-.86-.2,2.07,2.07,0,0,1-.7-.51,2.36,2.36,0,0,1-.49-.82,3.11,3.11,0,0,1,0-1.91,2.77,2.77,0,0,1,.55-.81,2.08,2.08,0,0,1,.74-.52,2.35,2.35,0,0,1,.89-.17,1.82,1.82,0,0,1,.83.2,2,2,0,0,1,.66.55,2.9,2.9,0,0,1,.3.49,4.91,4.91,0,0,1,.24.65,5,5,0,0,1,.16.81,8,8,0,0,1,.06,1A5.51,5.51,0,0,1,90.88,171.15Zm-.85-3.3a4.92,4.92,0,0,0-.14-.74,1.52,1.52,0,0,0-.4-.63,1,1,0,0,0-.66-.25,1.19,1.19,0,0,0-.69.19,1.41,1.41,0,0,0-.42.5,1.6,1.6,0,0,0-.2.68,4.29,4.29,0,0,0,0,.71v.19a4.41,4.41,0,0,0,0,.73,2,2,0,0,0,.18.71,1.34,1.34,0,0,0,.4.51,1,1,0,0,0,.61.19,1.16,1.16,0,0,0,1.05-.68,2.6,2.6,0,0,0,.31-1.3A6.86,6.86,0,0,0,90,167.85Z" transform="translate(-55.52 -21.87)"/>
  <rect x="0.18" y="140.67" width="57.57" height="14.02" fill="none"/>
  <path d="M141.51,169.93a.47.47,0,0,1-.25,0h-6.39a.49.49,0,0,1-.25,0,.17.17,0,0,1-.11-.18.19.19,0,0,1,.12-.2.73.73,0,0,1,.25,0h6.37a.73.73,0,0,1,.25,0,.19.19,0,0,1,.13.2A.17.17,0,0,1,141.51,169.93Z" transform="translate(-55.52 -21.87)"/>
  <path d="M148.49,172a2.76,2.76,0,0,1-.53.81,2.49,2.49,0,0,1-.77.5,2.28,2.28,0,0,1-.92.2,1.8,1.8,0,0,1-.8-.18,1.72,1.72,0,0,1-.64-.47,1.89,1.89,0,0,1-.41-.64,1.83,1.83,0,0,1-.14-.73.59.59,0,0,1,.14-.42.53.53,0,0,1,.41-.16.54.54,0,0,1,.38.14.55.55,0,0,1-.38.95h-.11l-.09,0a1.52,1.52,0,0,0,.22.47,1.82,1.82,0,0,0,.35.39,2.7,2.7,0,0,0,.5.27,1.54,1.54,0,0,0,.56.1,1.2,1.2,0,0,0,.68-.2,1.44,1.44,0,0,0,.49-.52,1.9,1.9,0,0,0,.23-.73,5.82,5.82,0,0,0,0-.79,6.29,6.29,0,0,0,0-.7,2.19,2.19,0,0,0-.17-.67,1.4,1.4,0,0,0-.37-.51.86.86,0,0,0-.57-.2,1.79,1.79,0,0,0-.53.07,1.59,1.59,0,0,0-.56.32,2.08,2.08,0,0,0-.21.21,1,1,0,0,0-.11.15l-.06.09a.14.14,0,0,1-.09,0,.14.14,0,0,1-.15-.08.32.32,0,0,1,0-.16v-3.31a.63.63,0,0,1,0-.24s.1,0,.23,0a3.26,3.26,0,0,0,.71.22,3.67,3.67,0,0,0,.75.08l.49,0a5.46,5.46,0,0,0,.56-.11L148,166l.19-.07a.12.12,0,0,1,.08,0,.1.1,0,0,1,0,.09,1,1,0,0,1-.24.36l-.3.25v0a2.62,2.62,0,0,1-.75.37,2.37,2.37,0,0,1-.83.14,2.42,2.42,0,0,1-.47,0,2.3,2.3,0,0,1-.47-.1v2.16a1.75,1.75,0,0,1,.32-.25.87.87,0,0,1,.33-.17,1.45,1.45,0,0,1,.37-.11,2.34,2.34,0,0,1,.38,0,1.92,1.92,0,0,1,1.5.71,2.41,2.41,0,0,1,.44.8,2.44,2.44,0,0,1,.16.9A2.37,2.37,0,0,1,148.49,172Z" transform="translate(-55.52 -21.87)"/>
  <rect x="57.75" y="140.67" width="57.69" height="14.02" fill="none"/>
  <path d="M81.3,184a.62.62,0,0,1-.24,0H74.67a.72.72,0,0,1-.26,0,.18.18,0,0,1-.11-.19.2.2,0,0,1,.12-.2l.26,0h6.37l.24,0a.2.2,0,0,1,.13.2A.18.18,0,0,1,81.3,184Z" transform="translate(-55.52 -21.87)"/>
  <path d="M87.13,187.28H85.34l-.89,0V187H85a1.62,1.62,0,0,0,.62-.08.44.44,0,0,0,.24-.45v-5.71a3,3,0,0,1-.6.2,5.58,5.58,0,0,1-.61.09h-.24v-.34h.37a3.66,3.66,0,0,0,.56-.1,2.76,2.76,0,0,0,.53-.18l.29-.18.26-.23h.25v6.47q0,.36.24.45a1.65,1.65,0,0,0,.63.08H88v.34Z" transform="translate(-55.52 -21.87)"/>
  <path d="M93.44,186.05a2.34,2.34,0,0,1-1.3,1.32,2.26,2.26,0,0,1-.92.19,1.94,1.94,0,0,1-.8-.17,1.86,1.86,0,0,1-.64-.48,1.76,1.76,0,0,1-.41-.63,1.86,1.86,0,0,1-.14-.73.56.56,0,0,1,.14-.42.53.53,0,0,1,.41-.17.58.58,0,0,1,.39.14.58.58,0,0,1,.16.4.56.56,0,0,1-.55.55h-.11l-.09,0a1.34,1.34,0,0,0,.22.47,1.44,1.44,0,0,0,.35.39,1.88,1.88,0,0,0,.5.27,1.55,1.55,0,0,0,.56.11,1.19,1.19,0,0,0,.68-.21,1.62,1.62,0,0,0,.5-.51,2.16,2.16,0,0,0,.22-.74,5.66,5.66,0,0,0,0-.78,6.16,6.16,0,0,0,0-.7,2.19,2.19,0,0,0-.17-.68,1.4,1.4,0,0,0-.37-.51.92.92,0,0,0-.57-.2A2.19,2.19,0,0,0,91,183a1.79,1.79,0,0,0-.56.33,1.34,1.34,0,0,0-.21.2l-.11.15-.06.09a.14.14,0,0,1-.09,0c-.08,0-.13,0-.15-.07a.37.37,0,0,1,0-.17v-3.3a1,1,0,0,1,0-.25s.1,0,.23,0a3.28,3.28,0,0,0,.71.23,3.67,3.67,0,0,0,.75.07,3.48,3.48,0,0,0,.49,0,5.46,5.46,0,0,0,.56-.11l.36-.16.19-.06a.13.13,0,0,1,.08,0,.12.12,0,0,1,0,.1.91.91,0,0,1-.24.35c-.08.07-.17.16-.29.25l0,0a2.8,2.8,0,0,1-1.58.52,3.57,3.57,0,0,1-.47,0l-.47-.1v2.15a3.14,3.14,0,0,1,.32-.25,1.48,1.48,0,0,1,.33-.17,2,2,0,0,1,.37-.11,2.34,2.34,0,0,1,.38,0,1.8,1.8,0,0,1,.82.19,1.9,1.9,0,0,1,.68.52,2.9,2.9,0,0,1,.61,1.7A2.34,2.34,0,0,1,93.44,186.05Z" transform="translate(-55.52 -21.87)"/>
  <rect x="0.18" y="154.69" width="57.57" height="14.15" fill="none"/>
  <path d="M141.51,184a.65.65,0,0,1-.25,0h-6.39a.69.69,0,0,1-.25,0c-.08,0-.11-.09-.11-.19a.2.2,0,0,1,.12-.2l.25,0h6.37l.25,0a.2.2,0,0,1,.13.2A.18.18,0,0,1,141.51,184Z" transform="translate(-55.52 -21.87)"/>
  <path d="M148.59,186.24a2.32,2.32,0,0,1-.49.67,2.4,2.4,0,0,1-.78.49,2.53,2.53,0,0,1-.91.16,3,3,0,0,1-.44,0,2.35,2.35,0,0,1-.4-.09,2.06,2.06,0,0,1-1-.58,1.47,1.47,0,0,1-.41-1,.73.73,0,0,1,.15-.48.63.63,0,0,1,.47-.17.62.62,0,0,1,.44.17.65.65,0,0,1,.17.46.56.56,0,0,1-.22.47.63.63,0,0,1-.5.13,1.48,1.48,0,0,0,.7.61,2.31,2.31,0,0,0,1,.23.94.94,0,0,0,.43-.1,1.15,1.15,0,0,0,.37-.25,1.76,1.76,0,0,0,.34-.7,2.61,2.61,0,0,0,.1-.77c0-.15,0-.28,0-.4a2.63,2.63,0,0,0-.06-.34,1.46,1.46,0,0,0-.42-.8,1.14,1.14,0,0,0-.8-.29h-.52l-.16,0a.13.13,0,0,1-.08-.12c0-.06,0-.1,0-.12H146l.35,0A1,1,0,0,0,147,183a1.68,1.68,0,0,0,.35-.59c0-.18.07-.33.09-.44a2.47,2.47,0,0,0,.05-.44,1.69,1.69,0,0,0-.08-.53.92.92,0,0,0-.28-.45.79.79,0,0,0-.34-.2,1.38,1.38,0,0,0-.37-.05l-.38,0a1.7,1.7,0,0,0-.37.1,1.6,1.6,0,0,0-.41.22,1.37,1.37,0,0,0-.31.33h.19a.58.58,0,0,1,.37.16.59.59,0,0,1,0,.77.51.51,0,0,1-.4.17.54.54,0,0,1-.42-.17.55.55,0,0,1-.15-.4,1.28,1.28,0,0,1,.36-.89,1.91,1.91,0,0,1,.82-.49,1.44,1.44,0,0,1,.37-.1l.41,0a2.59,2.59,0,0,1,.74.1,2.06,2.06,0,0,1,.65.31,1.62,1.62,0,0,1,.47.47,1.21,1.21,0,0,1,.18.64,1.53,1.53,0,0,1-.13.62,2.39,2.39,0,0,1-.31.56,2.22,2.22,0,0,1-.51.45,2.89,2.89,0,0,1-.6.32,2.23,2.23,0,0,1,1,.44,2.06,2.06,0,0,1,.69.88,2.66,2.66,0,0,1,.09.32,1.5,1.5,0,0,1,0,.35A1.9,1.9,0,0,1,148.59,186.24Z" transform="translate(-55.52 -21.87)"/>
  <rect x="57.75" y="154.69" width="57.69" height="14.15" fill="none"/>
  <path d="M81.3,198a.62.62,0,0,1-.24,0H74.67a.72.72,0,0,1-.26,0,.18.18,0,0,1-.11-.18.21.21,0,0,1,.12-.21l.26,0h6.37l.24,0a.21.21,0,0,1,.13.21A.17.17,0,0,1,81.3,198Z" transform="translate(-55.52 -21.87)"/>
  <path d="M87.5,199.53v1c0,.23.06.37.18.44a1.16,1.16,0,0,0,.52.07h.37v.35c-.23,0-.48,0-.75,0h-1.5c-.28,0-.53,0-.74,0V201h.34a1.49,1.49,0,0,0,.54-.06.48.48,0,0,0,.18-.45v-1H83.71v-.35L87.1,194a.31.31,0,0,1,.08-.1.26.26,0,0,1,.14,0,.16.16,0,0,1,.15.07.34.34,0,0,1,0,.17v5.06h1.11v.35Zm-.79-4.46L84,199.18h2.68Z" transform="translate(-55.52 -21.87)"/>
  <path d="M93.44,200.08a2.59,2.59,0,0,1-.53.8,2.35,2.35,0,0,1-.77.51,2.26,2.26,0,0,1-.92.19,1.8,1.8,0,0,1-.8-.17,1.72,1.72,0,0,1-.64-.47,1.89,1.89,0,0,1-.41-.64,1.83,1.83,0,0,1-.14-.73.59.59,0,0,1,.14-.42.53.53,0,0,1,.41-.16.58.58,0,0,1,.39.14.54.54,0,0,1,.16.4.56.56,0,0,1-.55.55h-.11l-.09,0a1.47,1.47,0,0,0,.22.48,1.82,1.82,0,0,0,.35.39,2.7,2.7,0,0,0,.5.27,1.54,1.54,0,0,0,.56.1,1.18,1.18,0,0,0,.68-.2,1.56,1.56,0,0,0,.5-.52,2.1,2.1,0,0,0,.22-.73,5.82,5.82,0,0,0,0-.79,6.29,6.29,0,0,0,0-.7,2.12,2.12,0,0,0-.17-.67,1.4,1.4,0,0,0-.37-.51.87.87,0,0,0-.57-.21A1.78,1.78,0,0,0,91,197a1.59,1.59,0,0,0-.56.32,2.08,2.08,0,0,0-.21.21,1,1,0,0,0-.11.15l-.06.08a.11.11,0,0,1-.09,0,.14.14,0,0,1-.15-.08.32.32,0,0,1,0-.16v-3.31a.9.9,0,0,1,0-.24s.1,0,.23,0a3.26,3.26,0,0,0,.71.22,3.67,3.67,0,0,0,.75.08l.49,0,.56-.11.36-.16.19-.07a.1.1,0,0,1,.08,0,.1.1,0,0,1,0,.09,1,1,0,0,1-.24.36l-.29.25,0,0a2.62,2.62,0,0,1-.75.37,2.37,2.37,0,0,1-.83.14,2.42,2.42,0,0,1-.47,0,2.3,2.3,0,0,1-.47-.1v2.16a2.16,2.16,0,0,1,.32-.25,1,1,0,0,1,.33-.17,1.45,1.45,0,0,1,.37-.11,2.34,2.34,0,0,1,.38,0,1.92,1.92,0,0,1,1.5.71,2.41,2.41,0,0,1,.44.8,2.44,2.44,0,0,1,.17.9A2.38,2.38,0,0,1,93.44,200.08Z" transform="translate(-55.52 -21.87)"/>
  <rect x="0.18" y="168.84" width="57.57" height="14.03" fill="none"/>
  <path d="M141.51,198a.65.65,0,0,1-.25,0h-6.39a.69.69,0,0,1-.25,0,.17.17,0,0,1-.11-.18.21.21,0,0,1,.12-.21l.25,0h6.37l.25,0a.21.21,0,0,1,.13.21A.17.17,0,0,1,141.51,198Z" transform="translate(-55.52 -21.87)"/>
  <path d="M147.46,201.31h-1.79c-.33,0-.63,0-.9,0V201h.53a1.68,1.68,0,0,0,.62-.07.45.45,0,0,0,.23-.45v-5.71a2.92,2.92,0,0,1-.59.19,5.55,5.55,0,0,1-.61.1h-.24v-.35h.37a2.83,2.83,0,0,0,.56-.09,3.24,3.24,0,0,0,.52-.19,2.82,2.82,0,0,0,.29-.18,1.94,1.94,0,0,0,.26-.23H147v6.48a.44.44,0,0,0,.24.45,1.68,1.68,0,0,0,.62.07h.52v.35C148.08,201.33,147.79,201.31,147.46,201.31Z" transform="translate(-55.52 -21.87)"/>
  <rect x="57.75" y="168.84" width="57.69" height="14.03" fill="none"/>
  <line x1="0.18" y1="0.18" x2="0.18" y2="182.86" fill="none" stroke="#000" stroke-miterlimit="10" stroke-width="0.36"/>
  <line x1="57.75" y1="0.18" x2="57.75" y2="182.86" fill="none" stroke="#000" stroke-miterlimit="10" stroke-width="0.36"/>
  <line x1="115.44" y1="0.18" x2="115.44" y2="182.86" fill="none" stroke="#000" stroke-miterlimit="10" stroke-width="0.36"/>
  <line x1="0.06" y1="0.18" x2="115.68" y2="0.18" fill="none" stroke="#000" stroke-miterlimit="10" stroke-width="0.36"/>
  <line x1="0.06" y1="14.21" x2="115.68" y2="14.21" fill="none" stroke="#000" stroke-miterlimit="10" stroke-width="0.36"/>
  <line x1="0.06" y1="28.23" x2="115.68" y2="28.23" fill="none" stroke="#000" stroke-miterlimit="10" stroke-width="0.36"/>
  <line x1="0.06" y1="42.25" x2="115.68" y2="42.25" fill="none" stroke="#000" stroke-miterlimit="10" stroke-width="0.36"/>
  <line x1="0.06" y1="56.4" x2="115.68" y2="56.4" fill="none" stroke="#000" stroke-miterlimit="10" stroke-width="0.36"/>
  <line x1="0.06" y1="70.42" x2="115.68" y2="70.42" fill="none" stroke="#000" stroke-miterlimit="10" stroke-width="0.36"/>
  <line x1="0.06" y1="84.45" x2="115.68" y2="84.45" fill="none" stroke="#000" stroke-miterlimit="10" stroke-width="0.36"/>
  <line x1="0.06" y1="98.47" x2="115.68" y2="98.47" fill="none" stroke="#000" stroke-miterlimit="10" stroke-width="0.36"/>
  <line x1="0.06" y1="112.62" x2="115.68" y2="112.62" fill="none" stroke="#000" stroke-miterlimit="10" stroke-width="0.36"/>
  <line x1="0.06" y1="126.64" x2="115.68" y2="126.64" fill="none" stroke="#000" stroke-miterlimit="10" stroke-width="0.36"/>
  <line x1="0.06" y1="140.67" x2="115.68" y2="140.67" fill="none" stroke="#000" stroke-miterlimit="10" stroke-width="0.36"/>
  <line x1="0.06" y1="154.69" x2="115.68" y2="154.69" fill="none" stroke="#000" stroke-miterlimit="10" stroke-width="0.36"/>
  <line x1="0.06" y1="168.84" x2="115.68" y2="168.84" fill="none" stroke="#000" stroke-miterlimit="10" stroke-width="0.36"/>
  <line x1="0.06" y1="182.86" x2="115.68" y2="182.86" fill="none" stroke="#000" stroke-miterlimit="10" stroke-width="0.36"/>
  <line x1="115.44" y1="0.18" x2="115.44" y2="182.86" fill="none" stroke="#000" stroke-miterlimit="10" stroke-width="0.36"/>
  <line x1="0.18" y1="0.18" x2="0.18" y2="182.86" fill="none" stroke="#000" stroke-miterlimit="10" stroke-width="0.36"/>
  <line x1="0.06" y1="182.86" x2="115.68" y2="182.86" fill="none" stroke="#000" stroke-miterlimit="10" stroke-width="0.36"/>
  <line x1="0.06" y1="0.18" x2="115.68" y2="0.18" fill="none" stroke="#000" stroke-miterlimit="10" stroke-width="0.36"/>
</svg>
