<svg id="레이어_1" data-name="레이어 1" xmlns="http://www.w3.org/2000/svg" width="177.95" height="170.83" viewBox="0 0 177.95 170.83">
  <circle cx="85.41" cy="85.41" r="85.04" fill="#dcdddd" stroke="#000" stroke-miterlimit="10" stroke-width="0.75"/>
  <circle cx="85.41" cy="85.41" r="42.52" fill="#fff" stroke="#000" stroke-miterlimit="10" stroke-width="0.75"/>
  <line x1="85.41" y1="85.41" x2="169.08" y2="70.66" fill="none" stroke="#000" stroke-miterlimit="10" stroke-width="0.4"/>
  <line x1="85.41" y1="85.41" x2="99.96" y2="45.46" fill="none" stroke="#000" stroke-miterlimit="10" stroke-width="0.4"/>
  <line x1="30.71" y1="20.3" x2="169.08" y2="70.66" fill="none" stroke="#000" stroke-miterlimit="10" stroke-width="0.4"/>
  <g>
    <path d="M122.08,47.28l-.6-.17" transform="translate(-34.03 -23.4)" fill="none" stroke="#221e1f" stroke-miterlimit="10" stroke-width="0.4"/>
    <path d="M120.6,46.88c-25.29-6.75-46.16-8.3-54.81-3.94" transform="translate(-34.03 -23.4)" fill="none" stroke="#221e1f" stroke-miterlimit="10" stroke-width="0.4" stroke-dasharray="1.25 0.91"/>
    <path d="M65.39,43.15c-.18.1-.36.2-.53.31" transform="translate(-34.03 -23.4)" fill="none" stroke="#221e1f" stroke-miterlimit="10" stroke-width="0.4"/>
  </g>
  <g>
    <path d="M202.88,93.73c-.07-.19-.14-.38-.23-.57" transform="translate(-34.03 -23.4)" fill="none" stroke="#221e1f" stroke-miterlimit="10" stroke-width="0.4"/>
    <path d="M202.28,92.34C197.57,83,178.3,69.9,151.84,58" transform="translate(-34.03 -23.4)" fill="none" stroke="#221e1f" stroke-miterlimit="10" stroke-width="0.4" stroke-dasharray="1.24 0.9"/>
    <path d="M151.43,57.82l-.57-.25" transform="translate(-34.03 -23.4)" fill="none" stroke="#221e1f" stroke-miterlimit="10" stroke-width="0.4"/>
  </g>
  <path d="M209.17,95.49v-.28a1.82,1.82,0,0,0,.93-.14c.15-.1.17-.31.07-.61l-.65-1.84h-3.06L206,94.21q-.19.6,0,.81a1.48,1.48,0,0,0,.94.19v.28h-2.41v-.28a1,1,0,0,0,.68-.19,2.56,2.56,0,0,0,.49-1l2.19-6.4.61-.27,2.43,7a1.09,1.09,0,0,0,.4.61,1.27,1.27,0,0,0,.7.17v.28ZM208,88.21l-1.4,4.09h2.83Z" transform="translate(-34.03 -23.4)" fill="#221e1f"/>
  <path d="M64.17,42.28a3.05,3.05,0,0,1-2.09.67H58.54v-.28a1.71,1.71,0,0,0,.83-.14.65.65,0,0,0,.22-.58V36.07a.72.72,0,0,0-.22-.58,1.44,1.44,0,0,0-.83-.18V35h3.33a3.24,3.24,0,0,1,2,.53,1.56,1.56,0,0,1,.69,1.33,1.47,1.47,0,0,1-.38,1,2.62,2.62,0,0,1-1.35.72,2.81,2.81,0,0,1,1.6.79,2,2,0,0,1-.21,2.84ZM63.3,35.8a2,2,0,0,0-1.44-.49h-.65a1.12,1.12,0,0,0-.71.18.73.73,0,0,0-.21.58V38.6h1.57A1.89,1.89,0,0,0,63.22,38a1.69,1.69,0,0,0,.53-1.2A1.37,1.37,0,0,0,63.3,35.8Zm.24,3.66A2.1,2.1,0,0,0,62,38.88H60.29V42a.67.67,0,0,0,.21.58,1.3,1.3,0,0,0,.71.14H62a2.22,2.22,0,0,0,1.61-.59,1.71,1.71,0,0,0,.56-1.3A1.75,1.75,0,0,0,63.54,39.46Z" transform="translate(-34.03 -23.4)" fill="#221e1f"/>
  <path d="M117.18,117.2a3,3,0,0,1-4.91,0,4.63,4.63,0,0,1-.85-2.83,4.7,4.7,0,0,1,.85-2.85,3,3,0,0,1,4.91,0,4.7,4.7,0,0,1,.85,2.85A4.63,4.63,0,0,1,117.18,117.2Zm-.56-5.49a2.1,2.1,0,0,0-3.8,0,5.13,5.13,0,0,0-.66,2.67,5,5,0,0,0,.66,2.63,2.1,2.1,0,0,0,3.8,0,5,5,0,0,0,.66-2.63A5.13,5.13,0,0,0,116.62,111.71Z" transform="translate(-34.03 -23.4)" fill="#221e1f"/>
  <path d="M138.93,63.62a2.39,2.39,0,0,1-1.66.57h-1.81v2.64a.73.73,0,0,0,.23.6,1.48,1.48,0,0,0,.91.21v.28h-2.89v-.28a1.23,1.23,0,0,0,.82-.21.7.7,0,0,0,.23-.6V61a.59.59,0,0,0-.23-.55,1.58,1.58,0,0,0-.82-.15V60h3.64a2.45,2.45,0,0,1,1.59.51,1.83,1.83,0,0,1,.67,1.47A2.06,2.06,0,0,1,138.93,63.62Zm-.53-2.83a1.72,1.72,0,0,0-1.3-.51h-.86a.89.89,0,0,0-.59.15.7.7,0,0,0-.19.55v2.93h1.63a1.6,1.6,0,0,0,1.31-.63,2,2,0,0,0,.46-1.3A1.64,1.64,0,0,0,138.4,60.79Z" transform="translate(-34.03 -23.4)" fill="#221e1f"/>
  <circle cx="85.41" cy="85.41" r="1.42" fill="#221e1f"/>
  <polyline points="108.08 48.5 105.17 56.49 97.18 53.58" fill="none" stroke="#221e1f" stroke-miterlimit="10" stroke-width="0.4"/>
  <path d="M125.35,57.46h-1.79c-.33,0-.62,0-.89,0v-.34h.53a1.56,1.56,0,0,0,.61-.08.44.44,0,0,0,.24-.45V50.92a2.92,2.92,0,0,1-.59.19,4,4,0,0,1-.62.1h-.23v-.34h.16l.2,0a2.72,2.72,0,0,0,.56-.09,2.58,2.58,0,0,0,.53-.19,1.75,1.75,0,0,0,.29-.18l.26-.22h.26v6.47q0,.36.24.45a1.58,1.58,0,0,0,.62.08h.52v.34C126,57.48,125.68,57.46,125.35,57.46Z" transform="translate(-34.03 -23.4)"/>
  <path d="M131.64,56.21a2.51,2.51,0,0,1-.49.84,2.36,2.36,0,0,1-.74.5,2,2,0,0,1-.86.19,1.86,1.86,0,0,1-.87-.21A1.79,1.79,0,0,1,128,57a3.58,3.58,0,0,1-.62-1.44,7,7,0,0,1-.14-1.53,5.25,5.25,0,0,1,.2-1.51,3.78,3.78,0,0,1,.71-1.33,2.43,2.43,0,0,1,.87-.73,2.34,2.34,0,0,1,1.11-.28,2.22,2.22,0,0,1,.61.07,1.29,1.29,0,0,1,.45.27,1.35,1.35,0,0,1,.26.38,1.11,1.11,0,0,1,.08.46.51.51,0,0,1-.14.38.51.51,0,0,1-.73,0,.51.51,0,0,1-.14-.36.47.47,0,0,1,.17-.4.86.86,0,0,1,.43-.09.85.85,0,0,0-.43-.35,1.51,1.51,0,0,0-.53-.09,1.54,1.54,0,0,0-1.13.49,2.37,2.37,0,0,0-.59,1,5.06,5.06,0,0,0-.16.74,7,7,0,0,0,0,.94v.26a1.75,1.75,0,0,1,.52-.77,1.32,1.32,0,0,1,.87-.32,2,2,0,0,1,.84.18,2.2,2.2,0,0,1,.71.52,2.38,2.38,0,0,1,.47.82,2.69,2.69,0,0,1,.16.94A2.55,2.55,0,0,1,131.64,56.21Zm-.82-1.1a6.32,6.32,0,0,0,0-.72,1.88,1.88,0,0,0-.16-.66,1.33,1.33,0,0,0-.41-.5,1,1,0,0,0-.6-.19,1.13,1.13,0,0,0-.62.17,1.4,1.4,0,0,0-.43.49,2.06,2.06,0,0,0-.25.62,3.85,3.85,0,0,0-.06.69c0,.22,0,.41,0,.57a5.11,5.11,0,0,0,.06.59,1.83,1.83,0,0,0,.38.86,1.07,1.07,0,0,0,.84.41,1.13,1.13,0,0,0,.66-.21,1.24,1.24,0,0,0,.43-.52,2.28,2.28,0,0,0,.16-.66,6.26,6.26,0,0,0,0-.69v-.25Z" transform="translate(-34.03 -23.4)"/>
  <path d="M138,58.79l0,.05a.75.75,0,0,1-.08.14.2.2,0,0,1-.14.06h-.21l-2-5.15-.78.63-.17-.19,1.54-1.28L138,57.78l4.88-10.71h.27v.46Z" transform="translate(-34.03 -23.4)"/>
  <path d="M142.37,47.61v-.45h7.08v.45Z" transform="translate(-34.03 -23.4)"/>
  <path d="M147.47,56.41a2.2,2.2,0,0,1-.48.68,2.45,2.45,0,0,1-.79.49,2.75,2.75,0,0,1-.9.16,3.19,3.19,0,0,1-.45,0l-.39-.09a2.09,2.09,0,0,1-1-.58,1.45,1.45,0,0,1-.41-1,.7.7,0,0,1,.15-.47.62.62,0,0,1,.46-.17.6.6,0,0,1,.44.17.64.64,0,0,1,0,.93.68.68,0,0,1-.51.13,1.58,1.58,0,0,0,.7.61,2.39,2.39,0,0,0,1,.23,1.08,1.08,0,0,0,.43-.1,1.23,1.23,0,0,0,.36-.25,1.71,1.71,0,0,0,.35-.7,3.07,3.07,0,0,0,.09-.77,2.36,2.36,0,0,0,0-.4,2.94,2.94,0,0,0-.05-.35,1.61,1.61,0,0,0-.42-.79,1.12,1.12,0,0,0-.81-.29h-.52a.35.35,0,0,1-.16,0,.11.11,0,0,1-.07-.11c0-.06,0-.1,0-.12h.12l.31,0,.35,0a1,1,0,0,0,.58-.34,1.66,1.66,0,0,0,.34-.59,4.31,4.31,0,0,0,.1-.45,2.25,2.25,0,0,0,0-.44,1.64,1.64,0,0,0-.07-.52,1.09,1.09,0,0,0-.28-.46.92.92,0,0,0-.35-.19,1,1,0,0,0-.36-.05,2.43,2.43,0,0,0-.38,0l-.38.09a1.81,1.81,0,0,0-.41.23,1,1,0,0,0-.3.32H144a.67.67,0,0,1,.38.17.48.48,0,0,1,.13.37.51.51,0,0,1-.16.4.52.52,0,0,1-.4.16.54.54,0,0,1-.42-.16.58.58,0,0,1-.15-.41,1.29,1.29,0,0,1,.35-.88,1.93,1.93,0,0,1,.82-.5,2.11,2.11,0,0,1,.38-.09,2.75,2.75,0,0,1,.41,0,3,3,0,0,1,.73.09,2.23,2.23,0,0,1,.66.31,1.74,1.74,0,0,1,.46.48,1.22,1.22,0,0,1,.19.63,1.77,1.77,0,0,1-.13.63,2.67,2.67,0,0,1-.32.56,2.45,2.45,0,0,1-.5.45,2.69,2.69,0,0,1-.61.31,2.5,2.5,0,0,1,1,.44,2.09,2.09,0,0,1,.69.89c0,.11.06.22.08.32a1.48,1.48,0,0,1,0,.35A1.73,1.73,0,0,1,147.47,56.41Z" transform="translate(-34.03 -23.4)"/>
</svg>
