<svg id="레이어_1" data-name="레이어 1" xmlns="http://www.w3.org/2000/svg" width="151.83" height="130.63" viewBox="0 0 151.83 130.63">
  <path d="M126.8,91.2a2.42,2.42,0,0,1-1.67.57h-1.8v2.64a.72.72,0,0,0,.22.6,1.5,1.5,0,0,0,.91.21v.28h-2.88v-.28a1.24,1.24,0,0,0,.82-.21.72.72,0,0,0,.22-.6V88.57a.63.63,0,0,0-.22-.56,1.6,1.6,0,0,0-.82-.15v-.28h3.64a2.48,2.48,0,0,1,1.59.51,1.87,1.87,0,0,1,.67,1.48A2.08,2.08,0,0,1,126.8,91.2Zm-.53-2.83a1.76,1.76,0,0,0-1.31-.51h-.85a.92.92,0,0,0-.6.15.72.72,0,0,0-.18.56v2.92H125a1.64,1.64,0,0,0,1.32-.62,2,2,0,0,0,.45-1.3A1.7,1.7,0,0,0,126.27,88.37Z" transform="translate(-37.47 -46.96)" fill="#221e1f"/>
  <path d="M148.51,169.82a2.39,2.39,0,0,1-.47.39,1.19,1.19,0,0,1-.62.16,1.26,1.26,0,0,1-.88-.38,2.83,2.83,0,0,1-.6-.9,2.74,2.74,0,0,1-.53.17,2,2,0,0,1-.47.06,2.92,2.92,0,0,1-2.49-1.29,4.73,4.73,0,0,1-.84-2.84,4.8,4.8,0,0,1,.84-2.85,3,3,0,0,1,5,0,4.64,4.64,0,0,1,.9,2.85,5.55,5.55,0,0,1-.43,2.16,2.82,2.82,0,0,1-1.33,1.52,1.79,1.79,0,0,0,.42.62.93.93,0,0,0,.67.31,1.54,1.54,0,0,0,.4,0,2,2,0,0,0,.43-.17l.13.17Zm-1.64-7.28a2.18,2.18,0,0,0-1.93-1.21,2.2,2.2,0,0,0-1.94,1.21,5.07,5.07,0,0,0-.66,2.66,6.23,6.23,0,0,0,.21,1.57,3,3,0,0,0,.63,1.32,1,1,0,0,1,.32-1,1.36,1.36,0,0,1,.82-.21,1.82,1.82,0,0,1,1,.31,3.32,3.32,0,0,1,1.07,1.24,2.77,2.77,0,0,0,.91-1.51,6.06,6.06,0,0,0,.26-1.77A5.07,5.07,0,0,0,146.87,162.54Zm-1.89,5a1.37,1.37,0,0,0-.81-.26.91.91,0,0,0-.49.11,1,1,0,0,0-.31.87,2.92,2.92,0,0,0,.81.62,2,2,0,0,0,.76.16,1.41,1.41,0,0,0,.43-.08,3,3,0,0,0,.44-.17A2.86,2.86,0,0,0,145,167.54Z" transform="translate(-37.47 -46.96)" fill="#221e1f"/>
  <path d="M187.8,125.65l-2.17-3.92h-1.17v2.87a.69.69,0,0,0,.24.59,1.4,1.4,0,0,0,.82.18v.28h-2.81v-.28a1.41,1.41,0,0,0,.83-.18.7.7,0,0,0,.22-.59v-5.93a.56.56,0,0,0-.22-.51,1.65,1.65,0,0,0-.83-.15v-.28h3.21a3,3,0,0,1,1.94.56,1.69,1.69,0,0,1,.67,1.41,1.82,1.82,0,0,1-.53,1.35,2.34,2.34,0,0,1-1.63.64l1.81,3.19a.85.85,0,0,0,.43.39,1.73,1.73,0,0,0,.69.1v.28Zm-.53-7.19a2,2,0,0,0-1.39-.45h-.62a1,1,0,0,0-.59.15.61.61,0,0,0-.21.51v2.78h1.68a1.54,1.54,0,0,0,1.27-.55,1.85,1.85,0,0,0,.37-1.2A1.55,1.55,0,0,0,187.27,118.46Z" transform="translate(-37.47 -46.96)" fill="#221e1f"/>
  <circle cx="109.62" cy="77.69" r="1.42" fill="#231815"/>
  <path d="M141.74,121.69v-.28a1.91,1.91,0,0,0,.9-.15.55.55,0,0,0,.26-.51v-6a.61.61,0,0,0-.26-.57,1.86,1.86,0,0,0-.9-.15v-.28h3v.28a1.86,1.86,0,0,0-.9.15.6.6,0,0,0-.25.57v6a.54.54,0,0,0,.25.51,1.91,1.91,0,0,0,.9.15v.28Z" transform="translate(-37.47 -46.96)" fill="#221e1f"/>
  <g>
    <path d="M120.1,174l.62,0" transform="translate(-37.47 -46.96)" fill="none" stroke="#221e1f" stroke-miterlimit="10" stroke-width="0.4"/>
    <path d="M121.61,174c28.67-1,51.94-6.81,58.83-14.45" transform="translate(-37.47 -46.96)" fill="none" stroke="#221e1f" stroke-miterlimit="10" stroke-width="0.4" stroke-dasharray="1.24 0.9"/>
    <path d="M180.73,159.18c.13-.16.26-.32.38-.49" transform="translate(-37.47 -46.96)" fill="none" stroke="#221e1f" stroke-miterlimit="10" stroke-width="0.4"/>
  </g>
  <g>
    <path d="M45.05,158.67c.12.16.24.32.38.48" transform="translate(-37.47 -46.96)" fill="none" stroke="#221e1f" stroke-miterlimit="10" stroke-width="0.4"/>
    <path d="M46,159.82c7.27,7.53,30.5,13.24,59,14.16" transform="translate(-37.47 -46.96)" fill="none" stroke="#221e1f" stroke-miterlimit="10" stroke-width="0.4" stroke-dasharray="1.24 0.9"/>
    <path d="M105.46,174l.62,0" transform="translate(-37.47 -46.96)" fill="none" stroke="#221e1f" stroke-miterlimit="10" stroke-width="0.4"/>
  </g>
  <g>
    <path d="M143.24,133.63c0-.21.07-.42.1-.62" transform="translate(-37.47 -46.96)" fill="none" stroke="#221e1f" stroke-miterlimit="10" stroke-width="0.4"/>
    <path d="M143.51,132.19c.66-3.14,1.64-5.58,2.8-6.87" transform="translate(-37.47 -46.96)" fill="none" stroke="#221e1f" stroke-miterlimit="10" stroke-width="0.4" stroke-dasharray="1.14 0.83"/>
    <path d="M146.6,125a2.81,2.81,0,0,1,.49-.38" transform="translate(-37.47 -46.96)" fill="none" stroke="#221e1f" stroke-miterlimit="10" stroke-width="0.4"/>
  </g>
  <g>
    <path d="M147.09,158.53a3.19,3.19,0,0,1-.48-.38" transform="translate(-37.47 -46.96)" fill="none" stroke="#221e1f" stroke-miterlimit="10" stroke-width="0.4"/>
    <path d="M146,157.47c-1.16-1.54-2.12-4.27-2.72-7.68" transform="translate(-37.47 -46.96)" fill="none" stroke="#221e1f" stroke-miterlimit="10" stroke-width="0.4" stroke-dasharray="1.26 0.91"/>
    <path d="M143.2,149.33c0-.2-.07-.41-.1-.61" transform="translate(-37.47 -46.96)" fill="none" stroke="#221e1f" stroke-miterlimit="10" stroke-width="0.4"/>
  </g>
  <polyline points="143.64 106.03 137.97 106.03 137.97 111.7" fill="none" stroke="#221e1f" stroke-miterlimit="10" stroke-width="0.4"/>
  <polyline points="143.24 83.28 137.57 83.28 137.57 77.61" fill="none" stroke="#221e1f" stroke-miterlimit="10" stroke-width="0.4"/>
  <polyline points="109.62 106.03 115.29 106.03 115.29 111.7" fill="none" stroke="#221e1f" stroke-miterlimit="10" stroke-width="0.4"/>
  <path d="M182.7,55.05v-.27a1.94,1.94,0,0,0,.93-.14c.15-.11.18-.32.07-.62l-.65-1.83H180l-.51,1.59c-.13.4-.13.67,0,.8a1.47,1.47,0,0,0,.94.2v.27H178v-.27a1,1,0,0,0,.69-.2,2.61,2.61,0,0,0,.48-.94l2.19-6.41L182,47l2.43,7a1.1,1.1,0,0,0,.4.61,1.19,1.19,0,0,0,.7.18v.27Zm-1.2-7.28-1.4,4.09h2.83Z" transform="translate(-37.47 -46.96)" fill="#221e1f"/>
  <path d="M43.1,163.08a3.05,3.05,0,0,1-2.09.67H37.47v-.28a1.65,1.65,0,0,0,.83-.14c.15-.09.22-.28.22-.58v-5.88a.69.69,0,0,0-.22-.58,1.41,1.41,0,0,0-.83-.18v-.28H40.8a3.24,3.24,0,0,1,2,.53,1.55,1.55,0,0,1,.7,1.33,1.51,1.51,0,0,1-.38,1,2.7,2.7,0,0,1-1.35.72,2.91,2.91,0,0,1,1.6.79,2,2,0,0,1,.47,1.34A1.92,1.92,0,0,1,43.1,163.08Zm-.87-6.48a2,2,0,0,0-1.44-.49h-.65a1.09,1.09,0,0,0-.7.18.71.71,0,0,0-.22.58v2.53h1.57a1.88,1.88,0,0,0,1.36-.58,1.69,1.69,0,0,0,.53-1.2A1.37,1.37,0,0,0,42.23,156.6Zm.24,3.66a2.1,2.1,0,0,0-1.51-.58H39.22v3.07a.64.64,0,0,0,.22.58,1.24,1.24,0,0,0,.7.14h.74a2.22,2.22,0,0,0,1.61-.59,1.72,1.72,0,0,0,.57-1.3A1.76,1.76,0,0,0,42.47,160.26Z" transform="translate(-37.47 -46.96)" fill="#221e1f"/>
  <path d="M186.86,165a2.62,2.62,0,0,1-1.81.69,2.9,2.9,0,0,1-2.29-1.08,4.65,4.65,0,0,1-1-3.1,4.74,4.74,0,0,1,.87-2.89,2.67,2.67,0,0,1,2.23-1.2,3.36,3.36,0,0,1,.63.06l.64.19.06,0,.79-.25.77,2-.17.11a5.72,5.72,0,0,0-1.07-1.22,2.61,2.61,0,0,0-1.62-.65,2,2,0,0,0-1.7,1.08,5.12,5.12,0,0,0-.67,2.73,4.09,4.09,0,0,0,.81,2.59,2.39,2.39,0,0,0,2,1,2.06,2.06,0,0,0,1.29-.44,3.75,3.75,0,0,0,1.15-1.4l.21.08A4.29,4.29,0,0,1,186.86,165Z" transform="translate(-37.47 -46.96)" fill="#221e1f"/>
  <line x1="109.62" y1="77.69" x2="109.62" y2="111.62" fill="none" stroke="#221e1f" stroke-miterlimit="10" stroke-width="0.4"/>
  <line x1="109.31" y1="77.61" x2="143.24" y2="77.61" fill="none" stroke="#221e1f" stroke-miterlimit="10" stroke-width="0.4"/>
  <path d="M117.56,177.59h-4.09v-.26l2.24-2.51c.16-.2.31-.38.43-.55a6.64,6.64,0,0,0,.38-.6,3.43,3.43,0,0,0,.24-.62,2,2,0,0,0,.11-.66,2.71,2.71,0,0,0-.08-.66,1.82,1.82,0,0,0-.27-.58,1.58,1.58,0,0,0-.51-.43,1.39,1.39,0,0,0-.61-.13,1.51,1.51,0,0,0-.94.3,1.66,1.66,0,0,0-.56.82H114a.6.6,0,0,1,.42.15.58.58,0,0,1,.17.43.56.56,0,0,1-.16.41.54.54,0,0,1-.41.17.56.56,0,0,1-.44-.18.63.63,0,0,1-.15-.44,1.92,1.92,0,0,1,.15-.74,2,2,0,0,1,.41-.62,1.8,1.8,0,0,1,.68-.48,2.18,2.18,0,0,1,.82-.15,2.63,2.63,0,0,1,.89.14,2.39,2.39,0,0,1,.79.45,2,2,0,0,1,.49.7,2,2,0,0,1,.17.85,2.37,2.37,0,0,1-.12.78,2.64,2.64,0,0,1-.41.66l-.61.61-.6.57-.63.59-1.17,1.14h2.54a1,1,0,0,0,.42-.08.75.75,0,0,0,.19-.35c0-.09,0-.25.08-.45l0-.19h.28Z" transform="translate(-37.47 -46.96)"/>
  <g>
    <line x1="7.58" y1="111.62" x2="143.64" y2="111.62" fill="none" stroke="#221e1f" stroke-linejoin="round" stroke-width="0.75"/>
    <line x1="143.64" y1="111.73" x2="143.64" y2="9.69" fill="none" stroke="#221e1f" stroke-linejoin="round" stroke-width="0.75"/>
    <line x1="143.64" y1="9.69" x2="7.58" y2="111.62" fill="none" stroke="#221e1f" stroke-linejoin="round" stroke-width="0.75"/>
    <circle cx="109.62" cy="77.61" r="34.02" fill="none" stroke="#221e1f" stroke-linejoin="round" stroke-width="0.75"/>
  </g>
  <path d="M110.88,177.52h-1.79l-.89,0v-.35h.53a1.62,1.62,0,0,0,.61-.07.45.45,0,0,0,.24-.45V171a2.92,2.92,0,0,1-.59.19,5.74,5.74,0,0,1-.62.1h-.24v-.35h.37a2.72,2.72,0,0,0,.56-.09,3.35,3.35,0,0,0,.53-.19l.29-.18.26-.23h.26v6.48a.45.45,0,0,0,.23.45,1.71,1.71,0,0,0,.63.07h.52v.35Z" transform="translate(-37.47 -46.96)"/>
  <path d="M144.44,142.93a2.41,2.41,0,0,1-.49.68,2.22,2.22,0,0,1-.78.48,2.53,2.53,0,0,1-.91.16,3,3,0,0,1-.44,0l-.4-.08a2.15,2.15,0,0,1-1-.59,1.45,1.45,0,0,1-.41-1,.68.68,0,0,1,.15-.47.69.69,0,0,1,.91,0,.61.61,0,0,1,.17.45.55.55,0,0,1-.22.47.59.59,0,0,1-.5.13,1.49,1.49,0,0,0,.7.62,2.3,2.3,0,0,0,1,.22,1.07,1.07,0,0,0,.43-.09,1.15,1.15,0,0,0,.37-.25,1.83,1.83,0,0,0,.34-.7,2.68,2.68,0,0,0,.1-.78c0-.15,0-.28,0-.39s0-.25-.06-.35a1.49,1.49,0,0,0-.42-.8,1.16,1.16,0,0,0-.81-.29h-.51a.32.32,0,0,1-.16,0,.12.12,0,0,1-.08-.12.16.16,0,0,1,0-.12h.43l.35,0a1,1,0,0,0,.58-.34,1.72,1.72,0,0,0,.35-.6c0-.18.07-.32.09-.44a2.37,2.37,0,0,0,.05-.44,1.69,1.69,0,0,0-.08-.53,1,1,0,0,0-.28-.45.83.83,0,0,0-.34-.19,1.06,1.06,0,0,0-.37-.06,1.69,1.69,0,0,0-.38,0l-.38.09a1.74,1.74,0,0,0-.4.23,1,1,0,0,0-.31.32H141a.64.64,0,0,1,.37.16.52.52,0,0,1,.13.38.55.55,0,0,1-.56.56.54.54,0,0,1-.42-.16.58.58,0,0,1-.15-.41,1.26,1.26,0,0,1,.36-.88,1.84,1.84,0,0,1,.82-.5,2,2,0,0,1,.37-.09,2.73,2.73,0,0,1,.41,0,3.07,3.07,0,0,1,.74.1,2.3,2.3,0,0,1,.65.31,1.78,1.78,0,0,1,.47.48,1.21,1.21,0,0,1,.18.63,1.58,1.58,0,0,1-.13.63,2.87,2.87,0,0,1-.31.56,2.76,2.76,0,0,1-1.11.76,2.34,2.34,0,0,1,1,.44,2.09,2.09,0,0,1,.69.89,2.23,2.23,0,0,1,.09.32,1.42,1.42,0,0,1,0,.34A1.87,1.87,0,0,1,144.44,142.93Z" transform="translate(-37.47 -46.96)"/>
  <g>
    <path d="M184.57,133.63c0-.21-.07-.42-.11-.62" transform="translate(-37.47 -46.96)" fill="none" stroke="#221e1f" stroke-miterlimit="10" stroke-width="0.4"/>
    <path d="M184.3,132.19c-.66-3.14-1.65-5.58-2.81-6.87" transform="translate(-37.47 -46.96)" fill="none" stroke="#221e1f" stroke-miterlimit="10" stroke-width="0.4" stroke-dasharray="1.14 0.83"/>
    <path d="M181.21,125a3.25,3.25,0,0,0-.49-.38" transform="translate(-37.47 -46.96)" fill="none" stroke="#221e1f" stroke-miterlimit="10" stroke-width="0.4"/>
  </g>
  <g>
    <path d="M180.71,158.53a2.81,2.81,0,0,0,.49-.38" transform="translate(-37.47 -46.96)" fill="none" stroke="#221e1f" stroke-miterlimit="10" stroke-width="0.4"/>
    <path d="M181.81,157.47c1.16-1.54,2.12-4.27,2.72-7.68" transform="translate(-37.47 -46.96)" fill="none" stroke="#221e1f" stroke-miterlimit="10" stroke-width="0.4" stroke-dasharray="1.26 0.91"/>
    <path d="M184.61,149.33l.09-.61" transform="translate(-37.47 -46.96)" fill="none" stroke="#221e1f" stroke-miterlimit="10" stroke-width="0.4"/>
  </g>
  <g>
    <path d="M172,120.71l.61.11" transform="translate(-37.47 -46.96)" fill="none" stroke="#221e1f" stroke-miterlimit="10" stroke-width="0.4"/>
    <path d="M173.43,121c3.15.66,5.59,1.65,6.88,2.81" transform="translate(-37.47 -46.96)" fill="none" stroke="#221e1f" stroke-miterlimit="10" stroke-width="0.4" stroke-dasharray="1.14 0.83"/>
    <path d="M180.6,124.07a3.94,3.94,0,0,1,.37.49" transform="translate(-37.47 -46.96)" fill="none" stroke="#221e1f" stroke-miterlimit="10" stroke-width="0.4"/>
  </g>
  <g>
    <path d="M147.09,124.57a3.4,3.4,0,0,1,.38-.49" transform="translate(-37.47 -46.96)" fill="none" stroke="#221e1f" stroke-miterlimit="10" stroke-width="0.4"/>
    <path d="M148.15,123.48c1.54-1.17,4.27-2.13,7.69-2.73" transform="translate(-37.47 -46.96)" fill="none" stroke="#221e1f" stroke-miterlimit="10" stroke-width="0.4" stroke-dasharray="1.26 0.91"/>
    <path d="M156.29,120.67l.62-.09" transform="translate(-37.47 -46.96)" fill="none" stroke="#221e1f" stroke-miterlimit="10" stroke-width="0.4"/>
  </g>
  <g>
    <path d="M172,162.39l.61-.11" transform="translate(-37.47 -46.96)" fill="none" stroke="#221e1f" stroke-miterlimit="10" stroke-width="0.4"/>
    <path d="M173.43,162.12c3.15-.66,5.59-1.65,6.88-2.81" transform="translate(-37.47 -46.96)" fill="none" stroke="#221e1f" stroke-miterlimit="10" stroke-width="0.4" stroke-dasharray="1.14 0.83"/>
    <path d="M180.6,159a3.25,3.25,0,0,0,.37-.48" transform="translate(-37.47 -46.96)" fill="none" stroke="#221e1f" stroke-miterlimit="10" stroke-width="0.4"/>
  </g>
  <g>
    <path d="M147.09,158.53a3.4,3.4,0,0,0,.38.49" transform="translate(-37.47 -46.96)" fill="none" stroke="#221e1f" stroke-miterlimit="10" stroke-width="0.4"/>
    <path d="M148.15,159.62c1.54,1.17,4.27,2.13,7.69,2.73" transform="translate(-37.47 -46.96)" fill="none" stroke="#221e1f" stroke-miterlimit="10" stroke-width="0.4" stroke-dasharray="1.26 0.91"/>
    <path d="M156.29,162.42l.62.1" transform="translate(-37.47 -46.96)" fill="none" stroke="#221e1f" stroke-miterlimit="10" stroke-width="0.4"/>
  </g>
  <path d="M187.57,142.93a2.2,2.2,0,0,1-.48.68,2.36,2.36,0,0,1-.79.48,2.51,2.51,0,0,1-.9.16,3.19,3.19,0,0,1-.45,0l-.4-.08a2.21,2.21,0,0,1-1-.59,1.44,1.44,0,0,1-.4-1,.68.68,0,0,1,.15-.47.63.63,0,1,1,.86.92.61.61,0,0,1-.51.13,1.49,1.49,0,0,0,.7.62,2.37,2.37,0,0,0,1,.22,1,1,0,0,0,.43-.09,1.15,1.15,0,0,0,.37-.25,1.84,1.84,0,0,0,.35-.7,3.1,3.1,0,0,0,.09-.78,2.3,2.3,0,0,0,0-.39,2.94,2.94,0,0,0-.05-.35,1.64,1.64,0,0,0-.42-.8,1.16,1.16,0,0,0-.81-.29h-.52a.37.37,0,0,1-.16,0,.12.12,0,0,1-.08-.12.17.17,0,0,1,0-.12H185l.34,0a1,1,0,0,0,.59-.34,1.7,1.7,0,0,0,.34-.6c0-.18.08-.32.1-.44a2.32,2.32,0,0,0,0-.44,1.7,1.7,0,0,0-.07-.53,1,1,0,0,0-.29-.45.77.77,0,0,0-.34-.19,1.06,1.06,0,0,0-.37-.06,1.61,1.61,0,0,0-.37,0,2.62,2.62,0,0,0-.38.09,1.81,1.81,0,0,0-.41.23,1,1,0,0,0-.3.32h.18a.67.67,0,0,1,.38.16.56.56,0,0,1,.13.38.54.54,0,0,1-.16.4.52.52,0,0,1-.4.16.54.54,0,0,1-.42-.16.58.58,0,0,1-.15-.41,1.25,1.25,0,0,1,.35-.88,1.84,1.84,0,0,1,.82-.5,2.11,2.11,0,0,1,.38-.09,2.63,2.63,0,0,1,.41,0,3,3,0,0,1,.73.1,2.5,2.5,0,0,1,.66.31,1.74,1.74,0,0,1,.46.48,1.21,1.21,0,0,1,.18.63,1.58,1.58,0,0,1-.13.63,2.43,2.43,0,0,1-.31.56,2.45,2.45,0,0,1-.5.45,2.69,2.69,0,0,1-.61.31,2.43,2.43,0,0,1,1,.44,2.17,2.17,0,0,1,.69.89c0,.11.06.22.08.32a1.42,1.42,0,0,1,0,.34A1.87,1.87,0,0,1,187.57,142.93Z" transform="translate(-37.47 -46.96)"/>
  <path d="M166.15,121.91a2.37,2.37,0,0,1-.49.67,2.25,2.25,0,0,1-.78.49,2.53,2.53,0,0,1-.91.16,2.94,2.94,0,0,1-.44,0,2.15,2.15,0,0,1-.4-.09,2.06,2.06,0,0,1-1-.58,1.45,1.45,0,0,1-.41-1,.73.73,0,0,1,.15-.48.62.62,0,0,1,.46-.17.64.64,0,0,1,.45.17.65.65,0,0,1,.17.46.55.55,0,0,1-.22.47.59.59,0,0,1-.5.13,1.48,1.48,0,0,0,.7.61,2.31,2.31,0,0,0,1,.23.94.94,0,0,0,.43-.1,1,1,0,0,0,.37-.25,1.7,1.7,0,0,0,.34-.7,2.94,2.94,0,0,0,.1-.77c0-.15,0-.28,0-.4s0-.24-.06-.34a1.46,1.46,0,0,0-.42-.8,1.16,1.16,0,0,0-.81-.29h-.51l-.17,0a.11.11,0,0,1-.07-.12c0-.06,0-.1,0-.12h.43l.35,0a1,1,0,0,0,.58-.35,1.68,1.68,0,0,0,.35-.59c0-.18.07-.33.09-.44a2.39,2.39,0,0,0,0-.44,1.7,1.7,0,0,0-.07-.53,1,1,0,0,0-.28-.45.82.82,0,0,0-.35-.2,1.3,1.3,0,0,0-.36,0l-.38,0a3.06,3.06,0,0,0-.38.1,1.66,1.66,0,0,0-.41.23,1.14,1.14,0,0,0-.3.32h.19a.58.58,0,0,1,.37.16.5.5,0,0,1,.13.38.52.52,0,0,1-.16.4.54.54,0,0,1-.4.16.57.57,0,0,1-.42-.16.59.59,0,0,1-.15-.41,1.28,1.28,0,0,1,.36-.89,1.88,1.88,0,0,1,.81-.49,1.64,1.64,0,0,1,.38-.1l.41,0a2.52,2.52,0,0,1,.73.1,2,2,0,0,1,.66.31,1.75,1.75,0,0,1,.47.47,1.24,1.24,0,0,1,.18.64,1.53,1.53,0,0,1-.13.62,2.39,2.39,0,0,1-.31.56,2.22,2.22,0,0,1-.51.45,2.89,2.89,0,0,1-.6.32,2.23,2.23,0,0,1,1,.44,2.06,2.06,0,0,1,.69.88c0,.12.06.23.09.32a2.35,2.35,0,0,1,0,.35A1.9,1.9,0,0,1,166.15,121.91Z" transform="translate(-37.47 -46.96)"/>
  <path d="M166.15,165.71a2.3,2.3,0,0,1-1.27,1.17,2.76,2.76,0,0,1-.91.16,2.94,2.94,0,0,1-.44,0,3.42,3.42,0,0,1-.4-.09,2.14,2.14,0,0,1-1-.58,1.49,1.49,0,0,1-.41-1,.7.7,0,0,1,.15-.47.62.62,0,0,1,.46-.17.58.58,0,0,1,.62.62.58.58,0,0,1-.22.48.67.67,0,0,1-.5.13,1.53,1.53,0,0,0,.7.61,2.31,2.31,0,0,0,1,.23,1.08,1.08,0,0,0,.43-.1,1.15,1.15,0,0,0,.37-.25,1.76,1.76,0,0,0,.34-.7,3.06,3.06,0,0,0,.1-.77c0-.15,0-.29,0-.4s0-.25-.06-.35a1.46,1.46,0,0,0-.42-.79,1.12,1.12,0,0,0-.81-.29h-.51a.37.37,0,0,1-.17,0,.11.11,0,0,1-.07-.11c0-.06,0-.1,0-.12h.43l.35,0a1,1,0,0,0,.58-.34,1.68,1.68,0,0,0,.35-.59c0-.18.07-.33.09-.44a2.42,2.42,0,0,0,0-.45,1.64,1.64,0,0,0-.07-.52,1,1,0,0,0-.28-.46.92.92,0,0,0-.35-.19,1,1,0,0,0-.36,0l-.38,0a2,2,0,0,0-.38.1,1.62,1.62,0,0,0-.41.22,1,1,0,0,0-.3.33h.19a.58.58,0,0,1,.37.16.48.48,0,0,1,.13.37.55.55,0,0,1-.56.56.54.54,0,0,1-.42-.16A.58.58,0,0,1,162,161a1.26,1.26,0,0,1,.36-.88,1.89,1.89,0,0,1,.81-.5,2.34,2.34,0,0,1,.38-.09,2.75,2.75,0,0,1,.41,0,2.92,2.92,0,0,1,.73.09,2,2,0,0,1,.66.32,1.62,1.62,0,0,1,.47.47,1.21,1.21,0,0,1,.18.63,1.58,1.58,0,0,1-.13.63,2.61,2.61,0,0,1-.31.56,2.49,2.49,0,0,1-.51.45,2.85,2.85,0,0,1-.6.31,2.35,2.35,0,0,1,1,.45,2.06,2.06,0,0,1,.69.88c0,.11.06.22.09.32a2.21,2.21,0,0,1,0,.35A1.82,1.82,0,0,1,166.15,165.71Z" transform="translate(-37.47 -46.96)"/>
</svg>
