<?xml version="1.0" encoding="UTF-8"?>
<svg id="_레이어_1" data-name="레이어 1" xmlns="http://www.w3.org/2000/svg" width="177.95" height="170.83" viewBox="0 0 177.95 170.83">
  <circle cx="85.41" cy="85.41" r="85.04" fill="#dcdddd" stroke="#000" stroke-miterlimit="10" stroke-width=".75"/>
  <circle cx="85.41" cy="85.41" r="42.52" fill="#fff" stroke="#000" stroke-miterlimit="10" stroke-width=".75"/>
  <line x1="85.41" y1="85.41" x2="169.08" y2="70.66" fill="none" stroke="#000" stroke-miterlimit="10" stroke-width=".4"/>
  <line x1="85.41" y1="85.41" x2="99.96" y2="45.46" fill="none" stroke="#000" stroke-miterlimit="10" stroke-width=".4"/>
  <line x1="30.71" y1="20.3" x2="169.08" y2="70.66" fill="none" stroke="#000" stroke-miterlimit="10" stroke-width=".4"/>
  <g>
    <path d="M121.42,43.88c-.21-.03-.41-.07-.61-.1" fill="none" stroke="#221e1f" stroke-miterlimit="10" stroke-width=".4"/>
    <path d="M119.9,43.63c-8.48-1.28-15.32-.95-18.94,1.06" fill="none" stroke="#221e1f" stroke-dasharray="1.27 .92" stroke-miterlimit="10" stroke-width=".4"/>
    <path d="M100.57,44.92c-.18.11-.35.23-.51.35" fill="none" stroke="#221e1f" stroke-miterlimit="10" stroke-width=".4"/>
  </g>
  <g>
    <path d="M168.85,70.33c-.05-.19-.11-.39-.18-.59" fill="none" stroke="#221e1f" stroke-miterlimit="10" stroke-width=".4"/>
    <path d="M168.32,68.9c-2.23-4.69-9.63-10.54-20-15.9" fill="none" stroke="#221e1f" stroke-dasharray="1.27 .92" stroke-miterlimit="10" stroke-width=".4"/>
    <path d="M147.9,52.78c-.18-.09-.37-.19-.55-.28" fill="none" stroke="#221e1f" stroke-miterlimit="10" stroke-width=".4"/>
  </g>
  <path d="M175.14,72.1v-.28c.48,0,.79-.05.93-.14.15-.11.17-.31.06-.61l-.65-1.84h-3.06l-.51,1.59c-.14.4-.14.67,0,.81.13.13.44.19.94.19v.28h-2.41v-.28c.31,0,.54-.06.68-.19.15-.14.31-.46.49-.95l2.19-6.41.61-.27,2.43,7.03c.09.29.23.5.4.61.17.11.4.17.7.17v.28h-2.81ZM173.94,64.81l-1.4,4.09h2.83l-1.43-4.09Z" fill="#221e1f"/>
  <path d="M30.14,18.89c-.51.44-1.21.67-2.09.67h-3.54v-.28c.42,0,.7-.05.83-.14.14-.09.22-.29.22-.58v-5.88c0-.27-.07-.47-.22-.58-.16-.12-.44-.18-.83-.18v-.28h3.33c.82,0,1.47.18,1.96.53.46.34.69.78.69,1.33,0,.41-.13.76-.38,1.04-.29.32-.74.56-1.35.72.72.14,1.25.41,1.6.79.32.35.48.8.48,1.34,0,.59-.23,1.1-.69,1.5ZM29.27,12.41c-.35-.33-.83-.49-1.45-.49h-.65c-.32,0-.56.06-.7.18-.14.12-.22.32-.22.58v2.53h1.57c.53,0,.98-.19,1.36-.58.35-.36.53-.76.53-1.19,0-.39-.15-.73-.44-1.02ZM29.51,16.06c-.41-.39-.92-.58-1.51-.58h-1.74v3.07c0,.29.07.48.22.58.12.09.36.14.7.14h.75c.67,0,1.21-.2,1.61-.59.38-.36.56-.79.56-1.3s-.19-.95-.58-1.32Z" fill="#221e1f"/>
  <path d="M83.15,93.81c-.61.86-1.43,1.29-2.45,1.29s-1.85-.43-2.46-1.29c-.56-.77-.84-1.72-.84-2.84s.28-2.07.84-2.85c.61-.86,1.43-1.29,2.46-1.29s1.84.43,2.45,1.29c.56.78.84,1.73.84,2.85s-.28,2.06-.84,2.84ZM82.59,88.31c-.48-.8-1.11-1.2-1.89-1.2s-1.43.4-1.91,1.2c-.44.74-.66,1.63-.66,2.67s.22,1.9.66,2.63c.48.8,1.12,1.2,1.91,1.2s1.41-.4,1.89-1.2c.44-.73.66-1.61.66-2.63s-.22-1.93-.66-2.67Z" fill="#221e1f"/>
  <path d="M102.4,38.6c-.42.38-.98.57-1.66.57h-1.8v2.64c0,.28.08.48.23.6.17.14.48.2.91.2v.28h-2.89v-.28c.39,0,.66-.07.82-.2.15-.12.23-.32.23-.6v-5.85c0-.27-.08-.46-.23-.56-.15-.1-.42-.15-.82-.15v-.28h3.64c.63,0,1.16.17,1.59.52.45.37.67.86.67,1.47,0,.69-.23,1.23-.68,1.63ZM101.87,35.77c-.33-.34-.77-.52-1.31-.52h-.85c-.28,0-.48.05-.59.15-.12.11-.18.29-.18.56v2.92h1.62c.54,0,.98-.21,1.32-.62.3-.37.45-.81.45-1.3s-.15-.87-.45-1.19Z" fill="#221e1f"/>
  <circle cx="85.41" cy="85.41" r="1.42" fill="#221e1f"/>
  <polyline points="108.08 48.5 105.18 56.49 97.18 53.58" fill="none" stroke="#221e1f" stroke-miterlimit="10" stroke-width=".4"/>
  <g>
    <path d="M129.19,89.18c-.2.04-.41.07-.61.11" fill="none" stroke="#221e1f" stroke-miterlimit="10" stroke-width=".4"/>
    <path d="M127.69,89.44c-19.07,3.14-35.7,1.65-41.51-3.29" fill="none" stroke="#221e1f" stroke-dasharray="1.24 .9" stroke-miterlimit="10" stroke-width=".4"/>
    <path d="M85.85,85.85c-.15-.14-.3-.29-.43-.44" fill="none" stroke="#221e1f" stroke-miterlimit="10" stroke-width=".4"/>
  </g>
  <g>
    <path d="M169.04,70.64c-.07.19-.16.37-.25.56" fill="none" stroke="#221e1f" stroke-miterlimit="10" stroke-width=".4"/>
    <path d="M168.33,72.01c-3.42,5.4-14.25,11.06-28.47,14.83" fill="none" stroke="#221e1f" stroke-dasharray="1.28 .93" stroke-miterlimit="10" stroke-width=".4"/>
    <path d="M139.41,86.96c-.2.05-.4.1-.6.16" fill="none" stroke="#221e1f" stroke-miterlimit="10" stroke-width=".4"/>
  </g>
  <g>
    <path d="M84.28,66.47c-.06.2-.11.4-.16.6" fill="none" stroke="#221e1f" stroke-miterlimit="10" stroke-width=".4"/>
    <path d="M83.9,67.96c-1.72,7.13-1.39,13.43.83,16.6" fill="none" stroke="#221e1f" stroke-dasharray="1.27 .92" stroke-miterlimit="10" stroke-width=".4"/>
    <path d="M84.99,84.92c.13.16.27.32.41.46" fill="none" stroke="#221e1f" stroke-miterlimit="10" stroke-width=".4"/>
  </g>
  <g>
    <path d="M99.94,45.5c-.2.02-.41.04-.61.08" fill="none" stroke="#221e1f" stroke-miterlimit="10" stroke-width=".4"/>
    <path d="M98.44,45.82c-3.71,1.25-7.91,5.93-11.07,12.46" fill="none" stroke="#221e1f" stroke-dasharray="1.27 .92" stroke-miterlimit="10" stroke-width=".4"/>
    <path d="M87.17,58.7c-.09.19-.18.37-.26.56" fill="none" stroke="#221e1f" stroke-miterlimit="10" stroke-width=".4"/>
  </g>
  <path d="M88.63,61.72c-.12.13-.27.19-.43.19-.12,0-.22-.03-.3-.1-.08-.07-.12-.17-.12-.29,0-.16.05-.3.16-.41.11-.11.24-.17.41-.19-.05-.04-.11-.06-.17-.09-.09-.03-.19-.04-.29-.04-.14,0-.28.02-.41.06-.12.04-.24.1-.37.19-.13.09-.28.25-.44.48-.17.24-.26.42-.29.56l-.77,3.08c-.04.13-.1.23-.21.29s-.21.08-.33.05c-.12-.04-.18-.1-.21-.18-.01-.06,0-.16.03-.3.04-.21.1-.47.18-.78.04-.19.12-.49.23-.9l.39-1.48c.07-.29.09-.51.09-.66-.01-.27-.13-.41-.35-.41-.11,0-.2.03-.28.09s-.14.14-.19.26c-.07.13-.13.27-.18.42-.06.17-.11.35-.15.55l-.02.04c-.01.07-.03.12-.04.14-.02.04-.06.06-.12.06-.07,0-.1-.02-.12-.05-.01-.02-.01-.06,0-.13v-.05c.07-.24.12-.44.17-.58.06-.21.14-.39.24-.54.08-.14.18-.24.3-.32.13-.08.27-.12.43-.12.12,0,.24.01.35.04.11.04.22.1.32.18.09.08.16.17.22.27.06.1.1.21.12.34.08-.11.16-.21.24-.3.09-.09.18-.16.28-.24.14-.1.28-.18.42-.23.15-.05.31-.08.47-.08.24,0,.44.05.62.16.21.14.31.32.31.55,0,.17-.06.32-.18.45Z" fill="#221e1f"/>
  <path d="M137.39,91.48c-.08.13-.17.25-.26.36-.14.15-.29.27-.47.34-.17.09-.35.13-.54.13-.34,0-.63-.06-.87-.18-.28-.14-.44-.34-.5-.6-.04-.16-.03-.36.01-.58.02-.14.08-.34.17-.61l.03-.05.16-.48c.09-.26.1-.5.05-.72-.05-.21-.17-.38-.35-.48-.09-.06-.2-.11-.31-.13-.1-.02-.22-.03-.37-.03h-1.26l-.93,2.78-.02.02c-.03.09-.05.16-.05.2-.01.08,0,.14.04.18.05.04.16.07.34.09.09.02.22.02.39.02h.26l-.11.34-.36-.02c-.19-.01-.39-.02-.62-.02h-1.43c-.3,0-.57.02-.81.04l.12-.34h.27c.16,0,.28,0,.38-.02.18-.01.31-.04.39-.09.06-.04.12-.1.17-.18.03-.04.06-.11.09-.2v-.02s1.94-5.79,1.94-5.79v-.03c.04-.09.06-.16.06-.2.01-.08,0-.13-.04-.16-.05-.06-.17-.09-.34-.11-.09,0-.22,0-.37,0h-.27l.12-.34h3.46c.37,0,.71.04,1.01.13.33.1.6.25.81.46.19.17.32.37.39.59.09.26.08.52,0,.79-.11.33-.34.64-.68.92-.28.23-.61.43-1.01.6-.17.06-.31.12-.42.15-.16.05-.3.09-.43.13.13.04.25.1.38.18.1.07.21.16.3.26.14.16.22.38.23.63,0,.16-.02.41-.08.75l-.05.32-.05.23c-.08.4-.12.69-.11.88.01.32.15.48.41.48.23,0,.45-.11.65-.33.16-.17.29-.38.41-.64h0c.03-.07.05-.11.06-.13.03-.04.08-.05.12-.05.06,0,.09.01.1.04,0,.03,0,.08-.02.14-.04.12-.1.25-.18.38ZM136.74,86.02c.02-.15,0-.28-.02-.39-.07-.22-.2-.39-.38-.5-.17-.1-.38-.16-.64-.18-.17-.01-.36-.02-.57-.03h-.56c-.24,0-.4.03-.48.08-.06.05-.13.18-.2.4l-.94,2.81h1.21c.21,0,.4-.01.55-.03.17-.02.33-.06.48-.11.37-.13.67-.33.91-.6.22-.24.39-.55.51-.91.07-.2.11-.38.12-.53Z" fill="#221e1f"/>
  <g>
    <path d="M125.63,50.58h-1.78c-.33,0-.62.02-.89.04v-.34h.53c.31,0,.51-.02.61-.07.16-.07.24-.22.24-.45v-5.68c-.17.08-.37.14-.59.19-.19.04-.4.08-.61.1h-.24v-.34c.06,0,.12,0,.16-.01.06,0,.13,0,.2-.01.19-.01.37-.05.56-.1.18-.04.35-.1.53-.18.1-.06.2-.12.29-.18.09-.07.18-.15.26-.22h.26v6.44c0,.24.08.39.24.45.1.05.31.07.62.07h.51v.34c-.26-.02-.56-.04-.89-.04Z"/>
    <path d="M131.82,50.62h-4.07v-.26l2.23-2.5c.16-.2.31-.38.43-.55.14-.2.27-.4.38-.6.11-.21.19-.42.25-.62.07-.23.11-.45.11-.65,0-.24-.03-.45-.09-.65-.06-.22-.15-.41-.27-.58-.14-.19-.31-.33-.5-.43-.19-.09-.39-.13-.61-.13-.36,0-.67.1-.93.3-.26.2-.44.47-.56.81h.14c.17-.01.31.04.42.14.11.11.17.25.17.43,0,.16-.05.29-.16.41-.11.11-.25.17-.41.17-.19,0-.33-.06-.44-.18-.1-.11-.15-.26-.15-.44,0-.25.05-.5.15-.74.1-.23.24-.43.41-.61.19-.21.42-.38.67-.48.25-.1.52-.15.81-.15.31,0,.61.05.89.14.29.1.55.25.78.45.21.2.38.43.49.7.11.26.17.54.17.85,0,.29-.04.54-.13.77-.09.22-.22.44-.41.66-.17.19-.37.39-.6.6-.12.12-.32.31-.6.57l-.62.59-1.17,1.14h2.03c.21,0,.38,0,.5-.01.23-.01.37-.04.42-.07.07-.06.13-.18.18-.35.02-.09.05-.24.09-.45l.03-.18h.28l-.31,1.92Z"/>
    <path d="M138.36,51.91l-.03.05c-.04.07-.07.12-.09.14-.04.04-.08.06-.14.06h-.21l-2.05-5.15-.78.63-.17-.19,1.54-1.28,1.88,4.73,4.88-10.71h.27v.46l-5.11,11.26Z"/>
    <path d="M142.74,40.64v-.44h7.1v.44h-7.1Z"/>
    <path d="M147.75,49.54c-.12.26-.28.48-.48.67-.22.21-.48.37-.78.48-.29.11-.59.16-.9.16-.16,0-.3-.01-.44-.03-.14-.02-.28-.05-.4-.09-.4-.12-.72-.31-.96-.58-.27-.29-.41-.63-.41-1.02,0-.2.05-.36.15-.47.11-.11.26-.17.46-.17.18,0,.33.06.44.17.11.11.17.26.17.45,0,.2-.07.36-.21.47-.14.11-.31.16-.5.13.13.24.36.45.7.61.32.15.65.22.99.22.15,0,.29-.03.43-.1.14-.06.26-.14.36-.25.16-.19.27-.42.34-.7.06-.23.1-.49.1-.77,0-.15,0-.28-.02-.4-.01-.13-.03-.24-.05-.34-.09-.35-.23-.61-.42-.79-.21-.19-.47-.29-.8-.29h-.51c-.07,0-.13,0-.16-.02-.05-.02-.08-.06-.08-.12s.01-.1.04-.12c.02,0,.06-.01.12-.01.09,0,.2,0,.31-.01.12,0,.24-.01.34-.02.21-.04.4-.15.58-.34.16-.17.27-.37.34-.59.04-.18.08-.33.1-.44.03-.16.04-.3.04-.44,0-.2-.03-.38-.08-.52-.06-.19-.16-.34-.28-.45-.1-.09-.21-.16-.34-.19-.11-.04-.23-.05-.36-.05-.12,0-.25.01-.38.03-.12.02-.25.05-.38.1-.15.06-.29.13-.41.23-.13.09-.23.2-.3.32h.18c.16.03.29.09.38.17.09.09.13.21.13.38s-.05.3-.16.4c-.1.11-.23.16-.4.16-.18,0-.32-.05-.42-.16-.1-.11-.15-.24-.15-.41,0-.33.12-.62.35-.88.21-.22.48-.39.81-.49.11-.04.24-.08.38-.1.13-.01.26-.02.41-.02.25,0,.49.03.73.1.24.07.46.18.65.31.19.14.35.29.46.47.12.2.18.41.18.63,0,.21-.04.41-.13.62-.07.19-.18.37-.31.56-.14.16-.3.31-.5.45-.19.13-.39.23-.6.31.38.06.72.21,1.02.44.31.23.54.52.69.88.04.11.06.22.09.32.03.12.04.24.04.34,0,.27-.06.54-.18.79Z"/>
  </g>
</svg>