<svg id="레이어_1" data-name="레이어 1" xmlns="http://www.w3.org/2000/svg" width="150.49" height="130.82" viewBox="0 0 150.49 130.82">
  <circle cx="109.62" cy="77.69" r="1.42" fill="#231815"/>
  <path d="M142.42,121.69v-.28a1.89,1.89,0,0,0,.89-.15.53.53,0,0,0,.26-.51v-6a.59.59,0,0,0-.26-.57,1.84,1.84,0,0,0-.89-.15v-.28h3v.28a1.86,1.86,0,0,0-.9.15.62.62,0,0,0-.24.57v6a.55.55,0,0,0,.24.51,1.91,1.91,0,0,0,.9.15v.28Z" transform="translate(-38.14 -46.96)" fill="#221e1f"/>
  <g>
    <path d="M120.77,174l.62,0" transform="translate(-38.14 -46.96)" fill="none" stroke="#221e1f" stroke-miterlimit="10" stroke-width="0.4"/>
    <path d="M122.29,174c28.66-1,51.93-6.81,58.82-14.45" transform="translate(-38.14 -46.96)" fill="none" stroke="#221e1f" stroke-miterlimit="10" stroke-width="0.4" stroke-dasharray="1.24 0.9"/>
    <path d="M181.4,159.18a5.85,5.85,0,0,0,.38-.49" transform="translate(-38.14 -46.96)" fill="none" stroke="#221e1f" stroke-miterlimit="10" stroke-width="0.4"/>
  </g>
  <g>
    <path d="M45.72,158.66c.12.17.25.33.38.49" transform="translate(-38.14 -46.96)" fill="none" stroke="#221e1f" stroke-miterlimit="10" stroke-width="0.4"/>
    <path d="M46.7,159.82c7.26,7.53,30.49,13.24,59,14.16" transform="translate(-38.14 -46.96)" fill="none" stroke="#221e1f" stroke-miterlimit="10" stroke-width="0.4" stroke-dasharray="1.24 0.9"/>
    <path d="M106.13,174l.62,0" transform="translate(-38.14 -46.96)" fill="none" stroke="#221e1f" stroke-miterlimit="10" stroke-width="0.4"/>
  </g>
  <g>
    <path d="M143.91,133.62c0-.2.07-.41.11-.61" transform="translate(-38.14 -46.96)" fill="none" stroke="#221e1f" stroke-miterlimit="10" stroke-width="0.4"/>
    <path d="M144.18,132.19c.66-3.14,1.64-5.58,2.81-6.87" transform="translate(-38.14 -46.96)" fill="none" stroke="#221e1f" stroke-miterlimit="10" stroke-width="0.4" stroke-dasharray="1.14 0.83"/>
    <path d="M147.27,125a2.81,2.81,0,0,1,.49-.38" transform="translate(-38.14 -46.96)" fill="none" stroke="#221e1f" stroke-miterlimit="10" stroke-width="0.4"/>
  </g>
  <g>
    <path d="M147.77,158.53a2.81,2.81,0,0,1-.49-.38" transform="translate(-38.14 -46.96)" fill="none" stroke="#221e1f" stroke-miterlimit="10" stroke-width="0.4"/>
    <path d="M146.67,157.47c-1.16-1.54-2.12-4.27-2.72-7.68" transform="translate(-38.14 -46.96)" fill="none" stroke="#221e1f" stroke-miterlimit="10" stroke-width="0.4" stroke-dasharray="1.26 0.91"/>
    <path d="M143.87,149.33l-.09-.61" transform="translate(-38.14 -46.96)" fill="none" stroke="#221e1f" stroke-miterlimit="10" stroke-width="0.4"/>
  </g>
  <polyline points="143.64 106.03 137.97 106.03 137.97 111.7" fill="none" stroke="#221e1f" stroke-miterlimit="10" stroke-width="0.4"/>
  <path d="M183.38,55.05v-.27a2,2,0,0,0,.93-.14c.15-.11.17-.32.06-.62l-.65-1.83h-3.06l-.5,1.59c-.14.4-.14.67,0,.8a1.45,1.45,0,0,0,.94.2v.27h-2.41v-.27a1,1,0,0,0,.68-.2,2.61,2.61,0,0,0,.48-.94l2.2-6.41.6-.27,2.43,7a1.14,1.14,0,0,0,.4.61,1.2,1.2,0,0,0,.71.18v.27Zm-1.2-7.28-1.41,4.09h2.83Z" transform="translate(-38.14 -46.96)" fill="#221e1f"/>
  <path d="M43.77,163.08a3,3,0,0,1-2.08.67H38.14v-.28a1.73,1.73,0,0,0,.84-.14c.14-.09.21-.28.21-.58v-5.88a.72.72,0,0,0-.21-.58,1.45,1.45,0,0,0-.84-.18v-.28h3.33a3.3,3.3,0,0,1,2,.53,1.56,1.56,0,0,1,.69,1.33,1.51,1.51,0,0,1-.38,1,2.7,2.7,0,0,1-1.35.72,2.91,2.91,0,0,1,1.6.79,2,2,0,0,1-.22,2.84Zm-.86-6.48a2,2,0,0,0-1.45-.49h-.65a1.09,1.09,0,0,0-.7.18.74.74,0,0,0-.22.58v2.53h1.57a1.86,1.86,0,0,0,1.36-.58,1.69,1.69,0,0,0,.53-1.2A1.4,1.4,0,0,0,42.91,156.6Zm.24,3.66a2.12,2.12,0,0,0-1.52-.58H39.89v3.07a.67.67,0,0,0,.22.58,1.26,1.26,0,0,0,.7.14h.75a2.23,2.23,0,0,0,1.61-.59,1.75,1.75,0,0,0,.56-1.3A1.79,1.79,0,0,0,43.15,160.26Z" transform="translate(-38.14 -46.96)" fill="#221e1f"/>
  <path d="M187.54,165a2.67,2.67,0,0,1-1.82.69,2.9,2.9,0,0,1-2.29-1.08,4.65,4.65,0,0,1-1-3.1,4.8,4.8,0,0,1,.86-2.89,2.69,2.69,0,0,1,2.24-1.2,3.18,3.18,0,0,1,.62.06l.64.19.07,0,.79-.25.76,2-.17.11a5.72,5.72,0,0,0-1.07-1.22,2.51,2.51,0,0,0-1.62-.65,2,2,0,0,0-1.7,1.08,5.21,5.21,0,0,0-.67,2.73,4.09,4.09,0,0,0,.81,2.59,2.41,2.41,0,0,0,2,1,2.1,2.1,0,0,0,1.3-.44,3.83,3.83,0,0,0,1.14-1.4l.21.08A4.27,4.27,0,0,1,187.54,165Z" transform="translate(-38.14 -46.96)" fill="#221e1f"/>
  <line x1="109.62" y1="77.69" x2="109.62" y2="111.62" fill="none" stroke="#221e1f" stroke-miterlimit="10" stroke-width="0.4"/>
  <g>
    <line x1="7.58" y1="111.62" x2="143.64" y2="111.62" fill="none" stroke="#221e1f" stroke-linejoin="round" stroke-width="0.75"/>
    <line x1="143.64" y1="111.73" x2="143.64" y2="9.69" fill="none" stroke="#221e1f" stroke-linejoin="round" stroke-width="0.75"/>
    <line x1="143.64" y1="9.69" x2="7.58" y2="111.62" fill="none" stroke="#221e1f" stroke-linejoin="round" stroke-width="0.75"/>
    <circle cx="109.62" cy="77.61" r="34.02" fill="none" stroke="#221e1f" stroke-linejoin="round" stroke-width="0.75"/>
  </g>
  <path d="M144.55,144h-4.09v-.26l2.24-2.51c.16-.2.31-.38.43-.55a6.64,6.64,0,0,0,.38-.6,3.83,3.83,0,0,0,.24-.63,2,2,0,0,0,.11-.65,2.71,2.71,0,0,0-.08-.66,1.72,1.72,0,0,0-.27-.58,1.58,1.58,0,0,0-.51-.43,1.39,1.39,0,0,0-.61-.13,1.51,1.51,0,0,0-.94.3,1.61,1.61,0,0,0-.56.82H141a.6.6,0,0,1,.42.15.58.58,0,0,1,.17.43.57.57,0,0,1-.16.41.58.58,0,0,1-.41.17.54.54,0,0,1-.44-.18.67.67,0,0,1-.15-.44,2,2,0,0,1,.15-.75,1.93,1.93,0,0,1,.41-.61,1.82,1.82,0,0,1,.68-.49,2.16,2.16,0,0,1,.81-.15,2.93,2.93,0,0,1,.9.14,2.25,2.25,0,0,1,.79.46,2.07,2.07,0,0,1,.49.69,2,2,0,0,1,.17.86,2.11,2.11,0,0,1-.13.77,2.37,2.37,0,0,1-.4.67c-.18.19-.38.39-.61.6l-.6.57-.63.6-1.17,1.14h2.54a1,1,0,0,0,.42-.08.67.67,0,0,0,.18-.35,3.37,3.37,0,0,0,.09-.46l0-.18h.28Z" transform="translate(-38.14 -46.96)"/>
  <path d="M115.53,176.51a2,2,0,0,1-.49.67,2.3,2.3,0,0,1-.76.44,2.34,2.34,0,0,1-.86.16,2.53,2.53,0,0,1-.83-.13,2.19,2.19,0,0,1-.75-.37,1.69,1.69,0,0,1-.51-.63,1.6,1.6,0,0,1-.19-.77,1.83,1.83,0,0,1,.14-.71,2,2,0,0,1,.41-.6,2.88,2.88,0,0,1,.49-.41,3.59,3.59,0,0,1,.55-.31l-.13-.09a4.41,4.41,0,0,1-.52-.36,1.86,1.86,0,0,1-.43-.53,2,2,0,0,1-.16-.41,1.42,1.42,0,0,1-.06-.42,1.72,1.72,0,0,1,.15-.72,1.69,1.69,0,0,1,.45-.58,1.8,1.8,0,0,1,.64-.41,2.15,2.15,0,0,1,.77-.13,2.45,2.45,0,0,1,.71.11,2,2,0,0,1,.65.33,1.5,1.5,0,0,1,.45.52,1.47,1.47,0,0,1,.17.69,1.24,1.24,0,0,1-.1.5,1.43,1.43,0,0,1-.27.46,4.28,4.28,0,0,1-.44.4,3.44,3.44,0,0,1-.53.34l.45.28a3.24,3.24,0,0,1,.64.5,1.65,1.65,0,0,1,.43.72,1.23,1.23,0,0,1,.08.33,1.53,1.53,0,0,1,0,.3A2,2,0,0,1,115.53,176.51Zm-.45-.85a1.31,1.31,0,0,0-.21-.36,2.78,2.78,0,0,0-.48-.4c-.13-.09-.33-.22-.61-.38l-.2-.13L113,174a4.18,4.18,0,0,0-.6.41,2,2,0,0,0-.39.48,2.05,2.05,0,0,0-.22.48,1.73,1.73,0,0,0-.07.5,1.68,1.68,0,0,0,.13.62,1.55,1.55,0,0,0,.38.51,1.63,1.63,0,0,0,.57.34,1.67,1.67,0,0,0,.67.13,1.93,1.93,0,0,0,.62-.11,2.16,2.16,0,0,0,.57-.28,1.35,1.35,0,0,0,.38-.45,1.06,1.06,0,0,0,.15-.55A1.26,1.26,0,0,0,115.08,175.66Zm-.26-4.36a1.1,1.1,0,0,0-.34-.43,1.32,1.32,0,0,0-.5-.29,1.54,1.54,0,0,0-.56-.1,2.51,2.51,0,0,0-.55.06,1.54,1.54,0,0,0-.48.24,1,1,0,0,0-.34.37.85.85,0,0,0-.13.47.88.88,0,0,0,.16.51,1.39,1.39,0,0,0,.39.37l1.38.89.44-.32a3.75,3.75,0,0,0,.34-.36,1.44,1.44,0,0,0,.23-.42,1.32,1.32,0,0,0,.08-.44A1.23,1.23,0,0,0,114.82,171.3Z" transform="translate(-38.14 -46.96)"/>
</svg>
