<svg id="레이어_1" data-name="레이어 1" xmlns="http://www.w3.org/2000/svg" width="151.51" height="81.73" viewBox="0 0 151.51 81.73">
  <polygon points="143.64 66.41 7.58 66.41 143.64 9.72 143.64 66.41" fill="none" stroke="#221e1f" stroke-linejoin="round" stroke-width="0.75"/>
  <circle cx="120.96" cy="43.74" r="22.68" fill="none" stroke="#221e1f" stroke-miterlimit="10" stroke-width="0.4"/>
  <circle cx="120.96" cy="43.74" r="1.42" fill="#231815"/>
  <g>
    <path d="M105.22,132.88l.62,0" transform="translate(-35.17 -55.62)" fill="none" stroke="#221e1f" stroke-miterlimit="10" stroke-width="0.4"/>
    <path d="M106.72,132.84c23.51-.71,42.61-4.74,48.55-10" transform="translate(-35.17 -55.62)" fill="none" stroke="#221e1f" stroke-miterlimit="10" stroke-width="0.4" stroke-dasharray="1.22 0.89"/>
    <path d="M155.59,122.51q.22-.23.42-.45" transform="translate(-35.17 -55.62)" fill="none" stroke="#221e1f" stroke-miterlimit="10" stroke-width="0.4"/>
  </g>
  <g>
    <path d="M42.74,122q.19.22.42.45" transform="translate(-35.17 -55.62)" fill="none" stroke="#221e1f" stroke-miterlimit="10" stroke-width="0.4"/>
    <path d="M43.82,123.08c6.32,5.19,25.36,9.11,48.65,9.77" transform="translate(-35.17 -55.62)" fill="none" stroke="#221e1f" stroke-miterlimit="10" stroke-width="0.4" stroke-dasharray="1.22 0.89"/>
    <path d="M92.93,132.86l.62,0" transform="translate(-35.17 -55.62)" fill="none" stroke="#221e1f" stroke-miterlimit="10" stroke-width="0.4"/>
  </g>
  <g>
    <path d="M85.47,92.51l-.57.26" transform="translate(-35.17 -55.62)" fill="none" stroke="#221e1f" stroke-miterlimit="10" stroke-width="0.4"/>
    <path d="M84.09,93.13c-21.42,9.69-37.51,20.76-40.95,27.93" transform="translate(-35.17 -55.62)" fill="none" stroke="#221e1f" stroke-miterlimit="10" stroke-width="0.4" stroke-dasharray="1.22 0.89"/>
    <path d="M43,121.46c-.08.19-.15.39-.22.58" transform="translate(-35.17 -55.62)" fill="none" stroke="#221e1f" stroke-miterlimit="10" stroke-width="0.4"/>
  </g>
  <g>
    <path d="M147.3,78.49a5.87,5.87,0,0,0-.56-.25" transform="translate(-35.17 -55.62)" fill="none" stroke="#221e1f" stroke-miterlimit="10" stroke-width="0.4"/>
    <path d="M145.91,77.94c-7.83-2.36-26.91,1.34-48.67,9.7" transform="translate(-35.17 -55.62)" fill="none" stroke="#221e1f" stroke-miterlimit="10" stroke-width="0.4" stroke-dasharray="1.22 0.89"/>
    <path d="M96.82,87.8l-.58.22" transform="translate(-35.17 -55.62)" fill="none" stroke="#221e1f" stroke-miterlimit="10" stroke-width="0.4"/>
  </g>
  <polyline points="143.64 60.74 137.97 60.74 137.97 66.41" fill="none" stroke="#221e1f" stroke-miterlimit="10" stroke-width="0.4"/>
  <polyline points="120.96 60.74 126.63 60.74 126.63 66.41" fill="none" stroke="#221e1f" stroke-miterlimit="10" stroke-width="0.4"/>
  <polyline points="143.64 49.4 137.97 49.4 137.97 43.73" fill="none" stroke="#221e1f" stroke-miterlimit="10" stroke-width="0.4"/>
  <path d="M179.75,63.72v-.28a1.92,1.92,0,0,0,.92-.14c.16-.11.18-.32.07-.62l-.65-1.83H177l-.5,1.59c-.14.4-.14.67,0,.8a1.45,1.45,0,0,0,.94.2v.28h-2.41v-.28a1,1,0,0,0,.68-.2,2.61,2.61,0,0,0,.48-.94l2.2-6.41.6-.27,2.43,7a1.1,1.1,0,0,0,.4.61,1.19,1.19,0,0,0,.7.18v.28Zm-1.2-7.29-1.41,4.09H180Z" transform="translate(-35.17 -55.62)" fill="#221e1f"/>
  <path d="M40.8,126.45a3.07,3.07,0,0,1-2.09.67H35.17v-.28a1.71,1.71,0,0,0,.83-.14c.14-.09.21-.28.21-.58v-5.88a.72.72,0,0,0-.21-.58,1.44,1.44,0,0,0-.83-.18v-.28h3.32a3.28,3.28,0,0,1,2,.53,1.56,1.56,0,0,1,.69,1.33,1.47,1.47,0,0,1-.38,1,2.7,2.7,0,0,1-1.35.72,2.88,2.88,0,0,1,1.6.79,2,2,0,0,1-.21,2.84ZM39.93,120a2,2,0,0,0-1.45-.49h-.65a1.11,1.11,0,0,0-.7.18.75.75,0,0,0-.21.58v2.53h1.56a1.82,1.82,0,0,0,1.36-.58,1.65,1.65,0,0,0,.53-1.19A1.37,1.37,0,0,0,39.93,120Zm.24,3.66a2.11,2.11,0,0,0-1.51-.58H36.92v3.07a.67.67,0,0,0,.21.58,1.26,1.26,0,0,0,.7.14h.75a2.22,2.22,0,0,0,1.61-.59,1.79,1.79,0,0,0,0-2.62Z" transform="translate(-35.17 -55.62)" fill="#221e1f"/>
  <path d="M184.56,128.39a2.65,2.65,0,0,1-1.82.69,2.92,2.92,0,0,1-2.29-1.08,4.65,4.65,0,0,1-1-3.1,4.8,4.8,0,0,1,.86-2.89,2.69,2.69,0,0,1,2.24-1.2,3.36,3.36,0,0,1,.63.06l.63.2.07,0,.79-.25.77,2-.18.11a5.46,5.46,0,0,0-1.07-1.22,2.57,2.57,0,0,0-1.62-.65,2,2,0,0,0-1.7,1.08,5.21,5.21,0,0,0-.66,2.73,4.09,4.09,0,0,0,.81,2.59,2.38,2.38,0,0,0,2,1,2.1,2.1,0,0,0,1.3-.44,4,4,0,0,0,1.15-1.4l.2.08A4.16,4.16,0,0,1,184.56,128.39Z" transform="translate(-35.17 -55.62)" fill="#221e1f"/>
  <line x1="120.96" y1="43.74" x2="120.96" y2="66.41" fill="none" stroke="#221e1f" stroke-miterlimit="10" stroke-width="0.4"/>
  <line x1="120.96" y1="43.74" x2="143.64" y2="43.74" fill="none" stroke="#221e1f" stroke-miterlimit="10" stroke-width="0.4"/>
  <path d="M147.64,71.74a2.39,2.39,0,0,1-1.66.57h-1.81V75a.76.76,0,0,0,.23.61,1.57,1.57,0,0,0,.91.2V76h-2.89v-.28a1.29,1.29,0,0,0,.82-.2.73.73,0,0,0,.23-.61V69.11a.61.61,0,0,0-.23-.56,1.58,1.58,0,0,0-.82-.15v-.28h3.64a2.4,2.4,0,0,1,1.59.52,1.8,1.8,0,0,1,.67,1.47A2,2,0,0,1,147.64,71.74Zm-.53-2.83a1.72,1.72,0,0,0-1.3-.51H145a.89.89,0,0,0-.59.15.72.72,0,0,0-.19.56V72h1.63a1.62,1.62,0,0,0,1.31-.62,2,2,0,0,0,.46-1.3A1.67,1.67,0,0,0,147.11,68.91Z" transform="translate(-35.17 -55.62)" fill="#221e1f"/>
  <path d="M159.38,134.22a3.46,3.46,0,0,1-.47.39,1.33,1.33,0,0,1-.62.16,1.3,1.3,0,0,1-.89-.38,2.66,2.66,0,0,1-.59-.9,3,3,0,0,1-.53.17,2.06,2.06,0,0,1-.48.05,2.91,2.91,0,0,1-2.48-1.29,4.7,4.7,0,0,1-.84-2.83,4.8,4.8,0,0,1,.84-2.85,3,3,0,0,1,5,0,4.61,4.61,0,0,1,.89,2.85,5.38,5.38,0,0,1-.43,2.16,2.72,2.72,0,0,1-1.33,1.51,1.73,1.73,0,0,0,.43.63,1,1,0,0,0,.66.31,1.45,1.45,0,0,0,.4,0,1.36,1.36,0,0,0,.44-.17l.13.17Zm-1.64-7.29a2.16,2.16,0,0,0-3.87,0,5.08,5.08,0,0,0-.66,2.67,6.23,6.23,0,0,0,.21,1.57,2.9,2.9,0,0,0,.62,1.32,1,1,0,0,1,.33-1,1.42,1.42,0,0,1,.82-.2,1.76,1.76,0,0,1,1,.31,3.24,3.24,0,0,1,1.07,1.24,2.81,2.81,0,0,0,.91-1.51,6.11,6.11,0,0,0,.26-1.77A5.08,5.08,0,0,0,157.74,126.93Zm-1.89,5a1.32,1.32,0,0,0-.81-.27.82.82,0,0,0-.49.12,1,1,0,0,0-.31.87,2.62,2.62,0,0,0,.81.61,1.78,1.78,0,0,0,.75.16,1.44,1.44,0,0,0,.44-.07,3,3,0,0,0,.44-.17A2.81,2.81,0,0,0,155.85,131.94Z" transform="translate(-35.17 -55.62)" fill="#221e1f"/>
  <path d="M149.66,100.25V100a1.89,1.89,0,0,0,.89-.15.53.53,0,0,0,.26-.51v-6a.59.59,0,0,0-.26-.57,1.84,1.84,0,0,0-.89-.15v-.28h3v.28a1.86,1.86,0,0,0-.9.15.62.62,0,0,0-.25.57v6a.56.56,0,0,0,.25.51,1.91,1.91,0,0,0,.9.15v.28Z" transform="translate(-35.17 -55.62)" fill="#221e1f"/>
  <line x1="120.96" y1="43.74" x2="112.64" y2="22.63" fill="none" stroke="#231815" stroke-miterlimit="10" stroke-width="0.4"/>
  <g>
    <path d="M170.73,95.22l.62.09" transform="translate(-35.17 -55.62)" fill="none" stroke="#221e1f" stroke-miterlimit="10" stroke-width="0.4"/>
    <path d="M172.34,95.5a10.93,10.93,0,0,1,5.89,2.91" transform="translate(-35.17 -55.62)" fill="none" stroke="#221e1f" stroke-miterlimit="10" stroke-width="0.4" stroke-dasharray="1.38 1"/>
    <path d="M178.53,98.81a3.12,3.12,0,0,1,.3.53" transform="translate(-35.17 -55.62)" fill="none" stroke="#221e1f" stroke-miterlimit="10" stroke-width="0.4"/>
  </g>
  <g>
    <path d="M156.15,99.35a3.64,3.64,0,0,1,.3-.54" transform="translate(-35.17 -55.62)" fill="none" stroke="#221e1f" stroke-miterlimit="10" stroke-width="0.4"/>
    <path d="M157,98.11a11.52,11.52,0,0,1,5.42-2.56" transform="translate(-35.17 -55.62)" fill="none" stroke="#221e1f" stroke-miterlimit="10" stroke-width="0.4" stroke-dasharray="1.26 0.91"/>
    <path d="M162.9,95.45l.61-.11" transform="translate(-35.17 -55.62)" fill="none" stroke="#221e1f" stroke-miterlimit="10" stroke-width="0.4"/>
  </g>
  <g>
    <path d="M182.69,105.36c-.05-.2-.11-.4-.16-.6" transform="translate(-35.17 -55.62)" fill="none" stroke="#221e1f" stroke-miterlimit="10" stroke-width="0.4"/>
    <path d="M182.2,103.75a8.84,8.84,0,0,0-2.39-3.79" transform="translate(-35.17 -55.62)" fill="none" stroke="#221e1f" stroke-miterlimit="10" stroke-width="0.4" stroke-dasharray="1.46 1.06"/>
    <path d="M179.38,99.64a4,4,0,0,0-.54-.29" transform="translate(-35.17 -55.62)" fill="none" stroke="#221e1f" stroke-miterlimit="10" stroke-width="0.4"/>
  </g>
  <g>
    <path d="M178.83,122a3.22,3.22,0,0,0,.55-.29" transform="translate(-35.17 -55.62)" fill="none" stroke="#221e1f" stroke-miterlimit="10" stroke-width="0.4"/>
    <path d="M180,121.23a10.34,10.34,0,0,0,2.55-4.76" transform="translate(-35.17 -55.62)" fill="none" stroke="#221e1f" stroke-miterlimit="10" stroke-width="0.4" stroke-dasharray="1.13 0.82"/>
    <path d="M182.68,116.07c0-.2.1-.4.14-.61" transform="translate(-35.17 -55.62)" fill="none" stroke="#221e1f" stroke-miterlimit="10" stroke-width="0.4"/>
  </g>
  <g>
    <path d="M170.73,126.19l.62-.09" transform="translate(-35.17 -55.62)" fill="none" stroke="#221e1f" stroke-miterlimit="10" stroke-width="0.4"/>
    <path d="M172.34,125.91a10.93,10.93,0,0,0,5.89-2.91" transform="translate(-35.17 -55.62)" fill="none" stroke="#221e1f" stroke-miterlimit="10" stroke-width="0.4" stroke-dasharray="1.38 1"/>
    <path d="M178.53,122.61a3.64,3.64,0,0,0,.3-.54" transform="translate(-35.17 -55.62)" fill="none" stroke="#221e1f" stroke-miterlimit="10" stroke-width="0.4"/>
  </g>
  <g>
    <path d="M156.15,122.06a3.64,3.64,0,0,0,.3.54" transform="translate(-35.17 -55.62)" fill="none" stroke="#221e1f" stroke-miterlimit="10" stroke-width="0.4"/>
    <path d="M157,123.3a11.43,11.43,0,0,0,5.42,2.56" transform="translate(-35.17 -55.62)" fill="none" stroke="#221e1f" stroke-miterlimit="10" stroke-width="0.4" stroke-dasharray="1.26 0.91"/>
    <path d="M162.9,126l.61.12" transform="translate(-35.17 -55.62)" fill="none" stroke="#221e1f" stroke-miterlimit="10" stroke-width="0.4"/>
  </g>
  <g>
    <path d="M152.29,105.35c.06-.2.11-.4.17-.6" transform="translate(-35.17 -55.62)" fill="none" stroke="#221e1f" stroke-miterlimit="10" stroke-width="0.4"/>
    <path d="M152.79,103.74a8.81,8.81,0,0,1,2.39-3.79" transform="translate(-35.17 -55.62)" fill="none" stroke="#221e1f" stroke-miterlimit="10" stroke-width="0.4" stroke-dasharray="1.46 1.06"/>
    <path d="M155.6,99.64a3.29,3.29,0,0,1,.55-.3" transform="translate(-35.17 -55.62)" fill="none" stroke="#221e1f" stroke-miterlimit="10" stroke-width="0.4"/>
  </g>
  <g>
    <path d="M156.15,122a3.56,3.56,0,0,1-.54-.29" transform="translate(-35.17 -55.62)" fill="none" stroke="#221e1f" stroke-miterlimit="10" stroke-width="0.4"/>
    <path d="M155,121.23a10.53,10.53,0,0,1-2.55-4.77" transform="translate(-35.17 -55.62)" fill="none" stroke="#221e1f" stroke-miterlimit="10" stroke-width="0.4" stroke-dasharray="1.13 0.82"/>
    <path d="M152.31,116.06l-.15-.61" transform="translate(-35.17 -55.62)" fill="none" stroke="#221e1f" stroke-miterlimit="10" stroke-width="0.4"/>
  </g>
  <path d="M152.42,112.07v1c0,.23.06.38.18.44a1.12,1.12,0,0,0,.52.08h.38v.34c-.23,0-.49,0-.76,0h-1.5c-.28,0-.52,0-.74,0v-.34h.34a1.42,1.42,0,0,0,.54-.07c.13-.06.19-.21.19-.45v-1h-2.93v-.34l3.38-5.17c0-.06.06-.1.09-.11s.07,0,.14,0a.16.16,0,0,1,.15.06.59.59,0,0,1,0,.17v5.07h1.11v.34Zm-.79-4.46L149,111.73h2.68Z" transform="translate(-35.17 -55.62)"/>
  <path d="M168.08,128.26v1c0,.23.07.38.19.44a1.12,1.12,0,0,0,.52.08h.37v.34l-.75,0h-1.5l-.74,0v-.34h.34a1.24,1.24,0,0,0,.54-.07q.18-.09.18-.45v-1H164.3v-.34l3.39-5.17a.27.27,0,0,1,.08-.11l.14,0q.12,0,.15.06a.39.39,0,0,1,0,.18v5.06h1.11v.34Zm-.78-4.46-2.68,4.12h2.68Z" transform="translate(-35.17 -55.62)"/>
  <path d="M184.21,111.54v1c0,.23.06.37.18.44a1.16,1.16,0,0,0,.52.07h.37v.35c-.23,0-.48,0-.75,0H183c-.28,0-.53,0-.74,0V113h.34a1.49,1.49,0,0,0,.54-.06c.12-.06.19-.22.19-.45v-1h-2.94v-.35l3.39-5.16a.18.18,0,0,1,.22-.13.18.18,0,0,1,.16.06.59.59,0,0,1,0,.17v5.06h1.11v.35Zm-.79-4.46-2.68,4.11h2.68Z" transform="translate(-35.17 -55.62)"/>
  <path d="M167.61,96.09v1c0,.23.06.38.18.44a1.12,1.12,0,0,0,.52.08h.37v.34l-.75,0h-1.5l-.74,0v-.34H166a1.24,1.24,0,0,0,.54-.07q.18-.09.18-.45v-1h-2.93v-.34l3.39-5.17a.38.38,0,0,1,.08-.11l.14,0c.08,0,.13,0,.15.07a.29.29,0,0,1,0,.17v5.06h1.1v.34Zm-.79-4.45-2.68,4.11h2.68Z" transform="translate(-35.17 -55.62)"/>
  <path d="M98.34,137.09H94.25v-.26l2.24-2.51c.16-.2.31-.38.43-.55a6.64,6.64,0,0,0,.38-.6,3.43,3.43,0,0,0,.24-.62,2,2,0,0,0,.11-.66,2.29,2.29,0,0,0-.09-.66,1.61,1.61,0,0,0-.26-.58,1.58,1.58,0,0,0-.51-.43,1.39,1.39,0,0,0-.61-.13,1.51,1.51,0,0,0-.94.3,1.66,1.66,0,0,0-.56.82h.14a.6.6,0,0,1,.42.15.58.58,0,0,1,.17.43.56.56,0,0,1-.16.41.6.6,0,0,1-.85,0,.63.63,0,0,1-.15-.44,1.92,1.92,0,0,1,.15-.74,2,2,0,0,1,.41-.62,1.8,1.8,0,0,1,.68-.48,2.16,2.16,0,0,1,.81-.15,2.65,2.65,0,0,1,.9.14,2.39,2.39,0,0,1,.79.45,2,2,0,0,1,.49.7,2,2,0,0,1,.17.85,2.13,2.13,0,0,1-.13.78,2.16,2.16,0,0,1-.41.66c-.17.19-.37.39-.6.61l-.6.57-.63.59-1.17,1.14h2.54a.89.89,0,0,0,.42-.08.75.75,0,0,0,.18-.35,3.16,3.16,0,0,0,.09-.45l0-.19h.28Z" transform="translate(-35.17 -55.62)"/>
  <path d="M104,134.85a4,4,0,0,1-.34,1.22,2.25,2.25,0,0,1-.77.94,2.07,2.07,0,0,1-1.91.19,1.84,1.84,0,0,1-.65-.41,2.73,2.73,0,0,1-.75-1.5,8.22,8.22,0,0,1-.15-1.71,8.57,8.57,0,0,1,.13-1.64,3,3,0,0,1,.67-1.5,2,2,0,0,1,.68-.51,2.06,2.06,0,0,1,.84-.16,2,2,0,0,1,.78.15,2.45,2.45,0,0,1,.66.44,2.86,2.86,0,0,1,.73,1.5,8.46,8.46,0,0,1,.15,1.72A10.71,10.71,0,0,1,104,134.85Zm-.86-2.49c0-.36,0-.66-.07-.9a2.18,2.18,0,0,0-.27-.82,1.52,1.52,0,0,0-.45-.46,1.19,1.19,0,0,0-.61-.17,1.18,1.18,0,0,0-.62.17,1.2,1.2,0,0,0-.43.46,2.07,2.07,0,0,0-.27.85,7.17,7.17,0,0,0-.07.9c0,.36,0,.74,0,1.13s0,.75,0,1.12a5.41,5.41,0,0,0,.07.91,2.53,2.53,0,0,0,.27.89,1.43,1.43,0,0,0,.43.48,1.09,1.09,0,0,0,.62.2,1,1,0,0,0,.64-.21,1.36,1.36,0,0,0,.45-.52,2.75,2.75,0,0,0,.23-.86c0-.23,0-.53.07-.89s0-.76,0-1.15,0-.76,0-1.16Z" transform="translate(-35.17 -55.62)"/>
  <path d="M90.33,93.66H86.24V93.4l2.24-2.51.43-.55a6.64,6.64,0,0,0,.38-.6,3.83,3.83,0,0,0,.24-.63,2,2,0,0,0,.11-.66,2.69,2.69,0,0,0-.08-.65,1.78,1.78,0,0,0-.27-.59,1.72,1.72,0,0,0-.51-.43,1.54,1.54,0,0,0-.61-.12,1.51,1.51,0,0,0-.94.3,1.63,1.63,0,0,0-.56.81h.14a.57.57,0,0,1,.59.59.58.58,0,0,1-.57.58.53.53,0,0,1-.44-.19.63.63,0,0,1-.15-.44A1.91,1.91,0,0,1,86.8,87a1.82,1.82,0,0,1,.68-.49,2.16,2.16,0,0,1,.81-.15,2.93,2.93,0,0,1,.9.14,2.39,2.39,0,0,1,.79.45,2.11,2.11,0,0,1,.49.7,2,2,0,0,1,.17.85,2.13,2.13,0,0,1-.13.78,2.52,2.52,0,0,1-.4.67l-.61.6-.6.57-.63.59L87.1,92.8h2.54a1.12,1.12,0,0,0,.42-.07.79.79,0,0,0,.19-.36c0-.09,0-.24.08-.45l0-.18h.28Z" transform="translate(-35.17 -55.62)"/>
  <path d="M96,91.42a3.9,3.9,0,0,1-.34,1.21,2.19,2.19,0,0,1-.77.94,2.08,2.08,0,0,1-2.56-.21,2.8,2.8,0,0,1-.75-1.5,8.35,8.35,0,0,1-.15-1.71,8.76,8.76,0,0,1,.13-1.65,3,3,0,0,1,.68-1.5,1.76,1.76,0,0,1,.67-.5,2.14,2.14,0,0,1,.84-.17,1.85,1.85,0,0,1,.78.16,2.24,2.24,0,0,1,.66.44,2.86,2.86,0,0,1,.73,1.49,8.56,8.56,0,0,1,.15,1.73A9,9,0,0,1,96,91.42Zm-.86-2.5a8.72,8.72,0,0,0-.07-.89,2.11,2.11,0,0,0-.27-.82,1.56,1.56,0,0,0-.45-.47,1.2,1.2,0,0,0-1.23,0,1.23,1.23,0,0,0-.43.47,2,2,0,0,0-.27.85,6.85,6.85,0,0,0-.07.89c0,.37,0,.74,0,1.13s0,.75,0,1.12a6.86,6.86,0,0,0,.07.92,2.7,2.7,0,0,0,.27.88,1.57,1.57,0,0,0,.43.49,1.16,1.16,0,0,0,.62.19,1,1,0,0,0,.64-.21,1.41,1.41,0,0,0,.45-.51,2.84,2.84,0,0,0,.23-.86c0-.23.05-.53.07-.9s0-.76,0-1.15,0-.76,0-1.15Z" transform="translate(-35.17 -55.62)"/>
  <path d="M185.18,99.64,183,95.71h-1.16v2.87a.74.74,0,0,0,.23.6,1.44,1.44,0,0,0,.83.18v.28h-2.81v-.28a1.44,1.44,0,0,0,.83-.18.76.76,0,0,0,.22-.6V92.66a.59.59,0,0,0-.22-.51,1.67,1.67,0,0,0-.83-.15v-.28h3.21a3,3,0,0,1,1.94.56,1.68,1.68,0,0,1,.67,1.4,1.83,1.83,0,0,1-.53,1.36,2.35,2.35,0,0,1-1.63.64l1.8,3.18a.85.85,0,0,0,.44.4,1.73,1.73,0,0,0,.69.1v.28Zm-.53-7.19a2,2,0,0,0-1.4-.45h-.61a1,1,0,0,0-.6.15.62.62,0,0,0-.2.51v2.78h1.67a1.56,1.56,0,0,0,1.28-.55,1.91,1.91,0,0,0,.36-1.21A1.52,1.52,0,0,0,184.65,92.45Z" transform="translate(-35.17 -55.62)" fill="#221e1f"/>
</svg>
