<?xml version="1.0" encoding="UTF-8"?>
<svg id="_레이어_1" data-name="레이어 1" xmlns="http://www.w3.org/2000/svg" width="137.92" height="138.66" viewBox="0 0 137.92 138.66">
  <path d="M135.11,126.58v-.28c.48,0,.79-.05,.93-.14,.15-.11,.17-.31,.06-.61l-.65-1.84h-3.06l-.51,1.59c-.14,.4-.14,.67,0,.81,.13,.13,.44,.19,.94,.19v.28h-2.41v-.28c.31,0,.54-.06,.68-.19,.15-.14,.31-.46,.49-.95l2.19-6.41,.61-.27,2.43,7.03c.09,.29,.23,.5,.4,.61,.17,.11,.4,.17,.7,.17v.28h-2.81Zm-1.2-7.29l-1.4,4.09h2.83l-1.43-4.09Z" fill="#221e1f"/>
  <path d="M15.51,7.25c-.51,.44-1.21,.67-2.09,.67h-3.54v-.28c.42,0,.7-.05,.83-.14,.14-.09,.22-.29,.22-.58V1.04c0-.27-.07-.47-.22-.58-.16-.12-.44-.18-.83-.18v-.28h3.33c.82,0,1.47,.18,1.96,.53,.46,.34,.69,.78,.69,1.33,0,.41-.13,.76-.38,1.04-.29,.32-.74,.56-1.35,.72,.72,.14,1.25,.41,1.6,.79,.32,.35,.48,.8,.48,1.34,0,.59-.23,1.1-.69,1.5Zm-.87-6.48c-.35-.33-.83-.49-1.45-.49h-.65c-.32,0-.56,.06-.7,.18-.14,.12-.22,.32-.22,.58V3.57h1.57c.53,0,.98-.19,1.36-.58,.35-.36,.53-.76,.53-1.19,0-.39-.15-.73-.44-1.02Zm.24,3.65c-.41-.39-.92-.58-1.51-.58h-1.74v3.07c0,.29,.07,.48,.22,.58,.12,.09,.36,.14,.7,.14h.75c.67,0,1.21-.2,1.61-.59,.38-.36,.56-.79,.56-1.3s-.19-.95-.58-1.32Z" fill="#221e1f"/>
  <path d="M16,128.28c-.61,.86-1.43,1.29-2.45,1.29s-1.85-.43-2.46-1.29c-.56-.77-.84-1.72-.84-2.84s.28-2.07,.84-2.85c.61-.86,1.43-1.29,2.46-1.29s1.84,.43,2.45,1.29c.56,.78,.84,1.73,.84,2.85s-.28,2.06-.84,2.84Zm-.56-5.49c-.48-.8-1.11-1.2-1.89-1.2s-1.43,.4-1.91,1.2c-.44,.74-.66,1.63-.66,2.67s.22,1.9,.66,2.63c.48,.8,1.12,1.2,1.91,1.2s1.41-.4,1.89-1.2c.44-.73,.66-1.61,.66-2.63s-.22-1.93-.66-2.67Z" fill="#221e1f"/>
  <path d="M95.14,126.2c-.42,.38-.98,.57-1.66,.57h-1.8v2.64c0,.28,.08,.48,.23,.6,.17,.14,.48,.2,.91,.2v.28h-2.89v-.28c.39,0,.66-.07,.82-.2,.15-.12,.23-.32,.23-.6v-5.85c0-.27-.08-.46-.23-.56-.15-.1-.42-.15-.82-.15v-.28h3.64c.63,0,1.16,.17,1.59,.52,.45,.37,.67,.86,.67,1.47,0,.69-.23,1.23-.68,1.63Zm-.53-2.83c-.33-.34-.77-.52-1.31-.52h-.85c-.28,0-.48,.05-.59,.15-.12,.11-.18,.29-.18,.56v2.92h1.62c.54,0,.98-.21,1.32-.62,.3-.37,.45-.81,.45-1.3s-.15-.87-.45-1.19Z" fill="#221e1f"/>
  <path d="M95.57,33.4c-.2,.19-.36,.32-.48,.39-.19,.11-.39,.16-.62,.16-.32,0-.62-.13-.89-.38-.23-.22-.43-.52-.59-.9-.17,.07-.34,.13-.53,.17-.17,.04-.32,.05-.47,.05-1.04,0-1.87-.43-2.49-1.29-.56-.77-.84-1.72-.84-2.84s.28-2.06,.84-2.85c.63-.86,1.46-1.29,2.49-1.29s1.82,.43,2.46,1.29c.6,.8,.9,1.75,.9,2.85,0,.77-.14,1.49-.43,2.16-.32,.75-.77,1.26-1.33,1.51,.1,.24,.24,.45,.42,.62,.21,.21,.43,.31,.67,.31,.16,0,.29-.01,.4-.04,.13-.03,.27-.09,.43-.17l.13,.17-.08,.06Zm-1.64-7.29c-.48-.8-1.13-1.2-1.93-1.2s-1.45,.4-1.93,1.2c-.44,.73-.66,1.62-.66,2.67,0,.51,.07,1.03,.21,1.57,.16,.61,.37,1.05,.63,1.32-.04-.44,.07-.76,.32-.96,.19-.14,.46-.2,.82-.2,.32,0,.65,.1,.97,.31,.41,.27,.77,.68,1.07,1.24,.4-.29,.7-.79,.91-1.5,.17-.57,.26-1.16,.26-1.77,0-1.05-.22-1.93-.66-2.67Zm-1.89,5.01c-.24-.18-.51-.27-.81-.27-.22,0-.38,.04-.49,.12-.21,.15-.31,.44-.31,.87,.27,.28,.54,.48,.81,.61,.24,.11,.49,.16,.76,.16,.14,0,.28-.02,.43-.08,.14-.04,.29-.1,.44-.17-.23-.59-.51-1-.83-1.25Z" fill="#221e1f"/>
  <polyline points="89.92 115.38 95.59 115.38 95.59 121.05" fill="none" stroke="#221e1f" stroke-miterlimit="10" stroke-width=".4"/>
  <polyline points="17.04 115.68 22.7 115.68 22.7 121.35" fill="none" stroke="#221e1f" stroke-miterlimit="10" stroke-width=".4"/>
  <g>
    <path d="M56.45,132.62c.21,0,.41-.01,.62-.02" fill="none" stroke="#221e1f" stroke-miterlimit="10" stroke-width=".4"/>
    <path d="M57.97,132.56c15.12-.69,27.45-4.84,31.39-10.32" fill="none" stroke="#221e1f" stroke-dasharray="0 0 1.24 .9" stroke-miterlimit="10" stroke-width=".4"/>
    <path d="M89.61,121.88c.11-.18,.22-.35,.31-.53" fill="none" stroke="#221e1f" stroke-miterlimit="10" stroke-width=".4"/>
  </g>
  <g>
    <path d="M17.04,121.33c.1,.18,.2,.36,.31,.53" fill="none" stroke="#221e1f" stroke-miterlimit="10" stroke-width=".4"/>
    <path d="M17.85,122.57c4.13,5.25,16.05,9.22,30.64,9.97" fill="none" stroke="#221e1f" stroke-dasharray="0 0 1.21 .88" stroke-miterlimit="10" stroke-width=".4"/>
    <path d="M48.95,132.56c.21,0,.41,.02,.62,.03" fill="none" stroke="#221e1f" stroke-miterlimit="10" stroke-width=".4"/>
  </g>
  <g>
    <path d="M5.72,60.87c0-.21,0-.41,.01-.62" fill="none" stroke="#221e1f" stroke-miterlimit="10" stroke-width=".4"/>
    <path d="M5.75,59.35c.53-24.63,4.81-44.85,10.5-50.98" fill="none" stroke="#221e1f" stroke-dasharray="0 0 1.23 .89" stroke-miterlimit="10" stroke-width=".4"/>
    <path d="M16.56,8.05c.15-.15,.3-.29,.46-.41" fill="none" stroke="#221e1f" stroke-miterlimit="10" stroke-width=".4"/>
  </g>
  <g>
    <path d="M17.04,121.33c-.15-.13-.31-.26-.46-.41" fill="none" stroke="#221e1f" stroke-miterlimit="10" stroke-width=".4"/>
    <path d="M15.97,120.27c-5.4-6.3-9.48-25.37-10.17-48.72" fill="none" stroke="#221e1f" stroke-dasharray="0 0 1.23 .89" stroke-miterlimit="10" stroke-width=".4"/>
    <path d="M5.79,71.1c0-.21-.01-.41-.02-.62" fill="none" stroke="#221e1f" stroke-miterlimit="10" stroke-width=".4"/>
  </g>
  <path d="M17.04,7.92c62.62,0,113.39,50.76,113.39,113.39" fill="none" stroke="#231815" stroke-linecap="round" stroke-linejoin="round" stroke-width=".75"/>
  <line x1="17.04" y1="121.18" x2="17.01" y2="7.79" fill="none" stroke="#231815" stroke-linejoin="round" stroke-width=".75"/>
  <line x1="130.42" y1="121.31" x2="17.04" y2="121.31" fill="none" stroke="#231815" stroke-linejoin="round" stroke-width=".75"/>
  <line x1="89.92" y1="121.31" x2="89.92" y2="34.45" fill="none" stroke="#0020ff" stroke-linejoin="round" stroke-width=".75"/>
  <line x1="89.92" y1="34.45" x2="130.42" y2="121.31" fill="none" stroke="#231815" stroke-linecap="round" stroke-miterlimit="10" stroke-width=".75"/>
  <path d="M3.73,69.28H1.94c-.33,0-.63,.02-.89,.04v-.34h.53c.31,0,.51-.02,.61-.08,.16-.07,.24-.22,.24-.45v-5.71c-.17,.08-.37,.14-.59,.19-.19,.04-.4,.08-.61,.1h-.24v-.34c.06,0,.12,0,.16-.01,.06,0,.13,0,.21-.01,.19-.01,.37-.05,.56-.1,.18-.04,.36-.1,.53-.18,.1-.06,.2-.12,.29-.18,.09-.07,.18-.15,.26-.23h.26v6.47c0,.24,.08,.39,.24,.45,.1,.05,.31,.08,.62,.08h.52v.34c-.27-.02-.56-.04-.89-.04Z"/>
  <path d="M9.25,67.5v.96c0,.23,.06,.38,.18,.44,.08,.05,.25,.08,.52,.08h.38v.34c-.23-.02-.48-.04-.75-.04h-1.5c-.28,0-.53,.02-.74,.04v-.34h.34c.28,0,.46-.02,.54-.06,.12-.06,.18-.22,.18-.45v-.96h-2.93v-.34l3.38-5.17c.04-.06,.06-.09,.09-.11,.03-.01,.08-.02,.14-.02,.08,0,.13,.02,.15,.06,.01,.03,.02,.09,.02,.17v5.06h1.11v.34h-1.11Zm-.79-4.46l-2.68,4.11h2.68v-4.11Z"/>
  <path d="M54.89,134.29c-.14,.5-.36,.95-.65,1.35-.24,.32-.53,.56-.85,.74-.34,.2-.7,.3-1.07,.3-.44,0-.79-.09-1.07-.27-.32-.21-.47-.51-.47-.92,0-.16,.05-.29,.14-.39,.09-.1,.22-.15,.37-.15,.18,0,.32,.07,.42,.21,.09,.13,.11,.28,.06,.46-.04,.12-.11,.21-.22,.27-.09,.06-.21,.09-.33,.09,.09,.12,.22,.21,.39,.27,.14,.06,.31,.1,.48,.12,.28,.01,.53-.03,.74-.12,.22-.09,.42-.24,.6-.45,.24-.31,.42-.71,.52-1.21,.09-.38,.13-.81,.13-1.3v-.36c-.13,.33-.3,.59-.52,.78-.24,.22-.53,.32-.86,.32-.3,0-.59-.06-.86-.19-.27-.12-.5-.29-.7-.52-.22-.24-.38-.51-.48-.82-.1-.29-.15-.6-.15-.93,0-.37,.05-.7,.15-.98,.11-.27,.29-.54,.55-.81,.22-.24,.46-.41,.73-.53,.27-.11,.57-.16,.89-.16,.29,0,.57,.06,.83,.19,.25,.13,.47,.31,.66,.55,.11,.14,.21,.31,.3,.5,.09,.19,.17,.41,.24,.65,.07,.23,.13,.5,.16,.81,.04,.31,.06,.65,.06,1.02,0,.52-.07,1.01-.2,1.48Zm-.85-3.3c-.04-.32-.08-.57-.14-.74-.09-.27-.23-.47-.4-.62-.19-.17-.41-.25-.66-.25-.27,0-.5,.06-.69,.18-.16,.12-.3,.28-.42,.51-.11,.19-.18,.41-.21,.68-.02,.16-.03,.4-.03,.71v.13s0,.05,0,.05c0,.33,.01,.57,.03,.73,.03,.28,.09,.52,.18,.71,.12,.23,.25,.4,.4,.51,.17,.13,.37,.19,.61,.19,.45,0,.79-.23,1.04-.68,.21-.37,.31-.81,.31-1.3,0-.29-.01-.56-.04-.81Z"/>
</svg>