<?xml version="1.0" encoding="UTF-8"?>
<svg id="_레이어_1" data-name="레이어 1" xmlns="http://www.w3.org/2000/svg" width="151.51" height="87.55" viewBox="0 0 151.51 87.55">
  <polygon points="143.64 66.41 7.58 66.41 143.64 9.72 143.64 66.41" fill="none" stroke="#221e1f" stroke-linejoin="round" stroke-width=".75"/>
  <circle cx="120.96" cy="43.74" r="22.68" fill="none" stroke="#221e1f" stroke-miterlimit="10" stroke-width=".4"/>
  <circle cx="120.96" cy="43.74" r="1.42" fill="#231815"/>
  <g>
    <path d="M82.62,81.76c.21,0,.41-.01.62-.02" fill="none" stroke="#221e1f" stroke-miterlimit="10" stroke-width=".4"/>
    <path d="M84.14,81.72c28.67-.98,51.93-6.81,58.82-14.45" fill="none" stroke="#221e1f" stroke-dasharray="1.24 .9" stroke-miterlimit="10" stroke-width=".4"/>
    <path d="M143.26,66.93c.13-.16.26-.32.38-.49" fill="none" stroke="#221e1f" stroke-miterlimit="10" stroke-width=".4"/>
  </g>
  <g>
    <path d="M7.58,66.41c.12.16.25.33.38.49" fill="none" stroke="#221e1f" stroke-miterlimit="10" stroke-width=".4"/>
    <path d="M8.55,67.57c7.26,7.53,30.49,13.24,58.98,14.16" fill="none" stroke="#221e1f" stroke-dasharray="1.24 .9" stroke-miterlimit="10" stroke-width=".4"/>
    <path d="M67.99,81.74c.21,0,.41.01.62.02" fill="none" stroke="#221e1f" stroke-miterlimit="10" stroke-width=".4"/>
  </g>
  <g>
    <path d="M117.1,49.74c.05-.2.11-.4.16-.6" fill="none" stroke="#221e1f" stroke-miterlimit="10" stroke-width=".4"/>
    <path d="M117.6,48.13c.61-1.67,1.43-3,2.39-3.79" fill="none" stroke="#221e1f" stroke-dasharray="1.46 1.06" stroke-miterlimit="10" stroke-width=".4"/>
    <path d="M120.41,44.03c.18-.11.36-.21.55-.29" fill="none" stroke="#221e1f" stroke-miterlimit="10" stroke-width=".4"/>
  </g>
  <g>
    <path d="M120.96,66.41c-.19-.08-.37-.17-.55-.29" fill="none" stroke="#221e1f" stroke-miterlimit="10" stroke-width=".4"/>
    <path d="M119.77,65.62c-1.07-1-1.96-2.68-2.55-4.77" fill="none" stroke="#221e1f" stroke-dasharray="1.13 .82" stroke-miterlimit="10" stroke-width=".4"/>
    <path d="M117.12,60.45c-.05-.2-.1-.4-.14-.61" fill="none" stroke="#221e1f" stroke-miterlimit="10" stroke-width=".4"/>
  </g>
  <g>
    <path d="M135.54,39.6c.21.03.41.06.61.09" fill="none" stroke="#221e1f" stroke-miterlimit="10" stroke-width=".4"/>
    <path d="M137.14,39.89c2.67.58,4.79,1.62,5.89,2.9" fill="none" stroke="#221e1f" stroke-dasharray="1.38 1" stroke-miterlimit="10" stroke-width=".4"/>
    <path d="M143.34,43.19c.12.18.22.36.3.54" fill="none" stroke="#221e1f" stroke-miterlimit="10" stroke-width=".4"/>
  </g>
  <g>
    <path d="M120.96,43.74c.08-.18.18-.36.3-.54" fill="none" stroke="#221e1f" stroke-miterlimit="10" stroke-width=".4"/>
    <path d="M121.84,42.5c1.13-1.12,3.05-2.03,5.41-2.56" fill="none" stroke="#221e1f" stroke-dasharray="1.26 .91" stroke-miterlimit="10" stroke-width=".4"/>
    <path d="M127.71,39.83c.2-.04.4-.08.61-.11" fill="none" stroke="#221e1f" stroke-miterlimit="10" stroke-width=".4"/>
  </g>
  <polyline points="143.64 60.74 137.97 60.74 137.97 66.41" fill="none" stroke="#221e1f" stroke-miterlimit="10" stroke-width=".4"/>
  <polyline points="120.96 60.74 126.63 60.74 126.63 66.41" fill="none" stroke="#221e1f" stroke-miterlimit="10" stroke-width=".4"/>
  <polyline points="143.64 49.4 137.97 49.4 137.97 43.74" fill="none" stroke="#221e1f" stroke-miterlimit="10" stroke-width=".4"/>
  <path d="M144.58,8.09v-.28c.48,0,.79-.05.93-.14.15-.11.17-.31.06-.61l-.65-1.84h-3.06l-.51,1.59c-.14.4-.14.67,0,.81.13.13.44.19.94.19v.28h-2.41v-.28c.31,0,.54-.06.68-.19.15-.14.31-.46.49-.95l2.19-6.41.61-.27,2.43,7.03c.09.29.23.5.4.61.17.11.4.17.7.17v.28h-2.81ZM143.38.81l-1.4,4.09h2.83l-1.43-4.09Z" fill="#221e1f"/>
  <path d="M5.63,70.83c-.51.44-1.21.67-2.09.67H0v-.28c.42,0,.7-.05.83-.14.14-.09.22-.29.22-.58v-5.88c0-.27-.07-.47-.22-.58-.16-.12-.44-.18-.83-.18v-.28h3.33c.82,0,1.47.18,1.96.53.46.34.69.78.69,1.33,0,.41-.13.76-.38,1.04-.29.32-.74.56-1.35.72.72.14,1.25.41,1.6.79.32.35.48.8.48,1.34,0,.59-.23,1.1-.69,1.5ZM4.76,64.35c-.35-.33-.83-.49-1.45-.49h-.65c-.32,0-.56.06-.7.18-.14.12-.22.32-.22.58v2.53h1.57c.53,0,.98-.19,1.36-.58.35-.36.53-.76.53-1.19,0-.39-.15-.73-.44-1.02ZM5,68.01c-.41-.39-.92-.58-1.51-.58h-1.74v3.07c0,.29.07.48.22.58.12.09.36.14.7.14h.75c.67,0,1.21-.2,1.61-.59.38-.36.56-.79.56-1.3s-.19-.95-.58-1.32Z" fill="#221e1f"/>
  <path d="M149.39,72.77c-.52.46-1.12.69-1.81.69-.91,0-1.67-.36-2.29-1.08-.66-.78-.99-1.81-.99-3.1,0-1.14.29-2.1.86-2.89.59-.8,1.34-1.2,2.24-1.2.21,0,.42.02.63.06.13.04.34.1.64.19l.06.03.79-.25.77,2-.17.11c-.35-.51-.7-.91-1.07-1.21-.53-.44-1.07-.66-1.62-.66-.68,0-1.24.36-1.7,1.09-.45.72-.67,1.63-.67,2.73,0,1.03.27,1.9.81,2.59.53.69,1.19,1.04,1.98,1.04.47,0,.9-.15,1.3-.44.43-.31.81-.78,1.15-1.41l.21.09c-.28.69-.64,1.23-1.09,1.62Z" fill="#221e1f"/>
  <line x1="120.96" y1="43.74" x2="120.96" y2="66.41" fill="none" stroke="#221e1f" stroke-miterlimit="10" stroke-width=".4"/>
  <line x1="120.96" y1="43.74" x2="143.64" y2="43.74" fill="none" stroke="#221e1f" stroke-miterlimit="10" stroke-width=".4"/>
  <g>
    <path d="M73.9,85.3h-1.78c-.33,0-.63.02-.89.04v-.34h.53c.31,0,.51-.03.61-.08.16-.07.24-.22.24-.45v-5.69c-.17.08-.37.14-.59.19-.19.04-.4.08-.61.1h-.24v-.34c.06,0,.12,0,.16-.01.06,0,.13,0,.2-.01.19-.01.37-.05.56-.1.18-.04.35-.1.53-.18.1-.06.2-.12.29-.18.09-.07.18-.15.26-.23h.26v6.45c0,.24.08.39.24.45.1.05.31.08.62.08h.52v.34c-.27-.02-.56-.04-.89-.04Z" fill="#221e1f"/>
    <path d="M80.27,85.34h-4.11v-.26l2.25-2.5c.17-.2.31-.38.43-.55.14-.2.27-.4.38-.6.11-.21.19-.42.25-.62.07-.23.11-.45.11-.66,0-.24-.03-.46-.09-.66-.06-.22-.15-.42-.27-.58-.14-.19-.31-.33-.51-.43-.19-.09-.39-.13-.62-.13-.36,0-.67.1-.94.3-.26.2-.45.47-.56.82h.14c.17-.01.31.04.42.14.12.11.17.25.17.43,0,.16-.05.29-.16.41-.12.11-.25.17-.41.17-.19,0-.33-.06-.44-.18-.1-.11-.15-.26-.15-.44,0-.25.05-.5.15-.74.1-.23.24-.43.41-.61.19-.21.42-.38.68-.48.25-.1.53-.15.82-.15.32,0,.61.05.9.14.3.1.56.25.79.45.22.2.38.43.5.7.12.26.17.54.17.85,0,.29-.04.54-.13.77-.09.22-.22.44-.41.67-.17.19-.38.39-.61.6-.12.12-.32.31-.6.57l-.63.59-1.18,1.14h2.04c.22,0,.38,0,.51-.01.23-.01.37-.04.42-.08.07-.06.13-.18.18-.35.02-.09.05-.24.09-.45l.03-.18h.28l-.31,1.92Z" fill="#221e1f"/>
  </g>
  <path d="M118.68,58.28h-4.11v-.26l2.25-2.5c.17-.2.31-.38.43-.55.14-.2.27-.4.38-.6.11-.21.19-.42.25-.62.07-.23.11-.45.11-.66,0-.24-.03-.46-.09-.66-.06-.22-.15-.42-.27-.58-.14-.19-.31-.33-.51-.43-.19-.09-.39-.13-.62-.13-.36,0-.67.1-.94.3-.26.2-.45.47-.56.82h.14c.17-.01.31.04.42.14.12.11.17.25.17.43,0,.16-.05.29-.16.41-.12.11-.25.17-.41.17-.19,0-.33-.06-.44-.18-.1-.11-.15-.26-.15-.44,0-.25.05-.5.15-.74.1-.23.24-.43.41-.61.19-.22.42-.38.68-.48.25-.1.53-.15.82-.15.32,0,.62.05.9.14.3.1.56.25.79.45.22.2.38.43.5.7.12.26.17.54.17.85,0,.29-.04.54-.13.77-.09.22-.22.44-.41.67-.17.19-.38.39-.61.6-.12.12-.32.31-.61.57l-.63.59-1.18,1.14h2.04c.22,0,.38,0,.51-.01.23-.01.37-.04.42-.08.07-.06.13-.18.18-.35.02-.09.05-.24.09-.45l.03-.18h.28l-.31,1.92Z" fill="#221e1f"/>
  <g>
    <path d="M147.5,49.74c-.05-.2-.11-.4-.16-.6" fill="none" stroke="#221e1f" stroke-miterlimit="10" stroke-width=".4"/>
    <path d="M147.01,48.13c-.61-1.67-1.43-3-2.39-3.79" fill="none" stroke="#221e1f" stroke-dasharray="1.46 1.06" stroke-miterlimit="10" stroke-width=".4"/>
    <path d="M144.19,44.03c-.18-.11-.36-.21-.55-.29" fill="none" stroke="#221e1f" stroke-miterlimit="10" stroke-width=".4"/>
  </g>
  <g>
    <path d="M143.64,66.41c.19-.08.37-.17.55-.29" fill="none" stroke="#221e1f" stroke-miterlimit="10" stroke-width=".4"/>
    <path d="M144.83,65.62c1.07-1,1.96-2.68,2.55-4.77" fill="none" stroke="#221e1f" stroke-dasharray="1.13 .82" stroke-miterlimit="10" stroke-width=".4"/>
    <path d="M147.49,60.45c.05-.2.1-.4.14-.61" fill="none" stroke="#221e1f" stroke-miterlimit="10" stroke-width=".4"/>
  </g>
  <path d="M150.23,57.74h-4.11v-.26l2.25-2.5c.17-.2.31-.38.43-.55.14-.2.27-.4.38-.6.11-.21.19-.42.25-.62.07-.23.11-.45.11-.66,0-.24-.03-.46-.09-.66-.06-.22-.15-.42-.27-.58-.14-.19-.31-.33-.51-.43-.19-.09-.39-.13-.62-.13-.36,0-.67.1-.94.3-.26.2-.45.47-.56.82h.14c.17-.01.31.04.42.14.12.11.17.25.17.43,0,.16-.05.29-.16.41-.12.11-.25.17-.41.17-.19,0-.33-.06-.44-.18-.1-.11-.15-.26-.15-.44,0-.25.05-.5.15-.74.1-.23.24-.43.41-.61.19-.22.42-.38.68-.48.25-.1.53-.15.82-.15.32,0,.62.05.9.14.3.1.56.25.79.45.22.2.38.43.5.7.12.26.17.54.17.85,0,.29-.04.54-.13.77-.09.22-.22.44-.41.67-.17.19-.38.39-.61.6-.12.12-.32.31-.61.57l-.63.59-1.18,1.14h2.04c.22,0,.38,0,.51-.01.23-.01.37-.04.42-.08.07-.06.13-.18.18-.35.02-.09.05-.24.09-.45l.03-.18h.28l-.31,1.92Z" fill="#221e1f"/>
  <path d="M133.45,42.3h-4.11v-.26l2.25-2.5c.17-.2.31-.38.43-.55.14-.2.27-.4.38-.6.11-.21.19-.42.25-.62.07-.23.11-.45.11-.66,0-.24-.03-.46-.09-.66-.06-.22-.15-.42-.27-.58-.14-.19-.31-.33-.51-.43-.19-.09-.39-.13-.62-.13-.36,0-.67.1-.94.3-.26.2-.45.47-.56.82h.14c.17-.01.31.04.42.14.12.11.17.25.17.43,0,.16-.05.29-.16.41-.12.11-.25.17-.41.17-.19,0-.33-.06-.44-.18-.1-.11-.15-.26-.15-.44,0-.25.05-.5.15-.74.1-.23.24-.43.41-.61.19-.22.42-.38.68-.48.25-.1.53-.15.82-.15.32,0,.62.05.9.14.3.1.56.25.79.45.22.2.38.43.5.7.12.26.17.54.17.85,0,.29-.04.54-.13.77-.09.22-.22.44-.41.67-.17.19-.38.39-.61.6-.12.12-.32.31-.61.57l-.63.59-1.18,1.14h2.04c.22,0,.38,0,.51-.01.23-.01.37-.04.42-.08.07-.06.13-.18.18-.35.02-.09.05-.24.09-.45l.03-.18h.28l-.31,1.92Z" fill="#221e1f"/>
  <path d="M114.58,17.18c-.42.38-.98.57-1.66.57h-1.8v2.64c0,.28.08.48.23.6.17.14.48.2.91.2v.28h-2.89v-.28c.39,0,.66-.07.82-.2.15-.12.23-.32.23-.6v-5.85c0-.27-.08-.46-.23-.56-.15-.1-.42-.15-.82-.15v-.28h3.64c.63,0,1.16.17,1.59.52.45.37.67.86.67,1.47,0,.69-.23,1.23-.68,1.63ZM114.05,14.36c-.33-.34-.77-.52-1.31-.52h-.85c-.28,0-.48.05-.59.15-.12.11-.18.29-.18.56v2.92h1.62c.54,0,.98-.21,1.32-.62.3-.37.45-.81.45-1.3s-.15-.87-.45-1.19Z" fill="#221e1f"/>
  <path d="M122.38,75.83c-.2.19-.36.32-.48.39-.19.11-.39.16-.62.16-.32,0-.62-.13-.89-.38-.23-.22-.43-.52-.59-.9-.17.07-.34.13-.53.17-.17.04-.32.05-.47.05-1.04,0-1.87-.43-2.49-1.29-.56-.77-.84-1.72-.84-2.84s.28-2.06.84-2.85c.63-.86,1.46-1.29,2.49-1.29s1.82.43,2.46,1.29c.6.8.9,1.75.9,2.85,0,.77-.14,1.49-.43,2.16-.32.75-.77,1.26-1.33,1.51.1.24.24.45.42.62.21.21.43.31.67.31.16,0,.29-.01.4-.04.13-.03.27-.09.43-.17l.13.17-.08.06ZM120.74,68.54c-.48-.8-1.13-1.2-1.93-1.2s-1.45.4-1.93,1.2c-.44.73-.66,1.62-.66,2.67,0,.51.07,1.03.21,1.57.16.61.37,1.05.63,1.32-.04-.44.07-.76.32-.96.19-.14.46-.2.82-.2.32,0,.65.1.97.31.41.27.77.68,1.07,1.24.4-.29.7-.79.91-1.5.17-.57.26-1.16.26-1.77,0-1.05-.22-1.93-.66-2.67ZM118.85,73.55c-.24-.18-.51-.27-.81-.27-.22,0-.38.04-.49.12-.21.15-.31.44-.31.87.27.28.54.48.81.61.24.11.49.16.76.16.14,0,.28-.02.43-.08.14-.04.29-.1.44-.17-.23-.59-.51-1-.83-1.25Z" fill="#221e1f"/>
  <path d="M150.01,44.01l-2.17-3.92h-1.17v2.87c0,.27.08.47.24.59.16.12.43.18.82.18v.28h-2.81v-.28c.4,0,.67-.06.83-.18.14-.11.22-.31.22-.59v-5.92c0-.24-.07-.42-.22-.52-.16-.1-.44-.15-.83-.15v-.28h3.21c.83,0,1.48.19,1.95.56.45.35.67.82.67,1.41,0,.54-.18,1-.53,1.35-.39.39-.93.61-1.63.64l1.8,3.18c.11.19.25.33.43.4.15.06.38.1.69.1v.28h-1.5ZM149.48,36.83c-.34-.3-.8-.45-1.39-.45h-.62c-.27,0-.46.05-.59.15-.14.11-.21.28-.21.52v2.77h1.67c.56,0,.99-.18,1.28-.55.25-.31.37-.71.37-1.2,0-.53-.17-.94-.51-1.24Z" fill="#221e1f"/>
  <path d="M115.98,42.89v-.28c.43,0,.72-.05.9-.15s.26-.27.26-.5v-5.99c0-.28-.09-.47-.26-.57-.17-.1-.46-.15-.9-.15v-.28h2.98v.28c-.44,0-.74.05-.9.15-.17.1-.25.29-.25.57v5.99c0,.24.08.4.25.5s.46.15.9.15v.28h-2.98Z" fill="#221e1f"/>
  <g>
    <path d="M135.54,70.57c.21-.03.41-.06.61-.09" fill="none" stroke="#221e1f" stroke-miterlimit="10" stroke-width=".4"/>
    <path d="M137.14,70.29c2.67-.58,4.79-1.62,5.89-2.9" fill="none" stroke="#221e1f" stroke-dasharray="1.38 1" stroke-miterlimit="10" stroke-width=".4"/>
    <path d="M143.34,66.99c.12-.18.22-.36.3-.54" fill="none" stroke="#221e1f" stroke-miterlimit="10" stroke-width=".4"/>
  </g>
  <g>
    <path d="M120.96,66.44c.08.18.18.36.3.54" fill="none" stroke="#221e1f" stroke-miterlimit="10" stroke-width=".4"/>
    <path d="M121.84,67.68c1.13,1.12,3.05,2.03,5.41,2.56" fill="none" stroke="#221e1f" stroke-dasharray="1.26 .91" stroke-miterlimit="10" stroke-width=".4"/>
    <path d="M127.71,70.34c.2.04.4.08.61.11" fill="none" stroke="#221e1f" stroke-miterlimit="10" stroke-width=".4"/>
  </g>
  <path d="M134,74.46h-4.11v-.26l2.25-2.5c.17-.2.31-.38.43-.55.14-.2.27-.4.38-.6.11-.21.19-.42.25-.62.07-.23.11-.45.11-.66,0-.24-.03-.46-.09-.66-.06-.22-.15-.42-.27-.58-.14-.19-.31-.33-.51-.43-.19-.09-.39-.13-.62-.13-.36,0-.67.1-.94.3-.26.2-.45.47-.56.82h.14c.17-.01.31.04.42.14.12.11.17.25.17.43,0,.16-.05.29-.16.41-.12.12-.25.17-.41.17-.19,0-.33-.06-.44-.18-.1-.11-.15-.26-.15-.44,0-.25.05-.5.15-.74.1-.23.24-.43.41-.61.19-.22.42-.38.68-.48.25-.1.53-.15.82-.15.32,0,.62.05.9.14.3.1.56.25.79.45.22.2.38.43.5.7.12.26.17.54.17.85,0,.29-.04.54-.13.77-.09.22-.22.44-.41.67-.17.19-.38.39-.61.6-.12.12-.32.31-.61.57l-.63.59-1.18,1.14h2.04c.22,0,.38,0,.51-.01.23-.01.37-.04.42-.08.07-.06.13-.18.18-.35.02-.09.05-.24.09-.45l.03-.18h.28l-.31,1.92Z" fill="#221e1f"/>
</svg>