<svg id="레이어_1" data-name="레이어 1" xmlns="http://www.w3.org/2000/svg" width="71.75mm" height="58.67mm" viewBox="0 0 203.39 166.3">
  <g>
    <line x1="37.73" y1="134.03" x2="38.35" y2="134.03" fill="none" stroke="#231815" stroke-miterlimit="10" stroke-width="0.4"/>
    <line x1="39.25" y1="134.03" x2="172.73" y2="134.03" fill="none" stroke="#231815" stroke-miterlimit="10" stroke-width="0.4" stroke-dasharray="1.23 0.89"/>
    <line x1="173.18" y1="134.03" x2="173.8" y2="134.03" fill="none" stroke="#231815" stroke-miterlimit="10" stroke-width="0.4"/>
  </g>
  <path d="M192.08,167.52l-2.18-3.93h-1.16v2.87a.72.72,0,0,0,.23.59,1.35,1.35,0,0,0,.83.19v.28H187v-.28a1.35,1.35,0,0,0,.83-.19.72.72,0,0,0,.21-.59v-5.92a.6.6,0,0,0-.21-.52,1.67,1.67,0,0,0-.83-.15v-.28h3.21a3.07,3.07,0,0,1,1.94.56,1.7,1.7,0,0,1,.67,1.41,1.87,1.87,0,0,1-.53,1.36,2.4,2.4,0,0,1-1.63.64l1.8,3.18a.85.85,0,0,0,.44.4,1.93,1.93,0,0,0,.69.1v.28Zm-.53-7.19a2,2,0,0,0-1.4-.46h-.61a1,1,0,0,0-.6.15.64.64,0,0,0-.2.52v2.77h1.67a1.55,1.55,0,0,0,1.28-.54,1.91,1.91,0,0,0,.36-1.21A1.52,1.52,0,0,0,191.55,160.33Z" transform="translate(-11.64 -29.03)" fill="#221e1f"/>
  <g>
    <line x1="37.73" y1="105.68" x2="37.73" y2="106.3" fill="none" stroke="#231815" stroke-linejoin="round" stroke-width="0.4"/>
    <line x1="37.73" y1="107.22" x2="37.73" y2="132.92" fill="none" stroke="#231815" stroke-linejoin="round" stroke-width="0.4" stroke-dasharray="1.26 0.92"/>
    <line x1="37.73" y1="133.38" x2="37.73" y2="134" fill="none" stroke="#231815" stroke-linejoin="round" stroke-width="0.4"/>
  </g>
  <polyline points="173.8 65.99 173.8 14.97 37.73 14.97 37.73 105.68" fill="none" stroke="#231815" stroke-linejoin="round" stroke-width="0.75"/>
  <g>
    <line x1="37.73" y1="134" x2="37.73" y2="134.62" fill="none" stroke="#231815" stroke-linejoin="round" stroke-width="0.4"/>
    <line x1="37.73" y1="135.51" x2="37.73" y2="149.97" fill="none" stroke="#231815" stroke-linejoin="round" stroke-width="0.4" stroke-dasharray="1.23 0.9"/>
    <polyline points="37.73 150.41 37.73 151.03 38.35 151.03" fill="none" stroke="#231815" stroke-linejoin="round" stroke-width="0.4"/>
    <line x1="39.25" y1="151.03" x2="172.73" y2="151.03" fill="none" stroke="#231815" stroke-linejoin="round" stroke-width="0.4" stroke-dasharray="1.23 0.89"/>
    <polyline points="173.18 151.03 173.8 151.03 173.8 150.41" fill="none" stroke="#231815" stroke-linejoin="round" stroke-width="0.4"/>
    <line x1="173.8" y1="149.52" x2="173.8" y2="67.06" fill="none" stroke="#231815" stroke-linejoin="round" stroke-width="0.4" stroke-dasharray="1.23 0.89"/>
    <line x1="173.8" y1="66.61" x2="173.8" y2="65.99" fill="none" stroke="#231815" stroke-linejoin="round" stroke-width="0.4"/>
  </g>
  <polygon points="24.13 123.82 105.77 14.97 173.8 65.99 37.73 134.03 24.13 123.82" fill="none" stroke="#231815" stroke-linejoin="round" stroke-width="0.75"/>
  <path d="M45.41,43.65v-.28a1.87,1.87,0,0,0,.93-.14c.15-.1.17-.31.06-.61l-.64-1.84H42.7l-.51,1.59q-.21.6,0,.81a1.46,1.46,0,0,0,.94.19v.28H40.72v-.28a1,1,0,0,0,.68-.19,2.56,2.56,0,0,0,.49-1l2.19-6.4.61-.27,2.43,7a1.09,1.09,0,0,0,.4.61,1.25,1.25,0,0,0,.7.17v.28Zm-1.2-7.28-1.4,4.09h2.83Z" transform="translate(-11.64 -29.03)" fill="#221e1f"/>
  <path d="M46.94,187.3a3.05,3.05,0,0,1-2.09.67H41.31v-.28a1.65,1.65,0,0,0,.83-.14c.15-.09.22-.29.22-.58v-5.88a.68.68,0,0,0-.22-.58,1.41,1.41,0,0,0-.83-.18v-.28h3.33a3.24,3.24,0,0,1,2,.52,1.57,1.57,0,0,1,.7,1.34,1.55,1.55,0,0,1-.38,1,2.87,2.87,0,0,1-1.35.72,2.84,2.84,0,0,1,1.6.78,2,2,0,0,1,.47,1.35A1.93,1.93,0,0,1,46.94,187.3Zm-.87-6.48a2,2,0,0,0-1.44-.49H44a1.07,1.07,0,0,0-.7.18.69.69,0,0,0-.22.58v2.52h1.57A1.84,1.84,0,0,0,46,183a1.65,1.65,0,0,0,.53-1.19A1.37,1.37,0,0,0,46.07,180.82Zm.24,3.65a2.14,2.14,0,0,0-1.51-.58H43.06V187a.66.66,0,0,0,.22.58,1.24,1.24,0,0,0,.7.14h.74a2.22,2.22,0,0,0,1.61-.59,1.74,1.74,0,0,0,.57-1.3A1.8,1.8,0,0,0,46.31,184.47Z" transform="translate(-11.64 -29.03)" fill="#221e1f"/>
  <path d="M191.67,187.46a2.62,2.62,0,0,1-1.81.68,2.9,2.9,0,0,1-2.29-1.08,4.64,4.64,0,0,1-1-3.1,4.74,4.74,0,0,1,.87-2.89,2.67,2.67,0,0,1,2.23-1.2,3.36,3.36,0,0,1,.63.06l.64.2.06,0,.79-.25.77,2-.17.11a6,6,0,0,0-1.07-1.22,2.61,2.61,0,0,0-1.62-.65,2,2,0,0,0-1.7,1.08,5.12,5.12,0,0,0-.67,2.73,4.07,4.07,0,0,0,.81,2.59,2.4,2.4,0,0,0,2,1,2.17,2.17,0,0,0,1.3-.44,4,4,0,0,0,1.14-1.41l.21.08A4.41,4.41,0,0,1,191.67,187.46Z" transform="translate(-11.64 -29.03)" fill="#221e1f"/>
  <path d="M192.16,42.32a3.57,3.57,0,0,1-2.92,1.25h-3v-.28a1.3,1.3,0,0,0,.81-.19.73.73,0,0,0,.24-.62V36.67a.64.64,0,0,0-.24-.57,1.38,1.38,0,0,0-.81-.18v-.27h3a3.59,3.59,0,0,1,2.92,1.23,4.52,4.52,0,0,1,0,5.44Zm-.62-5.25a2.72,2.72,0,0,0-2.3-1.15h-.33a1,1,0,0,0-.68.18.71.71,0,0,0-.21.57v5.81a.8.8,0,0,0,.21.62,1,1,0,0,0,.68.19h.33a2.72,2.72,0,0,0,2.3-1.15,4.56,4.56,0,0,0,0-5.07Z" transform="translate(-11.64 -29.03)" fill="#221e1f"/>
  <path d="M119.23,38.74v-.28a1.25,1.25,0,0,0,.82-.2.66.66,0,0,0,.23-.56V31.2h-.12l-2.88,7.63h-.17l-2.83-7.47h-.13V37.7a.67.67,0,0,0,.22.58,1.43,1.43,0,0,0,.84.18v.28h-2.42v-.28a1.44,1.44,0,0,0,.83-.18.67.67,0,0,0,.22-.58v-6a.5.5,0,0,0-.24-.47,1.86,1.86,0,0,0-.81-.13v-.28h2l2.6,6.92,2.6-6.92h2v.28a1.87,1.87,0,0,0-.87.14.51.51,0,0,0-.19.46v6a.68.68,0,0,0,.21.56,1.31,1.31,0,0,0,.85.2v.28Z" transform="translate(-11.64 -29.03)" fill="#221e1f"/>
  <path d="M193.2,92.07a.5.5,0,0,0-.24.46v7.09h-.2l-4.83-7v5.88a.69.69,0,0,0,.23.59,1.65,1.65,0,0,0,.92.18v.27h-2.53v-.27a1.38,1.38,0,0,0,.81-.18.67.67,0,0,0,.24-.59V92.69a.65.65,0,0,0-.24-.59,1.38,1.38,0,0,0-.81-.18v-.28H188l4.59,6.65V92.53a.49.49,0,0,0-.26-.47,2.17,2.17,0,0,0-.91-.14v-.28H194v.28A1.73,1.73,0,0,0,193.2,92.07Z" transform="translate(-11.64 -29.03)" fill="#221e1f"/>
  <path d="M47.13,131.54a2.41,2.41,0,0,1-1.66.57H43.66v2.65a.75.75,0,0,0,.23.6,1.55,1.55,0,0,0,.91.2v.28H41.91v-.28a1.31,1.31,0,0,0,.82-.2.75.75,0,0,0,.23-.6v-5.85a.63.63,0,0,0-.23-.56,1.58,1.58,0,0,0-.82-.15v-.28h3.64a2.4,2.4,0,0,1,1.59.52,1.8,1.8,0,0,1,.67,1.47A2.07,2.07,0,0,1,47.13,131.54Zm-.53-2.82a1.72,1.72,0,0,0-1.31-.52h-.85a.94.94,0,0,0-.6.15.72.72,0,0,0-.18.56v2.92h1.62a1.64,1.64,0,0,0,1.32-.62,2,2,0,0,0,.45-1.3A1.66,1.66,0,0,0,46.6,128.72Z" transform="translate(-11.64 -29.03)" fill="#221e1f"/>
  <g>
    <path d="M32,155.44a3,3,0,0,1-2.08.67H26.43v-.28a1.71,1.71,0,0,0,.83-.14c.14-.09.21-.28.21-.58v-5.86a.71.71,0,0,0-.21-.58,1.44,1.44,0,0,0-.83-.18v-.28h3.32a3.24,3.24,0,0,1,1.95.52,1.58,1.58,0,0,1,.69,1.33,1.51,1.51,0,0,1-.38,1,2.7,2.7,0,0,1-1.35.72,2.81,2.81,0,0,1,1.6.78,2,2,0,0,1-.22,2.84ZM31.18,149a2,2,0,0,0-1.44-.49h-.65a1.09,1.09,0,0,0-.7.18.72.72,0,0,0-.22.58v2.52h1.57a1.89,1.89,0,0,0,1.36-.58,1.67,1.67,0,0,0,.52-1.19A1.33,1.33,0,0,0,31.18,149Zm.24,3.64a2.13,2.13,0,0,0-1.51-.57H28.17v3.06a.67.67,0,0,0,.22.58,1.26,1.26,0,0,0,.7.14h.74a2.22,2.22,0,0,0,1.61-.59,1.75,1.75,0,0,0,.56-1.3A1.78,1.78,0,0,0,31.42,152.62Z" transform="translate(-11.64 -29.03)"/>
    <path d="M35.54,147.52h1.11l-2.3,3.09Z" transform="translate(-11.64 -29.03)"/>
  </g>
  <polyline points="37.79 142.01 46.29 142.01 46.29 150.51" fill="none" stroke="#221e1f" stroke-miterlimit="10" stroke-width="0.4"/>
  <polyline points="173.8 142.53 165.29 142.53 165.29 151.03" fill="none" stroke="#221e1f" stroke-miterlimit="10" stroke-width="0.4"/>
  <polyline points="37.76 23.99 46.27 23.99 46.27 15.49" fill="none" stroke="#221e1f" stroke-miterlimit="10" stroke-width="0.4"/>
  <polyline points="173.77 23.48 165.27 23.48 165.27 14.97" fill="none" stroke="#221e1f" stroke-miterlimit="10" stroke-width="0.4"/>
  <polyline points="112.49 20.07 107.39 26.88 100.58 21.77" fill="none" stroke="#221e1f" stroke-miterlimit="10" stroke-width="0.4"/>
  <polyline points="29.36 116.79 36.17 121.89 31.06 128.69" fill="none" stroke="#221e1f" stroke-miterlimit="10" stroke-width="0.4"/>
  <path d="M57.1,158.05a2.91,2.91,0,0,1-.48.39,1.24,1.24,0,0,1-1.5-.22,2.66,2.66,0,0,1-.59-.9,3.27,3.27,0,0,1-.53.17,2.06,2.06,0,0,1-.48,0A2.9,2.9,0,0,1,51,156.25a4.63,4.63,0,0,1-.85-2.83,4.74,4.74,0,0,1,.85-2.85,3,3,0,0,1,4.94,0,4.62,4.62,0,0,1,.9,2.85,5.38,5.38,0,0,1-.43,2.16,2.8,2.8,0,0,1-1.33,1.51,1.83,1.83,0,0,0,.42.63,1,1,0,0,0,.67.31,1.5,1.5,0,0,0,.4-.05,1.32,1.32,0,0,0,.43-.17l.13.17Zm-1.64-7.29a2.16,2.16,0,0,0-3.87,0,5.08,5.08,0,0,0-.66,2.67,6.69,6.69,0,0,0,.2,1.57,3,3,0,0,0,.63,1.32,1,1,0,0,1,.32-1,1.45,1.45,0,0,1,.83-.2,1.79,1.79,0,0,1,1,.31A3.32,3.32,0,0,1,55,156.71a2.87,2.87,0,0,0,.91-1.51,6.16,6.16,0,0,0,.25-1.77A5.18,5.18,0,0,0,55.46,150.76Zm-1.9,5a1.28,1.28,0,0,0-.81-.27.81.81,0,0,0-.48.12,1,1,0,0,0-.32.87,2.87,2.87,0,0,0,.81.61,1.79,1.79,0,0,0,.76.16,1.33,1.33,0,0,0,.43-.07,2.75,2.75,0,0,0,.45-.17A2.73,2.73,0,0,0,53.56,155.77Z" transform="translate(-11.64 -29.03)" fill="#221e1f"/>
  <g>
    <path d="M196.64,65.47c0-.2,0-.41,0-.61" transform="translate(-11.64 -29.03)" fill="none" stroke="#221e1f" stroke-miterlimit="10" stroke-width="0.4"/>
    <path d="M196.49,64c-1.1-9.46-5-17-10-19.6" transform="translate(-11.64 -29.03)" fill="none" stroke="#221e1f" stroke-miterlimit="10" stroke-width="0.4" stroke-dasharray="1.22 0.89"/>
    <path d="M186.06,44.18l-.57-.23" transform="translate(-11.64 -29.03)" fill="none" stroke="#221e1f" stroke-miterlimit="10" stroke-width="0.4"/>
  </g>
  <g>
    <path d="M185.47,95l.57-.23" transform="translate(-11.64 -29.03)" fill="none" stroke="#221e1f" stroke-miterlimit="10" stroke-width="0.4"/>
    <path d="M186.85,94.37c4.67-2.67,8.3-9.64,9.52-18.39" transform="translate(-11.64 -29.03)" fill="none" stroke="#221e1f" stroke-miterlimit="10" stroke-width="0.4" stroke-dasharray="1.26 0.92"/>
    <path d="M196.43,75.52c0-.21,0-.41.07-.62" transform="translate(-11.64 -29.03)" fill="none" stroke="#221e1f" stroke-miterlimit="10" stroke-width="0.4"/>
  </g>
  <g>
    <path d="M196.73,132.89c0-.21,0-.42,0-.62" transform="translate(-11.64 -29.03)" fill="none" stroke="#221e1f" stroke-miterlimit="10" stroke-width="0.4"/>
    <path d="M196.67,131.37c-.79-17.27-4.92-31.28-10.32-35.75" transform="translate(-11.64 -29.03)" fill="none" stroke="#221e1f" stroke-miterlimit="10" stroke-width="0.4" stroke-dasharray="1.24 0.9"/>
    <path d="M186,95.34l-.51-.35" transform="translate(-11.64 -29.03)" fill="none" stroke="#221e1f" stroke-miterlimit="10" stroke-width="0.4"/>
  </g>
  <g>
    <path d="M185.47,179.93c.17-.1.34-.22.51-.34" transform="translate(-11.64 -29.03)" fill="none" stroke="#221e1f" stroke-miterlimit="10" stroke-width="0.4"/>
    <path d="M186.67,179c5.28-4.78,9.27-18.7,10-35.76" transform="translate(-11.64 -29.03)" fill="none" stroke="#221e1f" stroke-miterlimit="10" stroke-width="0.4" stroke-dasharray="1.23 0.89"/>
    <path d="M196.7,142.81l0-.62" transform="translate(-11.64 -29.03)" fill="none" stroke="#221e1f" stroke-miterlimit="10" stroke-width="0.4"/>
  </g>
  <g>
    <path d="M144.64,32.75l-.62.06" transform="translate(-11.64 -29.03)" fill="none" stroke="#221e1f" stroke-miterlimit="10" stroke-width="0.4"/>
    <path d="M143.12,32.89c-12.14,1.23-21.76,5.07-25.07,10" transform="translate(-11.64 -29.03)" fill="none" stroke="#221e1f" stroke-miterlimit="10" stroke-width="0.4" stroke-dasharray="1.25 0.91"/>
    <path d="M117.81,43.26q-.16.27-.3.54" transform="translate(-11.64 -29.03)" fill="none" stroke="#221e1f" stroke-miterlimit="10" stroke-width="0.4"/>
  </g>
  <g>
    <path d="M185.41,43.82c-.09-.18-.19-.36-.29-.54" transform="translate(-11.64 -29.03)" fill="none" stroke="#221e1f" stroke-miterlimit="10" stroke-width="0.4"/>
    <path d="M184.62,42.53c-3.52-4.75-13-8.44-24.83-9.64" transform="translate(-11.64 -29.03)" fill="none" stroke="#221e1f" stroke-miterlimit="10" stroke-width="0.4" stroke-dasharray="1.23 0.9"/>
    <path d="M159.33,32.85l-.62-.06" transform="translate(-11.64 -29.03)" fill="none" stroke="#221e1f" stroke-miterlimit="10" stroke-width="0.4"/>
  </g>
  <g>
    <path d="M124.28,191.33h.62" transform="translate(-11.64 -29.03)" fill="none" stroke="#221e1f" stroke-miterlimit="10" stroke-width="0.4"/>
    <path d="M125.81,191.3c28.58-.7,51.82-4.94,58.88-10.51" transform="translate(-11.64 -29.03)" fill="none" stroke="#221e1f" stroke-miterlimit="10" stroke-width="0.4" stroke-dasharray="1.26 0.91"/>
    <path d="M185,180.5l.45-.42" transform="translate(-11.64 -29.03)" fill="none" stroke="#221e1f" stroke-miterlimit="10" stroke-width="0.4"/>
  </g>
  <g>
    <path d="M49.38,180.06l.45.42" transform="translate(-11.64 -29.03)" fill="none" stroke="#221e1f" stroke-miterlimit="10" stroke-width="0.4"/>
    <path d="M50.54,181.05c7.48,5.47,30.65,9.6,59,10.26" transform="translate(-11.64 -29.03)" fill="none" stroke="#221e1f" stroke-miterlimit="10" stroke-width="0.4" stroke-dasharray="1.26 0.91"/>
    <path d="M110,191.32h.62" transform="translate(-11.64 -29.03)" fill="none" stroke="#221e1f" stroke-miterlimit="10" stroke-width="0.4"/>
  </g>
  <g>
    <path d="M142.1,71.64l-.49-.39" transform="translate(-11.64 -29.03)" fill="none" stroke="#221e1f" stroke-miterlimit="10" stroke-width="0.4"/>
    <path d="M140.92,70.7c-12.8-10.34-21.83-20.4-23.38-25.87" transform="translate(-11.64 -29.03)" fill="none" stroke="#221e1f" stroke-miterlimit="10" stroke-width="0.4" stroke-dasharray="1.21 0.88"/>
    <path d="M117.43,44.41c0-.22-.08-.42-.1-.61" transform="translate(-11.64 -29.03)" fill="none" stroke="#221e1f" stroke-miterlimit="10" stroke-width="0.4"/>
  </g>
  <g>
    <path d="M185.41,94.59a5.32,5.32,0,0,1-.61.08" transform="translate(-11.64 -29.03)" fill="none" stroke="#221e1f" stroke-miterlimit="10" stroke-width="0.4"/>
    <path d="M183.92,94.68c-5.67-.19-17-5.58-29.77-14.19" transform="translate(-11.64 -29.03)" fill="none" stroke="#221e1f" stroke-miterlimit="10" stroke-width="0.4" stroke-dasharray="1.22 0.89"/>
    <path d="M153.78,80.24l-.51-.35" transform="translate(-11.64 -29.03)" fill="none" stroke="#221e1f" stroke-miterlimit="10" stroke-width="0.4"/>
  </g>
  <path d="M16,172.5a2.2,2.2,0,0,1-.48.68,2.56,2.56,0,0,1-.79.49,2.76,2.76,0,0,1-.91.16,2.12,2.12,0,0,1-.44,0l-.4-.08a2.19,2.19,0,0,1-1-.58,1.49,1.49,0,0,1-.41-1,.68.68,0,0,1,.15-.47.61.61,0,0,1,.47-.17.58.58,0,0,1,.44.17.63.63,0,0,1,.17.45.6.6,0,0,1-.21.48.66.66,0,0,1-.51.12,1.49,1.49,0,0,0,.7.62,2.31,2.31,0,0,0,1,.23,1,1,0,0,0,.43-.1,1.15,1.15,0,0,0,.37-.25,1.7,1.7,0,0,0,.34-.7,2.66,2.66,0,0,0,.1-.77c0-.16,0-.29,0-.4s0-.25-.05-.35a1.56,1.56,0,0,0-.42-.79,1.13,1.13,0,0,0-.81-.3h-.52a.34.34,0,0,1-.16,0,.12.12,0,0,1-.08-.12.13.13,0,0,1,.05-.11l.11,0h.32l.34,0a1,1,0,0,0,.58-.34,1.54,1.54,0,0,0,.35-.59c0-.18.07-.33.1-.45a3.42,3.42,0,0,0,0-.44,1.74,1.74,0,0,0-.08-.53,1,1,0,0,0-.28-.45.77.77,0,0,0-.34-.19,1.06,1.06,0,0,0-.37-.06,2.58,2.58,0,0,0-.38,0l-.37.09a1.81,1.81,0,0,0-.41.23,1,1,0,0,0-.3.32h.18a.71.71,0,0,1,.38.17.57.57,0,0,1,0,.77.5.5,0,0,1-.39.16.54.54,0,0,1-.42-.16.54.54,0,0,1-.16-.41,1.26,1.26,0,0,1,.36-.88,2.16,2.16,0,0,1,1.2-.59,2.68,2.68,0,0,1,.41,0,3,3,0,0,1,.73.09,2.5,2.5,0,0,1,.66.31,1.9,1.9,0,0,1,.46.48,1.21,1.21,0,0,1,.18.63,1.58,1.58,0,0,1-.13.63,2.43,2.43,0,0,1-.31.56,2.52,2.52,0,0,1-.51.45,2.43,2.43,0,0,1-.6.31,2.34,2.34,0,0,1,1,.44,2.09,2.09,0,0,1,.69.89,2.23,2.23,0,0,1,.09.32,1.45,1.45,0,0,1,0,.35A1.86,1.86,0,0,1,16,172.5Z" transform="translate(-11.64 -29.03)"/>
  <path d="M18.29,172.94a.58.58,0,0,1-.41.17.57.57,0,0,1-.42-.17.54.54,0,0,1-.17-.4.56.56,0,0,1,.17-.43.54.54,0,0,1,.42-.17.54.54,0,0,1,.41.17.57.57,0,0,1,.17.41A.61.61,0,0,1,18.29,172.94Z" transform="translate(-11.64 -29.03)"/>
  <path d="M23.1,169a3.73,3.73,0,0,0-.59,1.39,8,8,0,0,0-.19,1.39l0,.5v1a.67.67,0,0,1-.12.43.46.46,0,0,1-.39.18.43.43,0,0,1-.4-.19.72.72,0,0,1-.11-.42,7.54,7.54,0,0,1,.07-.91,8.64,8.64,0,0,1,.23-1,5.92,5.92,0,0,1,.42-1.1,9,9,0,0,1,.64-1.11c.1-.15.21-.32.34-.5l.35-.48.55-.77h-3a.71.71,0,0,0-.35.08c-.05,0-.1.17-.16.41s-.07.31-.11.55v0H20l.37-2.27h.28l0,.14c.05.08.25.14.6.17q.3,0,.72,0h2.74v.25Z" transform="translate(-11.64 -29.03)"/>
  <path d="M29.38,172.32a3,3,0,0,1-.53.81,2.54,2.54,0,0,1-.78.5,2.23,2.23,0,0,1-.91.2,1.77,1.77,0,0,1-.8-.18,1.75,1.75,0,0,1-.65-.47,2.06,2.06,0,0,1-.41-.64,2,2,0,0,1-.14-.73.64.64,0,0,1,.14-.42.61.61,0,0,1,.8,0,.51.51,0,0,1,.16.4.54.54,0,0,1-.17.4.54.54,0,0,1-.38.15H25.6l-.08,0a1.48,1.48,0,0,0,.21.47,2.19,2.19,0,0,0,.36.39,2.62,2.62,0,0,0,.49.27,1.56,1.56,0,0,0,.57.11,1.16,1.16,0,0,0,.67-.21,1.56,1.56,0,0,0,.5-.52,2.09,2.09,0,0,0,.23-.73c0-.21,0-.47,0-.78a6.37,6.37,0,0,0,0-.71,2.19,2.19,0,0,0-.18-.67,1.38,1.38,0,0,0-.36-.51.88.88,0,0,0-.57-.2,1.74,1.74,0,0,0-.53.07,1.66,1.66,0,0,0-.56.32,1.49,1.49,0,0,0-.22.21,1,1,0,0,0-.1.15L26,170a.12.12,0,0,1-.09,0,.15.15,0,0,1-.15-.08.51.51,0,0,1,0-.16v-3.31a1,1,0,0,1,0-.24s.11,0,.23,0a3.26,3.26,0,0,0,.71.22,3.84,3.84,0,0,0,.76.08l.48,0a5,5,0,0,0,.56-.11l.37-.16.18-.07a.18.18,0,0,1,.09,0,.1.1,0,0,1,0,.09,1.24,1.24,0,0,1-.25.36l-.29.25v0a3.18,3.18,0,0,1-.76.38,2.74,2.74,0,0,1-1.3.09,3.12,3.12,0,0,1-.46-.09v2.15a3.09,3.09,0,0,1,.31-.25,1,1,0,0,1,.33-.17,1.58,1.58,0,0,1,.37-.11,2.38,2.38,0,0,1,.39,0,1.92,1.92,0,0,1,.82.18,2,2,0,0,1,.68.53,2.6,2.6,0,0,1,.44.8,2.47,2.47,0,0,1,.16.9A2.56,2.56,0,0,1,29.38,172.32Z" transform="translate(-11.64 -29.03)"/>
  <path d="M195.09,73.69H193.3l-.89,0v-.34h.53a1.56,1.56,0,0,0,.61-.08.44.44,0,0,0,.24-.45V67.15a2.91,2.91,0,0,1-.59.2,5.77,5.77,0,0,1-.62.09h-.24V67.1h.37a3.66,3.66,0,0,0,.56-.1,2.55,2.55,0,0,0,.53-.18,2.9,2.9,0,0,0,.29-.19,2.75,2.75,0,0,0,.26-.22h.26v6.47c0,.24.08.39.23.45a1.68,1.68,0,0,0,.63.08H196v.34Z" transform="translate(-11.64 -29.03)"/>
  <path d="M200.25,73.69h-1.79l-.89,0v-.34h.52a1.62,1.62,0,0,0,.62-.08.44.44,0,0,0,.24-.45V67.15a3,3,0,0,1-.6.2,5.24,5.24,0,0,1-.61.09h-.24V67.1h.37a3.66,3.66,0,0,0,.56-.1,2.76,2.76,0,0,0,.53-.18l.29-.19a2.75,2.75,0,0,0,.26-.22h.25v6.47q0,.36.24.45a1.65,1.65,0,0,0,.63.08h.51v.34Z" transform="translate(-11.64 -29.03)"/>
  <path d="M203.75,73.08a.54.54,0,0,1-.41.17.54.54,0,0,1-.42-.17.52.52,0,0,1-.17-.4.58.58,0,0,1,.59-.6.58.58,0,0,1,.58.58A.57.57,0,0,1,203.75,73.08Z" transform="translate(-11.64 -29.03)"/>
  <path d="M209.44,73.73h-4.09v-.26l2.24-2.5.43-.55c.14-.21.27-.41.38-.61a3.43,3.43,0,0,0,.24-.62,2,2,0,0,0,.11-.66,2.78,2.78,0,0,0-.08-.66,1.82,1.82,0,0,0-.27-.58,1.72,1.72,0,0,0-.51-.43,1.55,1.55,0,0,0-.61-.13,1.51,1.51,0,0,0-.94.3,1.7,1.7,0,0,0-.56.82h.14a.6.6,0,0,1,.42.15.58.58,0,0,1,.17.43.56.56,0,0,1-.16.41.54.54,0,0,1-.41.17.56.56,0,0,1-.44-.18.63.63,0,0,1-.15-.44,1.92,1.92,0,0,1,.15-.74,2,2,0,0,1,.41-.62,1.91,1.91,0,0,1,.68-.48,2.16,2.16,0,0,1,.81-.15,2.93,2.93,0,0,1,.9.14,2.39,2.39,0,0,1,.79.45,2.11,2.11,0,0,1,.49.7,2,2,0,0,1,.17.85,2.13,2.13,0,0,1-.13.78,2.16,2.16,0,0,1-.41.66c-.17.19-.37.39-.6.61l-.6.57-.63.59-1.17,1.14h2.54a1.12,1.12,0,0,0,.42-.07,1,1,0,0,0,.19-.36c0-.09,0-.24.08-.45l0-.18h.28Z" transform="translate(-11.64 -29.03)"/>
  <path d="M214.84,72.46a2.7,2.7,0,0,1-.53.81,2.45,2.45,0,0,1-.78.51,2.22,2.22,0,0,1-.91.19,1.91,1.91,0,0,1-.8-.17,2,2,0,0,1-.65-.48,1.91,1.91,0,0,1-.41-.63,2.06,2.06,0,0,1-.14-.73.61.61,0,0,1,.14-.42.53.53,0,0,1,.41-.17.56.56,0,0,1,.39.14.52.52,0,0,1,.16.4.51.51,0,0,1-.17.4.54.54,0,0,1-.38.15h-.1l-.09,0a1.34,1.34,0,0,0,.22.47,1.44,1.44,0,0,0,.35.39,1.74,1.74,0,0,0,.5.27,1.51,1.51,0,0,0,.56.11,1.21,1.21,0,0,0,.68-.21,1.59,1.59,0,0,0,.49-.51,2.15,2.15,0,0,0,.23-.74,5.66,5.66,0,0,0,0-.78,6.16,6.16,0,0,0,0-.7,2.5,2.5,0,0,0-.17-.68,1.53,1.53,0,0,0-.37-.51.92.92,0,0,0-.57-.2,1.74,1.74,0,0,0-.53.07,1.69,1.69,0,0,0-.56.33,1.07,1.07,0,0,0-.22.2l-.1.15a.4.4,0,0,1-.07.09.11.11,0,0,1-.08,0c-.08,0-.13,0-.15-.07a.34.34,0,0,1,0-.17v-3.3a.58.58,0,0,1,0-.25s.1,0,.22,0a3.28,3.28,0,0,0,.71.23,3.84,3.84,0,0,0,.76.07,3.25,3.25,0,0,0,.48,0,5,5,0,0,0,.56-.11l.37-.16.18-.06a.16.16,0,0,1,.09,0,.12.12,0,0,1,0,.1,1.1,1.1,0,0,1-.25.35,2.77,2.77,0,0,1-.29.25v0a2.94,2.94,0,0,1-.75.38,2.68,2.68,0,0,1-.83.14,2.61,2.61,0,0,1-.48-.05,3.12,3.12,0,0,1-.46-.09v2.15a3.09,3.09,0,0,1,.31-.25,1.54,1.54,0,0,1,.34-.17,1.89,1.89,0,0,1,.36-.11,2.38,2.38,0,0,1,.39,0,1.8,1.8,0,0,1,.82.19,2,2,0,0,1,.68.52,2.72,2.72,0,0,1,.44.8,2.51,2.51,0,0,1,.16.9A2.37,2.37,0,0,1,214.84,72.46Z" transform="translate(-11.64 -29.03)"/>
  <path d="M132,80.32h-1.78l-.9.05V80h.53a1.62,1.62,0,0,0,.61-.07.45.45,0,0,0,.24-.46v-5.7a2.92,2.92,0,0,1-.59.19,5.74,5.74,0,0,1-.62.1h-.23v-.35h.36a2.63,2.63,0,0,0,.56-.1,2.55,2.55,0,0,0,.53-.18l.29-.18a1.94,1.94,0,0,0,.26-.23h.26v6.47a.44.44,0,0,0,.24.46,1.68,1.68,0,0,0,.62.07h.52v.35Z" transform="translate(-11.64 -29.03)"/>
  <path d="M138.32,79.33a1.88,1.88,0,0,1-.48.67,2.45,2.45,0,0,1-.77.44,2.34,2.34,0,0,1-.86.16,2.57,2.57,0,0,1-.83-.13,2.14,2.14,0,0,1-.74-.37,1.76,1.76,0,0,1-.7-1.4,1.7,1.7,0,0,1,.14-.71,1.83,1.83,0,0,1,.41-.6A2.46,2.46,0,0,1,135,77a5.67,5.67,0,0,1,.55-.31l-.13-.08-.52-.37a2,2,0,0,1-.43-.53,2,2,0,0,1-.16-.41,1.86,1.86,0,0,1-.05-.42,1.72,1.72,0,0,1,.15-.72,1.75,1.75,0,0,1,.44-.58,1.84,1.84,0,0,1,.65-.41,2.09,2.09,0,0,1,.76-.13,2.4,2.4,0,0,1,.71.11,1.9,1.9,0,0,1,.65.33A1.5,1.5,0,0,1,138,74a1.41,1.41,0,0,1,.17.69,1.52,1.52,0,0,1-.09.51,2.07,2.07,0,0,1-.27.45c-.14.14-.29.27-.44.4a3.2,3.2,0,0,1-.53.34l.44.28a3.33,3.33,0,0,1,.65.5,1.82,1.82,0,0,1,.43.72,1.94,1.94,0,0,1,.07.33,1,1,0,0,1,0,.3A2,2,0,0,1,138.32,79.33Zm-.45-.85a.94.94,0,0,0-.2-.35,3.36,3.36,0,0,0-.49-.41l-.6-.38-.21-.13-.6-.38a3.29,3.29,0,0,0-.6.41,1.59,1.59,0,0,0-.39.48,2.1,2.1,0,0,0-.23.48,2.14,2.14,0,0,0-.06.5,1.5,1.5,0,0,0,.13.62,1.42,1.42,0,0,0,.37.51,1.84,1.84,0,0,0,.57.34,1.7,1.7,0,0,0,.67.13,1.74,1.74,0,0,0,.63-.11,1.89,1.89,0,0,0,.57-.28,1.31,1.31,0,0,0,.37-.45,1,1,0,0,0,.16-.55A1.07,1.07,0,0,0,137.87,78.48Zm-.26-4.36a1.18,1.18,0,0,0-.33-.43,1.44,1.44,0,0,0-.51-.29,1.54,1.54,0,0,0-.56-.1,2,2,0,0,0-.55.07,1.29,1.29,0,0,0-.47.23,1.12,1.12,0,0,0-.35.37,1,1,0,0,0-.13.47,1,1,0,0,0,.16.51,1.42,1.42,0,0,0,.39.38l1.38.88a3.84,3.84,0,0,0,.44-.32,3.91,3.91,0,0,0,.35-.36,1.41,1.41,0,0,0,.22-.42,1.32,1.32,0,0,0,.08-.44A1.26,1.26,0,0,0,137.61,74.12Z" transform="translate(-11.64 -29.03)"/>
  <path d="M140.7,79.83a.54.54,0,0,1-.41.18.58.58,0,0,1-.42-.18.54.54,0,0,1-.17-.39.6.6,0,0,1,.59-.61.54.54,0,0,1,.41.18.58.58,0,0,1,0,.82Z" transform="translate(-11.64 -29.03)"/>
  <path d="M145.51,75.75a3.66,3.66,0,0,0-.58,1.39,7.89,7.89,0,0,0-.2,1.38l0,.51v1a.67.67,0,0,1-.12.43.43.43,0,0,1-.39.17.43.43,0,0,1-.39-.18.66.66,0,0,1-.11-.42,7.59,7.59,0,0,1,.06-.92,9.11,9.11,0,0,1,.23-1,6.5,6.5,0,0,1,.42-1.1,9.36,9.36,0,0,1,.65-1.11c.09-.15.2-.31.33-.49s.2-.28.36-.49l.55-.76h-3a.66.66,0,0,0-.36.08s-.1.17-.16.4-.06.32-.11.55v0h-.28l.37-2.28H143l0,.14c.05.09.25.15.61.18a7.1,7.1,0,0,0,.72,0h2.73v.25Z" transform="translate(-11.64 -29.03)"/>
  <path d="M151.79,79.1a2.59,2.59,0,0,1-.53.8,2.35,2.35,0,0,1-.77.51,2.3,2.3,0,0,1-.92.19,1.8,1.8,0,0,1-.8-.17,2,2,0,0,1-.65-.47,2,2,0,0,1-.4-.64,1.86,1.86,0,0,1-.14-.73.59.59,0,0,1,.14-.42.51.51,0,0,1,.4-.16.52.52,0,0,1,.39.14.51.51,0,0,1,.16.4.52.52,0,0,1-.17.4.54.54,0,0,1-.38.15l-.1,0a.17.17,0,0,1-.09,0,1.47,1.47,0,0,0,.22.48,1.82,1.82,0,0,0,.35.39,2.17,2.17,0,0,0,.5.26,1.33,1.33,0,0,0,.56.11,1.28,1.28,0,0,0,.68-.2,1.53,1.53,0,0,0,.49-.52,2,2,0,0,0,.23-.73,5.82,5.82,0,0,0,0-.79,6.29,6.29,0,0,0,0-.7,2.6,2.6,0,0,0-.17-.68,1.59,1.59,0,0,0-.37-.5.87.87,0,0,0-.57-.21,1.78,1.78,0,0,0-.53.08,1.51,1.51,0,0,0-.56.32,1,1,0,0,0-.21.21.58.58,0,0,0-.11.15.3.3,0,0,1-.07.08.12.12,0,0,1-.08,0,.14.14,0,0,1-.15-.08.3.3,0,0,1,0-.16l0,0V73.3a.69.69,0,0,1,0-.25s.1,0,.22,0a3,3,0,0,0,.71.23,3.84,3.84,0,0,0,.76.08,3,3,0,0,0,.48,0,4.44,4.44,0,0,0,.56-.1l.37-.16.18-.07a.16.16,0,0,1,.09,0,.12.12,0,0,1,0,.1,1.07,1.07,0,0,1-.25.36,2.84,2.84,0,0,1-.29.24v0a2.76,2.76,0,0,1-.75.37,2.41,2.41,0,0,1-.83.14,2.59,2.59,0,0,1-.48,0,2.21,2.21,0,0,1-.46-.1V76.3a2.12,2.12,0,0,1,.31-.25,1,1,0,0,1,.34-.17,1.37,1.37,0,0,1,.36-.11,2.56,2.56,0,0,1,.39,0,1.92,1.92,0,0,1,1.5.71,2.75,2.75,0,0,1,.6,1.7A2.41,2.41,0,0,1,151.79,79.1Z" transform="translate(-11.64 -29.03)"/>
  <path d="M149.74,36.34H148l-.89,0V36h.53a1.56,1.56,0,0,0,.61-.08.44.44,0,0,0,.24-.45V29.8a2.91,2.91,0,0,1-.59.2,5.77,5.77,0,0,1-.62.09H147v-.34h.36a3.66,3.66,0,0,0,.56-.1,2.55,2.55,0,0,0,.53-.18,2.9,2.9,0,0,0,.29-.19A2.75,2.75,0,0,0,149,29h.26v6.47q0,.36.24.45a1.58,1.58,0,0,0,.62.08h.52v.34Z" transform="translate(-11.64 -29.03)"/>
  <path d="M155.93,35.11a2.49,2.49,0,0,1-.52.81,2.7,2.7,0,0,1-.78.51,2.23,2.23,0,0,1-.92.19,1.92,1.92,0,0,1-1.44-.65,1.76,1.76,0,0,1-.41-.63,2.06,2.06,0,0,1-.14-.73.61.61,0,0,1,.14-.42.53.53,0,0,1,.41-.17.56.56,0,0,1,.39.14.54.54,0,0,1,.16.4.54.54,0,0,1-.17.4.55.55,0,0,1-.38.15h-.11l-.08,0a1.16,1.16,0,0,0,.21.47,1.48,1.48,0,0,0,.36.39,1.83,1.83,0,0,0,.49.27,1.55,1.55,0,0,0,.56.11,1.19,1.19,0,0,0,.68-.21,1.62,1.62,0,0,0,.5-.51,2,2,0,0,0,.22-.74,5.46,5.46,0,0,0,.05-.78,6.16,6.16,0,0,0,0-.7,2.18,2.18,0,0,0-.18-.68,1.38,1.38,0,0,0-.36-.51A1,1,0,0,0,154,32a1.74,1.74,0,0,0-.53.07,1.69,1.69,0,0,0-.56.33,1.07,1.07,0,0,0-.22.2l-.11.15a.45.45,0,0,1-.06.09.12.12,0,0,1-.09,0c-.08,0-.13,0-.15-.07a.59.59,0,0,1,0-.17v-3.3a1,1,0,0,1,0-.25s.11,0,.23,0a3.28,3.28,0,0,0,.71.23,3.77,3.77,0,0,0,.76.07,3.25,3.25,0,0,0,.48,0,5.46,5.46,0,0,0,.56-.11l.37-.16.18-.06a.16.16,0,0,1,.09,0,.16.16,0,0,1,0,.1,1.1,1.1,0,0,1-.25.35,2.77,2.77,0,0,1-.29.25v0a2.85,2.85,0,0,1-.76.38,2.63,2.63,0,0,1-.83.14,3.89,3.89,0,0,1-.47,0l-.46-.1v2.15a2.27,2.27,0,0,1,.31-.25,1.73,1.73,0,0,1,.33-.17,2.26,2.26,0,0,1,.37-.11,2.38,2.38,0,0,1,.39,0,1.83,1.83,0,0,1,.82.19,2,2,0,0,1,.67.52,2.54,2.54,0,0,1,.45.8,2.75,2.75,0,0,1,.16.9A2.34,2.34,0,0,1,155.93,35.11Z" transform="translate(-11.64 -29.03)"/>
  <path d="M195.09,141.05H193.3l-.89,0v-.34h.53a1.56,1.56,0,0,0,.61-.08.44.44,0,0,0,.24-.45v-5.71a2.91,2.91,0,0,1-.59.2,5.77,5.77,0,0,1-.62.09h-.24v-.34h.37a3.66,3.66,0,0,0,.56-.1,2.55,2.55,0,0,0,.53-.18,2.9,2.9,0,0,0,.29-.19,2.75,2.75,0,0,0,.26-.22h.26v6.47c0,.24.08.39.23.45a1.68,1.68,0,0,0,.63.08H196v.34Z" transform="translate(-11.64 -29.03)"/>
  <path d="M201.37,140.06a2,2,0,0,1-.48.67,2.45,2.45,0,0,1-.77.44,2.34,2.34,0,0,1-.86.16,2.53,2.53,0,0,1-.83-.13,1.92,1.92,0,0,1-.74-.38,1.7,1.7,0,0,1-.52-.62,1.72,1.72,0,0,1-.18-.78,1.9,1.9,0,0,1,.13-.71,2.09,2.09,0,0,1,.41-.59,2.48,2.48,0,0,1,.49-.41,3.59,3.59,0,0,1,.55-.31l-.13-.09a5.47,5.47,0,0,1-.52-.36,2,2,0,0,1-.43-.53,2.25,2.25,0,0,1-.16-.41,1.51,1.51,0,0,1-.05-.42,1.72,1.72,0,0,1,.15-.72,1.55,1.55,0,0,1,.44-.58,1.84,1.84,0,0,1,.65-.41,2.09,2.09,0,0,1,.76-.13,2.45,2.45,0,0,1,.71.11,2,2,0,0,1,.65.33,1.5,1.5,0,0,1,.45.52,1.36,1.36,0,0,1,.17.69,1.43,1.43,0,0,1-.09.5,1.68,1.68,0,0,1-.27.45,4.08,4.08,0,0,1-.44.4,3.24,3.24,0,0,1-.53.35l.44.28a3,3,0,0,1,.64.49,1.8,1.8,0,0,1,.44.72,1.86,1.86,0,0,1,.07.34,1.53,1.53,0,0,1,0,.3A2,2,0,0,1,201.37,140.06Zm-.45-.85a1,1,0,0,0-.21-.36,3.26,3.26,0,0,0-.48-.41l-.61-.37-.2-.13-.6-.38a3.8,3.8,0,0,0-.61.41,1.67,1.67,0,0,0-.38.47,2,2,0,0,0-.23.49,2.07,2.07,0,0,0-.07.49,1.69,1.69,0,0,0,.13.63,1.55,1.55,0,0,0,.38.5,1.69,1.69,0,0,0,.57.35,1.67,1.67,0,0,0,.67.13,2,2,0,0,0,.63-.11,2.16,2.16,0,0,0,.57-.28,1.53,1.53,0,0,0,.37-.45,1.08,1.08,0,0,0,.15-.55A1.06,1.06,0,0,0,200.92,139.21Zm-.26-4.36a1.1,1.1,0,0,0-.33-.43,1.44,1.44,0,0,0-.51-.29,1.54,1.54,0,0,0-.56-.1,2.51,2.51,0,0,0-.55.06,1.38,1.38,0,0,0-.47.24,1,1,0,0,0-.35.37.85.85,0,0,0-.13.47.88.88,0,0,0,.16.51,1.39,1.39,0,0,0,.39.37l1.38.89a3,3,0,0,0,.44-.33,2.89,2.89,0,0,0,.35-.35,1.41,1.41,0,0,0,.22-.42,1.36,1.36,0,0,0,.08-.44A1.23,1.23,0,0,0,200.66,134.85Z" transform="translate(-11.64 -29.03)"/>
  <path d="M203.75,140.56a.54.54,0,0,1-.41.17.54.54,0,0,1-.42-.17.52.52,0,0,1-.17-.4.58.58,0,0,1,.59-.6.58.58,0,0,1,.58.58A.57.57,0,0,1,203.75,140.56Z" transform="translate(-11.64 -29.03)"/>
  <path d="M208.56,136.47a3.81,3.81,0,0,0-.58,1.39,8,8,0,0,0-.2,1.39l0,.51v1a.69.69,0,0,1-.12.43.46.46,0,0,1-.39.17.45.45,0,0,1-.4-.18.73.73,0,0,1-.1-.42,7.47,7.47,0,0,1,.06-.92,9.11,9.11,0,0,1,.23-1,6.2,6.2,0,0,1,.42-1.1,9,9,0,0,1,.64-1.11l.34-.49.35-.49.55-.76h-3a.82.82,0,0,0-.36.07.93.93,0,0,0-.16.41c0,.13-.07.31-.11.55v0h-.28l.37-2.27h.28l0,.14c0,.09.25.14.6.17a7.1,7.1,0,0,0,.73,0h2.73v.24Z" transform="translate(-11.64 -29.03)"/>
  <path d="M214.84,139.82a2.7,2.7,0,0,1-.53.81,2.45,2.45,0,0,1-.78.51,2.22,2.22,0,0,1-.91.19,1.91,1.91,0,0,1-.8-.17,2,2,0,0,1-.65-.48,1.91,1.91,0,0,1-.41-.63,2.06,2.06,0,0,1-.14-.73.61.61,0,0,1,.14-.42.53.53,0,0,1,.41-.16.52.52,0,0,1,.39.14.5.5,0,0,1,.16.39.51.51,0,0,1-.17.4.54.54,0,0,1-.38.15h-.1l-.09,0a1.34,1.34,0,0,0,.22.47,1.44,1.44,0,0,0,.35.39,1.74,1.74,0,0,0,.5.27,1.51,1.51,0,0,0,.56.11,1.21,1.21,0,0,0,.68-.21,1.5,1.5,0,0,0,.49-.51,2.16,2.16,0,0,0,.23-.73,5.91,5.91,0,0,0,0-.79,6.16,6.16,0,0,0,0-.7,2.5,2.5,0,0,0-.17-.68,1.53,1.53,0,0,0-.37-.51.92.92,0,0,0-.57-.2,1.74,1.74,0,0,0-.53.07,1.69,1.69,0,0,0-.56.33,1.07,1.07,0,0,0-.22.2l-.1.15a.25.25,0,0,1-.07.09.11.11,0,0,1-.08,0c-.08,0-.13,0-.15-.07a.34.34,0,0,1,0-.17V134a.58.58,0,0,1,0-.25s.1,0,.22,0a3.28,3.28,0,0,0,.71.23,3.84,3.84,0,0,0,.76.07,3.25,3.25,0,0,0,.48,0,5,5,0,0,0,.56-.11l.37-.16.18-.06a.16.16,0,0,1,.09,0,.12.12,0,0,1,0,.1,1.1,1.1,0,0,1-.25.35,2.77,2.77,0,0,1-.29.25v0a2.94,2.94,0,0,1-.75.38,2.68,2.68,0,0,1-.83.14,3.88,3.88,0,0,1-.48,0l-.46-.1V137a3.09,3.09,0,0,1,.31-.25,1.54,1.54,0,0,1,.34-.17,1.36,1.36,0,0,1,.36-.1,1.61,1.61,0,0,1,.39,0,1.8,1.8,0,0,1,.82.19,2,2,0,0,1,.68.52,2.72,2.72,0,0,1,.44.8,2.53,2.53,0,0,1,.16.91A2.32,2.32,0,0,1,214.84,139.82Z" transform="translate(-11.64 -29.03)"/>
  <path d="M117.11,194a2.2,2.2,0,0,1-.48.68,2.56,2.56,0,0,1-.79.49,2.76,2.76,0,0,1-.91.16,2.12,2.12,0,0,1-.44,0l-.4-.08a2.19,2.19,0,0,1-1-.58,1.49,1.49,0,0,1-.41-1,.65.65,0,0,1,.16-.47.63.63,0,1,1,.86.93.71.71,0,0,1-.51.13,1.53,1.53,0,0,0,.7.61,2.38,2.38,0,0,0,1,.23,1,1,0,0,0,.43-.1,1.15,1.15,0,0,0,.37-.25,1.7,1.7,0,0,0,.34-.7,2.66,2.66,0,0,0,.1-.77c0-.16,0-.29,0-.4a2.94,2.94,0,0,0,0-.35,1.56,1.56,0,0,0-.42-.79,1.12,1.12,0,0,0-.81-.29h-.52a.35.35,0,0,1-.16,0,.12.12,0,0,1-.08-.12.13.13,0,0,1,0-.11h.12l.31,0,.34,0a1,1,0,0,0,.58-.34,1.54,1.54,0,0,0,.35-.59c0-.18.08-.33.1-.45a3.42,3.42,0,0,0,0-.44,1.62,1.62,0,0,0-.08-.52.92.92,0,0,0-.28-.46.88.88,0,0,0-.34-.19,1.07,1.07,0,0,0-.37-.05l-.37,0a2.62,2.62,0,0,0-.38.09,1.81,1.81,0,0,0-.41.23,1,1,0,0,0-.3.32h.18a.67.67,0,0,1,.38.17.52.52,0,0,1,.13.37.54.54,0,0,1-.16.4.61.61,0,0,1-.82,0,.58.58,0,0,1-.15-.41,1.25,1.25,0,0,1,.35-.88,2.16,2.16,0,0,1,1.2-.59,2.68,2.68,0,0,1,.41,0,3,3,0,0,1,.73.09,2.5,2.5,0,0,1,.66.31,1.74,1.74,0,0,1,.46.48,1.21,1.21,0,0,1,.18.63,1.58,1.58,0,0,1-.13.63,2.24,2.24,0,0,1-.31.56,2.52,2.52,0,0,1-.51.45,2.43,2.43,0,0,1-.6.31,2.43,2.43,0,0,1,1,.44,2.26,2.26,0,0,1,.69.89c0,.11.06.22.08.32a1.45,1.45,0,0,1,0,.35A1.86,1.86,0,0,1,117.11,194Z" transform="translate(-11.64 -29.03)"/>
  <path d="M122.41,192.83a3.9,3.9,0,0,1-.34,1.21,2.12,2.12,0,0,1-.77.94,2,2,0,0,1-1.14.35,2,2,0,0,1-.77-.15,2.1,2.1,0,0,1-.65-.41,2.87,2.87,0,0,1-.75-1.5,8.35,8.35,0,0,1-.15-1.71,8.76,8.76,0,0,1,.13-1.65,3,3,0,0,1,.68-1.5,1.79,1.79,0,0,1,.68-.5,2.06,2.06,0,0,1,.84-.16,2,2,0,0,1,.77.15,2.24,2.24,0,0,1,.66.44,2.79,2.79,0,0,1,.73,1.49,8.56,8.56,0,0,1,.15,1.73A9,9,0,0,1,122.41,192.83Zm-.85-2.5a8.34,8.34,0,0,0-.08-.89,2.11,2.11,0,0,0-.27-.82,1.56,1.56,0,0,0-.45-.47,1.19,1.19,0,0,0-.6-.17,1.24,1.24,0,0,0-.63.17,1.32,1.32,0,0,0-.43.47,2,2,0,0,0-.27.85,5.57,5.57,0,0,0-.06.89c0,.37,0,.75,0,1.13s0,.75,0,1.12a6.88,6.88,0,0,0,.06.92,2.7,2.7,0,0,0,.27.88,1.57,1.57,0,0,0,.43.49,1.11,1.11,0,0,0,.63.19,1.07,1.07,0,0,0,.63-.2,1.53,1.53,0,0,0,.45-.52,2.84,2.84,0,0,0,.23-.86c0-.23,0-.53.08-.9s0-.75,0-1.15,0-.76,0-1.15Z" transform="translate(-11.64 -29.03)"/>
  <g>
    <path d="M49.44,163.47a3.6,3.6,0,0,1-.54.31" transform="translate(-11.64 -29.03)" fill="none" stroke="#221e1f" stroke-miterlimit="10" stroke-width="0.4"/>
    <path d="M48.1,164.07c-2.22.57-5.37-.24-8.16-2.33-2.95-2.22-4.65-5.23-4.52-7.59" transform="translate(-11.64 -29.03)" fill="none" stroke="#221e1f" stroke-miterlimit="10" stroke-width="0.4" stroke-dasharray="1.18 0.86"/>
    <path d="M35.47,153.72a3.75,3.75,0,0,1,.14-.6" transform="translate(-11.64 -29.03)" fill="none" stroke="#221e1f" stroke-miterlimit="10" stroke-width="0.4"/>
  </g>
  <g>
    <path d="M31.09,169.84a7.28,7.28,0,0,0,4.4.4c2.33-.64,3.92-2.81,4.32-5.74" transform="translate(-11.64 -29.03)" fill="none" stroke="#221e1f" stroke-miterlimit="10" stroke-width="0.3"/>
    <path d="M39.74,165l-1.11.61,0,0,.77-1.73c.17-.6.33-1.21.49-1.82.11.62.22,1.24.32,1.86l.63,1.79,0,0Z" transform="translate(-11.64 -29.03)" fill="#221e1f"/>
  </g>
</svg>
