<svg id="레이어_1" data-name="레이어 1" xmlns="http://www.w3.org/2000/svg" width="115.69" height="267.45" viewBox="0 0 115.69 267.45">
  <g>
    <path d="M86.36,17a3.75,3.75,0,0,1-.6,1,3.23,3.23,0,0,1-.8.69,1.88,1.88,0,0,1-1,.31,1,1,0,0,1-.6-.18,1.38,1.38,0,0,1-.4-.52c-.11.38-.2.7-.27,1s-.18.74-.24,1a.68.68,0,0,0,0,.25c0,.05.1.09.23.09h.12l.2,0,0,0a.28.28,0,0,1,.15,0,.09.09,0,0,1,.08.1.19.19,0,0,1,0,.16.16.16,0,0,1-.15.07l-.51,0-.58,0-.46,0-.45,0a.18.18,0,0,1-.11,0,.18.18,0,0,1,0-.1.2.2,0,0,1,.07-.17.42.42,0,0,1,.18,0l.28,0a.27.27,0,0,0,.21-.12,1.39,1.39,0,0,0,.08-.23l0-.09L83,15.41a2.06,2.06,0,0,0,.07-.66c0-.27-.13-.4-.34-.4a.45.45,0,0,0-.28.09.55.55,0,0,0-.19.25,2,2,0,0,0-.18.42c-.05.16-.11.34-.16.55v0a.75.75,0,0,1,0,.15.15.15,0,0,1-.13.06c-.07,0-.11,0-.13-.06a.82.82,0,0,1,0-.14v0c.06-.24.12-.44.17-.58a2.25,2.25,0,0,1,.23-.54,1,1,0,0,1,.31-.32.8.8,0,0,1,.43-.12,1,1,0,0,1,.64.22,1,1,0,0,1,.35.6,2.77,2.77,0,0,1,.64-.58,1.48,1.48,0,0,1,.79-.24,1.29,1.29,0,0,1,1.08.55,1.93,1.93,0,0,1,.37,1.2A3.06,3.06,0,0,1,86.36,17Zm-.69-2.35a.6.6,0,0,0-.56-.33,1.44,1.44,0,0,0-.87.39,1.47,1.47,0,0,0-.58.8c-.08.28-.18.68-.31,1.18s-.25,1-.28,1.13a1.54,1.54,0,0,0,.29.7.72.72,0,0,0,.58.29,1.16,1.16,0,0,0,.81-.4,2.32,2.32,0,0,0,.51-.74,6.7,6.7,0,0,0,.35-1.13,5,5,0,0,0,.21-1.19A1.48,1.48,0,0,0,85.67,14.68Z" transform="translate(-55.54 -8.01)"/>
    <rect x="0.18" y="0.18" width="57.64" height="14.09" fill="none"/>
    <path d="M142.72,20.33l0,.06a.72.72,0,0,0,0,.23c0,.05.1.09.22.1H143l.18,0,0,0a.35.35,0,0,1,.16,0c.07,0,.1,0,.1.1a.23.23,0,0,1,0,.16.16.16,0,0,1-.15.07l-.61,0h-.51l-.56,0-.55,0a.13.13,0,0,1-.1,0,.14.14,0,0,1,0-.09c0-.1,0-.16.05-.19a.38.38,0,0,1,.19,0l.37,0a.55.55,0,0,0,.29-.09.63.63,0,0,0,.14-.25c0-.23.12-.48.19-.77s.1-.44.19-.77l.11-.43a2.63,2.63,0,0,1-.59.46,1.37,1.37,0,0,1-.71.2,1.26,1.26,0,0,1-1.09-.55,2,2,0,0,1-.36-1.2,3.25,3.25,0,0,1,.23-1.17,3.39,3.39,0,0,1,.61-1,3.24,3.24,0,0,1,.79-.7,2,2,0,0,1,1-.3,1,1,0,0,1,.62.22,1.48,1.48,0,0,1,.4.55,1.68,1.68,0,0,1,.27-.37,1.93,1.93,0,0,1,.33-.32.28.28,0,0,1,.15-.08c.07,0,.11,0,.11.12Zm.24-5.67a.8.8,0,0,0-.61-.31,1.22,1.22,0,0,0-.85.44,2.79,2.79,0,0,0-.52.82c-.11.31-.22.67-.32,1.06a5,5,0,0,0-.17,1.13,1.47,1.47,0,0,0,.14.69.59.59,0,0,0,.55.35,1.39,1.39,0,0,0,.81-.34,2.35,2.35,0,0,0,.59-.68s.12-.42.33-1.19a10.6,10.6,0,0,0,.31-1.32A1,1,0,0,0,143,14.66Z" transform="translate(-55.54 -8.01)"/>
    <rect x="57.82" y="0.18" width="57.7" height="14.09" fill="none"/>
    <path d="M85.64,32.94H83.86L83,33v-.34h.52a1.56,1.56,0,0,0,.61-.08.44.44,0,0,0,.24-.45V26.44a2.92,2.92,0,0,1-.59.19,5.55,5.55,0,0,1-.61.1H82.9v-.35h.37a2.83,2.83,0,0,0,.56-.09,3.63,3.63,0,0,0,.52-.19,1.75,1.75,0,0,0,.29-.18,2.75,2.75,0,0,0,.26-.22h.25v6.43q0,.36.24.45a1.62,1.62,0,0,0,.62.08h.52V33Z" transform="translate(-55.54 -8.01)"/>
    <rect x="0.18" y="14.27" width="57.64" height="14.03" fill="none"/>
    <path d="M138,32.94h-1.78l-.89,0v-.34h.52a1.56,1.56,0,0,0,.61-.08.44.44,0,0,0,.24-.45V26.44a2.92,2.92,0,0,1-.59.19,5.55,5.55,0,0,1-.61.1h-.24v-.35h.37a2.63,2.63,0,0,0,.55-.09,3.35,3.35,0,0,0,.53-.19,1.75,1.75,0,0,0,.29-.18,2.75,2.75,0,0,0,.26-.22h.25v6.43q0,.36.24.45a1.62,1.62,0,0,0,.62.08h.51V33Z" transform="translate(-55.54 -8.01)"/>
    <path d="M144.54,30.73a4.19,4.19,0,0,1-.33,1.21,2.34,2.34,0,0,1-.78.94,2,2,0,0,1-1.89.19,1.84,1.84,0,0,1-.65-.41,2.87,2.87,0,0,1-.75-1.49,8.18,8.18,0,0,1-.15-1.7,9.56,9.56,0,0,1,.13-1.64,3.08,3.08,0,0,1,.68-1.49,1.76,1.76,0,0,1,.67-.5,2.06,2.06,0,0,1,.84-.16,2,2,0,0,1,.77.15,2.08,2.08,0,0,1,.65.44,2.72,2.72,0,0,1,.73,1.49,8.35,8.35,0,0,1,.15,1.71A8.77,8.77,0,0,1,144.54,30.73Zm-.85-2.48a8.72,8.72,0,0,0-.07-.89,2.11,2.11,0,0,0-.27-.82,1.52,1.52,0,0,0-.45-.46,1.18,1.18,0,0,0-1.22,0,1.28,1.28,0,0,0-.43.46,2.07,2.07,0,0,0-.27.85,5.57,5.57,0,0,0-.06.89c0,.36,0,.74,0,1.12s0,.75,0,1.12a6.73,6.73,0,0,0,.06.91,2.78,2.78,0,0,0,.27.88,1.33,1.33,0,0,0,.43.48,1.08,1.08,0,0,0,.62.19,1.1,1.1,0,0,0,.63-.2,1.36,1.36,0,0,0,.45-.52,2.76,2.76,0,0,0,.23-.85c0-.23,0-.53.07-.89s0-.75,0-1.15,0-.75,0-1.14Z" transform="translate(-55.54 -8.01)"/>
    <path d="M149.76,30.73a3.9,3.9,0,0,1-.34,1.21,2.24,2.24,0,0,1-.77.94,2,2,0,0,1-1.13.34,2,2,0,0,1-.77-.15,1.89,1.89,0,0,1-.64-.41,2.73,2.73,0,0,1-.75-1.49,8.18,8.18,0,0,1-.15-1.7,8.65,8.65,0,0,1,.13-1.64,3.08,3.08,0,0,1,.67-1.49,1.79,1.79,0,0,1,.68-.5,2.06,2.06,0,0,1,.84-.16,2,2,0,0,1,.77.15,2.2,2.2,0,0,1,.65.44,2.79,2.79,0,0,1,.73,1.49,8.35,8.35,0,0,1,.15,1.71A8.77,8.77,0,0,1,149.76,30.73Zm-.85-2.48a8.34,8.34,0,0,0-.08-.89,2,2,0,0,0-.26-.82,1.52,1.52,0,0,0-.45-.46,1.19,1.19,0,0,0-.6-.17,1.24,1.24,0,0,0-.63.17,1.48,1.48,0,0,0-.43.46,2.25,2.25,0,0,0-.26.85,6.85,6.85,0,0,0-.07.89c0,.36,0,.74,0,1.12s0,.75,0,1.12a5.41,5.41,0,0,0,.07.91,2.55,2.55,0,0,0,.26.88,1.54,1.54,0,0,0,.43.48,1.11,1.11,0,0,0,.63.19,1.1,1.1,0,0,0,.63-.2,1.36,1.36,0,0,0,.45-.52,2.79,2.79,0,0,0,.22-.85c0-.23.06-.53.08-.89s0-.75,0-1.15,0-.75,0-1.14Z" transform="translate(-55.54 -8.01)"/>
    <rect x="57.82" y="14.27" width="57.7" height="14.03" fill="none"/>
    <path d="M86.55,47.07H82.48v-.26l2.22-2.49c.17-.2.31-.39.43-.55a5,5,0,0,0,.38-.6,3,3,0,0,0,.24-.62,2,2,0,0,0,.11-.66,2.69,2.69,0,0,0-.08-.65,1.82,1.82,0,0,0-.27-.58,1.5,1.5,0,0,0-.51-.43,1.48,1.48,0,0,0-.61-.12,1.52,1.52,0,0,0-.93.3,1.69,1.69,0,0,0-.56.81H83a.6.6,0,0,1,.42.15.54.54,0,0,1,.17.43.55.55,0,0,1-.16.4.54.54,0,0,1-.41.18.54.54,0,0,1-.43-.19.63.63,0,0,1-.15-.44,1.87,1.87,0,0,1,.15-.73,2.13,2.13,0,0,1,.4-.62,2,2,0,0,1,.68-.48,2.16,2.16,0,0,1,.81-.15,2.86,2.86,0,0,1,.89.14,2.16,2.16,0,0,1,.78.45,2,2,0,0,1,.5.7,2.27,2.27,0,0,1,0,1.62,2.38,2.38,0,0,1-.41.66,8.47,8.47,0,0,1-.6.6l-.6.57-.62.59-1.17,1.13h2.53a1.12,1.12,0,0,0,.42-.07.86.86,0,0,0,.18-.36q0-.14.09-.45l0-.18h.28Z" transform="translate(-55.54 -8.01)"/>
    <rect x="0.18" y="28.29" width="57.64" height="14.09" fill="none"/>
    <path d="M141.66,45.8a2.23,2.23,0,0,1-1.29,1.31,2.25,2.25,0,0,1-.91.19,1.77,1.77,0,0,1-.8-.17,1.72,1.72,0,0,1-.64-.47,1.85,1.85,0,0,1-.41-.63,2.06,2.06,0,0,1-.14-.73.64.64,0,0,1,.14-.42.57.57,0,0,1,.41-.16.54.54,0,0,1,.38.14.51.51,0,0,1,.17.4.48.48,0,0,1-.18.39.51.51,0,0,1-.37.15h-.11l-.08,0a1.16,1.16,0,0,0,.21.47,1.61,1.61,0,0,0,.35.39,2.7,2.7,0,0,0,.5.27,1.49,1.49,0,0,0,.55.1,1.18,1.18,0,0,0,.68-.2,1.59,1.59,0,0,0,.49-.51,2.16,2.16,0,0,0,.23-.73,5.75,5.75,0,0,0,0-.78,6.16,6.16,0,0,0,0-.7,2.6,2.6,0,0,0-.17-.68,1.59,1.59,0,0,0-.37-.5.92.92,0,0,0-.57-.2,1.72,1.72,0,0,0-.52.07,1.66,1.66,0,0,0-.56.32,1.39,1.39,0,0,0-.21.21,1,1,0,0,0-.11.15l-.06.08a.15.15,0,0,1-.09,0,.14.14,0,0,1-.15-.08.51.51,0,0,1,0-.16V40a1.07,1.07,0,0,1,0-.25s.1,0,.23,0a3.18,3.18,0,0,0,.7.22,3.82,3.82,0,0,0,.75.08,3.28,3.28,0,0,0,.49,0,4.65,4.65,0,0,0,.55-.1l.37-.16.18-.07a.16.16,0,0,1,.09,0,.16.16,0,0,1,0,.1,1.1,1.1,0,0,1-.25.35,1.94,1.94,0,0,1-.29.25v0a2.94,2.94,0,0,1-.75.38,2.63,2.63,0,0,1-.83.14,2.59,2.59,0,0,1-.47-.05,3.4,3.4,0,0,1-.46-.09V43a3.09,3.09,0,0,1,.31-.25,1.2,1.2,0,0,1,.34-.17,1.89,1.89,0,0,1,.36-.11,2.38,2.38,0,0,1,.39,0,1.91,1.91,0,0,1,.81.18,2.16,2.16,0,0,1,.68.53,2.75,2.75,0,0,1,.6,1.69A2.33,2.33,0,0,1,141.66,45.8Z" transform="translate(-55.54 -8.01)"/>
    <path d="M147.18,44.82a3.9,3.9,0,0,1-.34,1.21,2.15,2.15,0,0,1-.77.93,1.91,1.91,0,0,1-1.13.34,1.94,1.94,0,0,1-.76-.15,1.82,1.82,0,0,1-.65-.4,2.81,2.81,0,0,1-.75-1.49,8.28,8.28,0,0,1-.15-1.71,8.53,8.53,0,0,1,.13-1.63,3,3,0,0,1,.68-1.49,1.9,1.9,0,0,1,.67-.51,2.24,2.24,0,0,1,.84-.16,2,2,0,0,1,.77.15,2.26,2.26,0,0,1,.65.44,2.79,2.79,0,0,1,.73,1.49,8.35,8.35,0,0,1,.15,1.71A9,9,0,0,1,147.18,44.82Zm-.85-2.49a6.65,6.65,0,0,0-.08-.89,2,2,0,0,0-.26-.81,1.52,1.52,0,0,0-.45-.46,1.19,1.19,0,0,0-.6-.17,1.24,1.24,0,0,0-.63.17,1.26,1.26,0,0,0-.42.46,2,2,0,0,0-.27.85,6.85,6.85,0,0,0-.07.89c0,.36,0,.73,0,1.12s0,.74,0,1.11a6.59,6.59,0,0,0,.07.91,2.23,2.23,0,0,0,.27.88,1.54,1.54,0,0,0,.42.49,1.19,1.19,0,0,0,.63.19,1,1,0,0,0,.63-.21,1.41,1.41,0,0,0,.45-.51,2.79,2.79,0,0,0,.22-.86c0-.23.06-.52.08-.89s0-.75,0-1.14,0-.76,0-1.15Z" transform="translate(-55.54 -8.01)"/>
    <rect x="57.82" y="28.29" width="57.7" height="14.09" fill="none"/>
    <path d="M86,59.28v1c0,.23.06.37.18.44a1.16,1.16,0,0,0,.52.07h.37v.34l-.75,0H84.83l-.74,0v-.34h.35a1.42,1.42,0,0,0,.53-.06.48.48,0,0,0,.18-.45v-1H82.24v-.34L85.6,53.8a.65.65,0,0,1,.09-.11l.14,0q.12,0,.15.06a.62.62,0,0,1,0,.18v5h1.11v.34Zm-.78-4.43-2.67,4.09h2.67Z" transform="translate(-55.54 -8.01)"/>
    <rect x="0.18" y="42.38" width="57.64" height="14.02" fill="none"/>
    <path d="M141.54,61.09h-4.07v-.25l2.23-2.5c.17-.2.31-.38.43-.55a6.64,6.64,0,0,0,.38-.6,4.38,4.38,0,0,0,.24-.62,2.16,2.16,0,0,0,0-1.3,1.54,1.54,0,0,0-.26-.58,1.58,1.58,0,0,0-.51-.43,1.36,1.36,0,0,0-.61-.13,1.48,1.48,0,0,0-.93.3,1.63,1.63,0,0,0-.56.81H138a.6.6,0,0,1,.42.15.58.58,0,0,1,.17.43.56.56,0,0,1-.16.41.58.58,0,0,1-.41.17.57.57,0,0,1-.44-.18.65.65,0,0,1-.15-.44,1.92,1.92,0,0,1,.15-.74,2.11,2.11,0,0,1,.41-.61,1.91,1.91,0,0,1,.68-.48,2.16,2.16,0,0,1,.81-.15,2.63,2.63,0,0,1,.89.14,2.34,2.34,0,0,1,.78.45,1.94,1.94,0,0,1,.49.69,2,2,0,0,1,.18.85,2.3,2.3,0,0,1-.13.77,2.57,2.57,0,0,1-.41.67c-.17.18-.37.38-.6.59s-.32.32-.6.57l-.62.59-1.17,1.14h2.53a1,1,0,0,0,.42-.08.75.75,0,0,0,.18-.35c0-.09,0-.24.08-.45l0-.18h.28Z" transform="translate(-55.54 -8.01)"/>
    <path d="M146.94,59.83a2.75,2.75,0,0,1-.52.8,2.57,2.57,0,0,1-.78.51,2.35,2.35,0,0,1-.91.19,1.9,1.9,0,0,1-.79-.17,2,2,0,0,1-.64-.47,1.89,1.89,0,0,1-.41-.64,2,2,0,0,1-.14-.72.63.63,0,0,1,.14-.42.6.6,0,0,1,.79,0,.5.5,0,0,1,.16.39.51.51,0,0,1-.17.4.53.53,0,0,1-.37.15h-.11l-.09,0a1.52,1.52,0,0,0,.22.47,1.57,1.57,0,0,0,.35.38,1.74,1.74,0,0,0,.5.27,1.46,1.46,0,0,0,.55.11,1.28,1.28,0,0,0,.68-.2,1.53,1.53,0,0,0,.49-.52,2.09,2.09,0,0,0,.23-.73,7.69,7.69,0,0,0,0-.78,6,6,0,0,0,0-.69,2.5,2.5,0,0,0-.17-.68,1.48,1.48,0,0,0-.37-.5.87.87,0,0,0-.57-.21,1.67,1.67,0,0,0-.52.08,1.51,1.51,0,0,0-.56.32.81.81,0,0,0-.21.2l-.11.15a.4.4,0,0,1-.07.09.11.11,0,0,1-.08,0c-.08,0-.13,0-.15-.07a.34.34,0,0,1,0-.16V54.07a.66.66,0,0,1,0-.25s.1,0,.22,0a3.47,3.47,0,0,0,.71.23,3.67,3.67,0,0,0,.75.07l.48,0a5,5,0,0,0,.56-.11l.37-.16.18-.06a.11.11,0,0,1,.08,0,.12.12,0,0,1,0,.1,1.22,1.22,0,0,1-.25.35l-.29.25v0a2.91,2.91,0,0,1-.75.37,2.63,2.63,0,0,1-.83.14,2.56,2.56,0,0,1-.47,0,2.21,2.21,0,0,1-.46-.1V57a2,2,0,0,1,.31-.24,1,1,0,0,1,.33-.17,1.58,1.58,0,0,1,.37-.11,2.34,2.34,0,0,1,.38,0,1.92,1.92,0,0,1,.82.18,2,2,0,0,1,.67.52,2.41,2.41,0,0,1,.44.8,2.44,2.44,0,0,1,.16.9A2.32,2.32,0,0,1,146.94,59.83Z" transform="translate(-55.54 -8.01)"/>
    <rect x="57.82" y="42.38" width="57.7" height="14.02" fill="none"/>
    <path d="M86.67,73.92a2.79,2.79,0,0,1-.53.8,2.49,2.49,0,0,1-.77.5,2.23,2.23,0,0,1-.91.2A2,2,0,0,1,83,74.77a1.91,1.91,0,0,1-.41-.63,2,2,0,0,1-.13-.73.64.64,0,0,1,.13-.42.61.61,0,0,1,.8,0,.51.51,0,0,1,.16.4.54.54,0,0,1-.17.4.54.54,0,0,1-.38.15h-.11l-.08,0a1.31,1.31,0,0,0,.21.47,1.48,1.48,0,0,0,.36.39,2.34,2.34,0,0,0,.49.27,1.51,1.51,0,0,0,.56.11,1.16,1.16,0,0,0,.67-.21,1.62,1.62,0,0,0,.5-.51,2.17,2.17,0,0,0,.22-.73,5.75,5.75,0,0,0,0-.78,6.29,6.29,0,0,0,0-.7,2.12,2.12,0,0,0-.17-.67,1.38,1.38,0,0,0-.36-.51,1,1,0,0,0-.57-.2,1.74,1.74,0,0,0-.53.07,1.65,1.65,0,0,0-.55.33,1.07,1.07,0,0,0-.22.2l-.11.15-.06.08a.1.1,0,0,1-.09,0A.14.14,0,0,1,83,71.6a.51.51,0,0,1,0-.16V68.15a.9.9,0,0,1,0-.24s.11,0,.23,0a3.26,3.26,0,0,0,.71.22,3.67,3.67,0,0,0,.75.08l.48,0,.56-.11.36-.16.18-.07a.12.12,0,0,1,.09,0,.1.1,0,0,1,0,.09,1.24,1.24,0,0,1-.25.36,2,2,0,0,1-.29.24v0a2.65,2.65,0,0,1-.75.38,2.57,2.57,0,0,1-.82.14,2.42,2.42,0,0,1-.47,0,2.88,2.88,0,0,1-.46-.09v2.14a2.27,2.27,0,0,1,.31-.25,1.29,1.29,0,0,1,.33-.17,1.36,1.36,0,0,1,.36-.1,1.61,1.61,0,0,1,.39,0,1.75,1.75,0,0,1,.81.19,1.9,1.9,0,0,1,.68.52,2.67,2.67,0,0,1,.44.79,2.51,2.51,0,0,1,.16.9A2.56,2.56,0,0,1,86.67,73.92Z" transform="translate(-55.54 -8.01)"/>
    <rect x="0.18" y="56.4" width="57.64" height="14.09" fill="none"/>
    <path d="M141.54,75.18h-4.07v-.26l2.23-2.49c.17-.2.31-.39.43-.55a6.64,6.64,0,0,0,.38-.6,4.38,4.38,0,0,0,.24-.62,2.19,2.19,0,0,0,0-1.31,1.61,1.61,0,0,0-.26-.58,1.68,1.68,0,0,0-.51-.42,1.36,1.36,0,0,0-.61-.13,1.48,1.48,0,0,0-.93.3,1.63,1.63,0,0,0-.56.81H138a.6.6,0,0,1,.42.15.58.58,0,0,1,.17.43.57.57,0,0,1-.16.41.58.58,0,0,1-.41.17.57.57,0,0,1-.44-.18.67.67,0,0,1-.15-.44,1.92,1.92,0,0,1,.15-.74,2,2,0,0,1,.41-.61,1.82,1.82,0,0,1,.68-.49,2.16,2.16,0,0,1,.81-.15,2.91,2.91,0,0,1,.89.14,2.34,2.34,0,0,1,.78.45,2.16,2.16,0,0,1,.67,1.55,2.34,2.34,0,0,1-.13.77,2.38,2.38,0,0,1-.41.66,8.47,8.47,0,0,1-.6.6l-.6.57-.62.59-1.17,1.13h2.53a1.12,1.12,0,0,0,.42-.07.8.8,0,0,0,.18-.36c0-.09,0-.24.08-.45l0-.18h.28Z" transform="translate(-55.54 -8.01)"/>
    <path d="M147.18,72.93a3.9,3.9,0,0,1-.34,1.21,2.15,2.15,0,0,1-.77.93,1.92,1.92,0,0,1-1.13.35,1.94,1.94,0,0,1-.76-.15,2,2,0,0,1-.65-.41,2.77,2.77,0,0,1-.75-1.49,8.18,8.18,0,0,1-.15-1.7,8.57,8.57,0,0,1,.13-1.64,3,3,0,0,1,.68-1.49,1.9,1.9,0,0,1,.67-.51,2.24,2.24,0,0,1,.84-.16,2,2,0,0,1,.77.15,2.26,2.26,0,0,1,.65.44A2.79,2.79,0,0,1,147.1,70a8.39,8.39,0,0,1,.15,1.72A9,9,0,0,1,147.18,72.93Zm-.85-2.48a6.35,6.35,0,0,0-.08-.89,2,2,0,0,0-.26-.82,1.52,1.52,0,0,0-.45-.46,1.19,1.19,0,0,0-.6-.17,1.24,1.24,0,0,0-.63.17,1.26,1.26,0,0,0-.42.46,2,2,0,0,0-.27.85,6.85,6.85,0,0,0-.07.89c0,.36,0,.74,0,1.12s0,.74,0,1.12a6.84,6.84,0,0,0,.07.91,2.23,2.23,0,0,0,.27.87,1.44,1.44,0,0,0,.42.49,1.11,1.11,0,0,0,.63.19,1.1,1.1,0,0,0,.63-.2,1.53,1.53,0,0,0,.45-.52,2.79,2.79,0,0,0,.22-.86c0-.22.06-.52.08-.88s0-.76,0-1.15,0-.75,0-1.15Z" transform="translate(-55.54 -8.01)"/>
    <rect x="57.82" y="56.4" width="57.7" height="14.09" fill="none"/>
    <path d="M83,89.16H81.22l-.89,0v-.34h.52a1.68,1.68,0,0,0,.62-.07.45.45,0,0,0,.23-.45V82.66a2.92,2.92,0,0,1-.59.19,3.7,3.7,0,0,1-.61.1h-.23v-.34h.36a3.66,3.66,0,0,0,.56-.1,2.47,2.47,0,0,0,.52-.18,2.9,2.9,0,0,0,.29-.19,2.75,2.75,0,0,0,.26-.22h.26v6.44a.43.43,0,0,0,.23.45,1.68,1.68,0,0,0,.62.07h.52v.34Z" transform="translate(-55.54 -8.01)"/>
    <path d="M89.54,87a4.29,4.29,0,0,1-.33,1.21,2.22,2.22,0,0,1-.77.93,1.94,1.94,0,0,1-1.14.34,2,2,0,0,1-.76-.15,1.8,1.8,0,0,1-.64-.41,2.73,2.73,0,0,1-.75-1.49,8.18,8.18,0,0,1-.15-1.7,9.74,9.74,0,0,1,.12-1.64,3.08,3.08,0,0,1,.68-1.49,1.92,1.92,0,0,1,1.51-.66,2,2,0,0,1,.77.15,2.45,2.45,0,0,1,.66.44A2.9,2.9,0,0,1,89.47,84a8.35,8.35,0,0,1,.15,1.71A8.83,8.83,0,0,1,89.54,87Zm-.85-2.49c0-.36,0-.65-.07-.89a2.12,2.12,0,0,0-.27-.81,1.42,1.42,0,0,0-.45-.46,1,1,0,0,0-.6-.17,1.11,1.11,0,0,0-.62.17,1.28,1.28,0,0,0-.43.46,2,2,0,0,0-.27.84c0,.25,0,.54-.06.89s0,.74,0,1.13,0,.74,0,1.11a6.62,6.62,0,0,0,.06.91,2.7,2.7,0,0,0,.27.88,1.43,1.43,0,0,0,.43.48,1.08,1.08,0,0,0,.62.19,1,1,0,0,0,.63-.2,1.41,1.41,0,0,0,.45-.51,2.84,2.84,0,0,0,.23-.86c0-.23,0-.52.07-.89s0-.75,0-1.15,0-.75,0-1.14Z" transform="translate(-55.54 -8.01)"/>
    <rect x="0.18" y="70.49" width="57.64" height="14.03" fill="none"/>
    <path d="M140.63,89.16h-1.78l-.89,0v-.34h.53a1.62,1.62,0,0,0,.61-.07.44.44,0,0,0,.24-.45V82.66a2.92,2.92,0,0,1-.59.19,4.09,4.09,0,0,1-.61.1h-.24v-.34h.37a3.53,3.53,0,0,0,.55-.1,2.55,2.55,0,0,0,.53-.18l.29-.19a1.79,1.79,0,0,0,.25-.22h.26v6.44a.44.44,0,0,0,.24.45,1.65,1.65,0,0,0,.62.07h.51v.34Z" transform="translate(-55.54 -8.01)"/>
    <path d="M147.18,87a4,4,0,0,1-.34,1.21,2.15,2.15,0,0,1-.77.93,1.91,1.91,0,0,1-1.13.34,1.94,1.94,0,0,1-.76-.15,1.84,1.84,0,0,1-.65-.41,2.73,2.73,0,0,1-.75-1.49,8.18,8.18,0,0,1-.15-1.7,8.72,8.72,0,0,1,.13-1.64,3,3,0,0,1,.68-1.49,2,2,0,0,1,.67-.5,2.06,2.06,0,0,1,.84-.16,2,2,0,0,1,.77.15,2.26,2.26,0,0,1,.65.44A2.75,2.75,0,0,1,147.1,84a8.35,8.35,0,0,1,.15,1.71A9,9,0,0,1,147.18,87Zm-.85-2.49a6.5,6.5,0,0,0-.08-.89,2,2,0,0,0-.26-.81,1.42,1.42,0,0,0-.45-.46,1.09,1.09,0,0,0-.6-.17,1.15,1.15,0,0,0-.63.17,1.26,1.26,0,0,0-.42.46,2,2,0,0,0-.27.84,7,7,0,0,0-.07.89c0,.37,0,.74,0,1.13s0,.74,0,1.11a6.59,6.59,0,0,0,.07.91,2.29,2.29,0,0,0,.27.88,1.4,1.4,0,0,0,.42.48,1.11,1.11,0,0,0,.63.19,1,1,0,0,0,.63-.2,1.41,1.41,0,0,0,.45-.51,2.87,2.87,0,0,0,.22-.86c0-.23.06-.52.08-.89s0-.75,0-1.15,0-.75,0-1.14Z" transform="translate(-55.54 -8.01)"/>
    <rect x="57.82" y="70.49" width="57.7" height="14.03" fill="none"/>
    <path d="M83.91,103.29H79.84V103l2.23-2.49c.16-.2.3-.38.42-.55a5,5,0,0,0,.38-.6,3.5,3.5,0,0,0,.25-.62,2.24,2.24,0,0,0,.1-.65,2.71,2.71,0,0,0-.08-.66,1.67,1.67,0,0,0-.27-.57,1.46,1.46,0,0,0-.5-.43,1.39,1.39,0,0,0-.61-.13,1.53,1.53,0,0,0-.94.3,1.68,1.68,0,0,0-.55.81h.13a.57.57,0,0,1,.42.15A.54.54,0,0,1,81,98a.57.57,0,0,1-.16.41.56.56,0,0,1-.4.17.54.54,0,0,1-.44-.18.65.65,0,0,1-.15-.44,1.92,1.92,0,0,1,.15-.74,2.08,2.08,0,0,1,.4-.61,1.77,1.77,0,0,1,.68-.48,2.16,2.16,0,0,1,.81-.15,2.86,2.86,0,0,1,.89.13,2,2,0,0,1,1.28,1.15,2.15,2.15,0,0,1,.17.85,2.11,2.11,0,0,1-.13.77,2.16,2.16,0,0,1-.41.66,8.47,8.47,0,0,1-.6.6l-.6.57-.62.59-1.17,1.13h2.53a1.12,1.12,0,0,0,.42-.07.81.81,0,0,0,.18-.35c0-.1.05-.25.09-.45l0-.19h.28Z" transform="translate(-55.54 -8.01)"/>
    <path d="M89.54,101a4.19,4.19,0,0,1-.33,1.21,2.22,2.22,0,0,1-.77.93,2,2,0,0,1-1.14.35,2,2,0,0,1-.76-.15,2,2,0,0,1-.64-.41,2.77,2.77,0,0,1-.75-1.49,8.18,8.18,0,0,1-.15-1.7,9.66,9.66,0,0,1,.12-1.64,3.08,3.08,0,0,1,.68-1.49,1.79,1.79,0,0,1,.68-.5,2,2,0,0,1,.83-.16,2,2,0,0,1,.77.15,2.41,2.41,0,0,1,.66.43,2.94,2.94,0,0,1,.73,1.49,8.46,8.46,0,0,1,.15,1.72A8.68,8.68,0,0,1,89.54,101Zm-.85-2.48a8.72,8.72,0,0,0-.07-.89,2.11,2.11,0,0,0-.27-.82,1.52,1.52,0,0,0-.45-.46,1.13,1.13,0,0,0-.6-.17,1.2,1.2,0,0,0-.62.17,1.37,1.37,0,0,0-.43.46,2.07,2.07,0,0,0-.27.85c0,.24,0,.54-.06.89s0,.74,0,1.12,0,.75,0,1.12a6.73,6.73,0,0,0,.06.91,2.78,2.78,0,0,0,.27.88,1.43,1.43,0,0,0,.43.48,1.08,1.08,0,0,0,.62.19,1.05,1.05,0,0,0,.63-.2,1.44,1.44,0,0,0,.45-.52,2.76,2.76,0,0,0,.23-.85c0-.23,0-.53.07-.89s0-.76,0-1.15,0-.75,0-1.15Z" transform="translate(-55.54 -8.01)"/>
    <rect x="0.18" y="84.51" width="57.64" height="14.09" fill="none"/>
    <path d="M144.3,102a2.56,2.56,0,0,1-.52.8,2.43,2.43,0,0,1-.78.5,2.19,2.19,0,0,1-.91.2,1.9,1.9,0,0,1-.79-.17,1.86,1.86,0,0,1-.64-.48,1.76,1.76,0,0,1-.41-.63,2,2,0,0,1-.14-.73.6.6,0,0,1,.14-.41.61.61,0,0,1,.79,0,.52.52,0,0,1,.16.4.55.55,0,0,1-.54.55h-.11l-.09,0a1.47,1.47,0,0,0,.22.48,1.57,1.57,0,0,0,.35.38,2,2,0,0,0,.5.27,1.5,1.5,0,0,0,.55.11,1.19,1.19,0,0,0,.68-.21,1.59,1.59,0,0,0,.49-.51,2.16,2.16,0,0,0,.23-.73c0-.21,0-.47,0-.78a6.29,6.29,0,0,0,0-.7,2.52,2.52,0,0,0-.17-.67,1.53,1.53,0,0,0-.37-.51.92.92,0,0,0-.57-.2,1.72,1.72,0,0,0-.52.08,1.51,1.51,0,0,0-.56.32.81.81,0,0,0-.21.2,1,1,0,0,0-.11.15l-.06.09a.14.14,0,0,1-.09,0,.14.14,0,0,1-.15-.08.51.51,0,0,1,0-.16V96.26a1,1,0,0,1,0-.24s.1,0,.23,0a3.18,3.18,0,0,0,.7.22,3.82,3.82,0,0,0,.75.08l.49,0a4.85,4.85,0,0,0,.55-.11l.37-.16L144,96a.12.12,0,0,1,.08,0,.11.11,0,0,1,0,.09,1.24,1.24,0,0,1-.25.36,2.84,2.84,0,0,1-.29.24v0a2.94,2.94,0,0,1-.75.38,2.63,2.63,0,0,1-.83.14,3.89,3.89,0,0,1-.47,0l-.46-.1v2.14a2,2,0,0,1,.31-.24,1.35,1.35,0,0,1,.33-.18,1.56,1.56,0,0,1,.37-.1,2.34,2.34,0,0,1,.39,0,1.92,1.92,0,0,1,.81.19,1.87,1.87,0,0,1,.67.52,2.46,2.46,0,0,1,.44.79,2.52,2.52,0,0,1,.17.9A2.38,2.38,0,0,1,144.3,102Z" transform="translate(-55.54 -8.01)"/>
    <rect x="57.82" y="84.51" width="57.7" height="14.09" fill="none"/>
    <path d="M83.91,117.32H79.84v-.26l2.23-2.5.42-.54a5,5,0,0,0,.38-.6,3.83,3.83,0,0,0,.25-.62,2.25,2.25,0,0,0,.1-.66,2.69,2.69,0,0,0-.08-.65,1.82,1.82,0,0,0-.27-.58,1.57,1.57,0,0,0-.5-.43,1.55,1.55,0,0,0-.61-.13,1.53,1.53,0,0,0-.94.3,1.71,1.71,0,0,0-.55.82h.13a.57.57,0,0,1,.42.15A.53.53,0,0,1,81,112a.55.55,0,0,1-.16.4.52.52,0,0,1-.4.17.54.54,0,0,1-.44-.18.63.63,0,0,1-.15-.44,2,2,0,0,1,.15-.74,2.22,2.22,0,0,1,.4-.61,2,2,0,0,1,.68-.48,2.16,2.16,0,0,1,.81-.15,2.86,2.86,0,0,1,.89.14,2.29,2.29,0,0,1,.79.45,2.16,2.16,0,0,1,.49.7,2.1,2.1,0,0,1,.17.84,2,2,0,0,1-.13.77,2.09,2.09,0,0,1-.41.67q-.25.27-.6.6l-.6.57-.62.59-1.17,1.13h2.53a1.12,1.12,0,0,0,.42-.07.86.86,0,0,0,.18-.36c0-.09.05-.24.09-.45l0-.18h.28Z" transform="translate(-55.54 -8.01)"/>
    <path d="M89.31,116.05a2.83,2.83,0,0,1-.53.81,2.49,2.49,0,0,1-.77.5,2.22,2.22,0,0,1-.91.19,1.8,1.8,0,0,1-.8-.17,1.93,1.93,0,0,1-.64-.47,2.14,2.14,0,0,1-.41-.63,2.06,2.06,0,0,1-.14-.73.64.64,0,0,1,.14-.42.53.53,0,0,1,.41-.16.56.56,0,0,1,.39.14.54.54,0,0,1,.16.4.52.52,0,0,1-.17.39.55.55,0,0,1-.38.15h-.11l-.08,0a1.39,1.39,0,0,0,.21.47,1.66,1.66,0,0,0,.36.39,2.34,2.34,0,0,0,.49.27,1.5,1.5,0,0,0,.56.1,1.25,1.25,0,0,0,.67-.2,1.44,1.44,0,0,0,.49-.52,1.85,1.85,0,0,0,.23-.72,5.82,5.82,0,0,0,0-.79,6,6,0,0,0,0-.69,2.6,2.6,0,0,0-.17-.68,1.45,1.45,0,0,0-.37-.5.86.86,0,0,0-.56-.2,1.53,1.53,0,0,0-1.09.39,1.39,1.39,0,0,0-.21.21,1,1,0,0,0-.11.15l-.06.08a.12.12,0,0,1-.09,0c-.08,0-.13,0-.15-.07a.51.51,0,0,1,0-.16v-3.29a1,1,0,0,1,0-.25s.11,0,.23,0a3.28,3.28,0,0,0,.71.23,3.67,3.67,0,0,0,.75.07,3.25,3.25,0,0,0,.48,0,5.18,5.18,0,0,0,.56-.1l.36-.17L89,110a.16.16,0,0,1,.09,0,.12.12,0,0,1,0,.1,1.1,1.1,0,0,1-.25.35,2.77,2.77,0,0,1-.29.25v0a2.94,2.94,0,0,1-.75.38,2.56,2.56,0,0,1-.82.13,2.42,2.42,0,0,1-.47,0,3.26,3.26,0,0,1-.47-.09v2.14a3.14,3.14,0,0,1,.32-.25,1,1,0,0,1,.33-.17,1.37,1.37,0,0,1,.36-.11,2.38,2.38,0,0,1,.39,0,1.88,1.88,0,0,1,.81.18,1.93,1.93,0,0,1,.68.53,2.55,2.55,0,0,1,.44.79,2.75,2.75,0,0,1,.16.9A2.5,2.5,0,0,1,89.31,116.05Z" transform="translate(-55.54 -8.01)"/>
    <rect x="0.18" y="98.6" width="57.64" height="14.03" fill="none"/>
    <path d="M143.64,115.51v.95c0,.23.06.37.18.44a1.13,1.13,0,0,0,.51.07h.38v.35l-.75,0h-1.49l-.74,0V117h.34a1.49,1.49,0,0,0,.54-.06q.18-.09.18-.45v-.95h-2.91v-.35l3.36-5.14.09-.11a.41.41,0,0,1,.14,0,.16.16,0,0,1,.15.07.54.54,0,0,1,0,.17v5h1.1v.35Zm-.78-4.44-2.67,4.09h2.67Z" transform="translate(-55.54 -8.01)"/>
    <rect x="57.82" y="98.6" width="57.7" height="14.03" fill="none"/>
    <path d="M84,130.14a2.59,2.59,0,0,1-.53.8,2.52,2.52,0,0,1-.77.51,2.39,2.39,0,0,1-.91.19,1.86,1.86,0,0,1-.79-.17,1.9,1.9,0,0,1-.65-.48,1.74,1.74,0,0,1-.4-.63,1.79,1.79,0,0,1-.14-.73.55.55,0,0,1,.14-.41.51.51,0,0,1,.4-.16.52.52,0,0,1,.39.14.5.5,0,0,1,.16.39.54.54,0,0,1-.17.4.54.54,0,0,1-.38.15h-.1l-.09,0a1.75,1.75,0,0,0,.21.47,1.85,1.85,0,0,0,.36.38,1.83,1.83,0,0,0,.49.27,1.55,1.55,0,0,0,.56.11,1.16,1.16,0,0,0,.67-.21,1.53,1.53,0,0,0,.5-.51,2.17,2.17,0,0,0,.22-.73,5.56,5.56,0,0,0,0-.78,5.88,5.88,0,0,0,0-.7,2.19,2.19,0,0,0-.17-.67,1.27,1.27,0,0,0-.36-.5.87.87,0,0,0-.57-.21,1.78,1.78,0,0,0-.53.08,1.47,1.47,0,0,0-.55.32,1.07,1.07,0,0,0-.22.2,1,1,0,0,0-.1.15l-.07.09a.12.12,0,0,1-.09,0,.16.16,0,0,1-.15-.08.47.47,0,0,1,0-.16v-3.28a.58.58,0,0,1,0-.25s.1,0,.22,0a3.26,3.26,0,0,0,.71.22,3.67,3.67,0,0,0,.75.08l.48,0a5.46,5.46,0,0,0,.56-.11l.36-.16.18-.06a.16.16,0,0,1,.09,0,.1.1,0,0,1,0,.09,1.07,1.07,0,0,1-.25.36,2.59,2.59,0,0,1-.28.24v0a2.82,2.82,0,0,1-.76.37,2.57,2.57,0,0,1-.82.14,2.42,2.42,0,0,1-.47,0,2.85,2.85,0,0,1-.46-.1v2.14a1.62,1.62,0,0,1,.31-.24,1,1,0,0,1,.33-.17,1.5,1.5,0,0,1,.36-.11,2.47,2.47,0,0,1,.39,0,1.85,1.85,0,0,1,.81.18,1.9,1.9,0,0,1,.68.52,2.6,2.6,0,0,1,.44.8,2.44,2.44,0,0,1,.16.9A2.36,2.36,0,0,1,84,130.14Z" transform="translate(-55.54 -8.01)"/>
    <path d="M89.54,129.15a4.19,4.19,0,0,1-.33,1.21,2.32,2.32,0,0,1-.77.94,2,2,0,0,1-1.14.34,2,2,0,0,1-.76-.15,1.8,1.8,0,0,1-.64-.41,2.73,2.73,0,0,1-.75-1.49,8.18,8.18,0,0,1-.15-1.7,9.66,9.66,0,0,1,.12-1.64,3.08,3.08,0,0,1,.68-1.49,1.79,1.79,0,0,1,.68-.5,2,2,0,0,1,.83-.16,2,2,0,0,1,.77.15,2.24,2.24,0,0,1,.66.44,2.86,2.86,0,0,1,.73,1.49,8.35,8.35,0,0,1,.15,1.71A8.58,8.58,0,0,1,89.54,129.15Zm-.85-2.48a8.72,8.72,0,0,0-.07-.89,2.11,2.11,0,0,0-.27-.82,1.52,1.52,0,0,0-.45-.46,1.13,1.13,0,0,0-.6-.17,1.2,1.2,0,0,0-.62.17,1.37,1.37,0,0,0-.43.46,2.07,2.07,0,0,0-.27.85c0,.24,0,.54-.06.89s0,.74,0,1.12,0,.75,0,1.12a6.73,6.73,0,0,0,.06.91,2.78,2.78,0,0,0,.27.88,1.43,1.43,0,0,0,.43.48,1.08,1.08,0,0,0,.62.19,1.05,1.05,0,0,0,.63-.2,1.36,1.36,0,0,0,.45-.52,2.76,2.76,0,0,0,.23-.85c0-.23,0-.53.07-.89s0-.75,0-1.15,0-.75,0-1.14Z" transform="translate(-55.54 -8.01)"/>
    <rect x="0.18" y="112.63" width="57.64" height="14.09" fill="none"/>
    <path d="M144.18,131.4h-4.07v-.25l2.23-2.5c.16-.2.31-.38.43-.55a4.87,4.87,0,0,0,.37-.6,3.5,3.5,0,0,0,.25-.62,2.22,2.22,0,0,0,.11-.65,2.34,2.34,0,0,0-.09-.66,1.37,1.37,0,0,0-.27-.57,1.46,1.46,0,0,0-.5-.43,1.36,1.36,0,0,0-.61-.13,1.48,1.48,0,0,0-.93.3,1.63,1.63,0,0,0-.56.81h.14a.6.6,0,0,1,.42.15.58.58,0,0,1,.17.43.62.62,0,0,1-.16.41.58.58,0,0,1-.41.17.56.56,0,0,1-.44-.18.65.65,0,0,1-.15-.44,1.92,1.92,0,0,1,.15-.74,2.11,2.11,0,0,1,.41-.61,1.73,1.73,0,0,1,.67-.48,2.21,2.21,0,0,1,.82-.15,2.63,2.63,0,0,1,.89.14,2.34,2.34,0,0,1,.78.45,2.07,2.07,0,0,1,.49.69,2,2,0,0,1,.18.85,2.34,2.34,0,0,1-.13.77,2.64,2.64,0,0,1-.41.66,8.47,8.47,0,0,1-.6.6c-.12.13-.32.31-.6.57l-.62.59L141,130.56h2.53a1,1,0,0,0,.42-.08.75.75,0,0,0,.18-.35c0-.1.05-.25.08-.45l0-.19h.28Z" transform="translate(-55.54 -8.01)"/>
    <rect x="57.82" y="112.63" width="57.7" height="14.09" fill="none"/>
    <path d="M80.36,145.39H78.58c-.33,0-.63,0-.89,0v-.34h.53a1.59,1.59,0,0,0,.61-.08.45.45,0,0,0,.23-.45v-5.68a2.91,2.91,0,0,1-.59.2,5.24,5.24,0,0,1-.61.09h-.23v-.34H78a3.66,3.66,0,0,0,.56-.1,2.47,2.47,0,0,0,.52-.18l.29-.18a1.94,1.94,0,0,0,.26-.23h.26v6.44c0,.24.08.39.23.45a1.62,1.62,0,0,0,.62.08h.52v.34C81,145.41,80.69,145.39,80.36,145.39Z" transform="translate(-55.54 -8.01)"/>
    <path d="M86.9,143.18a4.19,4.19,0,0,1-.33,1.21,2.22,2.22,0,0,1-.77.93,1.94,1.94,0,0,1-1.14.34,2,2,0,0,1-.76-.15,1.78,1.78,0,0,1-.64-.4,2.77,2.77,0,0,1-.75-1.49,8.28,8.28,0,0,1-.15-1.71,8.53,8.53,0,0,1,.13-1.63,3,3,0,0,1,.67-1.49,1.93,1.93,0,0,1,.68-.51,2.23,2.23,0,0,1,.83-.16,2,2,0,0,1,.77.15,2.45,2.45,0,0,1,.66.44,2.94,2.94,0,0,1,.73,1.49,8.35,8.35,0,0,1,.15,1.71A8.83,8.83,0,0,1,86.9,143.18Zm-.84-2.49a8.87,8.87,0,0,0-.08-.89,2.12,2.12,0,0,0-.27-.81,1.52,1.52,0,0,0-.45-.46,1.13,1.13,0,0,0-.6-.17,1.2,1.2,0,0,0-.62.17,1.28,1.28,0,0,0-.43.46,2,2,0,0,0-.27.85c0,.24,0,.54-.06.89s0,.73,0,1.12,0,.74,0,1.11a6.62,6.62,0,0,0,.06.91,2.62,2.62,0,0,0,.27.88,1.71,1.71,0,0,0,.43.49,1.16,1.16,0,0,0,.62.19,1,1,0,0,0,.63-.21,1.41,1.41,0,0,0,.45-.51,2.75,2.75,0,0,0,.23-.86c0-.23,0-.52.07-.89s0-.75,0-1.14,0-.76,0-1.15Z" transform="translate(-55.54 -8.01)"/>
    <path d="M92.12,143.18a4.19,4.19,0,0,1-.33,1.21,2.3,2.3,0,0,1-.77.93,1.94,1.94,0,0,1-1.14.34,2,2,0,0,1-.76-.15,1.78,1.78,0,0,1-.64-.4,2.77,2.77,0,0,1-.75-1.49,7.64,7.64,0,0,1-.15-1.71,9.53,9.53,0,0,1,.12-1.63,3,3,0,0,1,.68-1.49,1.9,1.9,0,0,1,.67-.51,2.24,2.24,0,0,1,.84-.16,2,2,0,0,1,.77.15,2.45,2.45,0,0,1,.66.44A2.86,2.86,0,0,1,92,140.2a8.35,8.35,0,0,1,.15,1.71A9,9,0,0,1,92.12,143.18Zm-.85-2.49c0-.35,0-.65-.07-.89a2.12,2.12,0,0,0-.27-.81,1.52,1.52,0,0,0-.45-.46,1.18,1.18,0,0,0-1.22,0,1.2,1.2,0,0,0-.43.46,2,2,0,0,0-.27.85,7.05,7.05,0,0,0-.06.89c0,.36,0,.73,0,1.12s0,.74,0,1.11a6.62,6.62,0,0,0,.06.91,2.62,2.62,0,0,0,.27.88,1.57,1.57,0,0,0,.43.49,1.16,1.16,0,0,0,.62.19,1,1,0,0,0,.63-.21,1.41,1.41,0,0,0,.45-.51,2.75,2.75,0,0,0,.23-.86c0-.23,0-.52.07-.89s0-.75,0-1.14,0-.76,0-1.15Z" transform="translate(-55.54 -8.01)"/>
    <rect x="0.18" y="126.71" width="57.64" height="14.03" fill="none"/>
    <path d="M143.27,145.39h-1.78c-.32,0-.62,0-.89,0v-.34h.53a1.56,1.56,0,0,0,.61-.08.44.44,0,0,0,.24-.45v-5.68a3.14,3.14,0,0,1-.59.2,6,6,0,0,1-.61.09h-.24v-.34h.36a3.45,3.45,0,0,0,.56-.1,2.55,2.55,0,0,0,.53-.18l.29-.18a1.84,1.84,0,0,0,.25-.23h.26v6.44q0,.36.24.45a1.58,1.58,0,0,0,.62.08h.51v.34C143.9,145.41,143.6,145.39,143.27,145.39Z" transform="translate(-55.54 -8.01)"/>
    <rect x="57.82" y="126.71" width="57.7" height="14.03" fill="none"/>
    <path d="M84.59,156.1a.63.63,0,0,1-.25,0H78a.66.66,0,0,1-.26,0,.18.18,0,0,1-.11-.18.19.19,0,0,1,.12-.2.87.87,0,0,1,.26,0h6.33a.79.79,0,0,1,.25,0,.2.2,0,0,1,.13.2A.17.17,0,0,1,84.59,156.1Z" transform="translate(-55.54 -8.01)"/>
    <path d="M90.5,159.47H88.72l-.89,0v-.34h.52a1.62,1.62,0,0,0,.61-.07.45.45,0,0,0,.24-.45V153a2.92,2.92,0,0,1-.59.19,5.55,5.55,0,0,1-.61.1h-.24v-.34h.16l.21,0a2.63,2.63,0,0,0,.55-.09,4.72,4.72,0,0,0,.53-.18,2.9,2.9,0,0,0,.29-.19,2.75,2.75,0,0,0,.26-.22H90v6.44a.44.44,0,0,0,.24.45,1.68,1.68,0,0,0,.62.07h.51v.34Z" transform="translate(-55.54 -8.01)"/>
    <rect x="0.18" y="140.74" width="57.64" height="14.09" fill="none"/>
    <path d="M137,156.1a.67.67,0,0,1-.25,0H130.4a.63.63,0,0,1-.25,0,.18.18,0,0,1-.11-.18.19.19,0,0,1,.12-.2.83.83,0,0,1,.26,0h6.33a.83.83,0,0,1,.25,0,.19.19,0,0,1,.12.2A.18.18,0,0,1,137,156.1Z" transform="translate(-55.54 -8.01)"/>
    <path d="M142.91,159.47h-1.78l-.89,0v-.34h.53a1.62,1.62,0,0,0,.61-.07.45.45,0,0,0,.24-.45V153a2.92,2.92,0,0,1-.59.19,6,6,0,0,1-.61.1h-.24v-.34h.16l.2,0a2.62,2.62,0,0,0,.56-.09,4.72,4.72,0,0,0,.53-.18l.29-.19.25-.22h.26v6.44a.44.44,0,0,0,.24.45,1.65,1.65,0,0,0,.62.07h.51v.34Z" transform="translate(-55.54 -8.01)"/>
    <path d="M149.46,157.26a3.9,3.9,0,0,1-.34,1.21,2.18,2.18,0,0,1-.77.94,2,2,0,0,1-1.89.19,1.84,1.84,0,0,1-.65-.41,2.73,2.73,0,0,1-.75-1.49,8.18,8.18,0,0,1-.15-1.7,8.72,8.72,0,0,1,.13-1.64,3.08,3.08,0,0,1,.67-1.49,2,2,0,0,1,.68-.5,2.06,2.06,0,0,1,.84-.16,2,2,0,0,1,.77.15,2.2,2.2,0,0,1,.65.44,2.75,2.75,0,0,1,.73,1.49,8.35,8.35,0,0,1,.15,1.71A8.77,8.77,0,0,1,149.46,157.26Zm-.85-2.48a8.6,8.6,0,0,0-.08-.89,1.92,1.92,0,0,0-.26-.81,1.42,1.42,0,0,0-.45-.46,1.11,1.11,0,0,0-.6-.18,1.16,1.16,0,0,0-.63.18,1.26,1.26,0,0,0-.42.46,2,2,0,0,0-.27.84,6.85,6.85,0,0,0-.07.89c0,.37,0,.74,0,1.13s0,.74,0,1.11a5.41,5.41,0,0,0,.07.91,2.34,2.34,0,0,0,.27.88,1.4,1.4,0,0,0,.42.48,1.11,1.11,0,0,0,.63.19,1,1,0,0,0,.63-.2,1.41,1.41,0,0,0,.45-.51,2.87,2.87,0,0,0,.22-.86c0-.23.06-.53.08-.89s0-.75,0-1.15,0-.75,0-1.14Z" transform="translate(-55.54 -8.01)"/>
    <path d="M154.67,157.26a3.64,3.64,0,0,1-.33,1.21,2.18,2.18,0,0,1-.77.94,1.94,1.94,0,0,1-1.14.34,2,2,0,0,1-.76-.15,1.8,1.8,0,0,1-.64-.41,2.73,2.73,0,0,1-.75-1.49,8.18,8.18,0,0,1-.15-1.7,8.72,8.72,0,0,1,.13-1.64,3.08,3.08,0,0,1,.67-1.49,1.9,1.9,0,0,1,.68-.5,2.17,2.17,0,0,1,1.61,0,2.33,2.33,0,0,1,.65.44,2.82,2.82,0,0,1,.73,1.49,8.35,8.35,0,0,1,.15,1.71A8.58,8.58,0,0,1,154.67,157.26Zm-.84-2.48a8.6,8.6,0,0,0-.08-.89,1.91,1.91,0,0,0-.27-.81,1.24,1.24,0,0,0-.45-.46,1.06,1.06,0,0,0-.6-.18,1.15,1.15,0,0,0-.62.18,1.28,1.28,0,0,0-.43.46,2,2,0,0,0-.26.84,6.85,6.85,0,0,0-.07.89c0,.37,0,.74,0,1.13s0,.74,0,1.11a5.41,5.41,0,0,0,.07.91,2.55,2.55,0,0,0,.26.88,1.54,1.54,0,0,0,.43.48,1.08,1.08,0,0,0,.62.19,1,1,0,0,0,.64-.2,1.62,1.62,0,0,0,.45-.51,2.87,2.87,0,0,0,.22-.86c0-.23,0-.53.08-.89s0-.75,0-1.15,0-.75,0-1.14Z" transform="translate(-55.54 -8.01)"/>
    <rect x="57.82" y="140.74" width="57.7" height="14.09" fill="none"/>
    <path d="M84.59,170.13a.69.69,0,0,1-.25,0H78a.72.72,0,0,1-.26,0,.18.18,0,0,1-.11-.18.21.21,0,0,1,.12-.21l.26,0h6.33l.25,0a.22.22,0,0,1,.13.21A.17.17,0,0,1,84.59,170.13Z" transform="translate(-55.54 -8.01)"/>
    <path d="M91.41,173.54H87.33v-.26l2.23-2.49c.17-.2.31-.38.43-.55a6.64,6.64,0,0,0,.38-.6,3.43,3.43,0,0,0,.24-.62,2.19,2.19,0,0,0,0-1.31,1.61,1.61,0,0,0-.26-.58,1.57,1.57,0,0,0-.51-.42,1.36,1.36,0,0,0-.61-.13,1.48,1.48,0,0,0-.93.3,1.69,1.69,0,0,0-.56.81h.14a.6.6,0,0,1,.42.15.58.58,0,0,1,.17.43.57.57,0,0,1-.16.41.57.57,0,0,1-.41.17.57.57,0,0,1-.44-.18.67.67,0,0,1-.15-.44,1.92,1.92,0,0,1,.15-.74,2,2,0,0,1,.41-.61,1.82,1.82,0,0,1,.68-.49,2.16,2.16,0,0,1,.81-.15,2.91,2.91,0,0,1,.89.14,2.34,2.34,0,0,1,.78.45,2.06,2.06,0,0,1,.67,1.55,2.34,2.34,0,0,1-.13.77,2.38,2.38,0,0,1-.41.66,8.47,8.47,0,0,1-.6.6L90,171l-.62.59-1.17,1.13h2.53a1.12,1.12,0,0,0,.42-.07.8.8,0,0,0,.18-.36q0-.13.09-.45l0-.18h.28Z" transform="translate(-55.54 -8.01)"/>
    <rect x="0.18" y="154.82" width="57.64" height="14.02" fill="none"/>
    <path d="M139.65,170.13a.73.73,0,0,1-.25,0H133a.65.65,0,0,1-.25,0,.17.17,0,0,1-.11-.18.21.21,0,0,1,.12-.21l.25,0h6.34l.24,0a.21.21,0,0,1,.13.21A.18.18,0,0,1,139.65,170.13Z" transform="translate(-55.54 -8.01)"/>
    <path d="M146.58,172.28a2.75,2.75,0,0,1-.52.8,2.54,2.54,0,0,1-.78.5,2.19,2.19,0,0,1-.91.2,1.76,1.76,0,0,1-.79-.18,1.72,1.72,0,0,1-.64-.47,1.76,1.76,0,0,1-.41-.63,2,2,0,0,1-.14-.73.64.64,0,0,1,.14-.42.57.57,0,0,1,.41-.16.56.56,0,0,1,.38.14.52.52,0,0,1,.16.4.55.55,0,0,1-.54.55h-.11l-.09,0a1.34,1.34,0,0,0,.22.47,1.44,1.44,0,0,0,.35.39,2.62,2.62,0,0,0,.49.27,1.55,1.55,0,0,0,.56.11,1.19,1.19,0,0,0,.68-.21,1.59,1.59,0,0,0,.49-.51,2.16,2.16,0,0,0,.23-.73c0-.21,0-.47,0-.78a6.29,6.29,0,0,0,0-.7,2.12,2.12,0,0,0-.18-.67,1.38,1.38,0,0,0-.36-.51.92.92,0,0,0-.57-.2,1.48,1.48,0,0,0-1.08.4.81.81,0,0,0-.21.2.58.58,0,0,0-.11.15.3.3,0,0,1-.07.08.09.09,0,0,1-.08,0A.14.14,0,0,1,143,170a.32.32,0,0,1,0-.16v-3.29a.6.6,0,0,1,0-.24s.1,0,.22,0a3.44,3.44,0,0,0,.71.22,3.67,3.67,0,0,0,.75.08l.48,0,.56-.11.37-.16.18-.07a.1.1,0,0,1,.08,0,.1.1,0,0,1,0,.09,1,1,0,0,1-.24.36,2.84,2.84,0,0,1-.29.24v0a2.94,2.94,0,0,1-.75.38,2.63,2.63,0,0,1-.83.14,3.89,3.89,0,0,1-.47,0l-.46-.1v2.14a3.09,3.09,0,0,1,.31-.25,1.73,1.73,0,0,1,.33-.17,1.56,1.56,0,0,1,.37-.1,1.58,1.58,0,0,1,.38,0,1.8,1.8,0,0,1,.82.19,1.87,1.87,0,0,1,.67.52,2.46,2.46,0,0,1,.44.79,2.51,2.51,0,0,1,.16.9A2.37,2.37,0,0,1,146.58,172.28Z" transform="translate(-55.54 -8.01)"/>
    <path d="M152,171.29a3.64,3.64,0,0,1-.33,1.21,2.15,2.15,0,0,1-.77.93,2,2,0,0,1-1.14.35,2,2,0,0,1-.76-.15,2.06,2.06,0,0,1-.64-.41,2.77,2.77,0,0,1-.75-1.49,8.18,8.18,0,0,1-.15-1.7,8.57,8.57,0,0,1,.13-1.64,3,3,0,0,1,.67-1.49,1.79,1.79,0,0,1,.68-.5,2.11,2.11,0,0,1,1.61,0,2.41,2.41,0,0,1,.65.44,2.86,2.86,0,0,1,.73,1.49,8.46,8.46,0,0,1,.15,1.72A8.78,8.78,0,0,1,152,171.29Zm-.84-2.48a8.34,8.34,0,0,0-.08-.89,1.83,1.83,0,0,0-.27-.82,1.32,1.32,0,0,0-.45-.46,1.13,1.13,0,0,0-.6-.17,1.23,1.23,0,0,0-.62.17,1.48,1.48,0,0,0-.43.46,2.19,2.19,0,0,0-.26.85,6.85,6.85,0,0,0-.07.89c0,.36,0,.74,0,1.12s0,.74,0,1.12a5.49,5.49,0,0,0,.07.91,2.55,2.55,0,0,0,.26.88,1.54,1.54,0,0,0,.43.48,1.12,1.12,0,0,0,1.26,0,1.65,1.65,0,0,0,.45-.52,2.79,2.79,0,0,0,.22-.86c0-.22.06-.52.08-.88s0-.76,0-1.15,0-.75,0-1.15Z" transform="translate(-55.54 -8.01)"/>
    <rect x="57.82" y="154.82" width="57.7" height="14.02" fill="none"/>
    <path d="M84.59,184.21a.49.49,0,0,1-.25,0H78a.51.51,0,0,1-.26,0c-.07,0-.11-.08-.11-.18a.2.2,0,0,1,.12-.2l.26,0h6.33l.25,0a.21.21,0,0,1,.13.2A.16.16,0,0,1,84.59,184.21Z" transform="translate(-55.54 -8.01)"/>
    <path d="M90.86,185.82v1c0,.23.06.37.18.44a1.16,1.16,0,0,0,.52.07h.37v.34l-.75,0H89.69l-.74,0v-.34h.34a1.49,1.49,0,0,0,.54-.06.48.48,0,0,0,.18-.45v-1H87.1v-.35l3.36-5.14a.65.65,0,0,1,.09-.11l.14,0c.08,0,.13,0,.15.07a.49.49,0,0,1,0,.17v5H92v.35Zm-.78-4.44-2.67,4.09h2.67Z" transform="translate(-55.54 -8.01)"/>
    <rect x="0.18" y="168.85" width="57.64" height="14.09" fill="none"/>
    <path d="M139.65,184.21a.51.51,0,0,1-.25,0H133a.47.47,0,0,1-.25,0c-.08,0-.11-.08-.11-.18a.2.2,0,0,1,.12-.2l.25,0h6.34l.24,0a.2.2,0,0,1,.13.2C139.76,184.13,139.72,184.19,139.65,184.21Z" transform="translate(-55.54 -8.01)"/>
    <path d="M146.46,187.62h-4.07v-.25l2.23-2.5.43-.54a4.87,4.87,0,0,0,.37-.6,3.92,3.92,0,0,0,.25-.63,2.16,2.16,0,0,0,.11-.65,2.27,2.27,0,0,0-.09-.65,1.72,1.72,0,0,0-.27-.58,1.46,1.46,0,0,0-.5-.43,1.39,1.39,0,0,0-.61-.13,1.48,1.48,0,0,0-.93.3,1.61,1.61,0,0,0-.56.82H143a.6.6,0,0,1,.42.15.56.56,0,0,1,.17.42.6.6,0,0,1-.16.41.54.54,0,0,1-.41.17.56.56,0,0,1-.44-.18.63.63,0,0,1-.15-.44,2,2,0,0,1,.15-.74A2.11,2.11,0,0,1,143,181a2,2,0,0,1,.67-.48,2.18,2.18,0,0,1,.82-.15,2.91,2.91,0,0,1,.89.14,2.34,2.34,0,0,1,.78.45,2,2,0,0,1,.49.7,1.91,1.91,0,0,1,.17.84,2.3,2.3,0,0,1-.12.77,2.69,2.69,0,0,1-.41.67q-.26.27-.6.6c-.12.12-.32.31-.6.56l-.62.59-1.17,1.14h2.53a1.1,1.1,0,0,0,.42-.08.75.75,0,0,0,.18-.35c0-.09.05-.24.08-.45l0-.18h.27Z" transform="translate(-55.54 -8.01)"/>
    <path d="M151.8,186.36a2.59,2.59,0,0,1-.53.8,2.35,2.35,0,0,1-.77.51,2.18,2.18,0,0,1-.91.19,2,2,0,0,1-1.44-.64,2.1,2.1,0,0,1-.4-.63,1.86,1.86,0,0,1-.14-.73.59.59,0,0,1,.14-.42.51.51,0,0,1,.4-.16.56.56,0,0,1,.39.14.51.51,0,0,1,.16.4.55.55,0,0,1-.55.54h-.1l-.09,0a1.43,1.43,0,0,0,.22.47,1.82,1.82,0,0,0,.35.39,2.11,2.11,0,0,0,.49.26,1.36,1.36,0,0,0,.56.11,1.22,1.22,0,0,0,.67-.2,1.47,1.47,0,0,0,.5-.52,1.91,1.91,0,0,0,.22-.72,5.61,5.61,0,0,0,.05-.79,4.1,4.1,0,0,0,0-.69,1.94,1.94,0,0,0-.17-.68,1.34,1.34,0,0,0-.36-.5.87.87,0,0,0-.57-.21,1.78,1.78,0,0,0-.53.08,1.55,1.55,0,0,0-.55.32,1.46,1.46,0,0,0-.22.2l-.1.15a.25.25,0,0,1-.07.09.11.11,0,0,1-.08,0c-.08,0-.13,0-.15-.07a.3.3,0,0,1,0-.16l0,0V180.6a.66.66,0,0,1,0-.25s.1,0,.22,0a3.28,3.28,0,0,0,.71.23,3.67,3.67,0,0,0,.75.07,3.25,3.25,0,0,0,.48,0,5,5,0,0,0,.56-.11l.36-.16.19-.06.08,0a.12.12,0,0,1,0,.1.91.91,0,0,1-.24.35,2.77,2.77,0,0,1-.29.25v0a2.91,2.91,0,0,1-.75.37,2.41,2.41,0,0,1-.83.14,2.49,2.49,0,0,1-.47,0,2.07,2.07,0,0,1-.46-.1v2.15a2.12,2.12,0,0,1,.31-.25,1,1,0,0,1,.33-.17,1.58,1.58,0,0,1,.37-.11,2.34,2.34,0,0,1,.38,0,1.92,1.92,0,0,1,.82.18,2,2,0,0,1,.67.53,2.55,2.55,0,0,1,.44.79,2.44,2.44,0,0,1,.16.9A2.32,2.32,0,0,1,151.8,186.36Z" transform="translate(-55.54 -8.01)"/>
    <rect x="57.82" y="168.85" width="57.7" height="14.09" fill="none"/>
    <path d="M84.59,198.24a.69.69,0,0,1-.25,0H78a.72.72,0,0,1-.26,0,.18.18,0,0,1-.11-.18.19.19,0,0,1,.12-.2.79.79,0,0,1,.26,0h6.33a.73.73,0,0,1,.25,0,.2.2,0,0,1,.13.2A.17.17,0,0,1,84.59,198.24Z" transform="translate(-55.54 -8.01)"/>
    <path d="M91.52,200.39a2.56,2.56,0,0,1-.52.8,2.33,2.33,0,0,1-.77.5,2.26,2.26,0,0,1-.91.2,1.88,1.88,0,0,1-1.44-.65,1.91,1.91,0,0,1-.41-.63,2,2,0,0,1-.14-.73.6.6,0,0,1,.14-.41.53.53,0,0,1,.41-.16.5.5,0,0,1,.55.53.56.56,0,0,1-.55.55h-.11l-.08,0a1.29,1.29,0,0,0,.21.47,1.57,1.57,0,0,0,.35.38,2.22,2.22,0,0,0,.5.27,1.51,1.51,0,0,0,.56.11,1.18,1.18,0,0,0,.67-.21,1.5,1.5,0,0,0,.49-.51,2,2,0,0,0,.23-.73,5.75,5.75,0,0,0,0-.78,6.29,6.29,0,0,0,0-.7,2.52,2.52,0,0,0-.17-.67,1.53,1.53,0,0,0-.37-.51.91.91,0,0,0-.56-.2,1.74,1.74,0,0,0-.53.08,1.51,1.51,0,0,0-.56.32,1.34,1.34,0,0,0-.21.2,1,1,0,0,0-.11.15l-.06.09a.12.12,0,0,1-.09,0,.14.14,0,0,1-.15-.08.51.51,0,0,1,0-.16v-3.29a1,1,0,0,1,0-.24s.11,0,.23,0a3.18,3.18,0,0,0,.7.22,3.82,3.82,0,0,0,.75.08l.49,0a4.85,4.85,0,0,0,.55-.11l.37-.16.18-.07a.18.18,0,0,1,.09,0,.1.1,0,0,1,0,.09,1.24,1.24,0,0,1-.25.36,2.84,2.84,0,0,1-.29.24v0a2.65,2.65,0,0,1-.75.38,2.62,2.62,0,0,1-.82.14,3.88,3.88,0,0,1-.48,0l-.46-.1v2.14a2,2,0,0,1,.31-.24,1.24,1.24,0,0,1,.34-.18,1.36,1.36,0,0,1,.36-.1,2.34,2.34,0,0,1,.39,0,1.92,1.92,0,0,1,.81.19,2,2,0,0,1,.68.52,2.67,2.67,0,0,1,.44.79,2.75,2.75,0,0,1,.16.9A2.38,2.38,0,0,1,91.52,200.39Z" transform="translate(-55.54 -8.01)"/>
    <rect x="0.18" y="182.93" width="57.64" height="14.03" fill="none"/>
    <path d="M139.65,198.24a.73.73,0,0,1-.25,0H133a.65.65,0,0,1-.25,0,.17.17,0,0,1-.11-.18.19.19,0,0,1,.12-.2.73.73,0,0,1,.25,0h6.34a.7.7,0,0,1,.24,0,.19.19,0,0,1,.13.2A.18.18,0,0,1,139.65,198.24Z" transform="translate(-55.54 -8.01)"/>
    <path d="M146.46,201.65h-4.07v-.26l2.23-2.49c.16-.2.31-.38.43-.55a4.87,4.87,0,0,0,.37-.6,3.5,3.5,0,0,0,.25-.62,2.19,2.19,0,0,0,0-1.31,1.82,1.82,0,0,0-.27-.58,1.54,1.54,0,0,0-.5-.42,1.39,1.39,0,0,0-.61-.13,1.48,1.48,0,0,0-.93.3,1.63,1.63,0,0,0-.56.81H143a.6.6,0,0,1,.42.15.58.58,0,0,1,.17.43.62.62,0,0,1-.16.41.58.58,0,0,1-.41.17.56.56,0,0,1-.44-.18.65.65,0,0,1-.15-.44,1.92,1.92,0,0,1,.15-.74A2.11,2.11,0,0,1,143,195a1.73,1.73,0,0,1,.67-.48,2.18,2.18,0,0,1,.82-.15,2.63,2.63,0,0,1,.89.14,2.32,2.32,0,0,1,.78.44,2.11,2.11,0,0,1,.49.7,2,2,0,0,1,.17.85,2.35,2.35,0,0,1-.12.77,2.64,2.64,0,0,1-.41.66,8.47,8.47,0,0,1-.6.6l-.6.57-.62.59-1.17,1.13h2.53a1.17,1.17,0,0,0,.42-.07.75.75,0,0,0,.18-.35c0-.1.05-.25.08-.45l0-.19h.27Z" transform="translate(-55.54 -8.01)"/>
    <path d="M152,199.4a3.64,3.64,0,0,1-.33,1.21,2.15,2.15,0,0,1-.77.93,2,2,0,0,1-1.14.35,2,2,0,0,1-.76-.15,2.06,2.06,0,0,1-.64-.41,2.77,2.77,0,0,1-.75-1.49,8.18,8.18,0,0,1-.15-1.7,8.65,8.65,0,0,1,.13-1.64,3.08,3.08,0,0,1,.67-1.49,1.79,1.79,0,0,1,.68-.5,2.17,2.17,0,0,1,1.61,0,2.37,2.37,0,0,1,.65.43,2.86,2.86,0,0,1,.73,1.49,8.53,8.53,0,0,1,.15,1.72A8.68,8.68,0,0,1,152,199.4Zm-.84-2.48a8.34,8.34,0,0,0-.08-.89,1.83,1.83,0,0,0-.27-.82,1.32,1.32,0,0,0-.45-.46,1.13,1.13,0,0,0-.6-.17,1.23,1.23,0,0,0-.62.17,1.48,1.48,0,0,0-.43.46,2.25,2.25,0,0,0-.26.85,6.85,6.85,0,0,0-.07.89c0,.36,0,.74,0,1.12s0,.75,0,1.12a5.41,5.41,0,0,0,.07.91,2.55,2.55,0,0,0,.26.88,1.54,1.54,0,0,0,.43.48,1.12,1.12,0,0,0,1.26,0,1.45,1.45,0,0,0,.45-.52,2.79,2.79,0,0,0,.22-.85c0-.23.06-.53.08-.89s0-.76,0-1.15,0-.75,0-1.14Z" transform="translate(-55.54 -8.01)"/>
    <rect x="57.82" y="182.93" width="57.7" height="14.03" fill="none"/>
    <path d="M82,212.33a.69.69,0,0,1-.25,0H75.35a.72.72,0,0,1-.26,0,.18.18,0,0,1-.11-.19.2.2,0,0,1,.12-.2l.26,0h6.33l.25,0a.21.21,0,0,1,.13.2A.18.18,0,0,1,82,212.33Z" transform="translate(-55.54 -8.01)"/>
    <path d="M87.92,215.69H86.14c-.33,0-.63,0-.89.05v-.35h.52a1.62,1.62,0,0,0,.61-.07.44.44,0,0,0,.24-.45v-5.68a2.92,2.92,0,0,1-.59.19,3.88,3.88,0,0,1-.61.1h-.24v-.34h.37a3.53,3.53,0,0,0,.55-.1,2.55,2.55,0,0,0,.53-.18l.29-.18.26-.23h.25v6.44a.44.44,0,0,0,.24.45,1.68,1.68,0,0,0,.62.07h.52v.35C88.54,215.71,88.25,215.7,87.92,215.69Z" transform="translate(-55.54 -8.01)"/>
    <path d="M94.4,213.49a4.29,4.29,0,0,1-.33,1.21,2.24,2.24,0,0,1-.78.93,1.89,1.89,0,0,1-1.13.34,1.94,1.94,0,0,1-.76-.15,1.84,1.84,0,0,1-.65-.41,2.88,2.88,0,0,1-.75-1.48,8.35,8.35,0,0,1-.15-1.71,9.65,9.65,0,0,1,.13-1.64,3,3,0,0,1,.68-1.48,1.9,1.9,0,0,1,.67-.51,2.06,2.06,0,0,1,.84-.16,2,2,0,0,1,.77.15,2.45,2.45,0,0,1,.66.44,2.82,2.82,0,0,1,.72,1.49,8.35,8.35,0,0,1,.15,1.71A9,9,0,0,1,94.4,213.49ZM93.55,211c0-.35,0-.65-.07-.89a2.12,2.12,0,0,0-.27-.81,1.52,1.52,0,0,0-.45-.46,1.18,1.18,0,0,0-1.22,0,1.2,1.2,0,0,0-.43.46,2,2,0,0,0-.27.85,5.44,5.44,0,0,0-.06.88c0,.37,0,.74,0,1.13s0,.74,0,1.11a6.62,6.62,0,0,0,.06.91,2.7,2.7,0,0,0,.27.88,1.43,1.43,0,0,0,.43.48,1.09,1.09,0,0,0,.62.2,1,1,0,0,0,.63-.21,1.41,1.41,0,0,0,.45-.51,2.84,2.84,0,0,0,.23-.86c0-.23,0-.52.07-.89s0-.75,0-1.14,0-.76,0-1.15Z" transform="translate(-55.54 -8.01)"/>
    <rect x="0.18" y="196.96" width="57.64" height="14.09" fill="none"/>
    <path d="M139.65,212.33a.73.73,0,0,1-.25,0H133a.65.65,0,0,1-.25,0c-.08,0-.11-.09-.11-.19a.2.2,0,0,1,.12-.2l.25,0h6.34l.24,0a.2.2,0,0,1,.13.2A.18.18,0,0,1,139.65,212.33Z" transform="translate(-55.54 -8.01)"/>
    <path d="M145.55,215.69h-1.78c-.33,0-.62,0-.89.05v-.35h.53a1.62,1.62,0,0,0,.61-.07.43.43,0,0,0,.23-.45v-5.68a2.82,2.82,0,0,1-.58.19,4,4,0,0,1-.62.1h-.23v-.34h.36a3.66,3.66,0,0,0,.56-.1,2.76,2.76,0,0,0,.53-.18l.29-.18.25-.23h.26v6.44a.44.44,0,0,0,.24.45,1.65,1.65,0,0,0,.62.07h.51v.35C146.18,215.71,145.88,215.7,145.55,215.69Z" transform="translate(-55.54 -8.01)"/>
    <path d="M152,213.49a3.71,3.71,0,0,1-.33,1.21,2.15,2.15,0,0,1-.77.93,1.94,1.94,0,0,1-1.14.34,2,2,0,0,1-.76-.15,1.89,1.89,0,0,1-.64-.41,2.74,2.74,0,0,1-.75-1.48,8.35,8.35,0,0,1-.15-1.71,8.72,8.72,0,0,1,.13-1.64,3,3,0,0,1,.67-1.48,1.93,1.93,0,0,1,.68-.51,2.17,2.17,0,0,1,1.61,0,2.41,2.41,0,0,1,.65.44,2.82,2.82,0,0,1,.73,1.49,8.35,8.35,0,0,1,.15,1.71A8.83,8.83,0,0,1,152,213.49Zm-.84-2.49a8.87,8.87,0,0,0-.08-.89,1.83,1.83,0,0,0-.27-.81,1.32,1.32,0,0,0-.45-.46,1,1,0,0,0-.6-.17,1.14,1.14,0,0,0-.62.17,1.37,1.37,0,0,0-.43.46,2.13,2.13,0,0,0-.26.85,6.68,6.68,0,0,0-.07.88c0,.37,0,.74,0,1.13s0,.74,0,1.11a5.33,5.33,0,0,0,.07.91,2.49,2.49,0,0,0,.26.88,1.54,1.54,0,0,0,.43.48,1.11,1.11,0,0,0,.62.2,1,1,0,0,0,.64-.21,1.5,1.5,0,0,0,.45-.51,2.87,2.87,0,0,0,.22-.86c0-.23.06-.52.08-.89s0-.75,0-1.14,0-.76,0-1.15Z" transform="translate(-55.54 -8.01)"/>
    <rect x="57.82" y="196.96" width="57.7" height="14.09" fill="none"/>
    <path d="M82,226.35a.69.69,0,0,1-.25,0H75.35a.72.72,0,0,1-.26,0,.18.18,0,0,1-.11-.18.19.19,0,0,1,.12-.2.87.87,0,0,1,.26,0h6.33a.79.79,0,0,1,.25,0,.2.2,0,0,1,.13.2A.17.17,0,0,1,82,226.35Z" transform="translate(-55.54 -8.01)"/>
    <path d="M88.83,229.76H84.75v-.25L87,227c.17-.2.31-.38.43-.55a5,5,0,0,0,.38-.6,2.82,2.82,0,0,0,.24-.62,1.93,1.93,0,0,0,.11-.65,2.63,2.63,0,0,0-.08-.65,1.64,1.64,0,0,0-.27-.58,1.4,1.4,0,0,0-.51-.43,1.36,1.36,0,0,0-.61-.13,1.5,1.5,0,0,0-.93.3,1.69,1.69,0,0,0-.56.81h.14a.6.6,0,0,1,.42.15.58.58,0,0,1,.17.43.56.56,0,0,1-.16.41.57.57,0,0,1-.41.17.57.57,0,0,1-.44-.18.65.65,0,0,1-.15-.44,1.92,1.92,0,0,1,.15-.74,2.11,2.11,0,0,1,.41-.61,1.69,1.69,0,0,1,.68-.48,2.16,2.16,0,0,1,.81-.15,2.6,2.6,0,0,1,.89.14,2.25,2.25,0,0,1,.78.45,2.1,2.1,0,0,1,.5.69,2.15,2.15,0,0,1,.17.85,2.11,2.11,0,0,1-.13.77,2.38,2.38,0,0,1-.41.66,8.47,8.47,0,0,1-.6.6q-.18.19-.6.57l-.62.59-1.17,1.14h2.53a1,1,0,0,0,.42-.08.75.75,0,0,0,.18-.35c0-.1.05-.24.09-.45l0-.18h.28Z" transform="translate(-55.54 -8.01)"/>
    <path d="M94.4,227.51a4.19,4.19,0,0,1-.33,1.21,2.34,2.34,0,0,1-.78.94,2,2,0,0,1-1.89.19,1.84,1.84,0,0,1-.65-.41A2.87,2.87,0,0,1,90,228a8.18,8.18,0,0,1-.15-1.7,9.56,9.56,0,0,1,.13-1.64,3.08,3.08,0,0,1,.68-1.49,1.87,1.87,0,0,1,.67-.5,2.06,2.06,0,0,1,.84-.16,2,2,0,0,1,.77.15,2.24,2.24,0,0,1,.66.44,2.78,2.78,0,0,1,.72,1.49,8.35,8.35,0,0,1,.15,1.71A8.77,8.77,0,0,1,94.4,227.51ZM93.55,225a8.72,8.72,0,0,0-.07-.89,2.18,2.18,0,0,0-.27-.82,1.52,1.52,0,0,0-.45-.46,1.18,1.18,0,0,0-1.22,0,1.28,1.28,0,0,0-.43.46,2.07,2.07,0,0,0-.27.85,5.57,5.57,0,0,0-.06.89c0,.36,0,.74,0,1.13s0,.74,0,1.11a6.73,6.73,0,0,0,.06.91,2.78,2.78,0,0,0,.27.88,1.43,1.43,0,0,0,.43.48,1.08,1.08,0,0,0,.62.19,1,1,0,0,0,.63-.2,1.36,1.36,0,0,0,.45-.52,2.68,2.68,0,0,0,.23-.85c0-.23,0-.53.07-.89s0-.75,0-1.15,0-.75,0-1.14Z" transform="translate(-55.54 -8.01)"/>
    <rect x="0.18" y="211.04" width="57.64" height="14.03" fill="none"/>
    <path d="M142.22,226.35a.62.62,0,0,1-.24,0h-6.36a.65.65,0,0,1-.25,0,.17.17,0,0,1-.11-.18.19.19,0,0,1,.12-.2.79.79,0,0,1,.25,0H142a.76.76,0,0,1,.24,0,.19.19,0,0,1,.13.2A.17.17,0,0,1,142.22,226.35Z" transform="translate(-55.54 -8.01)"/>
    <path d="M149.22,228.5a2.75,2.75,0,0,1-.52.8,2.57,2.57,0,0,1-.78.51,2.35,2.35,0,0,1-.91.19,1.9,1.9,0,0,1-.79-.17,2,2,0,0,1-.64-.47,1.89,1.89,0,0,1-.41-.64A2,2,0,0,1,145,228a.6.6,0,0,1,.14-.41.6.6,0,0,1,.79,0,.5.5,0,0,1,.16.39.51.51,0,0,1-.17.4.53.53,0,0,1-.37.15h-.11l-.09,0a1.52,1.52,0,0,0,.22.47,1.57,1.57,0,0,0,.35.38,1.83,1.83,0,0,0,.49.27,1.55,1.55,0,0,0,.56.11,1.21,1.21,0,0,0,.68-.21,1.41,1.41,0,0,0,.49-.51,1.91,1.91,0,0,0,.22-.73,5.46,5.46,0,0,0,.05-.78,6.29,6.29,0,0,0,0-.7,2.19,2.19,0,0,0-.18-.67,1.27,1.27,0,0,0-.36-.5.87.87,0,0,0-.57-.21,1.67,1.67,0,0,0-.52.08,1.51,1.51,0,0,0-.56.32,1.07,1.07,0,0,0-.22.2,1,1,0,0,0-.1.15.4.4,0,0,1-.07.09.11.11,0,0,1-.08,0c-.08,0-.13,0-.15-.07a.37.37,0,0,1,0-.17v-3.28a.66.66,0,0,1,0-.25s.1,0,.22,0a3.28,3.28,0,0,0,.71.23,3.67,3.67,0,0,0,.75.07l.48,0a5,5,0,0,0,.56-.11l.37-.16.18-.06a.13.13,0,0,1,.08,0,.1.1,0,0,1,0,.09.93.93,0,0,1-.24.36,2.84,2.84,0,0,1-.29.24v0a2.91,2.91,0,0,1-.75.37,2.63,2.63,0,0,1-.83.14,2.56,2.56,0,0,1-.47,0,3.11,3.11,0,0,1-.46-.1v2.14a2,2,0,0,1,.31-.24,1,1,0,0,1,.33-.17,1.58,1.58,0,0,1,.37-.11,2.34,2.34,0,0,1,.38,0,1.92,1.92,0,0,1,.82.18,2.09,2.09,0,0,1,.67.52,2.41,2.41,0,0,1,.44.8,2.44,2.44,0,0,1,.16.9A2.36,2.36,0,0,1,149.22,228.5Z" transform="translate(-55.54 -8.01)"/>
    <rect x="57.82" y="211.04" width="57.7" height="14.03" fill="none"/>
    <path d="M82,240.44a.69.69,0,0,1-.25,0H75.35a.72.72,0,0,1-.26,0,.18.18,0,0,1-.11-.18.21.21,0,0,1,.12-.21l.26,0h6.33l.25,0a.22.22,0,0,1,.13.21A.17.17,0,0,1,82,240.44Z" transform="translate(-55.54 -8.01)"/>
    <path d="M88.83,243.85H84.75v-.26l2.23-2.5c.17-.19.31-.38.43-.54a5,5,0,0,0,.38-.6,3,3,0,0,0,.24-.62,2,2,0,0,0,.11-.66,2.69,2.69,0,0,0-.08-.65,1.82,1.82,0,0,0-.27-.58,1.49,1.49,0,0,0-2.05-.25,1.69,1.69,0,0,0-.56.81h.14a.6.6,0,0,1,.42.15.58.58,0,0,1,.17.43.55.55,0,0,1-.16.4.54.54,0,0,1-.41.18.58.58,0,0,1-.44-.19.63.63,0,0,1-.15-.44,2,2,0,0,1,.15-.74,2.25,2.25,0,0,1,.41-.61,1.91,1.91,0,0,1,.68-.48,2.16,2.16,0,0,1,.81-.15,2.86,2.86,0,0,1,.89.14,2.25,2.25,0,0,1,.78.45,2,2,0,0,1,.5.7,2.1,2.1,0,0,1,.17.84,2.13,2.13,0,0,1-.13.78,2.38,2.38,0,0,1-.41.66l-.6.6-.6.57-.62.59L85.61,243h2.53a1.12,1.12,0,0,0,.42-.07.86.86,0,0,0,.18-.36q0-.13.09-.45l0-.18h.28Z" transform="translate(-55.54 -8.01)"/>
    <path d="M94.16,242.58a2.6,2.6,0,0,1-.52.81,2.49,2.49,0,0,1-.77.5,2.25,2.25,0,0,1-.91.19,1.77,1.77,0,0,1-.8-.17,1.83,1.83,0,0,1-.64-.47,2,2,0,0,1-.41-.63,2.06,2.06,0,0,1-.14-.73.64.64,0,0,1,.14-.42.57.57,0,0,1,.41-.16.54.54,0,0,1,.38.14.51.51,0,0,1,.17.4.48.48,0,0,1-.18.39.51.51,0,0,1-.37.15h-.11l-.08,0a1.16,1.16,0,0,0,.21.47,1.61,1.61,0,0,0,.35.39,2.7,2.7,0,0,0,.5.27,1.49,1.49,0,0,0,.55.1,1.18,1.18,0,0,0,.68-.2,1.59,1.59,0,0,0,.49-.51,2.16,2.16,0,0,0,.23-.73,5.75,5.75,0,0,0,0-.78,6.16,6.16,0,0,0,0-.7,2.6,2.6,0,0,0-.17-.68,1.59,1.59,0,0,0-.37-.5.92.92,0,0,0-.57-.2,1.72,1.72,0,0,0-.52.07,1.66,1.66,0,0,0-.56.32,1.39,1.39,0,0,0-.21.21,1,1,0,0,0-.11.15l-.06.08a.15.15,0,0,1-.09,0,.14.14,0,0,1-.15-.08.51.51,0,0,1,0-.16v-3.29a1.07,1.07,0,0,1,0-.25s.1,0,.23,0a2.74,2.74,0,0,0,.7.23,3.82,3.82,0,0,0,.75.08,3.28,3.28,0,0,0,.49,0,4.65,4.65,0,0,0,.55-.1l.37-.16.18-.07a.16.16,0,0,1,.09,0,.16.16,0,0,1,0,.1,1.1,1.1,0,0,1-.25.35,2.77,2.77,0,0,1-.29.25v0a2.65,2.65,0,0,1-.75.38,2.42,2.42,0,0,1-1.3.09,3.4,3.4,0,0,1-.46-.09v2.14a3.09,3.09,0,0,1,.31-.25,1.2,1.2,0,0,1,.34-.17,1.89,1.89,0,0,1,.36-.11,2.38,2.38,0,0,1,.39,0,1.91,1.91,0,0,1,.81.18,2.16,2.16,0,0,1,.68.53,2.55,2.55,0,0,1,.44.79,2.75,2.75,0,0,1,.16.9A2.33,2.33,0,0,1,94.16,242.58Z" transform="translate(-55.54 -8.01)"/>
    <rect x="0.18" y="225.07" width="57.64" height="14.08" fill="none"/>
    <path d="M142.22,240.44a.62.62,0,0,1-.24,0h-6.36a.65.65,0,0,1-.25,0,.17.17,0,0,1-.11-.18.21.21,0,0,1,.12-.21l.25,0H142l.24,0a.21.21,0,0,1,.13.21A.17.17,0,0,1,142.22,240.44Z" transform="translate(-55.54 -8.01)"/>
    <path d="M148.56,242v1c0,.23.06.38.18.44a1.13,1.13,0,0,0,.51.07h.38v.35l-.75,0h-1.49l-.74,0v-.35H147a1.49,1.49,0,0,0,.54-.06q.18-.09.18-.45v-1h-2.92v-.34l3.37-5.15a.22.22,0,0,1,.09-.1.21.21,0,0,1,.13,0,.16.16,0,0,1,.15.07.32.32,0,0,1,0,.17v5h1.1V242Zm-.79-4.44-2.67,4.1h2.67Z" transform="translate(-55.54 -8.01)"/>
    <rect x="57.82" y="225.07" width="57.7" height="14.08" fill="none"/>
    <path d="M82,254.46a.49.49,0,0,1-.25,0H75.35a.51.51,0,0,1-.26,0,.17.17,0,0,1-.11-.18.19.19,0,0,1,.12-.2.87.87,0,0,1,.26,0h6.33a.79.79,0,0,1,.25,0,.2.2,0,0,1,.13.2A.17.17,0,0,1,82,254.46Z" transform="translate(-55.54 -8.01)"/>
    <path d="M89,256.61a2.79,2.79,0,0,1-.53.8,2.52,2.52,0,0,1-.77.51,2.39,2.39,0,0,1-.91.19,1.94,1.94,0,0,1-.8-.17,2.13,2.13,0,0,1-1-1.11,2,2,0,0,1-.14-.72.63.63,0,0,1,.14-.42.53.53,0,0,1,.41-.16.52.52,0,0,1,.39.14.53.53,0,0,1,.16.39.54.54,0,0,1-.17.4.55.55,0,0,1-.38.15h-.11l-.08,0a1.39,1.39,0,0,0,.21.47,1.61,1.61,0,0,0,.36.38,1.69,1.69,0,0,0,.49.27,1.51,1.51,0,0,0,.56.11,1.25,1.25,0,0,0,.67-.2,1.56,1.56,0,0,0,.5-.52,2.1,2.1,0,0,0,.22-.73,5.57,5.57,0,0,0,0-.78,6,6,0,0,0,0-.69,2.5,2.5,0,0,0-.17-.68,1.26,1.26,0,0,0-.37-.5.87.87,0,0,0-.56-.21,1.74,1.74,0,0,0-.53.08,1.59,1.59,0,0,0-.56.32,1.34,1.34,0,0,0-.21.2l-.11.15-.06.09a.12.12,0,0,1-.09,0c-.08,0-.13,0-.15-.07a.57.57,0,0,1,0-.16v-3.29a1,1,0,0,1,0-.25s.11,0,.23,0a3.28,3.28,0,0,0,.71.23,3.67,3.67,0,0,0,.75.07l.48,0a5.46,5.46,0,0,0,.56-.11l.36-.16.18-.06a.16.16,0,0,1,.09,0,.12.12,0,0,1,0,.1,1.22,1.22,0,0,1-.25.35l-.29.25v0a2.62,2.62,0,0,1-.75.37,2.32,2.32,0,0,1-.82.14,2.42,2.42,0,0,1-.47,0,2.3,2.3,0,0,1-.47-.1v2.14a2,2,0,0,1,.32-.24.87.87,0,0,1,.33-.17,1.37,1.37,0,0,1,.36-.11,2.38,2.38,0,0,1,.39,0,1.88,1.88,0,0,1,.81.18,2,2,0,0,1,.68.52,2.6,2.6,0,0,1,.44.8,2.66,2.66,0,0,1,.16.9A2.5,2.5,0,0,1,89,256.61Z" transform="translate(-55.54 -8.01)"/>
    <path d="M94.4,255.62a4.11,4.11,0,0,1-.33,1.21,2.27,2.27,0,0,1-.78.94,2,2,0,0,1-1.89.19,1.84,1.84,0,0,1-.65-.41,2.87,2.87,0,0,1-.75-1.49,8.18,8.18,0,0,1-.15-1.7,9.56,9.56,0,0,1,.13-1.64,3.08,3.08,0,0,1,.68-1.49,1.87,1.87,0,0,1,.67-.5,2.06,2.06,0,0,1,.84-.16,2,2,0,0,1,.77.15,2.24,2.24,0,0,1,.66.44,2.82,2.82,0,0,1,.72,1.49,8.35,8.35,0,0,1,.15,1.71A8.77,8.77,0,0,1,94.4,255.62Zm-.85-2.48c0-.36,0-.65-.07-.89a2.06,2.06,0,0,0-.27-.81,1.42,1.42,0,0,0-.45-.46,1.12,1.12,0,0,0-1.22,0,1.13,1.13,0,0,0-.43.46,2,2,0,0,0-.27.84,5.66,5.66,0,0,0-.06.89c0,.36,0,.74,0,1.13s0,.74,0,1.11a6.73,6.73,0,0,0,.06.91,2.78,2.78,0,0,0,.27.88,1.43,1.43,0,0,0,.43.48,1.08,1.08,0,0,0,.62.19,1,1,0,0,0,.63-.2,1.41,1.41,0,0,0,.45-.51,2.84,2.84,0,0,0,.23-.86c0-.23,0-.53.07-.89s0-.75,0-1.15,0-.75,0-1.14Z" transform="translate(-55.54 -8.01)"/>
    <rect x="0.18" y="239.16" width="57.64" height="14.03" fill="none"/>
    <path d="M142.22,254.46a.45.45,0,0,1-.24,0h-6.36a.47.47,0,0,1-.25,0c-.08,0-.11-.09-.11-.18a.19.19,0,0,1,.12-.2.79.79,0,0,1,.25,0H142a.76.76,0,0,1,.24,0,.19.19,0,0,1,.13.2A.17.17,0,0,1,142.22,254.46Z" transform="translate(-55.54 -8.01)"/>
    <path d="M149.1,257.87H145v-.25l2.23-2.5c.16-.2.31-.38.43-.55a4.87,4.87,0,0,0,.37-.6,3.5,3.5,0,0,0,.25-.62,2.16,2.16,0,0,0,0-1.3,1.64,1.64,0,0,0-.27-.58,1.46,1.46,0,0,0-.5-.43,1.39,1.39,0,0,0-.61-.13,1.48,1.48,0,0,0-.93.3,1.61,1.61,0,0,0-.56.82l.14,0a.6.6,0,0,1,.42.15.58.58,0,0,1,.17.43.6.6,0,0,1-.16.41.58.58,0,0,1-.41.17.56.56,0,0,1-.44-.18.65.65,0,0,1-.15-.44,1.92,1.92,0,0,1,.15-.74,2.11,2.11,0,0,1,.41-.61,1.76,1.76,0,0,1,.67-.48,2.18,2.18,0,0,1,.82-.15,2.91,2.91,0,0,1,.89.14,2.34,2.34,0,0,1,.78.45,2.07,2.07,0,0,1,.49.69,2,2,0,0,1,.17.85,2.07,2.07,0,0,1-.13.77,2.52,2.52,0,0,1-.4.67q-.25.27-.6.6c-.12.12-.32.31-.6.56l-.63.59L145.89,257h2.53a1,1,0,0,0,.41-.08.67.67,0,0,0,.19-.35c0-.09,0-.24.08-.45l0-.18h.28Z" transform="translate(-55.54 -8.01)"/>
    <rect x="57.82" y="239.16" width="57.7" height="14.03" fill="none"/>
    <path d="M79.37,268.55a.65.65,0,0,1-.25,0H72.77a.72.72,0,0,1-.26,0,.18.18,0,0,1-.11-.18.21.21,0,0,1,.12-.21l.26,0h6.33l.25,0a.21.21,0,0,1,.13.21A.17.17,0,0,1,79.37,268.55Z" transform="translate(-55.54 -8.01)"/>
    <path d="M85.28,271.92H83.5c-.33,0-.63,0-.89,0v-.34h.52a1.56,1.56,0,0,0,.61-.08.44.44,0,0,0,.24-.45v-5.68a2.91,2.91,0,0,1-.59.2,5.58,5.58,0,0,1-.61.09h-.24v-.34h.37a2.87,2.87,0,0,0,.56-.1,2.68,2.68,0,0,0,.52-.18l.29-.18.26-.23h.25v6.44q0,.36.24.45a1.62,1.62,0,0,0,.62.08h.52V272C85.9,271.94,85.61,271.92,85.28,271.92Z" transform="translate(-55.54 -8.01)"/>
    <path d="M91.76,269.71a4.19,4.19,0,0,1-.33,1.21,2.3,2.3,0,0,1-.77.93,2,2,0,0,1-1.14.35,2,2,0,0,1-.76-.15,2,2,0,0,1-.64-.41,2.77,2.77,0,0,1-.75-1.49,8.18,8.18,0,0,1-.15-1.7,9.57,9.57,0,0,1,.12-1.64,3,3,0,0,1,.68-1.49,1.76,1.76,0,0,1,.67-.5,2.07,2.07,0,0,1,.84-.17,2,2,0,0,1,.77.15,2.45,2.45,0,0,1,.66.44,2.94,2.94,0,0,1,.73,1.49,9.33,9.33,0,0,1,.14,1.72A9,9,0,0,1,91.76,269.71Zm-.85-2.48a8.72,8.72,0,0,0-.07-.89,2.11,2.11,0,0,0-.27-.82,1.52,1.52,0,0,0-.45-.46,1.18,1.18,0,0,0-1.22,0,1.28,1.28,0,0,0-.43.46,2,2,0,0,0-.27.85,7.05,7.05,0,0,0-.06.89c0,.36,0,.74,0,1.12s0,.74,0,1.12a6.84,6.84,0,0,0,.06.91,2.63,2.63,0,0,0,.27.87,1.37,1.37,0,0,0,.43.49,1.08,1.08,0,0,0,.62.19,1.05,1.05,0,0,0,.63-.2,1.53,1.53,0,0,0,.45-.52,2.75,2.75,0,0,0,.23-.86c0-.22,0-.52.07-.88s0-.76,0-1.15,0-.75,0-1.15Z" transform="translate(-55.54 -8.01)"/>
    <path d="M97,269.71a4.19,4.19,0,0,1-.33,1.21,2.24,2.24,0,0,1-.78.93,1.92,1.92,0,0,1-1.13.35,1.94,1.94,0,0,1-.76-.15,2,2,0,0,1-.65-.41,2.91,2.91,0,0,1-.75-1.49,8.18,8.18,0,0,1-.15-1.7,9.47,9.47,0,0,1,.13-1.64,3,3,0,0,1,.68-1.49,1.76,1.76,0,0,1,.67-.5,2.07,2.07,0,0,1,.84-.17,2,2,0,0,1,.77.15,2.26,2.26,0,0,1,.65.44,2.79,2.79,0,0,1,.73,1.49,8.46,8.46,0,0,1,.15,1.72A9,9,0,0,1,97,269.71Zm-.85-2.48a8.72,8.72,0,0,0-.07-.89,2.11,2.11,0,0,0-.27-.82,1.52,1.52,0,0,0-.45-.46,1.18,1.18,0,0,0-1.22,0,1.28,1.28,0,0,0-.43.46,2,2,0,0,0-.27.85,5.57,5.57,0,0,0-.06.89c0,.36,0,.74,0,1.12s0,.74,0,1.12a6.84,6.84,0,0,0,.06.91,2.63,2.63,0,0,0,.27.87,1.29,1.29,0,0,0,.43.49,1.08,1.08,0,0,0,.62.19,1.1,1.1,0,0,0,.63-.2,1.53,1.53,0,0,0,.45-.52,2.53,2.53,0,0,0,.22-.86c0-.22.06-.52.08-.88s0-.76,0-1.15,0-.75,0-1.15Z" transform="translate(-55.54 -8.01)"/>
    <rect x="0.18" y="253.18" width="57.64" height="14.09" fill="none"/>
    <path d="M142.22,268.55a.62.62,0,0,1-.24,0h-6.36a.65.65,0,0,1-.25,0,.17.17,0,0,1-.11-.18.21.21,0,0,1,.12-.21l.25,0H142l.24,0a.21.21,0,0,1,.13.21A.17.17,0,0,1,142.22,268.55Z" transform="translate(-55.54 -8.01)"/>
    <path d="M148.19,271.92h-1.78c-.33,0-.62,0-.89,0v-.34h.53a1.59,1.59,0,0,0,.61-.08.43.43,0,0,0,.23-.45v-5.68a2.71,2.71,0,0,1-.59.2,5.24,5.24,0,0,1-.61.09h-.23v-.34h.36a3.75,3.75,0,0,0,1.09-.28l.28-.18a1.94,1.94,0,0,0,.26-.23h.26v6.44c0,.24.08.39.23.45a1.65,1.65,0,0,0,.63.08h.51V272C148.82,271.94,148.52,271.92,148.19,271.92Z" transform="translate(-55.54 -8.01)"/>
    <rect x="57.82" y="253.18" width="57.7" height="14.09" fill="none"/>
    <line x1="0.18" y1="0.18" x2="0.18" y2="267.27" fill="none" stroke="#000" stroke-miterlimit="10" stroke-width="0.36"/>
    <line x1="57.82" y1="0.18" x2="57.82" y2="267.27" fill="none" stroke="#000" stroke-miterlimit="10" stroke-width="0.36"/>
    <line x1="115.51" y1="0.18" x2="115.51" y2="267.27" fill="none" stroke="#000" stroke-miterlimit="10" stroke-width="0.36"/>
    <line y1="0.18" x2="115.69" y2="0.18" fill="none" stroke="#000" stroke-miterlimit="10" stroke-width="0.36"/>
    <line y1="14.27" x2="115.69" y2="14.27" fill="none" stroke="#000" stroke-miterlimit="10" stroke-width="0.36"/>
    <line y1="28.29" x2="115.69" y2="28.29" fill="none" stroke="#000" stroke-miterlimit="10" stroke-width="0.36"/>
    <line y1="42.38" x2="115.69" y2="42.38" fill="none" stroke="#000" stroke-miterlimit="10" stroke-width="0.36"/>
    <line y1="56.4" x2="115.69" y2="56.4" fill="none" stroke="#000" stroke-miterlimit="10" stroke-width="0.36"/>
    <line y1="70.49" x2="115.69" y2="70.49" fill="none" stroke="#000" stroke-miterlimit="10" stroke-width="0.36"/>
    <line y1="84.51" x2="115.69" y2="84.51" fill="none" stroke="#000" stroke-miterlimit="10" stroke-width="0.36"/>
    <line y1="98.6" x2="115.69" y2="98.6" fill="none" stroke="#000" stroke-miterlimit="10" stroke-width="0.36"/>
    <line y1="112.63" x2="115.69" y2="112.63" fill="none" stroke="#000" stroke-miterlimit="10" stroke-width="0.36"/>
    <line y1="126.71" x2="115.69" y2="126.71" fill="none" stroke="#000" stroke-miterlimit="10" stroke-width="0.36"/>
    <line y1="140.74" x2="115.69" y2="140.74" fill="none" stroke="#000" stroke-miterlimit="10" stroke-width="0.36"/>
    <line y1="154.82" x2="115.69" y2="154.82" fill="none" stroke="#000" stroke-miterlimit="10" stroke-width="0.36"/>
    <line y1="168.85" x2="115.69" y2="168.85" fill="none" stroke="#000" stroke-miterlimit="10" stroke-width="0.36"/>
    <line y1="182.93" x2="115.69" y2="182.93" fill="none" stroke="#000" stroke-miterlimit="10" stroke-width="0.36"/>
    <line y1="196.96" x2="115.69" y2="196.96" fill="none" stroke="#000" stroke-miterlimit="10" stroke-width="0.36"/>
    <line y1="211.04" x2="115.69" y2="211.04" fill="none" stroke="#000" stroke-miterlimit="10" stroke-width="0.36"/>
    <line y1="225.07" x2="115.69" y2="225.07" fill="none" stroke="#000" stroke-miterlimit="10" stroke-width="0.36"/>
    <line y1="239.16" x2="115.69" y2="239.16" fill="none" stroke="#000" stroke-miterlimit="10" stroke-width="0.36"/>
    <line y1="253.18" x2="115.69" y2="253.18" fill="none" stroke="#000" stroke-miterlimit="10" stroke-width="0.36"/>
    <line y1="267.27" x2="115.69" y2="267.27" fill="none" stroke="#000" stroke-miterlimit="10" stroke-width="0.36"/>
    <line x1="115.51" y1="0.18" x2="115.51" y2="267.27" fill="none" stroke="#000" stroke-miterlimit="10" stroke-width="0.36"/>
    <line x1="0.18" y1="0.18" x2="0.18" y2="267.27" fill="none" stroke="#000" stroke-miterlimit="10" stroke-width="0.36"/>
    <line y1="267.27" x2="115.69" y2="267.27" fill="none" stroke="#000" stroke-miterlimit="10" stroke-width="0.36"/>
    <line y1="0.18" x2="115.69" y2="0.18" fill="none" stroke="#000" stroke-miterlimit="10" stroke-width="0.36"/>
  </g>
</svg>
