<?xml version="1.0" encoding="UTF-8"?>
<svg id="_레이어_1" data-name="레이어 1" xmlns="http://www.w3.org/2000/svg" width="137.62" height="138.25" viewBox="0 0 137.62 138.25">
  <path d="M134.81,126.58v-.28c.48,0,.79-.05,.93-.14,.15-.11,.17-.31,.06-.61l-.65-1.84h-3.06l-.51,1.59c-.14,.4-.14,.67,0,.81,.13,.13,.44,.19,.94,.19v.28h-2.41v-.28c.31,0,.54-.06,.68-.19,.15-.14,.31-.46,.49-.95l2.19-6.41,.61-.27,2.43,7.03c.09,.29,.23,.5,.4,.61,.17,.11,.4,.17,.7,.17v.28h-2.81Zm-1.2-7.29l-1.4,4.09h2.83l-1.43-4.09Z" fill="#221e1f"/>
  <path d="M15.21,7.25c-.51,.44-1.21,.67-2.09,.67h-3.54v-.28c.42,0,.7-.05,.83-.14,.14-.09,.22-.29,.22-.58V1.04c0-.27-.07-.47-.22-.58-.16-.12-.44-.18-.83-.18v-.28h3.33c.82,0,1.47,.18,1.96,.53,.46,.34,.69,.78,.69,1.33,0,.41-.13,.76-.38,1.04-.29,.32-.74,.56-1.35,.72,.72,.14,1.25,.41,1.6,.79,.32,.35,.48,.8,.48,1.34,0,.59-.23,1.1-.69,1.5Zm-.87-6.48c-.35-.33-.83-.49-1.45-.49h-.65c-.32,0-.56,.06-.7,.18-.14,.12-.22,.32-.22,.58V3.57h1.57c.53,0,.98-.19,1.36-.58,.35-.36,.53-.76,.53-1.19,0-.39-.15-.73-.44-1.02Zm.24,3.65c-.41-.39-.92-.58-1.51-.58h-1.74v3.07c0,.29,.07,.48,.22,.58,.12,.09,.36,.14,.7,.14h.75c.67,0,1.21-.2,1.61-.59,.38-.36,.56-.79,.56-1.3s-.19-.95-.58-1.32Z" fill="#221e1f"/>
  <path d="M15.71,128.28c-.61,.86-1.43,1.29-2.45,1.29s-1.85-.43-2.46-1.29c-.56-.77-.84-1.72-.84-2.84s.28-2.07,.84-2.85c.61-.86,1.43-1.29,2.46-1.29s1.84,.43,2.45,1.29c.56,.78,.84,1.73,.84,2.85s-.28,2.06-.84,2.84Zm-.56-5.49c-.48-.8-1.11-1.2-1.89-1.2s-1.43,.4-1.91,1.2c-.44,.74-.66,1.63-.66,2.67s.22,1.9,.66,2.63c.48,.8,1.12,1.2,1.91,1.2s1.41-.4,1.89-1.2c.44-.73,.66-1.61,.66-2.63s-.22-1.93-.66-2.67Z" fill="#221e1f"/>
  <path d="M101.81,126.25c-.42,.38-.98,.57-1.66,.57h-1.8v2.64c0,.28,.08,.48,.23,.6,.17,.14,.48,.2,.91,.2v.28h-2.89v-.28c.39,0,.66-.07,.82-.2,.15-.12,.23-.32,.23-.6v-5.85c0-.27-.08-.46-.23-.56-.15-.1-.42-.15-.82-.15v-.28h3.64c.63,0,1.16,.17,1.59,.52,.45,.37,.67,.86,.67,1.47,0,.69-.23,1.23-.68,1.63Zm-.53-2.83c-.33-.34-.77-.52-1.31-.52h-.85c-.28,0-.48,.05-.59,.15-.12,.11-.18,.29-.18,.56v2.92h1.62c.54,0,.98-.21,1.32-.62,.3-.37,.45-.81,.45-1.3s-.15-.87-.45-1.19Z" fill="#221e1f"/>
  <path d="M102.58,38.11c-.2,.19-.36,.32-.48,.39-.19,.11-.39,.16-.62,.16-.32,0-.62-.13-.89-.38-.23-.22-.43-.52-.59-.9-.17,.07-.34,.13-.53,.17-.17,.04-.32,.05-.47,.05-1.04,0-1.87-.43-2.49-1.29-.56-.77-.84-1.72-.84-2.84s.28-2.06,.84-2.85c.63-.86,1.46-1.29,2.49-1.29s1.82,.43,2.46,1.29c.6,.8,.9,1.75,.9,2.85,0,.77-.14,1.49-.43,2.16-.32,.75-.77,1.26-1.33,1.51,.1,.24,.24,.45,.42,.62,.21,.21,.43,.31,.67,.31,.16,0,.29-.01,.4-.04,.13-.03,.27-.09,.43-.17l.13,.17-.08,.06Zm-1.64-7.29c-.48-.8-1.13-1.2-1.93-1.2s-1.45,.4-1.93,1.2c-.44,.73-.66,1.62-.66,2.67,0,.51,.07,1.03,.21,1.57,.16,.61,.37,1.05,.63,1.32-.04-.44,.07-.76,.32-.96,.19-.14,.46-.2,.82-.2,.32,0,.65,.1,.97,.31,.41,.27,.77,.68,1.07,1.24,.4-.29,.7-.79,.91-1.5,.17-.57,.26-1.16,.26-1.77,0-1.05-.22-1.93-.66-2.67Zm-1.89,5.01c-.24-.18-.51-.27-.81-.27-.22,0-.38,.04-.49,.12-.21,.15-.31,.44-.31,.87,.27,.28,.54,.48,.81,.61,.24,.11,.49,.16,.76,.16,.14,0,.28-.02,.43-.08,.14-.04,.29-.1,.44-.17-.23-.59-.51-1-.83-1.25Z" fill="#221e1f"/>
  <polyline points="95.92 115.66 101.59 115.66 101.59 121.33" fill="none" stroke="#221e1f" stroke-miterlimit="10" stroke-width=".4"/>
  <polyline points="16.74 115.68 22.41 115.68 22.41 121.35" fill="none" stroke="#221e1f" stroke-miterlimit="10" stroke-width=".4"/>
  <g>
    <path d="M59.55,132.62c.21,0,.41-.01,.62-.02" fill="none" stroke="#221e1f" stroke-miterlimit="10" stroke-width=".4"/>
    <path d="M61.09,132.57c16.5-.68,29.96-4.84,34.23-10.34" fill="none" stroke="#221e1f" stroke-dasharray="0 0 1.26 .92" stroke-miterlimit="10" stroke-width=".4"/>
    <path d="M95.59,121.87c.12-.17,.23-.35,.33-.52" fill="none" stroke="#221e1f" stroke-miterlimit="10" stroke-width=".4"/>
  </g>
  <g>
    <path d="M16.74,121.33c.1,.17,.21,.35,.33,.52" fill="none" stroke="#221e1f" stroke-miterlimit="10" stroke-width=".4"/>
    <path d="M17.61,122.55c4.48,5.27,17.48,9.26,33.39,9.99" fill="none" stroke="#221e1f" stroke-dasharray="0 0 1.23 .89" stroke-miterlimit="10" stroke-width=".4"/>
    <path d="M51.46,132.56c.21,0,.41,.02,.62,.02" fill="none" stroke="#221e1f" stroke-miterlimit="10" stroke-width=".4"/>
  </g>
  <g>
    <path d="M5.42,60.87c0-.21,0-.41,.01-.62" fill="none" stroke="#221e1f" stroke-miterlimit="10" stroke-width=".4"/>
    <path d="M5.45,59.35c.53-24.63,4.81-44.85,10.5-50.98" fill="none" stroke="#221e1f" stroke-dasharray="0 0 1.23 .89" stroke-miterlimit="10" stroke-width=".4"/>
    <path d="M16.26,8.05c.15-.15,.3-.29,.46-.41" fill="none" stroke="#221e1f" stroke-miterlimit="10" stroke-width=".4"/>
  </g>
  <g>
    <path d="M16.74,121.33c-.15-.13-.31-.26-.46-.41" fill="none" stroke="#221e1f" stroke-miterlimit="10" stroke-width=".4"/>
    <path d="M15.67,120.27c-5.4-6.3-9.48-25.37-10.17-48.72" fill="none" stroke="#221e1f" stroke-dasharray="0 0 1.23 .89" stroke-miterlimit="10" stroke-width=".4"/>
    <path d="M5.49,71.1c0-.21-.01-.41-.02-.62" fill="none" stroke="#221e1f" stroke-miterlimit="10" stroke-width=".4"/>
  </g>
  <path d="M57.02,131.42c-.25,.34-.45,.81-.58,1.39-.1,.42-.17,.88-.19,1.39l-.02,.5v.97c-.01,.19-.05,.33-.13,.43-.09,.11-.22,.17-.39,.17-.19,0-.32-.06-.4-.18-.07-.1-.11-.24-.11-.42,0-.29,.02-.59,.06-.91,.05-.32,.13-.66,.23-1.02,.1-.37,.24-.73,.42-1.1,.18-.37,.4-.73,.65-1.11,.09-.15,.21-.32,.33-.49,.08-.12,.2-.28,.36-.48l.55-.76h-3.03c-.2,.01-.32,.04-.36,.08-.05,.04-.1,.17-.16,.41-.03,.13-.06,.31-.11,.55v.04h-.28l.37-2.27h.28l.03,.14c.05,.09,.25,.14,.6,.17,.2,.02,.44,.03,.72,.03h2.74v.25l-1.6,2.24Z" fill="#221e1f"/>
  <path d="M3.71,69.36H1.93c-.33,0-.63,.02-.89,.04v-.34h.53c.31,0,.51-.02,.61-.08,.16-.07,.24-.22,.24-.45v-5.69c-.17,.08-.37,.14-.59,.19-.19,.04-.4,.08-.61,.1h-.24v-.34c.06,0,.12,0,.16-.01,.06,0,.13,0,.2-.01,.19-.01,.37-.05,.56-.1,.18-.04,.35-.1,.53-.18,.1-.06,.2-.12,.29-.18,.09-.07,.18-.15,.26-.23h.26v6.45c0,.24,.08,.39,.24,.45,.1,.05,.31,.08,.62,.08h.52v.34c-.27-.02-.56-.04-.89-.04Z" fill="#221e1f"/>
  <path d="M10.41,67.15c-.06,.46-.17,.86-.33,1.21-.19,.4-.44,.71-.77,.93-.33,.23-.71,.34-1.14,.34-.27,0-.52-.05-.76-.15-.24-.09-.46-.23-.64-.41-.36-.34-.61-.83-.75-1.49-.1-.46-.15-1.03-.15-1.71,0-.64,.04-1.18,.13-1.64,.13-.64,.35-1.14,.68-1.49,.2-.23,.43-.4,.68-.5s.53-.16,.84-.16c.27,0,.53,.05,.77,.15,.23,.1,.45,.25,.66,.44,.34,.33,.59,.83,.73,1.49,.1,.47,.15,1.04,.15,1.72,0,.51-.03,.93-.08,1.27Zm-.85-2.49c-.01-.36-.04-.65-.08-.89-.06-.36-.15-.64-.27-.82-.13-.2-.28-.35-.45-.46-.19-.11-.39-.17-.6-.17-.23,0-.44,.06-.62,.17-.17,.1-.31,.25-.43,.46-.13,.19-.22,.48-.27,.85-.04,.24-.06,.54-.06,.89,0,.36-.01,.74-.01,1.13s0,.74,.01,1.12c0,.31,.02,.62,.06,.91,.06,.37,.15,.67,.27,.88,.11,.2,.26,.36,.43,.48,.19,.13,.4,.19,.62,.19,.24,0,.45-.07,.63-.2,.18-.12,.33-.29,.45-.51,.1-.2,.18-.49,.23-.86,.03-.23,.05-.53,.08-.89,.01-.37,.02-.75,.02-1.15,0-.37,0-.75-.01-1.15v.02Z" fill="#221e1f"/>
  <path d="M16.74,7.92c62.62,0,113.39,50.76,113.39,113.39" fill="none" stroke="#231815" stroke-linecap="round" stroke-linejoin="round" stroke-width=".75"/>
  <line x1="16.74" y1="121.18" x2="16.71" y2="7.79" fill="none" stroke="#231815" stroke-linejoin="round" stroke-width=".75"/>
  <line x1="130.12" y1="121.31" x2="16.74" y2="121.31" fill="none" stroke="#231815" stroke-linejoin="round" stroke-width=".75"/>
  <line x1="95.92" y1="121.59" x2="95.92" y2="40.08" fill="none" stroke="#0020ff" stroke-linejoin="round" stroke-width=".75"/>
  <line x1="95.92" y1="40.08" x2="130.12" y2="121.31" fill="none" stroke="#231815" stroke-linecap="round" stroke-miterlimit="10" stroke-width=".75"/>
</svg>