<svg id="레이어_1" data-name="레이어 1" xmlns="http://www.w3.org/2000/svg" width="115.68" height="351.82" viewBox="0 0 115.68 351.82">
  <path d="M86.31,20.34a4.05,4.05,0,0,1-.61,1,3.14,3.14,0,0,1-.81.7,1.87,1.87,0,0,1-1,.32,1,1,0,0,1-.6-.19,1.27,1.27,0,0,1-.41-.53c-.11.38-.2.71-.27,1s-.18.75-.24,1.05a.68.68,0,0,0,0,.25c0,.05.1.09.23.09h.35a.28.28,0,0,1,.15,0,.1.1,0,0,1,.09.1.26.26,0,0,1,0,.17.18.18,0,0,1-.16.06l-.51,0-.58,0-.47,0-.45,0a.15.15,0,0,1-.11,0,.23.23,0,0,1,0-.1.23.23,0,0,1,.07-.17.41.41,0,0,1,.19,0l.28,0a.24.24,0,0,0,.2-.13.59.59,0,0,0,.09-.22l0-.09,1.24-4.9A2.12,2.12,0,0,0,83,18c0-.26-.12-.39-.34-.39a.44.44,0,0,0-.28.08.65.65,0,0,0-.19.26,2,2,0,0,0-.18.42c0,.16-.11.34-.16.55v0a.75.75,0,0,1,0,.15.14.14,0,0,1-.13.07c-.07,0-.12,0-.13-.07a.37.37,0,0,1,0-.14v0c.06-.24.11-.44.16-.58a2.73,2.73,0,0,1,.24-.54.87.87,0,0,1,.31-.32.8.8,0,0,1,.43-.12,1,1,0,0,1,.65.21,1,1,0,0,1,.34.61,3,3,0,0,1,.65-.58,1.49,1.49,0,0,1,.8-.24,1.27,1.27,0,0,1,1.08.55,1.93,1.93,0,0,1,.37,1.2A3.34,3.34,0,0,1,86.31,20.34ZM85.6,18a.59.59,0,0,0-.56-.33,1.83,1.83,0,0,0-1.45,1.19c-.08.29-.18.68-.31,1.19A11.57,11.57,0,0,0,83,21.17a1.49,1.49,0,0,0,.29.7.71.71,0,0,0,.58.29,1.16,1.16,0,0,0,.81-.4A2.6,2.6,0,0,0,85.2,21a6.72,6.72,0,0,0,.35-1.15,4.87,4.87,0,0,0,.21-1.19A1.37,1.37,0,0,0,85.6,18Z" transform="translate(-55.52 -11.33)"/>
  <rect x="0.18" y="0.18" width="57.57" height="14.15" fill="none"/>
  <path d="M142.64,23.66l0,.06a.39.39,0,0,0,0,.23c0,.05.09.09.21.1h.34a.35.35,0,0,1,.16,0,.11.11,0,0,1,.1.1.26.26,0,0,1,0,.17.18.18,0,0,1-.15.06l-.61,0h-.52l-.56,0-.55,0a.16.16,0,0,1-.11,0,.12.12,0,0,1,0-.09.27.27,0,0,1,0-.19.4.4,0,0,1,.2,0l.36,0a.59.59,0,0,0,.3-.09.72.72,0,0,0,.14-.25c.05-.23.12-.49.19-.78s.11-.43.19-.77l.11-.43a2.43,2.43,0,0,1-.59.46,1.41,1.41,0,0,1-.71.21,1.27,1.27,0,0,1-1.1-.56,2,2,0,0,1-.36-1.21,3.34,3.34,0,0,1,.23-1.18,3.51,3.51,0,0,1,.61-1,3.08,3.08,0,0,1,.8-.7,2,2,0,0,1,1-.3,1,1,0,0,1,.63.21,1.57,1.57,0,0,1,.4.55,1.67,1.67,0,0,1,.27-.36,2,2,0,0,1,.33-.33.26.26,0,0,1,.15-.07c.07,0,.11,0,.11.12Zm.25-5.7a.81.81,0,0,0-.62-.31,1.18,1.18,0,0,0-.85.44,2.62,2.62,0,0,0-.53.83c-.11.31-.22.66-.32,1.06a5.7,5.7,0,0,0-.17,1.13,1.54,1.54,0,0,0,.14.69.59.59,0,0,0,.56.36,1.35,1.35,0,0,0,.81-.35,2.18,2.18,0,0,0,.59-.67s.13-.42.33-1.2a11.87,11.87,0,0,0,.32-1.32A1,1,0,0,0,142.89,18Z" transform="translate(-55.52 -11.33)"/>
  <rect x="57.75" y="0.18" width="57.69" height="14.15" fill="none"/>
  <path d="M84.85,36.26H83.06l-.89,0V36h.53a1.59,1.59,0,0,0,.61-.08.44.44,0,0,0,.24-.45V29.72a3,3,0,0,1-.6.2,5.24,5.24,0,0,1-.61.09H82.1v-.34h.37a3.66,3.66,0,0,0,.56-.1,2.55,2.55,0,0,0,.53-.18,2.9,2.9,0,0,0,.29-.19,2.75,2.75,0,0,0,.26-.22h.26v6.47c0,.24.07.39.23.45a1.65,1.65,0,0,0,.63.08h.52v.34Z" transform="translate(-55.52 -11.33)"/>
  <rect x="0.18" y="14.33" width="57.57" height="14.02" fill="none"/>
  <path d="M141,35a2.51,2.51,0,0,1-.49.84,2.58,2.58,0,0,1-.74.51,2.11,2.11,0,0,1-.86.18,1.86,1.86,0,0,1-.87-.21,1.79,1.79,0,0,1-.67-.55,3.52,3.52,0,0,1-.62-1.44,7,7,0,0,1-.14-1.53,5.25,5.25,0,0,1,.2-1.51,4,4,0,0,1,.71-1.33,2.43,2.43,0,0,1,.87-.73,2.34,2.34,0,0,1,1.11-.28,2.22,2.22,0,0,1,.61.07,1.29,1.29,0,0,1,.45.27,1.17,1.17,0,0,1,.26.38,1.11,1.11,0,0,1,.09.46.52.52,0,0,1-.15.38.46.46,0,0,1-.36.16.5.5,0,0,1-.37-.15.49.49,0,0,1-.14-.36.44.44,0,0,1,.17-.39.8.8,0,0,1,.44-.1.92.92,0,0,0-.44-.35,1.55,1.55,0,0,0-1.65.4,2.35,2.35,0,0,0-.6,1,5.06,5.06,0,0,0-.16.74,9.2,9.2,0,0,0-.05.94v.26a1.69,1.69,0,0,1,.53-.77,1.26,1.26,0,0,1,.86-.31,2,2,0,0,1,.84.17,2.24,2.24,0,0,1,.71.53,2.19,2.19,0,0,1,.47.81,2.7,2.7,0,0,1,.17.94A2.56,2.56,0,0,1,141,35Zm-.82-1.1a6.45,6.45,0,0,0,0-.72,1.68,1.68,0,0,0-.16-.66,1.33,1.33,0,0,0-.41-.5,1,1,0,0,0-.6-.19,1.05,1.05,0,0,0-.62.18,1.36,1.36,0,0,0-.43.48,2.06,2.06,0,0,0-.25.62,3.85,3.85,0,0,0-.06.69c0,.22,0,.41,0,.57a5.11,5.11,0,0,0,.06.59,1.83,1.83,0,0,0,.38.86,1.07,1.07,0,0,0,.84.41,1.08,1.08,0,0,0,.66-.21,1.28,1.28,0,0,0,.43-.51,2.35,2.35,0,0,0,.16-.67,6.26,6.26,0,0,0,0-.69v-.25Z" transform="translate(-55.52 -11.33)"/>
  <path d="M146.45,34a4.26,4.26,0,0,1-.33,1.22,2.24,2.24,0,0,1-.78.93,2,2,0,0,1-1.14.35,2,2,0,0,1-.77-.15,2,2,0,0,1-.64-.41,2.81,2.81,0,0,1-.76-1.5,8.35,8.35,0,0,1-.15-1.71,8.76,8.76,0,0,1,.13-1.65,3.17,3.17,0,0,1,.68-1.5,1.9,1.9,0,0,1,.68-.5,2.06,2.06,0,0,1,.84-.16,2,2,0,0,1,.77.15,2.45,2.45,0,0,1,.66.44,2.79,2.79,0,0,1,.73,1.5,8.39,8.39,0,0,1,.15,1.72A9,9,0,0,1,146.45,34Zm-.85-2.5a8.34,8.34,0,0,0-.08-.89,2,2,0,0,0-.27-.82,1.42,1.42,0,0,0-.45-.46,1.11,1.11,0,0,0-.6-.18,1.16,1.16,0,0,0-.63.18,1.28,1.28,0,0,0-.43.46,2,2,0,0,0-.27.85,7.05,7.05,0,0,0-.06.89c0,.37,0,.75,0,1.13s0,.75,0,1.12a6.77,6.77,0,0,0,.06.92,2.7,2.7,0,0,0,.27.88,1.58,1.58,0,0,0,.43.49,1.11,1.11,0,0,0,.63.19,1.07,1.07,0,0,0,.63-.2,1.67,1.67,0,0,0,.46-.52,2.87,2.87,0,0,0,.22-.86c0-.23.06-.53.08-.9s0-.75,0-1.15,0-.76,0-1.15Z" transform="translate(-55.52 -11.33)"/>
  <rect x="57.75" y="14.33" width="57.69" height="14.02" fill="none"/>
  <path d="M85.77,50.33h-4.1v-.26l2.24-2.51c.17-.2.31-.39.43-.55a5,5,0,0,0,.38-.6,3.92,3.92,0,0,0,.25-.63,2.2,2.2,0,0,0,0-1.31,1.64,1.64,0,0,0-.27-.58,1.24,1.24,0,0,0-1.12-.56,1.53,1.53,0,0,0-.94.3,1.68,1.68,0,0,0-.56.82l.14,0a.57.57,0,0,1,.42.16.54.54,0,0,1,.18.43.6.6,0,0,1-.17.41.57.57,0,0,1-.41.17.55.55,0,0,1-.44-.19.63.63,0,0,1-.15-.44,1.92,1.92,0,0,1,.15-.74,2.11,2.11,0,0,1,.41-.61,1.91,1.91,0,0,1,.68-.49,2.21,2.21,0,0,1,.82-.15,2.86,2.86,0,0,1,.89.14,2.29,2.29,0,0,1,.79.45,2.14,2.14,0,0,1,.5.7,2.19,2.19,0,0,1,.17.85,2.13,2.13,0,0,1-.13.78,2.42,2.42,0,0,1-.41.67q-.26.27-.6.6l-.61.57-.62.59-1.18,1.14h2.55a.94.94,0,0,0,.42-.07.8.8,0,0,0,.18-.36q0-.14.09-.45l0-.18h.28Z" transform="translate(-55.52 -11.33)"/>
  <rect x="0.18" y="28.35" width="57.57" height="14.03" fill="none"/>
  <path d="M141,49.24a2.33,2.33,0,0,1-.48.68,2.5,2.5,0,0,1-1.69.64,3.19,3.19,0,0,1-.45,0,2.23,2.23,0,0,1-.39-.09,2,2,0,0,1-1-.58,1.41,1.41,0,0,1-.41-1,.68.68,0,0,1,.15-.47.62.62,0,0,1,1.07.45.57.57,0,0,1-.21.47.61.61,0,0,1-.51.13,1.43,1.43,0,0,0,.7.61,2.24,2.24,0,0,0,1,.23,1,1,0,0,0,.44-.1,1.19,1.19,0,0,0,.36-.24,1.84,1.84,0,0,0,.35-.7,3.1,3.1,0,0,0,.09-.78,2.49,2.49,0,0,0,0-.4,2.75,2.75,0,0,0-.05-.34,1.64,1.64,0,0,0-.42-.8,1.16,1.16,0,0,0-.81-.29h-.52l-.16,0a.11.11,0,0,1-.07-.12c0-.06,0-.1,0-.12h.43l.34,0a1.05,1.05,0,0,0,.59-.35,1.66,1.66,0,0,0,.34-.59c0-.18.08-.32.1-.44a2.32,2.32,0,0,0,0-.44,1.7,1.7,0,0,0-.07-.53,1,1,0,0,0-.29-.45.9.9,0,0,0-.34-.2,1.38,1.38,0,0,0-.37-.05l-.37,0a2.66,2.66,0,0,0-.38.1,1.5,1.5,0,0,0-.41.23,1,1,0,0,0-.3.32h.18a.67.67,0,0,1,.38.16.5.5,0,0,1,.13.38.55.55,0,0,1-.56.56.57.57,0,0,1-.42-.16.59.59,0,0,1-.15-.41,1.27,1.27,0,0,1,.35-.88,1.84,1.84,0,0,1,.82-.5,2.11,2.11,0,0,1,.38-.1l.41,0a2.57,2.57,0,0,1,.73.1,2.11,2.11,0,0,1,.66.31,1.71,1.71,0,0,1,.46.47,1.27,1.27,0,0,1,.18.64,1.5,1.5,0,0,1-.13.62,2.08,2.08,0,0,1-.31.56,2.23,2.23,0,0,1-.5.46,2.69,2.69,0,0,1-.61.31,2.31,2.31,0,0,1,1,.44,2.06,2.06,0,0,1,.69.88c0,.12.06.23.08.33a1.4,1.4,0,0,1,.05.34A1.91,1.91,0,0,1,141,49.24Z" transform="translate(-55.52 -11.33)"/>
  <path d="M146.45,48.06a4.26,4.26,0,0,1-.33,1.22,2.27,2.27,0,0,1-.78.94,1.94,1.94,0,0,1-1.14.34,2,2,0,0,1-.77-.15,1.8,1.8,0,0,1-.64-.41,2.74,2.74,0,0,1-.76-1.49,8.39,8.39,0,0,1-.15-1.72,8.65,8.65,0,0,1,.13-1.64,3.08,3.08,0,0,1,.68-1.5,1.93,1.93,0,0,1,.68-.51,2.06,2.06,0,0,1,.84-.16,2,2,0,0,1,.77.15,2.45,2.45,0,0,1,.66.44,2.79,2.79,0,0,1,.73,1.5,8.46,8.46,0,0,1,.15,1.72A8.93,8.93,0,0,1,146.45,48.06Zm-.85-2.49a8.83,8.83,0,0,0-.08-.9,2,2,0,0,0-.27-.82,1.52,1.52,0,0,0-.45-.46,1.19,1.19,0,0,0-.6-.17,1.24,1.24,0,0,0-.63.17,1.37,1.37,0,0,0-.43.46,2.07,2.07,0,0,0-.27.85,7.37,7.37,0,0,0-.06.9c0,.36,0,.74,0,1.13s0,.75,0,1.12a6.73,6.73,0,0,0,.06.91,2.76,2.76,0,0,0,.27.89,1.54,1.54,0,0,0,.43.48,1.12,1.12,0,0,0,.63.2,1,1,0,0,0,.63-.21,1.47,1.47,0,0,0,.46-.52,2.79,2.79,0,0,0,.22-.86c0-.23.06-.52.08-.89s0-.76,0-1.15,0-.76,0-1.16Z" transform="translate(-55.52 -11.33)"/>
  <rect x="57.75" y="28.35" width="57.69" height="14.03" fill="none"/>
  <path d="M86,63.38a2.2,2.2,0,0,1-.48.68,2.56,2.56,0,0,1-.79.49,2.75,2.75,0,0,1-.9.16,3.19,3.19,0,0,1-.45,0L83,64.59A2.09,2.09,0,0,1,82,64a1.45,1.45,0,0,1-.41-1,.7.7,0,0,1,.15-.47.63.63,0,1,1,.86.93.68.68,0,0,1-.51.13,1.58,1.58,0,0,0,.7.61,2.38,2.38,0,0,0,1,.23,1.09,1.09,0,0,0,.44-.1,1.23,1.23,0,0,0,.36-.25,1.84,1.84,0,0,0,.35-.7,3.07,3.07,0,0,0,.09-.77,2.36,2.36,0,0,0,0-.4,2.94,2.94,0,0,0,0-.35,1.61,1.61,0,0,0-.42-.79,1.12,1.12,0,0,0-.81-.29H83.2a.35.35,0,0,1-.16,0,.11.11,0,0,1-.07-.11c0-.06,0-.1,0-.12h.12l.31,0,.34,0a1,1,0,0,0,.59-.34,1.66,1.66,0,0,0,.34-.59c0-.18.08-.33.1-.45a2.25,2.25,0,0,0,0-.44,1.64,1.64,0,0,0-.07-.52,1.09,1.09,0,0,0-.28-.46,1,1,0,0,0-.35-.19,1.07,1.07,0,0,0-.37-.05l-.37,0a2.62,2.62,0,0,0-.38.09,1.81,1.81,0,0,0-.41.23,1,1,0,0,0-.3.32l.18,0a.61.61,0,0,1,.38.16.48.48,0,0,1,.13.37.54.54,0,0,1-.16.4.52.52,0,0,1-.4.16A.54.54,0,0,1,82,59a.58.58,0,0,1-.15-.41,1.29,1.29,0,0,1,.35-.88,1.93,1.93,0,0,1,.82-.5,2.11,2.11,0,0,1,.38-.09,2.68,2.68,0,0,1,.41,0,3,3,0,0,1,.73.09,2.5,2.5,0,0,1,.66.31,1.74,1.74,0,0,1,.46.48,1.21,1.21,0,0,1,.18.63,1.76,1.76,0,0,1-.12.63,2.67,2.67,0,0,1-.32.56,2.45,2.45,0,0,1-.5.45,2.69,2.69,0,0,1-.61.31,2.56,2.56,0,0,1,1,.44,2.09,2.09,0,0,1,.69.89c0,.11.06.22.08.32a1.48,1.48,0,0,1,0,.35A1.87,1.87,0,0,1,86,63.38Z" transform="translate(-55.52 -11.33)"/>
  <rect x="0.18" y="42.37" width="57.57" height="14.03" fill="none"/>
  <path d="M140.82,64.47h-4.1v-.26L139,61.7c.17-.2.31-.38.43-.55a5,5,0,0,0,.38-.6,3.83,3.83,0,0,0,.25-.62,2.23,2.23,0,0,0,0-1.32,1.82,1.82,0,0,0-.27-.58,1.46,1.46,0,0,0-.5-.43,1.44,1.44,0,0,0-.62-.13,1.53,1.53,0,0,0-.94.3,1.8,1.8,0,0,0-.56.82h.14a.57.57,0,0,1,.42.15.55.55,0,0,1,.18.43.57.57,0,0,1-.17.41.53.53,0,0,1-.41.17.57.57,0,0,1-.44-.18.65.65,0,0,1-.15-.44,2,2,0,0,1,.15-.75,2.25,2.25,0,0,1,.41-.61,1.88,1.88,0,0,1,.68-.48,2.21,2.21,0,0,1,.82-.15,2.6,2.6,0,0,1,.89.14,2.29,2.29,0,0,1,.79.45,2,2,0,0,1,.5.7,2.15,2.15,0,0,1,.17.85A2.07,2.07,0,0,1,141,60a2.29,2.29,0,0,1-.41.67c-.17.19-.37.39-.6.61l-.61.57-.62.59-1.18,1.14h2.55a1,1,0,0,0,.42-.08.75.75,0,0,0,.18-.35l.09-.45,0-.19h.28Z" transform="translate(-55.52 -11.33)"/>
  <path d="M146.45,62.21a4.36,4.36,0,0,1-.33,1.22,2.24,2.24,0,0,1-.78.93,2,2,0,0,1-1.14.35,2,2,0,0,1-.77-.15,2,2,0,0,1-.64-.41,2.81,2.81,0,0,1-.76-1.5,8.35,8.35,0,0,1-.15-1.71,8.76,8.76,0,0,1,.13-1.65,3.12,3.12,0,0,1,.68-1.5,1.79,1.79,0,0,1,.68-.5,2.06,2.06,0,0,1,.84-.16,2,2,0,0,1,.77.15,2.24,2.24,0,0,1,.66.44,2.79,2.79,0,0,1,.73,1.5,8.39,8.39,0,0,1,.15,1.72A9,9,0,0,1,146.45,62.21Zm-.85-2.5a8.34,8.34,0,0,0-.08-.89,2,2,0,0,0-.27-.82,1.56,1.56,0,0,0-.45-.47,1.19,1.19,0,0,0-.6-.17,1.24,1.24,0,0,0-.63.17,1.41,1.41,0,0,0-.43.47,2,2,0,0,0-.27.85,7.05,7.05,0,0,0-.06.89c0,.37,0,.75,0,1.13s0,.75,0,1.12a6.88,6.88,0,0,0,.06.92,2.7,2.7,0,0,0,.27.88,1.71,1.71,0,0,0,.43.49,1.11,1.11,0,0,0,.63.19,1.07,1.07,0,0,0,.63-.2,1.67,1.67,0,0,0,.46-.52,2.87,2.87,0,0,0,.22-.86c0-.23.06-.53.08-.9s0-.75,0-1.15,0-.76,0-1.15Z" transform="translate(-55.52 -11.33)"/>
  <rect x="57.75" y="42.37" width="57.69" height="14.03" fill="none"/>
  <path d="M85.22,76.68v.95a.48.48,0,0,0,.18.45,1.16,1.16,0,0,0,.52.07h.37v.35c-.23,0-.48,0-.75,0H84a7.4,7.4,0,0,0-.74,0v-.35h.34a1.49,1.49,0,0,0,.54-.06.49.49,0,0,0,.19-.46v-.95H81.44v-.35l3.38-5.17a.38.38,0,0,1,.08-.11L85,71a.17.17,0,0,1,.16.07.54.54,0,0,1,0,.17v5.06h1.11v.35Zm-.79-4.46-2.68,4.11h2.68Z" transform="translate(-55.52 -11.33)"/>
  <rect x="0.18" y="56.4" width="57.57" height="14.14" fill="none"/>
  <path d="M139.9,78.45h-1.79c-.33,0-.63,0-.89,0v-.35h.53a1.65,1.65,0,0,0,.61-.07.46.46,0,0,0,.24-.46v-5.7a3.86,3.86,0,0,1-.6.19l-.61.1h-.24v-.35h.37a2.75,2.75,0,0,0,.56-.1,2.55,2.55,0,0,0,.53-.18l.29-.18.26-.23h.26v6.47a.45.45,0,0,0,.23.46,1.71,1.71,0,0,0,.63.07h.51v.35C140.53,78.47,140.23,78.46,139.9,78.45Z" transform="translate(-55.52 -11.33)"/>
  <path d="M146.21,77.22a2.52,2.52,0,0,1-.53.81,2.35,2.35,0,0,1-.77.51,2.26,2.26,0,0,1-.92.19,1.75,1.75,0,0,1-.79-.17,2,2,0,0,1-.65-.47,1.89,1.89,0,0,1-.41-.64,2.06,2.06,0,0,1-.14-.73.64.64,0,0,1,.14-.42.53.53,0,0,1,.41-.16.52.52,0,0,1,.39.14.54.54,0,0,1,.16.4.52.52,0,0,1-.17.39.51.51,0,0,1-.38.15h-.11l-.09,0a1.47,1.47,0,0,0,.22.48,1.43,1.43,0,0,0,.36.38,1.69,1.69,0,0,0,.49.27,1.36,1.36,0,0,0,.56.11,1.26,1.26,0,0,0,.68-.2,1.56,1.56,0,0,0,.5-.52,2.17,2.17,0,0,0,.22-.73,5.61,5.61,0,0,0,.05-.79,4.31,4.31,0,0,0,0-.7,2.26,2.26,0,0,0-.17-.68,1.36,1.36,0,0,0-.37-.5.87.87,0,0,0-.57-.21,1.67,1.67,0,0,0-.52.08,1.43,1.43,0,0,0-.56.32,1.07,1.07,0,0,0-.22.2l-.11.16-.06.08a.12.12,0,0,1-.09,0c-.08,0-.13,0-.15-.07a.51.51,0,0,1,0-.16V71.43a1,1,0,0,1,0-.25s.1,0,.23,0a3.28,3.28,0,0,0,.71.23,3.67,3.67,0,0,0,.75.08,3.19,3.19,0,0,0,.49,0,5.18,5.18,0,0,0,.56-.1l.36-.17.19-.06a.13.13,0,0,1,.08,0,.12.12,0,0,1,0,.1,1.1,1.1,0,0,1-.25.35,1.94,1.94,0,0,1-.29.25v0a2.85,2.85,0,0,1-.76.38,2.63,2.63,0,0,1-.83.14,2.49,2.49,0,0,1-.47,0,3.25,3.25,0,0,1-.47-.1v2.16a1.65,1.65,0,0,1,.32-.25,1,1,0,0,1,.33-.17,1.21,1.21,0,0,1,.37-.11,2.34,2.34,0,0,1,.38,0,1.89,1.89,0,0,1,.82.18,1.93,1.93,0,0,1,.68.53,2.36,2.36,0,0,1,.44.79,2.53,2.53,0,0,1,.17.91A2.33,2.33,0,0,1,146.21,77.22Z" transform="translate(-55.52 -11.33)"/>
  <rect x="57.75" y="56.4" width="57.69" height="14.14" fill="none"/>
  <path d="M85.89,91.25a3,3,0,0,1-.53.81,2.54,2.54,0,0,1-.78.5,2.23,2.23,0,0,1-.91.2,1.77,1.77,0,0,1-.8-.18,1.75,1.75,0,0,1-.65-.47,2.14,2.14,0,0,1-.41-.63,2.11,2.11,0,0,1-.14-.74.64.64,0,0,1,.14-.42.61.61,0,0,1,.8,0,.51.51,0,0,1,.16.4.54.54,0,0,1-.17.4.54.54,0,0,1-.38.15h-.11l-.08,0a1.39,1.39,0,0,0,.21.47,2.19,2.19,0,0,0,.36.39,2.62,2.62,0,0,0,.49.27,1.55,1.55,0,0,0,.56.11,1.19,1.19,0,0,0,.68-.21,1.56,1.56,0,0,0,.5-.52,2.09,2.09,0,0,0,.23-.73c0-.21,0-.47,0-.78a6,6,0,0,0,0-.7,2.18,2.18,0,0,0-.18-.68,1.38,1.38,0,0,0-.36-.51.9.9,0,0,0-.57-.2,1.74,1.74,0,0,0-.53.07,1.66,1.66,0,0,0-.56.32,1.49,1.49,0,0,0-.22.21l-.11.15-.06.09a.12.12,0,0,1-.09,0,.14.14,0,0,1-.15-.08.51.51,0,0,1,0-.16v-3.3a1,1,0,0,1,0-.25s.11,0,.23,0a3.26,3.26,0,0,0,.71.22,3.84,3.84,0,0,0,.76.08l.48,0a5,5,0,0,0,.56-.11l.37-.16.18-.07a.18.18,0,0,1,.09,0,.1.1,0,0,1,0,.09,1.24,1.24,0,0,1-.25.36l-.29.25v0a3.18,3.18,0,0,1-.76.38,2.63,2.63,0,0,1-.83.14,2.59,2.59,0,0,1-.47,0,3.12,3.12,0,0,1-.46-.09v2.15a3.09,3.09,0,0,1,.31-.25,1.3,1.3,0,0,1,.33-.17,1.58,1.58,0,0,1,.37-.11,2.38,2.38,0,0,1,.39,0,1.92,1.92,0,0,1,.82.18,2,2,0,0,1,.68.53,2.6,2.6,0,0,1,.44.8,2.47,2.47,0,0,1,.16.9A2.56,2.56,0,0,1,85.89,91.25Z" transform="translate(-55.52 -11.33)"/>
  <rect x="0.18" y="70.54" width="57.57" height="14.02" fill="none"/>
  <path d="M139.9,92.48h-1.79c-.33,0-.63,0-.89,0v-.34h.53a1.59,1.59,0,0,0,.61-.08.44.44,0,0,0,.24-.45V85.94a3,3,0,0,1-.6.19,3.7,3.7,0,0,1-.61.1h-.24v-.34h.16l.21,0a2.72,2.72,0,0,0,.56-.09,3.35,3.35,0,0,0,.53-.19,1.75,1.75,0,0,0,.29-.18l.26-.22h.26v6.47c0,.24.08.39.23.45a1.65,1.65,0,0,0,.63.08h.51v.34C140.53,92.5,140.23,92.48,139.9,92.48Z" transform="translate(-55.52 -11.33)"/>
  <path d="M146.09,92.52H142v-.26l2.24-2.51c.17-.2.31-.38.43-.55a6.64,6.64,0,0,0,.38-.6,3.83,3.83,0,0,0,.25-.62,2.25,2.25,0,0,0,.1-.66,2.3,2.3,0,0,0-.08-.66,1.82,1.82,0,0,0-.27-.58,1.49,1.49,0,0,0-.51-.43,1.36,1.36,0,0,0-.61-.13,1.53,1.53,0,0,0-.94.3,1.66,1.66,0,0,0-.56.82h.14a.6.6,0,0,1,.42.15.54.54,0,0,1,.17.43.56.56,0,0,1-.16.41.53.53,0,0,1-.41.17.56.56,0,0,1-.44-.18.65.65,0,0,1-.15-.44,2,2,0,0,1,.15-.75,2.25,2.25,0,0,1,.41-.61,1.8,1.8,0,0,1,.68-.48,2.18,2.18,0,0,1,.82-.15,2.63,2.63,0,0,1,.89.14,2.29,2.29,0,0,1,.79.45,2,2,0,0,1,.49.7,2,2,0,0,1,.18.85,2.3,2.3,0,0,1-.13.77,2.52,2.52,0,0,1-.41.67c-.17.19-.38.39-.61.61l-.6.57-.62.59-1.18,1.14h2.54a1,1,0,0,0,.42-.08.67.67,0,0,0,.19-.35c0-.1.05-.25.08-.45l0-.19h.28Z" transform="translate(-55.52 -11.33)"/>
  <rect x="57.75" y="70.54" width="57.69" height="14.02" fill="none"/>
  <path d="M86,105.25a2.33,2.33,0,0,1-.49.84,2.58,2.58,0,0,1-.74.51,2.11,2.11,0,0,1-.86.18,2,2,0,0,1-.87-.2,1.89,1.89,0,0,1-.67-.55,3.62,3.62,0,0,1-.62-1.45,6.84,6.84,0,0,1-.14-1.52,5.2,5.2,0,0,1,.2-1.51,4,4,0,0,1,.71-1.34,2.54,2.54,0,0,1,.87-.73,2.34,2.34,0,0,1,1.11-.28,1.88,1.88,0,0,1,.61.08,1.13,1.13,0,0,1,.45.26,1.17,1.17,0,0,1,.26.38,1.14,1.14,0,0,1,.09.46.54.54,0,0,1-.14.38.52.52,0,0,1-.74,0,.48.48,0,0,1-.14-.35A.46.46,0,0,1,85,100a.8.8,0,0,1,.44-.1.9.9,0,0,0-.44-.34,1.32,1.32,0,0,0-.53-.1,1.51,1.51,0,0,0-1.12.5,2.39,2.39,0,0,0-.6,1,4.65,4.65,0,0,0-.16.73,9.25,9.25,0,0,0,0,1v.26a1.78,1.78,0,0,1,.53-.78,1.26,1.26,0,0,1,.86-.31,2.21,2.21,0,0,1,.84.17,2.24,2.24,0,0,1,.71.53,2.15,2.15,0,0,1,.47.82,2.6,2.6,0,0,1,.16.93A2.55,2.55,0,0,1,86,105.25Zm-.82-1.1a6.57,6.57,0,0,0,0-.72,1.59,1.59,0,0,0-.16-.65,1.46,1.46,0,0,0-.41-.51,1,1,0,0,0-.6-.18,1,1,0,0,0-.62.17,1.36,1.36,0,0,0-.43.48,2.13,2.13,0,0,0-.25.63,3.69,3.69,0,0,0-.06.69c0,.21,0,.4,0,.57a4.93,4.93,0,0,0,.06.58,1.83,1.83,0,0,0,.38.86,1.07,1.07,0,0,0,.84.41,1.17,1.17,0,0,0,.66-.2,1.38,1.38,0,0,0,.43-.52,2.27,2.27,0,0,0,.16-.67,6.26,6.26,0,0,0,0-.69v-.25Z" transform="translate(-55.52 -11.33)"/>
  <rect x="0.18" y="84.57" width="57.57" height="14.03" fill="none"/>
  <path d="M139.9,106.5h-1.79l-.89,0v-.34h.53a1.41,1.41,0,0,0,.61-.08.44.44,0,0,0,.24-.45V100a3,3,0,0,1-.6.2l-.61.1h-.24v-.35h.37a3.66,3.66,0,0,0,.56-.1,2.55,2.55,0,0,0,.53-.18l.29-.18.26-.23h.26v6.47c0,.24.08.39.23.45a1.46,1.46,0,0,0,.63.08h.51v.34Z" transform="translate(-55.52 -11.33)"/>
  <path d="M146.45,104.28a4.26,4.26,0,0,1-.33,1.22,2.34,2.34,0,0,1-.78.94,1.94,1.94,0,0,1-1.14.34,2,2,0,0,1-.77-.15,1.8,1.8,0,0,1-.64-.41,2.77,2.77,0,0,1-.76-1.5,8.22,8.22,0,0,1-.15-1.71,8.76,8.76,0,0,1,.13-1.65,3.08,3.08,0,0,1,.68-1.49,1.93,1.93,0,0,1,.68-.51,2.06,2.06,0,0,1,.84-.16,2,2,0,0,1,.77.15,2.45,2.45,0,0,1,.66.44,2.79,2.79,0,0,1,.73,1.5,8.46,8.46,0,0,1,.15,1.72A8.93,8.93,0,0,1,146.45,104.28Zm-.85-2.5a8.87,8.87,0,0,0-.08-.89,2,2,0,0,0-.27-.82,1.52,1.52,0,0,0-.45-.46,1.09,1.09,0,0,0-.6-.17,1.15,1.15,0,0,0-.63.17,1.28,1.28,0,0,0-.43.46,2.07,2.07,0,0,0-.27.85,7.37,7.37,0,0,0-.06.9c0,.36,0,.74,0,1.13s0,.74,0,1.12a6.73,6.73,0,0,0,.06.91,2.76,2.76,0,0,0,.27.89,1.54,1.54,0,0,0,.43.48,1.11,1.11,0,0,0,.63.19,1,1,0,0,0,.63-.2,1.47,1.47,0,0,0,.46-.52,2.87,2.87,0,0,0,.22-.86c0-.23.06-.53.08-.89s0-.76,0-1.15,0-.76,0-1.16Z" transform="translate(-55.52 -11.33)"/>
  <rect x="57.75" y="84.57" width="57.69" height="14.03" fill="none"/>
  <path d="M82.21,120.65H80.42c-.33,0-.63,0-.89,0v-.35h.53a1.62,1.62,0,0,0,.61-.07.44.44,0,0,0,.24-.45v-5.71a2.92,2.92,0,0,1-.59.19,4,4,0,0,1-.62.1h-.24v-.35h.37a2.72,2.72,0,0,0,.56-.09,3.35,3.35,0,0,0,.53-.19,1.75,1.75,0,0,0,.29-.18l.26-.23h.26v6.48a.45.45,0,0,0,.23.45,1.71,1.71,0,0,0,.63.07h.52v.35C82.84,120.67,82.54,120.65,82.21,120.65Z" transform="translate(-55.52 -11.33)"/>
  <path d="M88.76,118.43a4.19,4.19,0,0,1-.33,1.21,2.21,2.21,0,0,1-.78.94,2,2,0,0,1-1.14.35,2,2,0,0,1-.77-.15,2,2,0,0,1-.64-.41,2.88,2.88,0,0,1-.76-1.5,8.35,8.35,0,0,1-.15-1.71,9.68,9.68,0,0,1,.13-1.65A3.08,3.08,0,0,1,85,114a1.79,1.79,0,0,1,.68-.5,2.07,2.07,0,0,1,.84-.17,1.91,1.91,0,0,1,.78.16,2.2,2.2,0,0,1,.65.44,2.87,2.87,0,0,1,.74,1.49,8.56,8.56,0,0,1,.15,1.73A8.83,8.83,0,0,1,88.76,118.43Zm-.85-2.5a6.35,6.35,0,0,0-.08-.89,1.83,1.83,0,0,0-.27-.82,1.45,1.45,0,0,0-.45-.47,1.16,1.16,0,0,0-.6-.17,1.24,1.24,0,0,0-.63.17,1.41,1.41,0,0,0-.43.47,2,2,0,0,0-.27.85c0,.24-.05.54-.06.89s0,.74,0,1.13,0,.75,0,1.12a6.88,6.88,0,0,0,.06.92,2.7,2.7,0,0,0,.27.88,1.71,1.71,0,0,0,.43.49,1.22,1.22,0,0,0,.63.19,1,1,0,0,0,.63-.21,1.43,1.43,0,0,0,.46-.51,2.87,2.87,0,0,0,.22-.86c0-.23.06-.53.08-.9s0-.76,0-1.15,0-.76,0-1.15Z" transform="translate(-55.52 -11.33)"/>
  <rect x="0.18" y="98.59" width="57.57" height="14.02" fill="none"/>
  <path d="M143.67,119.4a2.51,2.51,0,0,1-.49.84,2.36,2.36,0,0,1-.74.5,2,2,0,0,1-.86.19,1.86,1.86,0,0,1-.87-.21,1.79,1.79,0,0,1-.67-.55,3.64,3.64,0,0,1-.62-1.44,7,7,0,0,1-.15-1.53,5.25,5.25,0,0,1,.21-1.51,3.78,3.78,0,0,1,.71-1.33,2.57,2.57,0,0,1,.87-.74,2.47,2.47,0,0,1,1.11-.28,2.25,2.25,0,0,1,.61.08,1.29,1.29,0,0,1,.45.27,1.22,1.22,0,0,1,.26.38,1.3,1.3,0,0,1,.08.46.51.51,0,0,1-.14.38.5.5,0,0,1-.36.16.48.48,0,0,1-.37-.15.52.52,0,0,1-.14-.36.46.46,0,0,1,.17-.4.86.86,0,0,1,.43-.09.85.85,0,0,0-.43-.35,1.53,1.53,0,0,0-.54-.1,1.55,1.55,0,0,0-1.12.5,2.37,2.37,0,0,0-.59,1,4.92,4.92,0,0,0-.16.73,7.18,7.18,0,0,0,0,1v.26a1.67,1.67,0,0,1,.52-.77,1.32,1.32,0,0,1,.87-.32,2,2,0,0,1,.84.18,2.2,2.2,0,0,1,.71.52,2.38,2.38,0,0,1,.47.82,2.69,2.69,0,0,1,.16.94A2.55,2.55,0,0,1,143.67,119.4Zm-.82-1.1a6.32,6.32,0,0,0,0-.72,1.82,1.82,0,0,0-.16-.66,1.46,1.46,0,0,0-.41-.51,1,1,0,0,0-.6-.18,1.13,1.13,0,0,0-.62.17,1.4,1.4,0,0,0-.43.49,2.06,2.06,0,0,0-.25.62,3.85,3.85,0,0,0-.06.69c0,.22,0,.41,0,.57a4.93,4.93,0,0,0,.06.58,1.82,1.82,0,0,0,.38.87,1.06,1.06,0,0,0,.84.4,1.12,1.12,0,0,0,.66-.2,1.24,1.24,0,0,0,.43-.52,2.28,2.28,0,0,0,.16-.66c0-.16,0-.39,0-.69v-.25Z" transform="translate(-55.52 -11.33)"/>
  <rect x="57.75" y="98.59" width="57.69" height="14.02" fill="none"/>
  <path d="M82.21,134.67H80.42l-.89,0v-.34h.53a1.56,1.56,0,0,0,.61-.08.44.44,0,0,0,.24-.45v-5.71a2.91,2.91,0,0,1-.59.2,5.77,5.77,0,0,1-.62.09h-.24v-.34h.37a3.66,3.66,0,0,0,.56-.1,2.55,2.55,0,0,0,.53-.18l.29-.18.26-.23h.26v6.47c0,.24.08.39.23.45a1.65,1.65,0,0,0,.63.08h.52v.34Z" transform="translate(-55.52 -11.33)"/>
  <path d="M88.41,134.71h-4.1v-.25L86.55,132c.17-.2.31-.39.43-.55a5.07,5.07,0,0,0,.38-.61,3.5,3.5,0,0,0,.25-.62,2.2,2.2,0,0,0,0-1.31,1.78,1.78,0,0,0-.27-.59,1.33,1.33,0,0,0-1.12-.56,1.48,1.48,0,0,0-.94.31,1.69,1.69,0,0,0-.56.81h.14a.6.6,0,0,1,.42.15.62.62,0,0,1,0,.84.54.54,0,0,1-.41.18.55.55,0,0,1-.44-.19.63.63,0,0,1-.15-.44,1.92,1.92,0,0,1,.15-.74,2.16,2.16,0,0,1,.41-.62,1.91,1.91,0,0,1,.68-.48,2.18,2.18,0,0,1,.82-.15,2.86,2.86,0,0,1,.89.14,2.29,2.29,0,0,1,.79.45,2.06,2.06,0,0,1,.67,1.55,2.36,2.36,0,0,1-.13.78,2.57,2.57,0,0,1-.41.67l-.6.6-.61.57-.62.59-1.18,1.14h2.55a1.12,1.12,0,0,0,.42-.07.86.86,0,0,0,.18-.36q0-.13.09-.45l0-.18h.28Z" transform="translate(-55.52 -11.33)"/>
  <rect x="0.18" y="112.62" width="57.57" height="14.15" fill="none"/>
  <path d="M143.57,133.44a2.27,2.27,0,0,1-1.3,1.32,2.23,2.23,0,0,1-.92.19,1.92,1.92,0,0,1-1.44-.65,1.76,1.76,0,0,1-.41-.63,2.06,2.06,0,0,1-.14-.73.61.61,0,0,1,.14-.42.53.53,0,0,1,.41-.16.52.52,0,0,1,.39.14.5.5,0,0,1,.16.39.54.54,0,0,1-.17.4.55.55,0,0,1-.38.15h-.11a.13.13,0,0,1-.08,0,1.26,1.26,0,0,0,.21.48,1.61,1.61,0,0,0,.36.38,1.83,1.83,0,0,0,.49.27,1.55,1.55,0,0,0,.56.11,1.19,1.19,0,0,0,.68-.21,1.53,1.53,0,0,0,.5-.51,2,2,0,0,0,.22-.73,5.61,5.61,0,0,0,0-.79,4.23,4.23,0,0,0,0-.7,1.94,1.94,0,0,0-.17-.68,1.38,1.38,0,0,0-.36-.51,1,1,0,0,0-.57-.2,1.74,1.74,0,0,0-.53.08,1.51,1.51,0,0,0-.56.32,1.07,1.07,0,0,0-.22.2l-.11.15a.26.26,0,0,1-.06.09.12.12,0,0,1-.09,0c-.08,0-.13,0-.15-.07a.57.57,0,0,1,0-.16v-3.31a1,1,0,0,1,0-.25s.11,0,.23,0a3.28,3.28,0,0,0,.71.23,3.74,3.74,0,0,0,.75.07,3.33,3.33,0,0,0,.49,0,3.65,3.65,0,0,0,.56-.11l.37-.16.18-.06a.16.16,0,0,1,.09,0,.16.16,0,0,1,0,.1,1.1,1.1,0,0,1-.25.35,2.77,2.77,0,0,1-.29.25v0a2.85,2.85,0,0,1-.76.38,2.63,2.63,0,0,1-.83.14,2.49,2.49,0,0,1-.47,0l-.46-.1v2.15a1.62,1.62,0,0,1,.31-.24,1.35,1.35,0,0,1,.33-.18,1.56,1.56,0,0,1,.37-.1,1.61,1.61,0,0,1,.39,0,1.83,1.83,0,0,1,.82.19,2,2,0,0,1,.67.52,2.54,2.54,0,0,1,.45.8,2.76,2.76,0,0,1,.16.91A2.33,2.33,0,0,1,143.57,133.44Z" transform="translate(-55.52 -11.33)"/>
  <rect x="57.75" y="112.62" width="57.69" height="14.15" fill="none"/>
  <path d="M82.21,148.7H80.42c-.33,0-.63,0-.89,0v-.35h.53a1.62,1.62,0,0,0,.61-.07.44.44,0,0,0,.24-.45v-5.71a2.92,2.92,0,0,1-.59.19,4,4,0,0,1-.62.1h-.24v-.35h.37a2.72,2.72,0,0,0,.56-.09,3.35,3.35,0,0,0,.53-.19,2.82,2.82,0,0,0,.29-.18l.26-.23h.26v6.48a.45.45,0,0,0,.23.45,1.71,1.71,0,0,0,.63.07h.52v.35C82.84,148.72,82.54,148.7,82.21,148.7Z" transform="translate(-55.52 -11.33)"/>
  <path d="M88.52,147.47a2.73,2.73,0,0,1-.52.81,2.67,2.67,0,0,1-.78.5,2.24,2.24,0,0,1-.92.2,2,2,0,0,1-1.44-.65,1.89,1.89,0,0,1-.41-.64,2,2,0,0,1-.14-.73.64.64,0,0,1,.14-.42.53.53,0,0,1,.41-.16.56.56,0,0,1,.39.14.51.51,0,0,1,.16.4.54.54,0,0,1-.17.4.55.55,0,0,1-.38.15h-.11l-.08,0a1.29,1.29,0,0,0,.21.47,1.87,1.87,0,0,0,.36.39,2.62,2.62,0,0,0,.49.27,1.54,1.54,0,0,0,.56.1,1.18,1.18,0,0,0,.68-.2,1.56,1.56,0,0,0,.5-.52,1.91,1.91,0,0,0,.22-.73,5.61,5.61,0,0,0,0-.79,6.29,6.29,0,0,0,0-.7,2.19,2.19,0,0,0-.18-.67,1.38,1.38,0,0,0-.36-.51.91.91,0,0,0-.57-.21,1.74,1.74,0,0,0-.53.08,1.51,1.51,0,0,0-.56.32,1.49,1.49,0,0,0-.22.21l-.11.15-.06.08a.1.1,0,0,1-.09,0,.14.14,0,0,1-.15-.08.51.51,0,0,1,0-.16v-3.31a.9.9,0,0,1,0-.24s.11,0,.23,0a3.26,3.26,0,0,0,.71.22,3.74,3.74,0,0,0,.75.08l.49,0a5.46,5.46,0,0,0,.56-.11l.37-.16.18-.07a.12.12,0,0,1,.09,0,.13.13,0,0,1,0,.09,1.24,1.24,0,0,1-.25.36l-.29.25v0a2.82,2.82,0,0,1-.76.37,2.37,2.37,0,0,1-.83.14,2.56,2.56,0,0,1-.47,0,2.07,2.07,0,0,1-.46-.1v2.16a1.7,1.7,0,0,1,.31-.25,1,1,0,0,1,.33-.17,1.58,1.58,0,0,1,.37-.11,2.38,2.38,0,0,1,.39,0,2,2,0,0,1,.82.18,2,2,0,0,1,.67.53,2.43,2.43,0,0,1,.45.8,2.66,2.66,0,0,1,.16.9A2.38,2.38,0,0,1,88.52,147.47Z" transform="translate(-55.52 -11.33)"/>
  <rect x="0.18" y="126.76" width="57.57" height="14.02" fill="none"/>
  <path d="M142.91,146.92v1c0,.23.06.37.18.44a1.16,1.16,0,0,0,.52.07H144v.35c-.23,0-.48,0-.75,0h-1.5c-.28,0-.53,0-.74,0v-.35h.34a1.49,1.49,0,0,0,.54-.06.48.48,0,0,0,.18-.45v-1h-2.93v-.35l3.39-5.17a.31.31,0,0,1,.08-.1.28.28,0,0,1,.14,0q.12,0,.15.06a.34.34,0,0,1,0,.17v5.06H144v.35Zm-.79-4.46-2.68,4.11h2.68Z" transform="translate(-55.52 -11.33)"/>
  <rect x="57.75" y="126.76" width="57.69" height="14.02" fill="none"/>
  <path d="M83.13,162.76H79v-.25L81.27,160l.44-.55a5,5,0,0,0,.37-.61,3.5,3.5,0,0,0,.25-.62,2.28,2.28,0,0,0,.11-.66,2.34,2.34,0,0,0-.09-.66,1.63,1.63,0,0,0-.27-.58,1.57,1.57,0,0,0-.5-.43,1.6,1.6,0,0,0-.62-.13,1.53,1.53,0,0,0-.94.3,1.85,1.85,0,0,0-.56.82h.14A.57.57,0,0,1,80,157a.55.55,0,0,1,.18.43.6.6,0,0,1-.16.41.57.57,0,0,1-.41.18.59.59,0,0,1-.45-.19.63.63,0,0,1-.15-.44,1.92,1.92,0,0,1,.15-.74,2.16,2.16,0,0,1,.41-.62,2,2,0,0,1,.68-.48,2.21,2.21,0,0,1,.82-.15,2.93,2.93,0,0,1,.9.14,2.34,2.34,0,0,1,.78.45,2.12,2.12,0,0,1,.13,3c-.17.19-.37.39-.6.61s-.32.31-.61.57l-.62.59-1.17,1.14h2.54a1.12,1.12,0,0,0,.42-.07.86.86,0,0,0,.18-.36l.09-.45,0-.18h.28Z" transform="translate(-55.52 -11.33)"/>
  <path d="M88.76,160.5a4.26,4.26,0,0,1-.33,1.22,2.34,2.34,0,0,1-.78.94,1.94,1.94,0,0,1-1.14.34,2,2,0,0,1-.77-.15,1.8,1.8,0,0,1-.64-.41,2.88,2.88,0,0,1-.76-1.5,8.22,8.22,0,0,1-.15-1.71,9.68,9.68,0,0,1,.13-1.65,3.08,3.08,0,0,1,.68-1.49,1.93,1.93,0,0,1,.68-.51,2.19,2.19,0,0,1,1.62,0A2.41,2.41,0,0,1,88,156a2.86,2.86,0,0,1,.74,1.5,8.46,8.46,0,0,1,.15,1.72A8.83,8.83,0,0,1,88.76,160.5Zm-.85-2.5a6.5,6.5,0,0,0-.08-.89,1.83,1.83,0,0,0-.27-.82,1.42,1.42,0,0,0-.45-.46,1.07,1.07,0,0,0-.6-.17,1.15,1.15,0,0,0-.63.17,1.37,1.37,0,0,0-.43.46,2,2,0,0,0-.27.85c0,.25-.05.54-.06.9s0,.74,0,1.13,0,.74,0,1.12a6.73,6.73,0,0,0,.06.91,2.62,2.62,0,0,0,.27.88,1.48,1.48,0,0,0,.43.49,1.13,1.13,0,0,0,.63.19,1,1,0,0,0,.63-.2,1.46,1.46,0,0,0,.46-.52,2.87,2.87,0,0,0,.22-.86c0-.23.06-.53.08-.89s0-.76,0-1.16,0-.75,0-1.15Z" transform="translate(-55.52 -11.33)"/>
  <rect x="0.18" y="140.79" width="57.57" height="14.03" fill="none"/>
  <path d="M143.67,161.68a2.28,2.28,0,0,1-.48.67,2.56,2.56,0,0,1-.79.49,2.53,2.53,0,0,1-.91.16,3.15,3.15,0,0,1-.44,0,2.59,2.59,0,0,1-.4-.09,2.11,2.11,0,0,1-1-.58,1.47,1.47,0,0,1-.41-1,.73.73,0,0,1,.16-.48.68.68,0,0,1,.9,0,.61.61,0,0,1,.17.46.58.58,0,0,1-.21.47.66.66,0,0,1-.51.13,1.48,1.48,0,0,0,.7.61,2.31,2.31,0,0,0,1,.23.91.91,0,0,0,.43-.1,1.15,1.15,0,0,0,.37-.25,1.77,1.77,0,0,0,.35-.7,3,3,0,0,0,.09-.77,2.49,2.49,0,0,0,0-.4,2.75,2.75,0,0,0-.05-.34,1.6,1.6,0,0,0-.42-.8,1.12,1.12,0,0,0-.81-.29h-.52l-.16,0a.13.13,0,0,1-.08-.12.14.14,0,0,1,0-.12h.43l.34,0a1,1,0,0,0,.58-.35,1.54,1.54,0,0,0,.35-.59c0-.18.07-.33.1-.44a2.39,2.39,0,0,0,0-.44,1.69,1.69,0,0,0-.08-.53.85.85,0,0,0-.28-.45.79.79,0,0,0-.34-.2,1.38,1.38,0,0,0-.37-.05,2.31,2.31,0,0,0-.37,0,1.83,1.83,0,0,0-.79.32,1.15,1.15,0,0,0-.3.33h.18a.61.61,0,0,1,.38.16.54.54,0,0,1,.13.38.53.53,0,0,1-.16.39.58.58,0,0,1-.82,0,.55.55,0,0,1-.15-.4,1.27,1.27,0,0,1,.35-.89,1.82,1.82,0,0,1,.82-.49,1.41,1.41,0,0,1,.38-.1l.41,0a2.57,2.57,0,0,1,.73.1,2.22,2.22,0,0,1,.66.31,1.71,1.71,0,0,1,.46.47,1.21,1.21,0,0,1,.18.64,1.53,1.53,0,0,1-.13.62,2.08,2.08,0,0,1-.31.56,2,2,0,0,1-.5.45,2.73,2.73,0,0,1-.61.32,2.31,2.31,0,0,1,1,.44,2.12,2.12,0,0,1,.68.88,2.66,2.66,0,0,1,.09.32,1.5,1.5,0,0,1,0,.35A1.9,1.9,0,0,1,143.67,161.68Z" transform="translate(-55.52 -11.33)"/>
  <rect x="57.75" y="140.79" width="57.69" height="14.03" fill="none"/>
  <path d="M83.34,175.82a2.33,2.33,0,0,1-.48.68,2.27,2.27,0,0,1-.79.48,2.51,2.51,0,0,1-.9.16,2.94,2.94,0,0,1-.44,0l-.4-.08a2.1,2.1,0,0,1-1-.59,1.41,1.41,0,0,1-.41-1,.68.68,0,0,1,.15-.47.58.58,0,0,1,.46-.17A.57.57,0,0,1,80,175a.63.63,0,0,1,0,.92.61.61,0,0,1-.51.13,1.54,1.54,0,0,0,.7.62,2.38,2.38,0,0,0,1,.22,1.07,1.07,0,0,0,.43-.09,1.23,1.23,0,0,0,.36-.25,1.71,1.71,0,0,0,.35-.7,3.1,3.1,0,0,0,.09-.78,2.49,2.49,0,0,0,0-.4,3.07,3.07,0,0,0,0-.34,1.64,1.64,0,0,0-.42-.8,1.16,1.16,0,0,0-.81-.29h-.52a.37.37,0,0,1-.16,0,.11.11,0,0,1-.07-.12.15.15,0,0,1,0-.12h.43l.35,0a1,1,0,0,0,.58-.34,1.56,1.56,0,0,0,.34-.6,4.21,4.21,0,0,0,.1-.44,2.32,2.32,0,0,0,0-.44,1.7,1.7,0,0,0-.07-.53,1.12,1.12,0,0,0-.28-.45.8.8,0,0,0-.35-.19,1,1,0,0,0-.36-.06,1.64,1.64,0,0,0-.38,0l-.38.09a1.81,1.81,0,0,0-.41.23,1,1,0,0,0-.3.32h.18a.67.67,0,0,1,.38.16.52.52,0,0,1,.13.38.51.51,0,0,1-.16.4.52.52,0,0,1-.4.16.54.54,0,0,1-.42-.16.58.58,0,0,1-.15-.41,1.29,1.29,0,0,1,.35-.88,1.84,1.84,0,0,1,.82-.5l.38-.1.41,0a3,3,0,0,1,.73.1,2.23,2.23,0,0,1,.66.31,1.74,1.74,0,0,1,.46.48,1.22,1.22,0,0,1,.19.63,1.77,1.77,0,0,1-.13.63,3,3,0,0,1-.32.56,2.45,2.45,0,0,1-.5.45,2.69,2.69,0,0,1-.61.31,2.38,2.38,0,0,1,1,.44,2.09,2.09,0,0,1,.69.89c0,.11.06.22.08.32a1.47,1.47,0,0,1,0,.34A1.74,1.74,0,0,1,83.34,175.82Z" transform="translate(-55.52 -11.33)"/>
  <path d="M88.76,174.65a4.19,4.19,0,0,1-.33,1.21,2.21,2.21,0,0,1-.78.94,1.94,1.94,0,0,1-1.14.34,2,2,0,0,1-.77-.15,1.8,1.8,0,0,1-.64-.41,2.81,2.81,0,0,1-.76-1.49,8.35,8.35,0,0,1-.15-1.71,9.68,9.68,0,0,1,.13-1.65,3.08,3.08,0,0,1,.68-1.5,1.93,1.93,0,0,1,.68-.51,2.24,2.24,0,0,1,.84-.16,2.08,2.08,0,0,1,.78.15,2.24,2.24,0,0,1,.65.45,2.83,2.83,0,0,1,.74,1.49,8.56,8.56,0,0,1,.15,1.73A8.83,8.83,0,0,1,88.76,174.65Zm-.85-2.5a6.66,6.66,0,0,0-.08-.9,1.83,1.83,0,0,0-.27-.81,1.36,1.36,0,0,0-.45-.47,1.16,1.16,0,0,0-.6-.17,1.24,1.24,0,0,0-.63.17,1.41,1.41,0,0,0-.43.47,2,2,0,0,0-.27.85c0,.24-.05.54-.06.89s0,.74,0,1.13,0,.75,0,1.12a6.88,6.88,0,0,0,.06.92,2.78,2.78,0,0,0,.27.88,1.54,1.54,0,0,0,.43.48,1.14,1.14,0,0,0,.63.2,1,1,0,0,0,.63-.21,1.43,1.43,0,0,0,.46-.51,2.86,2.86,0,0,0,.22-.87c0-.22.06-.52.08-.89s0-.76,0-1.15,0-.76,0-1.15Z" transform="translate(-55.52 -11.33)"/>
  <rect x="0.18" y="154.81" width="57.57" height="14.02" fill="none"/>
  <path d="M143.46,176.91h-4.1v-.26l2.24-2.51c.17-.2.31-.38.43-.55a5,5,0,0,0,.38-.6,3.92,3.92,0,0,0,.25-.63,2.19,2.19,0,0,0,0-1.31,1.72,1.72,0,0,0-.27-.58,1.4,1.4,0,0,0-.51-.43,1.36,1.36,0,0,0-.61-.13,1.53,1.53,0,0,0-.94.3,1.68,1.68,0,0,0-.56.82h.14a.6.6,0,0,1,.42.15.54.54,0,0,1,.17.43.57.57,0,0,1-.16.41.57.57,0,0,1-.41.17.57.57,0,0,1-.44-.18.65.65,0,0,1-.15-.44,2,2,0,0,1,.15-.75,2.11,2.11,0,0,1,.41-.61,1.91,1.91,0,0,1,.68-.49,2.18,2.18,0,0,1,.82-.15,2.86,2.86,0,0,1,.89.14,2.16,2.16,0,0,1,.79.46,2,2,0,0,1,.5.7,2.11,2.11,0,0,1,.17.85,2.34,2.34,0,0,1-.13.77,2.42,2.42,0,0,1-.41.67,8.47,8.47,0,0,1-.6.6l-.61.57-.62.6-1.18,1.14h2.55a1,1,0,0,0,.42-.08.75.75,0,0,0,.18-.35l.09-.46,0-.18h.28Z" transform="translate(-55.52 -11.33)"/>
  <rect x="57.75" y="154.81" width="57.69" height="14.02" fill="none"/>
  <path d="M83.34,189.64a2.51,2.51,0,0,1-.49.84,2.68,2.68,0,0,1-.73.51,2.19,2.19,0,0,1-.87.18,1.86,1.86,0,0,1-.87-.21,1.76,1.76,0,0,1-.67-.54,3.62,3.62,0,0,1-.62-1.45,7,7,0,0,1-.14-1.53,5.5,5.5,0,0,1,.2-1.5,4,4,0,0,1,.71-1.34,2.38,2.38,0,0,1,.88-.73,2.29,2.29,0,0,1,1.11-.28,2.15,2.15,0,0,1,.6.07,1.29,1.29,0,0,1,.45.27,1.17,1.17,0,0,1,.26.38,1.14,1.14,0,0,1,.09.46.56.56,0,0,1-.14.38.49.49,0,0,1-.37.16.5.5,0,0,1-.37-.15.49.49,0,0,1-.14-.36.43.43,0,0,1,.18-.39.74.74,0,0,1,.43-.1.94.94,0,0,0-.43-.35,1.61,1.61,0,0,0-.54-.09,1.5,1.5,0,0,0-1.12.49,2.43,2.43,0,0,0-.6,1,4.65,4.65,0,0,0-.16.73,9.25,9.25,0,0,0,0,.95v.25a1.74,1.74,0,0,1,.53-.77,1.26,1.26,0,0,1,.86-.31,2,2,0,0,1,.84.17,2.24,2.24,0,0,1,.71.53,2.19,2.19,0,0,1,.47.81,2.7,2.7,0,0,1,.17.94A2.56,2.56,0,0,1,83.34,189.64Zm-.82-1.1a6.45,6.45,0,0,0,0-.72,1.68,1.68,0,0,0-.16-.66,1.33,1.33,0,0,0-.41-.5,1,1,0,0,0-.6-.19,1.08,1.08,0,0,0-.62.18,1.46,1.46,0,0,0-.43.48,2.3,2.3,0,0,0-.25.63,3.66,3.66,0,0,0-.06.68c0,.22,0,.41,0,.57a3.53,3.53,0,0,0,.07.59,1.73,1.73,0,0,0,.37.86,1.07,1.07,0,0,0,.84.41,1.08,1.08,0,0,0,.66-.21,1.28,1.28,0,0,0,.43-.51,2.35,2.35,0,0,0,.16-.67,6.26,6.26,0,0,0,0-.69v-.25Z" transform="translate(-55.52 -11.33)"/>
  <path d="M88.76,188.67a4.26,4.26,0,0,1-.33,1.22,2.24,2.24,0,0,1-.78.93,2,2,0,0,1-1.14.35,2,2,0,0,1-.77-.15,1.8,1.8,0,0,1-.64-.41,2.88,2.88,0,0,1-.76-1.5,8.28,8.28,0,0,1-.15-1.71,9.68,9.68,0,0,1,.13-1.65,3.08,3.08,0,0,1,.68-1.49,1.93,1.93,0,0,1,.68-.51,2.19,2.19,0,0,1,1.62,0,2.41,2.41,0,0,1,.65.44,2.86,2.86,0,0,1,.74,1.5,8.46,8.46,0,0,1,.15,1.72A8.83,8.83,0,0,1,88.76,188.67Zm-.85-2.5a6.5,6.5,0,0,0-.08-.89,1.83,1.83,0,0,0-.27-.82,1.32,1.32,0,0,0-.45-.46,1.08,1.08,0,0,0-.6-.18,1.16,1.16,0,0,0-.63.18,1.37,1.37,0,0,0-.43.46,2,2,0,0,0-.27.85c0,.24-.05.54-.06.89s0,.75,0,1.14,0,.74,0,1.12a6.73,6.73,0,0,0,.06.91,2.7,2.7,0,0,0,.27.88,1.58,1.58,0,0,0,.43.49,1.13,1.13,0,0,0,.63.19,1.05,1.05,0,0,0,.63-.2,1.46,1.46,0,0,0,.46-.52,2.87,2.87,0,0,0,.22-.86c0-.23.06-.53.08-.89s0-.76,0-1.16,0-.75,0-1.15Z" transform="translate(-55.52 -11.33)"/>
  <rect x="0.18" y="168.84" width="57.57" height="14.14" fill="none"/>
  <path d="M142.54,190.89h-1.79l-.89,0v-.34h.52a1.62,1.62,0,0,0,.62-.08.44.44,0,0,0,.24-.45v-5.71a3,3,0,0,1-.6.2,5.58,5.58,0,0,1-.61.09h-.24v-.34h.37a3.89,3.89,0,0,0,.56-.1,2.76,2.76,0,0,0,.53-.18l.29-.19a2.75,2.75,0,0,0,.26-.22h.25v6.47q0,.36.24.45a1.65,1.65,0,0,0,.63.08h.51v.34Z" transform="translate(-55.52 -11.33)"/>
  <rect x="57.75" y="168.84" width="57.69" height="14.14" fill="none"/>
  <path d="M83.82,201.59a.62.62,0,0,1-.24,0H77.19a.72.72,0,0,1-.26,0,.17.17,0,0,1-.11-.18.21.21,0,0,1,.12-.21l.26,0h6.36l.25,0a.21.21,0,0,1,.13.21A.17.17,0,0,1,83.82,201.59Z" transform="translate(-55.52 -11.33)"/>
  <path d="M89.77,204.91H88l-.89.05v-.35h.52a1.68,1.68,0,0,0,.62-.07.45.45,0,0,0,.23-.46v-5.7a2.92,2.92,0,0,1-.59.19,5.55,5.55,0,0,1-.61.1H87v-.35h.37a2.28,2.28,0,0,0,.56-.1,2.76,2.76,0,0,0,.53-.18l.29-.18a1.84,1.84,0,0,0,.25-.23h.26v6.47a.44.44,0,0,0,.24.46,1.71,1.71,0,0,0,.63.07h.51V205Z" transform="translate(-55.52 -11.33)"/>
  <rect x="0.18" y="182.98" width="57.57" height="14.02" fill="none"/>
  <path d="M138.87,201.59a.62.62,0,0,1-.24,0h-6.39a.72.72,0,0,1-.26,0,.18.18,0,0,1-.11-.18.21.21,0,0,1,.12-.21l.26,0h6.36l.25,0a.21.21,0,0,1,.13.21A.17.17,0,0,1,138.87,201.59Z" transform="translate(-55.52 -11.33)"/>
  <path d="M146,203.66a2.48,2.48,0,0,1-.5.85,2.21,2.21,0,0,1-.73.5,2.11,2.11,0,0,1-.86.18,1.85,1.85,0,0,1-.87-.2,1.79,1.79,0,0,1-.67-.55,3.65,3.65,0,0,1-.63-1.44,7.67,7.67,0,0,1-.14-1.53,5.25,5.25,0,0,1,.21-1.51,3.92,3.92,0,0,1,.71-1.34,2.54,2.54,0,0,1,.87-.73,2.4,2.4,0,0,1,1.11-.28,2.13,2.13,0,0,1,.6.08,1.24,1.24,0,0,1,.46.27,1.31,1.31,0,0,1,.26.37,1.36,1.36,0,0,1,.08.47.49.49,0,0,1-.14.37.48.48,0,0,1-.36.17.46.46,0,0,1-.37-.16.48.48,0,0,1-.14-.35.46.46,0,0,1,.17-.4.85.85,0,0,1,.43-.1A.83.83,0,0,0,145,198a1.33,1.33,0,0,0-.54-.1,1.55,1.55,0,0,0-1.12.5,2.37,2.37,0,0,0-.59,1,3.91,3.91,0,0,0-.16.73,7.12,7.12,0,0,0-.06,1v.26a1.86,1.86,0,0,1,.53-.78,1.28,1.28,0,0,1,.86-.31,2.14,2.14,0,0,1,.84.17,2.32,2.32,0,0,1,.72.53,2.45,2.45,0,0,1,.47.82,2.65,2.65,0,0,1,.16.94A2.75,2.75,0,0,1,146,203.66Zm-.82-1.09a6.32,6.32,0,0,0,0-.72,1.77,1.77,0,0,0-.16-.66,1.58,1.58,0,0,0-.41-.51,1.07,1.07,0,0,0-.61-.18,1.12,1.12,0,0,0-.61.17,1.32,1.32,0,0,0-.43.49,2.06,2.06,0,0,0-.25.62,3.77,3.77,0,0,0-.06.69c0,.21,0,.41,0,.57a3.44,3.44,0,0,0,.06.58,1.7,1.7,0,0,0,.38.86,1,1,0,0,0,.84.41,1.19,1.19,0,0,0,.66-.2,1.31,1.31,0,0,0,.43-.52,2.27,2.27,0,0,0,.16-.67c0-.15,0-.38,0-.69v-.24Z" transform="translate(-55.52 -11.33)"/>
  <path d="M151.25,202.7a4,4,0,0,1-.34,1.21,2.18,2.18,0,0,1-.77.94,2,2,0,0,1-1.15.34,2,2,0,0,1-.76-.15,1.93,1.93,0,0,1-.65-.41,2.73,2.73,0,0,1-.75-1.49,8.35,8.35,0,0,1-.15-1.71,8.76,8.76,0,0,1,.13-1.65,3,3,0,0,1,.68-1.5,1.85,1.85,0,0,1,.68-.51,2.23,2.23,0,0,1,.83-.16,2,2,0,0,1,.78.15,2.45,2.45,0,0,1,.66.44,2.86,2.86,0,0,1,.73,1.5,8.56,8.56,0,0,1,.15,1.73A9.11,9.11,0,0,1,151.25,202.7Zm-.85-2.5a8.83,8.83,0,0,0-.08-.9,2.18,2.18,0,0,0-.27-.82,1.52,1.52,0,0,0-.45-.46,1.2,1.2,0,0,0-1.23,0,1.28,1.28,0,0,0-.43.46,2.07,2.07,0,0,0-.27.86,6.85,6.85,0,0,0-.07.89c0,.37,0,.74,0,1.13s0,.75,0,1.12a6.86,6.86,0,0,0,.07.92,2.78,2.78,0,0,0,.27.88,1.43,1.43,0,0,0,.43.48,1.09,1.09,0,0,0,.62.2,1,1,0,0,0,.64-.21,1.41,1.41,0,0,0,.45-.51,2.91,2.91,0,0,0,.23-.87c0-.23.05-.52.07-.89s0-.76,0-1.15,0-.76,0-1.15Z" transform="translate(-55.52 -11.33)"/>
  <rect x="57.75" y="182.98" width="57.69" height="14.02" fill="none"/>
  <path d="M83.82,215.74a.62.62,0,0,1-.24,0H77.19a.72.72,0,0,1-.26,0c-.08,0-.11-.09-.11-.19a.19.19,0,0,1,.12-.2.83.83,0,0,1,.26,0h6.36a.79.79,0,0,1,.25,0,.19.19,0,0,1,.13.2A.18.18,0,0,1,83.82,215.74Z" transform="translate(-55.52 -11.33)"/>
  <path d="M90.68,219H86.59v-.26l2.24-2.51c.17-.2.31-.38.43-.55a5,5,0,0,0,.38-.6,3.5,3.5,0,0,0,.25-.62,2.25,2.25,0,0,0,.1-.66,2.3,2.3,0,0,0-.08-.66,1.82,1.82,0,0,0-.27-.58,1.4,1.4,0,0,0-.51-.43,1.36,1.36,0,0,0-.61-.13,1.53,1.53,0,0,0-.94.3,1.72,1.72,0,0,0-.56.82h.14a.6.6,0,0,1,.42.15.54.54,0,0,1,.17.43.56.56,0,0,1-.16.41.53.53,0,0,1-.41.17.57.57,0,0,1-.44-.18.63.63,0,0,1-.15-.44,1.92,1.92,0,0,1,.15-.74,2.16,2.16,0,0,1,.41-.62,1.8,1.8,0,0,1,.68-.48,2.18,2.18,0,0,1,.82-.15,2.63,2.63,0,0,1,.89.14,2.29,2.29,0,0,1,.79.45,2,2,0,0,1,.49.7,2,2,0,0,1,.18.85,2.26,2.26,0,0,1-.13.77,2.52,2.52,0,0,1-.41.67c-.17.19-.38.39-.61.61l-.6.57-.62.59-1.18,1.14H90a1,1,0,0,0,.43-.08.75.75,0,0,0,.18-.35c0-.09.05-.25.08-.45l0-.19H91Z" transform="translate(-55.52 -11.33)"/>
  <rect x="0.18" y="197.01" width="57.57" height="14.03" fill="none"/>
  <path d="M138.87,215.74a.62.62,0,0,1-.24,0h-6.39a.72.72,0,0,1-.26,0,.18.18,0,0,1-.11-.19.19.19,0,0,1,.12-.2.83.83,0,0,1,.26,0h6.36a.79.79,0,0,1,.25,0,.19.19,0,0,1,.13.2A.18.18,0,0,1,138.87,215.74Z" transform="translate(-55.52 -11.33)"/>
  <path d="M146,217.89a2.08,2.08,0,0,1-.49.68,2.4,2.4,0,0,1-.78.49,2.76,2.76,0,0,1-.91.16,3,3,0,0,1-.44,0,4,4,0,0,1-.4-.09,2.19,2.19,0,0,1-1-.58,1.49,1.49,0,0,1-.41-1,.71.71,0,0,1,.15-.48.64.64,0,0,1,.47-.17.62.62,0,0,1,.44.17.64.64,0,0,1,.17.45.59.59,0,0,1-.21.48.66.66,0,0,1-.51.13,1.48,1.48,0,0,0,.7.61,2.31,2.31,0,0,0,1,.23,1,1,0,0,0,.43-.1,1.15,1.15,0,0,0,.37-.25,1.64,1.64,0,0,0,.34-.7,2.66,2.66,0,0,0,.1-.77c0-.15,0-.29,0-.4s0-.25-.05-.35a1.61,1.61,0,0,0-.42-.79,1.12,1.12,0,0,0-.81-.29h-.52a.32.32,0,0,1-.16,0,.12.12,0,0,1-.08-.11.14.14,0,0,1,0-.12h.43l.34,0a1,1,0,0,0,.58-.34,1.54,1.54,0,0,0,.35-.59c0-.18.07-.33.09-.44a2.48,2.48,0,0,0,0-.45,1.62,1.62,0,0,0-.08-.52,1,1,0,0,0-.28-.46.88.88,0,0,0-.34-.19,1.07,1.07,0,0,0-.37-.05l-.38,0a1.86,1.86,0,0,0-.37.1,1.47,1.47,0,0,0-.41.22,1,1,0,0,0-.3.33h.18a.63.63,0,0,1,.38.16.57.57,0,0,1,0,.77.5.5,0,0,1-.39.16.54.54,0,0,1-.42-.16.54.54,0,0,1-.16-.41,1.26,1.26,0,0,1,.36-.88,1.82,1.82,0,0,1,.82-.49,1.41,1.41,0,0,1,.38-.1,2.55,2.55,0,0,1,.4,0,3,3,0,0,1,.74.09,2.24,2.24,0,0,1,.66.32,1.71,1.71,0,0,1,.46.47,1.21,1.21,0,0,1,.18.64,1.57,1.57,0,0,1-.13.62,1.94,1.94,0,0,1-.82,1,2.13,2.13,0,0,1-.6.31,2.35,2.35,0,0,1,1,.45,2.06,2.06,0,0,1,.69.88,2.23,2.23,0,0,1,.09.32,1.45,1.45,0,0,1,0,.35A1.82,1.82,0,0,1,146,217.89Z" transform="translate(-55.52 -11.33)"/>
  <path d="M151.25,216.72a4,4,0,0,1-.34,1.22,2.15,2.15,0,0,1-.77.93,2,2,0,0,1-1.15.35,2,2,0,0,1-.76-.15,2.1,2.1,0,0,1-.65-.41,2.8,2.8,0,0,1-.75-1.5,8.35,8.35,0,0,1-.15-1.71,8.76,8.76,0,0,1,.13-1.65,3.07,3.07,0,0,1,.68-1.5,1.82,1.82,0,0,1,.68-.5,2,2,0,0,1,.83-.16,2,2,0,0,1,.78.15,2.45,2.45,0,0,1,.66.44,2.86,2.86,0,0,1,.73,1.5,8.39,8.39,0,0,1,.15,1.72A9,9,0,0,1,151.25,216.72Zm-.85-2.5a8.34,8.34,0,0,0-.08-.89,2.11,2.11,0,0,0-.27-.82,1.42,1.42,0,0,0-.45-.46,1.14,1.14,0,0,0-1.23,0,1.2,1.2,0,0,0-.43.46,2,2,0,0,0-.27.85,6.85,6.85,0,0,0-.07.89c0,.37,0,.75,0,1.13s0,.75,0,1.12a6.74,6.74,0,0,0,.07.92,2.7,2.7,0,0,0,.27.88,1.47,1.47,0,0,0,.43.49,1.08,1.08,0,0,0,.62.19,1.1,1.1,0,0,0,.64-.2,1.53,1.53,0,0,0,.45-.52,2.84,2.84,0,0,0,.23-.86c0-.23.05-.53.07-.9s0-.75,0-1.15,0-.75,0-1.15Z" transform="translate(-55.52 -11.33)"/>
  <rect x="57.75" y="197.01" width="57.69" height="14.03" fill="none"/>
  <path d="M83.82,229.76a.62.62,0,0,1-.24,0H77.19a.72.72,0,0,1-.26,0,.17.17,0,0,1-.11-.18.21.21,0,0,1,.12-.21,1.34,1.34,0,0,1,.26,0h6.36l.25,0a.21.21,0,0,1,.13.21A.17.17,0,0,1,83.82,229.76Z" transform="translate(-55.52 -11.33)"/>
  <path d="M90.9,232a2.33,2.33,0,0,1-.48.68,2.36,2.36,0,0,1-.79.48,2.53,2.53,0,0,1-.91.16,3,3,0,0,1-.44,0,2.35,2.35,0,0,1-.4-.09,2.11,2.11,0,0,1-1-.58,1.45,1.45,0,0,1-.41-1,.68.68,0,0,1,.15-.47.61.61,0,0,1,.47-.18.59.59,0,0,1,.44.18.61.61,0,0,1,.17.45.57.57,0,0,1-.21.47.62.62,0,0,1-.51.13,1.49,1.49,0,0,0,.7.62,2.3,2.3,0,0,0,1,.22.91.91,0,0,0,.43-.1,1.12,1.12,0,0,0,.37-.24,1.7,1.7,0,0,0,.34-.7,2.68,2.68,0,0,0,.1-.78c0-.15,0-.28,0-.4s0-.24,0-.34a1.64,1.64,0,0,0-.42-.8,1.16,1.16,0,0,0-.81-.29h-.52l-.16,0a.12.12,0,0,1-.08-.12.14.14,0,0,1,.05-.12h.43l.34,0a1,1,0,0,0,.58-.35,1.54,1.54,0,0,0,.35-.59c0-.18.07-.32.1-.44a3.59,3.59,0,0,0,0-.44,1.69,1.69,0,0,0-.08-.53,1,1,0,0,0-.28-.45.9.9,0,0,0-.34-.2,1.38,1.38,0,0,0-.37-.05l-.38,0a2.93,2.93,0,0,0-.37.1,1.5,1.5,0,0,0-.41.23,1,1,0,0,0-.3.32h.18a.7.7,0,0,1,.38.16.54.54,0,0,1,.13.38.53.53,0,0,1-.17.4.5.5,0,0,1-.39.16.54.54,0,0,1-.42-.16.56.56,0,0,1-.16-.41,1.28,1.28,0,0,1,.36-.89,2.41,2.41,0,0,1,1.2-.59l.41,0a2.57,2.57,0,0,1,.73.1,2.22,2.22,0,0,1,.66.31,1.86,1.86,0,0,1,.46.47,1.27,1.27,0,0,1,.18.64,1.5,1.5,0,0,1-.13.62,2.08,2.08,0,0,1-.31.56,2.53,2.53,0,0,1-.51.46,2.43,2.43,0,0,1-.6.31,2.23,2.23,0,0,1,1,.44,2.12,2.12,0,0,1,.69.88,2.77,2.77,0,0,1,.09.33,1.37,1.37,0,0,1,0,.34A1.9,1.9,0,0,1,90.9,232Z" transform="translate(-55.52 -11.33)"/>
  <rect x="0.18" y="211.03" width="57.57" height="14.02" fill="none"/>
  <path d="M138.87,229.76a.62.62,0,0,1-.24,0h-6.39a.72.72,0,0,1-.26,0,.18.18,0,0,1-.11-.18.21.21,0,0,1,.12-.21,1.34,1.34,0,0,1,.26,0h6.36l.25,0a.21.21,0,0,1,.13.21A.17.17,0,0,1,138.87,229.76Z" transform="translate(-55.52 -11.33)"/>
  <path d="M145.73,233.13h-4.09v-.26l2.24-2.51c.17-.2.31-.39.43-.55a5,5,0,0,0,.38-.6,3.92,3.92,0,0,0,.25-.63,2.43,2.43,0,0,0,0-1.31,1.72,1.72,0,0,0-.27-.58,1.49,1.49,0,0,0-.51-.43,1.36,1.36,0,0,0-.61-.13,1.53,1.53,0,0,0-.94.3,1.61,1.61,0,0,0-.56.82l.14,0a.61.61,0,0,1,.42.16.53.53,0,0,1,.17.43.59.59,0,0,1-.16.41.57.57,0,0,1-.41.17.56.56,0,0,1-.44-.18.68.68,0,0,1-.15-.45,1.92,1.92,0,0,1,.15-.74,2.11,2.11,0,0,1,.41-.61,1.82,1.82,0,0,1,.68-.49,2.18,2.18,0,0,1,.82-.15,2.91,2.91,0,0,1,.89.14,2.29,2.29,0,0,1,.79.45,2.11,2.11,0,0,1,.49.7,2,2,0,0,1,.18.85,2.36,2.36,0,0,1-.13.78,2.88,2.88,0,0,1-.41.67c-.18.18-.38.39-.61.6l-.6.57-.62.59-1.18,1.14H145a1.12,1.12,0,0,0,.42-.07.71.71,0,0,0,.19-.36c0-.09,0-.24.08-.45l0-.18h.28Z" transform="translate(-55.52 -11.33)"/>
  <path d="M151.25,230.86a4,4,0,0,1-.34,1.22,2.18,2.18,0,0,1-.77.94,2,2,0,0,1-1.15.34,2,2,0,0,1-.76-.15,1.93,1.93,0,0,1-.65-.41,2.73,2.73,0,0,1-.75-1.49,8.39,8.39,0,0,1-.15-1.72,8.65,8.65,0,0,1,.13-1.64,3,3,0,0,1,.68-1.5,1.85,1.85,0,0,1,.68-.51,2.23,2.23,0,0,1,.83-.16,2,2,0,0,1,.78.15,2.45,2.45,0,0,1,.66.44,2.86,2.86,0,0,1,.73,1.5,8.46,8.46,0,0,1,.15,1.72A8.93,8.93,0,0,1,151.25,230.86Zm-.85-2.49a8.83,8.83,0,0,0-.08-.9,2.18,2.18,0,0,0-.27-.82,1.52,1.52,0,0,0-.45-.46,1.2,1.2,0,0,0-1.23,0,1.28,1.28,0,0,0-.43.46,2.07,2.07,0,0,0-.27.85,7.17,7.17,0,0,0-.07.9c0,.36,0,.74,0,1.13s0,.75,0,1.12a6.59,6.59,0,0,0,.07.91,2.76,2.76,0,0,0,.27.89,1.43,1.43,0,0,0,.43.48,1.09,1.09,0,0,0,.62.2,1,1,0,0,0,.64-.21,1.36,1.36,0,0,0,.45-.52,2.75,2.75,0,0,0,.23-.86c0-.23.05-.53.07-.89s0-.76,0-1.15,0-.76,0-1.16Z" transform="translate(-55.52 -11.33)"/>
  <rect x="57.75" y="211.03" width="57.69" height="14.02" fill="none"/>
  <path d="M83.82,243.79a.62.62,0,0,1-.24,0H77.19a.72.72,0,0,1-.26,0c-.08,0-.11-.09-.11-.19a.19.19,0,0,1,.12-.2.83.83,0,0,1,.26,0h6.36a.79.79,0,0,1,.25,0,.19.19,0,0,1,.13.2A.18.18,0,0,1,83.82,243.79Z" transform="translate(-55.52 -11.33)"/>
  <path d="M90.13,245.33v1c0,.23.07.38.19.44a1.1,1.1,0,0,0,.51.08h.38v.34c-.23,0-.48,0-.75,0H89c-.28,0-.53,0-.74,0v-.34h.34a1.42,1.42,0,0,0,.54-.07q.18-.09.18-.45v-1H86.35V245l3.39-5.17a.18.18,0,0,1,.22-.13q.12,0,.15.06a.37.37,0,0,1,0,.17V245h1.11v.34Zm-.78-4.46L86.67,245h2.68Z" transform="translate(-55.52 -11.33)"/>
  <rect x="0.18" y="225.05" width="57.57" height="14.15" fill="none"/>
  <path d="M138.87,243.79a.62.62,0,0,1-.24,0h-6.39a.72.72,0,0,1-.26,0,.18.18,0,0,1-.11-.19.19.19,0,0,1,.12-.2.83.83,0,0,1,.26,0h6.36a.79.79,0,0,1,.25,0,.19.19,0,0,1,.13.2A.18.18,0,0,1,138.87,243.79Z" transform="translate(-55.52 -11.33)"/>
  <path d="M144.82,247.11H143c-.33,0-.63,0-.9,0v-.34h.53a1.62,1.62,0,0,0,.62-.08.45.45,0,0,0,.23-.45v-5.71a2.92,2.92,0,0,1-.59.19,3.88,3.88,0,0,1-.61.1h-.24v-.34h.37a3.89,3.89,0,0,0,.56-.1,3.2,3.2,0,0,0,.52-.18l.3-.19a1.79,1.79,0,0,0,.25-.22h.26v6.47q0,.36.24.45a1.65,1.65,0,0,0,.63.08h.51v.34C145.45,247.13,145.15,247.11,144.82,247.11Z" transform="translate(-55.52 -11.33)"/>
  <path d="M151,245.88a2.76,2.76,0,0,1-.53.81,2.49,2.49,0,0,1-.77.5,2.28,2.28,0,0,1-.92.2,1.94,1.94,0,0,1-.8-.17,1.86,1.86,0,0,1-.64-.48,2,2,0,0,1-.41-.63,1.87,1.87,0,0,1-.14-.74.59.59,0,0,1,.14-.42.55.55,0,0,1,.41-.16.56.56,0,0,1,.38.14.53.53,0,0,1,.17.4.56.56,0,0,1-.55.55h-.11l-.09,0a1.43,1.43,0,0,0,.22.47,1.44,1.44,0,0,0,.35.39,2.7,2.7,0,0,0,.5.27,1.51,1.51,0,0,0,.56.11,1.21,1.21,0,0,0,.68-.21,1.53,1.53,0,0,0,.49-.52,1.9,1.9,0,0,0,.23-.73,5.75,5.75,0,0,0,0-.78,6,6,0,0,0,0-.7,2.5,2.5,0,0,0-.17-.68,1.53,1.53,0,0,0-.37-.51.92.92,0,0,0-.57-.2,1.79,1.79,0,0,0-.53.07,1.62,1.62,0,0,0-.56.33,1,1,0,0,0-.21.2,1,1,0,0,0-.11.15l-.07.09a.11.11,0,0,1-.08,0,.14.14,0,0,1-.15-.08s0-.08,0-.16v-3.3a.66.66,0,0,1,0-.25s.1,0,.22,0a4,4,0,0,0,.72.23,3.67,3.67,0,0,0,.75.07l.48,0a5.12,5.12,0,0,0,.57-.11l.36-.16.19-.06.08,0a.1.1,0,0,1,0,.09,1.07,1.07,0,0,1-.25.36,2.92,2.92,0,0,1-.29.25v0a3.11,3.11,0,0,1-.75.38,2.63,2.63,0,0,1-.83.14,2.42,2.42,0,0,1-.47,0,3,3,0,0,1-.47-.09v2.15a3.09,3.09,0,0,1,.31-.25,1.2,1.2,0,0,1,.34-.17,1.37,1.37,0,0,1,.36-.11,2.56,2.56,0,0,1,.39,0,1.92,1.92,0,0,1,.82.18,2.06,2.06,0,0,1,.68.53,2.6,2.6,0,0,1,.44.8,2.47,2.47,0,0,1,.16.9A2.37,2.37,0,0,1,151,245.88Z" transform="translate(-55.52 -11.33)"/>
  <rect x="57.75" y="225.05" width="57.69" height="14.15" fill="none"/>
  <path d="M83.82,257.81a.62.62,0,0,1-.24,0H77.19a.72.72,0,0,1-.26,0,.17.17,0,0,1-.11-.18.21.21,0,0,1,.12-.21,1.34,1.34,0,0,1,.26,0h6.36l.25,0a.21.21,0,0,1,.13.21A.17.17,0,0,1,83.82,257.81Z" transform="translate(-55.52 -11.33)"/>
  <path d="M90.8,259.9a2.52,2.52,0,0,1-.53.81,2.35,2.35,0,0,1-.77.51,2.26,2.26,0,0,1-.92.19,1.9,1.9,0,0,1-.79-.17,2,2,0,0,1-.65-.47,1.89,1.89,0,0,1-.41-.64,2.06,2.06,0,0,1-.14-.73.64.64,0,0,1,.14-.42.53.53,0,0,1,.41-.16.52.52,0,0,1,.39.14.53.53,0,0,1,.16.39.53.53,0,0,1-.17.4.55.55,0,0,1-.38.15H87l-.08,0a1.26,1.26,0,0,0,.21.48,1.43,1.43,0,0,0,.36.38A1.69,1.69,0,0,0,88,261a1.55,1.55,0,0,0,.56.11,1.26,1.26,0,0,0,.68-.2,1.66,1.66,0,0,0,.5-.52,2.17,2.17,0,0,0,.22-.73,5.61,5.61,0,0,0,0-.79,4.31,4.31,0,0,0,0-.7,2,2,0,0,0-.17-.68,1.34,1.34,0,0,0-.36-.5.92.92,0,0,0-.58-.21,1.67,1.67,0,0,0-.52.08,1.51,1.51,0,0,0-.56.32,1.07,1.07,0,0,0-.22.2l-.11.16-.06.08a.12.12,0,0,1-.09,0c-.08,0-.13,0-.15-.07a.51.51,0,0,1,0-.16v-3.31a1,1,0,0,1,0-.25s.11,0,.23,0a3.28,3.28,0,0,0,.71.23,3.67,3.67,0,0,0,.75.08,3.19,3.19,0,0,0,.49,0,5.18,5.18,0,0,0,.56-.1l.36-.17.19-.06a.11.11,0,0,1,.08,0,.12.12,0,0,1,0,.1,1.1,1.1,0,0,1-.25.35,1.94,1.94,0,0,1-.29.25v0a2.85,2.85,0,0,1-.76.38,2.63,2.63,0,0,1-.83.14,2.49,2.49,0,0,1-.47,0,3.25,3.25,0,0,1-.47-.1v2.15a2,2,0,0,1,.32-.24,1.35,1.35,0,0,1,.33-.18,1.56,1.56,0,0,1,.37-.1,1.61,1.61,0,0,1,.39,0,1.89,1.89,0,0,1,.81.19,1.93,1.93,0,0,1,.68.53,2.36,2.36,0,0,1,.44.79A2.53,2.53,0,0,1,91,259,2.33,2.33,0,0,1,90.8,259.9Z" transform="translate(-55.52 -11.33)"/>
  <rect x="0.18" y="239.2" width="57.57" height="14.02" fill="none"/>
  <path d="M138.87,257.81a.62.62,0,0,1-.24,0h-6.39a.72.72,0,0,1-.26,0,.18.18,0,0,1-.11-.18.21.21,0,0,1,.12-.21l.26,0h6.36l.25,0a.21.21,0,0,1,.13.21A.17.17,0,0,1,138.87,257.81Z" transform="translate(-55.52 -11.33)"/>
  <path d="M144.82,261.13H143c-.33,0-.63,0-.9.05v-.35h.53a1.68,1.68,0,0,0,.62-.07.47.47,0,0,0,.23-.46v-5.7a3.72,3.72,0,0,1-.59.19l-.61.1h-.24v-.35h.37a2.87,2.87,0,0,0,.56-.1,2.47,2.47,0,0,0,.52-.18l.3-.18a2.84,2.84,0,0,0,.25-.23h.26v6.47a.44.44,0,0,0,.24.46,1.71,1.71,0,0,0,.63.07h.51v.35C145.45,261.15,145.15,261.14,144.82,261.13Z" transform="translate(-55.52 -11.33)"/>
  <path d="M150.89,261.18H146.8v-.26l2.24-2.51.43-.55a6.64,6.64,0,0,0,.38-.6,3.83,3.83,0,0,0,.24-.63,2,2,0,0,0,.11-.66,2.69,2.69,0,0,0-.08-.65,1.78,1.78,0,0,0-.27-.59,1.72,1.72,0,0,0-.51-.43,1.54,1.54,0,0,0-.61-.12,1.51,1.51,0,0,0-.94.3,1.61,1.61,0,0,0-.56.82l.14,0a.55.55,0,0,1,.59.59.58.58,0,0,1-.57.58.52.52,0,0,1-.44-.19.63.63,0,0,1-.15-.44,1.91,1.91,0,0,1,.56-1.35A1.82,1.82,0,0,1,148,254a2.16,2.16,0,0,1,.81-.15,2.93,2.93,0,0,1,.9.14,2.39,2.39,0,0,1,.79.45,2.11,2.11,0,0,1,.49.7,2,2,0,0,1,.17.85,2.13,2.13,0,0,1-.13.78,2.52,2.52,0,0,1-.4.67l-.61.6-.6.57-.63.59-1.17,1.14h2.54a1.12,1.12,0,0,0,.42-.07.86.86,0,0,0,.18-.36,2.88,2.88,0,0,0,.09-.45l0-.18h.28Z" transform="translate(-55.52 -11.33)"/>
  <rect x="57.75" y="239.2" width="57.69" height="14.02" fill="none"/>
  <path d="M83.82,272a.45.45,0,0,1-.24,0H77.19a.51.51,0,0,1-.26,0c-.08,0-.11-.09-.11-.18a.19.19,0,0,1,.12-.2.83.83,0,0,1,.26,0h6.36a.79.79,0,0,1,.25,0,.19.19,0,0,1,.13.2A.17.17,0,0,1,83.82,272Z" transform="translate(-55.52 -11.33)"/>
  <path d="M90.9,273.91a2.53,2.53,0,0,1-.5.84,2.21,2.21,0,0,1-.73.5,2,2,0,0,1-.86.19,1.86,1.86,0,0,1-.87-.21,1.79,1.79,0,0,1-.67-.55,3.59,3.59,0,0,1-.63-1.44,7.67,7.67,0,0,1-.14-1.53,5.25,5.25,0,0,1,.21-1.51,3.78,3.78,0,0,1,.71-1.33,2.43,2.43,0,0,1,.87-.73,2.45,2.45,0,0,1,1.72-.21,1.29,1.29,0,0,1,.45.27,1.22,1.22,0,0,1,.26.38,1.3,1.3,0,0,1,.08.46.51.51,0,0,1-.14.38.5.5,0,0,1-.36.16.48.48,0,0,1-.37-.15.51.51,0,0,1-.14-.36.47.47,0,0,1,.17-.4.86.86,0,0,1,.43-.09.85.85,0,0,0-.43-.35,1.56,1.56,0,0,0-1.66.4,2.37,2.37,0,0,0-.59,1,4,4,0,0,0-.16.74,7,7,0,0,0-.06.94v.26a1.77,1.77,0,0,1,.53-.77,1.29,1.29,0,0,1,.86-.32,2.06,2.06,0,0,1,.85.18,2.2,2.2,0,0,1,.71.52,2.55,2.55,0,0,1,.47.82,2.69,2.69,0,0,1,.16.94A2.77,2.77,0,0,1,90.9,273.91Zm-.82-1.1a6.32,6.32,0,0,0,0-.72,1.82,1.82,0,0,0-.16-.66,1.43,1.43,0,0,0-.41-.5,1,1,0,0,0-.61-.19,1.12,1.12,0,0,0-.61.17,1.4,1.4,0,0,0-.43.49,2.06,2.06,0,0,0-.25.62,3.85,3.85,0,0,0-.06.69c0,.22,0,.41,0,.57a3.34,3.34,0,0,0,.06.58,1.73,1.73,0,0,0,.38.87,1.07,1.07,0,0,0,.84.41,1.13,1.13,0,0,0,.66-.21,1.24,1.24,0,0,0,.43-.52,2.28,2.28,0,0,0,.16-.66c0-.15,0-.38,0-.69v-.25Z" transform="translate(-55.52 -11.33)"/>
  <rect x="0.18" y="253.22" width="57.57" height="14.02" fill="none"/>
  <path d="M138.87,272a.45.45,0,0,1-.24,0h-6.39a.51.51,0,0,1-.26,0,.17.17,0,0,1-.11-.18.19.19,0,0,1,.12-.2.83.83,0,0,1,.26,0h6.36a.79.79,0,0,1,.25,0,.19.19,0,0,1,.13.2A.17.17,0,0,1,138.87,272Z" transform="translate(-55.52 -11.33)"/>
  <path d="M144.82,275.16H143c-.33,0-.63,0-.9,0v-.34h.53a1.62,1.62,0,0,0,.62-.08.45.45,0,0,0,.23-.45v-5.71a2.92,2.92,0,0,1-.59.19,3.88,3.88,0,0,1-.61.1h-.24v-.34l.16,0h.21a2.83,2.83,0,0,0,.56-.09,3.24,3.24,0,0,0,.52-.19l.3-.18.25-.22h.26v6.47a.43.43,0,0,0,.24.45,1.65,1.65,0,0,0,.63.08h.51v.34C145.45,275.18,145.15,275.16,144.82,275.16Z" transform="translate(-55.52 -11.33)"/>
  <path d="M151.25,272.94a4,4,0,0,1-.34,1.22,2.15,2.15,0,0,1-.77.93,2,2,0,0,1-1.15.35,2,2,0,0,1-.76-.15,2.1,2.1,0,0,1-.65-.41,2.8,2.8,0,0,1-.75-1.5,8.35,8.35,0,0,1-.15-1.71,8.76,8.76,0,0,1,.13-1.65,3,3,0,0,1,.68-1.5,1.72,1.72,0,0,1,.68-.5,2,2,0,0,1,.83-.16,2,2,0,0,1,.78.15,2.24,2.24,0,0,1,.66.44,2.86,2.86,0,0,1,.73,1.49,8.56,8.56,0,0,1,.15,1.73A9,9,0,0,1,151.25,272.94Zm-.85-2.5a8.34,8.34,0,0,0-.08-.89,2.11,2.11,0,0,0-.27-.82,1.56,1.56,0,0,0-.45-.47,1.2,1.2,0,0,0-1.23,0,1.31,1.31,0,0,0-.43.47,2,2,0,0,0-.27.85,6.85,6.85,0,0,0-.07.89c0,.37,0,.75,0,1.13s0,.75,0,1.12a6.86,6.86,0,0,0,.07.92,2.7,2.7,0,0,0,.27.88,1.57,1.57,0,0,0,.43.49,1.08,1.08,0,0,0,.62.19,1.1,1.1,0,0,0,.64-.2,1.53,1.53,0,0,0,.45-.52,2.84,2.84,0,0,0,.23-.86c0-.23.05-.53.07-.9s0-.75,0-1.15,0-.76,0-1.15Z" transform="translate(-55.52 -11.33)"/>
  <rect x="57.75" y="253.22" width="57.69" height="14.02" fill="none"/>
  <path d="M81.3,286a.62.62,0,0,1-.24,0H74.67a.72.72,0,0,1-.26,0,.18.18,0,0,1-.11-.18.21.21,0,0,1,.12-.21l.26,0h6.37l.24,0a.21.21,0,0,1,.13.21A.17.17,0,0,1,81.3,286Z" transform="translate(-55.52 -11.33)"/>
  <path d="M87.13,289.3H85.34c-.33,0-.63,0-.89.05V289H85a1.94,1.94,0,0,0,.62-.07.46.46,0,0,0,.24-.46v-5.71a3,3,0,0,1-.6.2,5.58,5.58,0,0,1-.61.09h-.24v-.34h.37a3.75,3.75,0,0,0,1.09-.28l.29-.18.26-.23h.25v6.47a.44.44,0,0,0,.24.46,2,2,0,0,0,.63.07H88v.35C87.76,289.32,87.46,289.31,87.13,289.3Z" transform="translate(-55.52 -11.33)"/>
  <path d="M93.68,287.08a4,4,0,0,1-.34,1.22,2.24,2.24,0,0,1-.77.94,1.94,1.94,0,0,1-1.14.34,2,2,0,0,1-.77-.15A1.93,1.93,0,0,1,90,289a2.87,2.87,0,0,1-.75-1.5,8.22,8.22,0,0,1-.15-1.71,8.76,8.76,0,0,1,.13-1.65,3,3,0,0,1,.68-1.49,1.93,1.93,0,0,1,.68-.51,2.06,2.06,0,0,1,.84-.16,2,2,0,0,1,.77.15,2.45,2.45,0,0,1,.66.44,2.79,2.79,0,0,1,.73,1.5,8.46,8.46,0,0,1,.15,1.72A8.93,8.93,0,0,1,93.68,287.08Zm-.85-2.5a8.87,8.87,0,0,0-.08-.89,2.11,2.11,0,0,0-.27-.82,1.52,1.52,0,0,0-.45-.46,1.09,1.09,0,0,0-.6-.17,1.15,1.15,0,0,0-.63.17,1.28,1.28,0,0,0-.43.46,2.07,2.07,0,0,0-.27.85,5.71,5.71,0,0,0-.06.9c0,.36,0,.74,0,1.13s0,.74,0,1.12a6.73,6.73,0,0,0,.06.91,2.76,2.76,0,0,0,.27.89,1.54,1.54,0,0,0,.43.48,1.12,1.12,0,0,0,.63.2,1,1,0,0,0,.63-.21,1.36,1.36,0,0,0,.45-.52,2.5,2.5,0,0,0,.23-.86c0-.23.05-.53.08-.89s0-.76,0-1.15,0-.76,0-1.16Z" transform="translate(-55.52 -11.33)"/>
  <rect x="0.18" y="267.25" width="57.57" height="14.02" fill="none"/>
  <path d="M141.51,286a.65.65,0,0,1-.25,0h-6.39a.69.69,0,0,1-.25,0,.17.17,0,0,1-.11-.18.21.21,0,0,1,.12-.21l.25,0h6.37l.25,0a.21.21,0,0,1,.13.21A.17.17,0,0,1,141.51,286Z" transform="translate(-55.52 -11.33)"/>
  <path d="M148.59,288.05a2.35,2.35,0,0,1-.5.84,2.54,2.54,0,0,1-.73.51,2.11,2.11,0,0,1-.86.18,2.06,2.06,0,0,1-.88-.2,2,2,0,0,1-.66-.55,3.51,3.51,0,0,1-.63-1.44,7.67,7.67,0,0,1-.14-1.53,5.2,5.2,0,0,1,.21-1.51,3.67,3.67,0,0,1,.71-1.34,2.45,2.45,0,0,1,.87-.73,2.29,2.29,0,0,1,1.11-.28,1.82,1.82,0,0,1,.6.08,1,1,0,0,1,.46.27,1.31,1.31,0,0,1,.26.37,1.34,1.34,0,0,1,.08.46.54.54,0,0,1-.14.38.47.47,0,0,1-.37.16.46.46,0,0,1-.36-.15.45.45,0,0,1-.14-.35.46.46,0,0,1,.17-.4.74.74,0,0,1,.43-.1.88.88,0,0,0-.43-.34,1.33,1.33,0,0,0-.54-.1,1.53,1.53,0,0,0-1.12.5,2.37,2.37,0,0,0-.59,1,3.74,3.74,0,0,0-.16.73,7,7,0,0,0-.06,1v.26a1.78,1.78,0,0,1,.53-.78,1.28,1.28,0,0,1,.86-.31,2.14,2.14,0,0,1,.84.17,2,2,0,0,1,.71.53,2.31,2.31,0,0,1,.48.82,2.6,2.6,0,0,1,.16.93A2.77,2.77,0,0,1,148.59,288.05Zm-.82-1.1a6.57,6.57,0,0,0,0-.72,2,2,0,0,0-.16-.65,1.58,1.58,0,0,0-.41-.51,1.07,1.07,0,0,0-.61-.18,1,1,0,0,0-.61.17,1.36,1.36,0,0,0-.43.48,2.13,2.13,0,0,0-.25.63,3.66,3.66,0,0,0-.07.69c0,.21,0,.4,0,.57a3.41,3.41,0,0,0,.07.58,1.74,1.74,0,0,0,.38.86,1.07,1.07,0,0,0,.84.41,1.19,1.19,0,0,0,.66-.2,1.48,1.48,0,0,0,.43-.52,2.27,2.27,0,0,0,.16-.67c0-.15,0-.38,0-.69V287Z" transform="translate(-55.52 -11.33)"/>
  <rect x="57.75" y="267.25" width="57.69" height="14.02" fill="none"/>
  <path d="M81.3,300a.45.45,0,0,1-.24,0H74.67a.51.51,0,0,1-.26,0,.18.18,0,0,1-.11-.18.19.19,0,0,1,.12-.2.87.87,0,0,1,.26,0h6.37a.76.76,0,0,1,.24,0,.19.19,0,0,1,.13.2A.17.17,0,0,1,81.3,300Z" transform="translate(-55.52 -11.33)"/>
  <path d="M87.13,303.33H85.34c-.33,0-.63,0-.89,0V303H85a1.68,1.68,0,0,0,.62-.07.44.44,0,0,0,.24-.45v-5.71a3,3,0,0,1-.6.19,3.88,3.88,0,0,1-.61.1h-.24v-.35h.37a2.72,2.72,0,0,0,.56-.09,3.75,3.75,0,0,0,.53-.19c.1-.05.19-.12.29-.18l.26-.23h.25v6.48a.44.44,0,0,0,.24.45,1.71,1.71,0,0,0,.63.07H88v.35C87.76,303.35,87.46,303.33,87.13,303.33Z" transform="translate(-55.52 -11.33)"/>
  <path d="M93.32,303.37H89.23v-.26l2.24-2.51c.16-.2.31-.38.43-.55a6.64,6.64,0,0,0,.38-.6,3.58,3.58,0,0,0,.25-.63,2.14,2.14,0,0,0,.1-.65,2.71,2.71,0,0,0-.08-.66,1.72,1.72,0,0,0-.27-.58,1.49,1.49,0,0,0-.51-.43,1.39,1.39,0,0,0-.61-.13,1.53,1.53,0,0,0-.94.3,1.61,1.61,0,0,0-.56.82h.14a.6.6,0,0,1,.42.15.58.58,0,0,1,.17.43.57.57,0,0,1-.16.41.57.57,0,0,1-.41.17.56.56,0,0,1-.44-.18.65.65,0,0,1-.15-.44,2,2,0,0,1,.15-.75,2.11,2.11,0,0,1,.41-.61,1.69,1.69,0,0,1,.68-.48,2,2,0,0,1,.82-.16,2.91,2.91,0,0,1,.89.14,2.31,2.31,0,0,1,.79.46,2,2,0,0,1,.49.7,2,2,0,0,1,.18.85,2.34,2.34,0,0,1-.13.77,2.52,2.52,0,0,1-.41.67c-.18.19-.38.39-.61.6s-.32.32-.6.57l-.63.6-1.17,1.14h2.54a1,1,0,0,0,.42-.08.67.67,0,0,0,.19-.35c0-.1.05-.25.08-.46l0-.18h.28Z" transform="translate(-55.52 -11.33)"/>
  <rect x="0.18" y="281.27" width="57.57" height="14.14" fill="none"/>
  <path d="M141.51,300a.47.47,0,0,1-.25,0h-6.39a.49.49,0,0,1-.25,0,.17.17,0,0,1-.11-.18.19.19,0,0,1,.12-.2.79.79,0,0,1,.25,0h6.37a.79.79,0,0,1,.25,0,.19.19,0,0,1,.13.2A.17.17,0,0,1,141.51,300Z" transform="translate(-55.52 -11.33)"/>
  <path d="M148.49,302.1a2.76,2.76,0,0,1-.53.81,2.49,2.49,0,0,1-.77.5,2.28,2.28,0,0,1-.92.2,1.8,1.8,0,0,1-.8-.18,1.72,1.72,0,0,1-.64-.47,1.89,1.89,0,0,1-.41-.64,1.83,1.83,0,0,1-.14-.73.59.59,0,0,1,.14-.42.53.53,0,0,1,.41-.16.54.54,0,0,1,.38.14.55.55,0,0,1-.38,1h-.11l-.09,0a1.52,1.52,0,0,0,.22.47,1.82,1.82,0,0,0,.35.39,2.7,2.7,0,0,0,.5.27,1.54,1.54,0,0,0,.56.1,1.2,1.2,0,0,0,.68-.2,1.44,1.44,0,0,0,.49-.52,1.9,1.9,0,0,0,.23-.73,5.82,5.82,0,0,0,0-.79,6.29,6.29,0,0,0,0-.7,2.19,2.19,0,0,0-.17-.67,1.4,1.4,0,0,0-.37-.51.87.87,0,0,0-.57-.21,1.78,1.78,0,0,0-.53.08,1.76,1.76,0,0,0-.56.32l-.21.21a1,1,0,0,0-.11.15l-.06.08a.11.11,0,0,1-.09,0,.14.14,0,0,1-.15-.08.32.32,0,0,1,0-.16V296.3a.63.63,0,0,1,0-.24s.1,0,.23,0a3.26,3.26,0,0,0,.71.22,3.67,3.67,0,0,0,.75.08l.49,0a5.46,5.46,0,0,0,.56-.11l.36-.16.19-.07a.12.12,0,0,1,.08,0,.1.1,0,0,1,0,.09,1,1,0,0,1-.24.36l-.3.25v0a2.62,2.62,0,0,1-.75.37,2.37,2.37,0,0,1-.83.14,2.42,2.42,0,0,1-.47,0,2.3,2.3,0,0,1-.47-.1v2.16a2.33,2.33,0,0,1,.32-.25.87.87,0,0,1,.33-.17,1.45,1.45,0,0,1,.37-.11,2.34,2.34,0,0,1,.38,0,1.92,1.92,0,0,1,1.5.71,2.41,2.41,0,0,1,.44.8,2.47,2.47,0,0,1,.16.9A2.37,2.37,0,0,1,148.49,302.1Z" transform="translate(-55.52 -11.33)"/>
  <rect x="57.75" y="281.27" width="57.69" height="14.14" fill="none"/>
  <path d="M81.3,314a.62.62,0,0,1-.24,0H74.67a.72.72,0,0,1-.26,0,.18.18,0,0,1-.11-.18.21.21,0,0,1,.12-.21l.26,0h6.37l.24,0a.2.2,0,0,1,.13.21A.17.17,0,0,1,81.3,314Z" transform="translate(-55.52 -11.33)"/>
  <path d="M87.13,317.35H85.34l-.89,0v-.34H85a1.62,1.62,0,0,0,.62-.08.44.44,0,0,0,.24-.45v-5.71a3,3,0,0,1-.6.2,5.58,5.58,0,0,1-.61.09h-.24v-.34h.37a3.66,3.66,0,0,0,.56-.1,2.76,2.76,0,0,0,.53-.18l.29-.18.26-.23h.25v6.47q0,.36.24.45a1.65,1.65,0,0,0,.63.08H88v.34Z" transform="translate(-55.52 -11.33)"/>
  <path d="M93.44,316.12a2.34,2.34,0,0,1-1.3,1.32,2.26,2.26,0,0,1-.92.19,1.94,1.94,0,0,1-.8-.17,1.86,1.86,0,0,1-.64-.48,1.76,1.76,0,0,1-.41-.63,1.86,1.86,0,0,1-.14-.73.56.56,0,0,1,.14-.42.53.53,0,0,1,.41-.16.51.51,0,0,1,.55.53.56.56,0,0,1-.55.55h-.11l-.09,0a1.34,1.34,0,0,0,.22.47,1.44,1.44,0,0,0,.35.39,1.88,1.88,0,0,0,.5.27,1.55,1.55,0,0,0,.56.11,1.19,1.19,0,0,0,.68-.21,1.53,1.53,0,0,0,.5-.51,2.17,2.17,0,0,0,.22-.73,5.82,5.82,0,0,0,0-.79,6.16,6.16,0,0,0,0-.7,2.19,2.19,0,0,0-.17-.68,1.4,1.4,0,0,0-.37-.51.92.92,0,0,0-.57-.2,2.19,2.19,0,0,0-.53.07,1.79,1.79,0,0,0-.56.33,1.34,1.34,0,0,0-.21.2l-.11.15-.06.09a.14.14,0,0,1-.09,0c-.08,0-.13,0-.15-.07a.34.34,0,0,1,0-.16v-3.31a1,1,0,0,1,0-.25s.1,0,.23,0a3.28,3.28,0,0,0,.71.23,3.67,3.67,0,0,0,.75.07,3.48,3.48,0,0,0,.49,0,5.46,5.46,0,0,0,.56-.11l.36-.16.19-.06a.13.13,0,0,1,.08,0,.12.12,0,0,1,0,.1.91.91,0,0,1-.24.35,2.63,2.63,0,0,1-.29.25l0,0a2.8,2.8,0,0,1-1.58.52,2.42,2.42,0,0,1-.47,0l-.47-.1v2.15a3.14,3.14,0,0,1,.32-.25,1.48,1.48,0,0,1,.33-.17,1.44,1.44,0,0,1,.37-.1,1.58,1.58,0,0,1,.38,0,1.8,1.8,0,0,1,.82.19,1.9,1.9,0,0,1,.68.52,2.51,2.51,0,0,1,.44.8,2.53,2.53,0,0,1,.17.91A2.33,2.33,0,0,1,93.44,316.12Z" transform="translate(-55.52 -11.33)"/>
  <rect x="0.18" y="295.42" width="57.57" height="14.02" fill="none"/>
  <path d="M141.51,314a.65.65,0,0,1-.25,0h-6.39a.69.69,0,0,1-.25,0,.17.17,0,0,1-.11-.18.21.21,0,0,1,.12-.21l.25,0h6.37l.25,0a.2.2,0,0,1,.13.21A.17.17,0,0,1,141.51,314Z" transform="translate(-55.52 -11.33)"/>
  <path d="M147.82,315.57v1c0,.23.06.38.19.44a1.07,1.07,0,0,0,.51.08h.38v.34l-.75,0h-1.5l-.74,0v-.34h.34a1.24,1.24,0,0,0,.54-.07q.18-.09.18-.45v-1H144v-.34l3.38-5.17a.65.65,0,0,1,.09-.11l.14,0c.08,0,.13,0,.15.07s0,.08,0,.17v5.06h1.11v.34Zm-.78-4.45-2.69,4.11H147Z" transform="translate(-55.52 -11.33)"/>
  <rect x="57.75" y="295.42" width="57.69" height="14.02" fill="none"/>
  <path d="M81.3,328.17a.57.57,0,0,1-.24,0H74.67a.66.66,0,0,1-.26,0,.18.18,0,0,1-.11-.18.21.21,0,0,1,.12-.21l.26,0h6.37l.24,0a.21.21,0,0,1,.13.21A.17.17,0,0,1,81.3,328.17Z" transform="translate(-55.52 -11.33)"/>
  <path d="M88.05,331.42H84v-.26l2.24-2.51c.17-.2.31-.38.43-.55a5,5,0,0,0,.38-.6,3.92,3.92,0,0,0,.25-.63,2.22,2.22,0,0,0,.11-.65,2.29,2.29,0,0,0-.09-.66A1.72,1.72,0,0,0,87,325a1.4,1.4,0,0,0-.51-.43,1.36,1.36,0,0,0-.61-.13,1.53,1.53,0,0,0-.94.3,1.68,1.68,0,0,0-.56.82h.14a.6.6,0,0,1,.42.15.54.54,0,0,1,.17.43.57.57,0,0,1-.16.41.57.57,0,0,1-.41.17.57.57,0,0,1-.44-.18.65.65,0,0,1-.15-.44,2,2,0,0,1,.15-.75,2.11,2.11,0,0,1,.41-.61,1.91,1.91,0,0,1,.68-.49,2.18,2.18,0,0,1,.82-.15,2.86,2.86,0,0,1,.89.14,2.31,2.31,0,0,1,.79.46,2,2,0,0,1,.5.7,2.11,2.11,0,0,1,.17.85,2.34,2.34,0,0,1-.13.77,2.42,2.42,0,0,1-.41.67,8.47,8.47,0,0,1-.6.6c-.13.13-.33.32-.61.57l-.62.6-1.18,1.14h2.55a1,1,0,0,0,.42-.08.75.75,0,0,0,.18-.35l.09-.46,0-.18h.28Z" transform="translate(-55.52 -11.33)"/>
  <path d="M93.68,329.16a3.9,3.9,0,0,1-.34,1.21,2.12,2.12,0,0,1-.77.94,2,2,0,0,1-1.14.35,2,2,0,0,1-.77-.16,2.08,2.08,0,0,1-.65-.4,2.87,2.87,0,0,1-.75-1.5,8.35,8.35,0,0,1-.15-1.71,8.76,8.76,0,0,1,.13-1.65,3,3,0,0,1,.68-1.5,1.93,1.93,0,0,1,.68-.51,2.24,2.24,0,0,1,.84-.16,2,2,0,0,1,.77.15,2.28,2.28,0,0,1,.66.45,2.79,2.79,0,0,1,.73,1.49,8.56,8.56,0,0,1,.15,1.73A9,9,0,0,1,93.68,329.16Zm-.85-2.5a8.83,8.83,0,0,0-.08-.9,2.12,2.12,0,0,0-.27-.81,1.45,1.45,0,0,0-.45-.47,1.19,1.19,0,0,0-.6-.17,1.24,1.24,0,0,0-.63.17,1.32,1.32,0,0,0-.43.47,2,2,0,0,0-.27.85,5.57,5.57,0,0,0-.06.89c0,.37,0,.74,0,1.13s0,.75,0,1.12a6.88,6.88,0,0,0,.06.92,2.78,2.78,0,0,0,.27.88,1.54,1.54,0,0,0,.43.48,1.12,1.12,0,0,0,.63.2,1,1,0,0,0,.63-.21,1.41,1.41,0,0,0,.45-.51,2.57,2.57,0,0,0,.23-.86c0-.23.05-.53.08-.9s0-.76,0-1.15,0-.76,0-1.15Z" transform="translate(-55.52 -11.33)"/>
  <rect x="0.18" y="309.44" width="57.57" height="14.02" fill="none"/>
  <path d="M141.51,328.17a.6.6,0,0,1-.25,0h-6.39a.63.63,0,0,1-.25,0,.17.17,0,0,1-.11-.18.21.21,0,0,1,.12-.21l.25,0h6.37l.25,0a.21.21,0,0,1,.13.21A.17.17,0,0,1,141.51,328.17Z" transform="translate(-55.52 -11.33)"/>
  <path d="M148.59,330.33a2.36,2.36,0,0,1-.49.68,2.22,2.22,0,0,1-.78.48,2.53,2.53,0,0,1-.91.17,3,3,0,0,1-.44,0l-.4-.08a2.23,2.23,0,0,1-1-.58,1.49,1.49,0,0,1-.41-1,.68.68,0,0,1,.15-.47.59.59,0,0,1,.47-.17.58.58,0,0,1,.44.17.61.61,0,0,1,.17.45.55.55,0,0,1-.22.47.59.59,0,0,1-.5.13,1.49,1.49,0,0,0,.7.62,2.3,2.3,0,0,0,1,.22,1.07,1.07,0,0,0,.43-.09,1.15,1.15,0,0,0,.37-.25,1.83,1.83,0,0,0,.34-.7,2.68,2.68,0,0,0,.1-.78c0-.15,0-.28,0-.39a2.81,2.81,0,0,0-.06-.35,1.49,1.49,0,0,0-.42-.8,1.14,1.14,0,0,0-.8-.29h-.52a.34.34,0,0,1-.16,0,.12.12,0,0,1-.08-.12.16.16,0,0,1,0-.12H146l.35,0a1,1,0,0,0,.58-.34,1.72,1.72,0,0,0,.35-.6c0-.18.07-.32.09-.44a2.37,2.37,0,0,0,.05-.44,1.69,1.69,0,0,0-.08-.53,1,1,0,0,0-.28-.45.77.77,0,0,0-.34-.19,1.06,1.06,0,0,0-.37-.06,1.69,1.69,0,0,0-.38,0,2.49,2.49,0,0,0-.37.09,1.62,1.62,0,0,0-.41.23,1.18,1.18,0,0,0-.31.32h.19a.64.64,0,0,1,.37.16.52.52,0,0,1,.13.38.55.55,0,0,1-.56.56.54.54,0,0,1-.42-.16.58.58,0,0,1-.15-.41,1.26,1.26,0,0,1,.36-.88,1.93,1.93,0,0,1,.82-.5,2,2,0,0,1,.37-.09,2.73,2.73,0,0,1,.41,0,3,3,0,0,1,.74.1,2.3,2.3,0,0,1,.65.31,1.78,1.78,0,0,1,.47.48,1.21,1.21,0,0,1,.18.63,1.58,1.58,0,0,1-.13.63,2.87,2.87,0,0,1-.31.56,2.76,2.76,0,0,1-1.11.76,2.34,2.34,0,0,1,1,.44,2.09,2.09,0,0,1,.69.89,2.23,2.23,0,0,1,.09.32,1.42,1.42,0,0,1,0,.34A1.87,1.87,0,0,1,148.59,330.33Z" transform="translate(-55.52 -11.33)"/>
  <rect x="57.75" y="309.44" width="57.69" height="14.02" fill="none"/>
  <path d="M81.3,342.2a.62.62,0,0,1-.24,0H74.67a.72.72,0,0,1-.26,0,.18.18,0,0,1-.11-.19.2.2,0,0,1,.12-.2l.26,0h6.37l.24,0a.2.2,0,0,1,.13.2A.18.18,0,0,1,81.3,342.2Z" transform="translate(-55.52 -11.33)"/>
  <path d="M88.26,344.47a2.2,2.2,0,0,1-.48.68,2.56,2.56,0,0,1-.79.49,2.53,2.53,0,0,1-.91.16,3.15,3.15,0,0,1-.44,0,2.59,2.59,0,0,1-.4-.09,2.11,2.11,0,0,1-1-.58,1.49,1.49,0,0,1-.41-1,.73.73,0,0,1,.16-.48.62.62,0,0,1,1.07.45.59.59,0,0,1-.21.48.66.66,0,0,1-.51.13,1.48,1.48,0,0,0,.7.61,2.38,2.38,0,0,0,1,.23.91.91,0,0,0,.43-.1,1.15,1.15,0,0,0,.37-.25,1.77,1.77,0,0,0,.35-.7,3,3,0,0,0,.09-.77c0-.15,0-.29,0-.4a3.27,3.27,0,0,0,0-.35,1.61,1.61,0,0,0-.42-.79,1.12,1.12,0,0,0-.81-.29h-.52l-.16,0a.14.14,0,0,1-.08-.12.14.14,0,0,1,.05-.12h.43l.34,0a1.05,1.05,0,0,0,.58-.35,1.54,1.54,0,0,0,.35-.59c0-.18.07-.33.1-.44a2.39,2.39,0,0,0,0-.44,1.64,1.64,0,0,0-.08-.53.85.85,0,0,0-.28-.45.79.79,0,0,0-.34-.2,1.38,1.38,0,0,0-.37-.05,2.31,2.31,0,0,0-.37,0,1.78,1.78,0,0,0-.38.1,1.47,1.47,0,0,0-.41.22,1,1,0,0,0-.3.33h.18a.61.61,0,0,1,.38.16.53.53,0,0,1,.13.38.53.53,0,0,1-.16.39.58.58,0,0,1-.82,0,.55.55,0,0,1-.15-.4,1.27,1.27,0,0,1,.35-.89,1.82,1.82,0,0,1,.82-.49,1.41,1.41,0,0,1,.38-.1,2.68,2.68,0,0,1,.41,0,3,3,0,0,1,.73.09,2.52,2.52,0,0,1,.66.32,1.71,1.71,0,0,1,.46.47,1.21,1.21,0,0,1,.18.64,1.57,1.57,0,0,1-.13.62,2.24,2.24,0,0,1-.31.56,2,2,0,0,1-.5.45,2.73,2.73,0,0,1-.61.32,2.31,2.31,0,0,1,1,.44,2.12,2.12,0,0,1,.68.88,2.66,2.66,0,0,1,.09.32,1.5,1.5,0,0,1,0,.35A1.82,1.82,0,0,1,88.26,344.47Z" transform="translate(-55.52 -11.33)"/>
  <path d="M93.68,343.3a4,4,0,0,1-.34,1.22,2.24,2.24,0,0,1-.77.94,2.07,2.07,0,0,1-1.91.19,1.93,1.93,0,0,1-.65-.41,2.87,2.87,0,0,1-.75-1.5,8.22,8.22,0,0,1-.15-1.71,8.76,8.76,0,0,1,.13-1.65,3,3,0,0,1,.68-1.49,1.93,1.93,0,0,1,.68-.51,2.06,2.06,0,0,1,.84-.16,2,2,0,0,1,.77.15,2.45,2.45,0,0,1,.66.44,2.79,2.79,0,0,1,.73,1.5,8.46,8.46,0,0,1,.15,1.72A9,9,0,0,1,93.68,343.3Zm-.85-2.5a8.6,8.6,0,0,0-.08-.89,2.11,2.11,0,0,0-.27-.82,1.42,1.42,0,0,0-.45-.46,1.11,1.11,0,0,0-.6-.18,1.16,1.16,0,0,0-.63.18,1.28,1.28,0,0,0-.43.46,2,2,0,0,0-.27.85,5.62,5.62,0,0,0-.06.9c0,.36,0,.74,0,1.13s0,.74,0,1.12a6.73,6.73,0,0,0,.06.91,2.7,2.7,0,0,0,.27.88,1.48,1.48,0,0,0,.43.49,1.11,1.11,0,0,0,.63.19,1.07,1.07,0,0,0,.63-.2,1.44,1.44,0,0,0,.45-.52,2.57,2.57,0,0,0,.23-.86c0-.23.05-.53.08-.89s0-.76,0-1.16,0-.75,0-1.15Z" transform="translate(-55.52 -11.33)"/>
  <rect x="0.18" y="323.47" width="57.57" height="14.02" fill="none"/>
  <path d="M141.51,342.2a.65.65,0,0,1-.25,0h-6.39a.69.69,0,0,1-.25,0c-.08,0-.11-.09-.11-.19a.2.2,0,0,1,.12-.2l.25,0h6.37l.25,0a.2.2,0,0,1,.13.2A.18.18,0,0,1,141.51,342.2Z" transform="translate(-55.52 -11.33)"/>
  <path d="M148.37,345.56h-4.09v-.26l2.24-2.5.43-.55a6.76,6.76,0,0,0,.38-.61,4.47,4.47,0,0,0,.25-.62,2.25,2.25,0,0,0,.1-.66,2.78,2.78,0,0,0-.08-.66,1.82,1.82,0,0,0-.27-.58,1.72,1.72,0,0,0-.51-.43,1.55,1.55,0,0,0-.61-.13,1.53,1.53,0,0,0-.94.3,1.66,1.66,0,0,0-.56.82h.14a.6.6,0,0,1,.42.15.58.58,0,0,1,.17.43.56.56,0,0,1-.16.41.54.54,0,0,1-.41.18.57.57,0,0,1-.44-.19.63.63,0,0,1-.15-.44,1.92,1.92,0,0,1,.15-.74,2.16,2.16,0,0,1,.41-.62,1.91,1.91,0,0,1,.68-.48,2.18,2.18,0,0,1,.82-.15,2.63,2.63,0,0,1,.89.14,2.39,2.39,0,0,1,.79.45,2,2,0,0,1,.49.7,2,2,0,0,1,.17.85,2.37,2.37,0,0,1-.12.78,2.64,2.64,0,0,1-.41.66l-.61.61-.6.57-.63.59-1.17,1.14h2.54a1.12,1.12,0,0,0,.42-.07.85.85,0,0,0,.19-.36c0-.09.05-.24.08-.45l0-.18h.27Z" transform="translate(-55.52 -11.33)"/>
  <rect x="57.75" y="323.47" width="57.69" height="14.02" fill="none"/>
  <path d="M81.3,356.22a.57.57,0,0,1-.24,0H74.67a.66.66,0,0,1-.26,0,.18.18,0,0,1-.11-.18.21.21,0,0,1,.12-.21l.26,0h6.37l.24,0a.21.21,0,0,1,.13.21A.17.17,0,0,1,81.3,356.22Z" transform="translate(-55.52 -11.33)"/>
  <path d="M88.26,358.3a2.51,2.51,0,0,1-.49.84,2.36,2.36,0,0,1-.74.5,2.11,2.11,0,0,1-.86.19,1.86,1.86,0,0,1-.87-.21,1.79,1.79,0,0,1-.67-.55,3.65,3.65,0,0,1-.63-1.44,7.67,7.67,0,0,1-.14-1.53,5.25,5.25,0,0,1,.21-1.51,3.78,3.78,0,0,1,.71-1.33,2.57,2.57,0,0,1,.87-.74,2.47,2.47,0,0,1,1.11-.28,2.25,2.25,0,0,1,.61.08,1.29,1.29,0,0,1,.45.27,1.22,1.22,0,0,1,.26.38,1.11,1.11,0,0,1,.08.46.49.49,0,0,1-.14.37.48.48,0,0,1-.36.17.48.48,0,0,1-.37-.15.52.52,0,0,1-.14-.36.46.46,0,0,1,.17-.4.86.86,0,0,1,.43-.09.8.8,0,0,0-.43-.35,1.53,1.53,0,0,0-.54-.1,1.55,1.55,0,0,0-1.12.5,2.37,2.37,0,0,0-.59,1,4.92,4.92,0,0,0-.16.73,7.18,7.18,0,0,0,0,.95V356a1.76,1.76,0,0,1,.52-.78,1.36,1.36,0,0,1,.87-.31,2.21,2.21,0,0,1,.84.17,2.4,2.4,0,0,1,.71.53,2.29,2.29,0,0,1,.47.82,2.65,2.65,0,0,1,.16.94A2.59,2.59,0,0,1,88.26,358.3Zm-.82-1.1a6.32,6.32,0,0,0,0-.72,1.77,1.77,0,0,0-.16-.66,1.46,1.46,0,0,0-.41-.51,1,1,0,0,0-.6-.18,1.13,1.13,0,0,0-.62.17,1.32,1.32,0,0,0-.43.49,2.06,2.06,0,0,0-.25.62,3.85,3.85,0,0,0-.06.69c0,.22,0,.41,0,.57a4.93,4.93,0,0,0,.06.58,1.75,1.75,0,0,0,.38.86,1,1,0,0,0,.84.41,1.12,1.12,0,0,0,.66-.2,1.31,1.31,0,0,0,.43-.52,2.27,2.27,0,0,0,.16-.67,6.26,6.26,0,0,0,0-.69v-.24Z" transform="translate(-55.52 -11.33)"/>
  <path d="M93.68,357.33a3.9,3.9,0,0,1-.34,1.21,2.12,2.12,0,0,1-.77.94,2,2,0,0,1-1.14.35,2,2,0,0,1-.77-.16,1.93,1.93,0,0,1-.65-.41,2.8,2.8,0,0,1-.75-1.49,8.35,8.35,0,0,1-.15-1.71,8.76,8.76,0,0,1,.13-1.65,3,3,0,0,1,.68-1.5,1.93,1.93,0,0,1,.68-.51,2.24,2.24,0,0,1,.84-.16,2,2,0,0,1,.77.15,2.28,2.28,0,0,1,.66.45,2.79,2.79,0,0,1,.73,1.49,8.56,8.56,0,0,1,.15,1.73A9,9,0,0,1,93.68,357.33Zm-.85-2.5a8.83,8.83,0,0,0-.08-.9,2.12,2.12,0,0,0-.27-.81,1.45,1.45,0,0,0-.45-.47,1.19,1.19,0,0,0-.6-.17,1.24,1.24,0,0,0-.63.17,1.32,1.32,0,0,0-.43.47,2,2,0,0,0-.27.85,5.57,5.57,0,0,0-.06.89c0,.37,0,.74,0,1.13s0,.75,0,1.12a6.88,6.88,0,0,0,.06.92,2.78,2.78,0,0,0,.27.88,1.54,1.54,0,0,0,.43.48,1.12,1.12,0,0,0,.63.2,1,1,0,0,0,.63-.21,1.41,1.41,0,0,0,.45-.51,2.57,2.57,0,0,0,.23-.86c0-.23.05-.53.08-.9s0-.76,0-1.15,0-.76,0-1.15Z" transform="translate(-55.52 -11.33)"/>
  <rect x="0.18" y="337.49" width="57.57" height="14.14" fill="none"/>
  <path d="M141.51,356.22a.6.6,0,0,1-.25,0h-6.39a.63.63,0,0,1-.25,0,.17.17,0,0,1-.11-.18.21.21,0,0,1,.12-.21l.25,0h6.37l.25,0a.21.21,0,0,1,.13.21A.17.17,0,0,1,141.51,356.22Z" transform="translate(-55.52 -11.33)"/>
  <path d="M147.46,359.55h-1.79c-.33,0-.63,0-.9,0v-.35h.53a1.68,1.68,0,0,0,.62-.07.45.45,0,0,0,.23-.45V353a2.92,2.92,0,0,1-.59.19,5.55,5.55,0,0,1-.61.1h-.24V353h.37a2.83,2.83,0,0,0,.56-.09,3.24,3.24,0,0,0,.52-.19,2.82,2.82,0,0,0,.29-.18,1.94,1.94,0,0,0,.26-.23H147v6.48a.44.44,0,0,0,.24.45,1.68,1.68,0,0,0,.62.07h.52v.35C148.08,359.57,147.79,359.55,147.46,359.55Z" transform="translate(-55.52 -11.33)"/>
  <rect x="57.75" y="337.49" width="57.69" height="14.14" fill="none"/>
  <line x1="0.18" y1="0.18" x2="0.18" y2="351.64" fill="none" stroke="#000" stroke-miterlimit="10" stroke-width="0.36"/>
  <line x1="57.75" y1="0.18" x2="57.75" y2="351.64" fill="none" stroke="#000" stroke-miterlimit="10" stroke-width="0.36"/>
  <line x1="115.44" y1="0.18" x2="115.44" y2="351.64" fill="none" stroke="#000" stroke-miterlimit="10" stroke-width="0.36"/>
  <line x1="0.06" y1="0.18" x2="115.68" y2="0.18" fill="none" stroke="#000" stroke-miterlimit="10" stroke-width="0.36"/>
  <line x1="0.06" y1="14.33" x2="115.68" y2="14.33" fill="none" stroke="#000" stroke-miterlimit="10" stroke-width="0.36"/>
  <line x1="0.06" y1="28.35" x2="115.68" y2="28.35" fill="none" stroke="#000" stroke-miterlimit="10" stroke-width="0.36"/>
  <line x1="0.06" y1="42.37" x2="115.68" y2="42.37" fill="none" stroke="#000" stroke-miterlimit="10" stroke-width="0.36"/>
  <line x1="0.06" y1="56.4" x2="115.68" y2="56.4" fill="none" stroke="#000" stroke-miterlimit="10" stroke-width="0.36"/>
  <line x1="0.06" y1="70.54" x2="115.68" y2="70.54" fill="none" stroke="#000" stroke-miterlimit="10" stroke-width="0.36"/>
  <line x1="0.06" y1="84.57" x2="115.68" y2="84.57" fill="none" stroke="#000" stroke-miterlimit="10" stroke-width="0.36"/>
  <line x1="0.06" y1="98.59" x2="115.68" y2="98.59" fill="none" stroke="#000" stroke-miterlimit="10" stroke-width="0.36"/>
  <line x1="0.06" y1="112.62" x2="115.68" y2="112.62" fill="none" stroke="#000" stroke-miterlimit="10" stroke-width="0.36"/>
  <line x1="0.06" y1="126.76" x2="115.68" y2="126.76" fill="none" stroke="#000" stroke-miterlimit="10" stroke-width="0.36"/>
  <line x1="0.06" y1="140.79" x2="115.68" y2="140.79" fill="none" stroke="#000" stroke-miterlimit="10" stroke-width="0.36"/>
  <line x1="0.06" y1="154.81" x2="115.68" y2="154.81" fill="none" stroke="#000" stroke-miterlimit="10" stroke-width="0.36"/>
  <line x1="0.06" y1="168.84" x2="115.68" y2="168.84" fill="none" stroke="#000" stroke-miterlimit="10" stroke-width="0.36"/>
  <line x1="0.06" y1="182.98" x2="115.68" y2="182.98" fill="none" stroke="#000" stroke-miterlimit="10" stroke-width="0.36"/>
  <line x1="0.06" y1="197.01" x2="115.68" y2="197.01" fill="none" stroke="#000" stroke-miterlimit="10" stroke-width="0.36"/>
  <line x1="0.06" y1="211.03" x2="115.68" y2="211.03" fill="none" stroke="#000" stroke-miterlimit="10" stroke-width="0.36"/>
  <line x1="0.06" y1="225.05" x2="115.68" y2="225.05" fill="none" stroke="#000" stroke-miterlimit="10" stroke-width="0.36"/>
  <line x1="0.06" y1="239.2" x2="115.68" y2="239.2" fill="none" stroke="#000" stroke-miterlimit="10" stroke-width="0.36"/>
  <line x1="0.06" y1="253.22" x2="115.68" y2="253.22" fill="none" stroke="#000" stroke-miterlimit="10" stroke-width="0.36"/>
  <line x1="0.06" y1="267.25" x2="115.68" y2="267.25" fill="none" stroke="#000" stroke-miterlimit="10" stroke-width="0.36"/>
  <line x1="0.06" y1="281.27" x2="115.68" y2="281.27" fill="none" stroke="#000" stroke-miterlimit="10" stroke-width="0.36"/>
  <line x1="0.06" y1="295.42" x2="115.68" y2="295.42" fill="none" stroke="#000" stroke-miterlimit="10" stroke-width="0.36"/>
  <line x1="0.06" y1="309.44" x2="115.68" y2="309.44" fill="none" stroke="#000" stroke-miterlimit="10" stroke-width="0.36"/>
  <line x1="0.06" y1="323.47" x2="115.68" y2="323.47" fill="none" stroke="#000" stroke-miterlimit="10" stroke-width="0.36"/>
  <line x1="0.06" y1="337.49" x2="115.68" y2="337.49" fill="none" stroke="#000" stroke-miterlimit="10" stroke-width="0.36"/>
  <line x1="0.06" y1="351.64" x2="115.68" y2="351.64" fill="none" stroke="#000" stroke-miterlimit="10" stroke-width="0.36"/>
  <line x1="115.44" y1="0.18" x2="115.44" y2="351.64" fill="none" stroke="#000" stroke-miterlimit="10" stroke-width="0.36"/>
  <line x1="0.18" y1="0.18" x2="0.18" y2="351.64" fill="none" stroke="#000" stroke-miterlimit="10" stroke-width="0.36"/>
  <line x1="0.06" y1="351.64" x2="115.68" y2="351.64" fill="none" stroke="#000" stroke-miterlimit="10" stroke-width="0.36"/>
  <line x1="0.06" y1="0.18" x2="115.68" y2="0.18" fill="none" stroke="#000" stroke-miterlimit="10" stroke-width="0.36"/>
</svg>
