<svg id="레이어_1" data-name="레이어 1" xmlns="http://www.w3.org/2000/svg" width="177.95" height="170.83" viewBox="0 0 177.95 170.83">
  <circle cx="85.41" cy="85.41" r="85.04" fill="#dcdddd" stroke="#000" stroke-miterlimit="10" stroke-width="0.75"/>
  <circle cx="85.41" cy="85.41" r="42.52" fill="#fff" stroke="#000" stroke-miterlimit="10" stroke-width="0.75"/>
  <line x1="85.41" y1="85.41" x2="169.08" y2="70.66" fill="none" stroke="#000" stroke-miterlimit="10" stroke-width="0.4"/>
  <line x1="85.41" y1="85.41" x2="99.96" y2="45.46" fill="none" stroke="#000" stroke-miterlimit="10" stroke-width="0.4"/>
  <line x1="30.71" y1="20.3" x2="169.08" y2="70.66" fill="none" stroke="#000" stroke-miterlimit="10" stroke-width="0.4"/>
  <g>
    <path d="M122.08,47.28l-.6-.17" transform="translate(-34.03 -23.4)" fill="none" stroke="#221e1f" stroke-miterlimit="10" stroke-width="0.4"/>
    <path d="M120.6,46.88c-25.29-6.75-46.16-8.3-54.81-3.94" transform="translate(-34.03 -23.4)" fill="none" stroke="#221e1f" stroke-miterlimit="10" stroke-width="0.4" stroke-dasharray="1.25 0.91"/>
    <path d="M65.39,43.15c-.18.1-.36.2-.53.31" transform="translate(-34.03 -23.4)" fill="none" stroke="#221e1f" stroke-miterlimit="10" stroke-width="0.4"/>
  </g>
  <g>
    <path d="M202.88,93.73c-.07-.19-.14-.38-.23-.57" transform="translate(-34.03 -23.4)" fill="none" stroke="#221e1f" stroke-miterlimit="10" stroke-width="0.4"/>
    <path d="M202.28,92.34C197.57,83,178.3,69.9,151.84,58" transform="translate(-34.03 -23.4)" fill="none" stroke="#221e1f" stroke-miterlimit="10" stroke-width="0.4" stroke-dasharray="1.24 0.9"/>
    <path d="M151.43,57.82l-.57-.25" transform="translate(-34.03 -23.4)" fill="none" stroke="#221e1f" stroke-miterlimit="10" stroke-width="0.4"/>
  </g>
  <path d="M209.17,95.49v-.28a1.82,1.82,0,0,0,.93-.14c.15-.1.17-.31.07-.61l-.65-1.84h-3.06L206,94.21q-.19.6,0,.81a1.48,1.48,0,0,0,.94.19v.28h-2.41v-.28a1,1,0,0,0,.68-.19,2.56,2.56,0,0,0,.49-1l2.19-6.4.61-.27,2.43,7a1.09,1.09,0,0,0,.4.61,1.27,1.27,0,0,0,.7.17v.28ZM208,88.21l-1.4,4.09h2.83Z" transform="translate(-34.03 -23.4)" fill="#221e1f"/>
  <path d="M64.17,42.28a3.05,3.05,0,0,1-2.09.67H58.54v-.28a1.71,1.71,0,0,0,.83-.14.65.65,0,0,0,.22-.58V36.07a.72.72,0,0,0-.22-.58,1.44,1.44,0,0,0-.83-.18V35h3.33a3.24,3.24,0,0,1,2,.53,1.56,1.56,0,0,1,.69,1.33,1.47,1.47,0,0,1-.38,1,2.62,2.62,0,0,1-1.35.72,2.81,2.81,0,0,1,1.6.79,2,2,0,0,1-.21,2.84ZM63.3,35.8a2,2,0,0,0-1.44-.49h-.65a1.12,1.12,0,0,0-.71.18.73.73,0,0,0-.21.58V38.6h1.57A1.89,1.89,0,0,0,63.22,38a1.69,1.69,0,0,0,.53-1.2A1.37,1.37,0,0,0,63.3,35.8Zm.24,3.66A2.1,2.1,0,0,0,62,38.88H60.29V42a.67.67,0,0,0,.21.58,1.3,1.3,0,0,0,.71.14H62a2.22,2.22,0,0,0,1.61-.59,1.71,1.71,0,0,0,.56-1.3A1.75,1.75,0,0,0,63.54,39.46Z" transform="translate(-34.03 -23.4)" fill="#221e1f"/>
  <path d="M117.18,117.2a3,3,0,0,1-4.91,0,4.63,4.63,0,0,1-.85-2.83,4.7,4.7,0,0,1,.85-2.85,3,3,0,0,1,4.91,0,4.7,4.7,0,0,1,.85,2.85A4.63,4.63,0,0,1,117.18,117.2Zm-.56-5.49a2.1,2.1,0,0,0-3.8,0,5.13,5.13,0,0,0-.66,2.67,5,5,0,0,0,.66,2.63,2.1,2.1,0,0,0,3.8,0,5,5,0,0,0,.66-2.63A5.13,5.13,0,0,0,116.62,111.71Z" transform="translate(-34.03 -23.4)" fill="#221e1f"/>
  <path d="M138.93,63.62a2.39,2.39,0,0,1-1.66.57h-1.81v2.64a.73.73,0,0,0,.23.6,1.48,1.48,0,0,0,.91.21v.28h-2.89v-.28a1.23,1.23,0,0,0,.82-.21.7.7,0,0,0,.23-.6V61a.59.59,0,0,0-.23-.55,1.58,1.58,0,0,0-.82-.15V60h3.64a2.45,2.45,0,0,1,1.59.51,1.83,1.83,0,0,1,.67,1.47A2.06,2.06,0,0,1,138.93,63.62Zm-.53-2.83a1.72,1.72,0,0,0-1.3-.51h-.86a.89.89,0,0,0-.59.15.7.7,0,0,0-.19.55v2.93h1.63a1.6,1.6,0,0,0,1.31-.63,2,2,0,0,0,.46-1.3A1.64,1.64,0,0,0,138.4,60.79Z" transform="translate(-34.03 -23.4)" fill="#221e1f"/>
  <circle cx="85.41" cy="85.41" r="1.42" fill="#221e1f"/>
  <polyline points="108.08 48.5 105.17 56.49 97.18 53.58" fill="none" stroke="#221e1f" stroke-miterlimit="10" stroke-width="0.4"/>
  <path d="M126.27,58.11h-4.1v-.25l2.25-2.51.43-.55a4.31,4.31,0,0,0,.37-.61,3.5,3.5,0,0,0,.25-.62,2.2,2.2,0,0,0,0-1.31,1.45,1.45,0,0,0-.27-.59,1.3,1.3,0,0,0-1.12-.56,1.49,1.49,0,0,0-.93.31,1.63,1.63,0,0,0-.56.81h.14a.59.59,0,0,1,.43,1,.57.57,0,0,1-.41.18.52.52,0,0,1-.44-.19.6.6,0,0,1-.16-.44,1.76,1.76,0,0,1,.16-.74,2,2,0,0,1,.4-.61,2,2,0,0,1,.68-.49,2.25,2.25,0,0,1,.82-.15,2.93,2.93,0,0,1,.9.14,2.34,2.34,0,0,1,.78.45,2.21,2.21,0,0,1,.54,2.33,2.33,2.33,0,0,1-.41.67q-.26.27-.6.6l-.6.57-.63.59L123,57.26h2.54a1.12,1.12,0,0,0,.42-.07.86.86,0,0,0,.18-.36q0-.14.09-.45l0-.18h.28Z" transform="translate(-34.03 -23.4)"/>
  <path d="M131.78,55.85a4.26,4.26,0,0,1-.33,1.22,2.34,2.34,0,0,1-.78.94,1.94,1.94,0,0,1-1.14.34,2,2,0,0,1-.77-.15,1.8,1.8,0,0,1-.64-.41,2.84,2.84,0,0,1-.76-1.5,8.22,8.22,0,0,1-.15-1.71,9.68,9.68,0,0,1,.13-1.65,3.08,3.08,0,0,1,.68-1.49,1.93,1.93,0,0,1,.68-.51,2.19,2.19,0,0,1,1.62,0,2.26,2.26,0,0,1,.65.44,2.86,2.86,0,0,1,.74,1.5,8.46,8.46,0,0,1,.15,1.72A8.73,8.73,0,0,1,131.78,55.85Zm-.85-2.5c0-.35,0-.65-.07-.89a2.11,2.11,0,0,0-.27-.82,1.44,1.44,0,0,0-.46-.46,1,1,0,0,0-.6-.17,1.15,1.15,0,0,0-.63.17,1.37,1.37,0,0,0-.43.46,2.07,2.07,0,0,0-.27.85q0,.38-.06.9c0,.36,0,.74,0,1.13s0,.74,0,1.12a6.73,6.73,0,0,0,.06.91,2.76,2.76,0,0,0,.27.89,1.54,1.54,0,0,0,.43.48,1.13,1.13,0,0,0,.63.19,1,1,0,0,0,.64-.2,1.45,1.45,0,0,0,.45-.52,2.87,2.87,0,0,0,.22-.86c0-.23.06-.53.08-.89s0-.76,0-1.15,0-.76,0-1.16Z" transform="translate(-34.03 -23.4)"/>
  <path d="M138,59.4l0,.05a.51.51,0,0,1-.08.14.2.2,0,0,1-.14.06h-.21l-2-5.15-.78.63-.17-.19,1.54-1.27L138,58.4l4.88-10.71h.27v.45Z" transform="translate(-34.03 -23.4)"/>
  <path d="M142.37,48.1v-.44h7.08v.44Z" transform="translate(-34.03 -23.4)"/>
  <path d="M147.26,58.11h-4.1v-.25l2.24-2.51c.17-.2.31-.39.43-.55a4.39,4.39,0,0,0,.38-.61,3.5,3.5,0,0,0,.25-.62,2.2,2.2,0,0,0,0-1.31,1.78,1.78,0,0,0-.27-.59,1.57,1.57,0,0,0-.5-.43,1.6,1.6,0,0,0-.62-.13,1.54,1.54,0,0,0-.94.31,1.77,1.77,0,0,0-.56.81h.14a.57.57,0,0,1,.6.59.59.59,0,0,1-.16.4.57.57,0,0,1-.41.18.55.55,0,0,1-.45-.19.63.63,0,0,1-.15-.44,1.92,1.92,0,0,1,.15-.74,2,2,0,0,1,.41-.61,1.91,1.91,0,0,1,.68-.49,2.21,2.21,0,0,1,.82-.15,3,3,0,0,1,.9.14,2.34,2.34,0,0,1,.78.45,2.21,2.21,0,0,1,.54,2.33,2.57,2.57,0,0,1-.41.67q-.25.27-.6.6l-.61.57-.62.59L144,57.26h2.54a1.12,1.12,0,0,0,.42-.07.86.86,0,0,0,.18-.36q0-.14.09-.45l0-.18h.28Z" transform="translate(-34.03 -23.4)"/>
</svg>
