<svg id="레이어_1" data-name="레이어 1" xmlns="http://www.w3.org/2000/svg" width="175.02" height="166.87" viewBox="0 0 175.02 166.87">
  <g>
    <line x1="22.95" y1="134.49" x2="23.57" y2="134.49" fill="none" stroke="#231815" stroke-miterlimit="10" stroke-width="0.4"/>
    <line x1="24.46" y1="134.49" x2="157.95" y2="134.49" fill="none" stroke="#231815" stroke-miterlimit="10" stroke-width="0.4" stroke-dasharray="1.23 0.89"/>
    <line x1="158.39" y1="134.49" x2="159.01" y2="134.49" fill="none" stroke="#231815" stroke-miterlimit="10" stroke-width="0.4"/>
  </g>
  <path d="M189.63,167.6l-2.17-3.92h-1.17v2.87a.69.69,0,0,0,.24.59,1.4,1.4,0,0,0,.82.18v.28h-2.81v-.28a1.41,1.41,0,0,0,.83-.18.69.69,0,0,0,.22-.59v-5.92a.57.57,0,0,0-.22-.52,1.65,1.65,0,0,0-.83-.15v-.28h3.21a3.08,3.08,0,0,1,1.95.56,1.72,1.72,0,0,1,.67,1.41,1.83,1.83,0,0,1-.54,1.35,2.34,2.34,0,0,1-1.63.65l1.81,3.18a.92.92,0,0,0,.43.4,2,2,0,0,0,.69.09v.28Zm-.53-7.19a2,2,0,0,0-1.39-.45h-.62a1,1,0,0,0-.59.15.62.62,0,0,0-.21.52v2.77H188a1.51,1.51,0,0,0,1.27-.55,1.85,1.85,0,0,0,.37-1.2A1.56,1.56,0,0,0,189.1,160.41Z" transform="translate(-23.98 -28.65)" fill="#221e1f"/>
  <g>
    <line x1="22.95" y1="106.15" x2="22.95" y2="106.77" fill="none" stroke="#231815" stroke-linejoin="round" stroke-width="0.4"/>
    <line x1="22.95" y1="107.69" x2="22.95" y2="133.39" fill="none" stroke="#231815" stroke-linejoin="round" stroke-width="0.4" stroke-dasharray="1.26 0.92"/>
    <line x1="22.95" y1="133.85" x2="22.95" y2="134.47" fill="none" stroke="#231815" stroke-linejoin="round" stroke-width="0.4"/>
  </g>
  <polyline points="159.01 66.46 159.01 15.44 22.95 15.44 22.95 106.15" fill="none" stroke="#231815" stroke-linejoin="round" stroke-width="0.75"/>
  <g>
    <line x1="22.95" y1="134.47" x2="22.95" y2="135.09" fill="none" stroke="#231815" stroke-linejoin="round" stroke-width="0.4"/>
    <line x1="22.95" y1="135.98" x2="22.95" y2="150.44" fill="none" stroke="#231815" stroke-linejoin="round" stroke-width="0.4" stroke-dasharray="1.23 0.9"/>
    <polyline points="22.95 150.88 22.95 151.5 23.57 151.5" fill="none" stroke="#231815" stroke-linejoin="round" stroke-width="0.4"/>
    <line x1="24.46" y1="151.5" x2="157.95" y2="151.5" fill="none" stroke="#231815" stroke-linejoin="round" stroke-width="0.4" stroke-dasharray="1.23 0.89"/>
    <polyline points="158.39 151.5 159.01 151.5 159.01 150.88" fill="none" stroke="#231815" stroke-linejoin="round" stroke-width="0.4"/>
    <line x1="159.01" y1="149.99" x2="159.01" y2="67.53" fill="none" stroke="#231815" stroke-linejoin="round" stroke-width="0.4" stroke-dasharray="1.23 0.89"/>
    <line x1="159.01" y1="67.08" x2="159.01" y2="66.46" fill="none" stroke="#231815" stroke-linejoin="round" stroke-width="0.4"/>
  </g>
  <polygon points="9.34 124.29 90.98 15.44 159.01 66.46 22.95 134.5 9.34 124.29" fill="none" stroke="#231815" stroke-linejoin="round" stroke-width="0.75"/>
  <path d="M43,43.74v-.28a1.94,1.94,0,0,0,.93-.14c.16-.11.18-.31.07-.61l-.65-1.84H40.25l-.5,1.59q-.21.6,0,.81a1.53,1.53,0,0,0,.94.19v.28H38.28v-.28a1.06,1.06,0,0,0,.68-.19,2.68,2.68,0,0,0,.48-1l2.2-6.41.6-.26,2.43,7a1.17,1.17,0,0,0,.4.62,1.27,1.27,0,0,0,.7.17v.28Zm-1.19-7.29-1.41,4.1h2.83Z" transform="translate(-23.98 -28.65)" fill="#221e1f"/>
  <path d="M44.49,187.39a3.07,3.07,0,0,1-2.08.66H38.86v-.28a1.61,1.61,0,0,0,.84-.14c.14-.09.21-.28.21-.58v-5.87a.69.69,0,0,0-.21-.58,1.37,1.37,0,0,0-.84-.19v-.28h3.33a3.28,3.28,0,0,1,2,.53,1.58,1.58,0,0,1,.69,1.33,1.51,1.51,0,0,1-.38,1,2.7,2.7,0,0,1-1.35.72,2.91,2.91,0,0,1,1.6.79,2,2,0,0,1-.22,2.85Zm-.86-6.48a2,2,0,0,0-1.45-.5h-.65a1,1,0,0,0-.7.19.72.72,0,0,0-.22.58v2.52h1.57a1.82,1.82,0,0,0,1.36-.58,1.63,1.63,0,0,0,.53-1.19A1.37,1.37,0,0,0,43.63,180.91Zm.24,3.65a2.12,2.12,0,0,0-1.52-.58H40.61v3.07a.67.67,0,0,0,.22.58,1.18,1.18,0,0,0,.7.14h.75a2.17,2.17,0,0,0,1.61-.59,1.73,1.73,0,0,0,.56-1.3A1.75,1.75,0,0,0,43.87,184.56Z" transform="translate(-23.98 -28.65)" fill="#221e1f"/>
  <path d="M189.23,187.54a2.65,2.65,0,0,1-1.82.69,2.92,2.92,0,0,1-2.29-1.08,4.67,4.67,0,0,1-1-3.1,4.8,4.8,0,0,1,.86-2.89,2.69,2.69,0,0,1,2.24-1.2,3.36,3.36,0,0,1,.63.06l.63.19.07,0,.79-.25.76,2-.17.11a5.46,5.46,0,0,0-1.07-1.22,2.51,2.51,0,0,0-1.62-.65,2,2,0,0,0-1.7,1.08,5.16,5.16,0,0,0-.67,2.73,4,4,0,0,0,.82,2.59,2.38,2.38,0,0,0,2,1,2.1,2.1,0,0,0,1.3-.44,3.87,3.87,0,0,0,1.14-1.41l.21.09A4.16,4.16,0,0,1,189.23,187.54Z" transform="translate(-23.98 -28.65)" fill="#221e1f"/>
  <path d="M189.72,42.41a3.58,3.58,0,0,1-2.92,1.24h-3v-.28a1.38,1.38,0,0,0,.81-.18.73.73,0,0,0,.23-.62V36.75a.66.66,0,0,0-.23-.57,1.53,1.53,0,0,0-.81-.17v-.28h3A3.58,3.58,0,0,1,189.72,37a4.56,4.56,0,0,1,0,5.44Zm-.62-5.25A2.72,2.72,0,0,0,186.8,36h-.34a1.13,1.13,0,0,0-.68.17.76.76,0,0,0-.2.57v5.82a.85.85,0,0,0,.2.62,1,1,0,0,0,.68.18h.34a2.72,2.72,0,0,0,2.3-1.15,4.54,4.54,0,0,0,0-5.06Z" transform="translate(-23.98 -28.65)" fill="#221e1f"/>
  <path d="M116.78,38.83v-.28a1.29,1.29,0,0,0,.82-.2.64.64,0,0,0,.23-.56v-6.5h-.12l-2.87,7.63h-.17l-2.83-7.47h-.13v6.34a.69.69,0,0,0,.21.58,1.45,1.45,0,0,0,.84.18v.28h-2.42v-.28a1.45,1.45,0,0,0,.84-.18.69.69,0,0,0,.21-.58v-6a.5.5,0,0,0-.24-.47,1.72,1.72,0,0,0-.81-.13v-.28h2l2.61,6.92,2.59-6.92h2v.28a1.85,1.85,0,0,0-.86.14.51.51,0,0,0-.2.46v6a.69.69,0,0,0,.22.56,1.36,1.36,0,0,0,.84.2v.28Z" transform="translate(-23.98 -28.65)" fill="#221e1f"/>
  <path d="M190.76,92.16a.47.47,0,0,0-.25.45V99.7h-.19l-4.83-7v5.88a.69.69,0,0,0,.22.59,1.79,1.79,0,0,0,.92.17v.28H184.1v-.28a1.48,1.48,0,0,0,.81-.17.67.67,0,0,0,.24-.59V92.77a.67.67,0,0,0-.24-.59,1.48,1.48,0,0,0-.81-.17v-.28h1.49l4.6,6.64V92.61a.49.49,0,0,0-.26-.46A2.2,2.2,0,0,0,189,92v-.28h2.55V92A1.66,1.66,0,0,0,190.76,92.16Z" transform="translate(-23.98 -28.65)" fill="#221e1f"/>
  <path d="M44.68,131.63a2.39,2.39,0,0,1-1.66.57H41.21v2.64a.73.73,0,0,0,.23.6,1.48,1.48,0,0,0,.91.21v.28H39.46v-.28a1.27,1.27,0,0,0,.83-.21.72.72,0,0,0,.22-.6V129a.62.62,0,0,0-.22-.56,1.65,1.65,0,0,0-.83-.15V128h3.65a2.44,2.44,0,0,1,1.58.51,1.84,1.84,0,0,1,.67,1.48A2.05,2.05,0,0,1,44.68,131.63Zm-.53-2.83a1.72,1.72,0,0,0-1.3-.51H42a.89.89,0,0,0-.59.15.71.71,0,0,0-.19.56v2.92h1.63a1.61,1.61,0,0,0,1.31-.62,2,2,0,0,0,.46-1.3A1.65,1.65,0,0,0,44.15,128.8Z" transform="translate(-23.98 -28.65)" fill="#221e1f"/>
  <g>
    <path d="M29.6,155.53a3.09,3.09,0,0,1-2.08.67H24v-.28a1.68,1.68,0,0,0,.83-.14.64.64,0,0,0,.22-.58v-5.87a.69.69,0,0,0-.22-.58,1.41,1.41,0,0,0-.83-.18v-.28H27.3a3.24,3.24,0,0,1,1.95.53,1.56,1.56,0,0,1,.69,1.33,1.52,1.52,0,0,1-.37,1,2.87,2.87,0,0,1-1.35.72,2.78,2.78,0,0,1,1.59.78,1.91,1.91,0,0,1,.48,1.34A1.93,1.93,0,0,1,29.6,155.53Zm-.86-6.46a2.06,2.06,0,0,0-1.45-.5h-.65a1.11,1.11,0,0,0-.7.18.75.75,0,0,0-.21.58v2.52h1.56a1.82,1.82,0,0,0,1.36-.58,1.65,1.65,0,0,0,.53-1.19A1.36,1.36,0,0,0,28.74,149.07Zm.23,3.64a2.14,2.14,0,0,0-1.51-.58H25.73v3.07a.68.68,0,0,0,.21.58,1.29,1.29,0,0,0,.7.14h.75a2.19,2.19,0,0,0,1.6-.59,1.72,1.72,0,0,0,.57-1.3A1.76,1.76,0,0,0,29,152.71Z" transform="translate(-23.98 -28.65)"/>
    <path d="M33.1,147.61h1.1l-2.3,3.08Z" transform="translate(-23.98 -28.65)"/>
  </g>
  <polyline points="23 142.48 31.51 142.48 31.51 150.98" fill="none" stroke="#221e1f" stroke-miterlimit="10" stroke-width="0.4"/>
  <polyline points="159.01 143 150.51 143 150.51 151.5" fill="none" stroke="#221e1f" stroke-miterlimit="10" stroke-width="0.4"/>
  <polyline points="22.98 24.46 31.48 24.46 31.48 15.96" fill="none" stroke="#221e1f" stroke-miterlimit="10" stroke-width="0.4"/>
  <polyline points="158.99 23.94 150.48 23.94 150.48 15.44" fill="none" stroke="#221e1f" stroke-miterlimit="10" stroke-width="0.4"/>
  <polyline points="97.7 20.54 92.6 27.35 85.8 22.24" fill="none" stroke="#221e1f" stroke-miterlimit="10" stroke-width="0.4"/>
  <polyline points="14.58 117.25 21.38 122.36 16.28 129.16" fill="none" stroke="#221e1f" stroke-miterlimit="10" stroke-width="0.4"/>
  <path d="M54.65,158.14a2.65,2.65,0,0,1-.47.38,1.22,1.22,0,0,1-.62.16,1.28,1.28,0,0,1-.89-.37,3,3,0,0,1-.59-.91,3,3,0,0,1-.53.18,2.59,2.59,0,0,1-.47,0,2.92,2.92,0,0,1-2.49-1.29,5.22,5.22,0,0,1,0-5.68,3,3,0,0,1,4.95,0,4.61,4.61,0,0,1,.9,2.84,5.31,5.31,0,0,1-.44,2.16,2.71,2.71,0,0,1-1.33,1.52,2,2,0,0,0,.43.62.93.93,0,0,0,.67.31,1.57,1.57,0,0,0,.83-.21l.13.17ZM53,150.85a2.19,2.19,0,0,0-1.93-1.21,2.22,2.22,0,0,0-1.94,1.21,5.07,5.07,0,0,0-.66,2.66,6.17,6.17,0,0,0,.21,1.57,3.11,3.11,0,0,0,.62,1.33,1,1,0,0,1,.33-1,1.36,1.36,0,0,1,.82-.21,1.78,1.78,0,0,1,1,.32,3.2,3.2,0,0,1,1.07,1.23,2.74,2.74,0,0,0,.91-1.5,6.18,6.18,0,0,0,.26-1.78A5.07,5.07,0,0,0,53,150.85Zm-1.89,5a1.32,1.32,0,0,0-.81-.27.82.82,0,0,0-.49.12,1,1,0,0,0-.31.87,2.87,2.87,0,0,0,.81.61,1.79,1.79,0,0,0,.76.16,1.38,1.38,0,0,0,.43-.07l.44-.18A2.82,2.82,0,0,0,51.12,155.86Z" transform="translate(-23.98 -28.65)" fill="#221e1f"/>
  <g>
    <path d="M32.81,160.91c-.07-.19-.14-.39-.2-.58" transform="translate(-23.98 -28.65)" fill="none" stroke="#221e1f" stroke-miterlimit="10" stroke-width="0.4"/>
    <path d="M32.4,159.48A10.2,10.2,0,0,1,33,153.8" transform="translate(-23.98 -28.65)" fill="none" stroke="#221e1f" stroke-miterlimit="10" stroke-width="0.4" stroke-dasharray="1.2 0.87"/>
    <path d="M33.15,153.4a5.77,5.77,0,0,1,.27-.56" transform="translate(-23.98 -28.65)" fill="none" stroke="#221e1f" stroke-miterlimit="10" stroke-width="0.4"/>
  </g>
  <g>
    <path d="M47,163.07l-.47.41" transform="translate(-23.98 -28.65)" fill="none" stroke="#221e1f" stroke-miterlimit="10" stroke-width="0.4"/>
    <path d="M45.83,164a10,10,0,0,1-5.37,1.88" transform="translate(-23.98 -28.65)" fill="none" stroke="#221e1f" stroke-miterlimit="10" stroke-width="0.4" stroke-dasharray="1.2 0.87"/>
    <path d="M40,165.9c-.21,0-.42,0-.62,0" transform="translate(-23.98 -28.65)" fill="none" stroke="#221e1f" stroke-miterlimit="10" stroke-width="0.4"/>
  </g>
  <g>
    <path d="M194.2,65.56l-.06-.62" transform="translate(-23.98 -28.65)" fill="none" stroke="#221e1f" stroke-miterlimit="10" stroke-width="0.4"/>
    <path d="M194.05,64.06c-1.11-9.46-5-17-10-19.6" transform="translate(-23.98 -28.65)" fill="none" stroke="#221e1f" stroke-miterlimit="10" stroke-width="0.4" stroke-dasharray="1.22 0.89"/>
    <path d="M183.62,44.27q-.28-.14-.57-.24" transform="translate(-23.98 -28.65)" fill="none" stroke="#221e1f" stroke-miterlimit="10" stroke-width="0.4"/>
  </g>
  <g>
    <path d="M183,95.11q.28-.1.57-.24" transform="translate(-23.98 -28.65)" fill="none" stroke="#221e1f" stroke-miterlimit="10" stroke-width="0.4"/>
    <path d="M184.41,94.46c4.66-2.67,8.29-9.65,9.51-18.4" transform="translate(-23.98 -28.65)" fill="none" stroke="#221e1f" stroke-miterlimit="10" stroke-width="0.4" stroke-dasharray="1.26 0.92"/>
    <path d="M194,75.6c0-.2.05-.41.08-.61" transform="translate(-23.98 -28.65)" fill="none" stroke="#221e1f" stroke-miterlimit="10" stroke-width="0.4"/>
  </g>
  <g>
    <path d="M194.29,133l0-.62" transform="translate(-23.98 -28.65)" fill="none" stroke="#221e1f" stroke-miterlimit="10" stroke-width="0.4"/>
    <path d="M194.23,131.45c-.8-17.27-4.92-31.27-10.32-35.75" transform="translate(-23.98 -28.65)" fill="none" stroke="#221e1f" stroke-miterlimit="10" stroke-width="0.4" stroke-dasharray="1.24 0.9"/>
    <path d="M183.56,95.43c-.17-.13-.34-.24-.51-.35" transform="translate(-23.98 -28.65)" fill="none" stroke="#221e1f" stroke-miterlimit="10" stroke-width="0.4"/>
  </g>
  <g>
    <path d="M183,180c.17-.11.34-.22.51-.35" transform="translate(-23.98 -28.65)" fill="none" stroke="#221e1f" stroke-miterlimit="10" stroke-width="0.4"/>
    <path d="M184.22,179.11c5.28-4.78,9.27-18.7,10-35.76" transform="translate(-23.98 -28.65)" fill="none" stroke="#221e1f" stroke-miterlimit="10" stroke-width="0.4" stroke-dasharray="1.23 0.89"/>
    <path d="M194.26,142.89c0-.2,0-.41,0-.62" transform="translate(-23.98 -28.65)" fill="none" stroke="#221e1f" stroke-miterlimit="10" stroke-width="0.4"/>
  </g>
  <g>
    <path d="M142.2,32.84l-.62,0" transform="translate(-23.98 -28.65)" fill="none" stroke="#221e1f" stroke-miterlimit="10" stroke-width="0.4"/>
    <path d="M140.67,33c-12.14,1.23-21.75,5.07-25.07,10" transform="translate(-23.98 -28.65)" fill="none" stroke="#221e1f" stroke-miterlimit="10" stroke-width="0.4" stroke-dasharray="1.25 0.91"/>
    <path d="M115.36,43.34q-.17.27-.3.54" transform="translate(-23.98 -28.65)" fill="none" stroke="#221e1f" stroke-miterlimit="10" stroke-width="0.4"/>
  </g>
  <g>
    <path d="M183,43.9q-.14-.27-.3-.54" transform="translate(-23.98 -28.65)" fill="none" stroke="#221e1f" stroke-miterlimit="10" stroke-width="0.4"/>
    <path d="M182.18,42.62c-3.53-4.75-13-8.44-24.84-9.64" transform="translate(-23.98 -28.65)" fill="none" stroke="#221e1f" stroke-miterlimit="10" stroke-width="0.4" stroke-dasharray="1.23 0.9"/>
    <path d="M156.89,32.93l-.62,0" transform="translate(-23.98 -28.65)" fill="none" stroke="#221e1f" stroke-miterlimit="10" stroke-width="0.4"/>
  </g>
  <g>
    <path d="M121.83,191.42h.62" transform="translate(-23.98 -28.65)" fill="none" stroke="#221e1f" stroke-miterlimit="10" stroke-width="0.4"/>
    <path d="M123.37,191.38c28.57-.7,51.81-4.94,58.88-10.5" transform="translate(-23.98 -28.65)" fill="none" stroke="#221e1f" stroke-miterlimit="10" stroke-width="0.4" stroke-dasharray="1.26 0.91"/>
    <path d="M182.6,180.59l.45-.42" transform="translate(-23.98 -28.65)" fill="none" stroke="#221e1f" stroke-miterlimit="10" stroke-width="0.4"/>
  </g>
  <g>
    <path d="M46.93,180.15l.45.42" transform="translate(-23.98 -28.65)" fill="none" stroke="#221e1f" stroke-miterlimit="10" stroke-width="0.4"/>
    <path d="M48.09,181.13c7.49,5.47,30.65,9.61,59,10.27" transform="translate(-23.98 -28.65)" fill="none" stroke="#221e1f" stroke-miterlimit="10" stroke-width="0.4" stroke-dasharray="1.26 0.91"/>
    <path d="M107.54,191.41h.62" transform="translate(-23.98 -28.65)" fill="none" stroke="#221e1f" stroke-miterlimit="10" stroke-width="0.4"/>
  </g>
  <path d="M151.61,35a2,2,0,0,1-.49.66,2.23,2.23,0,0,1-.76.44,2.36,2.36,0,0,1-.87.17,2.81,2.81,0,0,1-.82-.13,2.21,2.21,0,0,1-.75-.38,1.9,1.9,0,0,1-.52-.62,1.78,1.78,0,0,1-.18-.78,1.87,1.87,0,0,1,.14-.71,1.8,1.8,0,0,1,.41-.59,2.73,2.73,0,0,1,.48-.41,3.26,3.26,0,0,1,.55-.31l-.12-.09a4.28,4.28,0,0,1-.52-.37,1.67,1.67,0,0,1-.43-.52,1.7,1.7,0,0,1-.16-.41,1.52,1.52,0,0,1-.06-.42,1.72,1.72,0,0,1,.15-.72,1.69,1.69,0,0,1,.44-.59,2.1,2.1,0,0,1,.65-.41,2.39,2.39,0,0,1,.77-.12,2.44,2.44,0,0,1,.71.1,2,2,0,0,1,.64.34,1.4,1.4,0,0,1,.46.51,1.53,1.53,0,0,1,.17.69,1.32,1.32,0,0,1-.1.51,1.5,1.5,0,0,1-.27.45,2.79,2.79,0,0,1-.44.4,2.83,2.83,0,0,1-.53.34l.44.28a3.05,3.05,0,0,1,.65.5,1.78,1.78,0,0,1,.43.72,1.87,1.87,0,0,1,.08.34,1.53,1.53,0,0,1,0,.3A2,2,0,0,1,151.61,35Zm-.46-.86a1.13,1.13,0,0,0-.2-.35,2.53,2.53,0,0,0-.49-.41l-.6-.38-.2-.13-.61-.37a3.15,3.15,0,0,0-.6.41,1.55,1.55,0,0,0-.39.47,3.06,3.06,0,0,0-.23.49,2.05,2.05,0,0,0-.06.49,1.47,1.47,0,0,0,.13.62,1.37,1.37,0,0,0,.38.51,1.65,1.65,0,0,0,.57.35,1.86,1.86,0,0,0,.67.13,2,2,0,0,0,.62-.11,2.51,2.51,0,0,0,.57-.28,1.48,1.48,0,0,0,.38-.46,1,1,0,0,0,.15-.54A1.12,1.12,0,0,0,151.15,34.1Zm-.25-4.36a1.18,1.18,0,0,0-.34-.43,1.42,1.42,0,0,0-.51-.29,1.69,1.69,0,0,0-.56-.1A2.42,2.42,0,0,0,149,29a1.54,1.54,0,0,0-.48.24,1.06,1.06,0,0,0-.34.36.89.89,0,0,0-.13.48.83.83,0,0,0,.16.5,1.18,1.18,0,0,0,.39.38l1.38.88.44-.32a2.31,2.31,0,0,0,.34-.36,1.44,1.44,0,0,0,.23-.42,1.31,1.31,0,0,0,.07-.44A1.42,1.42,0,0,0,150.9,29.74Z" transform="translate(-23.98 -28.65)"/>
  <path d="M196,72.34a2.51,2.51,0,0,1-.49.84,2.58,2.58,0,0,1-.74.51,2.11,2.11,0,0,1-.86.18,2,2,0,0,1-.87-.2,1.89,1.89,0,0,1-.67-.55,3.62,3.62,0,0,1-.62-1.45,6.83,6.83,0,0,1-.15-1.53,5.18,5.18,0,0,1,.21-1.5,3.83,3.83,0,0,1,.71-1.34,2.43,2.43,0,0,1,.87-.73,2.34,2.34,0,0,1,1.11-.28,2.27,2.27,0,0,1,.61.07,1.29,1.29,0,0,1,.45.27,1.35,1.35,0,0,1,.26.38,1.14,1.14,0,0,1,.08.46.51.51,0,0,1-.14.38.46.46,0,0,1-.36.16.5.5,0,0,1-.37-.15.48.48,0,0,1-.14-.35.46.46,0,0,1,.17-.4.76.76,0,0,1,.43-.1.79.79,0,0,0-.43-.34,1.33,1.33,0,0,0-.54-.1,1.53,1.53,0,0,0-1.12.49,2.41,2.41,0,0,0-.59,1,4.65,4.65,0,0,0-.16.73,7.08,7.08,0,0,0,0,1V70a1.73,1.73,0,0,1,.52-.77,1.31,1.31,0,0,1,.87-.31,2,2,0,0,1,.84.17,2.24,2.24,0,0,1,.71.53,2.29,2.29,0,0,1,.47.82,2.6,2.6,0,0,1,.16.93A2.55,2.55,0,0,1,196,72.34Zm-.82-1.1a6.57,6.57,0,0,0,0-.72,1.88,1.88,0,0,0-.16-.66,1.41,1.41,0,0,0-.41-.5,1,1,0,0,0-.6-.19,1.05,1.05,0,0,0-.62.18,1.36,1.36,0,0,0-.43.48,2,2,0,0,0-.25.63,3.69,3.69,0,0,0-.06.69c0,.21,0,.4,0,.57a5.16,5.16,0,0,0,.06.58,1.83,1.83,0,0,0,.38.86,1.07,1.07,0,0,0,.84.41,1.13,1.13,0,0,0,.66-.21,1.28,1.28,0,0,0,.43-.51,2.27,2.27,0,0,0,.16-.67,6.26,6.26,0,0,0,0-.69v-.25Z" transform="translate(-23.98 -28.65)"/>
  <path d="M192.5,142.09h-1.79l-.9,0v-.34h.53a1.62,1.62,0,0,0,.62-.08.45.45,0,0,0,.23-.45v-5.71a2.91,2.91,0,0,1-.59.2,5.58,5.58,0,0,1-.61.09h-.24v-.34h.37a3.89,3.89,0,0,0,.56-.1,2.47,2.47,0,0,0,.52-.18l.3-.19.25-.22H192v6.47q0,.36.24.45a1.65,1.65,0,0,0,.63.08h.51v.34Z" transform="translate(-23.98 -28.65)"/>
  <path d="M198.93,139.87a4,4,0,0,1-.34,1.22,2.24,2.24,0,0,1-.77.94,2,2,0,0,1-1.15.34,2,2,0,0,1-.76-.15,1.93,1.93,0,0,1-.65-.41,2.8,2.8,0,0,1-.75-1.5,8.22,8.22,0,0,1-.15-1.71,8.76,8.76,0,0,1,.13-1.65,3,3,0,0,1,.68-1.49,1.9,1.9,0,0,1,.67-.51,2.13,2.13,0,0,1,.84-.16,2,2,0,0,1,.78.15,2.45,2.45,0,0,1,.66.44,2.86,2.86,0,0,1,.73,1.5,8.46,8.46,0,0,1,.15,1.72A9,9,0,0,1,198.93,139.87Zm-.85-2.5a8.6,8.6,0,0,0-.08-.89,2.11,2.11,0,0,0-.27-.82,1.42,1.42,0,0,0-.45-.46,1.2,1.2,0,0,0-1.23,0,1.2,1.2,0,0,0-.43.46,2,2,0,0,0-.27.85,7,7,0,0,0-.07.9c0,.36,0,.74,0,1.13s0,.74,0,1.12a6.71,6.71,0,0,0,.07.91,2.62,2.62,0,0,0,.27.88,1.37,1.37,0,0,0,.43.49,1.08,1.08,0,0,0,.62.19,1.1,1.1,0,0,0,.64-.2,1.44,1.44,0,0,0,.45-.52,2.84,2.84,0,0,0,.23-.86c0-.23,0-.53.07-.89s0-.76,0-1.16,0-.75,0-1.15Z" transform="translate(-23.98 -28.65)"/>
  <g>
    <path d="M140,71.89l-.48-.39" transform="translate(-23.98 -28.65)" fill="none" stroke="#221e1f" stroke-miterlimit="10" stroke-width="0.4"/>
    <path d="M138.78,71C126,60.61,116.94,50.55,115.4,45.07" transform="translate(-23.98 -28.65)" fill="none" stroke="#221e1f" stroke-miterlimit="10" stroke-width="0.4" stroke-dasharray="1.21 0.88"/>
    <path d="M115.29,44.65a4.69,4.69,0,0,1-.1-.6" transform="translate(-23.98 -28.65)" fill="none" stroke="#221e1f" stroke-miterlimit="10" stroke-width="0.4"/>
  </g>
  <g>
    <path d="M183.27,94.84a5.63,5.63,0,0,1-.61.08" transform="translate(-23.98 -28.65)" fill="none" stroke="#221e1f" stroke-miterlimit="10" stroke-width="0.4"/>
    <path d="M181.78,94.93c-5.68-.19-17.06-5.58-29.77-14.19" transform="translate(-23.98 -28.65)" fill="none" stroke="#221e1f" stroke-miterlimit="10" stroke-width="0.4" stroke-dasharray="1.22 0.89"/>
    <path d="M151.64,80.49l-.52-.35" transform="translate(-23.98 -28.65)" fill="none" stroke="#221e1f" stroke-miterlimit="10" stroke-width="0.4"/>
  </g>
  <path d="M143,80H141.2c-.33,0-.63,0-.9,0v-.35h.53a1.62,1.62,0,0,0,.61-.07.44.44,0,0,0,.24-.45V73.42a2.92,2.92,0,0,1-.59.19,5.74,5.74,0,0,1-.62.1h-.23v-.35h.36a2.62,2.62,0,0,0,.56-.09,3.35,3.35,0,0,0,.53-.19l.29-.18a1.94,1.94,0,0,0,.26-.23h.26v6.48a.44.44,0,0,0,.24.45,1.68,1.68,0,0,0,.62.07h.52V80C143.61,80,143.32,80,143,80Z" transform="translate(-23.98 -28.65)"/>
  <path d="M149.41,77.74a3.64,3.64,0,0,1-.33,1.21,2.21,2.21,0,0,1-.78.94,1.94,1.94,0,0,1-1.14.34,2,2,0,0,1-.76-.15,1.84,1.84,0,0,1-.65-.41,2.73,2.73,0,0,1-.75-1.49,7.64,7.64,0,0,1-.16-1.71,9.68,9.68,0,0,1,.13-1.65,3.08,3.08,0,0,1,.68-1.5,1.93,1.93,0,0,1,.68-.51,2.24,2.24,0,0,1,.84-.16,2,2,0,0,1,.78.15,2.28,2.28,0,0,1,.66.45,2.9,2.9,0,0,1,.73,1.49,8.56,8.56,0,0,1,.15,1.73A8.83,8.83,0,0,1,149.41,77.74Zm-.85-2.5c0-.36,0-.66-.07-.9a2.12,2.12,0,0,0-.27-.81,1.38,1.38,0,0,0-.46-.47,1.13,1.13,0,0,0-.6-.17,1.18,1.18,0,0,0-.62.17,1.23,1.23,0,0,0-.43.47,2,2,0,0,0-.27.85,6.85,6.85,0,0,0-.07.89c0,.37,0,.74,0,1.13s0,.75,0,1.12a5.53,5.53,0,0,0,.07.92,2.34,2.34,0,0,0,.27.88,1.33,1.33,0,0,0,.43.48,1.09,1.09,0,0,0,.62.2,1,1,0,0,0,.64-.21,1.41,1.41,0,0,0,.45-.51,2.84,2.84,0,0,0,.23-.86c0-.23.05-.53.07-.9s0-.76,0-1.15,0-.76,0-1.15Z" transform="translate(-23.98 -28.65)"/>
  <path d="M37.47,167.17a.32.32,0,0,1,.1-.18.29.29,0,0,1,.16-.06.19.19,0,0,1,.15.08.34.34,0,0,1,0,.24l-.18,1.36H34a.44.44,0,0,1-.25-.06.29.29,0,0,1-.12-.15.37.37,0,0,1,0-.21.42.42,0,0,1,.11-.22l2.34-3,.42-.55a4.44,4.44,0,0,0,.3-.46,2.51,2.51,0,0,0,.19-.42,1.49,1.49,0,0,0,.06-.43,1.84,1.84,0,0,0-.1-.6,1.12,1.12,0,0,0-.26-.44,1.21,1.21,0,0,0-.4-.28,1.35,1.35,0,0,0-.5-.09,1.42,1.42,0,0,0-.72.16,1.38,1.38,0,0,0-.46.44,1.92,1.92,0,0,0-.24.66,3.94,3.94,0,0,0-.07.79h-.65a2.58,2.58,0,0,1,.58-1.83,2,2,0,0,1,1.53-.62,2.18,2.18,0,0,1,.79.14,1.71,1.71,0,0,1,.6.4,1.73,1.73,0,0,1,.38.57,1.8,1.8,0,0,1,.13.69,1.88,1.88,0,0,1-.08.52,3.41,3.41,0,0,1-.24.52,4.21,4.21,0,0,1-.34.52l-.39.53-2.24,2.91c0,.06,0,.09,0,.11a.13.13,0,0,0,.1,0h2.66c.07,0,.13-.07.16-.22Z" transform="translate(-23.98 -28.65)"/>
  <g>
    <path d="M112.75,194.72a.36.36,0,0,0,0,.21.18.18,0,0,0,.16.06h.72l.11,0s.07.07.07.14,0,.13-.07.15a.19.19,0,0,1-.11,0h-2.47a.24.24,0,0,1-.12,0s-.07-.07-.07-.15,0-.12.07-.14l.12,0h.72a.33.33,0,0,0,.15,0,.25.25,0,0,0,0-.17v-6.05l-.78.37a.38.38,0,0,1-.18,0,.25.25,0,0,1-.12-.1.17.17,0,0,1,0-.14.2.2,0,0,1,.12-.14l1.15-.65a.35.35,0,0,1,.3,0c.1,0,.15.13.15.28Z" transform="translate(-23.98 -28.65)"/>
    <path d="M119.15,189.65a2,2,0,0,0-.17-.47,1.62,1.62,0,0,0-.28-.39,1.18,1.18,0,0,0-.37-.26.92.92,0,0,0-.44-.1,1.11,1.11,0,0,0-.82.33,2.3,2.3,0,0,0-.49.84,5.07,5.07,0,0,0-.26,1.1,8.9,8.9,0,0,0-.07,1.13,2,2,0,0,1,.79-.65A2.31,2.31,0,0,1,118,191a2,2,0,0,1,.86.18,2.08,2.08,0,0,1,.63.5,2.26,2.26,0,0,1,.38.7,2.77,2.77,0,0,1,.12.8,2.81,2.81,0,0,1-.15.94,2.32,2.32,0,0,1-.44.75,2,2,0,0,1-.66.48,2.05,2.05,0,0,1-.83.17,1.85,1.85,0,0,1-1-.26,2.07,2.07,0,0,1-.71-.73,3.62,3.62,0,0,1-.42-1.15,7.62,7.62,0,0,1-.14-1.49c0-.28,0-.58,0-.88a6.47,6.47,0,0,1,.15-.88,5.15,5.15,0,0,1,.28-.81,2.48,2.48,0,0,1,.42-.66,1.82,1.82,0,0,1,1.4-.62,1.86,1.86,0,0,1,.73.14,1.93,1.93,0,0,1,.95.89,2.63,2.63,0,0,1,.22.59Zm.18,3.52a3.08,3.08,0,0,0-.08-.68,1.66,1.66,0,0,0-.26-.57,1.24,1.24,0,0,0-.42-.4,1.21,1.21,0,0,0-.6-.15,1.81,1.81,0,0,0-1,.31,2.2,2.2,0,0,0-.75.87,5.7,5.7,0,0,0,.13.91,3.39,3.39,0,0,0,.3.83,1.68,1.68,0,0,0,.48.6,1.06,1.06,0,0,0,.7.23,1.2,1.2,0,0,0,1.05-.53,1.88,1.88,0,0,0,.3-.62A2.83,2.83,0,0,0,119.33,193.17Z" transform="translate(-23.98 -28.65)"/>
  </g>
</svg>
