<svg
  width="current"
  height="current"
  viewBox="0 0 24 24"
  fill="white"
  xmlns="http://www.w3.org/2000/svg"
>
  <path
    d="M15.6699 18.2642V16.8242C16.2316 16.8242 16.6876 16.3682 16.6876 15.8066V13.733C16.6876 13.0562 16.9612 12.4418 17.4076 11.9954C16.9612 11.549 16.6876 10.9346 16.6876 10.2578V8.18416C16.6876 7.62256 16.2316 7.16656 15.6699 7.16656V5.72656C17.0236 5.72656 18.1277 6.82576 18.1277 8.18416V10.2578C18.1277 10.8194 18.5837 11.2754 19.1454 11.2754H19.7598V12.7154H19.1454C18.5837 12.7154 18.1277 13.1714 18.1277 13.733V15.8066C18.1277 17.1602 17.0284 18.2642 15.6699 18.2642Z"
  />
  <path
    d="M12.2455 18.5616L11.1895 17.5776L11.6791 17.0496C11.7175 17.0064 13.5704 14.9472 13.5704 11.9952C13.5704 9.04319 11.6983 6.95999 11.6791 6.94079L11.1943 6.41279L12.2455 5.43359L12.7352 5.95679C12.8264 6.05759 15.0153 8.44319 15.0153 11.9904C15.0153 15.5376 12.8312 17.9232 12.7352 18.024L12.2455 18.552V18.5616Z"
  />
  <path
    d="M5.70796 5.61241L4.85938 6.46094L9.29919 10.9004L10.1478 10.0519L5.70796 5.61241Z"
  />
  <path
    d="M9.29919 5.60738L4.85938 10.0469L5.70796 10.8954L10.1478 6.4559L9.29919 5.60738Z"
  />
  <path d="M10.6382 14.5352H4.35938V15.7352H10.6382V14.5352Z" />
  <path d="M8.10634 12H6.90625V18.2784H8.10634V12Z" />
</svg>
