<svg
  width="20"
  height="20"
  viewBox="0 0 20 20"
  fill="none"
  xmlns="http://www.w3.org/2000/svg"
>
  <path
    d="M10.7046 6.0142L14.5242 7.0311M9.88689 9.05131L11.7959 9.56016M9.9821 14.7743L10.7454 14.9783C12.9056 15.5544 13.9857 15.8416 14.837 15.3528C15.6875 14.8647 15.9771 13.7902 16.5556 11.6428L17.3741 8.60486C17.9533 6.45664 18.2422 5.38293 17.7509 4.53644C17.2596 3.68996 16.1803 3.40273 14.0193 2.82747L13.256 2.62345C11.0958 2.04739 10.0157 1.76016 9.16522 2.24901C8.31393 2.73706 8.0243 3.81157 7.44504 5.95899L6.62735 8.9969C6.04809 11.1451 5.75846 12.2188 6.25052 13.0653C6.74177 13.911 7.82188 14.199 9.9821 14.7743Z"
    stroke="white"
    stroke-linecap="round"
    stroke-linejoin="round"
  />
  <path
    d="M10.0008 17.1581L9.23917 17.3661C7.08375 17.9526 6.00683 18.2462 5.15715 17.7477C4.30906 17.2501 4.01943 16.1556 3.44257 13.9649L2.62569 10.867C2.04803 8.6772 1.7592 7.58189 2.24965 6.7194C2.67369 5.97292 3.60019 6.00013 4.80031 6.00013"
    stroke="white"
    stroke-linecap="round"
    stroke-linejoin="round"
  />
</svg>
