<svg
  width="20"
  height="20"
  viewBox="0 0 20 20"
  fill="none"
  xmlns="http://www.w3.org/2000/svg"
>
  <path
    d="M10 18C8.90719 18 7.87712 17.7908 6.9098 17.3725C5.94771 16.9542 5.09804 16.3765 4.36078 15.6392C3.62353 14.902 3.04575 14.0523 2.62745 13.0902C2.20915 12.1229 2 11.0928 2 10C2 8.90719 2.20915 7.87974 2.62745 6.91765C3.04575 5.95033 3.62092 5.09804 4.35294 4.36078C5.0902 3.62353 5.93987 3.04575 6.90196 2.62745C7.86928 2.20915 8.89935 2 9.99216 2C11.085 2 12.115 2.20915 13.0824 2.62745C14.0497 3.04575 14.902 3.62353 15.6392 4.36078C16.3765 5.09804 16.9542 5.95033 17.3725 6.91765C17.7908 7.87974 18 8.90719 18 10C18 11.0928 17.7908 12.1229 17.3725 13.0902C16.9542 14.0523 16.3765 14.902 15.6392 15.6392C14.902 16.3765 14.0497 16.9542 13.0824 17.3725C12.1203 17.7908 11.0928 18 10 18ZM10 16.6667C10.9255 16.6667 11.7908 16.4941 12.5961 16.149C13.4013 15.8039 14.1098 15.3281 14.7216 14.7216C15.3333 14.1098 15.8092 13.4013 16.149 12.5961C16.4941 11.7908 16.6667 10.9255 16.6667 10C16.6667 9.07451 16.4941 8.20915 16.149 7.40392C15.8039 6.59869 15.3255 5.8902 14.7137 5.27843C14.1072 4.66667 13.3987 4.19085 12.5882 3.85098C11.783 3.50588 10.9176 3.33333 9.99216 3.33333C9.06667 3.33333 8.20131 3.50588 7.39608 3.85098C6.59085 4.19085 5.88497 4.66667 5.27843 5.27843C4.6719 5.8902 4.19608 6.59869 3.85098 7.40392C3.51111 8.20915 3.34118 9.07451 3.34118 10C3.34118 10.9255 3.51111 11.7908 3.85098 12.5961C4.19608 13.4013 4.6719 14.1098 5.27843 14.7216C5.8902 15.3281 6.59869 15.8039 7.40392 16.149C8.20915 16.4941 9.07451 16.6667 10 16.6667ZM8.53333 13.0667C8.41307 13.1399 8.29281 13.1712 8.17255 13.1608C8.05229 13.1503 7.95033 13.1085 7.86667 13.0353C7.78824 12.9569 7.74902 12.8549 7.74902 12.7294V7.27843C7.74902 7.15294 7.79085 7.0536 7.87451 6.98039C7.95817 6.90719 8.06013 6.86797 8.18039 6.86275C8.30588 6.85229 8.42353 6.87843 8.53333 6.94118L13.0039 9.59216C13.1085 9.6549 13.1791 9.74118 13.2157 9.85098C13.2523 9.95556 13.2523 10.0627 13.2157 10.1725C13.1843 10.2771 13.1137 10.3634 13.0039 10.4314L8.53333 13.0667Z"
    fill="white"
  />
</svg>
