<svg
  width="24"
  height="24"
  viewBox="0 0 24 24"
  fill="none"
  xmlns="http://www.w3.org/2000/svg"
>
  <path
    d="M13.984 13.6974C13.9317 13.6373 13.8688 13.5891 13.7988 13.5557C13.7288 13.5223 13.6533 13.5044 13.5767 13.5029C13.5001 13.5015 13.424 13.5166 13.3529 13.5473C13.2819 13.578 13.2174 13.6238 13.1632 13.6818C13.109 13.7399 13.0663 13.809 13.0376 13.8851C13.0089 13.9612 12.9948 14.0428 12.9962 14.1248C12.9975 14.2069 13.0143 14.2879 13.0455 14.3628C13.0767 14.4378 13.1216 14.5053 13.1777 14.5613L16.2203 17.8212C16.3273 17.9357 16.4723 18 16.6235 18C16.7747 18 16.9197 17.9357 17.0266 17.8212L20.0693 14.5613C20.1253 14.5053 20.1703 14.4378 20.2015 14.3628C20.2327 14.2879 20.2494 14.2069 20.2508 14.1248C20.2521 14.0428 20.238 13.9612 20.2093 13.8851C20.1806 13.809 20.1379 13.7399 20.0838 13.6818C20.0296 13.6238 19.9651 13.578 19.894 13.5473C19.823 13.5166 19.7469 13.5015 19.6703 13.5029C19.5937 13.5044 19.5182 13.5223 19.4482 13.5557C19.3782 13.5891 19.3152 13.6373 19.263 13.6974L17.194 15.9141V7.99186C17.194 7.82975 17.1339 7.67428 17.0269 7.55965C16.9199 7.44502 16.7748 7.38062 16.6235 7.38062C16.4722 7.38062 16.3271 7.44502 16.2201 7.55965C16.1131 7.67428 16.053 7.82975 16.053 7.99186V15.9141L13.984 13.6974Z"
    fill="white"
  />
  <path
    d="M4.5 8.08984H12.9955"
    stroke="white"
    stroke-width="1.125"
    stroke-linecap="round"
  />
  <path
    d="M4.5 12.3359H10.8716"
    stroke="white"
    stroke-width="1.125"
    stroke-linecap="round"
  />
  <path
    d="M4.5 16.582H10.1637"
    stroke="white"
    stroke-width="1.125"
    stroke-linecap="round"
  />
</svg>
