<svg
  width="24"
  height="24"
  viewBox="0 0 24 24"
  fill="none"
  xmlns="http://www.w3.org/2000/svg"
>
  <path
    d="M13.983 13.6974C13.9308 13.6373 13.8678 13.5891 13.7978 13.5557C13.7278 13.5223 13.6523 13.5044 13.5757 13.5029C13.4991 13.5015 13.423 13.5166 13.352 13.5473C13.2809 13.578 13.2164 13.6238 13.1622 13.6818C13.108 13.7399 13.0653 13.809 13.0366 13.8851C13.0079 13.9612 12.9939 14.0428 12.9952 14.1248C12.9966 14.2069 13.0133 14.2879 13.0445 14.3628C13.0757 14.4378 13.1206 14.5053 13.1767 14.5613L16.2193 17.8212C16.3263 17.9357 16.4713 18 16.6225 18C16.7737 18 16.9187 17.9357 17.0257 17.8212L20.0683 14.5613C20.1244 14.5053 20.1693 14.4378 20.2005 14.3628C20.2317 14.2879 20.2484 14.2069 20.2498 14.1248C20.2511 14.0428 20.2371 13.9612 20.2084 13.8851C20.1797 13.809 20.137 13.7399 20.0828 13.6818C20.0286 13.6238 19.9641 13.578 19.893 13.5473C19.822 13.5166 19.7459 13.5015 19.6693 13.5029C19.5927 13.5044 19.5172 13.5223 19.4472 13.5557C19.3772 13.5891 19.3142 13.6373 19.262 13.6974L17.193 15.9141V7.99186C17.193 7.82975 17.1329 7.67428 17.0259 7.55965C16.9189 7.44502 16.7738 7.38062 16.6225 7.38062C16.4712 7.38062 16.3261 7.44502 16.2191 7.55965C16.1121 7.67428 16.052 7.82975 16.052 7.99186V15.9141L13.983 13.6974Z"
    fill="white"
  />
  <path
    d="M4.5 8.08984H12.9955"
    stroke="white"
    stroke-width="1.125"
    stroke-linecap="round"
  />
  <path
    d="M4.5 12.3359H10.8716"
    stroke="white"
    stroke-width="1.125"
    stroke-linecap="round"
  />
  <path
    d="M4.5 16.582H10.1637"
    stroke="white"
    stroke-width="1.125"
    stroke-linecap="round"
  />
</svg>
