<svg width="60" height="60" viewBox="0 0 60 60" fill="none" xmlns="http://www.w3.org/2000/svg">
<rect width="60" height="60" rx="9.13" fill="white"/>
<path fill-rule="evenodd" clip-rule="evenodd" d="M21.6928 17.7512C18.7123 17.7512 16.2961 20.1673 16.2961 23.1479C16.2961 26.1284 18.7123 28.5445 21.6928 28.5445C24.6733 28.5445 27.0895 26.1284 27.0895 23.1479C27.0895 20.1673 24.6733 17.7512 21.6928 17.7512ZM13.4961 23.1479C13.4961 18.621 17.1659 14.9512 21.6928 14.9512C26.2197 14.9512 29.8895 18.621 29.8895 23.1479C29.8895 27.6748 26.2197 31.3445 21.6928 31.3445C17.1659 31.3445 13.4961 27.6748 13.4961 23.1479Z" fill="black"/>
<path fill-rule="evenodd" clip-rule="evenodd" d="M36.0449 21.1582H47.4521V32.5654H36.0449V21.1582ZM38.8449 23.9582V29.7654H44.6521V23.9582H38.8449Z" fill="black"/>
<path fill-rule="evenodd" clip-rule="evenodd" d="M30.474 33.6973L37.8757 46.5135H23.0723L30.474 33.6973ZM27.9228 43.7135H33.0252L30.474 39.296L27.9228 43.7135Z" fill="black"/>
<path fill-rule="evenodd" clip-rule="evenodd" d="M37.0458 27.535L28.1191 25.5018L28.4301 24.1367L37.3567 26.1699L37.0458 27.535Z" fill="black"/>
<path fill-rule="evenodd" clip-rule="evenodd" d="M28.2398 39.5843L23.4473 29.8056L24.7044 29.1895L29.4969 38.9682L28.2398 39.5843Z" fill="black"/>
<path d="M38.5295 36.2739C39.1391 36.2739 39.6332 35.7797 39.6332 35.1701C39.6332 34.5606 39.1391 34.0664 38.5295 34.0664C37.9199 34.0664 37.4258 34.5606 37.4258 35.1701C37.4258 35.7797 37.9199 36.2739 38.5295 36.2739Z" fill="black"/>
<path d="M36.2248 39.7231C36.8344 39.7231 37.3286 39.2289 37.3286 38.6194C37.3286 38.0098 36.8344 37.5156 36.2248 37.5156C35.6153 37.5156 35.1211 38.0098 35.1211 38.6194C35.1211 39.2289 35.6153 39.7231 36.2248 39.7231Z" fill="black"/>
</svg>
