<?xml version="1.0" encoding="UTF-8"?>
<svg id="_레이어_1" data-name="레이어 1" xmlns="http://www.w3.org/2000/svg" width="175.99" height="170.37" viewBox="0 0 175.99 170.37">
  <g>
    <line x1="22.95" y1="135.94" x2="23.57" y2="135.94" fill="none" stroke="#231815" stroke-miterlimit="10" stroke-width=".4"/>
    <line x1="24.46" y1="135.94" x2="157.95" y2="135.94" fill="none" stroke="#231815" stroke-dasharray="1.23 .89" stroke-miterlimit="10" stroke-width=".4"/>
    <line x1="158.39" y1="135.94" x2="159.01" y2="135.94" fill="none" stroke="#231815" stroke-miterlimit="10" stroke-width=".4"/>
  </g>
  <path d="M165.65,140.4l-2.17-3.92h-1.17v2.87c0,.27.08.47.24.59.16.12.43.18.82.18v.28h-2.81v-.28c.4,0,.67-.06.83-.18.14-.11.22-.31.22-.59v-5.92c0-.24-.07-.42-.22-.52-.16-.1-.44-.15-.83-.15v-.28h3.21c.83,0,1.48.19,1.95.56.45.35.67.82.67,1.41,0,.54-.18,1-.53,1.35-.39.39-.93.61-1.63.64l1.8,3.18c.11.19.25.33.43.4.15.06.38.1.69.1v.28h-1.5ZM165.12,133.21c-.34-.3-.8-.45-1.39-.45h-.62c-.27,0-.46.05-.59.15-.14.11-.21.28-.21.52v2.77h1.67c.56,0,.99-.18,1.28-.55.25-.31.37-.71.37-1.2,0-.53-.17-.94-.51-1.24Z" fill="#221e1f"/>
  <g>
    <line x1="22.95" y1="107.59" x2="22.95" y2="108.21" fill="none" stroke="#231815" stroke-linejoin="round" stroke-width=".4"/>
    <line x1="22.95" y1="109.13" x2="22.95" y2="134.84" fill="none" stroke="#231815" stroke-dasharray="1.26 .92" stroke-linejoin="round" stroke-width=".4"/>
    <line x1="22.95" y1="135.29" x2="22.95" y2="135.91" fill="none" stroke="#231815" stroke-linejoin="round" stroke-width=".4"/>
  </g>
  <polyline points="159.01 67.91 159.01 16.89 22.95 16.89 22.95 107.59" fill="none" stroke="#231815" stroke-linejoin="round" stroke-width=".75"/>
  <g>
    <line x1="22.95" y1="135.91" x2="22.95" y2="136.53" fill="none" stroke="#231815" stroke-linejoin="round" stroke-width=".4"/>
    <line x1="22.95" y1="137.43" x2="22.95" y2="151.88" fill="none" stroke="#231815" stroke-dasharray="1.23 .9" stroke-linejoin="round" stroke-width=".4"/>
    <polyline points="22.95 152.33 22.95 152.95 23.57 152.95" fill="none" stroke="#231815" stroke-linejoin="round" stroke-width=".4"/>
    <line x1="24.46" y1="152.95" x2="157.95" y2="152.95" fill="none" stroke="#231815" stroke-dasharray="1.23 .89" stroke-linejoin="round" stroke-width=".4"/>
    <polyline points="158.39 152.95 159.01 152.95 159.01 152.33" fill="none" stroke="#231815" stroke-linejoin="round" stroke-width=".4"/>
    <line x1="159.01" y1="151.44" x2="159.01" y2="68.98" fill="none" stroke="#231815" stroke-dasharray="1.23 .89" stroke-linejoin="round" stroke-width=".4"/>
    <line x1="159.01" y1="68.53" x2="159.01" y2="67.91" fill="none" stroke="#231815" stroke-linejoin="round" stroke-width=".4"/>
  </g>
  <polygon points="9.34 125.74 90.98 16.89 159.01 67.91 22.95 135.94 9.34 125.74" fill="none" stroke="#231815" stroke-linejoin="round" stroke-width=".75"/>
  <path d="M18.98,16.54v-.28c.48,0,.79-.05.93-.14.15-.11.17-.31.06-.61l-.65-1.84h-3.06l-.51,1.59c-.14.4-.14.67,0,.81.13.13.44.19.94.19v.28h-2.41v-.28c.31,0,.54-.06.68-.19.15-.14.31-.46.49-.95l2.19-6.41.61-.27,2.43,7.03c.09.29.23.5.4.61.17.11.4.17.7.17v.28h-2.81ZM17.78,9.25l-1.4,4.09h2.83l-1.43-4.09Z" fill="#221e1f"/>
  <path d="M20.51,160.19c-.51.44-1.21.67-2.09.67h-3.54v-.28c.42,0,.7-.05.83-.14.14-.09.22-.29.22-.58v-5.88c0-.27-.07-.47-.22-.58-.16-.12-.44-.18-.83-.18v-.28h3.33c.82,0,1.47.18,1.96.53.46.34.69.78.69,1.33,0,.41-.13.76-.38,1.04-.29.32-.74.56-1.35.72.72.14,1.25.41,1.6.79.32.35.48.8.48,1.34,0,.59-.23,1.1-.69,1.5ZM19.65,153.71c-.35-.33-.83-.49-1.45-.49h-.65c-.32,0-.56.06-.7.18-.14.12-.22.32-.22.58v2.53h1.57c.53,0,.98-.19,1.36-.58.35-.36.53-.76.53-1.19,0-.39-.15-.73-.44-1.02ZM19.89,157.36c-.41-.39-.92-.58-1.51-.58h-1.74v3.07c0,.29.07.48.22.58.12.09.36.14.7.14h.75c.67,0,1.21-.2,1.61-.59.38-.36.56-.79.56-1.3s-.19-.95-.58-1.32Z" fill="#221e1f"/>
  <path d="M165.25,160.34c-.52.46-1.12.69-1.81.69-.91,0-1.67-.36-2.29-1.08-.66-.78-.99-1.81-.99-3.1,0-1.14.29-2.1.86-2.89.59-.8,1.34-1.2,2.24-1.2.21,0,.42.02.63.06.13.04.34.1.64.19l.06.03.79-.25.77,2-.17.11c-.35-.51-.7-.91-1.07-1.21-.53-.44-1.07-.66-1.62-.66-.68,0-1.24.36-1.7,1.09-.45.72-.67,1.63-.67,2.73,0,1.03.27,1.9.81,2.59.53.69,1.19,1.04,1.98,1.04.47,0,.9-.15,1.3-.44.43-.31.81-.78,1.15-1.41l.21.09c-.28.69-.64,1.23-1.09,1.62Z" fill="#221e1f"/>
  <path d="M165.73,15.21c-.68.83-1.66,1.25-2.92,1.25h-2.97v-.28c.38,0,.65-.06.81-.18.16-.12.24-.33.24-.62v-5.81c0-.26-.08-.45-.24-.57-.17-.12-.44-.17-.81-.17v-.28h2.97c1.26,0,2.23.41,2.92,1.24.61.72.91,1.62.91,2.72s-.3,2-.91,2.72ZM165.12,9.96c-.57-.77-1.34-1.15-2.3-1.15h-.33c-.31,0-.54.06-.68.17-.14.12-.21.31-.21.57v5.81c0,.29.07.49.21.62.14.12.36.18.68.18h.33c.97,0,1.73-.38,2.3-1.15.51-.69.77-1.53.77-2.54s-.26-1.84-.77-2.53Z" fill="#221e1f"/>
  <path d="M92.8,11.63v-.28c.39,0,.66-.07.82-.2.15-.11.23-.3.23-.56v-6.5h-.12l-2.87,7.63h-.17l-2.83-7.47h-.13v6.34c0,.28.07.47.22.58.16.12.44.18.84.18v.28h-2.42v-.28c.4,0,.67-.06.83-.18.14-.11.22-.3.22-.58v-6c0-.22-.08-.38-.24-.47-.15-.09-.42-.13-.81-.13v-.28h1.99l2.6,6.92,2.59-6.92h2.05v.28c-.42,0-.71.05-.86.14-.13.09-.19.24-.19.46v6c0,.26.07.44.22.56.16.14.44.2.84.2v.28h-2.8Z" fill="#221e1f"/>
  <path d="M166.78,64.96c-.17.09-.25.24-.25.45v7.09h-.19l-4.83-6.97v5.88c0,.28.08.48.23.59.17.11.47.17.92.17v.28h-2.53v-.28c.38,0,.65-.06.81-.17.16-.11.24-.31.24-.59v-5.84c0-.29-.08-.48-.24-.59-.16-.12-.43-.17-.81-.17v-.28h1.49l4.59,6.64v-5.76c0-.21-.09-.37-.26-.46-.18-.09-.48-.14-.91-.14v-.28h2.55v.28c-.37,0-.64.05-.81.15Z" fill="#221e1f"/>
  <path d="M20.7,104.43c-.42.38-.98.57-1.66.57h-1.8v2.64c0,.28.08.48.23.6.17.14.48.2.91.2v.28h-2.89v-.28c.39,0,.66-.07.82-.2.15-.12.23-.32.23-.6v-5.85c0-.27-.08-.46-.23-.56-.15-.1-.42-.15-.82-.15v-.28h3.64c.63,0,1.16.17,1.59.52.45.37.67.86.67,1.47,0,.69-.23,1.23-.68,1.63ZM20.17,101.6c-.33-.34-.77-.52-1.31-.52h-.85c-.28,0-.48.05-.59.15-.12.11-.18.29-.18.56v2.92h1.62c.54,0,.98-.21,1.32-.62.3-.37.45-.81.45-1.3s-.15-.87-.45-1.19Z" fill="#221e1f"/>
  <g>
    <path d="M5.62,128.33c-.51.44-1.2.66-2.08.66H0v-.28c.42,0,.69-.05.83-.14.14-.09.22-.29.22-.58v-5.87c0-.27-.07-.46-.22-.58-.16-.12-.44-.18-.83-.18v-.28h3.32c.82,0,1.47.18,1.95.53.46.34.69.78.69,1.33,0,.41-.13.75-.38,1.04-.29.31-.74.55-1.35.72.72.14,1.25.4,1.6.78.32.35.47.8.47,1.34,0,.59-.23,1.09-.69,1.5ZM4.75,121.87c-.35-.33-.83-.49-1.44-.49h-.65c-.32,0-.56.06-.7.18-.14.12-.22.31-.22.58v2.52h1.56c.52,0,.98-.19,1.36-.58.35-.36.53-.75.53-1.19,0-.39-.15-.73-.44-1.02ZM4.99,125.51c-.41-.39-.91-.58-1.51-.58h-1.74v3.07c0,.29.07.48.22.58.12.09.36.14.7.14h.74c.67,0,1.2-.2,1.61-.59.37-.36.56-.79.56-1.3s-.19-.95-.58-1.32Z"/>
    <path d="M9.12,120.41h1.1l-2.3,3.09,1.19-3.09Z"/>
  </g>
  <polyline points="23 143.93 31.51 143.93 31.51 152.43" fill="none" stroke="#221e1f" stroke-miterlimit="10" stroke-width=".4"/>
  <polyline points="159.01 144.45 150.51 144.45 150.51 152.95" fill="none" stroke="#221e1f" stroke-miterlimit="10" stroke-width=".4"/>
  <polyline points="22.98 25.91 31.48 25.91 31.48 17.41" fill="none" stroke="#221e1f" stroke-miterlimit="10" stroke-width=".4"/>
  <polyline points="158.99 25.39 150.48 25.39 150.48 16.89" fill="none" stroke="#221e1f" stroke-miterlimit="10" stroke-width=".4"/>
  <polyline points="97.71 21.99 92.6 28.79 85.8 23.69" fill="none" stroke="#221e1f" stroke-miterlimit="10" stroke-width=".4"/>
  <polyline points="14.58 118.7 21.38 123.8 16.28 130.61" fill="none" stroke="#221e1f" stroke-miterlimit="10" stroke-width=".4"/>
  <path d="M30.67,130.94c-.2.19-.36.32-.48.39-.19.11-.39.16-.62.16-.32,0-.62-.13-.89-.38-.23-.22-.43-.52-.59-.9-.17.07-.34.13-.53.17-.17.04-.32.05-.47.05-1.04,0-1.87-.43-2.49-1.29-.56-.77-.84-1.72-.84-2.84s.28-2.06.84-2.85c.63-.86,1.46-1.29,2.49-1.29s1.82.43,2.46,1.29c.6.8.9,1.75.9,2.85,0,.77-.14,1.49-.43,2.16-.32.75-.77,1.26-1.33,1.51.1.24.24.45.42.62.21.21.43.31.67.31.16,0,.29-.01.4-.04.13-.03.27-.09.43-.17l.13.17-.08.06ZM29.03,123.65c-.48-.8-1.13-1.2-1.93-1.2s-1.45.4-1.93,1.2c-.44.73-.66,1.62-.66,2.67,0,.51.07,1.03.21,1.57.16.61.37,1.05.63,1.32-.04-.44.07-.76.32-.96.19-.14.46-.2.82-.2.32,0,.65.1.97.31.41.27.77.68,1.07,1.24.4-.29.7-.79.91-1.5.17-.57.26-1.16.26-1.77,0-1.05-.22-1.93-.66-2.67ZM27.14,128.66c-.24-.18-.51-.27-.81-.27-.22,0-.38.04-.49.12-.21.15-.31.44-.31.87.27.28.54.48.81.61.24.11.49.16.76.16.14,0,.28-.02.43-.08.14-.04.29-.1.44-.17-.23-.59-.51-1-.83-1.25Z" fill="#221e1f"/>
  <g>
    <path d="M8.83,133.71c-.07-.19-.14-.39-.2-.58" fill="none" stroke="#221e1f" stroke-miterlimit="10" stroke-width=".4"/>
    <path d="M8.42,132.28c-.36-1.81-.17-3.79.58-5.68" fill="none" stroke="#221e1f" stroke-dasharray="1.2 .87" stroke-miterlimit="10" stroke-width=".4"/>
    <path d="M9.17,126.2c.08-.19.17-.37.27-.56" fill="none" stroke="#221e1f" stroke-miterlimit="10" stroke-width=".4"/>
  </g>
  <g>
    <path d="M23,135.87c-.15.14-.31.28-.47.41" fill="none" stroke="#221e1f" stroke-miterlimit="10" stroke-width=".4"/>
    <path d="M21.85,136.81c-1.65,1.17-3.53,1.82-5.37,1.89" fill="none" stroke="#221e1f" stroke-dasharray="1.2 .87" stroke-miterlimit="10" stroke-width=".4"/>
    <path d="M16.05,138.7c-.21,0-.41-.01-.62-.03" fill="none" stroke="#221e1f" stroke-miterlimit="10" stroke-width=".4"/>
  </g>
  <path d="M14.22,139.41c-.12.26-.28.48-.49.68-.22.21-.49.37-.79.48-.29.11-.59.16-.91.16-.16,0-.31-.01-.44-.03-.14-.02-.28-.05-.4-.09-.4-.12-.73-.31-.97-.58-.27-.29-.41-.63-.41-1.02,0-.2.05-.36.15-.47.11-.11.26-.17.46-.17.18,0,.33.06.44.17.12.12.17.27.17.45,0,.2-.07.36-.22.47-.14.11-.31.16-.51.13.13.24.36.45.7.61.32.15.66.23.99.23.15,0,.29-.03.43-.1.14-.06.26-.14.37-.25.16-.19.27-.42.35-.7.06-.23.1-.49.1-.77,0-.15,0-.28-.02-.4-.01-.13-.03-.24-.05-.34-.09-.35-.23-.62-.42-.79-.21-.19-.48-.29-.81-.29h-.52c-.07,0-.13,0-.16-.02-.05-.02-.08-.06-.08-.12s.01-.1.04-.12c.02,0,.06-.01.12-.01.09,0,.2,0,.31-.01.12,0,.24-.01.35-.02.21-.04.4-.15.58-.34.16-.17.27-.37.35-.59.04-.18.08-.33.1-.44.03-.16.04-.3.04-.44,0-.2-.03-.38-.08-.53-.06-.19-.16-.34-.28-.45-.1-.09-.22-.16-.35-.19-.11-.04-.23-.05-.37-.05-.12,0-.25.01-.38.03-.12.02-.25.05-.38.1-.15.06-.29.13-.41.23-.13.09-.23.2-.3.32h.18c.17.03.29.09.38.17.09.09.13.21.13.38s-.05.3-.16.4c-.1.11-.23.16-.4.16-.18,0-.32-.05-.42-.16-.1-.11-.15-.24-.15-.41,0-.33.12-.62.36-.88.21-.22.48-.39.82-.49.12-.04.24-.08.38-.1.13-.01.27-.02.41-.02.25,0,.5.03.74.1.25.07.46.18.66.31s.35.29.46.47c.12.2.18.41.18.63,0,.21-.04.42-.13.62-.07.19-.18.37-.31.56-.14.17-.31.32-.51.45-.19.13-.39.23-.61.31.38.06.72.21,1.03.44.31.23.54.52.69.88.04.11.06.22.09.32.03.12.04.24.04.34,0,.27-.06.54-.18.8Z" fill="#221e1f"/>
  <g>
    <path d="M170.22,38.36c-.02-.21-.04-.41-.06-.62" fill="none" stroke="#221e1f" stroke-miterlimit="10" stroke-width=".4"/>
    <path d="M170.07,36.86c-1.11-9.46-5.01-17.01-10.03-19.6" fill="none" stroke="#221e1f" stroke-dasharray="1.22 .89" stroke-miterlimit="10" stroke-width=".4"/>
    <path d="M159.64,17.07c-.19-.09-.38-.17-.57-.24" fill="none" stroke="#221e1f" stroke-miterlimit="10" stroke-width=".4"/>
  </g>
  <g>
    <path d="M159.04,67.91c.19-.07.38-.15.57-.24" fill="none" stroke="#221e1f" stroke-miterlimit="10" stroke-width=".4"/>
    <path d="M160.43,67.26c4.66-2.67,8.29-9.64,9.51-18.39" fill="none" stroke="#221e1f" stroke-dasharray="1.26 .92" stroke-miterlimit="10" stroke-width=".4"/>
    <path d="M170,48.41c.03-.2.05-.41.08-.62" fill="none" stroke="#221e1f" stroke-miterlimit="10" stroke-width=".4"/>
  </g>
  <g>
    <path d="M170.3,105.77c0-.21-.01-.41-.02-.62" fill="none" stroke="#221e1f" stroke-miterlimit="10" stroke-width=".4"/>
    <path d="M170.24,104.26c-.79-17.27-4.92-31.28-10.32-35.75" fill="none" stroke="#221e1f" stroke-dasharray="1.24 .9" stroke-miterlimit="10" stroke-width=".4"/>
    <path d="M159.58,68.23c-.17-.13-.34-.24-.51-.35" fill="none" stroke="#221e1f" stroke-miterlimit="10" stroke-width=".4"/>
  </g>
  <g>
    <path d="M159.04,152.82c.17-.11.34-.22.51-.35" fill="none" stroke="#221e1f" stroke-miterlimit="10" stroke-width=".4"/>
    <path d="M160.24,151.91c5.28-4.78,9.27-18.7,10.01-35.76" fill="none" stroke="#221e1f" stroke-dasharray="1.23 .89" stroke-miterlimit="10" stroke-width=".4"/>
    <path d="M170.28,115.7c0-.21.02-.41.02-.62" fill="none" stroke="#221e1f" stroke-miterlimit="10" stroke-width=".4"/>
  </g>
  <g>
    <path d="M118.22,5.64c-.21.02-.41.03-.62.05" fill="none" stroke="#221e1f" stroke-miterlimit="10" stroke-width=".4"/>
    <path d="M116.69,5.78c-12.14,1.23-21.76,5.07-25.07,9.98" fill="none" stroke="#221e1f" stroke-dasharray="1.25 .91" stroke-miterlimit="10" stroke-width=".4"/>
    <path d="M91.38,16.15c-.11.18-.21.36-.3.54" fill="none" stroke="#221e1f" stroke-miterlimit="10" stroke-width=".4"/>
  </g>
  <g>
    <path d="M158.99,16.71c-.09-.18-.19-.36-.3-.54" fill="none" stroke="#221e1f" stroke-miterlimit="10" stroke-width=".4"/>
    <path d="M158.19,15.42c-3.52-4.75-12.98-8.45-24.84-9.64" fill="none" stroke="#221e1f" stroke-dasharray="1.23 .9" stroke-miterlimit="10" stroke-width=".4"/>
    <path d="M132.9,5.74c-.21-.02-.41-.04-.62-.06" fill="none" stroke="#221e1f" stroke-miterlimit="10" stroke-width=".4"/>
  </g>
  <path d="M172.13,44.35c-.14.5-.36.95-.65,1.34-.25.32-.53.56-.85.74-.35.2-.7.3-1.07.3-.44,0-.8-.09-1.07-.27-.32-.21-.48-.51-.48-.91,0-.16.05-.29.14-.39.09-.1.22-.15.37-.15.18,0,.32.07.42.2.09.13.11.28.06.46-.04.11-.11.2-.22.27-.09.06-.21.09-.33.09.09.11.22.2.39.27.14.06.31.1.49.12.28.01.53-.03.75-.12.22-.09.42-.24.61-.45.24-.31.42-.71.52-1.2.09-.38.13-.81.13-1.3v-.35c-.13.33-.3.59-.52.77-.25.21-.53.32-.86.32-.3,0-.59-.06-.86-.19-.27-.12-.5-.29-.7-.52-.22-.24-.38-.51-.49-.82-.1-.29-.15-.6-.15-.92,0-.37.05-.7.15-.98.11-.27.29-.54.55-.81.22-.24.46-.41.73-.53.27-.11.57-.16.9-.16.29,0,.57.06.83.19.25.13.47.31.66.55.11.14.21.31.3.49.09.19.17.41.24.64.07.23.13.5.16.81.04.31.07.65.07,1.02,0,.52-.07,1.01-.21,1.47ZM171.28,41.06c-.04-.32-.08-.57-.14-.74-.09-.26-.23-.47-.4-.62-.19-.17-.41-.25-.66-.25-.27,0-.5.06-.69.18-.16.11-.3.28-.42.5-.11.19-.18.41-.21.68-.02.16-.03.39-.03.71v.13s0,.05,0,.05c0,.33.01.57.03.73.03.28.09.52.18.71.12.23.25.4.4.51.17.13.37.19.62.19.45,0,.8-.23,1.05-.68.21-.37.31-.81.31-1.3,0-.29-.01-.56-.04-.81Z" fill="#221e1f"/>
  <g>
    <path d="M168.75,114.1h-1.78c-.33,0-.63.02-.89.04v-.34h.53c.31,0,.51-.03.61-.08.16-.07.24-.22.24-.45v-5.69c-.17.08-.37.14-.59.19-.19.04-.4.08-.61.1h-.24v-.34c.06,0,.12,0,.16-.01.06,0,.13,0,.2-.01.19-.01.37-.05.56-.1.18-.04.35-.1.53-.18.1-.06.2-.12.29-.18.09-.07.18-.15.26-.23h.26v6.45c0,.24.08.39.24.45.1.05.31.08.62.08h.52v.34c-.27-.02-.56-.04-.89-.04Z" fill="#221e1f"/>
    <path d="M175.23,112.87c-.12.29-.3.56-.53.81-.22.21-.48.38-.78.5-.3.13-.6.19-.92.19-.29,0-.55-.06-.8-.17-.25-.11-.46-.26-.65-.47-.18-.19-.32-.4-.41-.63s-.14-.48-.14-.73c0-.17.05-.31.14-.42.1-.11.24-.16.41-.16.16,0,.29.05.39.14.11.1.16.23.16.4s-.06.29-.17.4c-.11.1-.23.15-.38.15-.05,0-.09,0-.11-.01-.04,0-.07-.01-.09-.02.04.16.11.32.22.47.09.14.21.27.36.39.16.11.32.2.5.27.18.07.37.11.56.11.25,0,.47-.07.68-.2.2-.13.37-.3.5-.52.11-.19.18-.43.23-.73.03-.21.04-.47.04-.79s-.01-.53-.03-.7c-.03-.26-.09-.48-.17-.68-.09-.21-.22-.38-.37-.5-.17-.14-.36-.2-.57-.2-.19,0-.37.03-.53.08-.2.06-.39.17-.56.32-.09.06-.16.13-.22.2-.04.04-.07.09-.11.15-.03.04-.05.07-.07.09-.02.02-.05.03-.09.03-.08,0-.13-.03-.15-.08-.01-.03-.02-.08-.02-.16v-.04s.01-3.26.01-3.26c0-.14,0-.22.02-.25.03-.03.1-.03.23.01.22.1.46.18.71.23.24.05.5.08.76.08.2,0,.36,0,.49-.02.17-.02.35-.06.56-.11l.37-.16.18-.06s.06.01.09.03c.02.03.03.06.02.1-.04.1-.12.22-.25.35-.07.07-.17.15-.29.25v.02c-.25.17-.5.29-.77.38-.27.09-.55.14-.83.14-.16,0-.32-.01-.47-.04-.17-.02-.32-.05-.46-.1v2.15c.11-.1.21-.18.31-.25.11-.08.22-.14.33-.17.12-.05.24-.09.37-.11.12-.02.25-.03.39-.03.29,0,.56.06.82.18.26.12.49.3.68.53.2.24.34.5.44.8.11.29.16.59.16.9s-.06.64-.19.95Z" fill="#221e1f"/>
  </g>
  <g>
    <path d="M122.83,8.75h-1.78c-.33,0-.63.02-.89.04v-.34h.53c.31,0,.51-.02.61-.08.16-.07.24-.22.24-.45V2.23c-.17.08-.37.14-.59.19-.19.04-.4.08-.61.1h-.24v-.34c.06,0,.12,0,.16-.01.06,0,.13,0,.2-.01.19-.01.37-.05.56-.1.18-.04.35-.1.53-.18.1-.06.2-.12.29-.18.09-.07.18-.15.26-.23h.26v6.45c0,.24.08.39.24.45.1.05.31.08.62.08h.52v.34c-.27-.02-.56-.04-.89-.04Z" fill="#221e1f"/>
    <path d="M129.2,8.79h-4.11v-.26l2.25-2.5c.17-.2.31-.38.43-.55.14-.2.27-.4.38-.6.11-.21.19-.42.25-.62.07-.23.11-.45.11-.66,0-.24-.03-.46-.09-.66-.06-.22-.15-.42-.27-.58-.14-.19-.31-.33-.51-.43-.19-.09-.39-.13-.62-.13-.36,0-.67.1-.94.3-.26.2-.45.47-.56.82h.14c.17-.01.31.04.42.14.12.11.17.25.17.43,0,.16-.05.29-.16.41-.12.11-.25.17-.41.17-.19,0-.33-.06-.44-.18-.1-.11-.15-.26-.15-.44,0-.25.05-.5.15-.74.1-.23.24-.43.41-.61.19-.22.42-.38.68-.48.25-.1.53-.15.82-.15.32,0,.62.05.9.14.3.1.56.25.79.45.22.2.38.43.5.7.12.26.17.54.17.85,0,.29-.04.54-.13.77-.09.22-.22.44-.41.67-.17.19-.38.39-.61.6-.12.12-.32.31-.61.57l-.63.59-1.18,1.14h2.04c.22,0,.38,0,.51-.01.23-.01.37-.04.42-.08.07-.06.13-.18.18-.35.02-.09.05-.24.09-.45l.03-.18h.28l-.31,1.92Z" fill="#221e1f"/>
  </g>
  <g>
    <path d="M97.85,164.22c.21,0,.41,0,.62-.01" fill="none" stroke="#221e1f" stroke-miterlimit="10" stroke-width=".4"/>
    <path d="M99.39,164.19c28.58-.7,51.81-4.94,58.88-10.51" fill="none" stroke="#221e1f" stroke-dasharray="1.26 .91" stroke-miterlimit="10" stroke-width=".4"/>
    <path d="M158.61,153.39c.16-.14.31-.28.45-.42" fill="none" stroke="#221e1f" stroke-miterlimit="10" stroke-width=".4"/>
  </g>
  <g>
    <path d="M22.95,152.95c.14.14.29.28.45.42" fill="none" stroke="#221e1f" stroke-miterlimit="10" stroke-width=".4"/>
    <path d="M24.11,153.93c7.49,5.47,30.65,9.6,58.98,10.26" fill="none" stroke="#221e1f" stroke-dasharray="1.26 .91" stroke-miterlimit="10" stroke-width=".4"/>
    <path d="M83.56,164.21c.21,0,.41,0,.62.01" fill="none" stroke="#221e1f" stroke-miterlimit="10" stroke-width=".4"/>
  </g>
  <g>
    <path d="M90.35,168.16h-4.07v-.26l2.23-2.5c.16-.2.31-.38.43-.55.14-.2.27-.4.38-.6.11-.21.19-.42.25-.62.07-.23.11-.45.11-.65,0-.24-.03-.45-.09-.65-.06-.22-.15-.41-.27-.58-.14-.19-.31-.33-.5-.43-.19-.09-.39-.13-.61-.13-.36,0-.67.1-.93.3-.26.2-.44.47-.56.81h.14c.17-.01.31.04.42.14.11.11.17.25.17.43,0,.16-.05.29-.16.41-.11.11-.25.17-.41.17-.19,0-.33-.06-.44-.18-.1-.11-.15-.26-.15-.44,0-.25.05-.5.15-.74.1-.23.24-.43.41-.61.19-.21.42-.38.68-.48.25-.1.52-.15.81-.15.31,0,.61.05.89.14.29.1.55.25.78.45.21.2.38.43.49.7.11.26.17.54.17.85,0,.29-.04.54-.13.77-.09.22-.22.44-.41.66-.17.19-.37.39-.6.6-.12.12-.32.31-.6.57l-.62.59-1.17,1.13h2.03c.21,0,.38,0,.5-.01.23-.01.37-.04.42-.07.07-.06.13-.18.18-.35.02-.09.05-.24.09-.45l.03-.18h.28l-.31,1.92Z"/>
    <path d="M95.08,166.35v.95c0,.23.06.38.18.44.08.05.25.08.51.08h.38v.34c-.23-.02-.48-.04-.75-.04h-1.49c-.28,0-.53.02-.74.04v-.34h.34c.28,0,.46-.02.54-.06.12-.06.18-.21.18-.45v-.95h-2.92v-.34l3.37-5.14c.04-.06.06-.09.09-.11.03-.01.07-.02.14-.02.08,0,.13.02.15.06.01.03.02.09.02.17v5.03h1.1v.34h-1.1ZM94.3,161.92l-2.67,4.09h2.67v-4.09Z"/>
  </g>
</svg>