<?xml version="1.0" encoding="UTF-8"?>
<svg id="_레이어_1" data-name="레이어 1" xmlns="http://www.w3.org/2000/svg" width="223.71" height="116.95" viewBox="0 0 223.71 116.95">
  <path d="M4.69,8.09v-.28c.48,0,.79-.05.93-.14.15-.11.17-.31.06-.61l-.65-1.84H1.98l-.51,1.59c-.14.4-.14.67,0,.81.13.13.44.19.94.19v.28H0v-.28c.31,0,.54-.06.68-.19.15-.14.31-.46.49-.95L3.36.27l.61-.27,2.43,7.03c.09.29.23.5.4.61.17.11.4.17.7.17v.28h-2.81ZM3.49.81l-1.4,4.09h2.83L3.49.81Z" fill="#221e1f"/>
  <path d="M5.97,115.93c-.51.44-1.21.67-2.09.67H.34v-.28c.42,0,.7-.05.83-.14.14-.09.22-.29.22-.58v-5.88c0-.27-.07-.47-.22-.58-.16-.12-.44-.18-.83-.18v-.28h3.33c.82,0,1.47.18,1.96.53.46.34.69.78.69,1.33,0,.41-.13.76-.38,1.04-.29.32-.74.56-1.35.72.72.14,1.25.41,1.6.79.32.35.48.8.48,1.34,0,.59-.23,1.1-.69,1.5ZM5.11,109.45c-.35-.33-.83-.49-1.45-.49h-.65c-.32,0-.56.06-.7.18-.14.12-.22.32-.22.58v2.53h1.57c.53,0,.98-.19,1.36-.58.35-.36.53-.76.53-1.19,0-.39-.15-.73-.44-1.02ZM5.34,113.11c-.41-.39-.92-.58-1.51-.58h-1.74v3.07c0,.29.07.48.22.58.12.09.36.14.7.14h.75c.67,0,1.21-.2,1.61-.59.38-.36.56-.79.56-1.3s-.19-.95-.58-1.32Z" fill="#221e1f"/>
  <path d="M101.69,116.27c-.52.46-1.12.69-1.81.69-.91,0-1.67-.36-2.29-1.08-.66-.78-.99-1.81-.99-3.1,0-1.14.29-2.1.86-2.89.59-.8,1.34-1.2,2.24-1.2.21,0,.42.02.63.06.13.04.34.1.64.19l.06.03.79-.25.77,2-.17.11c-.35-.51-.7-.91-1.07-1.21-.53-.44-1.07-.66-1.62-.66-.68,0-1.24.36-1.7,1.09-.45.72-.67,1.63-.67,2.73,0,1.03.27,1.9.81,2.59.53.69,1.19,1.04,1.98,1.04.47,0,.9-.15,1.3-.44.43-.31.81-.78,1.15-1.41l.21.09c-.28.69-.64,1.23-1.09,1.62Z" fill="#221e1f"/>
  <path d="M101.87,6.85c-.68.83-1.66,1.25-2.92,1.25h-2.97v-.28c.38,0,.65-.06.81-.18.16-.12.24-.33.24-.62V1.19c0-.26-.08-.45-.24-.57-.17-.12-.44-.17-.81-.17V.17h2.97c1.26,0,2.23.41,2.92,1.24.61.72.91,1.62.91,2.72s-.3,2-.91,2.72ZM101.26,1.6c-.57-.77-1.34-1.15-2.3-1.15h-.33c-.31,0-.54.06-.68.17-.14.12-.21.31-.21.57v5.81c0,.29.07.49.21.62.14.12.36.18.68.18h.33c.97,0,1.73-.38,2.3-1.15.51-.69.77-1.53.77-2.54s-.26-1.84-.77-2.53Z" fill="#221e1f"/>
  <path d="M53.54,8.01v-.28c.39,0,.66-.07.82-.2.15-.11.23-.3.23-.56V.46h-.12l-2.87,7.63h-.17l-2.83-7.47h-.13v6.34c0,.28.07.47.22.58.16.12.44.18.84.18v.28h-2.42v-.28c.4,0,.67-.06.83-.18.14-.11.22-.3.22-.58V.97c0-.22-.08-.38-.24-.47-.15-.09-.42-.13-.81-.13V.09h1.99l2.6,6.92L54.28.09h2.05v.28c-.42,0-.71.05-.86.14-.13.09-.19.24-.19.46v6c0,.26.07.44.22.56.16.14.44.2.84.2v.28h-2.8Z" fill="#221e1f"/>
  <circle cx="51.72" cy="10.38" r="1.42" fill="#231815"/>
  <path d="M177.47,81.8c-.06.24-.08.45-.08.62.02.28.14.42.34.42s.4-.18.56-.53c.09-.2.18-.48.27-.84v-.03c.03-.09.05-.14.06-.15.03-.02.09-.02.17,0,.03,0,.04.03.04.08,0,.02,0,.06-.01.12v.02c-.1.43-.22.76-.34,1-.2.38-.47.57-.8.57-.4,0-.68-.15-.85-.44-.16-.26-.19-.58-.1-.94l1.39-5.49v-.03c.04-.13.05-.21.03-.25-.02-.06-.1-.1-.24-.12h-.3c-.08,0-.14,0-.17-.02-.06-.02-.1-.06-.1-.11,0-.08.01-.14.04-.17.03-.03.08-.05.16-.06.28-.04.5-.06.67-.08.25-.02.48-.03.68-.03.04,0,.08,0,.11.02.03.02.04.05.04.1l-1.6,6.35Z" fill="#221e1f"/>
  <polygon points="3.75 74.34 3.75 94.3 3.75 106.32 99.69 106.32 99.69 46.36 99.69 10.38 3.75 10.38 3.75 74.34" fill="none" stroke="#231815" stroke-linejoin="round" stroke-width=".75"/>
  <g>
    <line x1="127.24" y1="74.34" x2="127.24" y2="74.96" fill="none" stroke="#231815" stroke-linejoin="round" stroke-width=".4"/>
    <line x1="127.24" y1="75.89" x2="127.24" y2="93.22" fill="none" stroke="#231815" stroke-dasharray="1.29 .94" stroke-linejoin="round" stroke-width=".4"/>
    <line x1="127.24" y1="93.68" x2="127.24" y2="94.3" fill="none" stroke="#231815" stroke-linejoin="round" stroke-width=".4"/>
  </g>
  <polyline points="223.18 46.36 223.18 10.38 127.24 10.38 127.24 74.34" fill="none" stroke="#231815" stroke-linejoin="round" stroke-width=".75"/>
  <polygon points="117.65 87.13 175.21 10.38 223.18 46.36 127.24 94.32 117.65 87.13" fill="none" stroke="#231815" stroke-linejoin="round" stroke-width=".75"/>
  <g>
    <path d="M171.89,80.81c-.19.09-.37.18-.56.27" fill="none" stroke="#221e1f" stroke-miterlimit="10" stroke-width=".4"/>
    <path d="M170.52,81.48c-18.75,9.11-35.58,14.16-42.25,12.99" fill="none" stroke="#221e1f" stroke-dasharray="1.24 .9" stroke-miterlimit="10" stroke-width=".4"/>
    <path d="M127.84,94.37c-.21-.05-.41-.11-.59-.17" fill="none" stroke="#221e1f" stroke-miterlimit="10" stroke-width=".4"/>
  </g>
  <g>
    <path d="M223.52,46.07c-.07.18-.15.37-.24.57" fill="none" stroke="#221e1f" stroke-miterlimit="10" stroke-width=".4"/>
    <path d="M222.86,47.4c-3.81,6.28-19.04,17.13-38.81,27.31" fill="none" stroke="#221e1f" stroke-dasharray="1.22 .88" stroke-miterlimit="10" stroke-width=".4"/>
    <path d="M183.65,74.92c-.18.09-.37.19-.55.28" fill="none" stroke="#221e1f" stroke-miterlimit="10" stroke-width=".4"/>
  </g>
  <path d="M115.71,60.2l-.1-.12,1.5-1.74h-9.28v-.34h9.31l-1.54-1.66.06-.13,3.15,1.95-3.11,2.04Z"/>
</svg>