<?xml version="1.0" encoding="UTF-8"?>
<svg id="_레이어_1" data-name="레이어 1" xmlns="http://www.w3.org/2000/svg" width="188.62" height="153.32" viewBox="0 0 188.62 153.32">
  <g>
    <line x1="22.95" y1="99.88" x2="22.95" y2="100.5" fill="none" stroke="#231815" stroke-linejoin="round" stroke-width=".4"/>
    <line x1="22.95" y1="101.42" x2="22.95" y2="127.12" fill="none" stroke="#231815" stroke-dasharray="1.26 .92" stroke-linejoin="round" stroke-width=".4"/>
    <line x1="22.95" y1="127.58" x2="22.95" y2="128.2" fill="none" stroke="#231815" stroke-linejoin="round" stroke-width=".4"/>
  </g>
  <polyline points="159.01 60.2 159.01 9.17 22.95 9.17 22.95 99.88" fill="none" stroke="#231815" stroke-linejoin="round" stroke-width=".75"/>
  <g>
    <line x1="22.95" y1="128.2" x2="22.95" y2="128.82" fill="none" stroke="#231815" stroke-linejoin="round" stroke-width=".4"/>
    <line x1="22.95" y1="129.72" x2="22.95" y2="144.17" fill="none" stroke="#231815" stroke-dasharray="1.23 .9" stroke-linejoin="round" stroke-width=".4"/>
    <polyline points="22.95 144.62 22.95 145.24 23.57 145.24" fill="none" stroke="#231815" stroke-linejoin="round" stroke-width=".4"/>
    <line x1="24.46" y1="145.24" x2="157.95" y2="145.24" fill="none" stroke="#231815" stroke-dasharray="1.23 .89" stroke-linejoin="round" stroke-width=".4"/>
    <polyline points="158.39 145.24 159.01 145.24 159.01 144.62" fill="none" stroke="#231815" stroke-linejoin="round" stroke-width=".4"/>
    <line x1="159.01" y1="143.72" x2="159.01" y2="61.26" fill="none" stroke="#231815" stroke-dasharray="1.23 .89" stroke-linejoin="round" stroke-width=".4"/>
    <line x1="159.01" y1="60.82" x2="159.01" y2="60.2" fill="none" stroke="#231815" stroke-linejoin="round" stroke-width=".4"/>
  </g>
  <polygon points="9.34 118.02 90.98 9.17 159.01 60.2 22.95 128.23 9.34 118.02" fill="none" stroke="#231815" stroke-linejoin="round" stroke-width=".75"/>
  <path d="M18.98,8.83v-.28c.48,0,.79-.05.93-.14.15-.11.17-.31.06-.61l-.65-1.84h-3.06l-.51,1.59c-.14.4-.14.67,0,.81.13.13.44.19.94.19v.28h-2.41v-.28c.31,0,.54-.06.68-.19.15-.14.31-.46.49-.95l2.19-6.41.61-.27,2.43,7.03c.09.29.23.5.4.61.17.11.4.17.7.17v.28h-2.81ZM17.78,1.54l-1.4,4.09h2.83l-1.43-4.09Z" fill="#221e1f"/>
  <path d="M20.51,152.47c-.51.44-1.21.67-2.09.67h-3.54v-.28c.42,0,.7-.05.83-.14.14-.09.22-.29.22-.58v-5.88c0-.27-.07-.47-.22-.58-.16-.12-.44-.18-.83-.18v-.28h3.33c.82,0,1.47.18,1.96.53.46.34.69.78.69,1.33,0,.41-.13.76-.38,1.04-.29.32-.74.56-1.35.72.72.14,1.25.41,1.6.79.32.35.48.8.48,1.34,0,.59-.23,1.1-.69,1.5ZM19.65,145.99c-.35-.33-.83-.49-1.45-.49h-.65c-.32,0-.56.06-.7.18-.14.12-.22.32-.22.58v2.53h1.57c.53,0,.98-.19,1.36-.58.35-.36.53-.76.53-1.19,0-.39-.15-.73-.44-1.02ZM19.89,149.65c-.41-.39-.92-.58-1.51-.58h-1.74v3.07c0,.29.07.48.22.58.12.09.36.14.7.14h.75c.67,0,1.21-.2,1.61-.59.38-.36.56-.79.56-1.3s-.19-.95-.58-1.32Z" fill="#221e1f"/>
  <path d="M165.25,152.63c-.52.46-1.12.69-1.81.69-.91,0-1.67-.36-2.29-1.08-.66-.78-.99-1.81-.99-3.1,0-1.14.29-2.1.86-2.89.59-.8,1.34-1.2,2.24-1.2.21,0,.42.02.63.06.13.04.34.1.64.19l.06.03.79-.25.77,2-.17.11c-.35-.51-.7-.91-1.07-1.21-.53-.44-1.07-.66-1.62-.66-.68,0-1.24.36-1.7,1.09-.45.72-.67,1.63-.67,2.73,0,1.03.27,1.9.81,2.59.53.69,1.19,1.04,1.98,1.04.47,0,.9-.15,1.3-.44.43-.31.81-.78,1.15-1.41l.21.09c-.28.69-.64,1.23-1.09,1.62Z" fill="#221e1f"/>
  <path d="M165.73,7.49c-.68.83-1.66,1.25-2.92,1.25h-2.97v-.28c.38,0,.65-.06.81-.18.16-.12.24-.33.24-.62V1.84c0-.26-.08-.45-.24-.57-.17-.12-.44-.17-.81-.17v-.28h2.97c1.26,0,2.23.41,2.92,1.24.61.72.91,1.62.91,2.72s-.3,2-.91,2.72ZM165.12,2.25c-.57-.77-1.34-1.15-2.3-1.15h-.33c-.31,0-.54.06-.68.17-.14.12-.21.31-.21.57v5.81c0,.29.07.49.21.62.14.12.36.18.68.18h.33c.97,0,1.73-.38,2.3-1.15.51-.69.77-1.53.77-2.54s-.26-1.84-.77-2.53Z" fill="#221e1f"/>
  <path d="M92.9,7.92v-.28c.39,0,.66-.07.82-.2.15-.11.23-.3.23-.56V.38h-.12l-2.87,7.63h-.17l-2.83-7.47h-.13v6.34c0,.28.07.47.22.58.16.12.44.18.84.18v.28h-2.42v-.28c.4,0,.67-.06.83-.18.14-.11.22-.3.22-.58V.88c0-.22-.08-.38-.24-.47-.15-.09-.42-.13-.81-.13v-.28h1.99l2.6,6.92,2.59-6.92h2.05v.28c-.42,0-.71.05-.86.14-.13.09-.19.24-.19.46v6c0,.26.07.44.22.56.16.14.44.2.84.2v.28h-2.8Z" fill="#221e1f"/>
  <path d="M171.26,57.01c-.17.09-.25.24-.25.45v7.09h-.19l-4.83-6.97v5.88c0,.28.08.48.23.59.17.11.47.17.92.17v.28h-2.53v-.28c.38,0,.65-.06.81-.17.16-.11.24-.31.24-.59v-5.84c0-.29-.08-.48-.24-.59-.16-.12-.43-.17-.81-.17v-.28h1.49l4.59,6.64v-5.76c0-.21-.09-.37-.26-.46-.18-.09-.48-.14-.91-.14v-.28h2.55v.28c-.37,0-.64.05-.81.15Z" fill="#221e1f"/>
  <path d="M20.7,96.72c-.42.38-.98.57-1.66.57h-1.8v2.64c0,.28.08.48.23.6.17.14.48.2.91.2v.28h-2.89v-.28c.39,0,.66-.07.82-.2.15-.12.23-.32.23-.6v-5.85c0-.27-.08-.46-.23-.56-.15-.1-.42-.15-.82-.15v-.28h3.64c.63,0,1.16.17,1.59.52.45.37.67.86.67,1.47,0,.69-.23,1.23-.68,1.63ZM20.17,93.89c-.33-.34-.77-.52-1.31-.52h-.85c-.28,0-.48.05-.59.15-.12.11-.18.29-.18.56v2.92h1.62c.54,0,.98-.21,1.32-.62.3-.37.45-.81.45-1.3s-.15-.87-.45-1.19Z" fill="#221e1f"/>
  <path d="M21.4,136.19c-.2.19-.36.32-.48.39-.19.11-.39.16-.62.16-.32,0-.62-.13-.89-.38-.23-.22-.43-.52-.59-.9-.17.07-.34.13-.53.17-.17.04-.32.05-.47.05-1.04,0-1.87-.43-2.49-1.29-.56-.77-.84-1.72-.84-2.84s.28-2.06.84-2.85c.63-.86,1.46-1.29,2.49-1.29s1.82.43,2.46,1.29c.6.8.9,1.75.9,2.85,0,.77-.14,1.49-.43,2.16-.32.75-.77,1.26-1.33,1.51.1.24.24.45.42.62.21.21.43.31.67.31.16,0,.29-.01.4-.04.13-.03.27-.09.43-.17l.13.17-.08.06ZM19.75,128.9c-.48-.8-1.13-1.2-1.93-1.2s-1.45.4-1.93,1.2c-.44.73-.66,1.62-.66,2.67,0,.51.07,1.03.21,1.57.16.61.37,1.05.63,1.32-.04-.44.07-.76.32-.96.19-.14.46-.2.82-.2.32,0,.65.1.97.31.41.27.77.68,1.07,1.24.4-.29.7-.79.91-1.5.17-.57.26-1.16.26-1.77,0-1.05-.22-1.93-.66-2.67ZM17.86,133.91c-.24-.18-.51-.27-.81-.27-.22,0-.38.04-.49.12-.21.15-.31.44-.31.87.27.28.54.48.81.61.24.11.49.16.76.16.14,0,.28-.02.43-.08.14-.04.29-.1.44-.17-.23-.59-.51-1-.83-1.25Z" fill="#221e1f"/>
  <g>
    <path d="M5.62,120.62c-.51.44-1.2.66-2.08.66H0v-.28c.42,0,.69-.05.83-.14.14-.09.22-.29.22-.58v-5.87c0-.27-.07-.46-.22-.58-.16-.12-.44-.18-.83-.18v-.28h3.32c.82,0,1.47.18,1.95.53.46.34.69.78.69,1.33,0,.41-.13.75-.38,1.04-.29.31-.74.55-1.35.72.72.14,1.25.4,1.6.78.32.35.47.8.47,1.34,0,.59-.23,1.09-.69,1.5ZM4.75,114.15c-.35-.33-.83-.49-1.44-.49h-.65c-.32,0-.56.06-.7.18-.14.12-.22.31-.22.58v2.52h1.56c.52,0,.98-.19,1.36-.58.35-.36.53-.75.53-1.19,0-.39-.15-.73-.44-1.02ZM4.99,117.8c-.41-.39-.91-.58-1.51-.58h-1.74v3.07c0,.29.07.48.22.58.12.09.36.14.7.14h.74c.67,0,1.2-.2,1.61-.59.37-.36.56-.79.56-1.3s-.19-.95-.58-1.32Z"/>
    <path d="M9.12,112.69h1.1l-2.3,3.09,1.19-3.09Z"/>
  </g>
  <polyline points="23 136.21 31.51 136.21 31.51 144.72" fill="none" stroke="#221e1f" stroke-miterlimit="10" stroke-width=".4"/>
  <polyline points="159.01 136.73 150.51 136.73 150.51 145.24" fill="none" stroke="#221e1f" stroke-miterlimit="10" stroke-width=".4"/>
  <polyline points="22.98 18.2 31.48 18.2 31.48 9.69" fill="none" stroke="#221e1f" stroke-miterlimit="10" stroke-width=".4"/>
  <polyline points="158.99 17.68 150.48 17.68 150.48 9.17" fill="none" stroke="#221e1f" stroke-miterlimit="10" stroke-width=".4"/>
  <polyline points="97.71 14.27 92.6 21.08 85.8 15.98" fill="none" stroke="#221e1f" stroke-miterlimit="10" stroke-width=".4"/>
  <polyline points="14.58 110.99 21.38 116.09 16.28 122.89" fill="none" stroke="#221e1f" stroke-miterlimit="10" stroke-width=".4"/>
  <g>
    <path d="M132.29,30.65c.16.13.33.25.49.38" fill="none" stroke="#221e1f" stroke-miterlimit="10" stroke-width=".4"/>
    <path d="M133.48,31.58c13.84,10.92,23.74,21.78,25.36,27.55" fill="none" stroke="#221e1f" stroke-dasharray="1.23 .89" stroke-miterlimit="10" stroke-width=".4"/>
    <path d="M158.94,59.56c.05.21.08.41.1.61" fill="none" stroke="#221e1f" stroke-miterlimit="10" stroke-width=".4"/>
  </g>
  <g>
    <path d="M91.08,9.21c.19-.04.4-.06.61-.08" fill="none" stroke="#221e1f" stroke-miterlimit="10" stroke-width=".4"/>
    <path d="M92.57,9.12c6.13.22,18.91,6.53,32.84,16.41" fill="none" stroke="#221e1f" stroke-dasharray="1.21 .88" stroke-miterlimit="10" stroke-width=".4"/>
    <path d="M125.77,25.8c.17.12.34.24.5.36" fill="none" stroke="#221e1f" stroke-miterlimit="10" stroke-width=".4"/>
  </g>
  <g>
    <path d="M167.57,99.88c0-.21,0-.41-.01-.62" fill="none" stroke="#221e1f" stroke-miterlimit="10" stroke-width=".4"/>
    <path d="M167.54,98.34c-.43-17.93-3.56-32.66-7.72-37.43" fill="none" stroke="#221e1f" stroke-dasharray="1.26 .91" stroke-miterlimit="10" stroke-width=".4"/>
    <path d="M159.51,60.59c-.15-.15-.3-.29-.45-.42" fill="none" stroke="#221e1f" stroke-miterlimit="10" stroke-width=".4"/>
  </g>
  <g>
    <path d="M159.04,145.04c.15-.13.3-.26.45-.42" fill="none" stroke="#221e1f" stroke-miterlimit="10" stroke-width=".4"/>
    <path d="M160.08,143.96c3.97-5.01,6.95-19.17,7.44-36.4" fill="none" stroke="#221e1f" stroke-dasharray="1.22 .89" stroke-miterlimit="10" stroke-width=".4"/>
    <path d="M167.53,107.11c0-.21.01-.41.01-.62" fill="none" stroke="#221e1f" stroke-miterlimit="10" stroke-width=".4"/>
  </g>
  <g>
    <path d="M167.38,29.52c-.02-.21-.04-.41-.05-.62" fill="none" stroke="#221e1f" stroke-miterlimit="10" stroke-width=".4"/>
    <path d="M167.24,28.03c-.96-8.81-3.78-15.8-7.39-18.37" fill="none" stroke="#221e1f" stroke-dasharray="1.2 .87" stroke-miterlimit="10" stroke-width=".4"/>
    <path d="M159.49,9.42c-.18-.11-.36-.21-.54-.3" fill="none" stroke="#221e1f" stroke-miterlimit="10" stroke-width=".4"/>
  </g>
  <g>
    <path d="M158.94,60.17c.18-.09.36-.19.54-.3" fill="none" stroke="#221e1f" stroke-miterlimit="10" stroke-width=".4"/>
    <path d="M160.22,59.33c3.65-2.96,6.44-10.49,7.17-19.78" fill="none" stroke="#221e1f" stroke-dasharray="1.27 .92" stroke-miterlimit="10" stroke-width=".4"/>
    <path d="M167.43,39.09c.01-.21.03-.41.04-.62" fill="none" stroke="#221e1f" stroke-miterlimit="10" stroke-width=".4"/>
  </g>
  <path d="M170.09,101.65c-.12.13-.26.19-.42.19-.13,0-.23-.04-.31-.11-.08-.07-.12-.16-.12-.28,0-.14.05-.27.16-.39.1-.11.22-.17.38-.2-.08-.06-.17-.1-.27-.12-.09-.01-.18-.02-.28-.02-.29,0-.54.15-.75.44-.15.22-.26.51-.34.86l-.5,2.07c-.04.18-.06.33-.05.46,0,.16.05.31.14.44.04.06.1.12.18.16.09.04.18.06.28.06.12,0,.25-.03.39-.09.11-.05.23-.11.34-.19.16-.14.3-.3.42-.48.11-.17.21-.37.29-.59v-.03c.03-.08.05-.13.08-.15.03-.04.08-.05.15-.03.06.01.08.06.08.14,0,.05-.03.13-.06.24-.1.24-.23.45-.38.65-.17.22-.35.4-.56.55-.11.07-.24.12-.36.16-.12.04-.25.06-.4.06-.17,0-.32-.02-.45-.07-.13-.04-.24-.11-.33-.19-.11-.09-.19-.18-.26-.27-.06-.1-.11-.2-.14-.3-.14.25-.3.45-.48.59-.21.16-.44.25-.68.25-.26,0-.49-.06-.69-.17-.23-.13-.34-.31-.34-.56,0-.17.06-.32.17-.45.11-.12.26-.18.43-.18.11,0,.21.03.29.1.08.07.12.17.12.29,0,.14-.05.27-.16.39-.09.1-.21.17-.35.2.07.05.16.08.26.11.09.03.18.04.29.04.26,0,.49-.13.69-.4.15-.2.27-.45.35-.75l.45-1.76h0c.06-.28.11-.48.13-.63.04-.26.02-.47-.04-.61-.05-.11-.12-.2-.21-.26-.09-.06-.2-.09-.32-.09-.13,0-.26.03-.39.08-.12.04-.24.11-.34.19-.16.13-.31.3-.45.51-.12.2-.22.42-.29.65-.02.05-.05.09-.09.11-.04.01-.08.01-.13,0-.06-.01-.08-.08-.05-.18.01-.06.04-.15.09-.26l.02-.03c.08-.21.2-.41.37-.6.16-.19.33-.35.54-.48.11-.08.23-.14.35-.18.11-.03.25-.04.4-.04.29,0,.53.07.74.21.21.14.36.35.45.61.1-.24.25-.43.46-.59.21-.16.45-.24.7-.24s.48.05.67.15c.24.13.35.32.35.57,0,.16-.06.31-.17.44Z"/>
  <path d="M131.89,26.94c-.12.13-.26.19-.42.19-.13,0-.23-.04-.31-.11-.08-.07-.12-.16-.12-.28,0-.14.05-.27.16-.39.1-.11.22-.17.38-.2-.08-.06-.17-.1-.27-.12-.09-.01-.18-.02-.28-.02-.29,0-.54.15-.75.44-.15.22-.26.51-.34.86l-.5,2.07c-.04.18-.06.33-.05.46,0,.16.05.31.14.44.04.06.1.12.18.16.09.04.18.06.28.06.12,0,.25-.03.39-.09.11-.05.23-.11.34-.19.16-.14.3-.3.42-.48.11-.17.21-.37.29-.59v-.03c.03-.08.05-.13.08-.15.03-.04.08-.05.15-.03.06.01.08.06.08.14,0,.05-.03.13-.06.24-.1.24-.23.45-.38.65-.17.22-.35.4-.56.55-.11.07-.24.12-.36.16-.12.04-.25.06-.4.06-.17,0-.32-.02-.45-.07-.13-.04-.24-.11-.33-.19-.11-.09-.19-.18-.26-.27-.06-.1-.11-.2-.14-.3-.14.25-.3.45-.48.59-.21.16-.44.25-.68.25-.26,0-.49-.06-.69-.17-.23-.13-.34-.31-.34-.56,0-.17.06-.32.17-.45.11-.12.26-.18.43-.18.11,0,.21.03.29.1.08.07.12.17.12.29,0,.14-.05.27-.16.39-.09.1-.21.17-.35.2.07.05.16.09.26.11.09.03.18.04.29.04.26,0,.49-.13.69-.4.15-.2.27-.45.35-.75l.45-1.76h0c.06-.27.11-.48.13-.63.04-.26.02-.47-.04-.61-.05-.11-.12-.2-.21-.26-.09-.06-.2-.09-.32-.09-.13,0-.26.02-.39.07-.12.04-.24.11-.34.19-.16.13-.31.3-.45.51-.12.2-.22.42-.29.65-.02.05-.05.09-.09.11-.04.01-.08.01-.13,0-.06-.01-.08-.08-.05-.18.01-.06.04-.15.09-.26l.02-.03c.08-.21.2-.41.37-.6.16-.19.33-.35.54-.48.11-.08.23-.14.35-.18.11-.03.25-.04.4-.04.29,0,.53.07.74.21.21.14.36.35.45.61.1-.24.25-.43.46-.59.21-.16.45-.24.7-.24s.48.05.67.15c.24.13.35.32.35.57,0,.16-.06.31-.17.44Z"/>
  <g>
    <path d="M165.14,37.53h-4.07v-.26l2.23-2.5c.17-.2.31-.38.43-.55.14-.2.27-.4.38-.6.11-.21.19-.42.25-.62.07-.23.11-.45.11-.65,0-.24-.03-.45-.09-.65-.06-.22-.15-.41-.27-.58-.14-.19-.31-.33-.5-.43-.19-.09-.39-.13-.61-.13-.36,0-.67.1-.93.3-.26.2-.44.47-.56.81h.14c.17-.01.31.04.42.14.11.11.17.25.17.43,0,.16-.05.29-.16.41-.11.11-.25.17-.41.17-.19,0-.33-.06-.44-.18-.1-.11-.15-.26-.15-.44,0-.25.05-.5.15-.74.1-.23.24-.43.41-.61.19-.21.42-.38.68-.48.25-.1.52-.15.81-.15.31,0,.61.05.89.14.29.1.55.25.78.45.21.2.38.43.49.7.11.26.17.54.17.85,0,.29-.04.54-.13.77-.09.22-.22.44-.41.66-.17.19-.37.39-.6.6-.12.12-.32.31-.6.57l-.62.59-1.17,1.14h2.03c.21,0,.38,0,.5-.01.23-.01.37-.04.42-.07.07-.06.13-.18.18-.35.02-.09.05-.24.09-.45l.03-.18h.28l-.31,1.92Z"/>
    <path d="M169.87,35.72v.95c0,.23.06.38.18.44.08.05.25.07.51.07h.38v.34c-.23-.02-.48-.04-.75-.04h-1.49c-.28,0-.53.02-.74.04v-.34h.34c.28,0,.46-.02.54-.06.12-.06.18-.21.18-.45v-.95h-2.92v-.34l3.37-5.14c.04-.06.06-.09.09-.11.03-.01.07-.02.14-.02.08,0,.13.02.15.06.01.03.02.09.02.17v5.03h1.1v.34h-1.1ZM169.09,31.29l-2.67,4.09h2.67v-4.09Z"/>
    <path d="M180.15,34.18s-.12.03-.25.03h-6.36c-.13,0-.21-.01-.26-.03-.07-.03-.11-.09-.11-.18,0-.1.04-.17.12-.2.05-.01.13-.02.26-.02h6.33c.11,0,.2,0,.25.02.09.04.13.1.13.2,0,.09-.04.15-.12.18Z"/>
    <path d="M187.97,33.85c-.12.13-.26.19-.42.19-.13,0-.23-.04-.31-.11-.08-.07-.12-.16-.12-.28,0-.14.05-.27.16-.39.1-.11.23-.17.38-.2-.08-.06-.17-.1-.27-.12-.09-.01-.18-.02-.28-.02-.29,0-.54.15-.75.44-.15.22-.26.51-.34.86l-.5,2.07c-.04.18-.06.33-.05.46,0,.16.05.31.14.44.04.06.1.12.18.16.09.04.18.06.28.06.12,0,.25-.03.39-.09.11-.05.23-.11.34-.19.16-.14.3-.3.42-.48.11-.17.21-.37.29-.59v-.03c.03-.08.05-.13.08-.15.03-.04.08-.05.15-.03.06.01.08.06.08.14,0,.05-.03.13-.06.24-.1.24-.22.45-.38.65-.16.22-.35.4-.56.55-.12.07-.24.12-.37.16-.12.04-.25.06-.4.06-.17,0-.32-.02-.45-.07-.13-.04-.24-.11-.33-.19-.11-.09-.19-.18-.26-.27-.06-.1-.11-.2-.14-.3-.14.25-.3.45-.48.59-.21.16-.44.25-.67.25-.26,0-.49-.06-.69-.17-.23-.13-.34-.31-.34-.56,0-.17.06-.32.17-.45.11-.12.26-.18.43-.18.11,0,.21.03.29.1.08.07.12.17.12.29,0,.14-.05.27-.16.39-.09.1-.21.17-.35.2.07.05.16.09.26.11.09.03.18.04.29.04.26,0,.49-.13.69-.4.15-.2.27-.45.35-.75l.45-1.76h0c.06-.27.11-.48.13-.63.04-.26.02-.47-.04-.61-.05-.11-.12-.2-.21-.26-.09-.06-.2-.09-.32-.09s-.26.02-.39.07c-.12.04-.24.11-.34.19-.16.13-.31.3-.45.51-.12.2-.22.42-.29.65-.02.05-.05.09-.09.11-.04.01-.08.01-.13,0-.06-.01-.08-.08-.05-.18.01-.06.04-.15.09-.26l.02-.03c.08-.21.2-.41.36-.6.16-.19.34-.35.54-.48.11-.08.22-.14.35-.18.11-.03.25-.04.4-.04.29,0,.53.07.74.21.21.14.36.35.45.61.1-.24.25-.43.46-.59.21-.16.45-.24.7-.24s.48.05.66.15c.24.13.35.32.35.57,0,.16-.06.31-.17.44Z"/>
  </g>
</svg>