<?xml version="1.0" encoding="UTF-8"?>
<svg id="_레이어_1" data-name="레이어 1" xmlns="http://www.w3.org/2000/svg" width="159.28" height="148.31" viewBox="0 0 159.28 148.31">
  <polygon points="151.24 77.07 100.22 9.03 137.07 34.55 151.24 77.07" fill="#dcdddd"/>
  <polygon points="9.5 77.07 100.22 9.03 37.85 20.37 9.5 77.07" fill="#dcdddd"/>
  <circle cx="80.37" cy="77.07" r="70.87" fill="none" stroke="#221e1f" stroke-linejoin="round" stroke-width=".75"/>
  <path d="M100.22,9.03l51.02,68.04L100.22,9.03Z" fill="none" stroke="#221e1f" stroke-linejoin="round" stroke-width=".4"/>
  <line x1="9.5" y1="77.07" x2="100.22" y2="9.03" fill="none" stroke="#221e1f" stroke-linejoin="round" stroke-width=".4"/>
  <line x1="37.85" y1="20.38" x2="80.38" y2="77.07" fill="none" stroke="#221e1f" stroke-linejoin="round" stroke-width=".4"/>
  <g>
    <line x1="32.76" y1="56.37" x2="35.95" y2="60.62" fill="none" stroke="#221e1f" stroke-linejoin="round" stroke-width=".4"/>
    <line x1="31.17" y1="57.44" x2="34.36" y2="61.7" fill="none" stroke="#221e1f" stroke-linejoin="round" stroke-width=".4"/>
  </g>
  <g>
    <line x1="76.27" y1="23.67" x2="79.46" y2="27.92" fill="none" stroke="#221e1f" stroke-linejoin="round" stroke-width=".4"/>
    <line x1="74.68" y1="24.75" x2="77.87" y2="29" fill="none" stroke="#221e1f" stroke-linejoin="round" stroke-width=".4"/>
  </g>
  <line x1="115.05" y1="24.39" x2="110.8" y2="27.57" fill="none" stroke="#221e1f" stroke-linejoin="round" stroke-width=".4"/>
  <line x1="139.6" y1="57.12" x2="135.34" y2="60.31" fill="none" stroke="#221e1f" stroke-linejoin="round" stroke-width=".4"/>
  <line x1="137.07" y1="34.55" x2="80.36" y2="77.07" fill="none" stroke="#221e1f" stroke-linejoin="round" stroke-width=".4"/>
  <polygon points="151.24 77.07 9.5 77.07 37.85 20.38 100.22 9.03 137.07 34.55 151.24 77.07" fill="none" stroke="#221e1f" stroke-linejoin="round" stroke-width=".75"/>
  <path d="M4.69,81.12v-.28c.48,0,.79-.05,.93-.14,.15-.11,.17-.31,.06-.61l-.65-1.84H1.98l-.51,1.59c-.14,.4-.14,.67,0,.81,.13,.13,.44,.19,.94,.19v.28H0v-.28c.31,0,.54-.06,.68-.19,.15-.14,.31-.46,.49-.95l2.19-6.41,.61-.27,2.43,7.03c.09,.29,.23,.5,.4,.61,.17,.11,.4,.17,.7,.17v.28h-2.81Zm-1.2-7.29l-1.4,4.09h2.83l-1.43-4.09Z" fill="#221e1f"/>
  <path d="M158.58,80.37c-.51,.44-1.21,.67-2.09,.67h-3.54v-.28c.42,0,.7-.05,.83-.14,.14-.09,.22-.29,.22-.58v-5.88c0-.27-.07-.47-.22-.58-.16-.12-.44-.18-.83-.18v-.28h3.33c.82,0,1.47,.18,1.96,.53,.46,.34,.69,.78,.69,1.33,0,.41-.13,.76-.38,1.04-.29,.32-.74,.56-1.35,.72,.72,.14,1.25,.41,1.6,.79,.32,.35,.48,.8,.48,1.34,0,.59-.23,1.1-.69,1.5Zm-.87-6.48c-.35-.33-.83-.49-1.45-.49h-.65c-.32,0-.56,.06-.7,.18-.14,.12-.22,.32-.22,.58v2.53h1.57c.53,0,.98-.19,1.36-.58,.35-.36,.53-.76,.53-1.19,0-.39-.15-.73-.44-1.02Zm.24,3.65c-.41-.39-.92-.58-1.51-.58h-1.74v3.07c0,.29,.07,.48,.22,.58,.12,.09,.36,.14,.7,.14h.75c.67,0,1.21-.2,1.61-.59,.38-.36,.56-.79,.56-1.3s-.19-.95-.58-1.32Z" fill="#221e1f"/>
  <path d="M36.35,19.16c-.52,.46-1.12,.69-1.81,.69-.91,0-1.67-.36-2.29-1.08-.66-.78-.99-1.81-.99-3.1,0-1.14,.29-2.1,.86-2.89,.59-.8,1.34-1.2,2.24-1.2,.21,0,.42,.02,.63,.06,.13,.04,.34,.1,.64,.19l.06,.03,.79-.25,.77,2-.17,.11c-.35-.51-.7-.91-1.07-1.21-.53-.44-1.07-.66-1.62-.66-.68,0-1.24,.36-1.7,1.09-.45,.72-.67,1.63-.67,2.73,0,1.03,.27,1.9,.81,2.59,.53,.69,1.19,1.04,1.98,1.04,.47,0,.9-.15,1.3-.44,.43-.31,.81-.78,1.15-1.41l.21,.09c-.28,.69-.64,1.23-1.09,1.62Z" fill="#221e1f"/>
  <path d="M143.79,34.09c-.68,.83-1.66,1.25-2.92,1.25h-2.97v-.28c.38,0,.65-.06,.81-.18,.16-.12,.24-.33,.24-.62v-5.81c0-.26-.08-.45-.24-.57-.17-.12-.44-.17-.81-.17v-.28h2.97c1.26,0,2.23,.41,2.92,1.24,.61,.72,.91,1.62,.91,2.72s-.3,2-.91,2.72Zm-.62-5.25c-.57-.77-1.34-1.15-2.3-1.15h-.33c-.31,0-.54,.06-.68,.17-.14,.12-.21,.31-.21,.57v5.81c0,.29,.07,.49,.21,.62,.14,.12,.36,.18,.68,.18h.33c.97,0,1.73-.38,2.3-1.15,.51-.69,.77-1.53,.77-2.54s-.26-1.84-.77-2.53Z" fill="#221e1f"/>
  <path d="M55.12,56.07v-.28c.39,0,.66-.07,.82-.2,.15-.11,.23-.3,.23-.56v-6.5h-.12l-2.87,7.63h-.17l-2.83-7.47h-.13v6.34c0,.28,.07,.47,.22,.58,.16,.12,.44,.18,.84,.18v.28h-2.42v-.28c.4,0,.67-.06,.83-.18,.14-.11,.22-.3,.22-.58v-6c0-.22-.08-.38-.24-.47-.15-.09-.42-.13-.81-.13v-.28h1.99l2.6,6.92,2.59-6.92h2.05v.28c-.42,0-.71,.05-.86,.14-.13,.09-.19,.24-.19,.46v6c0,.26,.07,.44,.22,.56,.16,.14,.44,.2,.84,.2v.28h-2.8Z" fill="#221e1f"/>
  <path d="M127.56,47.65c-.17,.09-.25,.24-.25,.45v7.09h-.19l-4.83-6.97v5.88c0,.28,.08,.48,.23,.59,.17,.11,.47,.17,.92,.17v.28h-2.53v-.28c.38,0,.65-.06,.81-.17,.16-.11,.24-.31,.24-.59v-5.84c0-.29-.08-.48-.24-.59-.16-.12-.43-.17-.81-.17v-.28h1.49l4.59,6.64v-5.76c0-.21-.09-.37-.26-.46-.18-.09-.48-.14-.91-.14v-.28h2.55v.28c-.37,0-.64,.05-.81,.15Z" fill="#221e1f"/>
  <path d="M82.83,85.83c-.61,.86-1.43,1.29-2.45,1.29s-1.85-.43-2.46-1.29c-.56-.77-.84-1.72-.84-2.84s.28-2.07,.84-2.85c.61-.86,1.43-1.29,2.46-1.29s1.84,.43,2.45,1.29c.56,.78,.84,1.73,.84,2.85s-.28,2.06-.84,2.84Zm-.56-5.49c-.48-.8-1.11-1.2-1.89-1.2s-1.43,.4-1.91,1.2c-.44,.74-.66,1.63-.66,2.67s.22,1.9,.66,2.63c.48,.8,1.12,1.2,1.91,1.2s1.41-.4,1.89-1.2c.44-.73,.66-1.61,.66-2.63s-.22-1.93-.66-2.67Z" fill="#221e1f"/>
  <path d="M104.67,3.62c-.42,.38-.98,.57-1.66,.57h-1.8v2.64c0,.28,.08,.48,.23,.6,.17,.14,.48,.2,.91,.2v.28h-2.89v-.28c.39,0,.66-.07,.82-.2,.15-.12,.23-.32,.23-.6V.99c0-.27-.08-.46-.23-.56-.15-.1-.42-.15-.82-.15v-.28h3.64c.63,0,1.16,.17,1.59,.52,.45,.37,.67,.86,.67,1.47,0,.69-.23,1.23-.68,1.63Zm-.53-2.83c-.33-.34-.77-.52-1.31-.52h-.85c-.28,0-.48,.05-.59,.15-.12,.11-.18,.29-.18,.56V3.91h1.62c.54,0,.98-.21,1.32-.62,.3-.37,.45-.81,.45-1.3s-.15-.87-.45-1.19Z" fill="#221e1f"/>
  <g>
    <path d="M86.53,93.81c.21,0,.41-.01,.62-.02" fill="none" stroke="#221e1f" stroke-linejoin="round" stroke-width=".4"/>
    <path d="M88.05,93.77c30.48-.93,55.33-7.37,62.54-15.83" fill="none" stroke="#221e1f" stroke-dasharray="0 0 1.24 .9" stroke-linejoin="round" stroke-width=".4"/>
    <path d="M150.87,77.6c.13-.16,.25-.33,.37-.49" fill="none" stroke="#221e1f" stroke-linejoin="round" stroke-width=".4"/>
  </g>
  <g>
    <path d="M9.5,77.07c.12,.17,.24,.33,.37,.5" fill="none" stroke="#221e1f" stroke-linejoin="round" stroke-width=".4"/>
    <path d="M10.45,78.25c7.59,8.35,32.4,14.66,62.71,15.53" fill="none" stroke="#221e1f" stroke-dasharray="0 0 1.24 .9" stroke-linejoin="round" stroke-width=".4"/>
    <path d="M73.61,93.8c.21,0,.41,.01,.62,.02" fill="none" stroke="#221e1f" stroke-linejoin="round" stroke-width=".4"/>
  </g>
  <g>
    <path d="M54.86,31.67c.08,.19,.16,.38,.24,.57" fill="none" stroke="#221e1f" stroke-linejoin="round" stroke-width=".4"/>
    <path d="M55.39,33.01c1.21,3.42,1.27,6.72,.09,9.09" fill="none" stroke="#221e1f" stroke-dasharray="0 0 1.13 .82" stroke-linejoin="round" stroke-width=".4"/>
    <path d="M55.29,42.46c-.1,.18-.21,.35-.33,.52" fill="none" stroke="#221e1f" stroke-linejoin="round" stroke-width=".4"/>
  </g>
  <g>
    <path d="M38.12,20.55c.19-.07,.39-.12,.59-.17" fill="none" stroke="#221e1f" stroke-linejoin="round" stroke-width=".4"/>
    <path d="M39.56,20.22c2.75-.32,6.05,.89,9.04,3.29" fill="none" stroke="#221e1f" stroke-dasharray="0 0 1.19 .87" stroke-linejoin="round" stroke-width=".4"/>
    <path d="M48.95,23.79c.16,.13,.31,.27,.47,.41" fill="none" stroke="#221e1f" stroke-linejoin="round" stroke-width=".4"/>
  </g>
  <g>
    <path d="M79.75,96.26c-.12,.26-.28,.48-.48,.67-.22,.21-.48,.37-.78,.48-.29,.11-.59,.16-.9,.16-.16,0-.3-.01-.44-.03-.14-.02-.28-.05-.4-.09-.4-.12-.72-.31-.96-.58-.27-.29-.41-.63-.41-1.02,0-.2,.05-.36,.15-.47,.11-.11,.26-.17,.46-.17,.18,0,.33,.06,.44,.17,.11,.12,.17,.26,.17,.45,0,.2-.07,.36-.21,.47s-.31,.16-.5,.13c.13,.24,.36,.45,.7,.61,.32,.15,.65,.22,.99,.22,.15,0,.29-.03,.43-.1,.14-.06,.26-.14,.36-.25,.16-.19,.27-.42,.34-.7,.06-.23,.1-.49,.1-.77,0-.15,0-.28-.02-.4-.01-.13-.03-.24-.05-.34-.09-.35-.23-.61-.42-.79-.21-.19-.48-.29-.8-.29h-.51c-.07,0-.13,0-.16-.02-.05-.02-.07-.06-.07-.12s.01-.1,.04-.12c.02,0,.06-.01,.12-.01,.09,0,.2,0,.31-.01,.12,0,.24-.01,.34-.02,.21-.04,.4-.15,.58-.34,.16-.17,.27-.37,.34-.59,.04-.18,.07-.33,.1-.44,.03-.16,.04-.3,.04-.44,0-.2-.02-.38-.08-.53-.06-.19-.16-.34-.28-.45-.1-.09-.21-.16-.34-.19-.11-.04-.23-.05-.36-.05-.12,0-.25,.01-.38,.03-.12,.02-.25,.05-.38,.1-.15,.06-.29,.13-.41,.22-.13,.09-.23,.2-.3,.32h.18c.16,.03,.29,.09,.38,.17s.13,.21,.13,.38-.05,.3-.16,.4c-.1,.11-.23,.16-.4,.16-.18,0-.32-.05-.42-.16-.1-.11-.15-.24-.15-.41,0-.33,.12-.62,.35-.88,.21-.22,.48-.39,.81-.49,.11-.04,.24-.08,.38-.1,.13-.01,.26-.02,.41-.02,.25,0,.49,.03,.73,.1,.24,.07,.46,.17,.65,.31s.35,.29,.46,.47c.12,.2,.18,.41,.18,.63,0,.21-.04,.41-.13,.62-.07,.19-.18,.37-.31,.56-.14,.17-.3,.31-.5,.45-.19,.13-.39,.23-.6,.31,.38,.06,.72,.21,1.02,.44,.31,.23,.54,.52,.69,.88,.04,.11,.06,.22,.09,.32,.03,.12,.04,.24,.04,.34,0,.27-.06,.54-.18,.79Z"/>
    <path d="M85.17,95.09c-.06,.46-.17,.86-.33,1.21-.19,.4-.44,.71-.77,.93-.33,.23-.71,.34-1.14,.34-.26,0-.52-.05-.76-.15-.24-.09-.46-.23-.64-.41-.36-.34-.61-.83-.75-1.49-.1-.46-.15-1.03-.15-1.7,0-.64,.04-1.18,.13-1.64,.13-.64,.35-1.14,.68-1.49,.2-.23,.43-.4,.68-.5,.25-.11,.53-.16,.84-.16,.27,0,.53,.05,.77,.15,.23,.1,.45,.25,.65,.44,.34,.33,.59,.83,.73,1.49,.1,.47,.15,1.04,.15,1.71,0,.51-.03,.93-.08,1.26Zm-.85-2.48c-.01-.36-.04-.65-.08-.89-.06-.36-.15-.64-.27-.81-.13-.2-.28-.35-.45-.46-.19-.11-.39-.17-.6-.17-.23,0-.44,.06-.62,.17-.16,.1-.31,.25-.43,.46-.13,.19-.22,.47-.27,.85-.04,.24-.06,.54-.06,.89,0,.36-.01,.74-.01,1.12s0,.74,.01,1.11c0,.31,.02,.62,.06,.91,.06,.37,.15,.66,.27,.88,.11,.2,.26,.36,.43,.48,.19,.13,.4,.19,.62,.19,.24,0,.45-.07,.63-.2,.18-.12,.33-.29,.45-.51,.1-.2,.18-.49,.23-.86,.03-.23,.05-.52,.08-.89,.01-.37,.02-.75,.02-1.15,0-.37,0-.75-.01-1.15v.02Z"/>
  </g>
  <path d="M53.87,30.36c-.11,.32-.28,.6-.49,.84-.22,.22-.46,.39-.73,.5-.27,.12-.56,.18-.86,.18s-.6-.07-.87-.2c-.26-.13-.49-.31-.66-.55-.29-.39-.5-.86-.62-1.44-.09-.44-.14-.94-.14-1.52,0-.54,.07-1.04,.2-1.5,.16-.51,.39-.95,.71-1.33,.24-.31,.52-.56,.87-.73,.35-.19,.72-.28,1.1-.28,.23,0,.43,.02,.6,.07,.17,.06,.32,.15,.45,.27,.11,.11,.2,.24,.26,.37,.06,.14,.09,.29,.09,.46,0,.15-.05,.27-.14,.38-.1,.11-.22,.16-.36,.16-.15,0-.27-.05-.36-.15-.09-.09-.14-.21-.14-.35,0-.19,.06-.32,.17-.4,.1-.06,.24-.1,.43-.1-.09-.15-.24-.26-.43-.34-.16-.06-.34-.1-.54-.1-.42,0-.79,.16-1.11,.49-.27,.27-.47,.61-.59,1.01-.07,.22-.12,.46-.16,.73-.04,.29-.05,.61-.05,.94v.26c.12-.33,.3-.59,.53-.77,.24-.21,.53-.31,.86-.31,.29,0,.57,.06,.84,.17,.26,.12,.5,.3,.71,.52,.21,.23,.36,.5,.47,.81,.11,.29,.16,.6,.16,.93s-.06,.65-.17,.95Zm-.81-1.09c0-.31-.01-.55-.03-.72-.02-.27-.08-.49-.16-.65-.12-.23-.26-.4-.41-.5-.17-.12-.37-.18-.6-.18s-.44,.06-.61,.17c-.16,.1-.3,.26-.43,.48-.11,.17-.19,.38-.25,.62-.04,.21-.06,.44-.06,.69,0,.21,0,.4,.01,.57,0,.21,.03,.4,.06,.58,.06,.34,.18,.63,.38,.86,.23,.27,.51,.41,.84,.41,.24,0,.46-.07,.65-.2,.18-.12,.32-.29,.43-.51,.08-.18,.13-.4,.16-.66,.01-.15,.02-.38,.02-.69v-.25Z"/>
</svg>