<svg id="레이어_1" data-name="레이어 1" xmlns="http://www.w3.org/2000/svg" width="223.71" height="116.95" viewBox="0 0 223.71 116.95">
  <path d="M5.53,63.13v-.28a1.94,1.94,0,0,0,.93-.14c.15-.11.18-.31.07-.61l-.65-1.84H2.82l-.51,1.59q-.19.6,0,.81a1.48,1.48,0,0,0,.94.19v.28H.84v-.28a1,1,0,0,0,.68-.19A2.5,2.5,0,0,0,2,61.71l2.19-6.4L4.81,55l2.43,7a1.14,1.14,0,0,0,.4.61,1.27,1.27,0,0,0,.7.17v.28Zm-1.2-7.29-1.4,4.1H5.76Z" transform="translate(-0.84 -55.04)" fill="#221e1f"/>
  <path d="M6.81,171a3.07,3.07,0,0,1-2.08.67H1.18v-.28a1.73,1.73,0,0,0,.84-.14.67.67,0,0,0,.21-.58v-5.88a.71.71,0,0,0-.21-.58,1.45,1.45,0,0,0-.84-.18v-.28H4.51a3.28,3.28,0,0,1,2,.52,1.58,1.58,0,0,1,.69,1.33,1.56,1.56,0,0,1-.38,1.05,2.87,2.87,0,0,1-1.35.72,2.84,2.84,0,0,1,1.6.78A2,2,0,0,1,6.81,171ZM6,164.49A2,2,0,0,0,4.5,164H3.85a1.11,1.11,0,0,0-.7.18.72.72,0,0,0-.22.58v2.52H4.5a1.82,1.82,0,0,0,1.36-.58,1.61,1.61,0,0,0,.53-1.19A1.36,1.36,0,0,0,6,164.49Zm.24,3.65a2.16,2.16,0,0,0-1.51-.58H2.93v3.08a.68.68,0,0,0,.22.58,1.26,1.26,0,0,0,.7.14H4.6a2.22,2.22,0,0,0,1.61-.59,1.76,1.76,0,0,0,.56-1.3A1.79,1.79,0,0,0,6.19,168.14Z" transform="translate(-0.84 -55.04)" fill="#221e1f"/>
  <path d="M102.53,171.3a2.64,2.64,0,0,1-1.81.69,2.9,2.9,0,0,1-2.29-1.08,4.62,4.62,0,0,1-1-3.1,4.74,4.74,0,0,1,.87-2.89,2.67,2.67,0,0,1,2.23-1.2,3.36,3.36,0,0,1,.63.06l.64.19.06,0,.79-.25.77,2-.17.11a5.72,5.72,0,0,0-1.07-1.22,2.55,2.55,0,0,0-1.62-.65,2,2,0,0,0-1.7,1.08,5.07,5.07,0,0,0-.67,2.73A4.09,4.09,0,0,0,99,170.4a2.39,2.39,0,0,0,2,1,2.06,2.06,0,0,0,1.29-.44,3.79,3.79,0,0,0,1.15-1.41l.21.09A4.29,4.29,0,0,1,102.53,171.3Z" transform="translate(-0.84 -55.04)" fill="#221e1f"/>
  <path d="M102.72,61.88a3.56,3.56,0,0,1-2.92,1.25h-3v-.28a1.38,1.38,0,0,0,.81-.18.73.73,0,0,0,.24-.62V56.23a.67.67,0,0,0-.24-.57,1.53,1.53,0,0,0-.81-.17v-.28h3a3.58,3.58,0,0,1,2.92,1.24,4.51,4.51,0,0,1,0,5.43Zm-.62-5.24a2.7,2.7,0,0,0-2.3-1.15h-.34a1.15,1.15,0,0,0-.68.17.74.74,0,0,0-.2.57v5.82a.85.85,0,0,0,.2.62,1,1,0,0,0,.68.18h.34a2.7,2.7,0,0,0,2.3-1.15,4.54,4.54,0,0,0,0-5.06Z" transform="translate(-0.84 -55.04)" fill="#221e1f"/>
  <path d="M54.38,63v-.27a1.24,1.24,0,0,0,.82-.21.66.66,0,0,0,.23-.56V55.5h-.12l-2.87,7.63h-.18l-2.83-7.47H49.3V62a.68.68,0,0,0,.22.58,1.44,1.44,0,0,0,.84.19V63H47.94v-.27a1.38,1.38,0,0,0,.83-.19A.66.66,0,0,0,49,62V56a.51.51,0,0,0-.24-.48,1.86,1.86,0,0,0-.81-.13v-.28h2l2.6,6.93,2.6-6.93h2v.28a1.85,1.85,0,0,0-.86.14.53.53,0,0,0-.2.47v6a.65.65,0,0,0,.22.56,1.29,1.29,0,0,0,.84.21V63Z" transform="translate(-0.84 -55.04)" fill="#221e1f"/>
  <circle cx="51.72" cy="10.38" r="1.42" fill="#231815"/>
  <path d="M178.32,136.84a2.15,2.15,0,0,0-.08.62c0,.28.14.42.35.42s.4-.18.56-.53a5.22,5.22,0,0,0,.27-.84v0l.06-.15a.24.24,0,0,1,.17,0s0,0,0,.08,0,.06,0,.12v0a3.83,3.83,0,0,1-.35,1,.93.93,0,0,1-1.65.13,1.19,1.19,0,0,1-.1-.94l1.4-5.49v0a.68.68,0,0,0,0-.25q0-.09-.24-.12h-.3l-.17,0c-.07,0-.1-.06-.1-.11a.18.18,0,0,1,.2-.23l.67-.08.68,0,.11,0a.12.12,0,0,1,0,.1Z" transform="translate(-0.84 -55.04)" fill="#221e1f"/>
  <polygon points="3.75 74.34 3.75 94.3 3.75 106.31 99.69 106.31 99.69 46.36 99.69 10.38 3.75 10.38 3.75 74.34" fill="none" stroke="#231815" stroke-linejoin="round" stroke-width="0.75"/>
  <g>
    <line x1="127.24" y1="74.34" x2="127.24" y2="74.96" fill="none" stroke="#231815" stroke-linejoin="round" stroke-width="0.4"/>
    <line x1="127.24" y1="75.89" x2="127.24" y2="93.22" fill="none" stroke="#231815" stroke-linejoin="round" stroke-width="0.4" stroke-dasharray="1.29 0.94"/>
    <line x1="127.24" y1="93.68" x2="127.24" y2="94.3" fill="none" stroke="#231815" stroke-linejoin="round" stroke-width="0.4"/>
  </g>
  <polyline points="223.18 46.36 223.18 10.38 127.24 10.38 127.24 74.34" fill="none" stroke="#231815" stroke-linejoin="round" stroke-width="0.75"/>
  <polygon points="117.65 87.13 175.21 10.38 223.18 46.36 127.24 94.32 117.65 87.13" fill="none" stroke="#231815" stroke-linejoin="round" stroke-width="0.75"/>
  <g>
    <path d="M172.74,135.85l-.56.27" transform="translate(-0.84 -55.04)" fill="none" stroke="#221e1f" stroke-miterlimit="10" stroke-width="0.4"/>
    <path d="M171.37,136.52c-18.75,9.11-35.58,14.16-42.25,13" transform="translate(-0.84 -55.04)" fill="none" stroke="#221e1f" stroke-miterlimit="10" stroke-width="0.4" stroke-dasharray="1.24 0.9"/>
    <path d="M128.68,149.41a4.57,4.57,0,0,1-.59-.17" transform="translate(-0.84 -55.04)" fill="none" stroke="#221e1f" stroke-miterlimit="10" stroke-width="0.4"/>
  </g>
  <g>
    <path d="M224.37,101.11a5.38,5.38,0,0,1-.25.56" transform="translate(-0.84 -55.04)" fill="none" stroke="#221e1f" stroke-miterlimit="10" stroke-width="0.4"/>
    <path d="M223.7,102.44c-3.81,6.28-19,17.13-38.8,27.31" transform="translate(-0.84 -55.04)" fill="none" stroke="#221e1f" stroke-miterlimit="10" stroke-width="0.4" stroke-dasharray="1.22 0.88"/>
    <path d="M184.5,130l-.56.29" transform="translate(-0.84 -55.04)" fill="none" stroke="#221e1f" stroke-miterlimit="10" stroke-width="0.4"/>
  </g>
  <path d="M116.56,115.24l-.1-.12,1.5-1.74h-9.28V113H118l-1.54-1.66.06-.13,3.15,2Z" transform="translate(-0.84 -55.04)"/>
</svg>
