<?xml version="1.0" encoding="UTF-8"?>
<svg id="_레이어_1" data-name="레이어 1" xmlns="http://www.w3.org/2000/svg" width="127.38" height="104.13" viewBox="0 0 127.38 104.13">
  <polyline points="120.88 94.63 120.88 9.59 7.5 9.59 7.5 94.63 120.88 94.63 96.08 9.59 7.5 9.59 32.3 94.63" fill="none" stroke="#231815" stroke-linejoin="round" stroke-width=".75"/>
  <line x1="96.08" y1="9.59" x2="32.3" y2="94.63" fill="none" stroke="#231815" stroke-miterlimit="10" stroke-width=".4"/>
  <polyline points="7.5 86.13 16 86.13 16 94.63" fill="none" stroke="#221e1f" stroke-miterlimit="10" stroke-width=".4"/>
  <path d="M4.69,8.09v-.28c.48,0,.79-.05.93-.14.15-.11.17-.31.06-.61l-.65-1.84H1.98l-.51,1.59c-.14.4-.14.67,0,.81.13.13.44.19.94.19v.28H0v-.28c.31,0,.54-.06.68-.19.15-.14.31-.46.49-.95L3.36.27l.61-.27,2.43,7.03c.09.29.23.5.4.61.17.11.4.17.7.17v.28h-2.81ZM3.49.81l-1.4,4.09h2.83L3.49.81Z" fill="#221e1f"/>
  <path d="M6.22,103.25c-.51.44-1.21.67-2.09.67H.59v-.28c.42,0,.7-.05.83-.14.14-.09.22-.29.22-.58v-5.88c0-.27-.07-.47-.22-.58-.16-.12-.44-.18-.83-.18v-.28h3.33c.82,0,1.47.18,1.96.53.46.34.69.78.69,1.33,0,.41-.13.76-.38,1.04-.29.32-.74.56-1.35.72.72.14,1.25.41,1.6.79.32.35.48.8.48,1.34,0,.59-.23,1.1-.69,1.5ZM5.35,96.77c-.35-.33-.83-.49-1.45-.49h-.65c-.32,0-.56.06-.7.18-.14.12-.22.32-.22.58v2.53h1.57c.53,0,.98-.19,1.36-.58.35-.36.53-.76.53-1.19,0-.39-.15-.73-.44-1.02ZM5.59,100.43c-.41-.39-.92-.58-1.51-.58h-1.74v3.07c0,.29.07.48.22.58.12.09.36.14.7.14h.75c.67,0,1.21-.2,1.61-.59.38-.36.56-.79.56-1.3s-.19-.95-.58-1.32Z" fill="#221e1f"/>
  <path d="M125.98,103.41c-.52.46-1.12.69-1.81.69-.91,0-1.67-.36-2.29-1.08-.66-.78-.99-1.81-.99-3.1,0-1.14.29-2.1.86-2.89.59-.8,1.34-1.2,2.24-1.2.21,0,.42.02.63.06.13.04.34.1.64.19l.06.03.79-.25.77,2-.17.11c-.35-.51-.7-.91-1.07-1.21-.53-.44-1.07-.66-1.62-.66-.68,0-1.24.36-1.7,1.09-.45.72-.67,1.63-.67,2.73,0,1.03.27,1.9.81,2.59.53.69,1.19,1.04,1.98,1.04.47,0,.9-.15,1.3-.44.43-.31.81-.78,1.15-1.41l.21.09c-.28.69-.64,1.23-1.09,1.62Z" fill="#221e1f"/>
  <path d="M126.47,6.76c-.68.83-1.66,1.25-2.92,1.25h-2.97v-.28c.38,0,.65-.06.81-.18.16-.12.24-.33.24-.62V1.11c0-.26-.08-.45-.24-.57-.17-.12-.44-.17-.81-.17V.09h2.97c1.26,0,2.23.41,2.92,1.24.61.72.91,1.62.91,2.72s-.3,2-.91,2.72ZM125.86,1.52c-.57-.77-1.34-1.15-2.3-1.15h-.33c-.31,0-.54.06-.68.17-.14.12-.21.31-.21.57v5.81c0,.29.07.49.21.62.14.12.36.18.68.18h.33c.97,0,1.73-.38,2.3-1.15.51-.69.77-1.53.77-2.54s-.26-1.84-.77-2.53Z" fill="#221e1f"/>
  <path d="M98.52,8.01h-5.59v-.28c.38,0,.64-.06.8-.18.17-.11.25-.31.25-.58V1.07c0-.26-.08-.44-.25-.55-.16-.11-.42-.16-.8-.16V.09h5.31l.78,1.88-.17.11-.25-.33c-.32-.44-.6-.76-.85-.93-.42-.29-.96-.44-1.6-.44h-.59c-.29,0-.51.05-.65.16-.14.11-.22.3-.22.55v2.64h1.18c.4,0,.7-.1.9-.3.21-.21.31-.57.31-1.07h.27v3.09h-.27c0-.48-.1-.84-.31-1.07-.2-.22-.5-.33-.9-.33h-1.18v2.93c0,.26.07.46.22.58.14.12.36.18.67.18h.55c.63,0,1.17-.14,1.62-.42.43-.26.88-.71,1.33-1.33l.21.1-.76,1.93Z" fill="#221e1f"/>
  <path d="M35.31,98.13c-.32-.46-.64-.82-.98-1.08-.51-.37-1.08-.56-1.71-.56h-.7c-.26,0-.45.06-.58.18-.12.11-.18.29-.18.53v2.63h1.16c.42,0,.72-.07.9-.21.23-.19.35-.55.35-1.11h.28v3.08h-.28c0-.54-.12-.92-.36-1.16-.2-.21-.5-.31-.91-.31h-1.13v2.92c0,.32.08.53.23.64.16.11.46.16.91.16v.28h-2.89v-.28c.43,0,.72-.05.85-.16.13-.11.19-.32.19-.64v-5.85c0-.25-.07-.43-.19-.53-.16-.12-.44-.18-.85-.18v-.28h5.27l.8,1.81-.16.11Z" fill="#221e1f"/>
  <g>
    <line x1="7.5" y1="9.59" x2="8" y2="9.96" fill="none" stroke="#231815" stroke-linejoin="round" stroke-width=".4"/>
    <line x1="8.72" y1="10.5" x2="120.03" y2="93.99" fill="none" stroke="#231815" stroke-dasharray="1.24 .9" stroke-linejoin="round" stroke-width=".4"/>
    <line x1="120.39" y1="94.26" x2="120.88" y2="94.63" fill="none" stroke="#231815" stroke-linejoin="round" stroke-width=".4"/>
  </g>
  <polyline points="59.08 58.88 65.89 63.99 70.99 57.18" fill="none" stroke="#221e1f" stroke-miterlimit="10" stroke-width=".4"/>
  <path d="M65.61,45.51c-.13.12-.19.32-.19.6v2.24h-.5c-.14,0-.3.02-.48.05-.11.03-.27.08-.48.14-.24.08-.43.13-.56.16-.22.05-.42.08-.61.08-.97,0-1.75-.35-2.34-1.05-.61-.74-.92-1.76-.92-3.07,0-1.2.32-2.2.95-2.98.63-.77,1.42-1.16,2.37-1.16.19,0,.42.03.69.08.22.04.4.08.55.14l.9-.21.76,1.98-.17.08c-.41-.52-.78-.91-1.1-1.17-.51-.4-1.03-.6-1.57-.6-.71,0-1.32.35-1.83,1.06-.53.74-.79,1.65-.79,2.74,0,1.23.27,2.2.81,2.93.48.64,1.05.97,1.7.97.46,0,.9-.18,1.32-.53.41-.34.62-.68.62-1.02v-.84c0-.29-.08-.49-.25-.6-.18-.13-.51-.19-.98-.19v-.29h2.84v.29c-.35,0-.6.06-.74.19Z" fill="#221e1f"/>
</svg>