<svg id="레이어_1" data-name="레이어 1" xmlns="http://www.w3.org/2000/svg" width="150.49" height="130.82" viewBox="0 0 150.49 130.82">
  <g>
    <path d="M120.77,174l.62,0" transform="translate(-38.14 -46.96)" fill="none" stroke="#221e1f" stroke-miterlimit="10" stroke-width="0.4"/>
    <path d="M122.29,174c28.66-1,51.93-6.81,58.82-14.45" transform="translate(-38.14 -46.96)" fill="none" stroke="#221e1f" stroke-miterlimit="10" stroke-width="0.4" stroke-dasharray="1.24 0.9"/>
    <path d="M181.4,159.18a5.85,5.85,0,0,0,.38-.49" transform="translate(-38.14 -46.96)" fill="none" stroke="#221e1f" stroke-miterlimit="10" stroke-width="0.4"/>
  </g>
  <g>
    <path d="M45.72,158.66c.12.17.25.33.38.49" transform="translate(-38.14 -46.96)" fill="none" stroke="#221e1f" stroke-miterlimit="10" stroke-width="0.4"/>
    <path d="M46.7,159.82c7.26,7.53,30.49,13.24,59,14.16" transform="translate(-38.14 -46.96)" fill="none" stroke="#221e1f" stroke-miterlimit="10" stroke-width="0.4" stroke-dasharray="1.24 0.9"/>
    <path d="M106.13,174l.62,0" transform="translate(-38.14 -46.96)" fill="none" stroke="#221e1f" stroke-miterlimit="10" stroke-width="0.4"/>
  </g>
  <g>
    <path d="M143.91,133.63c0-.21.07-.42.11-.62" transform="translate(-38.14 -46.96)" fill="none" stroke="#221e1f" stroke-miterlimit="10" stroke-width="0.4"/>
    <path d="M144.18,132.19c.66-3.14,1.64-5.58,2.81-6.87" transform="translate(-38.14 -46.96)" fill="none" stroke="#221e1f" stroke-miterlimit="10" stroke-width="0.4" stroke-dasharray="1.14 0.83"/>
    <path d="M147.27,125a2.81,2.81,0,0,1,.49-.38" transform="translate(-38.14 -46.96)" fill="none" stroke="#221e1f" stroke-miterlimit="10" stroke-width="0.4"/>
  </g>
  <g>
    <path d="M147.77,158.53a2.81,2.81,0,0,1-.49-.38" transform="translate(-38.14 -46.96)" fill="none" stroke="#221e1f" stroke-miterlimit="10" stroke-width="0.4"/>
    <path d="M146.67,157.47c-1.16-1.54-2.12-4.27-2.72-7.68" transform="translate(-38.14 -46.96)" fill="none" stroke="#221e1f" stroke-miterlimit="10" stroke-width="0.4" stroke-dasharray="1.26 0.91"/>
    <path d="M143.87,149.33l-.09-.61" transform="translate(-38.14 -46.96)" fill="none" stroke="#221e1f" stroke-miterlimit="10" stroke-width="0.4"/>
  </g>
  <polyline points="143.64 106.03 137.97 106.03 137.97 111.7" fill="none" stroke="#221e1f" stroke-miterlimit="10" stroke-width="0.4"/>
  <path d="M183.38,55.05v-.27a2,2,0,0,0,.93-.14c.15-.11.17-.32.06-.62l-.65-1.83h-3.06l-.5,1.59c-.14.4-.14.67,0,.8a1.45,1.45,0,0,0,.94.2v.27h-2.41v-.27a1,1,0,0,0,.68-.2,2.61,2.61,0,0,0,.48-.94l2.2-6.41.6-.27,2.43,7a1.14,1.14,0,0,0,.4.61,1.2,1.2,0,0,0,.71.18v.27Zm-1.2-7.28-1.41,4.09h2.83Z" transform="translate(-38.14 -46.96)" fill="#221e1f"/>
  <path d="M43.77,163.08a3,3,0,0,1-2.08.67H38.14v-.28a1.73,1.73,0,0,0,.84-.14c.14-.09.21-.28.21-.58v-5.88a.72.72,0,0,0-.21-.58,1.45,1.45,0,0,0-.84-.18v-.28h3.33a3.3,3.3,0,0,1,2,.53,1.56,1.56,0,0,1,.69,1.33,1.51,1.51,0,0,1-.38,1,2.7,2.7,0,0,1-1.35.72,2.91,2.91,0,0,1,1.6.79,2,2,0,0,1-.22,2.84Zm-.86-6.48a2,2,0,0,0-1.45-.49h-.65a1.09,1.09,0,0,0-.7.18.74.74,0,0,0-.22.58v2.53h1.57a1.86,1.86,0,0,0,1.36-.58,1.69,1.69,0,0,0,.53-1.2A1.4,1.4,0,0,0,42.91,156.6Zm.24,3.66a2.12,2.12,0,0,0-1.52-.58H39.89v3.07a.67.67,0,0,0,.22.58,1.26,1.26,0,0,0,.7.14h.75a2.23,2.23,0,0,0,1.61-.59,1.75,1.75,0,0,0,.56-1.3A1.79,1.79,0,0,0,43.15,160.26Z" transform="translate(-38.14 -46.96)" fill="#221e1f"/>
  <path d="M187.54,165a2.67,2.67,0,0,1-1.82.69,2.9,2.9,0,0,1-2.29-1.08,4.65,4.65,0,0,1-1-3.1,4.8,4.8,0,0,1,.86-2.89,2.69,2.69,0,0,1,2.24-1.2,3.18,3.18,0,0,1,.62.06l.64.19.07,0,.79-.25.76,2-.17.11a5.72,5.72,0,0,0-1.07-1.22,2.57,2.57,0,0,0-1.62-.65,2,2,0,0,0-1.7,1.08,5.21,5.21,0,0,0-.67,2.73,4.09,4.09,0,0,0,.81,2.59,2.41,2.41,0,0,0,2,1,2.1,2.1,0,0,0,1.3-.44,3.83,3.83,0,0,0,1.14-1.4l.21.08A4.27,4.27,0,0,1,187.54,165Z" transform="translate(-38.14 -46.96)" fill="#221e1f"/>
  <line x1="109.62" y1="77.69" x2="109.62" y2="111.62" fill="none" stroke="#221e1f" stroke-miterlimit="10" stroke-width="0.4"/>
  <g>
    <line x1="7.58" y1="111.62" x2="143.64" y2="111.62" fill="none" stroke="#221e1f" stroke-linejoin="round" stroke-width="0.75"/>
    <line x1="143.64" y1="111.73" x2="143.64" y2="9.69" fill="none" stroke="#221e1f" stroke-linejoin="round" stroke-width="0.75"/>
    <line x1="143.64" y1="9.69" x2="7.58" y2="111.62" fill="none" stroke="#221e1f" stroke-linejoin="round" stroke-width="0.75"/>
    <circle cx="109.62" cy="77.61" r="34.02" fill="none" stroke="#221e1f" stroke-linejoin="round" stroke-width="0.75"/>
  </g>
  <path d="M144.69,144h-4.1v-.26l2.25-2.51c.16-.2.31-.38.43-.55a4.87,4.87,0,0,0,.37-.6,3.92,3.92,0,0,0,.25-.63,2.19,2.19,0,0,0,0-1.31,1.41,1.41,0,0,0-.27-.58,1.46,1.46,0,0,0-.5-.43,1.41,1.41,0,0,0-.62-.13,1.5,1.5,0,0,0-.93.3,1.61,1.61,0,0,0-.56.82h.14a.6.6,0,0,1,.42.15.58.58,0,0,1,.17.43.57.57,0,0,1-.16.41.58.58,0,0,1-.41.17.54.54,0,0,1-.44-.18.68.68,0,0,1-.16-.44,2,2,0,0,1,.16-.75,1.93,1.93,0,0,1,.41-.61,1.87,1.87,0,0,1,.67-.49,2.25,2.25,0,0,1,.82-.15,2.93,2.93,0,0,1,.9.14,2.21,2.21,0,0,1,.78.46,2.1,2.1,0,0,1,.5.69,2.2,2.2,0,0,1,.17.86,2.11,2.11,0,0,1-.13.77,2.2,2.2,0,0,1-.41.67,8.47,8.47,0,0,1-.6.6l-.6.57-.63.6-1.17,1.14H144a1,1,0,0,0,.42-.08.75.75,0,0,0,.18-.35l.09-.46,0-.18H145Z" transform="translate(-38.14 -46.96)"/>
  <path d="M115.67,176.51a2,2,0,0,1-.49.67,2.4,2.4,0,0,1-.76.44,2.35,2.35,0,0,1-.87.16,2.51,2.51,0,0,1-.82-.13,2.19,2.19,0,0,1-.75-.37,1.83,1.83,0,0,1-.52-.63,1.71,1.71,0,0,1-.18-.77,1.8,1.8,0,0,1,.55-1.31,2.88,2.88,0,0,1,.49-.41,3.17,3.17,0,0,1,.55-.31l-.13-.09a4.41,4.41,0,0,1-.52-.36,1.7,1.7,0,0,1-.43-.53,1.55,1.55,0,0,1-.16-.41,1.42,1.42,0,0,1-.06-.42,1.72,1.72,0,0,1,.15-.72,1.57,1.57,0,0,1,.45-.58,1.8,1.8,0,0,1,.64-.41,2.15,2.15,0,0,1,.77-.13,2.45,2.45,0,0,1,.71.11,2,2,0,0,1,.64.33,1.43,1.43,0,0,1,.46.52,1.47,1.47,0,0,1,.17.69,1.24,1.24,0,0,1-.1.5,1.43,1.43,0,0,1-.27.46,4.28,4.28,0,0,1-.44.4,3.44,3.44,0,0,1-.53.34l.45.28a3.23,3.23,0,0,1,.64.49,1.75,1.75,0,0,1,.43.73,1.77,1.77,0,0,1,.08.33,1.53,1.53,0,0,1,0,.3A2,2,0,0,1,115.67,176.51Zm-.46-.85a1.07,1.07,0,0,0-.2-.36,2.56,2.56,0,0,0-.49-.4c-.12-.09-.33-.22-.6-.38l-.2-.13-.61-.38a3.68,3.68,0,0,0-.6.41,1.59,1.59,0,0,0-.39.48,2.05,2.05,0,0,0-.22.48,1.68,1.68,0,0,0-.07.5,1.5,1.5,0,0,0,.13.62,1.55,1.55,0,0,0,.38.51,1.63,1.63,0,0,0,.57.34,1.67,1.67,0,0,0,.67.13,2,2,0,0,0,.62-.11,2.16,2.16,0,0,0,.57-.28,1.35,1.35,0,0,0,.38-.45,1.06,1.06,0,0,0,.15-.55A1.07,1.07,0,0,0,115.21,175.66ZM115,171.3a1.1,1.1,0,0,0-.34-.43,1.32,1.32,0,0,0-.5-.29,1.56,1.56,0,0,0-.57-.1,2.42,2.42,0,0,0-.54.06,1.54,1.54,0,0,0-.48.24,1,1,0,0,0-.34.37.85.85,0,0,0-.13.47.88.88,0,0,0,.16.51,1.16,1.16,0,0,0,.39.37l1.38.89a4.59,4.59,0,0,0,.44-.33,2.79,2.79,0,0,0,.34-.35,1.44,1.44,0,0,0,.23-.42,1.31,1.31,0,0,0,.07-.44A1.23,1.23,0,0,0,115,171.3Z" transform="translate(-38.14 -46.96)"/>
</svg>
