<?xml version="1.0" encoding="UTF-8"?>
<svg id="_레이어_1" data-name="레이어 1" xmlns="http://www.w3.org/2000/svg" width="140.87" height="114.13" viewBox="0 0 140.87 114.13">
  <polyline points="120.88 104.62 120.88 19.58 7.5 19.58 7.5 104.62 120.88 104.62 96.08 19.58 7.5 19.58 32.3 104.62" fill="none" stroke="#231815" stroke-linejoin="round" stroke-width=".75"/>
  <line x1="96.08" y1="19.58" x2="32.3" y2="104.62" fill="none" stroke="#231815" stroke-miterlimit="10" stroke-width=".4"/>
  <polyline points="7.5 96.12 16 96.12 16 104.62" fill="none" stroke="#221e1f" stroke-miterlimit="10" stroke-width=".4"/>
  <path d="M4.69,18.09v-.28c.48,0,.79-.05.93-.14.15-.11.17-.31.06-.61l-.65-1.84H1.98l-.51,1.59c-.14.4-.14.67,0,.81.13.13.44.19.94.19v.28H0v-.28c.31,0,.54-.06.68-.19.15-.14.31-.46.49-.95l2.19-6.41.61-.27,2.43,7.03c.09.29.23.5.4.61.17.11.4.17.7.17v.28h-2.81ZM3.49,10.8l-1.4,4.09h2.83l-1.43-4.09Z" fill="#221e1f"/>
  <path d="M6.22,113.25c-.51.44-1.21.67-2.09.67H.59v-.28c.42,0,.7-.05.83-.14.14-.09.22-.29.22-.58v-5.88c0-.27-.07-.47-.22-.58-.16-.12-.44-.18-.83-.18v-.28h3.33c.82,0,1.47.18,1.96.53.46.34.69.78.69,1.33,0,.41-.13.76-.38,1.04-.29.32-.74.56-1.35.72.72.14,1.25.41,1.6.79.32.35.48.8.48,1.34,0,.59-.23,1.1-.69,1.5ZM5.35,106.77c-.35-.33-.83-.49-1.45-.49h-.65c-.32,0-.56.06-.7.18-.14.12-.22.32-.22.58v2.53h1.57c.53,0,.98-.19,1.36-.58.35-.36.53-.76.53-1.19,0-.39-.15-.73-.44-1.02ZM5.59,110.42c-.41-.39-.92-.58-1.51-.58h-1.74v3.07c0,.29.07.48.22.58.12.09.36.14.7.14h.75c.67,0,1.21-.2,1.61-.59.38-.36.56-.79.56-1.3s-.19-.95-.58-1.32Z" fill="#221e1f"/>
  <path d="M125.98,113.4c-.52.46-1.12.69-1.81.69-.91,0-1.67-.36-2.29-1.08-.66-.78-.99-1.81-.99-3.1,0-1.14.29-2.1.86-2.89.59-.8,1.34-1.2,2.24-1.2.21,0,.42.02.63.06.13.04.34.1.64.19l.06.03.79-.25.77,2-.17.11c-.35-.51-.7-.91-1.07-1.21-.53-.44-1.07-.66-1.62-.66-.68,0-1.24.36-1.7,1.09-.45.72-.67,1.63-.67,2.73,0,1.03.27,1.9.81,2.59.53.69,1.19,1.04,1.98,1.04.47,0,.9-.15,1.3-.44.43-.31.81-.78,1.15-1.41l.21.09c-.28.69-.64,1.23-1.09,1.62Z" fill="#221e1f"/>
  <path d="M126.47,16.75c-.68.83-1.66,1.25-2.92,1.25h-2.97v-.28c.38,0,.65-.06.81-.18.16-.12.24-.33.24-.62v-5.81c0-.26-.08-.45-.24-.57-.17-.12-.44-.17-.81-.17v-.28h2.97c1.26,0,2.23.41,2.92,1.24.61.72.91,1.62.91,2.72s-.3,2-.91,2.72ZM125.86,11.51c-.57-.77-1.34-1.15-2.3-1.15h-.33c-.31,0-.54.06-.68.17-.14.12-.21.31-.21.57v5.81c0,.29.07.49.21.62.14.12.36.18.68.18h.33c.97,0,1.73-.38,2.3-1.15.51-.69.77-1.53.77-2.54s-.26-1.84-.77-2.53Z" fill="#221e1f"/>
  <path d="M98.52,18h-5.59v-.28c.38,0,.64-.06.8-.18.17-.11.25-.31.25-.58v-5.89c0-.26-.08-.44-.25-.55-.16-.11-.42-.16-.8-.16v-.28h5.31l.78,1.88-.17.11-.25-.33c-.32-.44-.6-.76-.85-.93-.42-.29-.96-.44-1.6-.44h-.59c-.29,0-.51.05-.65.16-.14.11-.22.3-.22.55v2.64h1.18c.4,0,.7-.1.9-.3.21-.21.31-.57.31-1.07h.27v3.09h-.27c0-.48-.1-.84-.31-1.07-.2-.22-.5-.33-.9-.33h-1.18v2.93c0,.26.07.46.22.58.14.12.36.18.67.18h.55c.63,0,1.17-.14,1.62-.42.43-.26.88-.71,1.33-1.33l.21.1-.76,1.93Z" fill="#221e1f"/>
  <path d="M35.31,108.12c-.32-.46-.64-.82-.98-1.08-.51-.37-1.08-.56-1.71-.56h-.7c-.26,0-.45.06-.58.18-.12.11-.18.29-.18.53v2.63h1.16c.42,0,.72-.07.9-.21.23-.19.35-.55.35-1.11h.28v3.08h-.28c0-.54-.12-.92-.36-1.16-.2-.21-.5-.31-.91-.31h-1.13v2.92c0,.32.08.53.23.64.16.11.46.16.91.16v.28h-2.89v-.28c.43,0,.72-.05.85-.16.13-.11.19-.32.19-.64v-5.85c0-.25-.07-.43-.19-.53-.16-.12-.44-.18-.85-.18v-.28h5.27l.8,1.81-.16.11Z" fill="#221e1f"/>
  <g>
    <line x1="7.5" y1="19.58" x2="8" y2="19.96" fill="none" stroke="#231815" stroke-linejoin="round" stroke-width=".4"/>
    <line x1="8.72" y1="20.5" x2="120.03" y2="103.98" fill="none" stroke="#231815" stroke-dasharray="1.24 .9" stroke-linejoin="round" stroke-width=".4"/>
    <line x1="120.39" y1="104.25" x2="120.88" y2="104.62" fill="none" stroke="#231815" stroke-linejoin="round" stroke-width=".4"/>
  </g>
  <polyline points="59.08 68.88 65.89 73.98 70.99 67.18" fill="none" stroke="#221e1f" stroke-miterlimit="10" stroke-width=".4"/>
  <path d="M65.61,55.5c-.13.12-.19.32-.19.6v2.24h-.5c-.14,0-.3.02-.48.05-.11.03-.27.08-.48.14-.24.08-.43.13-.56.16-.22.05-.42.08-.61.08-.97,0-1.75-.35-2.34-1.05-.61-.74-.92-1.76-.92-3.07,0-1.2.32-2.2.95-2.98.63-.77,1.42-1.16,2.37-1.16.19,0,.42.03.69.08.22.04.4.08.55.14l.9-.21.76,1.98-.17.08c-.41-.52-.78-.91-1.1-1.17-.51-.4-1.03-.6-1.57-.6-.71,0-1.32.35-1.83,1.06-.53.74-.79,1.65-.79,2.74,0,1.23.27,2.2.81,2.93.48.64,1.05.97,1.7.97.46,0,.9-.18,1.32-.53.41-.34.62-.68.62-1.02v-.84c0-.29-.08-.49-.25-.6-.18-.13-.51-.19-.98-.19v-.29h2.84v.29c-.35,0-.6.06-.74.19Z" fill="#221e1f"/>
  <g>
    <path d="M103.24,77.45c.16.13.32.27.47.4" fill="none" stroke="#221e1f" stroke-miterlimit="10" stroke-width=".4"/>
    <path d="M104.38,78.43c10.35,8.99,16.74,18.79,16.52,25.13" fill="none" stroke="#221e1f" stroke-dasharray="1.21 .88" stroke-miterlimit="10" stroke-width=".4"/>
    <path d="M120.87,103.98c-.02.21-.04.41-.08.61" fill="none" stroke="#221e1f" stroke-miterlimit="10" stroke-width=".4"/>
  </g>
  <g>
    <path d="M64.13,62.12c.18-.09.37-.17.57-.25" fill="none" stroke="#221e1f" stroke-miterlimit="10" stroke-width=".4"/>
    <path d="M65.57,61.59c5.78-1.59,15.84,1.36,26.42,7.78" fill="none" stroke="#221e1f" stroke-dasharray="1.27 .93" stroke-miterlimit="10" stroke-width=".4"/>
    <path d="M92.39,69.61c.18.11.35.22.53.33" fill="none" stroke="#221e1f" stroke-miterlimit="10" stroke-width=".4"/>
  </g>
  <g>
    <path d="M24.09,45.38c-.16-.14-.31-.27-.47-.41" fill="none" stroke="#221e1f" stroke-miterlimit="10" stroke-width=".4"/>
    <path d="M22.95,44.38c-9.71-8.72-15.64-18.05-15.44-24.16" fill="none" stroke="#221e1f" stroke-dasharray="1.23 .9" stroke-miterlimit="10" stroke-width=".4"/>
    <path d="M7.53,19.77c.02-.21.04-.41.08-.61" fill="none" stroke="#221e1f" stroke-miterlimit="10" stroke-width=".4"/>
  </g>
  <g>
    <path d="M64.27,61.63c-.18.09-.37.17-.57.25" fill="none" stroke="#221e1f" stroke-miterlimit="10" stroke-width=".4"/>
    <path d="M62.87,62.16c-5.88,1.64-16.25-1.45-27.08-8.15" fill="none" stroke="#221e1f" stroke-dasharray="1.21 .88" stroke-miterlimit="10" stroke-width=".4"/>
    <path d="M35.41,53.77c-.17-.11-.35-.22-.52-.33" fill="none" stroke="#221e1f" stroke-miterlimit="10" stroke-width=".4"/>
  </g>
  <g>
    <path d="M96.23,76.98h-1.78c-.33,0-.63.02-.89.04v-.34h.53c.31,0,.51-.02.61-.08.16-.07.24-.22.24-.45v-5.69c-.17.08-.37.14-.59.19-.19.04-.4.08-.61.1h-.24v-.34c.06,0,.12,0,.16-.01.06,0,.13,0,.2-.01.19-.01.37-.05.56-.1.18-.04.35-.1.53-.18.1-.06.2-.12.29-.18.09-.07.18-.15.26-.23h.26v6.45c0,.24.08.39.24.45.1.05.31.08.62.08h.52v.34c-.27-.02-.56-.04-.89-.04Z" fill="#221e1f"/>
    <path d="M102.92,74.77c-.06.46-.17.86-.33,1.21-.19.4-.44.71-.77.93-.33.23-.71.34-1.14.34-.27,0-.52-.05-.76-.15-.24-.09-.46-.23-.64-.41-.36-.34-.61-.83-.75-1.49-.1-.46-.15-1.03-.15-1.71,0-.64.04-1.18.13-1.64.13-.64.35-1.14.68-1.49.2-.23.43-.4.68-.5s.53-.16.84-.16c.27,0,.53.05.77.15.23.1.45.25.66.44.34.33.59.83.73,1.49.1.47.15,1.04.15,1.72,0,.51-.03.93-.08,1.27ZM102.07,72.28c-.01-.36-.04-.66-.08-.89-.06-.37-.15-.64-.27-.82-.13-.2-.28-.35-.45-.46-.19-.11-.39-.17-.6-.17-.23,0-.44.06-.62.17-.17.1-.31.25-.43.46-.13.19-.22.48-.27.85-.04.24-.06.54-.06.89,0,.36-.01.74-.01,1.13s0,.74.01,1.12c0,.32.02.62.06.91.06.37.15.67.27.88.11.2.26.36.43.48.19.13.4.19.62.19.24,0,.45-.07.63-.2.18-.12.33-.29.45-.51.1-.2.18-.49.23-.86.03-.23.05-.53.08-.89.01-.37.02-.75.02-1.15,0-.37,0-.75-.01-1.15v.02Z" fill="#221e1f"/>
  </g>
  <g>
    <path d="M26.91,53.5h-1.78c-.33,0-.63.02-.89.04v-.34h.53c.31,0,.51-.02.61-.08.16-.07.24-.22.24-.45v-5.69c-.17.08-.37.14-.59.19-.19.04-.4.08-.61.1h-.24v-.34c.06,0,.12,0,.16-.01.06,0,.13,0,.2-.01.19-.01.37-.05.56-.1.18-.04.35-.1.53-.18.1-.06.2-.12.29-.18.09-.07.18-.15.26-.23h.26v6.45c0,.24.08.39.24.45.1.05.31.08.62.08h.52v.34c-.27-.02-.56-.04-.89-.04Z" fill="#221e1f"/>
    <path d="M33.6,51.29c-.06.46-.17.86-.33,1.21-.19.4-.44.71-.77.93-.33.23-.71.34-1.14.34-.27,0-.52-.05-.76-.15-.24-.09-.46-.23-.64-.41-.36-.34-.61-.83-.75-1.49-.1-.46-.15-1.03-.15-1.71,0-.64.04-1.18.13-1.64.13-.64.35-1.14.68-1.49.2-.23.43-.4.68-.5s.53-.16.84-.16c.27,0,.53.05.77.15.23.1.45.25.66.44.34.33.59.83.73,1.49.1.47.15,1.04.15,1.72,0,.51-.03.93-.08,1.27ZM32.75,48.8c-.01-.36-.04-.65-.08-.89-.06-.36-.15-.64-.27-.82-.13-.2-.28-.35-.45-.46-.19-.11-.39-.17-.6-.17-.23,0-.44.06-.62.17-.17.1-.31.25-.43.46-.13.19-.22.48-.27.85-.04.24-.06.54-.06.89,0,.36-.01.74-.01,1.13s0,.74.01,1.12c0,.31.02.62.06.91.06.37.15.67.27.88.11.2.26.36.43.48.19.13.4.19.62.19.24,0,.45-.07.63-.2.18-.12.33-.29.45-.51.1-.2.18-.49.23-.86.03-.23.05-.53.08-.89.01-.37.02-.75.02-1.15,0-.37,0-.75-.01-1.15v.02Z" fill="#221e1f"/>
  </g>
  <g>
    <path d="M70.62,5.39c.21,0,.41.01.62.02" fill="none" stroke="#221e1f" stroke-miterlimit="10" stroke-width=".4"/>
    <path d="M72.14,5.45c23.42,1,42.37,6.37,48.13,13.38" fill="none" stroke="#221e1f" stroke-dasharray="1.24 .9" stroke-miterlimit="10" stroke-width=".4"/>
    <path d="M120.55,19.18c.13.17.24.33.35.5" fill="none" stroke="#221e1f" stroke-miterlimit="10" stroke-width=".4"/>
  </g>
  <g>
    <path d="M7.5,19.71c.11-.17.23-.34.35-.5" fill="none" stroke="#221e1f" stroke-miterlimit="10" stroke-width=".4"/>
    <path d="M8.41,18.52c6.2-7.03,25.7-12.34,49.54-13.14" fill="none" stroke="#221e1f" stroke-dasharray="1.22 .89" stroke-miterlimit="10" stroke-width=".4"/>
    <path d="M58.4,5.37c.21,0,.41-.01.62-.02" fill="none" stroke="#221e1f" stroke-miterlimit="10" stroke-width=".4"/>
  </g>
  <g>
    <path d="M135.22,57.2c0-.21-.02-.41-.03-.62" fill="none" stroke="#221e1f" stroke-miterlimit="10" stroke-width=".4"/>
    <path d="M135.14,55.66c-1.07-17.26-6.36-31.21-13.27-35.55" fill="none" stroke="#221e1f" stroke-dasharray="1.27 .92" stroke-miterlimit="10" stroke-width=".4"/>
    <path d="M121.48,19.87c-.18-.1-.36-.2-.55-.29" fill="none" stroke="#221e1f" stroke-miterlimit="10" stroke-width=".4"/>
  </g>
  <g>
    <path d="M120.9,104.6c.18-.09.37-.19.55-.29" fill="none" stroke="#221e1f" stroke-miterlimit="10" stroke-width=".4"/>
    <path d="M122.23,103.82c6.79-4.64,11.95-18.6,12.94-35.77" fill="none" stroke="#221e1f" stroke-dasharray="1.27 .92" stroke-miterlimit="10" stroke-width=".4"/>
    <path d="M135.19,67.59c.01-.21.02-.41.03-.62" fill="none" stroke="#221e1f" stroke-miterlimit="10" stroke-width=".4"/>
  </g>
  <g>
    <path d="M133.63,65.49h-1.78c-.33,0-.63.02-.89.04v-.34h.53c.31,0,.51-.02.61-.08.16-.07.24-.22.24-.45v-5.69c-.17.08-.37.14-.59.19-.19.04-.4.08-.61.1h-.24v-.34c.06,0,.12,0,.16-.01.06,0,.13,0,.2-.01.19-.01.37-.05.56-.1.18-.04.35-.1.53-.18.1-.06.2-.12.29-.18.09-.07.18-.15.26-.23h.26v6.45c0,.24.08.39.24.45.1.05.31.08.62.08h.52v.34c-.27-.02-.56-.04-.89-.04Z" fill="#221e1f"/>
    <path d="M139.99,65.53h-4.11v-.26l2.25-2.5c.17-.2.31-.38.43-.55.14-.2.27-.4.38-.6.11-.21.19-.42.25-.62.07-.23.11-.45.11-.66,0-.24-.03-.46-.09-.66-.06-.22-.15-.42-.27-.58-.14-.19-.31-.33-.51-.43-.19-.09-.39-.13-.62-.13-.36,0-.67.1-.94.3-.26.2-.45.47-.56.82h.14c.17-.01.31.04.42.14.12.11.17.25.17.43,0,.16-.05.29-.16.41-.12.11-.25.17-.41.17-.19,0-.33-.06-.44-.18-.1-.11-.15-.26-.15-.44,0-.25.05-.5.15-.74.1-.23.24-.43.41-.61.19-.22.42-.38.68-.48.25-.1.53-.15.82-.15.32,0,.62.05.9.14.3.1.56.25.79.45.22.2.38.43.5.7.12.26.17.54.17.85,0,.29-.04.54-.13.77-.09.22-.22.44-.41.67-.17.19-.38.39-.61.6-.12.12-.32.31-.61.57l-.63.59-1.18,1.14h2.04c.22,0,.38,0,.51-.01.23-.01.37-.04.42-.08.07-.06.13-.18.18-.35.02-.09.05-.24.09-.45l.03-.18h.28l-.31,1.92Z" fill="#221e1f"/>
  </g>
  <g>
    <path d="M62.8,8.75h-1.78c-.33,0-.63.02-.89.04v-.34h.53c.31,0,.51-.02.61-.08.16-.07.24-.22.24-.45V2.23c-.17.08-.37.14-.59.19-.19.04-.4.08-.61.1h-.24v-.34c.06,0,.12,0,.16-.01.06,0,.13,0,.2-.01.19-.01.37-.05.56-.1.18-.04.35-.1.53-.18.1-.06.2-.12.29-.18.09-.07.18-.15.26-.23h.26v6.45c0,.24.08.39.24.45.1.05.31.08.62.08h.52v.34c-.27-.02-.56-.04-.89-.04Z" fill="#221e1f"/>
    <path d="M69.38,7.5c-.12.32-.28.6-.5.84-.22.22-.47.39-.73.5-.27.12-.56.18-.86.18s-.6-.07-.88-.2c-.27-.13-.49-.31-.67-.55-.29-.39-.5-.87-.63-1.44-.09-.44-.14-.95-.14-1.53,0-.54.07-1.04.21-1.5.16-.51.4-.95.71-1.33.24-.32.53-.56.88-.73.35-.19.72-.28,1.11-.28.23,0,.43.03.61.08.17.06.32.15.45.27.12.11.2.24.26.38s.09.29.09.46c0,.15-.05.28-.14.38-.1.11-.22.16-.37.16-.15,0-.27-.05-.37-.15-.09-.09-.14-.21-.14-.35,0-.19.06-.32.17-.4.1-.06.24-.1.43-.1-.09-.15-.24-.27-.43-.34-.17-.06-.35-.1-.54-.1-.42,0-.8.17-1.12.49-.27.27-.47.61-.59,1.01-.07.22-.13.47-.16.73-.04.29-.05.61-.05.95v.26c.12-.33.3-.59.53-.77.25-.21.53-.31.86-.31.3,0,.58.06.84.17.27.12.5.3.71.53.21.23.37.5.47.82.11.29.16.61.16.94s-.06.66-.17.96ZM68.56,6.41c0-.32-.01-.56-.03-.72-.02-.27-.08-.49-.16-.66-.12-.23-.26-.4-.41-.5-.17-.12-.38-.18-.61-.18s-.44.06-.62.17c-.16.1-.3.26-.43.48-.11.17-.19.38-.25.62-.04.21-.06.44-.06.69,0,.21,0,.4.01.57,0,.21.03.4.06.58.06.34.18.63.38.86.23.27.51.41.84.41.24,0,.46-.07.66-.2.18-.12.32-.29.43-.52.08-.18.13-.4.16-.67.01-.15.02-.38.02-.69v-.25Z" fill="#221e1f"/>
  </g>
</svg>