<svg id="레이어_1" data-name="레이어 1" xmlns="http://www.w3.org/2000/svg" width="151.83" height="123.47" viewBox="0 0 151.83 123.47">
  <g>
    <g>
      <path d="M101.33,170.73H102" transform="translate(-37.47 -50.66)" fill="none" stroke="#221e1f" stroke-miterlimit="10" stroke-width="0.4"/>
      <path d="M102.86,170.69c20.93-.57,38-3.75,43.44-7.94" transform="translate(-37.47 -50.66)" fill="none" stroke="#221e1f" stroke-miterlimit="10" stroke-width="0.4" stroke-dasharray="1.24 0.9"/>
      <path d="M146.64,162.47a3.71,3.71,0,0,0,.45-.43" transform="translate(-37.47 -50.66)" fill="none" stroke="#221e1f" stroke-miterlimit="10" stroke-width="0.4"/>
    </g>
    <g>
      <path d="M45.05,162a4.63,4.63,0,0,0,.45.42" transform="translate(-37.47 -50.66)" fill="none" stroke="#221e1f" stroke-miterlimit="10" stroke-width="0.4"/>
      <path d="M46.21,163c5.86,4.09,22.82,7.18,43.53,7.7" transform="translate(-37.47 -50.66)" fill="none" stroke="#221e1f" stroke-miterlimit="10" stroke-width="0.4" stroke-dasharray="1.24 0.9"/>
      <path d="M90.2,170.72h.62" transform="translate(-37.47 -50.66)" fill="none" stroke="#221e1f" stroke-miterlimit="10" stroke-width="0.4"/>
    </g>
    <g>
      <path d="M75.79,126.17l-.48.39" transform="translate(-37.47 -50.66)" fill="none" stroke="#221e1f" stroke-miterlimit="10" stroke-width="0.4"/>
      <path d="M74.59,127.13c-16.48,13.25-27.82,26.75-29,34.2" transform="translate(-37.47 -50.66)" fill="none" stroke="#221e1f" stroke-miterlimit="10" stroke-width="0.4" stroke-dasharray="1.27 0.92"/>
      <path d="M45.53,161.78c0,.21,0,.41,0,.61" transform="translate(-37.47 -50.66)" fill="none" stroke="#221e1f" stroke-miterlimit="10" stroke-width="0.4"/>
    </g>
    <g>
      <path d="M127.55,100.94l-.6-.13" transform="translate(-37.47 -50.66)" fill="none" stroke="#221e1f" stroke-miterlimit="10" stroke-width="0.4"/>
      <path d="M126,100.69c-7.72-.66-23.75,6.5-40.9,18.52" transform="translate(-37.47 -50.66)" fill="none" stroke="#221e1f" stroke-miterlimit="10" stroke-width="0.4" stroke-dasharray="1.27 0.92"/>
      <path d="M84.75,119.48l-.5.36" transform="translate(-37.47 -50.66)" fill="none" stroke="#221e1f" stroke-miterlimit="10" stroke-width="0.4"/>
    </g>
    <path d="M126.8,94.9a2.42,2.42,0,0,1-1.67.57h-1.8v2.64a.72.72,0,0,0,.22.6,1.5,1.5,0,0,0,.91.21v.28h-2.88v-.28a1.24,1.24,0,0,0,.82-.21.72.72,0,0,0,.22-.6V92.26a.61.61,0,0,0-.22-.55,1.49,1.49,0,0,0-.82-.16v-.27h3.64a2.48,2.48,0,0,1,1.59.51,1.83,1.83,0,0,1,.67,1.47A2.09,2.09,0,0,1,126.8,94.9Zm-.53-2.83a1.77,1.77,0,0,0-1.31-.52h-.85a.86.86,0,0,0-.6.16.7.7,0,0,0-.18.55v2.93H125a1.62,1.62,0,0,0,1.32-.63,2,2,0,0,0,.45-1.3A1.68,1.68,0,0,0,126.27,92.07Z" transform="translate(-37.47 -50.66)" fill="#221e1f"/>
    <path d="M148.51,173.52a3.46,3.46,0,0,1-.47.39,1.3,1.3,0,0,1-.62.16,1.26,1.26,0,0,1-.88-.38,2.83,2.83,0,0,1-.6-.9,2.74,2.74,0,0,1-.53.17,1.93,1.93,0,0,1-.47,0,2.91,2.91,0,0,1-2.49-1.28,4.73,4.73,0,0,1-.84-2.84,4.8,4.8,0,0,1,.84-2.85,3,3,0,0,1,5,0,4.62,4.62,0,0,1,.9,2.85,5.55,5.55,0,0,1-.43,2.16,2.76,2.76,0,0,1-1.33,1.51,1.83,1.83,0,0,0,.42.63,1,1,0,0,0,.67.31,2.15,2.15,0,0,0,.4,0,1.65,1.65,0,0,0,.43-.18l.13.18Zm-1.64-7.29a2.18,2.18,0,0,0-1.93-1.2,2.21,2.21,0,0,0-1.94,1.2,5.08,5.08,0,0,0-.66,2.67,6.23,6.23,0,0,0,.21,1.57,3,3,0,0,0,.63,1.32,1,1,0,0,1,.32-1,1.44,1.44,0,0,1,.82-.2,1.74,1.74,0,0,1,1,.31,3.32,3.32,0,0,1,1.07,1.24,2.81,2.81,0,0,0,.91-1.51,6.06,6.06,0,0,0,.26-1.77A5.08,5.08,0,0,0,146.87,166.23Zm-1.89,5a1.32,1.32,0,0,0-.81-.27.82.82,0,0,0-.49.12,1,1,0,0,0-.31.87,2.69,2.69,0,0,0,.81.61,1.8,1.8,0,0,0,.76.17,1.41,1.41,0,0,0,.43-.08,3,3,0,0,0,.44-.17A2.86,2.86,0,0,0,145,171.24Z" transform="translate(-37.47 -50.66)" fill="#221e1f"/>
    <path d="M187.8,129.35l-2.17-3.93h-1.17v2.87a.68.68,0,0,0,.24.59,1.32,1.32,0,0,0,.82.19v.28h-2.81v-.28a1.33,1.33,0,0,0,.83-.19.69.69,0,0,0,.22-.59v-5.92a.56.56,0,0,0-.22-.51,1.65,1.65,0,0,0-.83-.15v-.28h3.21a3,3,0,0,1,1.94.56,1.68,1.68,0,0,1,.67,1.4,1.83,1.83,0,0,1-.53,1.36,2.34,2.34,0,0,1-1.63.64l1.81,3.18a.83.83,0,0,0,.43.4,1.73,1.73,0,0,0,.69.1v.28Zm-.53-7.19a2,2,0,0,0-1.39-.45h-.62a1,1,0,0,0-.59.15.6.6,0,0,0-.21.51v2.77h1.68a1.53,1.53,0,0,0,1.27-.54,1.86,1.86,0,0,0,.37-1.21A1.53,1.53,0,0,0,187.27,122.16Z" transform="translate(-37.47 -50.66)" fill="#221e1f"/>
    <circle cx="109.62" cy="77.69" r="1.42" fill="#231815"/>
    <path d="M137,130.89v-.28a1.89,1.89,0,0,0,.89-.15.52.52,0,0,0,.26-.5v-6a.59.59,0,0,0-.26-.57,1.84,1.84,0,0,0-.89-.15V123h3v.28a1.86,1.86,0,0,0-.9.15.62.62,0,0,0-.25.57v6a.55.55,0,0,0,.25.5,1.91,1.91,0,0,0,.9.15v.28Z" transform="translate(-37.47 -50.66)" fill="#221e1f"/>
    <g>
      <path d="M143.24,137.32c0-.2.07-.41.1-.61" transform="translate(-37.47 -50.66)" fill="none" stroke="#221e1f" stroke-miterlimit="10" stroke-width="0.4"/>
      <path d="M143.51,135.89c.66-3.14,1.64-5.58,2.8-6.87" transform="translate(-37.47 -50.66)" fill="none" stroke="#221e1f" stroke-miterlimit="10" stroke-width="0.4" stroke-dasharray="1.14 0.83"/>
      <path d="M146.6,128.72a3.32,3.32,0,0,1,.49-.37" transform="translate(-37.47 -50.66)" fill="none" stroke="#221e1f" stroke-miterlimit="10" stroke-width="0.4"/>
    </g>
    <g>
      <path d="M147.09,162.23a4,4,0,0,1-.48-.38" transform="translate(-37.47 -50.66)" fill="none" stroke="#221e1f" stroke-miterlimit="10" stroke-width="0.4"/>
      <path d="M146,161.17c-1.16-1.54-2.12-4.27-2.72-7.68" transform="translate(-37.47 -50.66)" fill="none" stroke="#221e1f" stroke-miterlimit="10" stroke-width="0.4" stroke-dasharray="1.26 0.91"/>
      <path d="M143.2,153c0-.2-.07-.41-.1-.62" transform="translate(-37.47 -50.66)" fill="none" stroke="#221e1f" stroke-miterlimit="10" stroke-width="0.4"/>
    </g>
    <polyline points="143.64 106.03 137.97 106.03 137.97 111.7" fill="none" stroke="#221e1f" stroke-miterlimit="10" stroke-width="0.4"/>
    <polyline points="143.24 83.28 137.57 83.28 137.57 77.61" fill="none" stroke="#221e1f" stroke-miterlimit="10" stroke-width="0.4"/>
    <polyline points="109.62 106.03 115.29 106.03 115.29 111.7" fill="none" stroke="#221e1f" stroke-miterlimit="10" stroke-width="0.4"/>
    <path d="M182.7,58.75v-.28a1.82,1.82,0,0,0,.93-.14c.15-.1.18-.31.07-.61l-.65-1.84H180l-.51,1.59c-.13.41-.13.67,0,.81a1.48,1.48,0,0,0,.94.19v.28H178v-.28a1,1,0,0,0,.69-.19,2.59,2.59,0,0,0,.48-1l2.19-6.4.61-.27,2.43,7a1.14,1.14,0,0,0,.4.61,1.19,1.19,0,0,0,.7.17v.28Zm-1.2-7.28-1.4,4.09h2.83Z" transform="translate(-37.47 -50.66)" fill="#221e1f"/>
    <path d="M43.1,166.78a3.05,3.05,0,0,1-2.09.67H37.47v-.28a1.65,1.65,0,0,0,.83-.14c.15-.09.22-.29.22-.58v-5.88a.68.68,0,0,0-.22-.58,1.41,1.41,0,0,0-.83-.18v-.28H40.8a3.24,3.24,0,0,1,2,.52,1.58,1.58,0,0,1,.7,1.34,1.53,1.53,0,0,1-.38,1,2.7,2.7,0,0,1-1.35.72,2.84,2.84,0,0,1,1.6.78,2,2,0,0,1,.47,1.35A1.93,1.93,0,0,1,43.1,166.78Zm-.87-6.48a2,2,0,0,0-1.44-.49h-.65a1.09,1.09,0,0,0-.7.18.71.71,0,0,0-.22.58v2.53h1.57a1.88,1.88,0,0,0,1.36-.58,1.69,1.69,0,0,0,.53-1.2A1.37,1.37,0,0,0,42.23,160.3Zm.24,3.66a2.1,2.1,0,0,0-1.51-.58H39.22v3.07a.64.64,0,0,0,.22.58,1.24,1.24,0,0,0,.7.14h.74a2.22,2.22,0,0,0,1.61-.59,1.72,1.72,0,0,0,.57-1.3A1.76,1.76,0,0,0,42.47,164Z" transform="translate(-37.47 -50.66)" fill="#221e1f"/>
    <path d="M186.86,168.72a2.62,2.62,0,0,1-1.81.69,2.88,2.88,0,0,1-2.29-1.09,4.63,4.63,0,0,1-1-3.09,4.74,4.74,0,0,1,.87-2.89,2.68,2.68,0,0,1,2.23-1.21,3.38,3.38,0,0,1,.63.07l.64.19.06,0,.79-.24.77,2-.17.1a5.9,5.9,0,0,0-1.07-1.21,2.57,2.57,0,0,0-1.62-.66,2,2,0,0,0-1.7,1.09,5.07,5.07,0,0,0-.67,2.73,4.11,4.11,0,0,0,.81,2.59,2.41,2.41,0,0,0,2,1,2.06,2.06,0,0,0,1.29-.44,3.87,3.87,0,0,0,1.15-1.41l.21.09A4.29,4.29,0,0,1,186.86,168.72Z" transform="translate(-37.47 -50.66)" fill="#221e1f"/>
    <line x1="109.62" y1="77.69" x2="109.62" y2="111.62" fill="none" stroke="#221e1f" stroke-miterlimit="10" stroke-width="0.4"/>
    <line x1="109.31" y1="77.61" x2="143.24" y2="77.61" fill="none" stroke="#221e1f" stroke-miterlimit="10" stroke-width="0.4"/>
    <line x1="7.58" y1="111.62" x2="143.64" y2="111.62" fill="none" stroke="#221e1f" stroke-linejoin="round" stroke-width="0.75"/>
    <line x1="143.64" y1="111.73" x2="143.64" y2="9.69" fill="none" stroke="#221e1f" stroke-linejoin="round" stroke-width="0.75"/>
    <line x1="143.64" y1="9.69" x2="7.58" y2="111.62" fill="none" stroke="#221e1f" stroke-linejoin="round" stroke-width="0.75"/>
    <line x1="109.62" y1="77.6" x2="89.26" y2="50.42" fill="none" stroke="#221e1f" stroke-linejoin="round" stroke-width="0.4"/>
    <circle cx="109.62" cy="77.61" r="34.02" fill="none" stroke="#221e1f" stroke-linejoin="round" stroke-width="0.75"/>
    <path d="M144.44,146.63a2.57,2.57,0,0,1-.49.68,2.38,2.38,0,0,1-.78.48,2.53,2.53,0,0,1-.91.16,3,3,0,0,1-.44,0,2.15,2.15,0,0,1-.4-.09,2.06,2.06,0,0,1-1-.58,1.45,1.45,0,0,1-.41-1,.68.68,0,0,1,.15-.47.6.6,0,0,1,.47-.18.6.6,0,0,1,.44.18.61.61,0,0,1,.17.45.55.55,0,0,1-.22.47.59.59,0,0,1-.5.13,1.43,1.43,0,0,0,.7.61,2.18,2.18,0,0,0,1,.23.94.94,0,0,0,.43-.1,1.12,1.12,0,0,0,.37-.24,1.83,1.83,0,0,0,.34-.7,2.68,2.68,0,0,0,.1-.78c0-.15,0-.28,0-.4s0-.24-.06-.34a1.49,1.49,0,0,0-.42-.8,1.16,1.16,0,0,0-.81-.29h-.51l-.16,0a.12.12,0,0,1-.08-.12c0-.06,0-.1,0-.12h.43l.35,0a1,1,0,0,0,.58-.35,1.68,1.68,0,0,0,.35-.59c0-.18.07-.32.09-.44a2.37,2.37,0,0,0,.05-.44,1.69,1.69,0,0,0-.08-.53,1,1,0,0,0-.28-.45.83.83,0,0,0-.34-.19,1.06,1.06,0,0,0-.37-.06l-.38,0-.38.1a1.44,1.44,0,0,0-.4.23,1,1,0,0,0-.31.32H141a.64.64,0,0,1,.37.16.5.5,0,0,1,.13.38.52.52,0,0,1-.16.4.54.54,0,0,1-.4.16.57.57,0,0,1-.42-.16.59.59,0,0,1-.15-.41,1.24,1.24,0,0,1,.36-.88,1.84,1.84,0,0,1,.82-.5,2,2,0,0,1,.37-.1l.41,0a2.64,2.64,0,0,1,.74.1,2.06,2.06,0,0,1,.65.31,1.9,1.9,0,0,1,.47.47,1.27,1.27,0,0,1,.18.64,1.5,1.5,0,0,1-.13.62,2.39,2.39,0,0,1-.31.56,2.53,2.53,0,0,1-.51.46,2.85,2.85,0,0,1-.6.31,2.23,2.23,0,0,1,1,.44,2.06,2.06,0,0,1,.69.88,2.77,2.77,0,0,1,.09.33,1.37,1.37,0,0,1,0,.34A1.9,1.9,0,0,1,144.44,146.63Z" transform="translate(-37.47 -50.66)"/>
    <g>
      <path d="M184.57,137.32c0-.2-.07-.41-.11-.61" transform="translate(-37.47 -50.66)" fill="none" stroke="#221e1f" stroke-miterlimit="10" stroke-width="0.4"/>
      <path d="M184.3,135.89c-.66-3.14-1.65-5.58-2.81-6.87" transform="translate(-37.47 -50.66)" fill="none" stroke="#221e1f" stroke-miterlimit="10" stroke-width="0.4" stroke-dasharray="1.14 0.83"/>
      <path d="M181.21,128.72a3.94,3.94,0,0,0-.49-.37" transform="translate(-37.47 -50.66)" fill="none" stroke="#221e1f" stroke-miterlimit="10" stroke-width="0.4"/>
    </g>
    <g>
      <path d="M180.71,162.23a3.4,3.4,0,0,0,.49-.38" transform="translate(-37.47 -50.66)" fill="none" stroke="#221e1f" stroke-miterlimit="10" stroke-width="0.4"/>
      <path d="M181.81,161.17c1.16-1.54,2.12-4.27,2.72-7.68" transform="translate(-37.47 -50.66)" fill="none" stroke="#221e1f" stroke-miterlimit="10" stroke-width="0.4" stroke-dasharray="1.26 0.91"/>
      <path d="M184.61,153l.09-.62" transform="translate(-37.47 -50.66)" fill="none" stroke="#221e1f" stroke-miterlimit="10" stroke-width="0.4"/>
    </g>
    <g>
      <path d="M172,124.41l.61.11" transform="translate(-37.47 -50.66)" fill="none" stroke="#221e1f" stroke-miterlimit="10" stroke-width="0.4"/>
      <path d="M173.43,124.68c3.15.66,5.59,1.64,6.88,2.81" transform="translate(-37.47 -50.66)" fill="none" stroke="#221e1f" stroke-miterlimit="10" stroke-width="0.4" stroke-dasharray="1.14 0.83"/>
      <path d="M180.6,127.77a3.32,3.32,0,0,1,.37.49" transform="translate(-37.47 -50.66)" fill="none" stroke="#221e1f" stroke-miterlimit="10" stroke-width="0.4"/>
    </g>
    <g>
      <path d="M147.09,128.27a3.4,3.4,0,0,1,.38-.49" transform="translate(-37.47 -50.66)" fill="none" stroke="#221e1f" stroke-miterlimit="10" stroke-width="0.4"/>
      <path d="M148.15,127.17c1.54-1.16,4.27-2.12,7.69-2.72" transform="translate(-37.47 -50.66)" fill="none" stroke="#221e1f" stroke-miterlimit="10" stroke-width="0.4" stroke-dasharray="1.26 0.91"/>
      <path d="M156.29,124.37l.62-.09" transform="translate(-37.47 -50.66)" fill="none" stroke="#221e1f" stroke-miterlimit="10" stroke-width="0.4"/>
    </g>
    <g>
      <path d="M172,166.09l.61-.11" transform="translate(-37.47 -50.66)" fill="none" stroke="#221e1f" stroke-miterlimit="10" stroke-width="0.4"/>
      <path d="M173.43,165.82c3.15-.67,5.59-1.65,6.88-2.81" transform="translate(-37.47 -50.66)" fill="none" stroke="#221e1f" stroke-miterlimit="10" stroke-width="0.4" stroke-dasharray="1.14 0.83"/>
      <path d="M180.6,162.72a3.87,3.87,0,0,0,.37-.48" transform="translate(-37.47 -50.66)" fill="none" stroke="#221e1f" stroke-miterlimit="10" stroke-width="0.4"/>
    </g>
    <g>
      <path d="M147.09,162.23a4.06,4.06,0,0,0,.38.49" transform="translate(-37.47 -50.66)" fill="none" stroke="#221e1f" stroke-miterlimit="10" stroke-width="0.4"/>
      <path d="M148.15,163.32c1.54,1.17,4.27,2.13,7.69,2.73" transform="translate(-37.47 -50.66)" fill="none" stroke="#221e1f" stroke-miterlimit="10" stroke-width="0.4" stroke-dasharray="1.26 0.91"/>
      <path d="M156.29,166.12l.62.1" transform="translate(-37.47 -50.66)" fill="none" stroke="#221e1f" stroke-miterlimit="10" stroke-width="0.4"/>
    </g>
    <path d="M187.57,146.63a2.33,2.33,0,0,1-.48.68,2.5,2.5,0,0,1-1.69.64,3.19,3.19,0,0,1-.45,0,2.59,2.59,0,0,1-.4-.09,2.11,2.11,0,0,1-1-.58,1.44,1.44,0,0,1-.4-1,.68.68,0,0,1,.15-.47.62.62,0,0,1,1.07.45.57.57,0,0,1-.21.47.61.61,0,0,1-.51.13,1.43,1.43,0,0,0,.7.61,2.24,2.24,0,0,0,1,.23.91.91,0,0,0,.43-.1,1.12,1.12,0,0,0,.37-.24,1.84,1.84,0,0,0,.35-.7,3.1,3.1,0,0,0,.09-.78,2.49,2.49,0,0,0,0-.4,2.75,2.75,0,0,0-.05-.34,1.64,1.64,0,0,0-.42-.8,1.16,1.16,0,0,0-.81-.29h-.52l-.16,0a.12.12,0,0,1-.08-.12.14.14,0,0,1,0-.12H185l.34,0a1.05,1.05,0,0,0,.59-.35,1.66,1.66,0,0,0,.34-.59c0-.18.08-.32.1-.44a2.32,2.32,0,0,0,0-.44,1.7,1.7,0,0,0-.07-.53,1,1,0,0,0-.29-.45.77.77,0,0,0-.34-.19,1.06,1.06,0,0,0-.37-.06l-.37,0-.38.1a1.5,1.5,0,0,0-.41.23,1,1,0,0,0-.3.32h.18a.67.67,0,0,1,.38.16.54.54,0,0,1,.13.38.55.55,0,0,1-.56.56.57.57,0,0,1-.42-.16.59.59,0,0,1-.15-.41,1.23,1.23,0,0,1,.35-.88,1.84,1.84,0,0,1,.82-.5,2.11,2.11,0,0,1,.38-.1l.41,0a2.57,2.57,0,0,1,.73.1,2.22,2.22,0,0,1,.66.31,1.86,1.86,0,0,1,.46.47,1.27,1.27,0,0,1,.18.64,1.5,1.5,0,0,1-.13.62,2.08,2.08,0,0,1-.31.56,2.23,2.23,0,0,1-.5.46,2.69,2.69,0,0,1-.61.31,2.31,2.31,0,0,1,1,.44,2.14,2.14,0,0,1,.69.88c0,.12.06.23.08.33a1.37,1.37,0,0,1,0,.34A1.9,1.9,0,0,1,187.57,146.63Z" transform="translate(-37.47 -50.66)"/>
    <path d="M166.15,125.6a2.3,2.3,0,0,1-1.27,1.17,2.53,2.53,0,0,1-.91.16,2.94,2.94,0,0,1-.44,0,2.15,2.15,0,0,1-.4-.09,2.06,2.06,0,0,1-1-.58,1.49,1.49,0,0,1-.41-1,.71.71,0,0,1,.15-.48.62.62,0,0,1,.46-.17.58.58,0,0,1,.62.62.57.57,0,0,1-.22.48.63.63,0,0,1-.5.13,1.48,1.48,0,0,0,.7.61,2.31,2.31,0,0,0,1,.23,1.08,1.08,0,0,0,.43-.1,1.15,1.15,0,0,0,.37-.25,1.76,1.76,0,0,0,.34-.7,3.06,3.06,0,0,0,.1-.77c0-.15,0-.29,0-.4s0-.24-.06-.35a1.46,1.46,0,0,0-.42-.79,1.12,1.12,0,0,0-.81-.29h-.51l-.17,0a.13.13,0,0,1-.07-.12c0-.06,0-.1,0-.12h.43l.35,0a1,1,0,0,0,.58-.34,1.68,1.68,0,0,0,.35-.59c0-.18.07-.33.09-.44a2.39,2.39,0,0,0,0-.44,1.66,1.66,0,0,0-.07-.53.92.92,0,0,0-.28-.45.82.82,0,0,0-.35-.2,1.3,1.3,0,0,0-.36-.05l-.38,0a2,2,0,0,0-.38.1,1.62,1.62,0,0,0-.41.22,1.17,1.17,0,0,0-.3.33h.19a.58.58,0,0,1,.37.16.49.49,0,0,1,.13.38.5.5,0,0,1-.16.39.51.51,0,0,1-.4.17.54.54,0,0,1-.42-.17.56.56,0,0,1-.15-.41,1.26,1.26,0,0,1,.36-.88,1.79,1.79,0,0,1,.81-.49,1.64,1.64,0,0,1,.38-.1,2.75,2.75,0,0,1,.41,0,2.92,2.92,0,0,1,.73.09,2.25,2.25,0,0,1,.66.32,1.62,1.62,0,0,1,.47.47,1.21,1.21,0,0,1,.18.64,1.57,1.57,0,0,1-.13.62,2.61,2.61,0,0,1-.31.56,2.22,2.22,0,0,1-.51.45,2.89,2.89,0,0,1-.6.32,2.23,2.23,0,0,1,1,.44,2.06,2.06,0,0,1,.69.88c0,.11.06.22.09.32a2.21,2.21,0,0,1,0,.35A1.82,1.82,0,0,1,166.15,125.6Z" transform="translate(-37.47 -50.66)"/>
    <path d="M166.15,169.41a2.41,2.41,0,0,1-.49.68,2.22,2.22,0,0,1-.78.48,2.53,2.53,0,0,1-.91.17,2.87,2.87,0,0,1-.44,0,3.53,3.53,0,0,1-.4-.08,2.14,2.14,0,0,1-1-.58,1.49,1.49,0,0,1-.41-1,.68.68,0,0,1,.15-.47.58.58,0,0,1,.46-.17.6.6,0,0,1,.45.17.61.61,0,0,1,.17.45.55.55,0,0,1-.22.47.59.59,0,0,1-.5.13,1.49,1.49,0,0,0,.7.62,2.3,2.3,0,0,0,1,.22,1.07,1.07,0,0,0,.43-.09,1.15,1.15,0,0,0,.37-.25,1.83,1.83,0,0,0,.34-.7,3.08,3.08,0,0,0,.1-.78c0-.15,0-.28,0-.39s0-.25-.06-.35a1.49,1.49,0,0,0-.42-.8,1.16,1.16,0,0,0-.81-.29h-.51a.39.39,0,0,1-.17,0,.11.11,0,0,1-.07-.12.16.16,0,0,1,0-.12h.43l.35,0a1,1,0,0,0,.58-.34,1.72,1.72,0,0,0,.35-.6c0-.17.07-.32.09-.44a2.25,2.25,0,0,0,0-.44,1.74,1.74,0,0,0-.07-.53,1,1,0,0,0-.28-.45.8.8,0,0,0-.35-.19,1,1,0,0,0-.36-.06,1.69,1.69,0,0,0-.38,0l-.38.09a2.06,2.06,0,0,0-.41.23,1.14,1.14,0,0,0-.3.32h.19a.58.58,0,0,1,.37.17.48.48,0,0,1,.13.37.55.55,0,0,1-.56.56.54.54,0,0,1-.42-.16.58.58,0,0,1-.15-.41,1.26,1.26,0,0,1,.36-.88,1.8,1.8,0,0,1,.81-.5,2.34,2.34,0,0,1,.38-.09,2.73,2.73,0,0,1,.41,0,2.92,2.92,0,0,1,.73.1,2.23,2.23,0,0,1,.66.31,1.78,1.78,0,0,1,.47.48,1.21,1.21,0,0,1,.18.63,1.58,1.58,0,0,1-.13.63,2.87,2.87,0,0,1-.31.56,2.76,2.76,0,0,1-1.11.76,2.34,2.34,0,0,1,1,.44,2.09,2.09,0,0,1,.69.89c0,.11.06.22.09.32a2.23,2.23,0,0,1,0,.34A1.87,1.87,0,0,1,166.15,169.41Z" transform="translate(-37.47 -50.66)"/>
    <path d="M98.45,171.74a4.42,4.42,0,0,1-.64,1.35,3,3,0,0,1-.85.74,2.12,2.12,0,0,1-1.07.3,1.93,1.93,0,0,1-1.07-.27,1,1,0,0,1-.47-.91.56.56,0,0,1,.14-.39.46.46,0,0,1,.36-.15.5.5,0,0,1,.42.2.58.58,0,0,1,.07.47.47.47,0,0,1-.22.26.58.58,0,0,1-.33.09.81.81,0,0,0,.39.27,1.69,1.69,0,0,0,.48.12,1.79,1.79,0,0,0,.75-.12,1.58,1.58,0,0,0,.6-.45,2.86,2.86,0,0,0,.52-1.21,6.28,6.28,0,0,0,.13-1.3v-.36a2.05,2.05,0,0,1-.52.78,1.27,1.27,0,0,1-.86.32,2,2,0,0,1-.86-.19,2.24,2.24,0,0,1-.71-.52,2.5,2.5,0,0,1-.48-.82,2.82,2.82,0,0,1-.15-.92,2.88,2.88,0,0,1,.15-1,2.38,2.38,0,0,1,.55-.81,2.17,2.17,0,0,1,.73-.53,2.4,2.4,0,0,1,.9-.16,1.84,1.84,0,0,1,.83.19,1.89,1.89,0,0,1,.65.55,3.9,3.9,0,0,1,.31.5,3.7,3.7,0,0,1,.23.64,4.14,4.14,0,0,1,.16.81,6.45,6.45,0,0,1,.07,1A5.14,5.14,0,0,1,98.45,171.74Zm-.85-3.3a3.24,3.24,0,0,0-.14-.74,1.36,1.36,0,0,0-.4-.62,1,1,0,0,0-.65-.25,1.27,1.27,0,0,0-.69.18,1.55,1.55,0,0,0-.42.51,1.7,1.7,0,0,0-.21.68,6,6,0,0,0,0,.71v.18a6.29,6.29,0,0,0,0,.73,2.23,2.23,0,0,0,.18.71,1.44,1.44,0,0,0,.4.51,1,1,0,0,0,.62.19,1.15,1.15,0,0,0,1-.67,2.65,2.65,0,0,0,.32-1.31A6.91,6.91,0,0,0,97.6,168.44Z" transform="translate(-37.47 -50.66)"/>
    <path d="M81.81,124a4.28,4.28,0,0,1-.65,1.34,2.86,2.86,0,0,1-.85.75,2.12,2.12,0,0,1-1.07.3,1.93,1.93,0,0,1-1.07-.27,1,1,0,0,1-.47-.92.58.58,0,0,1,.14-.39.53.53,0,0,1,.79.06.59.59,0,0,1,.06.46.48.48,0,0,1-.21.27.64.64,0,0,1-.34.09,1,1,0,0,0,.39.27,2.12,2.12,0,0,0,.48.11,1.65,1.65,0,0,0,.75-.11,1.73,1.73,0,0,0,.6-.46,2.82,2.82,0,0,0,.52-1.2A6.35,6.35,0,0,0,81,123v-.36a1.94,1.94,0,0,1-.52.78,1.27,1.27,0,0,1-.86.32,2,2,0,0,1-.86-.2,2.07,2.07,0,0,1-.7-.51,2.36,2.36,0,0,1-.49-.82,2.88,2.88,0,0,1-.15-.93,2.93,2.93,0,0,1,.15-1,2.59,2.59,0,0,1,.55-.81,2.14,2.14,0,0,1,.73-.52,2.4,2.4,0,0,1,.9-.16,1.84,1.84,0,0,1,.83.19,1.89,1.89,0,0,1,.65.55,3.76,3.76,0,0,1,.31.49,3.81,3.81,0,0,1,.23.65,4.14,4.14,0,0,1,.16.81,6.45,6.45,0,0,1,.07,1A5.51,5.51,0,0,1,81.81,124ZM81,120.7a3.24,3.24,0,0,0-.14-.74,1.41,1.41,0,0,0-.39-.63,1,1,0,0,0-.66-.25,1.27,1.27,0,0,0-.69.19,1.41,1.41,0,0,0-.42.5,1.75,1.75,0,0,0-.21.68,6.24,6.24,0,0,0,0,.71v.19a6.41,6.41,0,0,0,0,.73,2,2,0,0,0,.19.71,1.32,1.32,0,0,0,.39.51,1,1,0,0,0,.62.19,1.16,1.16,0,0,0,1-.68,2.61,2.61,0,0,0,.32-1.3A6.77,6.77,0,0,0,81,120.7Z" transform="translate(-37.47 -50.66)"/>
  </g>
</svg>
