<?xml version="1.0" encoding="UTF-8"?>
<svg id="_레이어_1" data-name="레이어 1" xmlns="http://www.w3.org/2000/svg" width="170.83" height="170.83" viewBox="0 0 170.83 170.83">
  <circle cx="85.41" cy="85.41" r="85.04" fill="#dcdddd" stroke="#000" stroke-miterlimit="10" stroke-width=".75"/>
  <circle cx="85.41" cy="85.41" r="42.52" fill="#fff" stroke="#000" stroke-miterlimit="10" stroke-width=".75"/>
  <line x1="30.71" y1="20.3" x2="169.08" y2="70.66" fill="none" stroke="#000" stroke-miterlimit="10" stroke-width=".4"/>
  <g>
    <path d="M88.05,23.88c-.2-.05-.4-.11-.6-.16" fill="none" stroke="#221e1f" stroke-miterlimit="10" stroke-width=".4"/>
    <path d="M86.57,23.48c-25.29-6.75-46.16-8.3-54.81-3.94" fill="none" stroke="#221e1f" stroke-dasharray="1.25 .91" stroke-miterlimit="10" stroke-width=".4"/>
    <path d="M31.36,19.75c-.18.1-.36.2-.53.31" fill="none" stroke="#221e1f" stroke-miterlimit="10" stroke-width=".4"/>
  </g>
  <g>
    <path d="M168.85,70.33c-.07-.19-.14-.38-.22-.57" fill="none" stroke="#221e1f" stroke-miterlimit="10" stroke-width=".4"/>
    <path d="M168.25,68.94c-4.7-9.35-23.98-22.44-50.43-34.33" fill="none" stroke="#221e1f" stroke-dasharray="1.24 .9" stroke-miterlimit="10" stroke-width=".4"/>
    <path d="M117.4,34.42c-.19-.08-.38-.17-.57-.25" fill="none" stroke="#221e1f" stroke-miterlimit="10" stroke-width=".4"/>
  </g>
  <g>
    <path d="M92.26,34.72h-4.07v-.26l2.23-2.5c.17-.2.31-.38.43-.55.14-.2.27-.4.38-.6.11-.21.19-.42.25-.62.07-.23.11-.45.11-.65,0-.24-.03-.45-.09-.65-.06-.22-.15-.41-.27-.58-.14-.19-.31-.33-.5-.43-.19-.09-.39-.13-.61-.13-.36,0-.67.1-.93.3-.26.2-.44.47-.56.81h.14c.17-.01.31.04.42.14.11.11.17.25.17.43,0,.16-.05.29-.16.41-.11.11-.25.17-.41.17-.19,0-.33-.06-.44-.18-.1-.11-.15-.26-.15-.44,0-.25.05-.5.15-.74.1-.23.24-.43.41-.61.19-.21.42-.38.68-.48.25-.1.52-.15.81-.15.31,0,.61.05.89.14.29.1.55.25.78.45.21.2.38.43.49.7.11.26.17.54.17.85,0,.29-.04.54-.13.77-.09.22-.22.44-.41.66-.17.19-.37.39-.6.6-.12.12-.32.31-.6.57l-.62.59-1.17,1.14h2.03c.21,0,.38,0,.5-.01.23-.01.37-.04.42-.07.07-.06.13-.18.18-.35.02-.09.05-.24.09-.45l.03-.18h.28l-.31,1.92Z"/>
    <path d="M96.99,32.91v.95c0,.23.06.38.18.44.08.05.25.07.51.07h.38v.34c-.23-.02-.48-.04-.75-.04h-1.49c-.28,0-.53.02-.74.04v-.34h.34c.28,0,.46-.02.54-.06.12-.06.18-.21.18-.45v-.95h-2.92v-.34l3.37-5.14c.04-.06.06-.09.09-.11.03-.01.07-.02.14-.02.08,0,.13.02.15.06.01.03.02.09.02.17v5.03h1.1v.34h-1.1ZM96.21,28.47l-2.67,4.09h2.67v-4.09Z"/>
    <path d="M104.07,36.01l-.03.05c-.04.07-.07.12-.09.14-.04.04-.08.06-.14.06h-.21l-2.05-5.15-.78.63-.17-.19,1.54-1.28,1.88,4.73,4.88-10.71h.27v.46l-5.11,11.26Z"/>
    <path d="M108.45,24.74v-.44h7.1v.44h-7.1Z"/>
    <path d="M113.46,33.64c-.12.26-.28.48-.48.67-.22.21-.48.37-.78.48-.29.11-.59.16-.9.16-.16,0-.3-.01-.44-.03-.14-.02-.28-.05-.4-.09-.4-.12-.72-.31-.96-.58-.27-.29-.41-.63-.41-1.02,0-.2.05-.36.15-.47.11-.11.26-.17.46-.17.18,0,.33.06.44.17.11.11.17.26.17.45,0,.2-.07.36-.21.47-.14.11-.31.16-.5.13.13.24.36.45.7.61.32.15.65.22.99.22.15,0,.29-.03.43-.1.14-.06.26-.14.36-.25.16-.19.27-.42.34-.7.06-.23.1-.49.1-.77,0-.15,0-.28-.02-.4-.01-.13-.03-.24-.05-.34-.09-.35-.23-.61-.42-.79-.21-.19-.47-.29-.8-.29h-.51c-.07,0-.13,0-.16-.02-.05-.02-.08-.06-.08-.12s.01-.1.04-.12c.02,0,.06-.01.12-.01.09,0,.2,0,.31-.01.12,0,.24-.01.34-.02.21-.04.4-.15.58-.34.16-.17.27-.37.34-.59.04-.18.08-.33.1-.44.03-.16.04-.3.04-.44,0-.2-.03-.38-.08-.52-.06-.19-.16-.34-.28-.45-.1-.09-.21-.16-.34-.19-.11-.04-.23-.05-.36-.05-.12,0-.25.01-.38.03-.12.02-.25.05-.38.1-.15.06-.29.13-.41.23-.13.09-.23.2-.3.32h.18c.16.03.29.09.38.17.09.09.13.21.13.38s-.05.3-.16.4c-.1.11-.23.16-.4.16-.18,0-.32-.05-.42-.16-.1-.11-.15-.24-.15-.41,0-.33.12-.62.35-.88.21-.22.48-.39.81-.49.11-.04.24-.08.38-.1.13-.01.26-.02.41-.02.25,0,.49.03.73.1.24.07.46.18.65.31.19.14.35.29.46.47.12.2.18.41.18.63,0,.21-.04.41-.13.62-.07.19-.18.37-.31.56-.14.16-.3.31-.5.45-.19.13-.39.23-.6.31.38.06.72.21,1.02.44.31.23.54.52.69.88.04.11.06.22.09.32.03.12.04.24.04.34,0,.27-.06.54-.18.79Z"/>
  </g>
</svg>