<svg id="레이어_1" data-name="레이어 1" xmlns="http://www.w3.org/2000/svg" width="177.95" height="170.83" viewBox="0 0 177.95 170.83">
  <circle cx="85.41" cy="85.41" r="85.04" fill="#dcdddd" stroke="#000" stroke-miterlimit="10" stroke-width="0.75"/>
  <circle cx="85.41" cy="85.41" r="42.52" fill="#fff" stroke="#000" stroke-miterlimit="10" stroke-width="0.75"/>
  <line x1="85.41" y1="85.41" x2="169.08" y2="70.66" fill="none" stroke="#000" stroke-miterlimit="10" stroke-width="0.4"/>
  <line x1="85.41" y1="85.41" x2="99.96" y2="45.46" fill="none" stroke="#000" stroke-miterlimit="10" stroke-width="0.4"/>
  <line x1="30.71" y1="20.3" x2="169.08" y2="70.66" fill="none" stroke="#000" stroke-miterlimit="10" stroke-width="0.4"/>
  <g>
    <path d="M155.45,67.28l-.61-.11" transform="translate(-34.03 -23.4)" fill="none" stroke="#221e1f" stroke-miterlimit="10" stroke-width="0.4"/>
    <path d="M153.93,67c-8.48-1.28-15.32-1-18.94,1.06" transform="translate(-34.03 -23.4)" fill="none" stroke="#221e1f" stroke-miterlimit="10" stroke-width="0.4" stroke-dasharray="1.27 0.92"/>
    <path d="M134.6,68.32c-.18.11-.35.23-.51.35" transform="translate(-34.03 -23.4)" fill="none" stroke="#221e1f" stroke-miterlimit="10" stroke-width="0.4"/>
  </g>
  <g>
    <path d="M202.88,93.73c0-.19-.11-.39-.18-.59" transform="translate(-34.03 -23.4)" fill="none" stroke="#221e1f" stroke-miterlimit="10" stroke-width="0.4"/>
    <path d="M202.35,92.29c-2.24-4.69-9.64-10.53-20-15.9" transform="translate(-34.03 -23.4)" fill="none" stroke="#221e1f" stroke-miterlimit="10" stroke-width="0.4" stroke-dasharray="1.27 0.92"/>
    <path d="M181.93,76.17l-.55-.28" transform="translate(-34.03 -23.4)" fill="none" stroke="#221e1f" stroke-miterlimit="10" stroke-width="0.4"/>
  </g>
  <path d="M209.17,95.49v-.28a1.82,1.82,0,0,0,.93-.14c.15-.1.17-.31.07-.61l-.65-1.84h-3.06L206,94.21q-.19.6,0,.81a1.48,1.48,0,0,0,.94.19v.28h-2.41v-.28a1,1,0,0,0,.68-.19,2.56,2.56,0,0,0,.49-1l2.19-6.4.61-.27,2.43,7a1.09,1.09,0,0,0,.4.61,1.27,1.27,0,0,0,.7.17v.28ZM208,88.21l-1.4,4.09h2.83Z" transform="translate(-34.03 -23.4)" fill="#221e1f"/>
  <path d="M64.17,42.28a3.05,3.05,0,0,1-2.09.67H58.54v-.28a1.71,1.71,0,0,0,.83-.14.65.65,0,0,0,.22-.58V36.07a.72.72,0,0,0-.22-.58,1.44,1.44,0,0,0-.83-.18V35h3.33a3.24,3.24,0,0,1,2,.53,1.56,1.56,0,0,1,.69,1.33,1.47,1.47,0,0,1-.38,1,2.62,2.62,0,0,1-1.35.72,2.81,2.81,0,0,1,1.6.79,2,2,0,0,1-.21,2.84ZM63.3,35.8a2,2,0,0,0-1.44-.49h-.65a1.12,1.12,0,0,0-.71.18.73.73,0,0,0-.21.58V38.6h1.57A1.89,1.89,0,0,0,63.22,38a1.69,1.69,0,0,0,.53-1.2A1.37,1.37,0,0,0,63.3,35.8Zm.24,3.66A2.1,2.1,0,0,0,62,38.88H60.29V42a.67.67,0,0,0,.21.58,1.3,1.3,0,0,0,.71.14H62a2.22,2.22,0,0,0,1.61-.59,1.71,1.71,0,0,0,.56-1.3A1.75,1.75,0,0,0,63.54,39.46Z" transform="translate(-34.03 -23.4)" fill="#221e1f"/>
  <path d="M117.18,117.2a3,3,0,0,1-4.91,0,4.63,4.63,0,0,1-.85-2.83,4.7,4.7,0,0,1,.85-2.85,3,3,0,0,1,4.91,0,4.7,4.7,0,0,1,.85,2.85A4.63,4.63,0,0,1,117.18,117.2Zm-.56-5.49a2.1,2.1,0,0,0-3.8,0,5.13,5.13,0,0,0-.66,2.67,5,5,0,0,0,.66,2.63,2.1,2.1,0,0,0,3.8,0,5,5,0,0,0,.66-2.63A5.13,5.13,0,0,0,116.62,111.71Z" transform="translate(-34.03 -23.4)" fill="#221e1f"/>
  <path d="M136.43,62a2.39,2.39,0,0,1-1.66.57H133v2.65a.73.73,0,0,0,.23.6,1.57,1.57,0,0,0,.91.2v.28h-2.89V66a1.29,1.29,0,0,0,.82-.2.7.7,0,0,0,.23-.6V59.36a.61.61,0,0,0-.23-.56,1.58,1.58,0,0,0-.82-.15v-.28h3.65a2.39,2.39,0,0,1,1.58.52,1.8,1.8,0,0,1,.67,1.47A2,2,0,0,1,136.43,62Zm-.53-2.82a1.7,1.7,0,0,0-1.3-.52h-.86a.89.89,0,0,0-.59.15.72.72,0,0,0-.19.56v2.92h1.63a1.59,1.59,0,0,0,1.31-.62,2,2,0,0,0,.46-1.3A1.64,1.64,0,0,0,135.9,59.17Z" transform="translate(-34.03 -23.4)" fill="#221e1f"/>
  <circle cx="85.41" cy="85.41" r="1.42" fill="#221e1f"/>
  <polyline points="108.08 48.5 105.17 56.49 97.18 53.58" fill="none" stroke="#221e1f" stroke-miterlimit="10" stroke-width="0.4"/>
  <g>
    <path d="M163.22,112.58l-.61.1" transform="translate(-34.03 -23.4)" fill="none" stroke="#221e1f" stroke-miterlimit="10" stroke-width="0.4"/>
    <path d="M161.72,112.83c-19.08,3.14-35.7,1.65-41.51-3.29" transform="translate(-34.03 -23.4)" fill="none" stroke="#221e1f" stroke-miterlimit="10" stroke-width="0.4" stroke-dasharray="1.24 0.9"/>
    <path d="M119.87,109.24c-.15-.14-.29-.29-.43-.44" transform="translate(-34.03 -23.4)" fill="none" stroke="#221e1f" stroke-miterlimit="10" stroke-width="0.4"/>
  </g>
  <g>
    <path d="M203.07,94c-.07.18-.16.37-.25.56" transform="translate(-34.03 -23.4)" fill="none" stroke="#221e1f" stroke-miterlimit="10" stroke-width="0.4"/>
    <path d="M202.36,95.4c-3.42,5.4-14.24,11.06-28.46,14.83" transform="translate(-34.03 -23.4)" fill="none" stroke="#221e1f" stroke-miterlimit="10" stroke-width="0.4" stroke-dasharray="1.28 0.93"/>
    <path d="M173.44,110.35l-.6.16" transform="translate(-34.03 -23.4)" fill="none" stroke="#221e1f" stroke-miterlimit="10" stroke-width="0.4"/>
  </g>
  <g>
    <path d="M118.31,89.86c0,.21-.11.41-.16.6" transform="translate(-34.03 -23.4)" fill="none" stroke="#221e1f" stroke-miterlimit="10" stroke-width="0.4"/>
    <path d="M117.92,91.36c-1.71,7.13-1.38,13.43.83,16.6" transform="translate(-34.03 -23.4)" fill="none" stroke="#221e1f" stroke-miterlimit="10" stroke-width="0.4" stroke-dasharray="1.27 0.92"/>
    <path d="M119,108.32a6,6,0,0,0,.42.46" transform="translate(-34.03 -23.4)" fill="none" stroke="#221e1f" stroke-miterlimit="10" stroke-width="0.4"/>
  </g>
  <g>
    <path d="M134,68.89c-.2,0-.41,0-.61.09" transform="translate(-34.03 -23.4)" fill="none" stroke="#221e1f" stroke-miterlimit="10" stroke-width="0.4"/>
    <path d="M132.47,69.21c-3.71,1.26-7.9,5.94-11.07,12.46" transform="translate(-34.03 -23.4)" fill="none" stroke="#221e1f" stroke-miterlimit="10" stroke-width="0.4" stroke-dasharray="1.27 0.92"/>
    <path d="M121.2,82.09l-.26.56" transform="translate(-34.03 -23.4)" fill="none" stroke="#221e1f" stroke-miterlimit="10" stroke-width="0.4"/>
  </g>
  <path d="M122.66,85.12a.56.56,0,0,1-.43.19.44.44,0,0,1-.3-.1.36.36,0,0,1-.12-.29.52.52,0,0,1,.16-.4.76.76,0,0,1,.41-.2l-.17-.08a.92.92,0,0,0-.29,0,1.35,1.35,0,0,0-.41.06,1.3,1.3,0,0,0-.37.19,2.49,2.49,0,0,0-.44.49,1.84,1.84,0,0,0-.29.55l-.77,3.08a.44.44,0,0,1-.54.34.25.25,0,0,1-.2-.18.7.7,0,0,1,0-.3c0-.21.1-.47.19-.78s.11-.49.22-.9l.39-1.48a3.54,3.54,0,0,0,.09-.67c0-.27-.13-.4-.35-.4a.44.44,0,0,0-.28.08.59.59,0,0,0-.19.26,4.08,4.08,0,0,0-.19.42q-.07.26-.15.54l0,0a.62.62,0,0,1,0,.14.12.12,0,0,1-.12.06.12.12,0,0,1-.12,0,.27.27,0,0,1,0-.13v-.06c.06-.24.11-.43.16-.57a2.73,2.73,0,0,1,.24-.54.93.93,0,0,1,.3-.32.8.8,0,0,1,.43-.12,1.29,1.29,0,0,1,.35,0,2,2,0,0,1,.32.18,1.13,1.13,0,0,1,.22.27,1.2,1.2,0,0,1,.12.35,1.48,1.48,0,0,1,.23-.3,2.09,2.09,0,0,1,.28-.24,1.75,1.75,0,0,1,.42-.23,1.51,1.51,0,0,1,.48-.07,1.09,1.09,0,0,1,.61.16.64.64,0,0,1,.32.55A.65.65,0,0,1,122.66,85.12Z" transform="translate(-34.03 -23.4)" fill="#221e1f"/>
  <path d="M171.42,114.88a2.42,2.42,0,0,1-.27.36,1.35,1.35,0,0,1-.47.35,1.25,1.25,0,0,1-.53.13,1.82,1.82,0,0,1-.88-.19.82.82,0,0,1-.49-.6,1.27,1.27,0,0,1,0-.58,4.34,4.34,0,0,1,.17-.61l0,0,.16-.48a1.3,1.3,0,0,0,0-.72.76.76,0,0,0-.36-.49.84.84,0,0,0-.31-.12,1.31,1.31,0,0,0-.37,0h-1.25l-.93,2.78,0,0a.73.73,0,0,0,0,.21.25.25,0,0,0,0,.18.79.79,0,0,0,.34.09l.39,0h.26l-.12.34-.36,0a5.82,5.82,0,0,0-.61,0h-1.43c-.3,0-.57,0-.81,0l.12-.34H164l.38,0a1.32,1.32,0,0,0,.39-.09.49.49,0,0,0,.17-.18.87.87,0,0,0,.09-.21v0l1.93-5.79v0a.68.68,0,0,0,0-.2.14.14,0,0,0,0-.16c0-.06-.16-.09-.34-.11H166l.12-.34h3.45a3.53,3.53,0,0,1,1,.13,1.89,1.89,0,0,1,.81.46,1.44,1.44,0,0,1,.4.59,1.19,1.19,0,0,1,0,.79,2.14,2.14,0,0,1-.68.93,4.09,4.09,0,0,1-1,.6l-.41.15-.43.13a1.64,1.64,0,0,1,.38.18,2.32,2.32,0,0,1,.3.26,1,1,0,0,1,.23.63,4.52,4.52,0,0,1-.08.75l-.05.32-.06.23a4,4,0,0,0-.11.88c0,.32.15.48.41.48a.88.88,0,0,0,.65-.33,2.5,2.5,0,0,0,.41-.65h0a.91.91,0,0,1,.06-.11.14.14,0,0,1,.12-.06c.06,0,.1,0,.11,0a.29.29,0,0,1,0,.14A2.11,2.11,0,0,1,171.42,114.88Zm-.66-5.46a1,1,0,0,0,0-.39.84.84,0,0,0-.38-.5,1.56,1.56,0,0,0-.63-.19l-.57,0h-.56a1,1,0,0,0-.48.08,1,1,0,0,0-.19.39L167,111.6h1.21a4,4,0,0,0,.55,0,2.4,2.4,0,0,0,.48-.1,2.27,2.27,0,0,0,.91-.6,2.7,2.7,0,0,0,.5-.92A2,2,0,0,0,170.76,109.42Z" transform="translate(-34.03 -23.4)" fill="#221e1f"/>
  <path d="M160.15,74.19h-1.79c-.33,0-.63,0-.9,0v-.35H158a1.62,1.62,0,0,0,.61-.07.44.44,0,0,0,.24-.45V67.65a2.92,2.92,0,0,1-.59.19,5.74,5.74,0,0,1-.62.1h-.23v-.35h.36a2.62,2.62,0,0,0,.56-.09,3.35,3.35,0,0,0,.53-.19l.29-.18a1.94,1.94,0,0,0,.26-.23h.26v6.48a.44.44,0,0,0,.24.45,1.68,1.68,0,0,0,.62.07H161v.35C160.77,74.21,160.48,74.19,160.15,74.19Z" transform="translate(-34.03 -23.4)"/>
  <path d="M166.57,72a3.64,3.64,0,0,1-.33,1.21,2.21,2.21,0,0,1-.78.94,1.94,1.94,0,0,1-1.14.34,2,2,0,0,1-.76-.15,1.84,1.84,0,0,1-.65-.41,2.73,2.73,0,0,1-.75-1.49A7.64,7.64,0,0,1,162,70.7a9.68,9.68,0,0,1,.13-1.65,3.08,3.08,0,0,1,.68-1.5,1.93,1.93,0,0,1,.68-.51,2.24,2.24,0,0,1,.84-.16,2,2,0,0,1,.78.15,2.28,2.28,0,0,1,.66.45A2.9,2.9,0,0,1,166.5,69a8.56,8.56,0,0,1,.15,1.73A8.83,8.83,0,0,1,166.57,72Zm-.85-2.5c0-.36,0-.66-.07-.9a2.12,2.12,0,0,0-.27-.81,1.38,1.38,0,0,0-.46-.47,1.13,1.13,0,0,0-.6-.17,1.18,1.18,0,0,0-.62.17,1.23,1.23,0,0,0-.43.47,2,2,0,0,0-.27.85,6.85,6.85,0,0,0-.07.89c0,.37,0,.74,0,1.13s0,.75,0,1.12a5.53,5.53,0,0,0,.07.92,2.34,2.34,0,0,0,.27.88,1.33,1.33,0,0,0,.43.48,1.09,1.09,0,0,0,.62.2A1,1,0,0,0,165,74a1.41,1.41,0,0,0,.45-.51,2.84,2.84,0,0,0,.23-.86c0-.23.05-.53.07-.9s0-.76,0-1.15,0-.76,0-1.15Z" transform="translate(-34.03 -23.4)"/>
  <path d="M172.79,75.52l0,0a1.13,1.13,0,0,1-.09.15.22.22,0,0,1-.14.05h-.2l-2.05-5.15-.78.64-.17-.19,1.54-1.28,1.88,4.73,4.88-10.71h.27v.46Z" transform="translate(-34.03 -23.4)"/>
  <path d="M177.17,64.33v-.44h7.07v.44Z" transform="translate(-34.03 -23.4)"/>
  <path d="M182.05,74.23H178V74l2.24-2.51.43-.55a4.87,4.87,0,0,0,.37-.6,3.92,3.92,0,0,0,.25-.63,2.19,2.19,0,0,0,0-1.31,1.41,1.41,0,0,0-.27-.58,1.46,1.46,0,0,0-.5-.43,1.41,1.41,0,0,0-.62-.13,1.48,1.48,0,0,0-.93.3,1.61,1.61,0,0,0-.56.82h.14a.6.6,0,0,1,.42.15.58.58,0,0,1,.17.43.62.62,0,0,1-.16.41.58.58,0,0,1-.41.17.54.54,0,0,1-.44-.18.61.61,0,0,1-.15-.44,1.8,1.8,0,0,1,.15-.75,1.93,1.93,0,0,1,.41-.61,1.87,1.87,0,0,1,.67-.49,2.25,2.25,0,0,1,.82-.15,2.93,2.93,0,0,1,.9.14,2.21,2.21,0,0,1,.78.46,1.92,1.92,0,0,1,.5.7,2.27,2.27,0,0,1,0,1.62,2.2,2.2,0,0,1-.41.67,8.47,8.47,0,0,1-.6.6l-.6.57-.63.6-1.17,1.14h2.54a1,1,0,0,0,.42-.08.75.75,0,0,0,.18-.35c0-.1,0-.25.09-.46l0-.18h.28Z" transform="translate(-34.03 -23.4)"/>
</svg>
