<?xml version="1.0" encoding="UTF-8"?>
<svg id="_레이어_1" data-name="레이어 1" xmlns="http://www.w3.org/2000/svg" width="196.82" height="199.79" viewBox="0 0 196.82 199.79">
  <polyline points="37.85 49.37 78.17 119.92 37.85 49.37 78.17 190.47 78.17 119.92" fill="#dcdddd"/>
  <polygon points="148.9 79.6 78.35 119.92 7.79 119.92 148.9 79.6" fill="#b5b5b6"/>
  <polygon points="148.72 119.92 78.17 119.92 148.72 79.6 148.72 119.92" fill="#dcdddd"/>
  <polygon points="148.72 119.92 189.03 119.92 148.72 190.47 148.72 119.92" fill="#dcdddd"/>
  <polygon points="148.72 79.6 108.4 9.05 189.03 79.6 148.72 79.6" fill="#dcdddd"/>
  <line x1="78.17" y1="119.92" x2="148.72" y2="119.92" fill="none" stroke="#221e1f" stroke-miterlimit="10" stroke-width=".75"/>
  <line x1="148.72" y1="79.6" x2="148.72" y2="119.92" fill="none" stroke="#221e1f" stroke-miterlimit="10" stroke-width=".75"/>
  <line x1="78.17" y1="119.92" x2="148.72" y2="79.6" fill="none" stroke="#221e1f" stroke-miterlimit="10" stroke-width=".75"/>
  <line x1="78.17" y1="119.92" x2="37.85" y2="49.37" fill="none" stroke="#221e1f" stroke-miterlimit="10" stroke-width=".75"/>
  <polygon points="148.72 119.92 189.03 119.92 189.03 79.6 148.72 79.6 108.4 9.05 37.85 49.37 78.17 119.92 78.17 190.47 148.72 190.47 148.72 119.92" fill="none" stroke="#221e1f" stroke-linejoin="round" stroke-width=".75"/>
  <line x1="37.85" y1="49.37" x2="78.17" y2="190.47" fill="none" stroke="#221e1f" stroke-miterlimit="10" stroke-width=".4"/>
  <line x1="148.72" y1="190.47" x2="189.03" y2="119.92" fill="none" stroke="#221e1f" stroke-miterlimit="10" stroke-width=".4"/>
  <line x1="108.4" y1="9.05" x2="189.03" y2="79.6" fill="none" stroke="#221e1f" stroke-miterlimit="10" stroke-width=".4"/>
  <polyline points="148.72 114.09 143.05 114.09 143.05 119.76" fill="none" stroke="#221e1f" stroke-miterlimit="10" stroke-width=".4"/>
  <path d="M74.13,128.67v-.28c.48,0,.79-.05.93-.14.15-.11.17-.31.06-.61l-.65-1.84h-3.06l-.51,1.59c-.14.4-.14.67,0,.81.13.13.44.19.94.19v.28h-2.41v-.28c.31,0,.54-.06.68-.19.15-.14.31-.46.49-.95l2.19-6.41.61-.27,2.43,7.03c.09.29.23.5.4.61.17.11.4.17.7.17v.28h-2.81ZM72.94,121.39l-1.4,4.09h2.83l-1.43-4.09Z" fill="#221e1f"/>
  <path d="M155.31,128.32c-.51.44-1.21.67-2.09.67h-3.54v-.28c.42,0,.7-.05.83-.14.14-.09.22-.29.22-.58v-5.88c0-.27-.07-.47-.22-.58-.16-.12-.44-.18-.83-.18v-.28h3.33c.82,0,1.47.18,1.96.53.46.34.69.78.69,1.33,0,.41-.13.76-.38,1.04-.29.32-.74.56-1.35.72.72.14,1.25.41,1.6.79.32.35.48.8.48,1.34,0,.59-.23,1.1-.69,1.5ZM154.45,121.83c-.35-.33-.83-.49-1.45-.49h-.65c-.32,0-.56.06-.7.18-.14.12-.22.32-.22.58v2.53h1.57c.53,0,.98-.19,1.36-.58.35-.36.53-.76.53-1.19,0-.39-.15-.73-.44-1.02ZM154.69,125.49c-.41-.39-.92-.58-1.51-.58h-1.74v3.07c0,.29.07.48.22.58.12.09.36.14.7.14h.75c.67,0,1.21-.2,1.61-.59.38-.36.56-.79.56-1.3s-.19-.95-.58-1.32Z" fill="#221e1f"/>
  <path d="M153.44,77.71c-.52.46-1.12.69-1.81.69-.91,0-1.67-.36-2.29-1.08-.66-.78-.99-1.81-.99-3.1,0-1.14.29-2.1.86-2.89.59-.8,1.34-1.2,2.24-1.2.21,0,.42.02.63.06.13.04.34.1.64.19l.06.03.79-.25.77,2-.17.11c-.35-.51-.7-.91-1.07-1.21-.53-.44-1.07-.66-1.62-.66-.68,0-1.24.36-1.7,1.09-.45.72-.67,1.63-.67,2.73,0,1.03.27,1.9.81,2.59.53.69,1.19,1.04,1.98,1.04.47,0,.9-.15,1.3-.44.43-.31.81-.78,1.15-1.41l.21.09c-.28.69-.64,1.23-1.09,1.62Z" fill="#221e1f"/>
  <g>
    <path d="M124.42,128.18c.21-.02.41-.04.62-.06" fill="none" stroke="#221e1f" stroke-miterlimit="10" stroke-width=".4"/>
    <path d="M125.95,128.02c10.65-1.2,18.92-3.9,22.09-7.25" fill="none" stroke="#221e1f" stroke-dasharray="1.27 .92" stroke-miterlimit="10" stroke-width=".4"/>
    <path d="M148.35,120.43c.14-.16.26-.33.37-.49" fill="none" stroke="#221e1f" stroke-miterlimit="10" stroke-width=".4"/>
  </g>
  <g>
    <path d="M78.17,119.92c.11.17.23.33.37.5" fill="none" stroke="#221e1f" stroke-miterlimit="10" stroke-width=".4"/>
    <path d="M79.17,121.09c3.48,3.29,11.93,5.91,22.65,7.02" fill="none" stroke="#221e1f" stroke-dasharray="1.29 .94" stroke-miterlimit="10" stroke-width=".4"/>
    <path d="M102.3,128.17c.21.02.41.04.62.06" fill="none" stroke="#221e1f" stroke-miterlimit="10" stroke-width=".4"/>
  </g>
  <g>
    <path d="M157.22,95.18c-.03-.21-.05-.41-.08-.62" fill="none" stroke="#221e1f" stroke-miterlimit="10" stroke-width=".4"/>
    <path d="M157,93.72c-1.08-6.43-3.84-11.5-7.33-13.43" fill="none" stroke="#221e1f" stroke-dasharray="1.17 .85" stroke-miterlimit="10" stroke-width=".4"/>
    <path d="M149.3,80.1c-.19-.09-.38-.17-.57-.24" fill="none" stroke="#221e1f" stroke-miterlimit="10" stroke-width=".4"/>
  </g>
  <g>
    <path d="M148.72,119.76c.19-.07.38-.15.57-.24" fill="none" stroke="#221e1f" stroke-miterlimit="10" stroke-width=".4"/>
    <path d="M150.07,119.08c3.54-2.24,6.27-7.76,7.14-14.6" fill="none" stroke="#221e1f" stroke-dasharray="1.24 .9" stroke-miterlimit="10" stroke-width=".4"/>
    <path d="M157.26,104.03c.02-.2.04-.41.06-.62" fill="none" stroke="#221e1f" stroke-miterlimit="10" stroke-width=".4"/>
  </g>
  <g>
    <path d="M106.66,126.93c-.25.34-.44.8-.58,1.38-.1.41-.16.88-.19,1.38l-.02.5v.96c0,.19-.05.33-.13.43-.09.11-.21.17-.39.17-.19,0-.32-.06-.4-.18-.07-.1-.11-.24-.11-.42,0-.29.02-.59.06-.91.05-.32.12-.66.22-1.02.1-.36.24-.73.42-1.09s.39-.73.64-1.1c.09-.15.2-.31.33-.49.08-.11.2-.28.35-.48l.55-.76h-3c-.2.01-.32.04-.35.08-.05.04-.1.17-.16.41-.03.13-.06.31-.11.55v.04h-.28l.36-2.26h.28l.03.14c.05.09.25.14.6.17.19.02.43.03.72.03h2.72v.25l-1.59,2.23Z"/>
    <path d="M113.65,131.33c-.36.28-.74.42-1.16.42-.59,0-1.11-.25-1.55-.76-.46-.51-.69-1.12-.69-1.83,0-.84.26-1.55.78-2.11.49-.53,1.06-.79,1.69-.79.31,0,.62.08.93.25.3.16.5.33.6.53.1.21.11.39.03.55-.07.15-.2.23-.38.23-.14,0-.25-.05-.33-.14-.05-.05-.1-.15-.16-.3l-.07-.16c-.12-.22-.23-.38-.35-.48-.14-.11-.33-.16-.55-.16-.39,0-.72.21-1.01.62-.31.46-.47,1.05-.47,1.78s.15,1.26.46,1.69c.31.44.73.65,1.25.65.26,0,.51-.07.75-.2.28-.16.58-.43.9-.81l.16.09c-.27.42-.55.74-.85.96Z"/>
    <path d="M121.35,131.57v-.27c.25,0,.43-.05.55-.15.12-.09.18-.25.18-.46v-3.04c0-.25-.08-.46-.25-.63-.17-.19-.39-.28-.65-.28-.24,0-.49.08-.76.24-.23.13-.48.32-.74.58v3.14c0,.21.06.37.18.46.12.1.31.15.57.15v.27h-2.13v-.27c.26,0,.45-.05.56-.15.11-.09.17-.25.17-.46v-3.06c0-.24-.08-.44-.25-.61-.17-.18-.36-.27-.59-.27-.29,0-.56.08-.81.24-.21.12-.45.33-.72.62v3.08c0,.21.06.37.17.46.11.1.31.15.59.15v.27h-2.2v-.27c.27,0,.47-.05.59-.15.13-.09.19-.25.19-.46v-3.2c0-.24-.06-.4-.18-.48-.11-.07-.29-.11-.56-.11l-.04-.2,1.44-.44v.99c.29-.29.56-.5.8-.65.36-.22.72-.33,1.06-.33.24,0,.46.08.68.24.24.19.4.43.48.73.3-.29.59-.51.87-.66.36-.2.69-.3,1.01-.3s.61.13.85.39c.22.24.33.52.33.83v3.22c0,.21.06.36.19.46.13.1.32.15.58.15v.27h-2.15Z"/>
  </g>
  <g>
    <path d="M154.8,100.67v.95c0,.23.06.38.18.44.08.05.25.07.51.07h.38v.34c-.23-.02-.48-.04-.75-.04h-1.49c-.28,0-.53.02-.74.04v-.34h.34c.28,0,.46-.02.54-.06.12-.06.18-.21.18-.45v-.95h-2.92v-.34l3.37-5.14c.04-.06.06-.09.09-.11.03-.01.07-.02.14-.02.08,0,.13.02.15.06.01.03.02.09.02.17v5.03h1.1v.34h-1.1ZM154.02,96.24l-2.67,4.09h2.67v-4.09Z"/>
    <path d="M161.46,102.29c-.36.28-.74.42-1.16.42-.59,0-1.11-.25-1.55-.76-.46-.51-.69-1.12-.69-1.83,0-.84.26-1.55.78-2.11.49-.53,1.06-.79,1.69-.79.31,0,.62.08.93.25.3.16.5.33.6.52.1.21.11.39.03.55-.07.15-.2.23-.38.23-.14,0-.25-.05-.33-.14-.05-.05-.1-.15-.16-.3l-.07-.16c-.12-.22-.23-.38-.35-.48-.14-.11-.33-.16-.55-.16-.39,0-.72.21-1.01.62-.31.46-.47,1.05-.47,1.78s.15,1.26.46,1.69c.31.44.73.65,1.25.65.26,0,.51-.07.75-.2.28-.16.58-.43.9-.81l.16.09c-.27.42-.55.74-.85.96Z"/>
    <path d="M169.17,102.52v-.27c.25,0,.43-.05.55-.15.12-.09.18-.25.18-.46v-3.04c0-.25-.08-.46-.25-.63-.17-.19-.39-.28-.65-.28-.24,0-.49.08-.76.24-.23.13-.48.32-.74.58v3.14c0,.21.06.37.18.46.12.1.31.15.57.15v.27h-2.13v-.27c.26,0,.45-.05.56-.15.11-.09.17-.25.17-.46v-3.06c0-.24-.08-.44-.25-.61-.17-.18-.36-.27-.59-.27-.29,0-.56.08-.81.24-.21.12-.45.33-.72.62v3.08c0,.21.06.37.17.46.11.1.31.15.59.15v.27h-2.2v-.27c.27,0,.47-.05.59-.15.13-.09.19-.25.19-.46v-3.2c0-.24-.06-.4-.18-.48-.11-.07-.29-.11-.56-.11l-.04-.2,1.44-.44v.99c.29-.29.56-.5.8-.65.36-.22.72-.33,1.06-.33.24,0,.46.08.68.24.24.19.4.43.48.73.3-.29.59-.51.87-.66.36-.2.69-.3,1.01-.3s.61.13.85.39c.22.24.33.52.33.83v3.22c0,.21.06.36.19.46s.32.15.58.15v.27h-2.15Z"/>
  </g>
  <path d="M36.94,48.12c-.68.83-1.66,1.25-2.92,1.25h-2.97v-.28c.38,0,.65-.06.81-.18.16-.12.24-.33.24-.62v-5.81c0-.26-.08-.45-.24-.57-.17-.12-.44-.17-.81-.17v-.28h2.97c1.26,0,2.23.41,2.92,1.24.61.72.91,1.62.91,2.72s-.3,2-.91,2.72ZM36.33,42.88c-.57-.77-1.34-1.15-2.3-1.15h-.33c-.31,0-.54.06-.68.17-.14.12-.21.31-.21.57v5.81c0,.29.07.49.21.62.14.12.36.18.68.18h.33c.97,0,1.73-.38,2.3-1.15.51-.69.77-1.53.77-2.54s-.26-1.84-.77-2.53Z" fill="#221e1f"/>
  <path d="M110.82,7.92h-5.59v-.28c.38,0,.64-.06.8-.18.17-.11.25-.31.25-.58V.99c0-.26-.08-.44-.25-.55-.16-.11-.42-.16-.8-.16v-.28h5.31l.78,1.88-.17.11-.25-.33c-.32-.44-.6-.76-.85-.93-.42-.29-.96-.44-1.6-.44h-.59c-.29,0-.51.05-.65.16-.14.11-.22.3-.22.55v2.64h1.18c.4,0,.7-.1.9-.3.21-.21.31-.57.31-1.07h.27v3.09h-.27c0-.48-.1-.84-.31-1.07-.2-.22-.5-.33-.9-.33h-1.18v2.93c0,.26.07.46.22.58.14.12.36.18.67.18h.55c.63,0,1.17-.14,1.62-.42.43-.26.88-.71,1.33-1.33l.21.1-.76,1.93Z" fill="#221e1f"/>
  <path d="M196.29,73.85c-.32-.46-.64-.82-.98-1.08-.51-.37-1.08-.56-1.71-.56h-.7c-.26,0-.45.06-.58.18-.12.11-.18.29-.18.53v2.63h1.16c.42,0,.72-.07.9-.21.23-.19.35-.55.35-1.11h.28v3.08h-.28c0-.54-.12-.92-.36-1.16-.2-.21-.5-.31-.91-.31h-1.13v2.92c0,.32.08.53.23.64.16.11.46.16.91.16v.28h-2.89v-.28c.43,0,.72-.05.85-.16.13-.11.19-.32.19-.64v-5.85c0-.25-.07-.43-.19-.53-.16-.12-.44-.18-.85-.18v-.28h5.27l.8,1.81-.16.11Z" fill="#221e1f"/>
  <path d="M196.08,122.29c-.13.12-.19.32-.19.6v2.24h-.5c-.14,0-.3.02-.48.05-.11.03-.27.08-.48.14-.24.08-.43.13-.56.16-.22.05-.42.08-.61.08-.97,0-1.75-.35-2.34-1.05-.61-.74-.92-1.76-.92-3.07,0-1.2.32-2.2.95-2.98.63-.77,1.42-1.16,2.37-1.16.19,0,.42.03.69.08.22.04.4.08.55.14l.9-.21.76,1.98-.17.08c-.41-.52-.78-.91-1.1-1.17-.51-.4-1.03-.6-1.57-.6-.71,0-1.32.35-1.83,1.06-.53.74-.79,1.65-.79,2.74,0,1.23.27,2.2.81,2.93.48.64,1.05.97,1.7.97.46,0,.9-.18,1.32-.53.41-.34.62-.68.62-1.02v-.84c0-.29-.08-.49-.25-.6-.18-.13-.51-.19-.98-.19v-.29h2.84v.29c-.35,0-.6.06-.74.19Z" fill="#221e1f"/>
  <path d="M149.59,199.79v-.28c.38,0,.65-.06.81-.17.17-.11.25-.29.25-.55v-2.95h-3.85v2.95c0,.26.07.44.22.55.16.11.44.17.84.17v.28h-2.81v-.28c.4,0,.67-.06.83-.17.14-.11.22-.29.22-.55v-6c0-.24-.07-.4-.21-.49-.15-.1-.43-.15-.84-.15v-.28h2.81v.28c-.4,0-.68.05-.84.15-.14.1-.22.27-.22.49v2.77h3.85v-2.77c0-.23-.08-.39-.25-.49-.17-.1-.44-.15-.81-.15v-.28h2.82v.28c-.4,0-.67.05-.83.15-.15.1-.23.27-.23.49v6c0,.26.07.44.22.55.16.11.44.17.84.17v.28h-2.82Z" fill="#221e1f"/>
  <path d="M75.7,199.79v-.28c.43,0,.72-.05.9-.15s.26-.27.26-.5v-5.99c0-.28-.09-.47-.26-.57-.17-.1-.46-.15-.9-.15v-.28h2.98v.28c-.44,0-.74.05-.9.15-.17.1-.25.29-.25.57v5.99c0,.24.08.4.25.5s.46.15.9.15v.28h-2.98Z" fill="#221e1f"/>
  <polyline points="148.72 79.6 7.62 119.92 78.17 119.92" fill="none" stroke="#221e1f" stroke-linejoin="round" stroke-width=".4"/>
  <g>
    <path d="M78.08,190.31c-.21,0-.41,0-.62,0" fill="none" stroke="#221e1f" stroke-linejoin="round" stroke-width=".4"/>
    <path d="M76.55,190.3c-36.81-.78-66.69-29.76-68.9-66.21" fill="none" stroke="#221e1f" stroke-dasharray="1.25 .9" stroke-linejoin="round" stroke-width=".4"/>
    <path d="M7.63,123.64c-.01-.21-.02-.41-.03-.62" fill="none" stroke="#221e1f" stroke-linejoin="round" stroke-width=".4"/>
    <path d="M7.64,123.74l-1.42.92-.03-.05.87-2.38c.16-.82.31-1.65.47-2.47.2.81.41,1.63.61,2.44l1,2.32-.02.05-1.47-.84Z" fill="#221e1f"/>
  </g>
  <g>
    <path d="M37.85,49.31c.18-.1.36-.2.54-.31" fill="none" stroke="#221e1f" stroke-linejoin="round" stroke-width=".4"/>
    <path d="M39.18,48.57c37.56-20.56,84.51-8.42,107.5,27.33" fill="none" stroke="#221e1f" stroke-dasharray="1.25 .9" stroke-linejoin="round" stroke-width=".4"/>
    <path d="M146.93,76.28c.11.17.22.35.33.52" fill="none" stroke="#221e1f" stroke-linejoin="round" stroke-width=".4"/>
    <path d="M146.87,76.2l.78-1.5.05.03.42,2.49c.27.79.54,1.59.81,2.38-.58-.61-1.16-1.21-1.73-1.82l-2.02-1.53v-.05s1.69,0,1.69,0Z" fill="#221e1f"/>
  </g>
  <path d="M5.22,123.1c-.42.38-.98.57-1.66.57h-1.8v2.64c0,.28.08.48.23.6.17.14.48.2.91.2v.28H0v-.28c.39,0,.66-.07.82-.2.15-.12.23-.32.23-.6v-5.85c0-.27-.08-.46-.23-.56-.15-.1-.42-.15-.82-.15v-.28h3.64c.63,0,1.16.17,1.59.52.45.37.67.86.67,1.47,0,.69-.23,1.23-.68,1.63ZM4.69,120.27c-.33-.34-.77-.52-1.31-.52h-.85c-.28,0-.48.05-.59.15-.12.11-.18.29-.18.56v2.92h1.62c.54,0,.98-.21,1.32-.62.3-.37.45-.81.45-1.3s-.15-.87-.45-1.19Z" fill="#221e1f"/>
</svg>