<svg id="레이어_1" data-name="레이어 1" xmlns="http://www.w3.org/2000/svg" width="150.49" height="130.63" viewBox="0 0 150.49 130.63">
  <g>
    <g>
      <path d="M120.77,174l.62,0" transform="translate(-38.14 -46.96)" fill="none" stroke="#221e1f" stroke-miterlimit="10" stroke-width="0.4"/>
      <path d="M122.29,174c28.66-1,51.93-6.81,58.82-14.45" transform="translate(-38.14 -46.96)" fill="none" stroke="#221e1f" stroke-miterlimit="10" stroke-width="0.4" stroke-dasharray="1.24 0.9"/>
      <path d="M181.4,159.18a5.85,5.85,0,0,0,.38-.49" transform="translate(-38.14 -46.96)" fill="none" stroke="#221e1f" stroke-miterlimit="10" stroke-width="0.4"/>
    </g>
    <g>
      <path d="M45.72,158.66c.12.17.25.33.38.49" transform="translate(-38.14 -46.96)" fill="none" stroke="#221e1f" stroke-miterlimit="10" stroke-width="0.4"/>
      <path d="M46.7,159.82c7.26,7.53,30.49,13.24,59,14.16" transform="translate(-38.14 -46.96)" fill="none" stroke="#221e1f" stroke-miterlimit="10" stroke-width="0.4" stroke-dasharray="1.24 0.9"/>
      <path d="M106.13,174l.62,0" transform="translate(-38.14 -46.96)" fill="none" stroke="#221e1f" stroke-miterlimit="10" stroke-width="0.4"/>
    </g>
    <g>
      <path d="M143.91,133.63c0-.21.07-.42.11-.62" transform="translate(-38.14 -46.96)" fill="none" stroke="#221e1f" stroke-miterlimit="10" stroke-width="0.4"/>
      <path d="M144.18,132.19c.66-3.14,1.64-5.58,2.81-6.87" transform="translate(-38.14 -46.96)" fill="none" stroke="#221e1f" stroke-miterlimit="10" stroke-width="0.4" stroke-dasharray="1.14 0.83"/>
      <path d="M147.27,125a2.81,2.81,0,0,1,.49-.38" transform="translate(-38.14 -46.96)" fill="none" stroke="#221e1f" stroke-miterlimit="10" stroke-width="0.4"/>
    </g>
    <g>
      <path d="M147.77,158.53a2.81,2.81,0,0,1-.49-.38" transform="translate(-38.14 -46.96)" fill="none" stroke="#221e1f" stroke-miterlimit="10" stroke-width="0.4"/>
      <path d="M146.67,157.47c-1.16-1.54-2.12-4.27-2.72-7.68" transform="translate(-38.14 -46.96)" fill="none" stroke="#221e1f" stroke-miterlimit="10" stroke-width="0.4" stroke-dasharray="1.26 0.91"/>
      <path d="M143.87,149.33l-.09-.61" transform="translate(-38.14 -46.96)" fill="none" stroke="#221e1f" stroke-miterlimit="10" stroke-width="0.4"/>
    </g>
    <polyline points="143.64 106.03 137.97 106.03 137.97 111.7" fill="none" stroke="#221e1f" stroke-miterlimit="10" stroke-width="0.4"/>
    <path d="M183.38,55.05v-.27a2,2,0,0,0,.93-.14c.15-.11.17-.32.06-.62l-.65-1.83h-3.06l-.5,1.59c-.14.4-.14.67,0,.8a1.45,1.45,0,0,0,.94.2v.27h-2.41v-.27a1,1,0,0,0,.68-.2,2.61,2.61,0,0,0,.48-.94l2.2-6.41.6-.27,2.43,7a1.14,1.14,0,0,0,.4.61,1.2,1.2,0,0,0,.71.18v.27Zm-1.2-7.28-1.41,4.09h2.83Z" transform="translate(-38.14 -46.96)" fill="#221e1f"/>
    <path d="M43.77,163.08a3,3,0,0,1-2.08.67H38.14v-.28a1.73,1.73,0,0,0,.84-.14c.14-.09.21-.28.21-.58v-5.88a.72.72,0,0,0-.21-.58,1.45,1.45,0,0,0-.84-.18v-.28h3.33a3.3,3.3,0,0,1,2,.53,1.56,1.56,0,0,1,.69,1.33,1.51,1.51,0,0,1-.38,1,2.7,2.7,0,0,1-1.35.72,2.91,2.91,0,0,1,1.6.79,2,2,0,0,1-.22,2.84Zm-.86-6.48a2,2,0,0,0-1.45-.49h-.65a1.09,1.09,0,0,0-.7.18.74.74,0,0,0-.22.58v2.53h1.57a1.86,1.86,0,0,0,1.36-.58,1.69,1.69,0,0,0,.53-1.2A1.4,1.4,0,0,0,42.91,156.6Zm.24,3.66a2.12,2.12,0,0,0-1.52-.58H39.89v3.07a.67.67,0,0,0,.22.58,1.26,1.26,0,0,0,.7.14h.75a2.23,2.23,0,0,0,1.61-.59,1.75,1.75,0,0,0,.56-1.3A1.79,1.79,0,0,0,43.15,160.26Z" transform="translate(-38.14 -46.96)" fill="#221e1f"/>
    <path d="M187.54,165a2.67,2.67,0,0,1-1.82.69,2.9,2.9,0,0,1-2.29-1.08,4.65,4.65,0,0,1-1-3.1,4.8,4.8,0,0,1,.86-2.89,2.69,2.69,0,0,1,2.24-1.2,3.18,3.18,0,0,1,.62.06l.64.19.07,0,.79-.25.76,2-.17.11a5.72,5.72,0,0,0-1.07-1.22,2.57,2.57,0,0,0-1.62-.65,2,2,0,0,0-1.7,1.08,5.21,5.21,0,0,0-.67,2.73,4.09,4.09,0,0,0,.81,2.59,2.41,2.41,0,0,0,2,1,2.1,2.1,0,0,0,1.3-.44,3.83,3.83,0,0,0,1.14-1.4l.21.08A4.27,4.27,0,0,1,187.54,165Z" transform="translate(-38.14 -46.96)" fill="#221e1f"/>
    <line x1="109.62" y1="77.69" x2="109.62" y2="111.62" fill="none" stroke="#221e1f" stroke-miterlimit="10" stroke-width="0.4"/>
    <path d="M118.23,177.59h-4.09v-.26l2.24-2.51c.17-.2.31-.38.43-.55a5,5,0,0,0,.38-.6,3.5,3.5,0,0,0,.25-.62,2.25,2.25,0,0,0,.1-.66,2.3,2.3,0,0,0-.08-.66,1.82,1.82,0,0,0-.27-.58,1.4,1.4,0,0,0-.51-.43,1.36,1.36,0,0,0-.61-.13,1.53,1.53,0,0,0-.94.3,1.72,1.72,0,0,0-.56.82h.14a.6.6,0,0,1,.42.15.54.54,0,0,1,.17.43.56.56,0,0,1-.16.41.53.53,0,0,1-.41.17.57.57,0,0,1-.44-.18.63.63,0,0,1-.15-.44,1.92,1.92,0,0,1,.15-.74,2.16,2.16,0,0,1,.41-.62,1.8,1.8,0,0,1,.68-.48,2.18,2.18,0,0,1,.82-.15,2.63,2.63,0,0,1,.89.14,2.29,2.29,0,0,1,.79.45,2.19,2.19,0,0,1,.5.7,2.15,2.15,0,0,1,.17.85,2,2,0,0,1-.54,1.44c-.17.19-.38.39-.6.61l-.61.57-.62.59L115,176.74h2.54a1.07,1.07,0,0,0,.43-.08.75.75,0,0,0,.18-.35c0-.09,0-.25.08-.45l0-.19h.28Z" transform="translate(-38.14 -46.96)"/>
    <g>
      <line x1="7.58" y1="111.62" x2="143.64" y2="111.62" fill="none" stroke="#221e1f" stroke-linejoin="round" stroke-width="0.75"/>
      <line x1="143.64" y1="111.73" x2="143.64" y2="9.69" fill="none" stroke="#221e1f" stroke-linejoin="round" stroke-width="0.75"/>
      <line x1="143.64" y1="9.69" x2="7.58" y2="111.62" fill="none" stroke="#221e1f" stroke-linejoin="round" stroke-width="0.75"/>
      <circle cx="109.62" cy="77.61" r="34.02" fill="none" stroke="#221e1f" stroke-linejoin="round" stroke-width="0.75"/>
    </g>
    <path d="M111.56,177.52h-1.79l-.9,0v-.35h.53a1.62,1.62,0,0,0,.61-.07.45.45,0,0,0,.24-.45V171a2.92,2.92,0,0,1-.59.19,5.74,5.74,0,0,1-.62.1h-.23v-.35h.36a2.62,2.62,0,0,0,.56-.09,3.35,3.35,0,0,0,.53-.19l.29-.18a1.94,1.94,0,0,0,.26-.23h.26v6.48a.44.44,0,0,0,.24.45,1.68,1.68,0,0,0,.62.07h.52v.35Z" transform="translate(-38.14 -46.96)"/>
    <path d="M145.11,142.93a2.08,2.08,0,0,1-.49.68,2.22,2.22,0,0,1-.78.48,2.53,2.53,0,0,1-.91.16,3.15,3.15,0,0,1-.44,0l-.4-.08a2.21,2.21,0,0,1-1-.59,1.45,1.45,0,0,1-.41-1,.68.68,0,0,1,.15-.47.61.61,0,0,1,.47-.17.58.58,0,0,1,.44.17.61.61,0,0,1,.17.45.57.57,0,0,1-.21.47.62.62,0,0,1-.51.13,1.49,1.49,0,0,0,.7.62,2.3,2.3,0,0,0,1,.22,1,1,0,0,0,.43-.09,1.15,1.15,0,0,0,.37-.25,1.7,1.7,0,0,0,.34-.7,2.68,2.68,0,0,0,.1-.78c0-.15,0-.28,0-.4a3.07,3.07,0,0,0,0-.34,1.64,1.64,0,0,0-.42-.8,1.16,1.16,0,0,0-.81-.29h-.52l-.16,0a.12.12,0,0,1-.08-.12.15.15,0,0,1,0-.12h.43l.34,0a1.07,1.07,0,0,0,.58-.34,1.58,1.58,0,0,0,.35-.6c0-.18.07-.32.1-.44a3.59,3.59,0,0,0,0-.44,1.69,1.69,0,0,0-.08-.53.94.94,0,0,0-.28-.45.77.77,0,0,0-.34-.19,1.06,1.06,0,0,0-.37-.06,1.69,1.69,0,0,0-.38,0l-.37.09a1.5,1.5,0,0,0-.41.23,1,1,0,0,0-.3.32h.18a.7.7,0,0,1,.38.16.56.56,0,0,1,.13.38.51.51,0,0,1-.17.4.5.5,0,0,1-.39.16.54.54,0,0,1-.42-.16.56.56,0,0,1-.16-.41,1.24,1.24,0,0,1,.36-.88,1.84,1.84,0,0,1,.82-.5,3,3,0,0,1,.38-.1l.41,0a3,3,0,0,1,.73.1,2.5,2.5,0,0,1,.66.31,1.9,1.9,0,0,1,.46.48,1.21,1.21,0,0,1,.18.63,1.58,1.58,0,0,1-.13.63,2.43,2.43,0,0,1-.31.56,2.83,2.83,0,0,1-.51.45,2.43,2.43,0,0,1-.6.31,2.34,2.34,0,0,1,1,.44,2.09,2.09,0,0,1,.69.89,2.23,2.23,0,0,1,.09.32,1.42,1.42,0,0,1,0,.34A1.87,1.87,0,0,1,145.11,142.93Z" transform="translate(-38.14 -46.96)"/>
  </g>
</svg>
