<?xml version="1.0" encoding="UTF-8"?>
<svg id="_레이어_1" data-name="레이어 1" xmlns="http://www.w3.org/2000/svg" width="154.7" height="83.71" viewBox="0 0 154.7 83.71">
  <polygon points="143.64 66.41 7.58 66.41 143.64 9.72 143.64 66.41" fill="none" stroke="#221e1f" stroke-linejoin="round" stroke-width=".75"/>
  <circle cx="120.96" cy="43.74" r="22.68" fill="none" stroke="#221e1f" stroke-miterlimit="10" stroke-width=".4"/>
  <circle cx="120.96" cy="43.74" r="1.42" fill="#231815"/>
  <g>
    <path d="M70.05,77.25c.21,0,.41-.01.62-.02" fill="none" stroke="#221e1f" stroke-miterlimit="10" stroke-width=".4"/>
    <path d="M71.56,77.21c23.5-.7,42.61-4.74,48.54-10.03" fill="none" stroke="#221e1f" stroke-dasharray="1.22 .89" stroke-miterlimit="10" stroke-width=".4"/>
    <path d="M120.42,66.88c.15-.15.29-.3.42-.45" fill="none" stroke="#221e1f" stroke-miterlimit="10" stroke-width=".4"/>
  </g>
  <g>
    <path d="M7.58,66.41c.13.15.27.3.42.45" fill="none" stroke="#221e1f" stroke-miterlimit="10" stroke-width=".4"/>
    <path d="M8.65,67.45c6.32,5.19,25.36,9.12,48.65,9.77" fill="none" stroke="#221e1f" stroke-dasharray="1.22 .89" stroke-miterlimit="10" stroke-width=".4"/>
    <path d="M57.76,77.24c.21,0,.41.01.62.02" fill="none" stroke="#221e1f" stroke-miterlimit="10" stroke-width=".4"/>
  </g>
  <g>
    <path d="M50.3,36.89c-.19.08-.38.17-.57.25" fill="none" stroke="#221e1f" stroke-miterlimit="10" stroke-width=".4"/>
    <path d="M48.93,37.51c-21.43,9.69-37.51,20.76-40.95,27.93" fill="none" stroke="#221e1f" stroke-dasharray="1.22 .89" stroke-miterlimit="10" stroke-width=".4"/>
    <path d="M7.79,65.83c-.08.2-.16.39-.22.58" fill="none" stroke="#221e1f" stroke-miterlimit="10" stroke-width=".4"/>
  </g>
  <g>
    <path d="M112.14,22.87c-.18-.09-.37-.17-.56-.25" fill="none" stroke="#221e1f" stroke-miterlimit="10" stroke-width=".4"/>
    <path d="M110.74,22.32c-7.83-2.37-26.91,1.34-48.67,9.69" fill="none" stroke="#221e1f" stroke-dasharray="1.22 .89" stroke-miterlimit="10" stroke-width=".4"/>
    <path d="M61.65,32.18c-.19.07-.39.15-.58.22" fill="none" stroke="#221e1f" stroke-miterlimit="10" stroke-width=".4"/>
  </g>
  <g>
    <path d="M121.15,11.89c-.18.1-.36.21-.54.32" fill="none" stroke="#221e1f" stroke-miterlimit="10" stroke-width=".4"/>
    <path d="M119.89,12.66c-4.18,2.67-7,5.87-7.61,8.66" fill="none" stroke="#221e1f" stroke-dasharray="1.18 .86" stroke-miterlimit="10" stroke-width=".4"/>
    <path d="M112.2,21.73c-.03.21-.05.41-.05.62" fill="none" stroke="#221e1f" stroke-miterlimit="10" stroke-width=".4"/>
  </g>
  <g>
    <path d="M143.39,9.34c-.15-.14-.3-.27-.47-.4" fill="none" stroke="#221e1f" stroke-miterlimit="10" stroke-width=".4"/>
    <path d="M142.16,8.46c-3.02-1.61-8.42-1.5-14.24.42" fill="none" stroke="#221e1f" stroke-dasharray="1.24 .9" stroke-miterlimit="10" stroke-width=".4"/>
    <path d="M127.49,9.02c-.19.07-.39.14-.59.21" fill="none" stroke="#221e1f" stroke-miterlimit="10" stroke-width=".4"/>
  </g>
  <g>
    <path d="M150.05,22.97c-.02-.21-.04-.41-.07-.62" fill="none" stroke="#221e1f" stroke-miterlimit="10" stroke-width=".4"/>
    <path d="M149.86,21.44c-.78-5.27-2.72-9.45-5.17-11.19" fill="none" stroke="#221e1f" stroke-dasharray="1.26 .92" stroke-miterlimit="10" stroke-width=".4"/>
    <path d="M144.31,10c-.18-.11-.36-.2-.55-.28" fill="none" stroke="#221e1f" stroke-miterlimit="10" stroke-width=".4"/>
  </g>
  <g>
    <path d="M143.75,43.56c.19-.08.37-.17.55-.28" fill="none" stroke="#221e1f" stroke-miterlimit="10" stroke-width=".4"/>
    <path d="M145.04,42.75c2.36-1.94,4.18-6.15,4.88-11.37" fill="none" stroke="#221e1f" stroke-dasharray="1.26 .92" stroke-miterlimit="10" stroke-width=".4"/>
    <path d="M149.98,30.92c.02-.2.05-.41.07-.62" fill="none" stroke="#221e1f" stroke-miterlimit="10" stroke-width=".4"/>
  </g>
  <g>
    <path d="M117.1,49.74c.05-.2.11-.4.16-.6" fill="none" stroke="#221e1f" stroke-miterlimit="10" stroke-width=".4"/>
    <path d="M117.6,48.13c.61-1.67,1.43-3,2.39-3.79" fill="none" stroke="#221e1f" stroke-dasharray="1.46 1.06" stroke-miterlimit="10" stroke-width=".4"/>
    <path d="M120.41,44.03c.18-.11.36-.21.55-.29" fill="none" stroke="#221e1f" stroke-miterlimit="10" stroke-width=".4"/>
  </g>
  <g>
    <path d="M120.96,66.41c-.19-.08-.37-.17-.55-.29" fill="none" stroke="#221e1f" stroke-miterlimit="10" stroke-width=".4"/>
    <path d="M119.77,65.62c-1.07-1-1.96-2.68-2.55-4.77" fill="none" stroke="#221e1f" stroke-dasharray="1.13 .82" stroke-miterlimit="10" stroke-width=".4"/>
    <path d="M117.12,60.45c-.05-.2-.1-.4-.14-.61" fill="none" stroke="#221e1f" stroke-miterlimit="10" stroke-width=".4"/>
  </g>
  <g>
    <path d="M147.44,49.74c-.05-.2-.11-.4-.16-.6" fill="none" stroke="#221e1f" stroke-miterlimit="10" stroke-width=".4"/>
    <path d="M146.95,48.13c-.61-1.67-1.43-3-2.39-3.79" fill="none" stroke="#221e1f" stroke-dasharray="1.46 1.06" stroke-miterlimit="10" stroke-width=".4"/>
    <path d="M144.14,44.03c-.18-.11-.36-.21-.55-.29" fill="none" stroke="#221e1f" stroke-miterlimit="10" stroke-width=".4"/>
  </g>
  <g>
    <path d="M143.58,66.41c.19-.08.37-.17.55-.29" fill="none" stroke="#221e1f" stroke-miterlimit="10" stroke-width=".4"/>
    <path d="M144.77,65.62c1.07-1,1.96-2.68,2.55-4.77" fill="none" stroke="#221e1f" stroke-dasharray="1.13 .82" stroke-miterlimit="10" stroke-width=".4"/>
    <path d="M147.43,60.45c.05-.2.1-.4.14-.61" fill="none" stroke="#221e1f" stroke-miterlimit="10" stroke-width=".4"/>
  </g>
  <g>
    <path d="M135.54,39.6c.21.03.41.06.61.09" fill="none" stroke="#221e1f" stroke-miterlimit="10" stroke-width=".4"/>
    <path d="M137.14,39.89c2.67.58,4.79,1.62,5.89,2.9" fill="none" stroke="#221e1f" stroke-dasharray="1.38 1" stroke-miterlimit="10" stroke-width=".4"/>
    <path d="M143.34,43.19c.12.18.22.36.3.54" fill="none" stroke="#221e1f" stroke-miterlimit="10" stroke-width=".4"/>
  </g>
  <g>
    <path d="M120.96,43.74c.08-.18.18-.36.3-.54" fill="none" stroke="#221e1f" stroke-miterlimit="10" stroke-width=".4"/>
    <path d="M121.84,42.5c1.13-1.12,3.05-2.03,5.41-2.56" fill="none" stroke="#221e1f" stroke-dasharray="1.26 .91" stroke-miterlimit="10" stroke-width=".4"/>
    <path d="M127.71,39.83c.2-.04.4-.08.61-.11" fill="none" stroke="#221e1f" stroke-miterlimit="10" stroke-width=".4"/>
  </g>
  <g>
    <path d="M135.54,70.54c.21-.03.41-.06.61-.09" fill="none" stroke="#221e1f" stroke-miterlimit="10" stroke-width=".4"/>
    <path d="M137.14,70.26c2.67-.58,4.79-1.62,5.89-2.9" fill="none" stroke="#221e1f" stroke-dasharray="1.38 1" stroke-miterlimit="10" stroke-width=".4"/>
    <path d="M143.34,66.96c.12-.18.22-.36.3-.54" fill="none" stroke="#221e1f" stroke-miterlimit="10" stroke-width=".4"/>
  </g>
  <g>
    <path d="M120.96,66.41c.08.18.18.36.3.54" fill="none" stroke="#221e1f" stroke-miterlimit="10" stroke-width=".4"/>
    <path d="M121.84,67.65c1.13,1.12,3.05,2.03,5.41,2.56" fill="none" stroke="#221e1f" stroke-dasharray="1.26 .91" stroke-miterlimit="10" stroke-width=".4"/>
    <path d="M127.71,70.31c.2.04.4.08.61.11" fill="none" stroke="#221e1f" stroke-miterlimit="10" stroke-width=".4"/>
  </g>
  <polyline points="143.64 60.74 137.97 60.74 137.97 66.41" fill="none" stroke="#221e1f" stroke-miterlimit="10" stroke-width=".4"/>
  <polyline points="120.96 60.74 126.63 60.74 126.63 66.41" fill="none" stroke="#221e1f" stroke-miterlimit="10" stroke-width=".4"/>
  <polyline points="143.64 49.4 137.97 49.4 137.97 43.74" fill="none" stroke="#221e1f" stroke-miterlimit="10" stroke-width=".4"/>
  <path d="M144.58,8.09v-.28c.48,0,.79-.05.93-.14.15-.11.17-.31.06-.61l-.65-1.84h-3.06l-.51,1.59c-.14.4-.14.67,0,.81.13.13.44.19.94.19v.28h-2.41v-.28c.31,0,.54-.06.68-.19.15-.14.31-.46.49-.95l2.19-6.41.61-.27,2.43,7.03c.09.29.23.5.4.61.17.11.4.17.7.17v.28h-2.81ZM143.38.81l-1.4,4.09h2.83l-1.43-4.09Z" fill="#221e1f"/>
  <path d="M5.63,70.83c-.51.44-1.21.67-2.09.67H0v-.28c.42,0,.7-.05.83-.14.14-.09.22-.29.22-.58v-5.88c0-.27-.07-.47-.22-.58-.16-.12-.44-.18-.83-.18v-.28h3.33c.82,0,1.47.18,1.96.53.46.34.69.78.69,1.33,0,.41-.13.76-.38,1.04-.29.32-.74.56-1.35.72.72.14,1.25.41,1.6.79.32.35.48.8.48,1.34,0,.59-.23,1.1-.69,1.5ZM4.76,64.35c-.35-.33-.83-.49-1.45-.49h-.65c-.32,0-.56.06-.7.18-.14.12-.22.32-.22.58v2.53h1.57c.53,0,.98-.19,1.36-.58.35-.36.53-.76.53-1.19,0-.39-.15-.73-.44-1.02ZM5,68.01c-.41-.39-.92-.58-1.51-.58h-1.74v3.07c0,.29.07.48.22.58.12.09.36.14.7.14h.75c.67,0,1.21-.2,1.61-.59.38-.36.56-.79.56-1.3s-.19-.95-.58-1.32Z" fill="#221e1f"/>
  <path d="M149.39,72.77c-.52.46-1.12.69-1.81.69-.91,0-1.67-.36-2.29-1.08-.66-.78-.99-1.81-.99-3.1,0-1.14.29-2.1.86-2.89.59-.8,1.34-1.2,2.24-1.2.21,0,.42.02.63.06.13.04.34.1.64.19l.06.03.79-.25.77,2-.17.11c-.35-.51-.7-.91-1.07-1.21-.53-.44-1.07-.66-1.62-.66-.68,0-1.24.36-1.7,1.09-.45.72-.67,1.63-.67,2.73,0,1.03.27,1.9.81,2.59.53.69,1.19,1.04,1.98,1.04.47,0,.9-.15,1.3-.44.43-.31.81-.78,1.15-1.41l.21.09c-.28.69-.64,1.23-1.09,1.62Z" fill="#221e1f"/>
  <line x1="120.96" y1="43.74" x2="120.96" y2="66.41" fill="none" stroke="#221e1f" stroke-miterlimit="10" stroke-width=".4"/>
  <line x1="120.96" y1="43.74" x2="143.64" y2="43.74" fill="none" stroke="#221e1f" stroke-miterlimit="10" stroke-width=".4"/>
  <path d="M118.68,58.28h-4.11v-.26l2.25-2.5c.17-.2.31-.38.43-.55.14-.2.27-.4.38-.6.11-.21.19-.42.25-.62.07-.23.11-.45.11-.66,0-.24-.03-.46-.09-.66-.06-.22-.15-.42-.27-.58-.14-.19-.31-.33-.51-.43-.19-.09-.39-.13-.62-.13-.36,0-.67.1-.94.3-.26.2-.45.47-.56.82h.14c.17-.01.31.04.42.14.12.11.17.25.17.43,0,.16-.05.29-.16.41-.12.11-.25.17-.41.17-.19,0-.33-.06-.44-.18-.1-.11-.15-.26-.15-.44,0-.25.05-.5.15-.74.1-.23.24-.43.41-.61.19-.22.42-.38.68-.48.25-.1.53-.15.82-.15.32,0,.62.05.9.14.3.1.56.25.79.45.22.2.38.43.5.7.12.26.17.54.17.85,0,.29-.04.54-.13.77-.09.22-.22.44-.41.67-.17.19-.38.39-.61.6-.12.12-.32.31-.61.57l-.63.59-1.18,1.14h2.04c.22,0,.38,0,.51-.01.23-.01.37-.04.42-.08.07-.06.13-.18.18-.35.02-.09.05-.24.09-.45l.03-.18h.28l-.31,1.92Z" fill="#221e1f"/>
  <path d="M133.45,42.3h-4.11v-.26l2.25-2.5c.17-.2.31-.38.43-.55.14-.2.27-.4.38-.6.11-.21.19-.42.25-.62.07-.23.11-.45.11-.66,0-.24-.03-.46-.09-.66-.06-.22-.15-.42-.27-.58-.14-.19-.31-.33-.51-.43-.19-.09-.39-.13-.62-.13-.36,0-.67.1-.94.3-.26.2-.45.47-.56.82h.14c.17-.01.31.04.42.14.12.11.17.25.17.43,0,.16-.05.29-.16.41-.12.11-.25.17-.41.17-.19,0-.33-.06-.44-.18-.1-.11-.15-.26-.15-.44,0-.25.05-.5.15-.74.1-.23.24-.43.41-.61.19-.22.42-.38.68-.48.25-.1.53-.15.82-.15.32,0,.62.05.9.14.3.1.56.25.79.45.22.2.38.43.5.7.12.26.17.54.17.85,0,.29-.04.54-.13.77-.09.22-.22.44-.41.67-.17.19-.38.39-.61.6-.12.12-.32.31-.61.57l-.63.59-1.18,1.14h2.04c.22,0,.38,0,.51-.01.23-.01.37-.04.42-.08.07-.06.13-.18.18-.35.02-.09.05-.24.09-.45l.03-.18h.28l-.31,1.92Z" fill="#221e1f"/>
  <path d="M149.47,58.28h-4.11v-.26l2.25-2.5c.17-.2.31-.38.43-.55.14-.2.27-.4.38-.6.11-.21.19-.42.25-.62.07-.23.11-.45.11-.66,0-.24-.03-.46-.09-.66-.06-.22-.15-.42-.27-.58-.14-.19-.31-.33-.51-.43-.19-.09-.39-.13-.62-.13-.36,0-.67.1-.94.3-.26.2-.45.47-.56.82h.14c.17-.01.31.04.42.14.12.11.17.25.17.43,0,.16-.05.29-.16.41-.12.11-.25.17-.41.17-.19,0-.33-.06-.44-.18-.1-.11-.15-.26-.15-.44,0-.25.05-.5.15-.74.1-.23.24-.43.41-.61.19-.22.42-.38.68-.48.25-.1.53-.15.82-.15.32,0,.62.05.9.14.3.1.56.25.79.45.22.2.38.43.5.7.12.26.17.54.17.85,0,.29-.04.54-.13.77-.09.22-.22.44-.41.67-.17.19-.38.39-.61.6-.12.12-.32.31-.61.57l-.63.59-1.18,1.14h2.04c.22,0,.38,0,.51-.01.23-.01.37-.04.42-.08.07-.06.13-.18.18-.35.02-.09.05-.24.09-.45l.03-.18h.28l-.31,1.92Z" fill="#221e1f"/>
  <path d="M133.4,74.91h-4.11v-.26l2.25-2.5c.17-.2.31-.38.43-.55.14-.2.27-.4.38-.6.11-.21.19-.42.25-.62.07-.23.11-.45.11-.66,0-.24-.03-.46-.09-.66-.06-.22-.15-.42-.27-.58-.14-.19-.31-.33-.51-.43-.19-.09-.39-.13-.62-.13-.36,0-.67.1-.94.3-.26.2-.45.47-.56.82h.14c.17-.01.31.04.42.14.12.11.17.25.17.43,0,.16-.05.29-.16.41-.12.11-.25.17-.41.17-.19,0-.33-.06-.44-.18-.1-.11-.15-.26-.15-.44,0-.25.05-.5.15-.74.1-.23.24-.43.41-.61.19-.21.42-.38.68-.48.25-.1.53-.15.82-.15.32,0,.62.05.9.14.3.1.56.25.79.45.22.2.38.43.5.7.12.26.17.54.17.85,0,.29-.04.54-.13.77-.09.22-.22.44-.41.67-.17.19-.38.39-.61.6-.12.12-.32.31-.61.57l-.63.59-1.18,1.14h2.04c.22,0,.38,0,.51-.01.23-.01.37-.04.42-.08.07-.06.13-.18.18-.35.02-.09.05-.24.09-.45l.03-.18h.28l-.31,1.92Z" fill="#221e1f"/>
  <path d="M112.48,16.12c-.42.38-.98.57-1.66.57h-1.8v2.64c0,.28.08.48.23.6.17.14.48.2.91.2v.28h-2.89v-.28c.39,0,.66-.07.82-.2.15-.12.23-.32.23-.6v-5.85c0-.27-.08-.46-.23-.56-.15-.1-.42-.15-.82-.15v-.28h3.64c.63,0,1.16.17,1.59.52.45.37.67.86.67,1.47,0,.69-.23,1.23-.68,1.63ZM111.95,13.29c-.33-.34-.77-.52-1.31-.52h-.85c-.28,0-.48.05-.59.15-.12.11-.18.29-.18.56v2.92h1.62c.54,0,.98-.21,1.32-.62.3-.37.45-.81.45-1.3s-.15-.87-.45-1.19Z" fill="#221e1f"/>
  <path d="M124.22,78.6c-.2.19-.36.32-.48.39-.19.11-.39.16-.62.16-.32,0-.62-.13-.89-.38-.23-.22-.43-.52-.59-.9-.17.07-.34.13-.53.17-.17.04-.32.05-.47.05-1.04,0-1.87-.43-2.49-1.29-.56-.77-.84-1.72-.84-2.84s.28-2.06.84-2.85c.63-.86,1.46-1.29,2.49-1.29s1.82.43,2.46,1.29c.6.8.9,1.75.9,2.85,0,.77-.14,1.49-.43,2.16-.32.75-.77,1.26-1.33,1.51.1.24.24.45.42.62.21.21.43.31.67.31.16,0,.29-.01.4-.04.13-.03.27-.09.43-.17l.13.17-.08.06ZM122.57,71.31c-.48-.8-1.13-1.2-1.93-1.2s-1.45.4-1.93,1.2c-.44.73-.66,1.62-.66,2.67,0,.51.07,1.03.21,1.57.16.61.37,1.05.63,1.32-.04-.44.07-.76.32-.96.19-.14.46-.2.82-.2.32,0,.65.1.97.31.41.27.77.68,1.07,1.24.4-.29.7-.79.91-1.5.17-.57.26-1.16.26-1.77,0-1.05-.22-1.93-.66-2.67ZM120.68,76.32c-.24-.18-.51-.27-.81-.27-.22,0-.38.04-.49.12-.21.15-.31.44-.31.87.27.28.54.48.81.61.24.11.49.16.76.16.14,0,.28-.02.43-.08.14-.04.29-.1.44-.17-.23-.59-.51-1-.83-1.25Z" fill="#221e1f"/>
  <path d="M153.19,47.52l-2.17-3.92h-1.17v2.87c0,.27.08.47.24.59.16.12.43.18.82.18v.28h-2.81v-.28c.4,0,.67-.06.83-.18.14-.11.22-.31.22-.59v-5.92c0-.24-.07-.42-.22-.52-.16-.1-.44-.15-.83-.15v-.28h3.21c.83,0,1.48.19,1.95.56.45.35.67.82.67,1.41,0,.54-.18,1-.53,1.35-.39.39-.93.61-1.63.64l1.8,3.18c.11.19.25.33.43.4.15.06.38.1.69.1v.28h-1.5ZM152.66,40.33c-.34-.3-.8-.45-1.39-.45h-.62c-.27,0-.46.05-.59.15-.14.11-.21.28-.21.52v2.77h1.67c.56,0,.99-.18,1.28-.55.25-.31.37-.71.37-1.2,0-.53-.17-.94-.51-1.24Z" fill="#221e1f"/>
  <path d="M114.49,44.62v-.28c.43,0,.72-.05.9-.15s.26-.27.26-.5v-5.99c0-.28-.09-.47-.26-.57-.17-.1-.46-.15-.9-.15v-.28h2.98v.28c-.44,0-.74.05-.9.15-.17.1-.25.29-.25.57v5.99c0,.24.08.4.25.5s.46.15.9.15v.28h-2.98Z" fill="#221e1f"/>
  <line x1="120.96" y1="43.74" x2="112.64" y2="22.63" fill="none" stroke="#231815" stroke-miterlimit="10" stroke-width=".4"/>
  <path d="M127.5,9.55c-.12.13-.26.19-.42.19-.13,0-.23-.04-.31-.11-.08-.07-.12-.17-.12-.28,0-.14.05-.27.16-.39.1-.11.23-.18.38-.2-.08-.06-.17-.1-.27-.12-.09-.01-.18-.02-.28-.02-.3,0-.55.15-.76.44-.15.22-.27.51-.35.86l-.51,2.07c-.04.18-.06.33-.05.46,0,.17.05.31.14.44.04.06.1.12.18.16.09.04.18.06.28.06.12,0,.25-.03.39-.09.12-.05.23-.11.35-.19.17-.14.31-.3.42-.48.12-.17.21-.37.29-.59v-.03c.03-.08.05-.13.08-.15.03-.04.08-.05.15-.03.06.01.08.06.08.14,0,.05-.03.13-.07.24-.1.24-.23.46-.38.66-.17.22-.35.41-.56.55-.12.07-.24.13-.37.16-.12.04-.26.06-.4.06-.17,0-.32-.02-.45-.08-.13-.04-.24-.11-.33-.19-.11-.09-.19-.18-.26-.27-.07-.1-.11-.2-.14-.3-.14.25-.31.45-.49.59-.22.16-.44.25-.68.25-.27,0-.5-.06-.69-.17-.23-.13-.35-.32-.35-.56,0-.17.06-.32.17-.45.12-.12.26-.18.43-.18.12,0,.21.03.29.1.08.07.12.17.12.29,0,.14-.05.27-.16.39-.09.1-.21.17-.36.2.07.05.16.09.26.11.09.03.18.04.29.04.27,0,.5-.13.69-.4.15-.2.27-.45.36-.75l.45-1.76h0c.06-.28.11-.48.13-.63.04-.27.02-.47-.04-.61-.05-.11-.12-.2-.22-.26-.09-.06-.2-.09-.32-.09s-.26.02-.39.08c-.12.04-.24.11-.35.19-.17.13-.32.3-.45.52-.12.2-.22.42-.29.66-.02.05-.05.09-.09.11-.04.01-.08.01-.13,0-.06-.01-.08-.08-.05-.18.01-.06.04-.15.09-.26l.02-.03c.08-.21.2-.41.37-.6.16-.19.34-.35.54-.48.11-.08.23-.14.36-.18.12-.03.25-.04.4-.04.29,0,.54.07.75.22.21.14.36.35.45.61.1-.24.25-.43.46-.59.22-.16.45-.24.7-.24s.48.05.67.15c.24.13.36.32.36.57,0,.17-.06.31-.17.44Z" fill="#221e1f"/>
  <path d="M152.64,25.66c-.12.13-.26.19-.42.19-.13,0-.23-.04-.31-.11-.08-.07-.12-.17-.12-.28,0-.14.05-.27.16-.39.1-.11.23-.18.38-.2-.08-.06-.17-.1-.27-.12-.09-.01-.18-.02-.28-.02-.29,0-.55.15-.76.44-.15.22-.27.51-.35.86l-.51,2.07c-.04.18-.06.33-.05.46,0,.17.05.31.14.44.04.06.1.12.18.16.09.04.18.06.28.06.12,0,.25-.03.39-.09.12-.05.23-.11.35-.19.17-.14.31-.3.42-.48.12-.17.21-.37.29-.59v-.03c.03-.08.05-.13.08-.15.03-.04.08-.05.15-.03.06.01.08.06.08.14,0,.05-.03.13-.06.24-.1.24-.23.46-.38.66-.17.22-.35.41-.56.55-.12.07-.24.13-.37.16-.12.04-.26.06-.4.06-.17,0-.32-.02-.45-.08-.13-.04-.24-.11-.33-.19-.11-.09-.19-.18-.26-.27-.06-.1-.11-.2-.14-.3-.14.25-.31.45-.49.59-.22.16-.44.25-.68.25-.27,0-.5-.06-.69-.17-.23-.13-.35-.32-.35-.56,0-.17.06-.32.17-.45.12-.12.26-.18.43-.18.12,0,.21.03.29.1.08.07.12.17.12.29,0,.14-.05.27-.16.39-.09.1-.21.17-.36.2.07.05.16.09.26.11.09.03.18.04.29.04.27,0,.5-.13.69-.4.15-.2.27-.45.36-.75l.45-1.76h0c.06-.28.11-.48.13-.63.04-.27.02-.47-.04-.61-.05-.11-.12-.2-.22-.26-.09-.06-.2-.09-.32-.09-.13,0-.26.02-.39.08-.12.04-.24.11-.35.19-.17.13-.32.3-.45.52-.12.2-.22.42-.29.66-.02.05-.05.09-.09.11-.04.01-.08.01-.13,0-.06-.01-.08-.08-.05-.18.01-.06.04-.15.09-.26l.02-.03c.08-.21.2-.41.37-.6.16-.19.34-.35.54-.48.11-.08.23-.14.36-.18.11-.03.25-.04.4-.04.29,0,.54.07.75.22.21.14.36.35.45.61.1-.24.26-.43.46-.59.22-.16.45-.24.7-.24s.48.05.67.15c.24.13.36.32.36.57,0,.17-.06.31-.17.44Z" fill="#221e1f"/>
  <g>
    <path d="M62.07,81.46h-1.78c-.33,0-.63.02-.89.04v-.34h.53c.31,0,.51-.02.61-.08.16-.07.24-.22.24-.45v-5.69c-.17.08-.37.14-.59.19-.19.04-.4.08-.61.1h-.24v-.34c.06,0,.12,0,.16-.01.06,0,.13,0,.2-.01.19-.01.37-.05.56-.1.18-.04.35-.1.53-.18.1-.06.2-.12.29-.18.09-.07.18-.15.26-.23h.26v6.45c0,.24.08.39.24.45.1.05.31.08.62.08h.52v.34c-.27-.02-.56-.04-.89-.04Z" fill="#221e1f"/>
    <path d="M68.77,79.25c-.06.46-.17.86-.33,1.21-.19.4-.44.71-.77.93-.33.23-.71.34-1.14.34-.27,0-.52-.05-.76-.15-.24-.09-.46-.23-.64-.41-.36-.34-.61-.83-.75-1.49-.1-.46-.15-1.03-.15-1.71,0-.64.04-1.18.13-1.64.13-.64.35-1.14.68-1.49.2-.23.43-.4.68-.5s.53-.16.84-.16c.27,0,.53.05.77.15.23.1.45.25.66.44.34.33.59.83.73,1.49.1.47.15,1.04.15,1.72,0,.51-.03.93-.08,1.27ZM67.92,76.76c-.01-.36-.04-.66-.08-.89-.06-.37-.15-.64-.27-.82-.13-.2-.28-.35-.45-.46-.19-.11-.39-.17-.6-.17-.23,0-.44.06-.62.17-.17.1-.31.25-.43.46-.13.19-.22.48-.27.85-.04.24-.06.54-.06.89,0,.36-.01.74-.01,1.13s0,.74.01,1.12c0,.32.02.62.06.91.06.37.15.67.27.88.11.2.26.36.43.48.19.13.4.19.62.19.24,0,.45-.07.63-.2.18-.12.33-.29.45-.51.1-.2.18-.49.23-.86.03-.23.05-.53.08-.89.01-.37.02-.75.02-1.15,0-.37,0-.75-.01-1.15v.02Z" fill="#221e1f"/>
  </g>
  <g>
    <path d="M53.44,37.95h-1.78c-.33,0-.63.02-.89.04v-.34h.53c.31,0,.51-.02.61-.08.16-.07.24-.22.24-.45v-5.69c-.17.08-.37.14-.59.19-.19.04-.4.08-.61.1h-.24v-.34c.06,0,.12,0,.16-.01.06,0,.13,0,.2-.01.19-.01.37-.05.56-.1.18-.04.35-.1.53-.18.1-.06.2-.12.29-.18.09-.07.18-.15.26-.23h.26v6.45c0,.24.08.39.24.45.1.05.31.08.62.08h.52v.34c-.27-.02-.56-.04-.89-.04Z" fill="#221e1f"/>
    <path d="M60.13,35.74c-.06.46-.17.86-.33,1.21-.19.4-.44.71-.77.93-.33.23-.71.34-1.14.34-.27,0-.52-.05-.76-.15-.24-.09-.46-.23-.64-.41-.36-.34-.61-.83-.75-1.49-.1-.46-.15-1.03-.15-1.71,0-.64.04-1.18.13-1.64.13-.64.35-1.14.68-1.49.2-.23.43-.4.68-.5s.53-.16.84-.16c.27,0,.53.05.77.15.23.1.45.25.66.44.34.33.59.83.73,1.49.1.47.15,1.04.15,1.72,0,.51-.03.93-.08,1.27ZM59.28,33.25c-.01-.36-.04-.65-.08-.89-.06-.36-.15-.64-.27-.82-.13-.2-.28-.35-.45-.46-.19-.11-.39-.17-.6-.17-.23,0-.44.06-.62.17-.17.1-.31.25-.43.46-.13.19-.22.48-.27.85-.04.24-.06.54-.06.89,0,.36-.01.74-.01,1.13s0,.74.01,1.12c0,.31.02.62.06.91.06.37.15.67.27.88.11.2.26.36.43.48.19.13.4.19.62.19.24,0,.45-.07.63-.2.18-.12.33-.29.45-.51.1-.2.18-.49.23-.86.03-.23.05-.53.08-.89.01-.37.02-.75.02-1.15,0-.37,0-.75-.01-1.15v.02Z" fill="#221e1f"/>
  </g>
</svg>