<?xml version="1.0" encoding="UTF-8"?>
<svg id="_레이어_1" data-name="레이어 1" xmlns="http://www.w3.org/2000/svg" width="113.4" height="152.65" viewBox="0 0 113.4 152.65">
  <polyline points="105.19 48.47 8 48.47 85.75 9.6 105.19 48.47 105.19 145.66 8 145.66 8 48.47" fill="none" stroke="#221e1f" stroke-linejoin="round" stroke-width=".75"/>
  <polyline points="89.62 17.12 82.01 20.92 78.21 13.32" fill="none" stroke="#221e1f" stroke-miterlimit="10" stroke-width=".4"/>
  <path d="M86.81,8.09v-.28c.48,0,.79-.05.93-.14.15-.11.17-.31.06-.61l-.65-1.84h-3.06l-.51,1.59c-.14.4-.14.67,0,.81.13.13.44.19.94.19v.28h-2.41v-.28c.31,0,.54-.06.68-.19.15-.14.31-.46.49-.95l2.19-6.41.61-.27,2.43,7.03c.09.29.23.5.4.61.17.11.4.17.7.17v.28h-2.81ZM85.61.81l-1.4,4.09h2.83l-1.43-4.09Z" fill="#221e1f"/>
  <path d="M5.63,51.77c-.51.44-1.21.67-2.09.67H0v-.28c.42,0,.7-.05.83-.14.14-.09.22-.29.22-.58v-5.88c0-.27-.07-.47-.22-.58-.16-.12-.44-.18-.83-.18v-.28h3.33c.82,0,1.47.18,1.96.53.46.34.69.78.69,1.33,0,.41-.13.76-.38,1.04-.29.32-.74.56-1.35.72.72.14,1.25.41,1.6.79.32.35.48.8.48,1.34,0,.59-.23,1.1-.69,1.5ZM4.76,45.29c-.35-.33-.83-.49-1.45-.49h-.65c-.32,0-.56.06-.7.18-.14.12-.22.32-.22.58v2.53h1.57c.53,0,.98-.19,1.36-.58.35-.36.53-.76.53-1.19,0-.39-.15-.73-.44-1.02ZM5,48.94c-.41-.39-.92-.58-1.51-.58h-1.74v3.07c0,.29.07.48.22.58.12.09.36.14.7.14h.75c.67,0,1.21-.2,1.61-.59.38-.36.56-.79.56-1.3s-.19-.95-.58-1.32Z" fill="#221e1f"/>
  <path d="M112.31,52.38c-.52.46-1.12.69-1.81.69-.91,0-1.67-.36-2.29-1.08-.66-.78-.99-1.81-.99-3.1,0-1.14.29-2.1.86-2.89.59-.8,1.34-1.2,2.24-1.2.21,0,.42.02.63.06.13.04.34.1.64.19l.06.03.79-.25.77,2-.17.11c-.35-.51-.7-.91-1.07-1.21-.53-.44-1.07-.66-1.62-.66-.68,0-1.24.36-1.7,1.09-.45.72-.67,1.63-.67,2.73,0,1.03.27,1.9.81,2.59.53.69,1.19,1.04,1.98,1.04.47,0,.9-.15,1.3-.44.43-.31.81-.78,1.15-1.41l.21.09c-.28.69-.64,1.23-1.09,1.62Z" fill="#221e1f"/>
  <path d="M5.97,151.41c-.68.83-1.66,1.25-2.92,1.25H.08v-.28c.38,0,.65-.06.81-.18.16-.12.24-.33.24-.62v-5.81c0-.26-.08-.45-.24-.57-.17-.12-.44-.17-.81-.17v-.28h2.97c1.26,0,2.23.41,2.92,1.24.61.72.91,1.62.91,2.72s-.3,2-.91,2.72ZM5.35,146.16c-.57-.77-1.34-1.15-2.3-1.15h-.33c-.31,0-.54.06-.68.17-.14.12-.21.31-.21.57v5.81c0,.29.07.49.21.62.14.12.36.18.68.18h.33c.97,0,1.73-.38,2.3-1.15.51-.69.77-1.53.77-2.54s-.26-1.84-.77-2.53Z" fill="#221e1f"/>
  <path d="M111.76,152.65h-5.59v-.28c.38,0,.64-.06.8-.18.17-.11.25-.31.25-.58v-5.89c0-.26-.08-.44-.25-.55-.16-.11-.42-.16-.8-.16v-.28h5.31l.78,1.88-.17.11-.25-.33c-.32-.44-.6-.76-.85-.93-.42-.29-.96-.44-1.6-.44h-.59c-.29,0-.51.05-.65.16-.14.11-.22.3-.22.55v2.64h1.18c.4,0,.7-.1.9-.3.21-.21.31-.57.31-1.07h.27v3.09h-.27c0-.48-.1-.84-.31-1.07-.2-.22-.5-.33-.9-.33h-1.18v2.93c0,.26.07.46.22.58.14.12.36.18.67.18h.55c.63,0,1.17-.14,1.62-.42.43-.26.88-.71,1.33-1.33l.21.1-.76,1.93Z" fill="#221e1f"/>
  <g>
    <path d="M106.57,29.36c.07.2.13.39.2.59" fill="none" stroke="#221e1f" stroke-miterlimit="10" stroke-width=".4"/>
    <path d="M107.05,30.85c2.04,6.88,1.67,13.28-1,16.94" fill="none" stroke="#221e1f" stroke-dasharray="1.3 .95" stroke-miterlimit="10" stroke-width=".4"/>
    <path d="M105.76,48.16c-.13.16-.27.32-.41.46" fill="none" stroke="#221e1f" stroke-miterlimit="10" stroke-width=".4"/>
  </g>
  <g>
    <path d="M85.79,9.56c.2-.02.41-.04.62-.05" fill="none" stroke="#221e1f" stroke-miterlimit="10" stroke-width=".4"/>
    <path d="M87.27,9.52c4.66.25,10.1,4.08,14.36,10.15" fill="none" stroke="#221e1f" stroke-dasharray="1.19 .87" stroke-miterlimit="10" stroke-width=".4"/>
    <path d="M101.88,20.03c.12.17.23.34.35.52" fill="none" stroke="#221e1f" stroke-miterlimit="10" stroke-width=".4"/>
  </g>
  <g>
    <path d="M102.58,28.41h-1.79c-.33,0-.63.02-.89.04v-.34h.53c.31,0,.51-.02.61-.07.16-.07.24-.22.24-.45v-5.68c-.17.08-.37.14-.59.19-.19.04-.4.08-.62.1h-.24v-.34c.07,0,.12,0,.16-.01.06,0,.13,0,.21-.01.19-.01.37-.05.56-.1.18-.04.36-.1.53-.18.1-.06.2-.12.29-.18.09-.07.18-.15.26-.23h.26v6.44c0,.24.08.39.24.45.1.05.31.07.62.07h.52v.34c-.27-.02-.56-.04-.89-.04Z"/>
    <path d="M109,27.17c-.12.32-.28.6-.5.84-.22.22-.47.39-.73.5-.27.12-.56.18-.86.18s-.6-.07-.87-.2c-.27-.13-.49-.31-.67-.55-.29-.39-.5-.86-.62-1.44-.09-.44-.14-.94-.14-1.52,0-.54.07-1.04.21-1.5.16-.51.4-.95.71-1.33.24-.31.53-.56.87-.73.35-.19.72-.28,1.11-.28.23,0,.43.03.6.08.17.06.32.15.45.27.12.11.2.24.26.38s.09.29.09.46c0,.15-.05.28-.14.38-.1.11-.22.16-.37.16-.15,0-.27-.05-.37-.15-.09-.09-.14-.21-.14-.35,0-.19.06-.32.17-.4.1-.06.24-.1.43-.1-.09-.15-.24-.26-.43-.34-.17-.06-.34-.1-.54-.1-.42,0-.8.16-1.12.49-.27.27-.47.61-.59,1.01-.07.22-.13.46-.16.73-.04.29-.05.61-.05.94v.26c.12-.33.3-.59.53-.77.24-.21.53-.31.86-.31.29,0,.58.06.84.17.27.12.5.3.71.53.21.23.37.5.47.81.11.29.16.6.16.93s-.06.65-.17.95ZM108.18,26.08c0-.31-.01-.55-.03-.72-.02-.27-.08-.49-.16-.65-.12-.23-.26-.4-.41-.5-.17-.12-.37-.18-.6-.18s-.44.06-.61.17c-.16.1-.3.26-.43.48-.11.17-.19.38-.25.62-.04.21-.06.44-.06.69,0,.21,0,.4.01.57,0,.21.03.4.07.58.06.34.18.63.38.86.23.27.51.41.84.41.24,0,.46-.07.66-.2.18-.12.32-.29.43-.51.08-.18.13-.4.16-.67.01-.15.02-.38.02-.69v-.25Z"/>
  </g>
</svg>