<svg id="레이어_1" data-name="레이어 1" xmlns="http://www.w3.org/2000/svg" width="177.95" height="170.83" viewBox="0 0 177.95 170.83">
  <circle cx="85.41" cy="85.41" r="85.04" fill="#dcdddd" stroke="#000" stroke-miterlimit="10" stroke-width="0.75"/>
  <circle cx="85.41" cy="85.41" r="42.52" fill="#fff" stroke="#000" stroke-miterlimit="10" stroke-width="0.75"/>
  <line x1="85.41" y1="85.41" x2="169.08" y2="70.66" fill="none" stroke="#000" stroke-miterlimit="10" stroke-width="0.4"/>
  <line x1="85.41" y1="85.41" x2="99.96" y2="45.46" fill="none" stroke="#000" stroke-miterlimit="10" stroke-width="0.4"/>
  <line x1="30.71" y1="20.3" x2="169.08" y2="70.66" fill="none" stroke="#000" stroke-miterlimit="10" stroke-width="0.4"/>
  <g>
    <path d="M155.45,67.28l-.61-.11" transform="translate(-34.03 -23.4)" fill="none" stroke="#221e1f" stroke-miterlimit="10" stroke-width="0.4"/>
    <path d="M153.93,67c-8.48-1.28-15.32-1-18.94,1.06" transform="translate(-34.03 -23.4)" fill="none" stroke="#221e1f" stroke-miterlimit="10" stroke-width="0.4" stroke-dasharray="1.27 0.92"/>
    <path d="M134.6,68.32c-.18.11-.35.23-.51.35" transform="translate(-34.03 -23.4)" fill="none" stroke="#221e1f" stroke-miterlimit="10" stroke-width="0.4"/>
  </g>
  <g>
    <path d="M202.88,93.73c0-.19-.11-.39-.18-.59" transform="translate(-34.03 -23.4)" fill="none" stroke="#221e1f" stroke-miterlimit="10" stroke-width="0.4"/>
    <path d="M202.35,92.29c-2.24-4.69-9.64-10.53-20-15.9" transform="translate(-34.03 -23.4)" fill="none" stroke="#221e1f" stroke-miterlimit="10" stroke-width="0.4" stroke-dasharray="1.27 0.92"/>
    <path d="M181.93,76.17l-.55-.28" transform="translate(-34.03 -23.4)" fill="none" stroke="#221e1f" stroke-miterlimit="10" stroke-width="0.4"/>
  </g>
  <path d="M209.17,95.49v-.28a1.82,1.82,0,0,0,.93-.14c.15-.1.17-.31.07-.61l-.65-1.84h-3.06L206,94.21q-.19.6,0,.81a1.48,1.48,0,0,0,.94.19v.28h-2.41v-.28a1,1,0,0,0,.68-.19,2.56,2.56,0,0,0,.49-1l2.19-6.4.61-.27,2.43,7a1.09,1.09,0,0,0,.4.61,1.27,1.27,0,0,0,.7.17v.28ZM208,88.21l-1.4,4.09h2.83Z" transform="translate(-34.03 -23.4)" fill="#221e1f"/>
  <path d="M64.17,42.28a3.05,3.05,0,0,1-2.09.67H58.54v-.28a1.71,1.71,0,0,0,.83-.14.65.65,0,0,0,.22-.58V36.07a.72.72,0,0,0-.22-.58,1.44,1.44,0,0,0-.83-.18V35h3.33a3.24,3.24,0,0,1,2,.53,1.56,1.56,0,0,1,.69,1.33,1.47,1.47,0,0,1-.38,1,2.62,2.62,0,0,1-1.35.72,2.81,2.81,0,0,1,1.6.79,2,2,0,0,1-.21,2.84ZM63.3,35.8a2,2,0,0,0-1.44-.49h-.65a1.12,1.12,0,0,0-.71.18.73.73,0,0,0-.21.58V38.6h1.57A1.89,1.89,0,0,0,63.22,38a1.69,1.69,0,0,0,.53-1.2A1.37,1.37,0,0,0,63.3,35.8Zm.24,3.66A2.1,2.1,0,0,0,62,38.88H60.29V42a.67.67,0,0,0,.21.58,1.3,1.3,0,0,0,.71.14H62a2.22,2.22,0,0,0,1.61-.59,1.71,1.71,0,0,0,.56-1.3A1.75,1.75,0,0,0,63.54,39.46Z" transform="translate(-34.03 -23.4)" fill="#221e1f"/>
  <path d="M117.18,117.2a3,3,0,0,1-4.91,0,4.63,4.63,0,0,1-.85-2.83,4.7,4.7,0,0,1,.85-2.85,3,3,0,0,1,4.91,0,4.7,4.7,0,0,1,.85,2.85A4.63,4.63,0,0,1,117.18,117.2Zm-.56-5.49a2.1,2.1,0,0,0-3.8,0,5.13,5.13,0,0,0-.66,2.67,5,5,0,0,0,.66,2.63,2.1,2.1,0,0,0,3.8,0,5,5,0,0,0,.66-2.63A5.13,5.13,0,0,0,116.62,111.71Z" transform="translate(-34.03 -23.4)" fill="#221e1f"/>
  <path d="M136.43,62a2.39,2.39,0,0,1-1.66.57H133v2.65a.73.73,0,0,0,.23.6,1.57,1.57,0,0,0,.91.2v.28h-2.89V66a1.29,1.29,0,0,0,.82-.2.7.7,0,0,0,.23-.6V59.36a.61.61,0,0,0-.23-.56,1.58,1.58,0,0,0-.82-.15v-.28h3.65a2.39,2.39,0,0,1,1.58.52,1.8,1.8,0,0,1,.67,1.47A2,2,0,0,1,136.43,62Zm-.53-2.82a1.7,1.7,0,0,0-1.3-.52h-.86a.89.89,0,0,0-.59.15.72.72,0,0,0-.19.56v2.92h1.63a1.59,1.59,0,0,0,1.31-.62,2,2,0,0,0,.46-1.3A1.64,1.64,0,0,0,135.9,59.17Z" transform="translate(-34.03 -23.4)" fill="#221e1f"/>
  <circle cx="85.41" cy="85.41" r="1.42" fill="#221e1f"/>
  <polyline points="108.08 48.5 105.17 56.49 97.18 53.58" fill="none" stroke="#221e1f" stroke-miterlimit="10" stroke-width="0.4"/>
  <g>
    <path d="M163.22,112.58l-.61.1" transform="translate(-34.03 -23.4)" fill="none" stroke="#221e1f" stroke-miterlimit="10" stroke-width="0.4"/>
    <path d="M161.72,112.83c-19.08,3.14-35.7,1.65-41.51-3.29" transform="translate(-34.03 -23.4)" fill="none" stroke="#221e1f" stroke-miterlimit="10" stroke-width="0.4" stroke-dasharray="1.24 0.9"/>
    <path d="M119.87,109.24c-.15-.14-.29-.29-.43-.44" transform="translate(-34.03 -23.4)" fill="none" stroke="#221e1f" stroke-miterlimit="10" stroke-width="0.4"/>
  </g>
  <g>
    <path d="M203.07,94c-.07.18-.16.37-.25.56" transform="translate(-34.03 -23.4)" fill="none" stroke="#221e1f" stroke-miterlimit="10" stroke-width="0.4"/>
    <path d="M202.36,95.4c-3.42,5.4-14.24,11.06-28.46,14.83" transform="translate(-34.03 -23.4)" fill="none" stroke="#221e1f" stroke-miterlimit="10" stroke-width="0.4" stroke-dasharray="1.28 0.93"/>
    <path d="M173.44,110.35l-.6.16" transform="translate(-34.03 -23.4)" fill="none" stroke="#221e1f" stroke-miterlimit="10" stroke-width="0.4"/>
  </g>
  <g>
    <path d="M118.31,89.86c0,.21-.11.41-.16.6" transform="translate(-34.03 -23.4)" fill="none" stroke="#221e1f" stroke-miterlimit="10" stroke-width="0.4"/>
    <path d="M117.92,91.36c-1.71,7.13-1.38,13.43.83,16.6" transform="translate(-34.03 -23.4)" fill="none" stroke="#221e1f" stroke-miterlimit="10" stroke-width="0.4" stroke-dasharray="1.27 0.92"/>
    <path d="M119,108.32a6,6,0,0,0,.42.46" transform="translate(-34.03 -23.4)" fill="none" stroke="#221e1f" stroke-miterlimit="10" stroke-width="0.4"/>
  </g>
  <g>
    <path d="M134,68.89c-.2,0-.41,0-.61.09" transform="translate(-34.03 -23.4)" fill="none" stroke="#221e1f" stroke-miterlimit="10" stroke-width="0.4"/>
    <path d="M132.47,69.21c-3.71,1.26-7.9,5.94-11.07,12.46" transform="translate(-34.03 -23.4)" fill="none" stroke="#221e1f" stroke-miterlimit="10" stroke-width="0.4" stroke-dasharray="1.27 0.92"/>
    <path d="M121.2,82.09l-.26.56" transform="translate(-34.03 -23.4)" fill="none" stroke="#221e1f" stroke-miterlimit="10" stroke-width="0.4"/>
  </g>
  <path d="M122.66,85.12a.56.56,0,0,1-.43.19.44.44,0,0,1-.3-.1.36.36,0,0,1-.12-.29.52.52,0,0,1,.16-.4.76.76,0,0,1,.41-.2l-.17-.08a.92.92,0,0,0-.29,0,1.35,1.35,0,0,0-.41.06,1.3,1.3,0,0,0-.37.19,2.49,2.49,0,0,0-.44.49,1.84,1.84,0,0,0-.29.55l-.77,3.08a.44.44,0,0,1-.54.34.25.25,0,0,1-.2-.18.7.7,0,0,1,0-.3c0-.21.1-.47.19-.78s.11-.49.22-.9l.39-1.48a3.54,3.54,0,0,0,.09-.67c0-.27-.13-.4-.35-.4a.44.44,0,0,0-.28.08.59.59,0,0,0-.19.26,4.08,4.08,0,0,0-.19.42q-.07.26-.15.54l0,0a.62.62,0,0,1,0,.14.12.12,0,0,1-.12.06.12.12,0,0,1-.12,0,.27.27,0,0,1,0-.13v-.06c.06-.24.11-.43.16-.57a2.73,2.73,0,0,1,.24-.54.93.93,0,0,1,.3-.32.8.8,0,0,1,.43-.12,1.29,1.29,0,0,1,.35,0,2,2,0,0,1,.32.18,1.13,1.13,0,0,1,.22.27,1.2,1.2,0,0,1,.12.35,1.48,1.48,0,0,1,.23-.3,2.09,2.09,0,0,1,.28-.24,1.75,1.75,0,0,1,.42-.23,1.51,1.51,0,0,1,.48-.07,1.09,1.09,0,0,1,.61.16.64.64,0,0,1,.32.55A.65.65,0,0,1,122.66,85.12Z" transform="translate(-34.03 -23.4)" fill="#221e1f"/>
  <path d="M171.42,114.88a2.42,2.42,0,0,1-.27.36,1.35,1.35,0,0,1-.47.35,1.25,1.25,0,0,1-.53.13,1.82,1.82,0,0,1-.88-.19.82.82,0,0,1-.49-.6,1.27,1.27,0,0,1,0-.58,4.34,4.34,0,0,1,.17-.61l0,0,.16-.48a1.3,1.3,0,0,0,0-.72.76.76,0,0,0-.36-.49.84.84,0,0,0-.31-.12,1.31,1.31,0,0,0-.37,0h-1.25l-.93,2.78,0,0a.73.73,0,0,0,0,.21.25.25,0,0,0,0,.18.79.79,0,0,0,.34.09l.39,0h.26l-.12.34-.36,0a5.82,5.82,0,0,0-.61,0h-1.43c-.3,0-.57,0-.81,0l.12-.34H164l.38,0a1.32,1.32,0,0,0,.39-.09.49.49,0,0,0,.17-.18.87.87,0,0,0,.09-.21v0l1.93-5.79v0a.68.68,0,0,0,0-.2.14.14,0,0,0,0-.16c0-.06-.16-.09-.34-.11H166l.12-.34h3.45a3.53,3.53,0,0,1,1,.13,1.89,1.89,0,0,1,.81.46,1.44,1.44,0,0,1,.4.59,1.19,1.19,0,0,1,0,.79,2.14,2.14,0,0,1-.68.93,4.09,4.09,0,0,1-1,.6l-.41.15-.43.13a1.64,1.64,0,0,1,.38.18,2.32,2.32,0,0,1,.3.26,1,1,0,0,1,.23.63,4.52,4.52,0,0,1-.08.75l-.05.32-.06.23a4,4,0,0,0-.11.88c0,.32.15.48.41.48a.88.88,0,0,0,.65-.33,2.5,2.5,0,0,0,.41-.65h0a.91.91,0,0,1,.06-.11.14.14,0,0,1,.12-.06c.06,0,.1,0,.11,0a.29.29,0,0,1,0,.14A2.11,2.11,0,0,1,171.42,114.88Zm-.66-5.46a1,1,0,0,0,0-.39.84.84,0,0,0-.38-.5,1.56,1.56,0,0,0-.63-.19l-.57,0h-.56a1,1,0,0,0-.48.08,1,1,0,0,0-.19.39L167,111.6h1.21a4,4,0,0,0,.55,0,2.4,2.4,0,0,0,.48-.1,2.27,2.27,0,0,0,.91-.6,2.7,2.7,0,0,0,.5-.92A2,2,0,0,0,170.76,109.42Z" transform="translate(-34.03 -23.4)" fill="#221e1f"/>
  <path d="M163.12,73a1.84,1.84,0,0,1-.48.66,2.23,2.23,0,0,1-.76.44,2.4,2.4,0,0,1-.87.17,2.93,2.93,0,0,1-.83-.13,2.25,2.25,0,0,1-.74-.38,1.83,1.83,0,0,1-.52-.63,1.71,1.71,0,0,1-.18-.77,1.87,1.87,0,0,1,.14-.71,1.8,1.8,0,0,1,.41-.59,2.73,2.73,0,0,1,.48-.41,3.26,3.26,0,0,1,.55-.31l-.13-.09a5,5,0,0,1-.51-.37,1.8,1.8,0,0,1-.43-.52,2.4,2.4,0,0,1-.17-.41,2,2,0,0,1-.05-.42,1.8,1.8,0,0,1,.15-.73,1.75,1.75,0,0,1,.44-.58,2.1,2.1,0,0,1,.65-.41,2.38,2.38,0,0,1,.76-.13,2.46,2.46,0,0,1,.72.11,1.8,1.8,0,0,1,.64.34,1.23,1.23,0,0,1,.45.51,1.42,1.42,0,0,1,.18.69,1.32,1.32,0,0,1-.1.51,1.5,1.5,0,0,1-.27.45,4.18,4.18,0,0,1-.44.4,2.83,2.83,0,0,1-.53.34l.44.28a3.05,3.05,0,0,1,.65.5,1.9,1.9,0,0,1,.43.72,2,2,0,0,1,.08.33,1.71,1.71,0,0,1,0,.31A1.9,1.9,0,0,1,163.12,73Zm-.45-.86a1,1,0,0,0-.2-.35,2.53,2.53,0,0,0-.49-.41l-.6-.38-.21-.13-.6-.37a2.86,2.86,0,0,0-.6.41,1.55,1.55,0,0,0-.39.47,2.59,2.59,0,0,0-.23.48,2.14,2.14,0,0,0-.06.5,1.5,1.5,0,0,0,.13.62,1.27,1.27,0,0,0,.38.51,1.65,1.65,0,0,0,.57.35A1.84,1.84,0,0,0,161,74a2,2,0,0,0,.63-.1,2.51,2.51,0,0,0,.57-.28,1.48,1.48,0,0,0,.38-.46,1.06,1.06,0,0,0,.15-.55A1.07,1.07,0,0,0,162.67,72.13Zm-.26-4.36a1.27,1.27,0,0,0-.33-.43,1.42,1.42,0,0,0-.51-.29A1.74,1.74,0,0,0,161,67a2.59,2.59,0,0,0-.55.07,1.6,1.6,0,0,0-.47.24,1.09,1.09,0,0,0-.35.36,1,1,0,0,0-.12.48.85.85,0,0,0,.16.5,1.25,1.25,0,0,0,.38.38l1.38.88a5.15,5.15,0,0,0,.45-.32,2.85,2.85,0,0,0,.34-.36,1.44,1.44,0,0,0,.23-.42,1.31,1.31,0,0,0,.07-.44A1.26,1.26,0,0,0,162.41,67.77Z" transform="translate(-34.03 -23.4)"/>
  <path d="M169.37,75.31l0,0-.09.14a.16.16,0,0,1-.14,0h-.2l-2-5.15-.78.64-.17-.19,1.54-1.28,1.88,4.73,4.88-10.71h.27v.46Z" transform="translate(-34.03 -23.4)"/>
  <path d="M173.75,64v-.44h7.07V64Z" transform="translate(-34.03 -23.4)"/>
  <path d="M178.85,72.93a2.41,2.41,0,0,1-.49.68,2.22,2.22,0,0,1-.78.48,2.53,2.53,0,0,1-.91.17,2.06,2.06,0,0,1-.44,0,3.53,3.53,0,0,1-.4-.08,2.14,2.14,0,0,1-1-.58,1.49,1.49,0,0,1-.41-1,.68.68,0,0,1,.15-.47.69.69,0,0,1,.91,0,.61.61,0,0,1,.17.45.58.58,0,0,1-.22.48.62.62,0,0,1-.5.12,1.49,1.49,0,0,0,.7.62,2.3,2.3,0,0,0,1,.22,1.07,1.07,0,0,0,.43-.09,1.15,1.15,0,0,0,.37-.25,1.83,1.83,0,0,0,.34-.7,2.68,2.68,0,0,0,.1-.78c0-.15,0-.28,0-.39s0-.25-.06-.35a1.49,1.49,0,0,0-.42-.8,1.15,1.15,0,0,0-.81-.29h-.51a.34.34,0,0,1-.16,0,.12.12,0,0,1-.08-.12.16.16,0,0,1,0-.12h.43l.35,0a1,1,0,0,0,.58-.34,1.72,1.72,0,0,0,.35-.6c0-.17.07-.32.09-.44a2.28,2.28,0,0,0,.05-.44,1.74,1.74,0,0,0-.08-.53,1,1,0,0,0-.28-.45A.83.83,0,0,0,177,67a1.06,1.06,0,0,0-.37-.06,1.69,1.69,0,0,0-.38,0l-.38.09a1.74,1.74,0,0,0-.4.23,1,1,0,0,0-.31.32h.19a.64.64,0,0,1,.37.17.48.48,0,0,1,.13.37.55.55,0,0,1-.56.56.54.54,0,0,1-.42-.16.58.58,0,0,1-.15-.41,1.26,1.26,0,0,1,.36-.88,1.93,1.93,0,0,1,.82-.5,2,2,0,0,1,.37-.09,2.73,2.73,0,0,1,.41,0,3.07,3.07,0,0,1,.74.1,2.3,2.3,0,0,1,.65.31,1.78,1.78,0,0,1,.47.48,1.21,1.21,0,0,1,.18.63,1.58,1.58,0,0,1-.13.63,2.87,2.87,0,0,1-.31.56,2.76,2.76,0,0,1-1.11.76,2.34,2.34,0,0,1,1,.44,2.09,2.09,0,0,1,.69.89,2.23,2.23,0,0,1,.09.32,1.42,1.42,0,0,1,0,.34A1.87,1.87,0,0,1,178.85,72.93Z" transform="translate(-34.03 -23.4)"/>
</svg>
