<?xml version="1.0" encoding="UTF-8"?>
<svg id="_레이어_1" data-name="레이어 1" xmlns="http://www.w3.org/2000/svg" width="151.93" height="182.17" viewBox="0 0 151.93 182.17">
  <polygon points="111.24 111.24 40.69 111.24 111.24 70.93 111.24 111.24" fill="#dcdddd"/>
  <polygon points="111.24 111.24 151.56 111.24 111.24 181.79 111.24 111.24" fill="#dcdddd"/>
  <polygon points="111.24 70.93 70.93 .38 151.56 70.93 111.24 70.93" fill="#dcdddd"/>
  <polyline points=".37 40.69 40.69 111.24 .37 40.69 40.69 181.79 40.69 111.24" fill="#dcdddd"/>
  <line x1="40.69" y1="111.24" x2="111.24" y2="111.24" fill="none" stroke="#221e1f" stroke-miterlimit="10" stroke-width=".75"/>
  <line x1="111.24" y1="70.93" x2="111.24" y2="111.24" fill="none" stroke="#221e1f" stroke-miterlimit="10" stroke-width=".75"/>
  <line x1="40.69" y1="111.24" x2="111.24" y2="70.93" fill="none" stroke="#221e1f" stroke-miterlimit="10" stroke-width=".75"/>
  <line x1="40.69" y1="111.24" x2=".38" y2="40.69" fill="none" stroke="#221e1f" stroke-miterlimit="10" stroke-width=".75"/>
  <polygon points="111.24 111.24 151.56 111.24 151.56 70.93 111.24 70.93 70.93 .38 .38 40.69 40.69 111.24 40.69 181.79 111.24 181.79 111.24 111.24" fill="none" stroke="#221e1f" stroke-linejoin="round" stroke-width=".75"/>
  <line x1=".38" y1="40.69" x2="40.69" y2="181.79" fill="none" stroke="#221e1f" stroke-miterlimit="10" stroke-width=".4"/>
  <line x1="111.24" y1="181.79" x2="151.56" y2="111.24" fill="none" stroke="#221e1f" stroke-miterlimit="10" stroke-width=".4"/>
  <line x1="70.93" y1=".38" x2="151.56" y2="70.93" fill="none" stroke="#221e1f" stroke-miterlimit="10" stroke-width=".4"/>
  <polyline points="111.24 105.42 105.57 105.42 105.57 111.09" fill="none" stroke="#221e1f" stroke-miterlimit="10" stroke-width=".4"/>
  <path d="M36.91,117.99v-.28c.48,0,.79-.05.93-.14.15-.11.17-.31.06-.61l-.65-1.84h-3.06l-.51,1.59c-.14.4-.14.67,0,.81.13.13.44.19.94.19v.28h-2.41v-.28c.31,0,.54-.06.68-.19.15-.14.31-.46.49-.95l2.19-6.41.61-.27,2.43,7.03c.09.29.23.5.4.61.17.11.4.17.7.17v.28h-2.81ZM35.71,110.7l-1.4,4.09h2.83l-1.43-4.09Z" fill="#221e1f"/>
  <path d="M117.84,119.64c-.51.44-1.21.67-2.09.67h-3.54v-.28c.42,0,.7-.05.83-.14.14-.09.22-.29.22-.58v-5.88c0-.27-.07-.47-.22-.58-.16-.12-.44-.18-.83-.18v-.28h3.33c.82,0,1.47.18,1.96.53.46.34.69.78.69,1.33,0,.41-.13.76-.38,1.04-.29.32-.74.56-1.35.72.72.14,1.25.41,1.6.79.32.35.48.8.48,1.34,0,.59-.23,1.1-.69,1.5ZM116.97,113.16c-.35-.33-.83-.49-1.45-.49h-.65c-.32,0-.56.06-.7.18-.14.12-.22.32-.22.58v2.53h1.57c.53,0,.98-.19,1.36-.58.35-.36.53-.76.53-1.19,0-.39-.15-.73-.44-1.02ZM117.21,116.81c-.41-.39-.92-.58-1.51-.58h-1.74v3.07c0,.29.07.48.22.58.12.09.36.14.7.14h.75c.67,0,1.21-.2,1.61-.59.38-.36.56-.79.56-1.3s-.19-.95-.58-1.32Z" fill="#221e1f"/>
  <path d="M115.96,69.03c-.52.46-1.12.69-1.81.69-.91,0-1.67-.36-2.29-1.08-.66-.78-.99-1.81-.99-3.1,0-1.14.29-2.1.86-2.89.59-.8,1.34-1.2,2.24-1.2.21,0,.42.02.63.06.13.04.34.1.64.19l.06.03.79-.25.77,2-.17.11c-.35-.51-.7-.91-1.07-1.21-.53-.44-1.07-.66-1.62-.66-.68,0-1.24.36-1.7,1.09-.45.72-.67,1.63-.67,2.73,0,1.03.27,1.9.81,2.59.53.69,1.19,1.04,1.98,1.04.47,0,.9-.15,1.3-.44.43-.31.81-.78,1.15-1.41l.21.09c-.28.69-.64,1.23-1.09,1.62Z" fill="#221e1f"/>
  <g>
    <path d="M86.94,119.5c.21-.02.41-.04.62-.06" fill="none" stroke="#221e1f" stroke-miterlimit="10" stroke-width=".4"/>
    <path d="M88.48,119.34c10.65-1.2,18.92-3.9,22.09-7.25" fill="none" stroke="#221e1f" stroke-dasharray="1.27 .92" stroke-miterlimit="10" stroke-width=".4"/>
    <path d="M110.87,111.75c.14-.16.26-.33.37-.49" fill="none" stroke="#221e1f" stroke-miterlimit="10" stroke-width=".4"/>
  </g>
  <g>
    <path d="M40.69,111.24c.11.17.23.33.37.5" fill="none" stroke="#221e1f" stroke-miterlimit="10" stroke-width=".4"/>
    <path d="M41.7,112.42c3.48,3.29,11.93,5.91,22.65,7.02" fill="none" stroke="#221e1f" stroke-dasharray="1.29 .94" stroke-miterlimit="10" stroke-width=".4"/>
    <path d="M64.82,119.49c.21.02.41.04.62.06" fill="none" stroke="#221e1f" stroke-miterlimit="10" stroke-width=".4"/>
  </g>
  <g>
    <path d="M119.74,86.5c-.03-.21-.05-.41-.08-.62" fill="none" stroke="#221e1f" stroke-miterlimit="10" stroke-width=".4"/>
    <path d="M119.53,85.04c-1.08-6.43-3.84-11.5-7.33-13.43" fill="none" stroke="#221e1f" stroke-dasharray="1.17 .85" stroke-miterlimit="10" stroke-width=".4"/>
    <path d="M111.82,71.42c-.19-.09-.38-.17-.57-.24" fill="none" stroke="#221e1f" stroke-miterlimit="10" stroke-width=".4"/>
  </g>
  <g>
    <path d="M111.24,111.09c.19-.07.38-.15.57-.24" fill="none" stroke="#221e1f" stroke-miterlimit="10" stroke-width=".4"/>
    <path d="M112.59,110.41c3.54-2.24,6.27-7.76,7.14-14.6" fill="none" stroke="#221e1f" stroke-dasharray="1.24 .9" stroke-miterlimit="10" stroke-width=".4"/>
    <path d="M119.79,95.35c.02-.2.04-.41.06-.62" fill="none" stroke="#221e1f" stroke-miterlimit="10" stroke-width=".4"/>
  </g>
  <g>
    <path d="M69.18,118.25c-.25.34-.44.8-.58,1.38-.1.41-.16.88-.19,1.38l-.02.5v.96c-.01.19-.05.33-.13.43-.09.11-.21.17-.39.17-.19,0-.32-.06-.4-.18-.07-.1-.11-.24-.11-.42,0-.29.02-.59.06-.91.05-.32.12-.66.23-1.02.1-.36.24-.73.42-1.09s.39-.73.64-1.1c.09-.15.2-.31.33-.49.08-.11.2-.28.35-.48l.55-.76h-3c-.2.01-.32.04-.35.08-.05.04-.1.17-.16.41-.03.13-.06.31-.11.55v.04h-.28l.36-2.26h.28l.03.14c.05.09.25.14.6.17.19.02.43.03.72.03h2.72v.25l-1.59,2.23Z"/>
    <path d="M76.17,122.65c-.36.28-.74.42-1.16.42-.59,0-1.11-.25-1.55-.76-.46-.51-.69-1.12-.69-1.83,0-.84.26-1.55.78-2.11.49-.53,1.06-.79,1.69-.79.31,0,.62.08.93.25.3.16.5.33.6.53.1.21.11.39.03.55-.07.15-.2.23-.38.23-.14,0-.25-.05-.33-.14-.05-.05-.1-.15-.16-.3l-.07-.16c-.11-.22-.23-.38-.35-.48-.14-.11-.33-.16-.55-.16-.39,0-.72.21-1.01.62-.31.46-.47,1.05-.47,1.78s.15,1.26.46,1.69c.31.44.73.65,1.25.65.26,0,.51-.07.75-.2.28-.16.58-.43.9-.81l.16.09c-.27.42-.55.74-.85.96Z"/>
    <path d="M83.88,122.89v-.27c.25,0,.43-.05.55-.15.12-.09.18-.25.18-.46v-3.04c0-.25-.08-.46-.25-.63-.17-.19-.39-.28-.65-.28-.24,0-.49.08-.76.24-.23.13-.48.32-.74.58v3.14c0,.21.06.37.18.46.12.1.31.15.57.15v.27h-2.13v-.27c.26,0,.45-.05.56-.15.11-.09.17-.25.17-.46v-3.06c0-.24-.08-.44-.25-.61-.16-.18-.36-.27-.59-.27-.29,0-.56.08-.81.24-.21.12-.45.33-.72.62v3.08c0,.21.06.37.17.46.11.1.31.15.59.15v.27h-2.2v-.27c.27,0,.47-.05.59-.15.13-.09.19-.25.19-.46v-3.2c0-.24-.06-.4-.18-.48-.11-.07-.29-.11-.56-.11l-.04-.2,1.44-.44v.99c.29-.29.56-.5.8-.65.36-.22.72-.33,1.06-.33.24,0,.46.08.68.24.24.19.4.43.48.73.3-.29.59-.51.87-.66.36-.2.69-.3,1.01-.3s.61.13.85.39c.22.24.33.52.33.83v3.22c0,.21.06.36.19.46.13.1.32.15.58.15v.27h-2.15Z"/>
  </g>
  <g>
    <path d="M117.33,91.99v.95c0,.23.06.38.18.44.08.05.25.07.51.07h.38v.34c-.23-.02-.48-.04-.75-.04h-1.49c-.28,0-.53.02-.74.04v-.34h.34c.28,0,.46-.02.54-.06.12-.06.18-.21.18-.45v-.95h-2.92v-.34l3.37-5.14c.04-.06.06-.09.09-.11.03-.01.08-.02.14-.02.08,0,.13.02.15.06.01.03.02.09.02.17v5.03h1.1v.34h-1.1ZM116.54,87.56l-2.67,4.09h2.67v-4.09Z"/>
    <path d="M123.98,93.61c-.36.28-.74.42-1.16.42-.59,0-1.11-.25-1.55-.76-.46-.51-.69-1.12-.69-1.83,0-.84.26-1.55.78-2.11.49-.53,1.06-.79,1.69-.79.31,0,.62.08.93.25.3.16.5.33.6.52.1.21.11.39.03.55-.07.15-.2.23-.38.23-.14,0-.25-.05-.33-.14-.05-.05-.1-.15-.16-.3l-.08-.16c-.11-.22-.23-.38-.35-.48-.14-.11-.33-.16-.55-.16-.39,0-.72.21-1.01.62-.31.46-.47,1.05-.47,1.78s.15,1.26.46,1.69c.31.44.73.65,1.25.65.26,0,.51-.07.75-.2.28-.16.58-.43.9-.81l.16.09c-.27.42-.55.74-.85.96Z"/>
    <path d="M131.69,93.85v-.27c.25,0,.43-.05.55-.15.12-.09.18-.25.18-.46v-3.04c0-.25-.08-.46-.25-.63-.17-.19-.39-.28-.65-.28-.24,0-.49.08-.76.24-.23.13-.47.32-.74.58v3.14c0,.21.06.37.18.46.12.1.31.15.57.15v.27h-2.13v-.27c.26,0,.45-.05.56-.15.11-.09.17-.25.17-.46v-3.06c0-.24-.08-.44-.25-.61-.16-.18-.36-.27-.59-.27-.29,0-.56.08-.81.24-.21.12-.45.33-.72.62v3.08c0,.21.06.37.17.46.11.1.31.15.59.15v.27h-2.2v-.27c.27,0,.47-.05.59-.15.13-.09.19-.25.19-.46v-3.2c0-.24-.06-.4-.18-.48-.11-.07-.29-.11-.56-.11l-.04-.2,1.44-.44v.99c.29-.29.56-.5.8-.65.36-.22.72-.33,1.06-.33.24,0,.46.08.67.24.24.19.4.43.48.73.3-.29.59-.51.87-.66.36-.2.69-.3,1.01-.3s.61.13.85.39c.22.24.33.52.33.83v3.22c0,.21.06.36.19.46.13.1.32.15.58.15v.27h-2.15Z"/>
  </g>
</svg>