<?xml version="1.0" encoding="UTF-8"?>
<svg id="_레이어_1" data-name="레이어 1" xmlns="http://www.w3.org/2000/svg" width="170.75" height="160.75" viewBox="0 0 170.75 160.75">
  <g>
    <path d="M80.01,118.82c-.12,.29-.3,.56-.52,.8-.22,.21-.48,.38-.77,.5-.29,.13-.6,.19-.91,.19-.29,0-.55-.06-.79-.17-.24-.11-.46-.26-.64-.47-.18-.19-.31-.4-.41-.63-.09-.24-.14-.48-.14-.73,0-.17,.05-.31,.14-.42,.1-.11,.24-.16,.41-.16,.16,0,.29,.05,.39,.14,.11,.1,.16,.23,.16,.4s-.06,.29-.17,.4c-.11,.1-.23,.15-.38,.15-.05,0-.09,0-.11-.01-.04,0-.07-.01-.09-.02,.04,.16,.11,.31,.21,.47,.09,.14,.21,.27,.35,.39,.16,.11,.32,.2,.49,.27,.18,.07,.36,.11,.56,.11,.24,0,.47-.07,.68-.2,.2-.13,.36-.3,.49-.51,.11-.19,.18-.43,.23-.73,.03-.21,.04-.47,.04-.78s-.01-.53-.03-.7c-.03-.26-.09-.48-.17-.68-.09-.21-.21-.38-.36-.5-.17-.13-.36-.2-.57-.2-.19,0-.37,.03-.53,.08-.2,.06-.39,.17-.56,.32-.09,.06-.16,.13-.21,.2-.04,.04-.07,.09-.11,.15-.03,.04-.05,.07-.06,.09-.02,.02-.05,.03-.09,.03-.08,0-.13-.03-.15-.08-.01-.03-.02-.08-.02-.16v-.04s.01-3.25,.01-3.25c0-.14,0-.22,.02-.25,.03-.03,.1-.03,.23,0,.22,.1,.46,.18,.71,.23,.24,.05,.49,.08,.75,.08,.2,0,.36,0,.48-.02,.16-.02,.35-.06,.56-.11l.36-.16,.18-.06s.06,.01,.09,.03c.02,.03,.03,.06,.02,.1-.04,.1-.12,.22-.25,.35-.07,.07-.17,.15-.29,.25v.02c-.25,.16-.5,.29-.76,.38-.27,.09-.55,.14-.83,.14-.16,0-.31-.01-.47-.04-.16-.02-.32-.05-.46-.1v2.14c.11-.1,.21-.18,.31-.25,.11-.08,.22-.14,.33-.17,.11-.05,.24-.09,.36-.11,.12-.02,.25-.03,.39-.03,.29,0,.56,.06,.81,.18,.26,.12,.48,.3,.68,.52,.19,.24,.34,.5,.44,.79,.11,.29,.16,.59,.16,.9s-.06,.64-.19,.94Z"/>
    <path d="M86.01,119.89c-.36,.28-.74,.42-1.16,.42-.59,0-1.11-.25-1.55-.76-.46-.51-.69-1.12-.69-1.83,0-.84,.26-1.55,.78-2.11,.49-.53,1.06-.79,1.69-.79,.31,0,.62,.08,.93,.25,.3,.16,.5,.33,.6,.52,.1,.21,.11,.39,.03,.55-.07,.15-.2,.23-.38,.23-.14,0-.25-.05-.33-.14-.05-.05-.1-.15-.16-.3l-.07-.16c-.11-.22-.23-.38-.35-.48-.14-.11-.33-.16-.55-.16-.39,0-.72,.21-1.01,.62-.31,.46-.47,1.05-.47,1.78s.15,1.26,.46,1.69c.31,.44,.73,.65,1.25,.65,.26,0,.51-.07,.75-.2,.28-.16,.58-.43,.9-.81l.16,.09c-.27,.42-.55,.74-.85,.96Z"/>
    <path d="M93.71,120.12v-.27c.25,0,.43-.05,.55-.15,.12-.09,.18-.25,.18-.46v-3.04c0-.25-.08-.46-.25-.63-.17-.19-.39-.28-.65-.28-.24,0-.49,.08-.76,.24-.23,.13-.48,.32-.74,.58v3.14c0,.21,.06,.37,.18,.46,.12,.1,.31,.15,.57,.15v.27h-2.13v-.27c.26,0,.45-.05,.56-.15,.11-.09,.17-.25,.17-.46v-3.06c0-.24-.08-.44-.25-.61-.17-.18-.36-.27-.59-.27-.29,0-.56,.08-.81,.24-.21,.12-.45,.33-.72,.62v3.08c0,.21,.06,.37,.17,.46,.11,.1,.31,.15,.59,.15v.27h-2.2v-.27c.27,0,.47-.05,.59-.15,.13-.09,.19-.25,.19-.46v-3.2c0-.23-.06-.4-.18-.48-.11-.07-.29-.11-.56-.11l-.04-.2,1.44-.44v.98c.29-.29,.56-.5,.8-.65,.36-.22,.72-.33,1.06-.33,.24,0,.46,.08,.68,.23,.24,.19,.4,.43,.48,.73,.3-.29,.59-.51,.87-.66,.36-.2,.69-.3,1.01-.3s.61,.13,.85,.38c.22,.24,.33,.52,.33,.83v3.22c0,.21,.06,.36,.19,.46s.32,.15,.58,.15v.27h-2.15Z"/>
  </g>
  <polygon points=".38 60.37 60.37 110.38 60.37 160.38 .38 60.37" fill="#dcdddd"/>
  <polygon points="170.37 110.38 110.37 110.38 110.37 160.38 170.37 110.38" fill="#dcdddd"/>
  <polygon points="110.28 110.49 60.28 110.49 110.28 50.49 110.28 110.49" fill="#dcdddd"/>
  <polygon points="50.38 .38 110.38 50.38 170.38 50.38 50.38 .38" fill="#dcdddd"/>
  <polyline points="110.38 104.71 104.71 104.71 104.71 110.38" fill="none" stroke="#221e1f" stroke-miterlimit="10" stroke-width=".4"/>
  <line x1="60.37" y1="110.38" x2="110.37" y2="110.38" fill="none" stroke="#231815" stroke-miterlimit="10" stroke-width=".75"/>
  <line x1="110.37" y1="50.38" x2="110.37" y2="110.38" fill="none" stroke="#231815" stroke-miterlimit="10" stroke-width=".75"/>
  <polyline points="110.37 50.38 170.37 50.38 170.37 110.38 110.37 110.38 110.37 160.38 60.37 160.38 60.37 110.38 110.37 50.38 50.38 .38 .38 60.37 60.37 110.38" fill="none" stroke="#231815" stroke-linejoin="round" stroke-width=".75"/>
  <line x1="50.38" y1=".38" x2="170.37" y2="50.38" fill="none" stroke="#231815" stroke-miterlimit="10" stroke-width=".4"/>
  <line x1="170.37" y1="110.38" x2="110.37" y2="160.38" fill="none" stroke="#231815" stroke-miterlimit="10" stroke-width=".4"/>
  <line x1=".38" y1="60.37" x2="60.37" y2="160.38" fill="none" stroke="#231815" stroke-miterlimit="10" stroke-width=".4"/>
  <path d="M117.28,118.62c-.51,.44-1.21,.67-2.09,.67h-3.54v-.28c.42,0,.7-.05,.83-.14,.14-.09,.22-.29,.22-.58v-5.88c0-.27-.07-.47-.22-.58-.16-.12-.44-.18-.83-.18v-.28h3.33c.82,0,1.47,.18,1.96,.53,.46,.34,.69,.78,.69,1.33,0,.41-.13,.76-.38,1.04-.29,.32-.74,.56-1.35,.72,.72,.14,1.25,.41,1.6,.79,.32,.35,.48,.8,.48,1.34,0,.59-.23,1.1-.69,1.5Zm-.87-6.48c-.35-.33-.83-.5-1.45-.5h-.65c-.32,0-.56,.06-.7,.18-.14,.12-.22,.32-.22,.58v2.53h1.57c.53,0,.98-.19,1.36-.58,.35-.36,.53-.76,.53-1.19,0-.39-.15-.73-.44-1.02Zm.24,3.65c-.41-.39-.92-.58-1.51-.58h-1.74v3.07c0,.29,.07,.48,.22,.58,.12,.09,.36,.14,.7,.14h.75c.67,0,1.21-.2,1.61-.59,.38-.36,.56-.79,.56-1.3s-.19-.95-.58-1.32Z"/>
  <path d="M56.74,119.37v-.28c.48,0,.79-.05,.93-.14,.15-.11,.17-.31,.06-.61l-.65-1.84h-3.06l-.51,1.59c-.14,.4-.14,.67,0,.81,.13,.13,.44,.19,.94,.19v.28h-2.41v-.28c.31,0,.54-.06,.68-.19,.15-.14,.31-.46,.49-.95l2.19-6.41,.61-.27,2.43,7.03c.09,.29,.23,.5,.4,.61,.17,.11,.4,.17,.7,.17v.28h-2.81Zm-1.2-7.29l-1.4,4.09h2.83l-1.43-4.09Z"/>
  <path d="M115.99,48.68c-.52,.46-1.12,.69-1.81,.69-.91,0-1.67-.36-2.29-1.08-.66-.78-.99-1.81-.99-3.1,0-1.14,.29-2.1,.86-2.89,.59-.8,1.34-1.2,2.24-1.2,.21,0,.42,.02,.63,.06,.13,.04,.34,.1,.64,.19l.06,.03,.79-.25,.77,2-.17,.11c-.35-.51-.7-.91-1.07-1.21-.53-.44-1.07-.66-1.62-.66-.68,0-1.24,.36-1.7,1.09-.45,.72-.67,1.63-.67,2.73,0,1.03,.27,1.9,.81,2.59,.53,.69,1.19,1.04,1.98,1.04,.47,0,.9-.15,1.3-.44,.43-.31,.81-.78,1.15-1.41l.21,.09c-.28,.69-.64,1.23-1.09,1.62Z"/>
  <g>
    <path d="M96.14,116.38c.21-.03,.41-.07,.61-.1" fill="none" stroke="#221e1f" stroke-miterlimit="10" stroke-width=".4"/>
    <path d="M97.7,116.12c5.67-1.06,10.03-2.83,12.01-4.95" fill="none" stroke="#221e1f" stroke-dasharray="0 0 1.32 .96" stroke-miterlimit="10" stroke-width=".4"/>
    <path d="M110.02,110.81c.13-.17,.25-.33,.35-.5" fill="none" stroke="#221e1f" stroke-miterlimit="10" stroke-width=".4"/>
  </g>
  <g>
    <path d="M60.37,110.29c.1,.17,.22,.34,.35,.51" fill="none" stroke="#221e1f" stroke-miterlimit="10" stroke-width=".4"/>
    <path d="M61.29,111.42c2.18,2.1,6.71,3.84,12.52,4.84" fill="none" stroke="#221e1f" stroke-dasharray="0 0 1.16 .84" stroke-miterlimit="10" stroke-width=".4"/>
    <path d="M74.23,116.32c.2,.03,.41,.07,.61,.1" fill="none" stroke="#221e1f" stroke-miterlimit="10" stroke-width=".4"/>
  </g>
  <g>
    <path d="M117.18,84.77c0,.21-.02,.41-.03,.62" fill="none" stroke="#221e1f" stroke-miterlimit="10" stroke-width=".4"/>
    <path d="M117.11,86.27c-.61,11.14-2.93,20.12-5.95,23.38" fill="none" stroke="#221e1f" stroke-dasharray="0 0 1.2 .87" stroke-miterlimit="10" stroke-width=".4"/>
    <path d="M110.86,109.95c-.16,.15-.31,.28-.47,.39" fill="none" stroke="#221e1f" stroke-miterlimit="10" stroke-width=".4"/>
  </g>
  <g>
    <path d="M110.38,50.38c.16,.12,.32,.25,.47,.39" fill="none" stroke="#221e1f" stroke-miterlimit="10" stroke-width=".4"/>
    <path d="M111.48,51.44c2.85,3.5,5.01,12.15,5.62,22.81" fill="none" stroke="#221e1f" stroke-dasharray="0 0 1.28 .93" stroke-miterlimit="10" stroke-width=".4"/>
    <path d="M117.13,74.72c.01,.21,.02,.41,.03,.62" fill="none" stroke="#221e1f" stroke-miterlimit="10" stroke-width=".4"/>
  </g>
  <g>
    <path d="M116.87,82.09c-.11,.32-.28,.6-.49,.83-.22,.22-.46,.39-.73,.5-.27,.12-.56,.18-.86,.18s-.6-.07-.87-.2c-.26-.13-.49-.31-.66-.55-.29-.39-.5-.86-.62-1.44-.09-.43-.14-.94-.14-1.52,0-.54,.07-1.04,.2-1.5,.16-.51,.39-.95,.71-1.33,.24-.31,.52-.56,.87-.73,.35-.19,.72-.28,1.1-.28,.23,0,.43,.02,.6,.07,.17,.06,.32,.15,.45,.27,.11,.11,.2,.24,.26,.37,.06,.14,.09,.29,.09,.46,0,.15-.05,.27-.14,.38-.1,.11-.22,.16-.36,.16-.15,0-.27-.05-.36-.15-.09-.09-.14-.21-.14-.35,0-.19,.06-.32,.17-.4,.1-.06,.24-.1,.43-.1-.09-.15-.24-.26-.43-.34-.17-.06-.34-.1-.54-.1-.42,0-.79,.16-1.11,.49-.27,.27-.47,.61-.59,1.01-.07,.22-.12,.46-.16,.73-.04,.29-.05,.61-.05,.94v.26c.12-.33,.3-.59,.53-.77,.24-.21,.53-.31,.86-.31,.29,0,.57,.06,.84,.17,.26,.12,.5,.3,.71,.52,.21,.23,.36,.5,.47,.81,.11,.29,.16,.6,.16,.93s-.06,.65-.17,.95Zm-.81-1.09c0-.31-.01-.55-.03-.72-.02-.27-.08-.49-.16-.65-.12-.23-.26-.4-.41-.5-.17-.12-.37-.18-.6-.18s-.44,.06-.61,.17c-.16,.1-.3,.26-.43,.48-.11,.17-.19,.38-.25,.62-.04,.21-.06,.44-.06,.69,0,.21,0,.4,.01,.57,0,.21,.03,.4,.06,.58,.06,.34,.18,.63,.38,.86,.23,.27,.51,.41,.84,.41,.24,0,.46-.07,.65-.2,.18-.12,.32-.29,.43-.51,.08-.18,.13-.4,.16-.66,.01-.15,.02-.38,.02-.69v-.25Z"/>
    <path d="M122.76,83.18c-.36,.28-.74,.42-1.16,.42-.59,0-1.11-.25-1.55-.76-.46-.51-.69-1.12-.69-1.83,0-.84,.26-1.55,.78-2.11,.49-.53,1.06-.79,1.69-.79,.31,0,.62,.08,.93,.25,.3,.16,.5,.33,.6,.52,.1,.21,.11,.39,.03,.55-.07,.15-.2,.23-.38,.23-.14,0-.25-.05-.33-.14-.05-.05-.1-.15-.16-.3l-.08-.16c-.11-.22-.23-.38-.35-.48-.14-.11-.33-.16-.55-.16-.39,0-.72,.21-1.01,.62-.31,.46-.47,1.05-.47,1.78s.15,1.26,.46,1.69c.31,.44,.73,.65,1.25,.65,.26,0,.51-.07,.75-.2,.28-.16,.58-.43,.9-.81l.16,.09c-.27,.42-.55,.74-.85,.96Z"/>
    <path d="M130.47,83.41v-.27c.25,0,.43-.05,.55-.15,.12-.09,.18-.25,.18-.46v-3.04c0-.25-.08-.46-.25-.63-.17-.19-.39-.28-.65-.28-.24,0-.49,.08-.76,.24-.23,.13-.47,.32-.74,.58v3.14c0,.21,.06,.37,.18,.46,.12,.1,.31,.15,.57,.15v.27h-2.13v-.27c.26,0,.45-.05,.56-.15,.11-.09,.17-.25,.17-.46v-3.06c0-.24-.08-.44-.25-.61-.16-.18-.36-.27-.59-.27-.29,0-.56,.08-.81,.24-.21,.12-.45,.33-.72,.62v3.08c0,.21,.06,.37,.17,.46,.11,.1,.31,.15,.59,.15v.27h-2.2v-.27c.27,0,.47-.05,.59-.15,.13-.09,.19-.25,.19-.46v-3.2c0-.24-.06-.4-.18-.48-.11-.07-.29-.11-.56-.11l-.04-.2,1.44-.44v.99c.29-.29,.56-.5,.8-.65,.36-.22,.72-.33,1.06-.33,.24,0,.46,.08,.67,.24,.24,.19,.4,.43,.48,.73,.3-.29,.59-.51,.87-.66,.36-.2,.69-.3,1.01-.3s.61,.13,.85,.39c.22,.24,.33,.52,.33,.83v3.22c0,.21,.06,.36,.19,.46,.13,.1,.32,.15,.58,.15v.27h-2.15Z"/>
  </g>
</svg>