<svg id="레이어_1" data-name="레이어 1" xmlns="http://www.w3.org/2000/svg" width="170.83" height="170.83" viewBox="0 0 170.83 170.83">
  <circle cx="85.41" cy="85.41" r="85.04" fill="#dcdddd" stroke="#000" stroke-miterlimit="10" stroke-width="0.75"/>
  <circle cx="85.41" cy="85.41" r="42.52" fill="#fff" stroke="#000" stroke-miterlimit="10" stroke-width="0.75"/>
  <line x1="30.71" y1="20.3" x2="169.08" y2="70.66" fill="none" stroke="#000" stroke-miterlimit="10" stroke-width="0.4"/>
  <g>
    <path d="M122.08,47.28l-.6-.17" transform="translate(-34.03 -23.4)" fill="none" stroke="#221e1f" stroke-miterlimit="10" stroke-width="0.4"/>
    <path d="M120.6,46.88c-25.29-6.75-46.16-8.3-54.81-3.94" transform="translate(-34.03 -23.4)" fill="none" stroke="#221e1f" stroke-miterlimit="10" stroke-width="0.4" stroke-dasharray="1.25 0.91"/>
    <path d="M65.39,43.15c-.18.1-.36.2-.53.31" transform="translate(-34.03 -23.4)" fill="none" stroke="#221e1f" stroke-miterlimit="10" stroke-width="0.4"/>
  </g>
  <g>
    <path d="M202.88,93.73c-.07-.19-.14-.38-.23-.57" transform="translate(-34.03 -23.4)" fill="none" stroke="#221e1f" stroke-miterlimit="10" stroke-width="0.4"/>
    <path d="M202.28,92.34C197.57,83,178.3,69.9,151.84,58" transform="translate(-34.03 -23.4)" fill="none" stroke="#221e1f" stroke-miterlimit="10" stroke-width="0.4" stroke-dasharray="1.24 0.9"/>
    <path d="M151.43,57.82l-.57-.25" transform="translate(-34.03 -23.4)" fill="none" stroke="#221e1f" stroke-miterlimit="10" stroke-width="0.4"/>
  </g>
  <path d="M125.22,58.09h-1.79c-.33,0-.63,0-.9,0v-.34h.53a1.62,1.62,0,0,0,.62-.08.45.45,0,0,0,.23-.45V51.55a2.92,2.92,0,0,1-.59.19,3.88,3.88,0,0,1-.61.1h-.24V51.5h.36a3.78,3.78,0,0,0,.57-.1,3.2,3.2,0,0,0,.52-.18,2.9,2.9,0,0,0,.29-.19,1.88,1.88,0,0,0,.26-.22h.26v6.47q0,.36.24.45a1.62,1.62,0,0,0,.62.08h.52v.34C125.84,58.11,125.55,58.09,125.22,58.09Z" transform="translate(-34.03 -23.4)"/>
  <path d="M130.74,56.31v1c0,.23.06.38.18.44a1.12,1.12,0,0,0,.52.08h.38v.34c-.23,0-.48,0-.76,0h-1.49c-.28,0-.53,0-.75,0v-.34h.35a1.42,1.42,0,0,0,.54-.07q.18-.09.18-.45v-1H127V56l3.38-5.17a.39.39,0,0,1,.09-.11.26.26,0,0,1,.14,0q.12,0,.15.06a.59.59,0,0,1,0,.17V56h1.11v.34ZM130,51.85,127.27,56H130Z" transform="translate(-34.03 -23.4)"/>
  <path d="M137.86,59.42l0,0-.09.14a.17.17,0,0,1-.14.06h-.2l-2.05-5.15-.78.63L134.4,55l1.54-1.28,1.88,4.73L142.7,47.7H143v.46Z" transform="translate(-34.03 -23.4)"/>
  <path d="M142.24,48.12v-.45h7.07v.45Z" transform="translate(-34.03 -23.4)"/>
  <path d="M147.12,58.13H143v-.26l2.24-2.51c.16-.2.31-.38.43-.55a6.64,6.64,0,0,0,.38-.6,3.43,3.43,0,0,0,.24-.62,2,2,0,0,0,.11-.66,2.29,2.29,0,0,0-.09-.66,1.61,1.61,0,0,0-.26-.58,1.58,1.58,0,0,0-.51-.43,1.39,1.39,0,0,0-.61-.13,1.51,1.51,0,0,0-.94.3,1.66,1.66,0,0,0-.56.82h.14a.6.6,0,0,1,.42.15.58.58,0,0,1,.17.43.56.56,0,0,1-.16.41.54.54,0,0,1-.41.17.56.56,0,0,1-.44-.18.65.65,0,0,1-.15-.44,1.92,1.92,0,0,1,.15-.74,2,2,0,0,1,.41-.62,1.8,1.8,0,0,1,.68-.48,2.16,2.16,0,0,1,.81-.15,2.65,2.65,0,0,1,.9.14,2.39,2.39,0,0,1,.79.45,2,2,0,0,1,.49.7,2,2,0,0,1,.17.85,2,2,0,0,1-.13.77,2.09,2.09,0,0,1-.41.67c-.17.19-.37.39-.6.61l-.6.57-.63.59-1.17,1.14h2.54a1,1,0,0,0,.42-.08.85.85,0,0,0,.19-.35c0-.09,0-.25.08-.45l0-.19h.28Z" transform="translate(-34.03 -23.4)"/>
</svg>
