<?xml version="1.0" encoding="UTF-8"?>
<svg id="_레이어_1" data-name="레이어 1" xmlns="http://www.w3.org/2000/svg" width="149.45" height="101.33" viewBox="0 0 149.45 101.33">
  <line x1="141.76" y1="16.59" x2="14.21" y2="16.59" fill="none" stroke="#000" stroke-dasharray="1.24 .9" stroke-miterlimit="10" stroke-width=".4"/>
  <line x1="141.76" y1="59.11" x2="141.76" y2="93.13" fill="none" stroke="#000" stroke-miterlimit="10" stroke-width=".75"/>
  <line x1="141.76" y1="16.59" x2="141.76" y2="59.11" fill="none" stroke="#000" stroke-dasharray="1.24 .9" stroke-miterlimit="10" stroke-width=".4"/>
  <polyline points="141.76 93.13 14.21 93.13 14.21 16.59 141.76 59.11 116.25 93.13 14.21 16.59 141.76 59.11" fill="none" stroke="#000" stroke-linejoin="round" stroke-width=".75"/>
  <g>
    <path d="M82.31,5.29c.21,0,.41,0,.62,0" fill="none" stroke="#221e1f" stroke-miterlimit="10" stroke-width=".4"/>
    <path d="M83.82,5.31c27.67.53,50.37,4.84,57.18,10.54" fill="none" stroke="#221e1f" stroke-dasharray="1.22 .89" stroke-miterlimit="10" stroke-width=".4"/>
    <path d="M141.33,16.14c.16.14.3.29.44.43" fill="none" stroke="#221e1f" stroke-miterlimit="10" stroke-width=".4"/>
  </g>
  <g>
    <path d="M14.21,16.59c.14-.15.28-.29.44-.43" fill="none" stroke="#221e1f" stroke-miterlimit="10" stroke-width=".4"/>
    <path d="M15.32,15.59c7.22-5.6,29.84-9.8,57.28-10.29" fill="none" stroke="#221e1f" stroke-dasharray="1.23 .89" stroke-miterlimit="10" stroke-width=".4"/>
    <path d="M73.05,5.3c.21,0,.41,0,.62,0" fill="none" stroke="#221e1f" stroke-miterlimit="10" stroke-width=".4"/>
  </g>
  <g>
    <path d="M2.95,50.54c0-.21.02-.41.03-.62" fill="none" stroke="#221e1f" stroke-miterlimit="10" stroke-width=".4"/>
    <path d="M3.02,49.01c.84-15.36,4.92-27.8,10.27-31.83" fill="none" stroke="#221e1f" stroke-dasharray="1.25 .91" stroke-miterlimit="10" stroke-width=".4"/>
    <path d="M13.66,16.92c.17-.12.35-.22.52-.32" fill="none" stroke="#221e1f" stroke-miterlimit="10" stroke-width=".4"/>
  </g>
  <g>
    <path d="M14.21,93.13c-.18-.1-.35-.21-.53-.32" fill="none" stroke="#221e1f" stroke-miterlimit="10" stroke-width=".4"/>
    <path d="M12.98,92.29c-5.09-4.18-8.97-16.02-9.9-30.66" fill="none" stroke="#221e1f" stroke-dasharray="1.21 .88" stroke-miterlimit="10" stroke-width=".4"/>
    <path d="M3.05,61.18c-.01-.21-.02-.41-.03-.62" fill="none" stroke="#221e1f" stroke-miterlimit="10" stroke-width=".4"/>
  </g>
  <polyline points="14.21 87.46 19.87 87.46 19.87 93.13" fill="none" stroke="#221e1f" stroke-miterlimit="10" stroke-width=".4"/>
  <polyline points="14.21 22.26 19.87 22.26 19.87 16.59" fill="none" stroke="#221e1f" stroke-miterlimit="10" stroke-width=".4"/>
  <polyline points="141.81 22.26 136.14 22.26 136.14 16.59" fill="none" stroke="#221e1f" stroke-miterlimit="10" stroke-width=".4"/>
  <polyline points="141.81 87.46 136.14 87.46 136.14 93.13" fill="none" stroke="#221e1f" stroke-miterlimit="10" stroke-width=".4"/>
  <polyline points="111.63 89.82 115.04 85.28 119.57 88.68" fill="none" stroke="#221e1f" stroke-miterlimit="10" stroke-width=".4"/>
  <path d="M4.87,58.01c-.12.26-.28.48-.49.68-.22.21-.49.37-.79.48-.29.11-.59.16-.91.16-.16,0-.31-.01-.44-.03-.14-.02-.28-.05-.4-.09-.4-.12-.73-.31-.97-.58-.27-.29-.41-.63-.41-1.02,0-.2.05-.36.15-.47.11-.11.26-.17.46-.17.18,0,.33.06.44.17.12.11.17.27.17.45,0,.2-.07.36-.22.47-.14.11-.31.16-.51.13.13.24.36.45.7.61.32.15.66.23.99.23.15,0,.29-.03.43-.1.14-.06.26-.14.37-.25.16-.19.27-.42.35-.7.06-.23.1-.49.1-.77,0-.15,0-.28-.02-.4-.01-.13-.03-.24-.05-.34-.09-.35-.23-.62-.42-.79-.21-.19-.48-.29-.81-.29h-.52c-.07,0-.13,0-.16-.02-.05-.02-.08-.06-.08-.12s.01-.1.04-.12c.02,0,.06-.01.12-.01.09,0,.2,0,.31-.01.12,0,.24-.01.35-.02.21-.04.4-.15.58-.34.16-.17.27-.37.35-.59.04-.18.08-.33.1-.44.03-.16.04-.3.04-.44,0-.2-.03-.38-.08-.53-.06-.19-.16-.34-.28-.45-.1-.09-.22-.16-.35-.19-.11-.04-.23-.05-.37-.05-.12,0-.25.01-.38.03-.12.02-.25.05-.38.1-.15.06-.29.13-.41.23-.13.09-.23.2-.3.32h.18c.17.03.29.09.38.17.09.09.13.21.13.38s-.05.3-.16.4c-.1.11-.23.16-.4.16-.18,0-.32-.05-.42-.16-.1-.11-.15-.24-.15-.41,0-.33.12-.62.36-.88.21-.22.48-.39.82-.49.12-.04.24-.08.38-.1.13-.01.27-.02.41-.02.25,0,.5.03.74.1.25.07.46.18.66.31.19.14.35.29.46.47.12.2.18.41.18.63,0,.21-.04.42-.13.62-.07.19-.18.37-.31.56-.14.16-.31.31-.51.45-.19.13-.39.23-.61.31.38.06.72.21,1.03.44.31.23.54.52.69.88.04.11.06.22.09.32.03.12.04.24.04.34,0,.27-.06.54-.18.8Z" fill="#221e1f"/>
  <path d="M79.73,7.52c-.12.29-.3.56-.53.81-.22.21-.48.38-.78.5-.3.13-.6.19-.92.19-.29,0-.55-.06-.8-.17-.25-.11-.46-.26-.65-.47-.18-.19-.32-.4-.41-.63-.09-.24-.14-.48-.14-.73,0-.17.05-.31.14-.42.1-.11.24-.16.41-.16.16,0,.29.05.39.14.11.1.16.23.16.4s-.06.29-.17.4c-.11.1-.23.15-.38.15-.05,0-.09,0-.11-.01-.04,0-.07-.01-.09-.02.04.16.11.32.22.47.09.14.21.27.36.39.16.11.32.2.5.27.18.07.37.11.56.11.25,0,.47-.07.68-.2.2-.13.37-.3.5-.52.11-.19.18-.43.23-.73.03-.21.04-.47.04-.78s-.01-.53-.03-.7c-.03-.26-.09-.48-.17-.68-.09-.21-.22-.38-.37-.5-.17-.14-.36-.2-.57-.2-.19,0-.37.03-.53.08-.2.06-.39.17-.56.32-.09.06-.16.13-.22.2-.04.04-.07.09-.11.15-.03.04-.05.07-.07.09-.02.02-.05.03-.09.03-.08,0-.13-.02-.15-.08-.01-.03-.02-.08-.02-.16v-.04s.01-3.26.01-3.26c0-.14,0-.22.02-.25.03-.03.1-.03.23.01.22.1.46.17.71.23.24.05.5.08.76.08.2,0,.36,0,.49-.02.17-.02.35-.06.56-.11l.37-.16.18-.06s.06.01.09.03c.02.03.03.06.02.1-.04.1-.12.22-.25.35-.07.07-.17.15-.29.25v.02c-.25.17-.5.29-.77.38-.27.09-.55.14-.83.14-.16,0-.32-.01-.47-.04-.17-.02-.32-.05-.46-.1v2.15c.11-.1.21-.18.31-.25.11-.08.22-.14.33-.17.12-.05.24-.09.37-.11.12-.02.25-.03.39-.03.29,0,.56.06.82.18.26.12.49.3.68.53.2.24.34.5.44.8.11.29.16.59.16.9s-.06.64-.19.95Z" fill="#221e1f"/>
  <path d="M11.15,15.84v-.28c.48,0,.79-.05.93-.14.15-.11.17-.31.06-.61l-.65-1.84h-3.06l-.51,1.59c-.14.4-.14.67,0,.81.13.13.44.19.94.19v.28h-2.41v-.28c.31,0,.54-.06.68-.19.15-.14.31-.46.49-.95l2.19-6.41.61-.27,2.43,7.03c.09.29.23.5.4.61.17.11.4.17.7.17v.28h-2.81ZM9.95,8.55l-1.4,4.09h2.83l-1.43-4.09Z" fill="#221e1f"/>
  <path d="M12.68,100.66c-.51.44-1.21.67-2.09.67h-3.54v-.28c.42,0,.7-.05.83-.14.14-.09.22-.29.22-.58v-5.88c0-.27-.07-.47-.22-.58-.16-.12-.44-.18-.83-.18v-.28h3.33c.82,0,1.47.18,1.96.53.46.34.69.78.69,1.33,0,.41-.13.76-.38,1.04-.29.32-.74.56-1.35.72.72.14,1.25.41,1.6.79.32.35.48.8.48,1.34,0,.59-.23,1.1-.69,1.5ZM11.81,94.18c-.35-.33-.83-.49-1.45-.49h-.65c-.32,0-.56.06-.7.18-.14.12-.22.32-.22.58v2.53h1.57c.53,0,.98-.19,1.36-.58.35-.36.53-.76.53-1.19,0-.39-.15-.73-.44-1.02ZM12.05,97.83c-.41-.39-.92-.58-1.51-.58h-1.74v3.07c0,.29.07.48.22.58.12.09.36.14.7.14h.75c.67,0,1.21-.2,1.61-.59.38-.36.56-.79.56-1.3s-.19-.95-.58-1.32Z" fill="#221e1f"/>
  <path d="M147.22,100.42c-.52.46-1.12.69-1.81.69-.91,0-1.67-.36-2.29-1.08-.66-.78-.99-1.81-.99-3.1,0-1.14.29-2.1.86-2.89.59-.8,1.34-1.2,2.24-1.2.21,0,.42.02.63.06.13.04.34.1.64.19l.06.03.79-.25.77,2-.17.11c-.35-.51-.7-.91-1.07-1.21-.53-.44-1.07-.66-1.62-.66-.68,0-1.24.36-1.7,1.09-.45.72-.67,1.63-.67,2.73,0,1.03.27,1.9.81,2.59.53.69,1.19,1.04,1.98,1.04.47,0,.9-.15,1.3-.44.43-.31.81-.78,1.15-1.41l.21.09c-.28.69-.64,1.23-1.09,1.62Z" fill="#221e1f"/>
  <path d="M147.7,14.51c-.68.83-1.66,1.25-2.92,1.25h-2.97v-.28c.38,0,.65-.06.81-.18.16-.12.24-.33.24-.62v-5.81c0-.26-.08-.45-.24-.57-.17-.12-.44-.17-.81-.17v-.28h2.97c1.26,0,2.23.41,2.92,1.24.61.72.91,1.62.91,2.72s-.3,2-.91,2.72ZM147.09,9.26c-.57-.77-1.34-1.15-2.3-1.15h-.33c-.31,0-.54.06-.68.17-.14.12-.21.31-.21.57v5.81c0,.29.07.49.21.62.14.12.36.18.68.18h.33c.97,0,1.73-.38,2.3-1.15.51-.69.77-1.53.77-2.54s-.26-1.84-.77-2.53Z" fill="#221e1f"/>
  <g>
    <path d="M106.78,32.45c.26,1.78.54,5.6-1.37,9.66-2.56,5.45-7.47,7.94-10.44,8.99" fill="none" stroke="#221e1f" stroke-miterlimit="10" stroke-width=".3"/>
    <path d="M95.47,50.9l.94.84-.03.03-1.89-.16c-.63.05-1.25.1-1.88.15.55-.31,1.1-.61,1.65-.92l1.48-1.18h.04s-.31,1.24-.31,1.24Z" fill="#221e1f"/>
  </g>
  <path d="M148.69,63.07h-5.59v-.28c.38,0,.64-.06.8-.18.17-.11.25-.31.25-.58v-5.89c0-.26-.08-.44-.25-.55-.16-.11-.42-.16-.8-.16v-.28h5.31l.78,1.88-.17.11-.25-.33c-.32-.44-.6-.76-.85-.93-.42-.29-.96-.44-1.6-.44h-.59c-.29,0-.51.05-.65.16-.14.11-.22.3-.22.55v2.64h1.18c.4,0,.7-.1.9-.3.21-.21.31-.57.31-1.07h.27v3.09h-.27c0-.48-.1-.84-.31-1.07-.2-.22-.5-.33-.9-.33h-1.18v2.93c0,.26.07.46.22.58.14.12.36.18.67.18h.55c.63,0,1.17-.14,1.62-.42.43-.26.88-.71,1.33-1.33l.21.1-.76,1.93Z" fill="#221e1f"/>
</svg>