<?xml version="1.0" encoding="UTF-8"?>
<svg id="_레이어_1" data-name="레이어 1" xmlns="http://www.w3.org/2000/svg" width="136.81" height="170.83" viewBox="0 0 136.81 170.83">
  <polygon points="34.39 102.42 34.39 170.45 .38 34.39 34.39 102.42" fill="#dcdddd"/>
  <polygon points="102.42 102.42 102.42 170.45 136.44 102.42 102.42 102.42" fill="#dcdddd"/>
  <polygon points="102.42 102.42 34.39 102.42 102.42 68.41 102.42 102.42" fill="#dcdddd"/>
  <polygon points="102.42 68.41 136.44 68.41 68.41 .38 102.42 68.41" fill="#dcdddd"/>
  <polyline points="102.42 96.75 96.75 96.75 96.75 102.42" fill="none" stroke="#221e1f" stroke-miterlimit="10" stroke-width=".4"/>
  <polygon points="102.42 68.41 136.44 68.41 136.44 102.42 102.42 102.42 102.42 170.45 34.39 170.45 34.39 102.42 102.42 68.41 102.42 102.42 34.39 102.42 .38 34.39 68.41 .38 102.42 68.41" fill="none" stroke="#000" stroke-linejoin="round" stroke-width=".75"/>
  <line x1=".38" y1="34.39" x2="34.39" y2="170.45" fill="none" stroke="#000" stroke-miterlimit="10" stroke-width=".4"/>
  <line x1="136.44" y1="102.42" x2="102.42" y2="170.45" fill="none" stroke="#000" stroke-miterlimit="10" stroke-width=".4"/>
  <line x1="68.41" y1=".38" x2="136.44" y2="68.41" fill="none" stroke="#000" stroke-miterlimit="10" stroke-width=".4"/>
  <path d="M109.58,110.84c-.51.44-1.21.67-2.09.67h-3.54v-.28c.42,0,.7-.05.83-.14.14-.09.22-.29.22-.58v-5.88c0-.27-.07-.47-.22-.58-.16-.12-.44-.18-.83-.18v-.28h3.33c.82,0,1.47.18,1.96.53.46.34.69.78.69,1.33,0,.41-.13.76-.38,1.04-.29.32-.74.56-1.35.72.72.14,1.25.41,1.6.79.32.35.48.8.48,1.34,0,.59-.23,1.1-.69,1.5ZM108.71,104.36c-.35-.33-.83-.49-1.45-.49h-.65c-.32,0-.56.06-.7.18-.14.12-.22.32-.22.58v2.53h1.57c.53,0,.98-.19,1.36-.58.35-.36.53-.76.53-1.19,0-.39-.15-.73-.44-1.02ZM108.95,108.02c-.41-.39-.92-.58-1.51-.58h-1.74v3.07c0,.29.07.48.22.58.12.09.36.14.7.14h.75c.67,0,1.21-.2,1.61-.59.38-.36.56-.79.56-1.3s-.19-.95-.58-1.32Z"/>
  <g>
    <path d="M82.08,109.3c.21-.02.41-.05.62-.07" fill="none" stroke="#000" stroke-miterlimit="10" stroke-width=".4"/>
    <path d="M83.61,109.1c8.67-1.16,15.31-3.29,18.09-5.87" fill="none" stroke="#000" stroke-dasharray="1.27 .92" stroke-miterlimit="10" stroke-width=".4"/>
    <path d="M102.03,102.91c.15-.16.28-.31.4-.47" fill="none" stroke="#000" stroke-miterlimit="10" stroke-width=".4"/>
  </g>
  <g>
    <path d="M34.39,102.42c.12.16.25.32.4.47" fill="none" stroke="#000" stroke-miterlimit="10" stroke-width=".4"/>
    <path d="M35.41,103.48c3.06,2.58,10.01,4.67,18.94,5.76" fill="none" stroke="#000" stroke-dasharray="1.18 .86" stroke-miterlimit="10" stroke-width=".4"/>
    <path d="M54.78,109.3c.2.02.41.05.62.07" fill="none" stroke="#000" stroke-miterlimit="10" stroke-width=".4"/>
  </g>
  <g>
    <path d="M109.54,91.17c-.04.2-.08.41-.12.61" fill="none" stroke="#000" stroke-miterlimit="10" stroke-width=".4"/>
    <path d="M109.19,92.74c-1.11,4.36-3.2,7.73-5.76,9.22" fill="none" stroke="#000" stroke-dasharray="1.35 .98" stroke-miterlimit="10" stroke-width=".4"/>
    <path d="M103.01,102.18c-.19.09-.38.17-.57.24" fill="none" stroke="#000" stroke-miterlimit="10" stroke-width=".4"/>
  </g>
  <g>
    <path d="M102.42,68.63c.19.07.38.15.57.24" fill="none" stroke="#000" stroke-miterlimit="10" stroke-width=".4"/>
    <path d="M103.8,69.34c2.8,1.85,4.98,6,5.85,11.17" fill="none" stroke="#000" stroke-dasharray="1.29 .94" stroke-miterlimit="10" stroke-width=".4"/>
    <path d="M109.73,80.99c.03.2.06.41.09.61" fill="none" stroke="#000" stroke-miterlimit="10" stroke-width=".4"/>
  </g>
  <g>
    <path d="M59.45,113.2h-1.78c-.33,0-.63.02-.89.04v-.34h.53c.31,0,.51-.03.61-.08.16-.07.24-.22.24-.45v-5.68c-.17.08-.37.14-.59.19-.19.04-.4.08-.61.1h-.24v-.34c.06,0,.12,0,.16-.01.06,0,.13,0,.2-.01.19-.01.37-.05.56-.1.18-.04.35-.1.53-.18.1-.06.2-.12.29-.18.09-.07.18-.15.26-.22h.26v6.44c0,.24.08.39.24.45.1.05.31.08.62.08h.51v.34c-.26-.02-.56-.04-.89-.04Z"/>
    <path d="M65.99,110.99c-.06.46-.17.86-.33,1.21-.19.4-.44.71-.77.93-.33.23-.71.34-1.14.34-.26,0-.52-.05-.76-.15-.24-.09-.46-.23-.64-.41-.36-.34-.61-.83-.75-1.49-.1-.46-.15-1.03-.15-1.7,0-.64.04-1.18.13-1.64.13-.64.35-1.14.68-1.49.2-.23.43-.4.68-.5.25-.11.53-.16.84-.16.27,0,.53.05.77.15.23.1.45.25.65.44.34.33.59.83.73,1.49.1.47.15,1.04.15,1.71,0,.51-.03.93-.08,1.26ZM65.14,108.51c-.01-.36-.04-.65-.08-.89-.06-.36-.15-.64-.27-.81-.13-.2-.28-.35-.45-.46-.19-.11-.39-.17-.6-.17-.23,0-.44.06-.62.17-.16.1-.31.25-.43.46-.13.19-.22.47-.27.85-.04.24-.06.54-.06.89,0,.36-.01.74-.01,1.12s0,.74.01,1.11c0,.31.02.62.06.91.06.37.15.66.27.88.11.2.26.36.43.48.19.13.4.19.62.19.24,0,.45-.07.63-.2.18-.12.33-.29.45-.51.1-.2.18-.49.23-.86.03-.23.05-.52.08-.89.01-.37.02-.75.02-1.15,0-.37,0-.75-.01-1.15v.02Z"/>
    <path d="M71.69,113.05c-.36.28-.74.42-1.16.42-.59,0-1.11-.25-1.55-.76-.46-.51-.69-1.12-.69-1.83,0-.84.26-1.55.78-2.11.49-.53,1.06-.79,1.69-.79.31,0,.62.08.93.25.3.16.5.33.6.52.1.21.11.39.03.55-.07.15-.2.22-.38.22-.14,0-.25-.05-.33-.14-.05-.05-.1-.15-.16-.3l-.08-.16c-.11-.22-.23-.38-.35-.48-.14-.11-.33-.16-.55-.16-.39,0-.72.21-1.01.62-.31.46-.47,1.05-.47,1.78s.15,1.26.46,1.69c.31.44.73.65,1.25.65.26,0,.51-.07.75-.2.28-.16.58-.43.9-.81l.16.09c-.27.42-.55.74-.85.96Z"/>
    <path d="M79.45,113.28v-.27c.25,0,.43-.05.55-.15.12-.09.18-.25.18-.46v-3.04c0-.25-.08-.46-.25-.63-.17-.19-.39-.28-.65-.28-.24,0-.49.08-.76.24-.23.13-.48.32-.74.58v3.14c0,.21.06.37.18.46.12.1.31.15.57.15v.27h-2.13v-.27c.26,0,.45-.05.56-.15.11-.09.17-.25.17-.46v-3.06c0-.24-.08-.44-.25-.61-.17-.18-.36-.27-.59-.27-.29,0-.56.08-.81.24-.21.12-.45.33-.72.62v3.08c0,.21.06.37.17.46.11.1.31.15.59.15v.27h-2.2v-.27c.27,0,.47-.05.59-.15.13-.09.19-.25.19-.46v-3.2c0-.24-.06-.4-.18-.48-.11-.07-.29-.11-.56-.11l-.04-.2,1.44-.44v.99c.29-.29.56-.5.8-.65.36-.22.72-.33,1.06-.33.24,0,.46.08.68.24.24.19.4.43.48.73.3-.29.59-.51.87-.66.36-.2.69-.3,1.01-.3s.61.13.85.38c.22.24.33.52.33.83v3.22c0,.21.06.36.19.46.13.1.32.15.58.15v.27h-2.15Z"/>
  </g>
  <g>
    <path d="M108.86,88.48c-.12.29-.3.56-.53.8-.22.21-.48.38-.77.5-.29.13-.6.19-.91.19-.29,0-.55-.06-.79-.17-.24-.11-.46-.26-.64-.47-.18-.19-.31-.4-.41-.63s-.14-.48-.14-.73c0-.17.05-.31.14-.42.1-.11.24-.16.41-.16.16,0,.29.05.39.14.11.1.16.23.16.4s-.06.29-.17.4c-.11.1-.23.15-.38.15-.05,0-.09,0-.11,0-.04,0-.07-.01-.08-.02.04.16.11.31.21.47.09.14.21.27.35.39.16.11.32.2.49.27.18.07.36.11.56.11.24,0,.47-.07.67-.2.2-.13.37-.3.49-.51.11-.19.18-.43.23-.73.03-.21.04-.47.04-.78s-.01-.53-.03-.7c-.03-.26-.09-.48-.17-.68-.09-.21-.21-.37-.36-.5-.17-.14-.36-.2-.57-.2-.19,0-.37.02-.53.07-.2.06-.39.17-.56.32-.09.06-.16.13-.21.2-.04.04-.07.09-.11.15-.03.04-.05.07-.06.09-.02.02-.05.03-.09.03-.08,0-.13-.03-.15-.08-.01-.03-.02-.08-.02-.16v-.04s.01-3.25.01-3.25c0-.14,0-.22.02-.25.03-.03.1-.02.23.01.22.1.46.18.71.23.24.05.49.08.75.08.2,0,.36,0,.48-.02.16-.02.35-.06.56-.11l.36-.16.18-.06s.06.01.08.03c.02.03.03.06.02.1-.04.1-.12.22-.25.35-.07.07-.17.15-.29.25v.02c-.25.16-.5.29-.76.38-.27.09-.55.14-.83.14-.16,0-.31-.01-.47-.04-.16-.02-.32-.05-.46-.1v2.14c.11-.1.21-.18.31-.25.11-.08.22-.14.33-.17.11-.05.24-.09.36-.11.12-.02.25-.03.39-.03.29,0,.56.06.81.18.26.12.48.3.68.52.19.24.34.5.44.79.11.29.16.59.16.9,0,.33-.06.64-.19.94Z"/>
    <path d="M114.86,89.55c-.36.28-.74.42-1.16.42-.59,0-1.11-.25-1.55-.76-.46-.51-.69-1.12-.69-1.83,0-.84.26-1.55.78-2.11.49-.53,1.06-.79,1.69-.79.31,0,.62.08.93.25.3.16.5.33.6.52.1.21.11.39.03.55-.07.15-.2.23-.38.23-.14,0-.25-.05-.33-.14-.05-.05-.1-.15-.16-.3l-.08-.16c-.11-.22-.23-.38-.35-.48-.14-.11-.33-.16-.55-.16-.39,0-.72.21-1.01.62-.31.46-.47,1.05-.47,1.78s.15,1.26.46,1.69c.31.44.73.65,1.25.65.26,0,.51-.07.75-.2.28-.16.58-.43.9-.81l.16.09c-.27.42-.55.74-.85.96Z"/>
    <path d="M122.56,89.78v-.27c.25,0,.43-.05.55-.15.12-.09.18-.25.18-.46v-3.04c0-.25-.08-.46-.25-.63-.17-.19-.39-.28-.65-.28-.24,0-.49.08-.76.24-.23.13-.47.32-.74.58v3.14c0,.21.06.37.18.46.12.1.31.15.57.15v.27h-2.13v-.27c.26,0,.45-.05.56-.15.11-.09.17-.25.17-.46v-3.06c0-.24-.08-.44-.25-.61-.16-.18-.36-.27-.59-.27-.29,0-.56.08-.81.24-.21.12-.45.33-.72.62v3.09c0,.21.06.37.17.46.11.1.31.15.59.15v.27h-2.2v-.27c.27,0,.47-.05.59-.15.13-.09.19-.25.19-.46v-3.2c0-.24-.06-.4-.18-.48-.11-.07-.29-.11-.56-.11l-.04-.2,1.44-.44v.99c.29-.29.56-.5.8-.65.36-.22.72-.33,1.06-.33.24,0,.46.08.67.24.24.19.4.43.48.73.3-.29.59-.51.87-.66.36-.2.69-.3,1.01-.3s.61.13.85.39c.22.24.33.52.33.83v3.22c0,.21.06.36.19.46.13.1.32.15.58.15v.27h-2.15Z"/>
  </g>
  <path d="M30.64,111.51v-.28c.48,0,.79-.05.93-.14.15-.11.17-.31.06-.61l-.65-1.84h-3.06l-.51,1.59c-.14.4-.14.67,0,.81.13.13.44.19.94.19v.28h-2.41v-.28c.31,0,.54-.06.68-.19.15-.14.31-.46.49-.95l2.19-6.41.61-.27,2.43,7.03c.09.29.23.5.4.61.17.11.4.17.7.17v.28h-2.81ZM29.44,104.22l-1.4,4.09h2.83l-1.43-4.09Z"/>
  <path d="M108.88,66.12c-.52.46-1.12.69-1.81.69-.91,0-1.67-.36-2.29-1.08-.66-.78-.99-1.81-.99-3.1,0-1.14.29-2.1.86-2.89.59-.8,1.34-1.2,2.24-1.2.21,0,.42.02.63.06.13.04.34.1.64.19l.06.03.79-.25.77,2-.17.11c-.35-.51-.7-.91-1.07-1.21-.53-.44-1.07-.66-1.62-.66-.68,0-1.24.36-1.7,1.09-.45.72-.67,1.63-.67,2.73,0,1.03.27,1.9.81,2.59.53.69,1.19,1.04,1.98,1.04.47,0,.9-.15,1.3-.44.43-.31.81-.78,1.15-1.41l.21.09c-.28.69-.64,1.23-1.09,1.62Z"/>
</svg>