<svg id="레이어_1" data-name="레이어 1" xmlns="http://www.w3.org/2000/svg" width="170.83" height="170.83" viewBox="0 0 170.83 170.83">
  <circle cx="85.41" cy="85.41" r="85.04" fill="#dcdddd" stroke="#000" stroke-miterlimit="10" stroke-width="0.75"/>
  <circle cx="85.41" cy="85.41" r="42.52" fill="#fff" stroke="#000" stroke-miterlimit="10" stroke-width="0.75"/>
  <line x1="30.71" y1="20.3" x2="169.08" y2="70.66" fill="none" stroke="#000" stroke-miterlimit="10" stroke-width="0.4"/>
  <g>
    <path d="M122.08,47.28l-.6-.17" transform="translate(-34.03 -23.4)" fill="none" stroke="#221e1f" stroke-miterlimit="10" stroke-width="0.4"/>
    <path d="M120.6,46.88c-25.29-6.75-46.16-8.3-54.81-3.94" transform="translate(-34.03 -23.4)" fill="none" stroke="#221e1f" stroke-miterlimit="10" stroke-width="0.4" stroke-dasharray="1.25 0.91"/>
    <path d="M65.39,43.15c-.18.1-.36.2-.53.31" transform="translate(-34.03 -23.4)" fill="none" stroke="#221e1f" stroke-miterlimit="10" stroke-width="0.4"/>
  </g>
  <g>
    <path d="M202.88,93.73c-.07-.19-.14-.38-.23-.57" transform="translate(-34.03 -23.4)" fill="none" stroke="#221e1f" stroke-miterlimit="10" stroke-width="0.4"/>
    <path d="M202.28,92.34C197.57,83,178.3,69.9,151.84,58" transform="translate(-34.03 -23.4)" fill="none" stroke="#221e1f" stroke-miterlimit="10" stroke-width="0.4" stroke-dasharray="1.24 0.9"/>
    <path d="M151.43,57.82l-.57-.25" transform="translate(-34.03 -23.4)" fill="none" stroke="#221e1f" stroke-miterlimit="10" stroke-width="0.4"/>
  </g>
  <g>
    <path d="M126.27,58.56h-4.1V58.3l2.25-2.51.43-.55a4.87,4.87,0,0,0,.37-.6,3.83,3.83,0,0,0,.25-.62,2.23,2.23,0,0,0,0-1.32,1.47,1.47,0,0,0-.27-.58,1.46,1.46,0,0,0-.5-.43,1.41,1.41,0,0,0-.62-.13,1.48,1.48,0,0,0-.93.3,1.66,1.66,0,0,0-.56.82h.14a.6.6,0,0,1,.42.15.58.58,0,0,1,.17.43.6.6,0,0,1-.16.41.56.56,0,0,1-.41.17.54.54,0,0,1-.44-.18.61.61,0,0,1-.16-.44,1.84,1.84,0,0,1,.16-.75,2.22,2.22,0,0,1,.4-.61,2,2,0,0,1,.68-.48,2.25,2.25,0,0,1,.82-.15,2.65,2.65,0,0,1,.9.14,2.34,2.34,0,0,1,.78.45,2,2,0,0,1,.5.7,2.15,2.15,0,0,1,.17.85A2.06,2.06,0,0,1,126,54.8c-.17.19-.37.39-.6.61l-.6.57-.63.59L123,57.71h2.54a1,1,0,0,0,.42-.08.75.75,0,0,0,.18-.35l.09-.45,0-.19h.28Z" transform="translate(-34.03 -23.4)"/>
    <path d="M131.78,56.3a4.36,4.36,0,0,1-.33,1.22,2.24,2.24,0,0,1-.78.93,2,2,0,0,1-1.14.35,2,2,0,0,1-.77-.15,2,2,0,0,1-.64-.41,2.88,2.88,0,0,1-.76-1.5,8.35,8.35,0,0,1-.15-1.71,9.68,9.68,0,0,1,.13-1.65,3.12,3.12,0,0,1,.68-1.5,1.79,1.79,0,0,1,.68-.5,2,2,0,0,1,2.27.43,2.86,2.86,0,0,1,.74,1.5,8.39,8.39,0,0,1,.15,1.72A8.83,8.83,0,0,1,131.78,56.3Zm-.85-2.5a8.72,8.72,0,0,0-.07-.89,2.11,2.11,0,0,0-.27-.82,1.48,1.48,0,0,0-.46-.47,1.13,1.13,0,0,0-.6-.17,1.24,1.24,0,0,0-.63.17,1.52,1.52,0,0,0-.43.47,2,2,0,0,0-.27.85c0,.24,0,.54-.06.89s0,.75,0,1.13,0,.75,0,1.12a6.88,6.88,0,0,0,.06.92,2.7,2.7,0,0,0,.27.88,1.71,1.71,0,0,0,.43.49,1.13,1.13,0,0,0,.63.19,1.1,1.1,0,0,0,.64-.2,1.65,1.65,0,0,0,.45-.52,2.87,2.87,0,0,0,.22-.86c0-.23.06-.53.08-.9s0-.75,0-1.15,0-.76,0-1.15Z" transform="translate(-34.03 -23.4)"/>
    <path d="M138,59.85l0,0a.75.75,0,0,1-.08.14.2.2,0,0,1-.14.06h-.21l-2-5.15-.78.63-.17-.19,1.54-1.28L138,58.84l4.88-10.71h.27v.46Z" transform="translate(-34.03 -23.4)"/>
    <path d="M142.37,48.55V48.1h7.08v.45Z" transform="translate(-34.03 -23.4)"/>
    <path d="M147.26,58.56h-4.1V58.3l2.24-2.51c.17-.2.31-.38.43-.55a5,5,0,0,0,.38-.6,3.83,3.83,0,0,0,.25-.62,2.23,2.23,0,0,0,0-1.32,1.82,1.82,0,0,0-.27-.58,1.46,1.46,0,0,0-.5-.43,1.44,1.44,0,0,0-.62-.13,1.53,1.53,0,0,0-.94.3,1.8,1.8,0,0,0-.56.82h.14a.57.57,0,0,1,.42.15.55.55,0,0,1,.18.43.6.6,0,0,1-.16.41.56.56,0,0,1-.41.17.58.58,0,0,1-.45-.18.65.65,0,0,1-.15-.44,2,2,0,0,1,.15-.75,2.25,2.25,0,0,1,.41-.61,1.88,1.88,0,0,1,.68-.48,2.21,2.21,0,0,1,.82-.15,2.69,2.69,0,0,1,.9.14,2.34,2.34,0,0,1,.78.45,2,2,0,0,1,.5.7,2.15,2.15,0,0,1,.17.85,2.07,2.07,0,0,1-.13.77,2.29,2.29,0,0,1-.41.67c-.17.19-.37.39-.6.61l-.61.57-.62.59L144,57.71h2.54a1,1,0,0,0,.42-.08.75.75,0,0,0,.18-.35l.09-.45,0-.19h.28Z" transform="translate(-34.03 -23.4)"/>
  </g>
</svg>
