<?xml version="1.0" encoding="UTF-8"?>
<svg id="_레이어_1" data-name="레이어 1" xmlns="http://www.w3.org/2000/svg" width="159.28" height="148.31" viewBox="0 0 159.28 148.31">
  <polygon points="151.24 77.07 100.22 9.03 137.07 34.55 151.24 77.07" fill="#dcdddd"/>
  <polygon points="9.5 77.07 100.22 9.03 37.85 20.37 9.5 77.07" fill="#dcdddd"/>
  <circle cx="80.37" cy="77.07" r="70.87" fill="none" stroke="#221e1f" stroke-linejoin="round" stroke-width=".75"/>
  <path d="M100.22,9.03l51.02,68.04L100.22,9.03Z" fill="none" stroke="#221e1f" stroke-linejoin="round" stroke-width=".4"/>
  <line x1="9.5" y1="77.07" x2="100.22" y2="9.03" fill="none" stroke="#221e1f" stroke-linejoin="round" stroke-width=".4"/>
  <line x1="37.85" y1="20.38" x2="80.38" y2="77.07" fill="none" stroke="#221e1f" stroke-linejoin="round" stroke-width=".4"/>
  <g>
    <line x1="32.76" y1="56.37" x2="35.95" y2="60.62" fill="none" stroke="#221e1f" stroke-linejoin="round" stroke-width=".4"/>
    <line x1="31.17" y1="57.44" x2="34.36" y2="61.7" fill="none" stroke="#221e1f" stroke-linejoin="round" stroke-width=".4"/>
  </g>
  <g>
    <line x1="76.27" y1="23.67" x2="79.46" y2="27.92" fill="none" stroke="#221e1f" stroke-linejoin="round" stroke-width=".4"/>
    <line x1="74.68" y1="24.75" x2="77.87" y2="29" fill="none" stroke="#221e1f" stroke-linejoin="round" stroke-width=".4"/>
  </g>
  <line x1="115.05" y1="24.39" x2="110.8" y2="27.57" fill="none" stroke="#221e1f" stroke-linejoin="round" stroke-width=".4"/>
  <line x1="139.6" y1="57.12" x2="135.34" y2="60.31" fill="none" stroke="#221e1f" stroke-linejoin="round" stroke-width=".4"/>
  <line x1="137.07" y1="34.55" x2="80.36" y2="77.07" fill="none" stroke="#221e1f" stroke-linejoin="round" stroke-width=".4"/>
  <polygon points="151.24 77.07 9.5 77.07 37.85 20.38 100.22 9.03 137.07 34.55 151.24 77.07" fill="none" stroke="#221e1f" stroke-linejoin="round" stroke-width=".75"/>
  <path d="M4.69,81.12v-.28c.48,0,.79-.05.93-.14.15-.11.17-.31.06-.61l-.65-1.84H1.98l-.51,1.59c-.14.4-.14.67,0,.81.13.13.44.19.94.19v.28H0v-.28c.31,0,.54-.06.68-.19.15-.14.31-.46.49-.95l2.19-6.41.61-.27,2.43,7.03c.09.29.23.5.4.61.17.11.4.17.7.17v.28h-2.81ZM3.49,73.83l-1.4,4.09h2.83l-1.43-4.09Z" fill="#221e1f"/>
  <path d="M158.58,80.37c-.51.44-1.21.67-2.09.67h-3.54v-.28c.42,0,.7-.05.83-.14.14-.09.22-.29.22-.58v-5.88c0-.27-.07-.47-.22-.58-.16-.12-.44-.18-.83-.18v-.28h3.33c.82,0,1.47.18,1.96.53.46.34.69.78.69,1.33,0,.41-.13.76-.38,1.04-.29.32-.74.56-1.35.72.72.14,1.25.41,1.6.79.32.35.48.8.48,1.34,0,.59-.23,1.1-.69,1.5ZM157.72,73.89c-.35-.33-.83-.49-1.45-.49h-.65c-.32,0-.56.06-.7.18-.14.12-.22.32-.22.58v2.53h1.57c.53,0,.98-.19,1.36-.58.35-.36.53-.76.53-1.19,0-.39-.15-.73-.44-1.02ZM157.96,77.54c-.41-.39-.92-.58-1.51-.58h-1.74v3.07c0,.29.07.48.22.58.12.09.36.14.7.14h.75c.67,0,1.21-.2,1.61-.59.38-.36.56-.79.56-1.3s-.19-.95-.58-1.32Z" fill="#221e1f"/>
  <path d="M36.35,19.16c-.52.46-1.12.69-1.81.69-.91,0-1.67-.36-2.29-1.08-.66-.78-.99-1.81-.99-3.1,0-1.14.29-2.1.86-2.89.59-.8,1.34-1.2,2.24-1.2.21,0,.42.02.63.06.13.04.34.1.64.19l.06.03.79-.25.77,2-.17.11c-.35-.51-.7-.91-1.07-1.21-.53-.44-1.07-.66-1.62-.66-.68,0-1.24.36-1.7,1.09-.45.72-.67,1.63-.67,2.73,0,1.03.27,1.9.81,2.59.53.69,1.19,1.04,1.98,1.04.47,0,.9-.15,1.3-.44.43-.31.81-.78,1.15-1.41l.21.09c-.28.69-.64,1.23-1.09,1.62Z" fill="#221e1f"/>
  <path d="M143.79,34.09c-.68.83-1.66,1.25-2.92,1.25h-2.97v-.28c.38,0,.65-.06.81-.18.16-.12.24-.33.24-.62v-5.81c0-.26-.08-.45-.24-.57-.17-.12-.44-.17-.81-.17v-.28h2.97c1.26,0,2.23.41,2.92,1.24.61.72.91,1.62.91,2.72s-.3,2-.91,2.72ZM143.18,28.84c-.57-.77-1.34-1.15-2.3-1.15h-.33c-.31,0-.54.06-.68.17-.14.12-.21.31-.21.57v5.81c0,.29.07.49.21.62.14.12.36.18.68.18h.33c.97,0,1.73-.38,2.3-1.15.51-.69.77-1.53.77-2.54s-.26-1.84-.77-2.53Z" fill="#221e1f"/>
  <path d="M55.12,56.07v-.28c.39,0,.66-.07.82-.2.15-.11.23-.3.23-.56v-6.5h-.12l-2.87,7.63h-.17l-2.83-7.47h-.13v6.34c0,.28.07.47.22.58.16.12.44.18.84.18v.28h-2.42v-.28c.4,0,.67-.06.83-.18.14-.11.22-.3.22-.58v-6c0-.22-.08-.38-.24-.47-.15-.09-.42-.13-.81-.13v-.28h1.99l2.6,6.92,2.59-6.92h2.05v.28c-.42,0-.71.05-.86.14-.13.09-.19.24-.19.46v6c0,.26.07.44.22.56.16.14.44.2.84.2v.28h-2.8Z" fill="#221e1f"/>
  <path d="M127.56,47.65c-.17.09-.25.24-.25.45v7.09h-.19l-4.83-6.97v5.88c0,.28.08.48.23.59.17.11.47.17.92.17v.28h-2.53v-.28c.38,0,.65-.06.81-.17.16-.11.24-.31.24-.59v-5.84c0-.29-.08-.48-.24-.59-.16-.12-.43-.17-.81-.17v-.28h1.49l4.59,6.64v-5.76c0-.21-.09-.37-.26-.46-.18-.09-.48-.14-.91-.14v-.28h2.55v.28c-.37,0-.64.05-.81.15Z" fill="#221e1f"/>
  <path d="M82.83,85.83c-.61.86-1.43,1.29-2.45,1.29s-1.85-.43-2.46-1.29c-.56-.77-.84-1.72-.84-2.84s.28-2.07.84-2.85c.61-.86,1.43-1.29,2.46-1.29s1.84.43,2.45,1.29c.56.78.84,1.73.84,2.85s-.28,2.06-.84,2.84ZM82.27,80.34c-.48-.8-1.11-1.2-1.89-1.2s-1.43.4-1.91,1.2c-.44.74-.66,1.63-.66,2.67s.22,1.9.66,2.63c.48.8,1.12,1.2,1.91,1.2s1.41-.4,1.89-1.2c.44-.73.66-1.61.66-2.63s-.22-1.93-.66-2.67Z" fill="#221e1f"/>
  <path d="M104.67,3.62c-.42.38-.98.57-1.66.57h-1.8v2.64c0,.28.08.48.23.6.17.14.48.2.91.2v.28h-2.89v-.28c.39,0,.66-.07.82-.2.15-.12.23-.32.23-.6V.99c0-.27-.08-.46-.23-.56-.15-.1-.42-.15-.82-.15v-.28h3.64c.63,0,1.16.17,1.59.52.45.37.67.86.67,1.47,0,.69-.23,1.23-.68,1.63ZM104.14.8c-.33-.34-.77-.52-1.31-.52h-.85c-.28,0-.48.05-.59.15-.12.11-.18.29-.18.56v2.92h1.62c.54,0,.98-.21,1.32-.62.3-.37.45-.81.45-1.3s-.15-.87-.45-1.19Z" fill="#221e1f"/>
  <g>
    <path d="M86.53,93.81c.21,0,.41-.01.62-.02" fill="none" stroke="#221e1f" stroke-linejoin="round" stroke-width=".4"/>
    <path d="M88.05,93.77c30.48-.93,55.33-7.37,62.54-15.83" fill="none" stroke="#221e1f" stroke-dasharray="1.24 .9" stroke-linejoin="round" stroke-width=".4"/>
    <path d="M150.87,77.6c.13-.16.25-.33.37-.49" fill="none" stroke="#221e1f" stroke-linejoin="round" stroke-width=".4"/>
  </g>
  <g>
    <path d="M9.5,77.07c.12.17.24.33.37.5" fill="none" stroke="#221e1f" stroke-linejoin="round" stroke-width=".4"/>
    <path d="M10.45,78.25c7.59,8.35,32.4,14.66,62.71,15.53" fill="none" stroke="#221e1f" stroke-dasharray="1.24 .9" stroke-linejoin="round" stroke-width=".4"/>
    <path d="M73.61,93.8c.21,0,.41.01.62.02" fill="none" stroke="#221e1f" stroke-linejoin="round" stroke-width=".4"/>
  </g>
  <g>
    <path d="M54.86,31.67c.08.19.16.38.24.57" fill="none" stroke="#221e1f" stroke-linejoin="round" stroke-width=".4"/>
    <path d="M55.39,33.01c1.21,3.42,1.27,6.72.09,9.09" fill="none" stroke="#221e1f" stroke-dasharray="1.13 .82" stroke-linejoin="round" stroke-width=".4"/>
    <path d="M55.29,42.46c-.1.18-.21.35-.33.52" fill="none" stroke="#221e1f" stroke-linejoin="round" stroke-width=".4"/>
  </g>
  <g>
    <path d="M38.12,20.55c.19-.07.39-.12.59-.17" fill="none" stroke="#221e1f" stroke-linejoin="round" stroke-width=".4"/>
    <path d="M39.56,20.22c2.75-.32,6.05.89,9.04,3.29" fill="none" stroke="#221e1f" stroke-dasharray="1.19 .87" stroke-linejoin="round" stroke-width=".4"/>
    <path d="M48.95,23.79c.16.13.31.27.47.41" fill="none" stroke="#221e1f" stroke-linejoin="round" stroke-width=".4"/>
  </g>
  <g>
    <path d="M78.07,97.78h-1.78c-.33,0-.63.02-.89.04v-.34h.53c.31,0,.51-.03.61-.08.16-.07.24-.22.24-.45v-5.69c-.17.08-.37.14-.59.19-.19.04-.4.08-.61.1h-.24v-.34c.06,0,.12,0,.16-.01.06,0,.13,0,.2-.01.19-.01.37-.05.56-.1.18-.04.35-.1.53-.18.1-.06.2-.12.29-.18.09-.07.18-.15.26-.23h.26v6.45c0,.24.08.39.24.45.1.05.31.08.62.08h.52v.34c-.27-.02-.56-.04-.89-.04Z" fill="#221e1f"/>
    <path d="M84.76,95.57c-.06.46-.17.86-.33,1.21-.19.4-.44.71-.77.93-.33.23-.71.34-1.14.34-.27,0-.52-.05-.76-.15-.24-.09-.46-.23-.64-.41-.36-.34-.61-.83-.75-1.49-.1-.46-.15-1.03-.15-1.71,0-.64.04-1.18.13-1.64.13-.64.35-1.14.68-1.49.2-.23.43-.4.68-.5s.53-.16.84-.16c.27,0,.53.05.77.15.23.1.45.25.66.44.34.33.59.83.73,1.49.1.47.15,1.04.15,1.72,0,.51-.03.93-.08,1.27ZM83.92,93.08c-.01-.36-.04-.65-.08-.89-.06-.36-.15-.64-.27-.82-.13-.2-.28-.35-.45-.46-.19-.12-.39-.17-.6-.17-.23,0-.44.06-.62.17-.17.1-.31.25-.43.46-.13.19-.22.48-.27.85-.04.24-.06.54-.06.89,0,.37-.01.74-.01,1.13s0,.74.01,1.12c0,.31.02.62.06.91.06.37.15.67.27.88.11.2.26.36.43.48.19.13.4.19.62.19.24,0,.45-.07.63-.2.18-.12.33-.29.45-.51.1-.2.18-.49.23-.86.03-.23.05-.53.08-.89.01-.37.02-.75.02-1.15,0-.37,0-.75-.01-1.15v.02Z" fill="#221e1f"/>
  </g>
  <path d="M53.86,31.35h-4.11v-.26l2.25-2.5c.17-.2.31-.38.43-.55.14-.2.27-.4.38-.6.11-.21.19-.42.25-.62.07-.23.11-.45.11-.66,0-.24-.03-.46-.09-.66-.06-.22-.15-.42-.27-.58-.14-.19-.31-.33-.51-.43-.19-.09-.39-.13-.62-.13-.36,0-.67.1-.94.3-.26.2-.45.47-.56.82h.14c.17-.01.31.04.42.14.12.11.17.25.17.43,0,.16-.05.29-.16.41-.12.11-.25.17-.41.17-.19,0-.33-.06-.44-.18-.1-.11-.15-.26-.15-.44,0-.25.05-.5.15-.74.1-.23.24-.43.41-.61.19-.22.42-.38.68-.48.25-.1.53-.15.82-.15.32,0,.62.05.9.14.3.1.56.25.79.45.22.2.38.43.5.7.12.26.17.54.17.85,0,.29-.04.54-.13.77-.09.22-.22.44-.41.67-.17.19-.38.39-.61.6-.12.12-.32.31-.61.57l-.63.59-1.18,1.14h2.04c.22,0,.38,0,.51-.01.23-.01.37-.04.42-.08.07-.06.13-.18.18-.35.02-.09.05-.24.09-.45l.03-.18h.28l-.31,1.92Z" fill="#221e1f"/>
  <polyline points="103.6 13.56 99.07 16.96 95.66 12.43" fill="none" stroke="#221e1f" stroke-miterlimit="10" stroke-width=".4"/>
  <polyline points="59.39 39.69 62.79 44.22 58.26 47.62" fill="none" stroke="#221e1f" stroke-miterlimit="10" stroke-width=".4"/>
  <polyline points="121.26 46.46 117.86 41.92 122.39 38.52" fill="none" stroke="#221e1f" stroke-miterlimit="10" stroke-width=".4"/>
</svg>