<?xml version="1.0" encoding="UTF-8"?>
<svg id="_레이어_1" data-name="레이어 1" xmlns="http://www.w3.org/2000/svg" width="156.55" height="125.7" viewBox="0 0 156.55 125.7">
  <polygon points="12.11 111.33 148.17 111.33 12.11 9.28 12.11 111.33" fill="none" stroke="#231815" stroke-linejoin="round" stroke-width=".75"/>
  <line x1="12.11" y1="111.33" x2="102.82" y2="77.32" fill="none" stroke="#231815" stroke-miterlimit="10" stroke-width=".4"/>
  <line x1="12.11" y1="111.33" x2="57.46" y2="43.3" fill="none" stroke="#231815" stroke-miterlimit="10" stroke-width=".4"/>
  <g>
    <line x1="39.26" y1="25.22" x2="35" y2="30.89" fill="none" stroke="#231815" stroke-miterlimit="10" stroke-width=".4"/>
    <line x1="36.99" y1="23.52" x2="32.74" y2="29.18" fill="none" stroke="#231815" stroke-miterlimit="10" stroke-width=".4"/>
  </g>
  <g>
    <line x1="83.4" y1="58.32" x2="79.15" y2="63.99" fill="none" stroke="#231815" stroke-miterlimit="10" stroke-width=".4"/>
    <line x1="81.13" y1="56.62" x2="76.88" y2="62.29" fill="none" stroke="#231815" stroke-miterlimit="10" stroke-width=".4"/>
  </g>
  <g>
    <line x1="127.4" y1="91.33" x2="123.15" y2="97" fill="none" stroke="#231815" stroke-miterlimit="10" stroke-width=".4"/>
    <line x1="125.13" y1="89.63" x2="120.88" y2="95.3" fill="none" stroke="#231815" stroke-miterlimit="10" stroke-width=".4"/>
  </g>
  <path d="M12.19,8.09v-.28c.48,0,.79-.05.93-.14.15-.11.17-.31.06-.61l-.65-1.84h-3.06l-.51,1.59c-.14.4-.14.67,0,.81.13.13.44.19.94.19v.28h-2.41v-.28c.31,0,.54-.06.68-.19.15-.14.31-.46.49-.95L10.86.27l.61-.27,2.43,7.03c.09.29.23.5.4.61.17.11.4.17.7.17v.28h-2.81ZM10.99.81l-1.4,4.09h2.83l-1.43-4.09Z" fill="#221e1f"/>
  <path d="M10.58,118.59c-.51.44-1.21.67-2.09.67h-3.54v-.28c.42,0,.7-.05.83-.14.14-.09.22-.29.22-.58v-5.88c0-.27-.07-.47-.22-.58-.16-.12-.44-.18-.83-.18v-.28h3.33c.82,0,1.47.18,1.96.53.46.34.69.78.69,1.33,0,.41-.13.76-.38,1.04-.29.32-.74.56-1.35.72.72.14,1.25.41,1.6.79.32.35.48.8.48,1.34,0,.59-.23,1.1-.69,1.5ZM9.71,112.11c-.35-.33-.83-.49-1.45-.49h-.65c-.32,0-.56.06-.7.18-.14.12-.22.32-.22.58v2.53h1.57c.53,0,.98-.19,1.36-.58.35-.36.53-.76.53-1.19,0-.39-.15-.73-.44-1.02ZM9.95,115.76c-.41-.39-.92-.58-1.51-.58h-1.74v3.07c0,.29.07.48.22.58.12.09.36.14.7.14h.75c.67,0,1.21-.2,1.61-.59.38-.36.56-.79.56-1.3s-.19-.95-.58-1.32Z" fill="#221e1f"/>
  <path d="M155.46,118.74c-.52.46-1.12.69-1.81.69-.91,0-1.67-.36-2.29-1.08-.66-.78-.99-1.81-.99-3.1,0-1.14.29-2.1.86-2.89.59-.8,1.34-1.2,2.24-1.2.21,0,.42.02.63.06.13.04.34.1.64.19l.06.03.79-.25.77,2-.17.11c-.35-.51-.7-.91-1.07-1.21-.53-.44-1.07-.66-1.62-.66-.68,0-1.24.36-1.7,1.09-.45.72-.67,1.63-.67,2.73,0,1.03.27,1.9.81,2.59.53.69,1.19,1.04,1.98,1.04.47,0,.9-.15,1.3-.44.43-.31.81-.78,1.15-1.41l.21.09c-.28.69-.64,1.23-1.09,1.62Z" fill="#221e1f"/>
  <path d="M63.93,36.67c-.42.38-.98.57-1.66.57h-1.8v2.64c0,.28.08.48.23.6.17.14.48.2.91.2v.28h-2.89v-.28c.39,0,.66-.07.82-.2.15-.12.23-.32.23-.6v-5.85c0-.27-.08-.46-.23-.56-.15-.1-.42-.15-.82-.15v-.28h3.64c.63,0,1.16.17,1.59.52.45.37.67.86.67,1.47,0,.69-.23,1.23-.68,1.63ZM63.4,33.84c-.33-.34-.77-.52-1.31-.52h-.85c-.28,0-.48.05-.59.15-.12.11-.18.29-.18.56v2.92h1.62c.54,0,.98-.21,1.32-.62.3-.37.45-.81.45-1.3s-.15-.87-.45-1.19Z" fill="#221e1f"/>
  <path d="M110.78,77.91c-.2.19-.36.32-.48.39-.19.11-.39.16-.62.16-.32,0-.62-.13-.89-.38-.23-.22-.43-.52-.59-.9-.17.07-.34.13-.53.17-.17.04-.32.05-.47.05-1.04,0-1.87-.43-2.49-1.29-.56-.77-.84-1.72-.84-2.84s.28-2.06.84-2.85c.63-.86,1.46-1.29,2.49-1.29s1.82.43,2.46,1.29c.6.8.9,1.75.9,2.85,0,.77-.14,1.49-.43,2.16-.32.75-.77,1.26-1.33,1.51.1.24.24.45.42.62.21.21.43.31.67.31.16,0,.29-.01.4-.04.13-.03.27-.09.43-.17l.13.17-.08.06ZM109.14,70.62c-.48-.8-1.13-1.2-1.93-1.2s-1.45.4-1.93,1.2c-.44.73-.66,1.62-.66,2.67,0,.51.07,1.03.21,1.57.16.61.37,1.05.63,1.32-.04-.44.07-.76.32-.96.19-.14.46-.2.82-.2.32,0,.65.1.97.31.41.27.77.68,1.07,1.24.4-.29.7-.79.91-1.5.17-.57.26-1.16.26-1.77,0-1.05-.22-1.93-.66-2.67ZM107.25,75.63c-.24-.18-.51-.27-.81-.27-.22,0-.38.04-.49.12-.21.15-.31.44-.31.87.27.28.54.48.81.61.24.11.49.16.76.16.14,0,.28-.02.43-.08.14-.04.29-.1.44-.17-.23-.59-.51-1-.83-1.25Z" fill="#221e1f"/>
  <polyline points="12.11 105.49 17.78 105.49 17.78 111.15" fill="none" stroke="#221e1f" stroke-miterlimit="10" stroke-width=".4"/>
  <polyline points="57.46 105.49 63.13 105.49 63.13 111.15" fill="none" stroke="#221e1f" stroke-miterlimit="10" stroke-width=".4"/>
  <polyline points="102.8 105.49 108.47 105.49 108.47 111.15" fill="none" stroke="#221e1f" stroke-miterlimit="10" stroke-width=".4"/>
  <line x1="57.46" y1="43.3" x2="12.11" y2="43.3" fill="none" stroke="#221e1f" stroke-dasharray="1.24 .9" stroke-miterlimit="10" stroke-width=".4"/>
  <line x1="102.82" y1="77.32" x2="12.11" y2="77.32" fill="none" stroke="#221e1f" stroke-dasharray="1.24 .9" stroke-miterlimit="10" stroke-width=".4"/>
  <line x1="57.46" y1="43.3" x2="57.46" y2="111.33" fill="none" stroke="#221e1f" stroke-dasharray="1.24 .9" stroke-miterlimit="10" stroke-width=".4"/>
  <line x1="102.82" y1="77.32" x2="102.82" y2="111.33" fill="none" stroke="#221e1f" stroke-dasharray="1.24 .9" stroke-miterlimit="10" stroke-width=".4"/>
  <path d="M59.28,124.49v-.28c.39,0,.66-.07.82-.2.15-.11.23-.3.23-.56v-6.5h-.12l-2.87,7.63h-.17l-2.83-7.47h-.13v6.34c0,.28.07.47.22.58.16.12.44.18.84.18v.28h-2.42v-.28c.4,0,.67-.06.83-.18.14-.11.22-.3.22-.58v-6c0-.22-.08-.38-.24-.47-.15-.09-.42-.13-.81-.13v-.28h1.99l2.6,6.92,2.59-6.92h2.05v.28c-.42,0-.71.05-.86.14-.13.09-.19.24-.19.46v6c0,.26.07.44.22.56.16.14.44.2.84.2v.28h-2.8Z" fill="#221e1f"/>
  <path d="M105.74,117.01c-.17.09-.25.24-.25.45v7.09h-.19l-4.83-6.97v5.88c0,.28.08.48.23.59.17.11.47.17.92.17v.28h-2.53v-.28c.38,0,.65-.06.81-.17.16-.11.24-.31.24-.59v-5.84c0-.29-.08-.48-.24-.59-.16-.12-.43-.17-.81-.17v-.28h1.49l4.59,6.64v-5.76c0-.21-.09-.37-.26-.46-.18-.09-.48-.14-.91-.14v-.28h2.55v.28c-.37,0-.64.05-.81.15Z" fill="#221e1f"/>
  <path d="M3.88,47.35v-.28c.47,0,.77-.03.91-.1.17-.07.19-.22.06-.44l-1.7-2.91-1.67,2.77c-.16.24-.17.42-.02.53.14.1.46.15.96.15v.28H0v-.28c.3,0,.54-.06.71-.19.14-.09.29-.27.45-.54l1.82-2.99-1.89-3.16c-.1-.17-.21-.28-.31-.34-.17-.09-.41-.14-.72-.14v-.28h2.81v.28c-.41,0-.7.03-.88.09-.19.07-.23.19-.13.35l1.55,2.58,1.46-2.32c.17-.27.19-.46.08-.56-.12-.09-.44-.14-.96-.14v-.28h2.42v.28c-.28,0-.52.06-.71.18-.18.12-.36.32-.53.59l-1.58,2.51,2.04,3.48c.14.24.29.4.45.48.13.07.33.11.62.11v.28h-2.81Z" fill="#221e1f"/>
  <path d="M5.95,73.62c-.12.09-.26.3-.42.62l-1.82,3.49v2.46c0,.22.07.38.22.46.17.09.48.14.94.14v.28H1.88v-.28c.46,0,.77-.05.93-.14.15-.09.23-.24.23-.47v-2.27l-1.99-4.01c-.13-.19-.25-.32-.37-.38-.14-.06-.36-.1-.68-.1v-.28h2.81v.28c-.5,0-.82.03-.95.1-.12.06-.13.19-.03.39l1.71,3.53,1.72-3.3c.13-.26.13-.44,0-.55-.14-.11-.47-.16-.98-.16v-.28h2.43v.28c-.34,0-.59.06-.75.18Z" fill="#221e1f"/>
  <g>
    <g>
      <path d="M38.55,119.21c.21-.01.41-.03.62-.05" fill="none" stroke="#221e1f" stroke-miterlimit="10" stroke-width=".4"/>
      <path d="M40.06,119.08c8.04-.82,14.48-3.46,16.87-6.87" fill="none" stroke="#221e1f" stroke-dasharray="1.23 .89" stroke-miterlimit="10" stroke-width=".4"/>
      <path d="M57.17,111.84c.11-.18.21-.36.29-.54" fill="none" stroke="#221e1f" stroke-miterlimit="10" stroke-width=".4"/>
    </g>
    <g>
      <path d="M12.11,111.29c.09.18.18.36.29.54" fill="none" stroke="#221e1f" stroke-miterlimit="10" stroke-width=".4"/>
      <path d="M12.91,112.56c2.62,3.3,9.07,5.83,17.04,6.56" fill="none" stroke="#221e1f" stroke-dasharray="1.23 .89" stroke-miterlimit="10" stroke-width=".4"/>
      <path d="M30.4,119.17c.21.02.41.03.62.05" fill="none" stroke="#221e1f" stroke-miterlimit="10" stroke-width=".4"/>
    </g>
    <path d="M35.58,121.67v.96c0,.23.06.38.18.44.08.05.25.08.52.08h.38v.34c-.23-.02-.48-.04-.76-.04h-1.5c-.28,0-.53.02-.75.04v-.34h.35c.28,0,.46-.02.54-.06.12-.06.18-.22.18-.45v-.96h-2.94v-.34l3.39-5.16c.04-.06.07-.09.09-.11.03-.01.08-.02.14-.02.08,0,.13.02.15.06.01.03.02.09.02.17v5.05h1.11v.34h-1.11ZM34.79,117.22l-2.69,4.11h2.69v-4.11Z" fill="#221e1f"/>
  </g>
  <g>
    <g>
      <path d="M83.91,119.21c.21-.01.41-.03.62-.05" fill="none" stroke="#221e1f" stroke-miterlimit="10" stroke-width=".4"/>
      <path d="M85.42,119.08c8.04-.82,14.48-3.46,16.87-6.87" fill="none" stroke="#221e1f" stroke-dasharray="1.23 .89" stroke-miterlimit="10" stroke-width=".4"/>
      <path d="M102.53,111.84c.11-.18.21-.36.29-.54" fill="none" stroke="#221e1f" stroke-miterlimit="10" stroke-width=".4"/>
    </g>
    <g>
      <path d="M57.46,111.29c.09.18.18.36.29.54" fill="none" stroke="#221e1f" stroke-miterlimit="10" stroke-width=".4"/>
      <path d="M58.26,112.56c2.62,3.3,9.07,5.83,17.04,6.56" fill="none" stroke="#221e1f" stroke-dasharray="1.23 .89" stroke-miterlimit="10" stroke-width=".4"/>
      <path d="M75.76,119.17c.21.02.41.03.62.05" fill="none" stroke="#221e1f" stroke-miterlimit="10" stroke-width=".4"/>
    </g>
    <path d="M80.93,121.67v.96c0,.23.06.38.18.44.08.05.25.08.52.08h.38v.34c-.23-.02-.48-.04-.76-.04h-1.5c-.28,0-.53.02-.75.04v-.34h.35c.28,0,.46-.02.54-.06.12-.06.18-.22.18-.45v-.96h-2.94v-.34l3.39-5.16c.04-.06.07-.09.09-.11.03-.01.08-.02.14-.02.08,0,.13.02.15.06.01.03.02.09.02.17v5.05h1.11v.34h-1.11ZM80.14,117.22l-2.69,4.11h2.69v-4.11Z" fill="#221e1f"/>
  </g>
  <g>
    <g>
      <path d="M129.04,119.21c.21-.01.41-.03.62-.05" fill="none" stroke="#221e1f" stroke-miterlimit="10" stroke-width=".4"/>
      <path d="M130.55,119.08c8.04-.82,14.48-3.46,16.87-6.87" fill="none" stroke="#221e1f" stroke-dasharray="1.23 .89" stroke-miterlimit="10" stroke-width=".4"/>
      <path d="M147.66,111.84c.11-.18.21-.36.29-.54" fill="none" stroke="#221e1f" stroke-miterlimit="10" stroke-width=".4"/>
    </g>
    <g>
      <path d="M102.6,111.29c.09.18.18.36.29.54" fill="none" stroke="#221e1f" stroke-miterlimit="10" stroke-width=".4"/>
      <path d="M103.4,112.56c2.62,3.3,9.07,5.83,17.04,6.56" fill="none" stroke="#221e1f" stroke-dasharray="1.23 .89" stroke-miterlimit="10" stroke-width=".4"/>
      <path d="M120.9,119.16c.21.02.41.03.62.05" fill="none" stroke="#221e1f" stroke-miterlimit="10" stroke-width=".4"/>
    </g>
    <path d="M126.07,121.67v.96c0,.23.06.38.18.44.08.05.25.08.52.08h.38v.34c-.23-.02-.48-.04-.76-.04h-1.5c-.28,0-.53.02-.75.04v-.34h.35c.28,0,.46-.02.54-.06.12-.06.18-.22.18-.45v-.96h-2.94v-.34l3.39-5.16c.04-.06.07-.09.09-.11.03-.01.08-.02.14-.02.08,0,.13.02.15.06.01.03.02.09.02.17v5.05h1.11v.34h-1.11ZM125.28,117.22l-2.69,4.11h2.69v-4.11Z" fill="#221e1f"/>
  </g>
  <g>
    <g>
      <path d="M4.84,20.13c.05-.2.09-.4.14-.6" fill="none" stroke="#221e1f" stroke-miterlimit="10" stroke-width=".4"/>
      <path d="M5.23,18.6c1.21-4.14,3.37-7.32,5.98-8.73" fill="none" stroke="#221e1f" stroke-dasharray="1.31 .95" stroke-miterlimit="10" stroke-width=".4"/>
      <path d="M11.64,9.66c.19-.09.38-.16.57-.23" fill="none" stroke="#221e1f" stroke-miterlimit="10" stroke-width=".4"/>
    </g>
    <g>
      <path d="M12.22,43.27c-.19-.07-.38-.14-.57-.23" fill="none" stroke="#221e1f" stroke-miterlimit="10" stroke-width=".4"/>
      <path d="M10.89,42.63c-3.15-1.9-5.58-6.41-6.41-12.01" fill="none" stroke="#221e1f" stroke-dasharray="1.2 .87" stroke-miterlimit="10" stroke-width=".4"/>
      <path d="M4.42,30.19c-.03-.2-.05-.41-.07-.62" fill="none" stroke="#221e1f" stroke-miterlimit="10" stroke-width=".4"/>
    </g>
    <path d="M7.13,26.94c-.12.26-.28.48-.49.68-.22.21-.49.37-.79.48-.29.11-.59.16-.91.16-.16,0-.31-.01-.44-.03-.14-.02-.28-.05-.4-.09-.4-.12-.73-.31-.97-.58-.27-.29-.41-.63-.41-1.02,0-.2.05-.36.15-.47.11-.11.26-.17.46-.17.18,0,.33.06.44.17.12.11.17.27.17.45,0,.2-.07.36-.22.47-.14.11-.31.16-.51.13.13.24.36.45.7.61.32.15.66.23.99.23.15,0,.29-.03.43-.1.14-.06.26-.14.37-.25.16-.19.27-.42.35-.7.06-.23.1-.49.1-.77,0-.15,0-.28-.02-.4-.01-.13-.03-.24-.05-.34-.09-.35-.23-.62-.42-.79-.21-.19-.48-.29-.81-.29h-.52c-.07,0-.13,0-.16-.02-.05-.02-.08-.06-.08-.12s.01-.1.04-.12c.02,0,.06-.01.12-.01.09,0,.2,0,.31-.01.12,0,.24-.01.35-.02.21-.04.4-.15.58-.34.16-.17.27-.37.35-.59.04-.18.08-.33.1-.44.03-.16.04-.3.04-.44,0-.2-.03-.38-.08-.53-.06-.19-.16-.34-.28-.45-.1-.09-.22-.16-.35-.19-.11-.04-.23-.05-.37-.05-.12,0-.25.01-.38.03-.12.02-.25.05-.38.1-.15.06-.29.13-.41.23-.13.09-.23.2-.3.32h.18c.17.03.29.09.38.17.09.09.13.21.13.38s-.05.3-.16.4c-.1.11-.23.16-.4.16-.18,0-.32-.05-.42-.16-.1-.11-.15-.24-.15-.41,0-.33.12-.62.36-.88.21-.22.48-.39.82-.49.12-.04.24-.08.38-.1.13-.01.27-.02.41-.02.25,0,.5.03.74.1.25.07.46.18.66.31.19.14.35.29.46.47.12.2.18.41.18.63,0,.21-.04.42-.13.62-.07.19-.18.37-.31.56-.14.16-.31.31-.51.45-.19.13-.39.23-.61.31.38.06.72.21,1.03.44.31.23.54.52.69.88.04.11.06.22.09.32.03.12.04.24.04.34,0,.27-.06.54-.18.8Z" fill="#221e1f"/>
  </g>
  <g>
    <g>
      <path d="M4.84,54.09c.05-.2.09-.4.14-.6" fill="none" stroke="#221e1f" stroke-miterlimit="10" stroke-width=".4"/>
      <path d="M5.23,52.56c1.21-4.14,3.37-7.32,5.98-8.73" fill="none" stroke="#221e1f" stroke-dasharray="1.31 .95" stroke-miterlimit="10" stroke-width=".4"/>
      <path d="M11.64,43.62c.19-.09.38-.16.57-.23" fill="none" stroke="#221e1f" stroke-miterlimit="10" stroke-width=".4"/>
    </g>
    <g>
      <path d="M12.22,77.23c-.19-.07-.38-.14-.57-.23" fill="none" stroke="#221e1f" stroke-miterlimit="10" stroke-width=".4"/>
      <path d="M10.89,76.59c-3.15-1.9-5.58-6.41-6.41-12.01" fill="none" stroke="#221e1f" stroke-dasharray="1.2 .87" stroke-miterlimit="10" stroke-width=".4"/>
      <path d="M4.42,64.15c-.03-.2-.05-.41-.07-.62" fill="none" stroke="#221e1f" stroke-miterlimit="10" stroke-width=".4"/>
    </g>
    <path d="M7.13,60.9c-.12.26-.28.48-.49.68-.22.21-.49.37-.79.48-.29.11-.59.16-.91.16-.16,0-.31-.01-.44-.03-.14-.02-.28-.05-.4-.09-.4-.12-.73-.31-.97-.58-.27-.29-.41-.63-.41-1.02,0-.2.05-.36.15-.47.11-.11.26-.17.46-.17.18,0,.33.06.44.17.12.11.17.27.17.45,0,.2-.07.36-.22.47-.14.11-.31.16-.51.13.13.24.36.45.7.61.32.15.66.23.99.23.15,0,.29-.03.43-.1.14-.06.26-.14.37-.25.16-.19.27-.42.35-.7.06-.23.1-.49.1-.77,0-.15,0-.28-.02-.4-.01-.13-.03-.24-.05-.34-.09-.35-.23-.62-.42-.79-.21-.19-.48-.29-.81-.29h-.52c-.07,0-.13,0-.16-.02-.05-.02-.08-.06-.08-.12s.01-.1.04-.12c.02,0,.06-.01.12-.01.09,0,.2,0,.31-.01.12,0,.24-.01.35-.02.21-.04.4-.15.58-.34.16-.17.27-.37.35-.59.04-.18.08-.33.1-.44.03-.16.04-.3.04-.44,0-.2-.03-.38-.08-.53-.06-.19-.16-.34-.28-.45-.1-.09-.22-.16-.35-.19-.11-.04-.23-.05-.37-.05-.12,0-.25.01-.38.03-.12.02-.25.05-.38.1-.15.06-.29.13-.41.23-.13.09-.23.2-.3.32h.18c.17.03.29.09.38.17.09.09.13.21.13.38s-.05.3-.16.4c-.1.11-.23.16-.4.16-.18,0-.32-.05-.42-.16-.1-.11-.15-.24-.15-.41,0-.33.12-.62.36-.88.21-.22.48-.39.82-.49.12-.04.24-.08.38-.1.13-.01.27-.02.41-.02.25,0,.5.03.74.1.25.07.46.18.66.31.19.14.35.29.46.47.12.2.18.41.18.63,0,.21-.04.42-.13.62-.07.19-.18.37-.31.56-.14.16-.31.31-.51.45-.19.13-.39.23-.61.31.38.06.72.21,1.03.44.31.23.54.52.69.88.04.11.06.22.09.32.03.12.04.24.04.34,0,.27-.06.54-.18.8Z" fill="#221e1f"/>
  </g>
  <g>
    <g>
      <path d="M4.84,88.06c.05-.2.09-.4.14-.6" fill="none" stroke="#221e1f" stroke-miterlimit="10" stroke-width=".4"/>
      <path d="M5.23,86.53c1.21-4.14,3.37-7.32,5.98-8.73" fill="none" stroke="#221e1f" stroke-dasharray="1.31 .95" stroke-miterlimit="10" stroke-width=".4"/>
      <path d="M11.64,77.59c.19-.09.38-.16.57-.23" fill="none" stroke="#221e1f" stroke-miterlimit="10" stroke-width=".4"/>
    </g>
    <g>
      <path d="M12.22,111.2c-.19-.07-.38-.14-.57-.23" fill="none" stroke="#221e1f" stroke-miterlimit="10" stroke-width=".4"/>
      <path d="M10.89,110.56c-3.15-1.9-5.58-6.41-6.41-12.01" fill="none" stroke="#221e1f" stroke-dasharray="1.2 .87" stroke-miterlimit="10" stroke-width=".4"/>
      <path d="M4.42,98.12c-.03-.2-.05-.41-.07-.62" fill="none" stroke="#221e1f" stroke-miterlimit="10" stroke-width=".4"/>
    </g>
    <path d="M7.13,94.87c-.12.26-.28.48-.49.68-.22.21-.49.37-.79.48-.29.11-.59.16-.91.16-.16,0-.31-.01-.44-.03-.14-.02-.28-.05-.4-.09-.4-.12-.73-.31-.97-.58-.27-.29-.41-.63-.41-1.02,0-.2.05-.36.15-.47.11-.11.26-.17.46-.17.18,0,.33.06.44.17.12.12.17.27.17.45,0,.2-.07.36-.22.47-.14.11-.31.16-.51.13.13.24.36.45.7.61.32.15.66.23.99.23.15,0,.29-.03.43-.1.14-.06.26-.14.37-.25.16-.19.27-.42.35-.7.06-.23.1-.49.1-.77,0-.15,0-.28-.02-.4-.01-.13-.03-.24-.05-.34-.09-.35-.23-.62-.42-.79-.21-.19-.48-.29-.81-.29h-.52c-.07,0-.13,0-.16-.02-.05-.02-.08-.06-.08-.12s.01-.1.04-.12c.02,0,.06-.01.12-.01.09,0,.2,0,.31-.01.12,0,.24-.01.35-.02.21-.04.4-.15.58-.34.16-.17.27-.37.35-.59.04-.18.08-.33.1-.44.03-.16.04-.3.04-.44,0-.2-.03-.38-.08-.53-.06-.19-.16-.34-.28-.45-.1-.09-.22-.16-.35-.19-.11-.04-.23-.05-.37-.05-.12,0-.25.01-.38.03-.12.02-.25.05-.38.1-.15.06-.29.13-.41.23-.13.09-.23.2-.3.32h.18c.17.03.29.09.38.17.09.09.13.21.13.38s-.05.3-.16.4c-.1.11-.23.16-.4.16-.18,0-.32-.05-.42-.16-.1-.11-.15-.24-.15-.41,0-.33.12-.62.36-.88.21-.22.48-.39.82-.49.12-.04.24-.08.38-.1.13-.01.27-.02.41-.02.25,0,.5.03.74.1.25.07.46.18.66.31s.35.29.46.47c.12.2.18.41.18.63,0,.21-.04.42-.13.62-.07.19-.18.37-.31.56-.14.17-.31.32-.51.45-.19.13-.39.23-.61.31.38.06.72.21,1.03.44.31.23.54.52.69.88.04.11.06.22.09.32.03.12.04.24.04.34,0,.27-.06.54-.18.8Z" fill="#221e1f"/>
  </g>
  <polyline points="12.11 37.54 17.78 37.54 17.78 43.21" fill="none" stroke="#221e1f" stroke-miterlimit="10" stroke-width=".4"/>
  <polyline points="12.11 71.6 17.78 71.6 17.78 77.27" fill="none" stroke="#221e1f" stroke-miterlimit="10" stroke-width=".4"/>
</svg>