<?xml version="1.0" encoding="UTF-8"?>
<svg id="_레이어_1" data-name="레이어 1" xmlns="http://www.w3.org/2000/svg" width="173.08" height="145.91" viewBox="0 0 173.08 145.91">
  <g>
    <path d="M95.5,5.19c.21,0,.41,0,.62,0" fill="none" stroke="#221e1f" stroke-miterlimit="10" stroke-width=".4"/>
    <path d="M97.03,5.21c32.69.52,59.51,4.85,67.43,10.59" fill="none" stroke="#221e1f" stroke-dasharray="1.25 .91" stroke-miterlimit="10" stroke-width=".4"/>
    <path d="M164.82,16.07c.17.13.32.26.47.4" fill="none" stroke="#221e1f" stroke-miterlimit="10" stroke-width=".4"/>
  </g>
  <g>
    <path d="M15.55,16.49c.15-.13.3-.27.47-.4" fill="none" stroke="#221e1f" stroke-miterlimit="10" stroke-width=".4"/>
    <path d="M16.76,15.56c8.37-5.64,35.09-9.88,67.52-10.36" fill="none" stroke="#221e1f" stroke-dasharray="1.25 .91" stroke-miterlimit="10" stroke-width=".4"/>
    <path d="M84.74,5.19c.21,0,.41,0,.62,0" fill="none" stroke="#221e1f" stroke-miterlimit="10" stroke-width=".4"/>
  </g>
  <g>
    <path d="M4.04,69.4c0-.21.01-.41.02-.62" fill="none" stroke="#221e1f" stroke-miterlimit="10" stroke-width=".4"/>
    <path d="M4.08,67.89c.77-24.57,4.96-44.49,10.44-50.66" fill="none" stroke="#221e1f" stroke-dasharray="1.22 .89" stroke-miterlimit="10" stroke-width=".4"/>
    <path d="M14.82,16.9c.15-.15.3-.29.45-.43" fill="none" stroke="#221e1f" stroke-miterlimit="10" stroke-width=".4"/>
  </g>
  <g>
    <path d="M15.29,135.79c-.15-.13-.3-.27-.45-.42" fill="none" stroke="#221e1f" stroke-miterlimit="10" stroke-width=".4"/>
    <path d="M14.25,134.71c-5.22-6.35-9.22-25.24-10.11-48.62" fill="none" stroke="#221e1f" stroke-dasharray="1.22 .89" stroke-miterlimit="10" stroke-width=".4"/>
    <path d="M4.12,85.63c0-.21-.01-.41-.02-.62" fill="none" stroke="#221e1f" stroke-miterlimit="10" stroke-width=".4"/>
  </g>
  <polyline points="15.41 130.81 21.08 130.81 21.08 136.48" fill="none" stroke="#221e1f" stroke-miterlimit="10" stroke-width=".4"/>
  <polyline points="15.41 22.15 21.08 22.15 21.08 16.48" fill="none" stroke="#221e1f" stroke-miterlimit="10" stroke-width=".4"/>
  <polyline points="165.41 22.15 159.74 22.15 159.74 16.48" fill="none" stroke="#221e1f" stroke-miterlimit="10" stroke-width=".4"/>
  <polyline points="165.5 130.81 159.83 130.81 159.83 136.48" fill="none" stroke="#221e1f" stroke-miterlimit="10" stroke-width=".4"/>
  <polyline points="102.04 131.94 106.57 128.54 109.97 133.08" fill="none" stroke="#221e1f" stroke-miterlimit="10" stroke-width=".4"/>
  <path d="M12.48,14.03v-.28c.48,0,.79-.05.93-.14.15-.11.17-.31.06-.61l-.65-1.84h-3.06l-.51,1.59c-.14.4-.14.67,0,.81.13.13.44.19.94.19v.28h-2.41v-.28c.31,0,.54-.06.68-.19.15-.14.31-.46.49-.95l2.19-6.41.61-.27,2.43,7.03c.09.29.23.5.4.61.17.11.4.17.7.17v.28h-2.81ZM11.28,6.75l-1.4,4.09h2.83l-1.43-4.09Z" fill="#221e1f"/>
  <path d="M14.01,145.07c-.51.44-1.21.67-2.09.67h-3.54v-.28c.42,0,.7-.05.83-.14.14-.09.22-.29.22-.58v-5.88c0-.27-.07-.47-.22-.58-.16-.12-.44-.18-.83-.18v-.28h3.33c.82,0,1.47.18,1.96.53.46.34.69.78.69,1.33,0,.41-.13.76-.38,1.04-.29.32-.74.56-1.35.72.72.14,1.25.41,1.6.79.32.35.48.8.48,1.34,0,.59-.23,1.1-.69,1.5ZM13.14,138.59c-.35-.33-.83-.49-1.45-.49h-.65c-.32,0-.56.06-.7.18-.14.12-.22.32-.22.58v2.53h1.57c.53,0,.98-.19,1.36-.58.35-.36.53-.76.53-1.19,0-.39-.15-.73-.44-1.02ZM13.38,142.24c-.41-.39-.92-.58-1.51-.58h-1.74v3.07c0,.29.07.48.22.58.12.09.36.14.7.14h.75c.67,0,1.21-.2,1.61-.59.38-.36.56-.79.56-1.3s-.19-.95-.58-1.32Z" fill="#221e1f"/>
  <path d="M171.39,145.23c-.52.46-1.12.69-1.81.69-.91,0-1.67-.36-2.29-1.08-.66-.78-.99-1.81-.99-3.1,0-1.14.29-2.1.86-2.89.59-.8,1.34-1.2,2.24-1.2.21,0,.42.02.63.06.13.04.34.1.64.19l.06.03.79-.25.77,2-.17.11c-.35-.51-.7-.91-1.07-1.21-.53-.44-1.07-.66-1.62-.66-.68,0-1.24.36-1.7,1.09-.45.72-.67,1.63-.67,2.73,0,1.03.27,1.9.81,2.59.53.69,1.19,1.04,1.98,1.04.47,0,.9-.15,1.3-.44.43-.31.81-.78,1.15-1.41l.21.09c-.28.69-.64,1.23-1.09,1.62Z" fill="#221e1f"/>
  <path d="M172.18,13.55c-.68.83-1.66,1.25-2.92,1.25h-2.97v-.28c.38,0,.65-.06.81-.18.16-.12.24-.33.24-.62v-5.81c0-.26-.08-.45-.24-.57-.17-.12-.44-.17-.81-.17v-.28h2.97c1.26,0,2.23.41,2.92,1.24.61.72.91,1.62.91,2.72s-.3,2-.91,2.72ZM171.56,8.31c-.57-.77-1.34-1.15-2.3-1.15h-.33c-.31,0-.54.06-.68.17-.14.12-.21.31-.21.57v5.81c0,.29.07.49.21.62.14.12.36.18.68.18h.33c.97,0,1.73-.38,2.3-1.15.51-.69.77-1.53.77-2.54s-.26-1.84-.77-2.53Z" fill="#221e1f"/>
  <path d="M171.87,95.49h-5.59v-.28c.38,0,.64-.06.8-.18.17-.11.25-.31.25-.58v-5.89c0-.26-.08-.44-.25-.55-.16-.11-.42-.16-.8-.16v-.28h5.31l.78,1.88-.17.11-.25-.33c-.32-.44-.6-.76-.85-.93-.42-.29-.96-.44-1.6-.44h-.59c-.29,0-.51.05-.65.16-.14.11-.22.3-.22.55v2.64h1.18c.4,0,.7-.1.9-.3.21-.21.31-.57.31-1.07h.27v3.09h-.27c0-.48-.1-.84-.31-1.07-.2-.22-.5-.33-.9-.33h-1.18v2.93c0,.26.07.46.22.58.14.12.36.18.67.18h.55c.63,0,1.17-.14,1.62-.42.43-.26.88-.71,1.33-1.33l.21.1-.76,1.93Z" fill="#221e1f"/>
  <line x1="15.41" y1="136.48" x2="165.41" y2="136.48" fill="none" stroke="#231815" stroke-miterlimit="10" stroke-width=".75"/>
  <line x1="105.41" y1="136.48" x2="15.41" y2="16.48" fill="none" stroke="#231815" stroke-miterlimit="10" stroke-width=".75"/>
  <g>
    <line x1="165.41" y1="91.48" x2="165.41" y2="90.86" fill="none" stroke="#231815" stroke-linejoin="round" stroke-width=".4"/>
    <line x1="165.41" y1="89.96" x2="165.41" y2="17.55" fill="none" stroke="#231815" stroke-dasharray="1.24 .9" stroke-linejoin="round" stroke-width=".4"/>
    <polyline points="165.41 17.1 165.41 16.48 164.79 16.48" fill="none" stroke="#231815" stroke-linejoin="round" stroke-width=".4"/>
    <line x1="163.89" y1="16.48" x2="16.48" y2="16.48" fill="none" stroke="#231815" stroke-dasharray="1.24 .9" stroke-linejoin="round" stroke-width=".4"/>
    <line x1="16.03" y1="16.48" x2="15.41" y2="16.48" fill="none" stroke="#231815" stroke-linejoin="round" stroke-width=".4"/>
  </g>
  <line x1="105.41" y1="136.48" x2="165.41" y2="91.48" fill="none" stroke="#231815" stroke-miterlimit="10" stroke-width=".75"/>
  <polyline points="105.41 136.48 15.41 136.48 15.41 16.48 165.41 91.48 165.29 91.48 165.41 136.48" fill="none" stroke="#231815" stroke-linejoin="round" stroke-width=".75"/>
  <g>
    <path d="M126.55,59.02c-.27,1.78-1.11,5.51-4.11,8.84-4.04,4.48-9.46,5.42-12.6,5.57" fill="none" stroke="#221e1f" stroke-miterlimit="10" stroke-width=".3"/>
    <path d="M110.38,73.39l.66,1.08-.04.02-1.76-.7c-.61-.14-1.23-.27-1.84-.41.61-.13,1.23-.27,1.84-.4l1.76-.7.04.02-.66,1.09Z" fill="#221e1f"/>
  </g>
  <path d="M92.43,7.51c-.12.29-.3.56-.53.8-.22.21-.48.38-.78.5-.29.13-.6.19-.92.19-.29,0-.55-.06-.8-.17-.24-.11-.46-.26-.65-.47-.18-.19-.32-.4-.41-.63s-.14-.48-.14-.73c0-.17.05-.31.14-.42.1-.11.24-.16.41-.16.16,0,.29.05.39.14.11.1.16.23.16.4s-.06.29-.17.4c-.11.1-.23.15-.38.15-.05,0-.09,0-.11-.01-.04,0-.07-.01-.09-.02.04.16.11.31.22.47.09.14.21.27.36.39.16.11.32.2.5.27.18.07.37.11.56.11.24,0,.47-.07.68-.2.2-.13.37-.3.5-.51.11-.19.18-.43.23-.73.03-.21.04-.47.04-.78s-.01-.53-.03-.7c-.03-.26-.09-.48-.17-.68-.09-.21-.22-.38-.37-.5-.17-.14-.36-.2-.57-.2-.19,0-.37.03-.53.08-.2.06-.39.17-.56.32-.09.06-.16.13-.22.2-.04.04-.07.09-.11.15-.03.04-.05.07-.06.09-.02.02-.05.03-.09.03-.08,0-.13-.02-.15-.08-.01-.03-.02-.08-.02-.16v-.04s.01-3.25.01-3.25c0-.14,0-.22.02-.25.03-.03.1-.02.23.01.22.1.46.18.71.23.24.05.5.08.75.08.2,0,.36,0,.49-.02.17-.02.35-.06.56-.11l.37-.16.18-.06s.06.01.09.03c.02.03.03.06.02.1-.04.1-.12.22-.25.35-.07.07-.17.15-.29.25v.02c-.25.16-.5.29-.77.38-.27.09-.55.14-.83.14-.16,0-.32-.01-.47-.04-.17-.02-.32-.05-.46-.1v2.14c.11-.1.21-.18.31-.25.11-.08.22-.14.33-.17.11-.05.24-.09.37-.11.12-.02.25-.03.39-.03.29,0,.56.06.82.18s.49.3.68.53c.19.24.34.5.44.79.11.29.16.59.16.9s-.06.64-.19.94Z"/>
  <path d="M4.1,79.28v.95c0,.23.06.38.18.44.08.05.25.07.52.07h.38v.34c-.23-.02-.48-.04-.75-.04h-1.5c-.28,0-.53.02-.74.04v-.34h.35c.28,0,.46-.02.54-.06.12-.06.18-.21.18-.45v-.95H.31v-.34l3.39-5.15c.04-.06.06-.09.09-.11.03-.01.08-.02.14-.02.08,0,.13.02.15.06.01.03.02.09.02.17v5.04h1.11v.34h-1.11ZM3.31,74.84l-2.68,4.1h2.68v-4.1Z"/>
</svg>