<svg id="레이어_1" data-name="레이어 1" xmlns="http://www.w3.org/2000/svg" width="150.49" height="85.34" viewBox="0 0 150.49 85.34">
  <polygon points="143.64 66.41 7.58 66.41 143.64 9.72 143.64 66.41" fill="none" stroke="#221e1f" stroke-linejoin="round" stroke-width="0.75"/>
  <circle cx="120.96" cy="43.74" r="22.68" fill="none" stroke="#221e1f" stroke-miterlimit="10" stroke-width="0.4"/>
  <g>
    <path d="M117.79,137.39l.62,0" transform="translate(-35.17 -55.62)" fill="none" stroke="#221e1f" stroke-miterlimit="10" stroke-width="0.4"/>
    <path d="M119.31,137.34c28.67-1,51.93-6.81,58.82-14.45" transform="translate(-35.17 -55.62)" fill="none" stroke="#221e1f" stroke-miterlimit="10" stroke-width="0.4" stroke-dasharray="1.24 0.9"/>
    <path d="M178.42,122.55a6,6,0,0,0,.39-.49" transform="translate(-35.17 -55.62)" fill="none" stroke="#221e1f" stroke-miterlimit="10" stroke-width="0.4"/>
  </g>
  <g>
    <path d="M42.74,122l.38.48" transform="translate(-35.17 -55.62)" fill="none" stroke="#221e1f" stroke-miterlimit="10" stroke-width="0.4"/>
    <path d="M43.72,123.19c7.26,7.53,30.49,13.24,59,14.16" transform="translate(-35.17 -55.62)" fill="none" stroke="#221e1f" stroke-miterlimit="10" stroke-width="0.4" stroke-dasharray="1.24 0.9"/>
    <path d="M103.15,137.37l.62,0" transform="translate(-35.17 -55.62)" fill="none" stroke="#221e1f" stroke-miterlimit="10" stroke-width="0.4"/>
  </g>
  <g>
    <path d="M152.27,105.37c0-.21.1-.41.16-.6" transform="translate(-35.17 -55.62)" fill="none" stroke="#221e1f" stroke-miterlimit="10" stroke-width="0.4"/>
    <path d="M152.76,103.75a8.87,8.87,0,0,1,2.39-3.79" transform="translate(-35.17 -55.62)" fill="none" stroke="#221e1f" stroke-miterlimit="10" stroke-width="0.4" stroke-dasharray="1.46 1.06"/>
    <path d="M155.57,99.65a3.22,3.22,0,0,1,.55-.29" transform="translate(-35.17 -55.62)" fill="none" stroke="#221e1f" stroke-miterlimit="10" stroke-width="0.4"/>
  </g>
  <g>
    <path d="M156.13,122a4.14,4.14,0,0,1-.55-.29" transform="translate(-35.17 -55.62)" fill="none" stroke="#221e1f" stroke-miterlimit="10" stroke-width="0.4"/>
    <path d="M154.94,121.24a10.29,10.29,0,0,1-2.55-4.77" transform="translate(-35.17 -55.62)" fill="none" stroke="#221e1f" stroke-miterlimit="10" stroke-width="0.4" stroke-dasharray="1.13 0.82"/>
    <path d="M152.28,116.07c-.05-.2-.1-.4-.14-.6" transform="translate(-35.17 -55.62)" fill="none" stroke="#221e1f" stroke-miterlimit="10" stroke-width="0.4"/>
  </g>
  <polyline points="143.64 60.74 137.97 60.74 137.97 66.41" fill="none" stroke="#221e1f" stroke-miterlimit="10" stroke-width="0.4"/>
  <path d="M179.75,63.72v-.28a1.92,1.92,0,0,0,.92-.14c.16-.11.18-.32.07-.62l-.65-1.83H177l-.5,1.59c-.14.4-.14.67,0,.8a1.45,1.45,0,0,0,.94.2v.28h-2.41v-.28a1,1,0,0,0,.68-.2,2.61,2.61,0,0,0,.48-.94l2.2-6.41.6-.27,2.43,7a1.1,1.1,0,0,0,.4.61,1.19,1.19,0,0,0,.7.18v.28Zm-1.2-7.29-1.41,4.09H180Z" transform="translate(-35.17 -55.62)" fill="#221e1f"/>
  <path d="M40.8,126.45a3.07,3.07,0,0,1-2.09.67H35.17v-.28a1.71,1.71,0,0,0,.83-.14c.14-.09.21-.28.21-.58v-5.88a.72.72,0,0,0-.21-.58,1.44,1.44,0,0,0-.83-.18v-.28h3.32a3.28,3.28,0,0,1,2,.53,1.56,1.56,0,0,1,.69,1.33,1.47,1.47,0,0,1-.38,1,2.7,2.7,0,0,1-1.35.72,2.88,2.88,0,0,1,1.6.79,2,2,0,0,1-.21,2.84ZM39.93,120a2,2,0,0,0-1.45-.49h-.65a1.11,1.11,0,0,0-.7.18.75.75,0,0,0-.21.58v2.53h1.56a1.82,1.82,0,0,0,1.36-.58,1.65,1.65,0,0,0,.53-1.19A1.37,1.37,0,0,0,39.93,120Zm.24,3.66a2.11,2.11,0,0,0-1.51-.58H36.92v3.07a.67.67,0,0,0,.21.58,1.26,1.26,0,0,0,.7.14h.75a2.22,2.22,0,0,0,1.61-.59,1.79,1.79,0,0,0,0-2.62Z" transform="translate(-35.17 -55.62)" fill="#221e1f"/>
  <path d="M184.56,128.39a2.65,2.65,0,0,1-1.82.69,2.92,2.92,0,0,1-2.29-1.08,4.65,4.65,0,0,1-1-3.1,4.8,4.8,0,0,1,.86-2.89,2.69,2.69,0,0,1,2.24-1.2,3.36,3.36,0,0,1,.63.06l.63.2.07,0,.79-.25.77,2-.18.11a5.46,5.46,0,0,0-1.07-1.22,2.57,2.57,0,0,0-1.62-.65,2,2,0,0,0-1.7,1.08,5.21,5.21,0,0,0-.66,2.73,4.09,4.09,0,0,0,.81,2.59,2.38,2.38,0,0,0,2,1,2.1,2.1,0,0,0,1.3-.44,4,4,0,0,0,1.15-1.4l.2.08A4.16,4.16,0,0,1,184.56,128.39Z" transform="translate(-35.17 -55.62)" fill="#221e1f"/>
  <line x1="120.96" y1="43.74" x2="120.96" y2="66.41" fill="none" stroke="#221e1f" stroke-miterlimit="10" stroke-width="0.4"/>
  <path d="M109.68,141h-4.1v-.26l2.24-2.51c.17-.2.31-.38.43-.55a5,5,0,0,0,.38-.6,3.5,3.5,0,0,0,.25-.62,2.23,2.23,0,0,0,0-1.32,1.82,1.82,0,0,0-.27-.58,1.46,1.46,0,0,0-.5-.43,1.44,1.44,0,0,0-.62-.13,1.53,1.53,0,0,0-.94.3,1.72,1.72,0,0,0-.56.82h.14a.57.57,0,0,1,.42.15.55.55,0,0,1,.18.43.57.57,0,0,1-.17.41.53.53,0,0,1-.41.17.57.57,0,0,1-.44-.18.63.63,0,0,1-.15-.44,1.92,1.92,0,0,1,.15-.74,2.16,2.16,0,0,1,.41-.62,2,2,0,0,1,.68-.48,2.21,2.21,0,0,1,.82-.15,2.6,2.6,0,0,1,.89.14,2.29,2.29,0,0,1,.79.45,2,2,0,0,1,.5.7,2.15,2.15,0,0,1,.17.85,2.13,2.13,0,0,1-.13.78,2.38,2.38,0,0,1-.41.66c-.17.19-.37.39-.6.61l-.61.57-.62.59-1.18,1.14H109a1,1,0,0,0,.42-.08.75.75,0,0,0,.18-.35l.09-.45,0-.19H110Z" transform="translate(-35.17 -55.62)"/>
  <path d="M152.39,112.08v1c0,.23.06.38.19.44a1.1,1.1,0,0,0,.51.08h.38v.34l-.75,0h-1.5l-.75,0v-.34h.35a1.24,1.24,0,0,0,.54-.07q.18-.09.18-.45v-1h-2.93v-.34l3.38-5.17a.65.65,0,0,1,.09-.11l.14,0q.12,0,.15.06a.39.39,0,0,1,0,.18v5.06h1.11v.34Zm-.78-4.46-2.69,4.12h2.69Z" transform="translate(-35.17 -55.62)"/>
  <path d="M114.39,139.14v1c0,.23.07.38.19.44a1.1,1.1,0,0,0,.51.08h.38V141c-.23,0-.48,0-.75,0h-1.5c-.28,0-.53,0-.74,0v-.34h.34a1.42,1.42,0,0,0,.54-.07q.18-.09.18-.45v-1h-2.93v-.34l3.39-5.17a.18.18,0,0,1,.22-.13q.12,0,.15.06a.37.37,0,0,1,0,.17v5.07h1.11v.34Zm-.78-4.46-2.69,4.12h2.69Z" transform="translate(-35.17 -55.62)"/>
</svg>
