<?xml version="1.0" encoding="UTF-8"?>
<svg id="_레이어_1" data-name="레이어 1" xmlns="http://www.w3.org/2000/svg" width="108.56" height="180.2" viewBox="0 0 108.56 180.2">
  <path d="M4.69,56.71v-.28c.48,0,.79-.05,.93-.14,.15-.11,.17-.31,.06-.61l-.65-1.84H1.98l-.51,1.59c-.14,.4-.14,.67,0,.81,.13,.13,.44,.19,.94,.19v.28H0v-.28c.31,0,.54-.06,.68-.19,.15-.14,.31-.46,.49-.95l2.19-6.41,.61-.27,2.43,7.03c.09,.29,.23,.5,.4,.61,.17,.11,.4,.17,.7,.17v.28h-2.81Zm-1.2-7.29l-1.4,4.09h2.83l-1.43-4.09Z" fill="#221e1f"/>
  <path d="M43.96,7.25c-.51,.44-1.21,.67-2.09,.67h-3.54v-.28c.42,0,.7-.05,.83-.14,.14-.09,.22-.29,.22-.58V1.04c0-.27-.07-.47-.22-.58-.16-.12-.44-.18-.83-.18v-.28h3.33c.82,0,1.47,.18,1.96,.53,.46,.34,.69,.78,.69,1.33,0,.41-.13,.76-.38,1.04-.29,.32-.74,.56-1.35,.72,.72,.14,1.25,.41,1.6,.79,.32,.35,.48,.8,.48,1.34,0,.59-.23,1.1-.69,1.5Zm-.87-6.48c-.35-.33-.83-.49-1.45-.49h-.65c-.32,0-.56,.06-.7,.18-.14,.12-.22,.32-.22,.58V3.57h1.57c.53,0,.98-.19,1.36-.58,.35-.36,.53-.76,.53-1.19,0-.39-.15-.73-.44-1.02Zm.24,3.65c-.41-.39-.92-.58-1.51-.58h-1.74v3.07c0,.29,.07,.48,.22,.58,.12,.09,.36,.14,.7,.14h.75c.67,0,1.21-.2,1.61-.59,.38-.36,.56-.79,.56-1.3s-.19-.95-.58-1.32Z" fill="#221e1f"/>
  <path d="M107.47,56.11c-.52,.46-1.12,.69-1.81,.69-.91,0-1.67-.36-2.29-1.08-.66-.78-.99-1.81-.99-3.1,0-1.14,.29-2.1,.86-2.89,.59-.8,1.34-1.2,2.24-1.2,.21,0,.42,.02,.63,.06,.13,.04,.34,.1,.64,.19l.06,.03,.79-.25,.77,2-.17,.11c-.35-.51-.7-.91-1.07-1.21-.53-.44-1.07-.66-1.62-.66-.68,0-1.24,.36-1.7,1.09-.45,.72-.67,1.63-.67,2.73,0,1.03,.27,1.9,.81,2.59,.53,.69,1.19,1.04,1.98,1.04,.47,0,.9-.15,1.3-.44,.43-.31,.81-.78,1.15-1.41l.21,.09c-.28,.69-.64,1.23-1.09,1.62Z" fill="#221e1f"/>
  <path d="M103.05,178.96c-.68,.83-1.66,1.25-2.92,1.25h-2.97v-.28c.38,0,.65-.06,.81-.18,.16-.12,.24-.33,.24-.62v-5.81c0-.26-.08-.45-.24-.57-.17-.12-.44-.17-.81-.17v-.28h2.97c1.26,0,2.23,.41,2.92,1.24,.61,.72,.91,1.62,.91,2.72s-.3,2-.91,2.72Zm-.62-5.25c-.57-.77-1.34-1.15-2.3-1.15h-.33c-.31,0-.54,.06-.68,.17-.14,.12-.21,.31-.21,.57v5.81c0,.29,.07,.49,.21,.62,.14,.12,.36,.18,.68,.18h.33c.97,0,1.73-.38,2.3-1.15,.51-.69,.77-1.53,.77-2.54s-.26-1.84-.77-2.53Z" fill="#221e1f"/>
  <line x1="41.89" y1="10.22" x2="10.06" y2="52.66" fill="none" stroke="#221e1f" stroke-linecap="round" stroke-miterlimit="10" stroke-width=".75"/>
  <line x1="41.89" y1="10.22" x2="98.47" y2="52.66" fill="none" stroke="#221e1f" stroke-linecap="round" stroke-miterlimit="10" stroke-width=".75"/>
  <line x1="98.47" y1="170.55" x2="98.47" y2="52.66" fill="none" stroke="#221e1f" stroke-miterlimit="10" stroke-width=".75"/>
  <line x1="98.47" y1="52.66" x2="10.06" y2="52.66" fill="none" stroke="#221e1f" stroke-linecap="round" stroke-miterlimit="10" stroke-width=".75"/>
  <line x1="10.06" y1="52.66" x2="98.47" y2="170.55" fill="none" stroke="#221e1f" stroke-linecap="round" stroke-miterlimit="10" stroke-width=".75"/>
  <line x1="43.58" y1="20.43" x2="47.87" y2="14.71" fill="none" stroke="#221e1f" stroke-linecap="round" stroke-miterlimit="10" stroke-width=".4"/>
  <line x1="43.58" y1="20.43" x2="37.6" y2="15.94" fill="none" stroke="#221e1f" stroke-linecap="round" stroke-miterlimit="10" stroke-width=".4"/>
  <line x1="90.66" y1="52.66" x2="90.66" y2="60.87" fill="none" stroke="#221e1f" stroke-linecap="round" stroke-miterlimit="10" stroke-width=".4"/>
  <line x1="90.66" y1="60.87" x2="98.47" y2="60.87" fill="none" stroke="#221e1f" stroke-linecap="round" stroke-miterlimit="10" stroke-width=".4"/>
</svg>