<?xml version="1.0" encoding="UTF-8"?>
<svg id="_레이어_1" data-name="레이어 1" xmlns="http://www.w3.org/2000/svg" width="113.4" height="152.65" viewBox="0 0 113.4 152.65">
  <polyline points="105.19 48.47 8 48.47 85.75 9.6 105.19 48.47 105.19 145.66 8 145.66 8 48.47" fill="none" stroke="#221e1f" stroke-linejoin="round" stroke-width=".75"/>
  <polyline points="89.62 17.12 82.01 20.92 78.21 13.32" fill="none" stroke="#221e1f" stroke-miterlimit="10" stroke-width=".4"/>
  <path d="M86.81,8.09v-.28c.48,0,.79-.05.93-.14.15-.11.17-.31.06-.61l-.65-1.84h-3.06l-.51,1.59c-.14.4-.14.67,0,.81.13.13.44.19.94.19v.28h-2.41v-.28c.31,0,.54-.06.68-.19.15-.14.31-.46.49-.95l2.19-6.41.61-.27,2.43,7.03c.09.29.23.5.4.61.17.11.4.17.7.17v.28h-2.81ZM85.61.81l-1.4,4.09h2.83l-1.43-4.09Z" fill="#221e1f"/>
  <path d="M5.63,51.77c-.51.44-1.21.67-2.09.67H0v-.28c.42,0,.7-.05.83-.14.14-.09.22-.29.22-.58v-5.88c0-.27-.07-.47-.22-.58-.16-.12-.44-.18-.83-.18v-.28h3.33c.82,0,1.47.18,1.96.53.46.34.69.78.69,1.33,0,.41-.13.76-.38,1.04-.29.32-.74.56-1.35.72.72.14,1.25.41,1.6.79.32.35.48.8.48,1.34,0,.59-.23,1.1-.69,1.5ZM4.76,45.29c-.35-.33-.83-.49-1.45-.49h-.65c-.32,0-.56.06-.7.18-.14.12-.22.32-.22.58v2.53h1.57c.53,0,.98-.19,1.36-.58.35-.36.53-.76.53-1.19,0-.39-.15-.73-.44-1.02ZM5,48.94c-.41-.39-.92-.58-1.51-.58h-1.74v3.07c0,.29.07.48.22.58.12.09.36.14.7.14h.75c.67,0,1.21-.2,1.61-.59.38-.36.56-.79.56-1.3s-.19-.95-.58-1.32Z" fill="#221e1f"/>
  <path d="M112.31,52.38c-.52.46-1.12.69-1.81.69-.91,0-1.67-.36-2.29-1.08-.66-.78-.99-1.81-.99-3.1,0-1.14.29-2.1.86-2.89.59-.8,1.34-1.2,2.24-1.2.21,0,.42.02.63.06.13.04.34.1.64.19l.06.03.79-.25.77,2-.17.11c-.35-.51-.7-.91-1.07-1.21-.53-.44-1.07-.66-1.62-.66-.68,0-1.24.36-1.7,1.09-.45.72-.67,1.63-.67,2.73,0,1.03.27,1.9.81,2.59.53.69,1.19,1.04,1.98,1.04.47,0,.9-.15,1.3-.44.43-.31.81-.78,1.15-1.41l.21.09c-.28.69-.64,1.23-1.09,1.62Z" fill="#221e1f"/>
  <path d="M5.97,151.41c-.68.83-1.66,1.25-2.92,1.25H.08v-.28c.38,0,.65-.06.81-.18.16-.12.24-.33.24-.62v-5.81c0-.26-.08-.45-.24-.57-.17-.12-.44-.17-.81-.17v-.28h2.97c1.26,0,2.23.41,2.92,1.24.61.72.91,1.62.91,2.72s-.3,2-.91,2.72ZM5.35,146.16c-.57-.77-1.34-1.15-2.3-1.15h-.33c-.31,0-.54.06-.68.17-.14.12-.21.31-.21.57v5.81c0,.29.07.49.21.62.14.12.36.18.68.18h.33c.97,0,1.73-.38,2.3-1.15.51-.69.77-1.53.77-2.54s-.26-1.84-.77-2.53Z" fill="#221e1f"/>
  <path d="M111.76,152.65h-5.59v-.28c.38,0,.64-.06.8-.18.17-.11.25-.31.25-.58v-5.89c0-.26-.08-.44-.25-.55-.16-.11-.42-.16-.8-.16v-.28h5.31l.78,1.88-.17.11-.25-.33c-.32-.44-.6-.76-.85-.93-.42-.29-.96-.44-1.6-.44h-.59c-.29,0-.51.05-.65.16-.14.11-.22.3-.22.55v2.64h1.18c.4,0,.7-.1.9-.3.21-.21.31-.57.31-1.07h.27v3.09h-.27c0-.48-.1-.84-.31-1.07-.2-.22-.5-.33-.9-.33h-1.18v2.93c0,.26.07.46.22.58.14.12.36.18.67.18h.55c.63,0,1.17-.14,1.62-.42.43-.26.88-.71,1.33-1.33l.21.1-.76,1.93Z" fill="#221e1f"/>
  <g>
    <path d="M106.57,29.36c.07.2.13.39.2.59" fill="none" stroke="#221e1f" stroke-miterlimit="10" stroke-width=".4"/>
    <path d="M107.05,30.85c2.04,6.88,1.67,13.28-1,16.94" fill="none" stroke="#221e1f" stroke-dasharray="1.3 .95" stroke-miterlimit="10" stroke-width=".4"/>
    <path d="M105.76,48.16c-.13.16-.27.32-.41.46" fill="none" stroke="#221e1f" stroke-miterlimit="10" stroke-width=".4"/>
  </g>
  <g>
    <path d="M85.79,9.56c.2-.02.41-.04.62-.05" fill="none" stroke="#221e1f" stroke-miterlimit="10" stroke-width=".4"/>
    <path d="M87.27,9.52c4.66.25,10.1,4.08,14.36,10.15" fill="none" stroke="#221e1f" stroke-dasharray="1.19 .87" stroke-miterlimit="10" stroke-width=".4"/>
    <path d="M101.88,20.03c.12.17.23.34.35.52" fill="none" stroke="#221e1f" stroke-miterlimit="10" stroke-width=".4"/>
  </g>
  <g>
    <path d="M104.28,28.46h-1.79c-.33,0-.63.02-.89.04v-.34h.53c.31,0,.51-.02.61-.07.16-.07.24-.22.24-.45v-5.68c-.17.08-.37.14-.59.19-.19.04-.4.08-.62.1h-.24v-.34c.07,0,.12,0,.16-.01.06,0,.13,0,.21-.01.19-.01.37-.05.56-.1.18-.04.36-.1.53-.18.1-.06.2-.12.29-.18.09-.07.18-.15.26-.23h.26v6.44c0,.24.08.39.24.45.1.05.31.07.62.07h.52v.34c-.27-.02-.56-.04-.89-.04Z"/>
    <path d="M110.84,26.26c-.06.46-.17.86-.33,1.21-.19.4-.45.71-.78.93-.33.23-.71.34-1.14.34-.27,0-.52-.05-.77-.15-.24-.09-.46-.23-.65-.41-.36-.34-.61-.83-.75-1.49-.1-.46-.15-1.03-.15-1.71,0-.64.04-1.18.13-1.64.13-.64.36-1.14.68-1.49.2-.23.43-.4.68-.5.25-.11.53-.16.84-.16.27,0,.53.05.78.15.23.1.45.25.66.44.35.33.59.83.73,1.49.1.47.15,1.04.15,1.72,0,.51-.03.93-.08,1.27ZM109.99,23.77c-.01-.36-.04-.65-.08-.89-.06-.36-.15-.64-.27-.81-.13-.2-.28-.35-.45-.46-.19-.11-.39-.17-.6-.17-.23,0-.44.06-.62.17-.17.1-.31.25-.43.46-.13.19-.22.48-.27.85-.04.24-.06.54-.06.89,0,.36-.01.74-.01,1.13s0,.74.01,1.12c0,.31.02.62.06.91.06.37.15.66.27.88.12.2.26.36.43.48.19.13.4.19.62.19.24,0,.45-.07.64-.2.18-.12.33-.29.45-.51.1-.2.18-.49.23-.86.03-.23.05-.53.08-.89.01-.37.02-.75.02-1.15,0-.37,0-.75-.01-1.15v.02Z"/>
  </g>
</svg>