<?xml version="1.0" encoding="UTF-8"?>
<svg id="_레이어_1" data-name="레이어 1" xmlns="http://www.w3.org/2000/svg" width="113.4" height="152.65" viewBox="0 0 113.4 152.65">
  <polyline points="105.19 48.47 8 48.47 85.75 9.6 105.19 48.47 105.19 145.66 8 145.66 8 48.47" fill="none" stroke="#221e1f" stroke-linejoin="round" stroke-width=".75"/>
  <polyline points="89.62 17.12 82.01 20.92 78.21 13.32" fill="none" stroke="#221e1f" stroke-miterlimit="10" stroke-width=".4"/>
  <path d="M86.81,8.09v-.28c.48,0,.79-.05.93-.14.15-.11.17-.31.06-.61l-.65-1.84h-3.06l-.51,1.59c-.14.4-.14.67,0,.81.13.13.44.19.94.19v.28h-2.41v-.28c.31,0,.54-.06.68-.19.15-.14.31-.46.49-.95l2.19-6.41.61-.27,2.43,7.03c.09.29.23.5.4.61.17.11.4.17.7.17v.28h-2.81ZM85.61.81l-1.4,4.09h2.83l-1.43-4.09Z" fill="#221e1f"/>
  <path d="M5.63,51.77c-.51.44-1.21.67-2.09.67H0v-.28c.42,0,.7-.05.83-.14.14-.09.22-.29.22-.58v-5.88c0-.27-.07-.47-.22-.58-.16-.12-.44-.18-.83-.18v-.28h3.33c.82,0,1.47.18,1.96.53.46.34.69.78.69,1.33,0,.41-.13.76-.38,1.04-.29.32-.74.56-1.35.72.72.14,1.25.41,1.6.79.32.35.48.8.48,1.34,0,.59-.23,1.1-.69,1.5ZM4.76,45.29c-.35-.33-.83-.49-1.45-.49h-.65c-.32,0-.56.06-.7.18-.14.12-.22.32-.22.58v2.53h1.57c.53,0,.98-.19,1.36-.58.35-.36.53-.76.53-1.19,0-.39-.15-.73-.44-1.02ZM5,48.94c-.41-.39-.92-.58-1.51-.58h-1.74v3.07c0,.29.07.48.22.58.12.09.36.14.7.14h.75c.67,0,1.21-.2,1.61-.59.38-.36.56-.79.56-1.3s-.19-.95-.58-1.32Z" fill="#221e1f"/>
  <path d="M112.31,52.38c-.52.46-1.12.69-1.81.69-.91,0-1.67-.36-2.29-1.08-.66-.78-.99-1.81-.99-3.1,0-1.14.29-2.1.86-2.89.59-.8,1.34-1.2,2.24-1.2.21,0,.42.02.63.06.13.04.34.1.64.19l.06.03.79-.25.77,2-.17.11c-.35-.51-.7-.91-1.07-1.21-.53-.44-1.07-.66-1.62-.66-.68,0-1.24.36-1.7,1.09-.45.72-.67,1.63-.67,2.73,0,1.03.27,1.9.81,2.59.53.69,1.19,1.04,1.98,1.04.47,0,.9-.15,1.3-.44.43-.31.81-.78,1.15-1.41l.21.09c-.28.69-.64,1.23-1.09,1.62Z" fill="#221e1f"/>
  <path d="M5.97,151.41c-.68.83-1.66,1.25-2.92,1.25H.08v-.28c.38,0,.65-.06.81-.18.16-.12.24-.33.24-.62v-5.81c0-.26-.08-.45-.24-.57-.17-.12-.44-.17-.81-.17v-.28h2.97c1.26,0,2.23.41,2.92,1.24.61.72.91,1.62.91,2.72s-.3,2-.91,2.72ZM5.35,146.16c-.57-.77-1.34-1.15-2.3-1.15h-.33c-.31,0-.54.06-.68.17-.14.12-.21.31-.21.57v5.81c0,.29.07.49.21.62.14.12.36.18.68.18h.33c.97,0,1.73-.38,2.3-1.15.51-.69.77-1.53.77-2.54s-.26-1.84-.77-2.53Z" fill="#221e1f"/>
  <path d="M111.76,152.65h-5.59v-.28c.38,0,.64-.06.8-.18.17-.11.25-.31.25-.58v-5.89c0-.26-.08-.44-.25-.55-.16-.11-.42-.16-.8-.16v-.28h5.31l.78,1.88-.17.11-.25-.33c-.32-.44-.6-.76-.85-.93-.42-.29-.96-.44-1.6-.44h-.59c-.29,0-.51.05-.65.16-.14.11-.22.3-.22.55v2.64h1.18c.4,0,.7-.1.9-.3.21-.21.31-.57.31-1.07h.27v3.09h-.27c0-.48-.1-.84-.31-1.07-.2-.22-.5-.33-.9-.33h-1.18v2.93c0,.26.07.46.22.58.14.12.36.18.67.18h.55c.63,0,1.17-.14,1.62-.42.43-.26.88-.71,1.33-1.33l.21.1-.76,1.93Z" fill="#221e1f"/>
  <g>
    <path d="M106.57,29.36c.07.2.13.39.2.59" fill="none" stroke="#221e1f" stroke-miterlimit="10" stroke-width=".4"/>
    <path d="M107.05,30.85c2.04,6.88,1.67,13.28-1,16.94" fill="none" stroke="#221e1f" stroke-dasharray="1.3 .95" stroke-miterlimit="10" stroke-width=".4"/>
    <path d="M105.76,48.16c-.13.16-.27.32-.41.46" fill="none" stroke="#221e1f" stroke-miterlimit="10" stroke-width=".4"/>
  </g>
  <g>
    <path d="M85.79,9.56c.2-.02.41-.04.62-.05" fill="none" stroke="#221e1f" stroke-miterlimit="10" stroke-width=".4"/>
    <path d="M87.27,9.52c4.66.25,10.1,4.08,14.36,10.15" fill="none" stroke="#221e1f" stroke-dasharray="1.19 .87" stroke-miterlimit="10" stroke-width=".4"/>
    <path d="M101.88,20.03c.12.17.23.34.35.52" fill="none" stroke="#221e1f" stroke-miterlimit="10" stroke-width=".4"/>
  </g>
  <path d="M106.63,27.25c-.12.26-.28.48-.49.67-.22.19-.48.34-.77.44-.28.11-.57.16-.86.16s-.57-.04-.83-.13c-.29-.09-.54-.21-.75-.38-.23-.18-.4-.39-.52-.62-.12-.24-.18-.5-.18-.77,0-.25.05-.49.14-.71.09-.21.23-.41.41-.59.14-.15.3-.29.49-.41.17-.11.35-.22.55-.31l-.13-.09c-.22-.14-.4-.26-.52-.37-.19-.17-.34-.35-.43-.53-.08-.16-.13-.29-.16-.41-.04-.14-.05-.28-.05-.42,0-.26.05-.5.15-.72.1-.22.25-.42.44-.58.19-.18.4-.32.65-.41.24-.09.49-.13.77-.13.24,0,.48.04.71.11.24.07.45.18.65.33.19.14.35.31.45.52.12.21.17.44.17.69,0,.17-.03.34-.1.51-.06.16-.16.31-.27.45-.14.14-.28.28-.44.4-.16.13-.33.24-.53.34l.44.28c.27.17.49.33.65.49.2.21.35.45.43.72.04.11.06.22.08.33.02.1.03.2.03.3,0,.29-.06.56-.18.83ZM106.17,26.4c-.04-.13-.11-.25-.21-.35-.1-.11-.26-.25-.49-.41-.13-.09-.33-.21-.6-.38l-.21-.13-.61-.38c-.24.13-.44.27-.61.41-.17.14-.29.3-.39.47-.1.17-.18.33-.23.48-.04.17-.07.33-.07.49,0,.21.04.42.13.62.09.19.21.36.38.51.17.15.36.26.57.34.21.09.43.13.67.13.21,0,.42-.04.63-.11.2-.06.39-.16.57-.28.17-.14.29-.29.38-.45.1-.17.15-.36.15-.55,0-.15-.03-.29-.09-.43ZM105.91,22.05c-.08-.17-.19-.32-.33-.43-.14-.13-.31-.23-.51-.29-.18-.06-.37-.1-.56-.1s-.37.02-.55.06c-.19.06-.35.14-.48.24-.15.1-.27.22-.35.37-.09.14-.13.3-.13.47s.05.35.16.5c.09.14.22.26.39.38l1.38.88c.16-.1.31-.21.44-.32.13-.11.25-.23.35-.35.1-.13.18-.27.23-.42.05-.14.08-.29.08-.44,0-.2-.04-.38-.12-.55Z" fill="#221e1f"/>
</svg>