<?xml version="1.0" encoding="UTF-8"?>
<svg id="_레이어_1" data-name="레이어 1" xmlns="http://www.w3.org/2000/svg" width="167.63" height="109.97" viewBox="0 0 167.63 109.97">
  <line x1="141.76" y1="16.59" x2="14.21" y2="16.59" fill="none" stroke="#000" stroke-dasharray="1.24 .9" stroke-miterlimit="10" stroke-width=".4"/>
  <line x1="141.76" y1="59.11" x2="141.76" y2="93.13" fill="none" stroke="#000" stroke-miterlimit="10" stroke-width=".75"/>
  <line x1="141.76" y1="16.59" x2="141.76" y2="59.11" fill="none" stroke="#000" stroke-dasharray="1.24 .9" stroke-miterlimit="10" stroke-width=".4"/>
  <polyline points="141.76 93.13 14.21 93.13 14.21 16.59 141.76 59.11 116.25 93.13 14.21 16.59 141.76 59.11" fill="none" stroke="#000" stroke-linejoin="round" stroke-width=".75"/>
  <g>
    <path d="M82.31,5.29c.21,0,.41,0,.62,0" fill="none" stroke="#221e1f" stroke-miterlimit="10" stroke-width=".4"/>
    <path d="M83.82,5.31c27.67.53,50.37,4.84,57.18,10.54" fill="none" stroke="#221e1f" stroke-dasharray="1.22 .89" stroke-miterlimit="10" stroke-width=".4"/>
    <path d="M141.33,16.14c.16.14.3.29.44.43" fill="none" stroke="#221e1f" stroke-miterlimit="10" stroke-width=".4"/>
  </g>
  <g>
    <path d="M14.21,16.59c.14-.15.28-.29.44-.43" fill="none" stroke="#221e1f" stroke-miterlimit="10" stroke-width=".4"/>
    <path d="M15.32,15.59c7.22-5.6,29.84-9.8,57.28-10.29" fill="none" stroke="#221e1f" stroke-dasharray="1.23 .89" stroke-miterlimit="10" stroke-width=".4"/>
    <path d="M73.05,5.3c.21,0,.41,0,.62,0" fill="none" stroke="#221e1f" stroke-miterlimit="10" stroke-width=".4"/>
  </g>
  <g>
    <path d="M68.99,104.43c.21,0,.41,0,.62-.01" fill="none" stroke="#221e1f" stroke-miterlimit="10" stroke-width=".4"/>
    <path d="M70.52,104.4c21.81-.59,39.66-4.83,45.16-10.44" fill="none" stroke="#221e1f" stroke-dasharray="1.25 .91" stroke-miterlimit="10" stroke-width=".4"/>
    <path d="M115.99,93.63c.14-.16.27-.32.39-.48" fill="none" stroke="#221e1f" stroke-miterlimit="10" stroke-width=".4"/>
  </g>
  <g>
    <path d="M14.21,93.13c.12.16.25.32.39.48" fill="none" stroke="#221e1f" stroke-miterlimit="10" stroke-width=".4"/>
    <path d="M15.23,94.26c5.88,5.5,23.68,9.62,45.3,10.15" fill="none" stroke="#221e1f" stroke-dasharray="1.25 .91" stroke-miterlimit="10" stroke-width=".4"/>
    <path d="M60.99,104.42c.21,0,.41,0,.62.01" fill="none" stroke="#221e1f" stroke-miterlimit="10" stroke-width=".4"/>
  </g>
  <g>
    <path d="M132.62,101.7c.2-.05.4-.1.6-.16" fill="none" stroke="#221e1f" stroke-miterlimit="10" stroke-width=".4"/>
    <path d="M134.1,101.25c3.51-1.28,6.23-3.87,7.36-7.06" fill="none" stroke="#221e1f" stroke-dasharray="1.27 .92" stroke-miterlimit="10" stroke-width=".4"/>
    <path d="M141.6,93.74c.06-.2.11-.4.16-.6" fill="none" stroke="#221e1f" stroke-miterlimit="10" stroke-width=".4"/>
  </g>
  <g>
    <path d="M116.38,93.13c.05.2.1.4.16.6" fill="none" stroke="#221e1f" stroke-miterlimit="10" stroke-width=".4"/>
    <path d="M116.84,94.57c1.22,3.04,3.89,5.49,7.3,6.71" fill="none" stroke="#221e1f" stroke-dasharray="1.24 .9" stroke-miterlimit="10" stroke-width=".4"/>
    <path d="M124.57,101.43c.2.06.39.12.59.18" fill="none" stroke="#221e1f" stroke-miterlimit="10" stroke-width=".4"/>
  </g>
  <g>
    <path d="M150.44,72.01c-.03-.21-.07-.41-.1-.61" fill="none" stroke="#221e1f" stroke-miterlimit="10" stroke-width=".4"/>
    <path d="M150.17,70.56c-1.16-5.3-3.93-9.46-7.42-11.07" fill="none" stroke="#221e1f" stroke-dasharray="1.18 .85" stroke-miterlimit="10" stroke-width=".4"/>
    <path d="M142.36,59.32c-.19-.08-.38-.15-.58-.21" fill="none" stroke="#221e1f" stroke-miterlimit="10" stroke-width=".4"/>
  </g>
  <g>
    <path d="M141.76,93.13c.2-.06.39-.13.58-.21" fill="none" stroke="#221e1f" stroke-miterlimit="10" stroke-width=".4"/>
    <path d="M143.19,92.53c3.19-1.7,5.73-5.56,6.89-10.45" fill="none" stroke="#221e1f" stroke-dasharray="1.29 .93" stroke-miterlimit="10" stroke-width=".4"/>
    <path d="M150.18,81.62c.04-.2.08-.4.12-.61" fill="none" stroke="#221e1f" stroke-miterlimit="10" stroke-width=".4"/>
  </g>
  <g>
    <path d="M119.8,73.64c-.11.18-.22.35-.32.53" fill="none" stroke="#221e1f" stroke-miterlimit="10" stroke-width=".4"/>
    <path d="M119.04,74.91c-3.75,6.57-4.97,13.14-3.23,17.18" fill="none" stroke="#221e1f" stroke-dasharray="1.19 .86" stroke-miterlimit="10" stroke-width=".4"/>
    <path d="M115.99,92.48c.09.19.19.37.3.54" fill="none" stroke="#221e1f" stroke-miterlimit="10" stroke-width=".4"/>
  </g>
  <g>
    <path d="M141.81,59.02c-.2-.05-.4-.1-.6-.14" fill="none" stroke="#221e1f" stroke-miterlimit="10" stroke-width=".4"/>
    <path d="M140.35,58.77c-4.04-.29-9.34,2.31-14.18,6.97" fill="none" stroke="#221e1f" stroke-dasharray="1.21 .87" stroke-miterlimit="10" stroke-width=".4"/>
    <path d="M125.85,66.05c-.15.14-.29.29-.44.44" fill="none" stroke="#221e1f" stroke-miterlimit="10" stroke-width=".4"/>
  </g>
  <g>
    <path d="M150.62,34.48c-.02-.21-.03-.41-.05-.62" fill="none" stroke="#221e1f" stroke-miterlimit="10" stroke-width=".4"/>
    <path d="M150.48,32.99c-.9-7.63-3.89-13.73-7.75-15.94" fill="none" stroke="#221e1f" stroke-dasharray="1.2 .87" stroke-miterlimit="10" stroke-width=".4"/>
    <path d="M142.34,16.85c-.19-.09-.37-.18-.56-.25" fill="none" stroke="#221e1f" stroke-miterlimit="10" stroke-width=".4"/>
  </g>
  <g>
    <path d="M141.76,59.11c.19-.07.38-.16.56-.25" fill="none" stroke="#221e1f" stroke-miterlimit="10" stroke-width=".4"/>
    <path d="M143.14,58.39c3.61-2.37,6.39-8.18,7.3-15.4" fill="none" stroke="#221e1f" stroke-dasharray="1.3 .94" stroke-miterlimit="10" stroke-width=".4"/>
    <path d="M150.5,42.52c.02-.2.05-.41.07-.62" fill="none" stroke="#221e1f" stroke-miterlimit="10" stroke-width=".4"/>
  </g>
  <g>
    <path d="M2.95,50.54c0-.21.02-.41.03-.62" fill="none" stroke="#221e1f" stroke-miterlimit="10" stroke-width=".4"/>
    <path d="M3.02,49.01c.84-15.36,4.92-27.8,10.27-31.83" fill="none" stroke="#221e1f" stroke-dasharray="1.25 .91" stroke-miterlimit="10" stroke-width=".4"/>
    <path d="M13.66,16.92c.17-.12.35-.22.52-.32" fill="none" stroke="#221e1f" stroke-miterlimit="10" stroke-width=".4"/>
  </g>
  <g>
    <path d="M14.21,93.13c-.18-.1-.35-.21-.53-.32" fill="none" stroke="#221e1f" stroke-miterlimit="10" stroke-width=".4"/>
    <path d="M12.98,92.29c-5.09-4.18-8.97-16.02-9.9-30.66" fill="none" stroke="#221e1f" stroke-dasharray="1.21 .88" stroke-miterlimit="10" stroke-width=".4"/>
    <path d="M3.05,61.18c-.01-.21-.02-.41-.03-.62" fill="none" stroke="#221e1f" stroke-miterlimit="10" stroke-width=".4"/>
  </g>
  <polyline points="14.21 87.46 19.87 87.46 19.87 93.13" fill="none" stroke="#221e1f" stroke-miterlimit="10" stroke-width=".4"/>
  <polyline points="14.21 22.26 19.87 22.26 19.87 16.59" fill="none" stroke="#221e1f" stroke-miterlimit="10" stroke-width=".4"/>
  <polyline points="141.81 22.26 136.14 22.26 136.14 16.59" fill="none" stroke="#221e1f" stroke-miterlimit="10" stroke-width=".4"/>
  <polyline points="141.81 87.46 136.14 87.46 136.14 93.13" fill="none" stroke="#221e1f" stroke-miterlimit="10" stroke-width=".4"/>
  <polyline points="111.63 89.82 115.04 85.28 119.57 88.68" fill="none" stroke="#221e1f" stroke-miterlimit="10" stroke-width=".4"/>
  <path d="M153.74,36.87c-.12.13-.26.19-.42.19-.13,0-.23-.04-.31-.11-.08-.07-.12-.17-.12-.28,0-.14.05-.27.16-.39.1-.11.23-.18.38-.2-.08-.06-.17-.1-.27-.12-.09-.01-.18-.02-.28-.02-.3,0-.55.15-.76.44-.15.22-.27.51-.35.86l-.51,2.07c-.04.18-.06.33-.05.46,0,.17.05.31.14.44.04.06.1.12.18.16.09.04.18.06.28.06.12,0,.25-.03.39-.09.12-.05.23-.11.35-.19.17-.14.31-.3.42-.48.12-.17.21-.37.29-.59v-.03c.03-.08.05-.13.08-.15.03-.04.08-.05.15-.03.06.01.08.06.08.14,0,.05-.03.13-.07.24-.1.24-.23.46-.38.66-.17.22-.35.41-.56.55-.12.07-.24.13-.37.16-.12.04-.26.06-.4.06-.17,0-.32-.02-.45-.08-.13-.04-.24-.11-.33-.19-.11-.09-.19-.18-.26-.27-.07-.1-.11-.2-.14-.3-.14.25-.31.45-.49.59-.22.16-.44.25-.68.25-.27,0-.5-.06-.69-.17-.23-.13-.35-.32-.35-.56,0-.17.06-.32.17-.45.12-.12.26-.18.43-.18.12,0,.21.03.29.1.08.07.12.17.12.29,0,.14-.05.27-.16.39-.09.1-.21.17-.36.2.07.05.16.09.26.11.09.03.18.04.29.04.27,0,.5-.13.69-.4.15-.2.27-.45.36-.75l.45-1.76h0c.06-.28.11-.48.13-.63.04-.27.02-.47-.04-.61-.05-.11-.12-.2-.22-.26-.09-.06-.2-.09-.32-.09s-.26.02-.39.08c-.12.04-.24.11-.35.19-.17.13-.32.3-.45.52-.12.2-.22.42-.29.66-.02.05-.05.09-.09.11-.04.01-.08.01-.13,0-.06-.01-.08-.08-.05-.18.01-.06.04-.15.09-.26l.02-.03c.08-.21.2-.41.37-.6.16-.19.34-.35.54-.48.11-.08.23-.14.36-.18.12-.03.25-.04.4-.04.29,0,.54.07.75.22.21.14.36.35.45.61.1-.24.25-.43.46-.59.22-.16.45-.24.7-.24s.48.05.67.15c.24.13.36.32.36.57,0,.17-.06.31-.17.44Z" fill="#221e1f"/>
  <path d="M125.23,68.76c-.12.13-.26.19-.42.19-.13,0-.23-.04-.31-.11-.08-.07-.12-.17-.12-.28,0-.14.05-.27.16-.39.1-.11.23-.18.38-.2-.08-.06-.17-.1-.27-.12-.09-.01-.18-.02-.28-.02-.29,0-.55.15-.76.44-.15.22-.27.51-.35.86l-.51,2.07c-.04.18-.06.33-.05.46,0,.17.05.31.14.44.04.06.1.12.18.16.09.04.18.06.28.06.12,0,.25-.03.39-.09.12-.05.23-.12.35-.19.17-.14.31-.3.42-.48.12-.17.21-.37.29-.59v-.03c.03-.08.05-.13.08-.15.03-.04.08-.05.15-.03.06.01.08.06.08.14,0,.05-.03.13-.06.24-.1.24-.23.46-.38.66-.17.22-.35.41-.56.55-.12.07-.24.12-.37.16-.12.04-.26.06-.4.06-.17,0-.32-.03-.45-.08-.13-.04-.24-.11-.33-.19-.11-.09-.19-.18-.26-.27-.06-.1-.11-.2-.14-.3-.14.25-.31.45-.49.59-.22.16-.44.25-.68.25-.27,0-.5-.06-.69-.17-.23-.13-.35-.32-.35-.56,0-.17.06-.32.17-.45.12-.12.26-.18.43-.18.12,0,.21.03.29.1.08.07.12.17.12.29,0,.14-.05.27-.16.39-.09.1-.21.17-.36.2.07.05.16.09.26.11.09.03.18.04.29.04.27,0,.5-.13.69-.4.15-.2.27-.45.36-.75l.45-1.76h0c.06-.28.11-.48.13-.63.04-.27.02-.47-.04-.61-.05-.11-.12-.2-.22-.26-.09-.06-.2-.09-.32-.09-.13,0-.26.02-.39.08-.12.04-.24.11-.35.19-.17.13-.32.3-.45.52-.12.2-.22.42-.29.66-.02.05-.05.09-.09.11-.04.01-.08.01-.13,0-.06-.01-.08-.08-.05-.18.01-.06.04-.15.09-.26l.02-.03c.08-.21.2-.41.37-.6.16-.19.34-.35.54-.48.11-.08.23-.14.36-.18.11-.03.25-.04.4-.04.29,0,.54.07.75.22.21.14.36.35.45.61.1-.24.26-.43.46-.59.22-.16.45-.24.7-.24s.48.05.67.15c.24.13.36.32.36.57,0,.17-.06.31-.17.44Z" fill="#221e1f"/>
  <g>
    <path d="M149.58,78.71c-.12.26-.28.48-.48.67-.22.21-.48.37-.78.48-.29.11-.59.16-.9.16-.16,0-.3-.01-.44-.03-.14-.02-.28-.05-.4-.09-.4-.12-.72-.31-.96-.58-.27-.29-.41-.63-.41-1.02,0-.2.05-.36.15-.47.11-.11.26-.17.46-.17.18,0,.33.06.44.17.11.12.17.26.17.45,0,.2-.07.36-.21.47-.14.11-.31.16-.5.13.13.24.36.45.7.61.32.15.65.22.99.22.15,0,.29-.03.43-.1.14-.06.26-.14.36-.25.16-.19.27-.42.34-.7.06-.23.1-.49.1-.77,0-.15,0-.28-.02-.4-.01-.13-.03-.24-.05-.34-.09-.35-.22-.61-.42-.79-.21-.19-.48-.29-.8-.29h-.51c-.07,0-.12,0-.16-.02-.05-.02-.07-.06-.07-.12s.01-.1.04-.12c.02,0,.06-.01.12-.01.09,0,.2,0,.31-.01.12,0,.24-.01.34-.02.21-.04.4-.15.58-.34.16-.17.27-.37.34-.59.04-.18.07-.33.1-.44.03-.16.04-.3.04-.44,0-.2-.02-.38-.08-.53-.06-.19-.16-.34-.28-.45-.1-.09-.21-.16-.34-.19-.11-.04-.23-.05-.36-.05-.12,0-.25.01-.38.03-.12.02-.25.05-.38.1-.15.06-.29.13-.41.22-.13.09-.23.2-.3.32h.18c.16.03.29.09.38.17s.13.21.13.38-.05.3-.16.4c-.1.11-.23.16-.4.16-.18,0-.32-.05-.42-.16-.1-.11-.15-.24-.15-.41,0-.33.12-.62.35-.88.21-.22.48-.39.81-.49.11-.04.24-.08.38-.1.13-.01.26-.02.41-.02.25,0,.49.03.73.1.24.07.46.17.65.31.19.14.35.29.46.47.12.2.18.41.18.63,0,.21-.04.41-.13.62-.07.19-.17.37-.31.56-.14.17-.3.31-.5.45-.19.13-.39.23-.6.31.38.06.72.21,1.02.44.31.23.54.52.69.88.04.11.06.22.08.32.03.12.04.24.04.34,0,.27-.06.54-.18.79Z"/>
    <path d="M159.17,76.38s-.12.03-.25.03h-6.36c-.13,0-.21-.01-.26-.03-.07-.03-.11-.09-.11-.18,0-.1.04-.17.12-.2.05-.01.13-.02.26-.02h6.33c.11,0,.2,0,.25.02.09.04.13.1.13.2,0,.09-.04.15-.12.18Z"/>
    <path d="M166.98,76.1c-.12.13-.26.19-.42.19-.13,0-.23-.04-.31-.11-.08-.07-.12-.16-.12-.28,0-.14.05-.27.16-.39.1-.11.23-.17.38-.2-.08-.06-.17-.1-.27-.12-.09-.01-.18-.02-.28-.02-.29,0-.54.15-.75.44-.15.22-.26.51-.34.86l-.5,2.07c-.04.18-.06.33-.05.46,0,.16.05.31.14.44.04.06.1.12.18.16.09.04.18.06.28.06.12,0,.25-.03.39-.09.11-.05.23-.11.34-.19.16-.14.3-.3.42-.48.11-.17.21-.37.29-.59v-.03c.03-.08.05-.13.08-.15.03-.04.08-.05.15-.03.06.01.08.06.08.14,0,.05-.03.13-.06.24-.1.24-.22.45-.38.65-.16.22-.35.4-.56.55-.12.07-.24.12-.37.16-.12.04-.25.06-.4.06-.17,0-.32-.02-.45-.07-.13-.04-.24-.11-.33-.19-.11-.09-.19-.18-.26-.27-.06-.1-.11-.2-.14-.3-.14.25-.3.45-.48.59-.21.16-.44.25-.67.25-.26,0-.49-.06-.69-.17-.23-.13-.34-.31-.34-.56,0-.17.06-.32.17-.45.11-.12.26-.18.43-.18.11,0,.21.03.29.1.08.07.12.17.12.29,0,.14-.05.27-.16.39-.09.1-.21.17-.35.2.07.05.16.08.26.11.09.03.18.04.29.04.26,0,.49-.13.69-.4.15-.2.27-.45.35-.75l.45-1.76h0c.06-.28.11-.48.13-.63.04-.26.02-.47-.04-.61-.05-.11-.12-.2-.21-.26-.09-.06-.2-.09-.32-.09s-.26.03-.39.08c-.12.04-.24.11-.34.19-.16.13-.31.3-.45.51-.12.2-.22.42-.29.65-.02.05-.05.09-.09.11-.04.01-.08.01-.13,0-.06-.01-.08-.08-.05-.18.01-.06.04-.15.09-.26l.02-.03c.08-.21.2-.41.36-.6.16-.19.34-.35.54-.48.11-.08.22-.14.35-.18.11-.03.25-.04.4-.04.29,0,.53.07.74.21.21.14.36.35.45.61.1-.24.25-.43.46-.59.21-.16.45-.24.7-.24s.48.05.66.15c.24.13.35.32.35.57,0,.16-.06.31-.17.44Z"/>
  </g>
  <path d="M129.15,105.88h-1.79c-.33,0-.63.02-.9.04v-.34h.53c.31,0,.51-.03.62-.08.16-.07.24-.22.24-.45v-5.7c-.17.08-.37.14-.59.19-.19.04-.4.08-.62.1h-.24v-.34c.06,0,.12,0,.16-.01.06,0,.13,0,.21-.01.19-.01.38-.05.56-.1.18-.04.36-.1.53-.18.1-.06.2-.12.29-.18.09-.07.18-.15.26-.23h.26v6.46c0,.24.08.39.24.45.1.05.31.08.63.08h.52v.34c-.27-.02-.57-.04-.9-.04Z" fill="#221e1f"/>
  <path d="M4.87,58.01c-.12.26-.28.48-.49.68-.22.21-.49.37-.79.48-.29.11-.59.16-.91.16-.16,0-.31-.01-.44-.03-.14-.02-.28-.05-.4-.09-.4-.12-.73-.31-.97-.58-.27-.29-.41-.63-.41-1.02,0-.2.05-.36.15-.47.11-.11.26-.17.46-.17.18,0,.33.06.44.17.12.11.17.27.17.45,0,.2-.07.36-.22.47-.14.11-.31.16-.51.13.13.24.36.45.7.61.32.15.66.23.99.23.15,0,.29-.03.43-.1.14-.06.26-.14.37-.25.16-.19.27-.42.35-.7.06-.23.1-.49.1-.77,0-.15,0-.28-.02-.4-.01-.13-.03-.24-.05-.34-.09-.35-.23-.62-.42-.79-.21-.19-.48-.29-.81-.29h-.52c-.07,0-.13,0-.16-.02-.05-.02-.08-.06-.08-.12s.01-.1.04-.12c.02,0,.06-.01.12-.01.09,0,.2,0,.31-.01.12,0,.24-.01.35-.02.21-.04.4-.15.58-.34.16-.17.27-.37.35-.59.04-.18.08-.33.1-.44.03-.16.04-.3.04-.44,0-.2-.03-.38-.08-.53-.06-.19-.16-.34-.28-.45-.1-.09-.22-.16-.35-.19-.11-.04-.23-.05-.37-.05-.12,0-.25.01-.38.03-.12.02-.25.05-.38.1-.15.06-.29.13-.41.23-.13.09-.23.2-.3.32h.18c.17.03.29.09.38.17.09.09.13.21.13.38s-.05.3-.16.4c-.1.11-.23.16-.4.16-.18,0-.32-.05-.42-.16-.1-.11-.15-.24-.15-.41,0-.33.12-.62.36-.88.21-.22.48-.39.82-.49.12-.04.24-.08.38-.1.13-.01.27-.02.41-.02.25,0,.5.03.74.1.25.07.46.18.66.31.19.14.35.29.46.47.12.2.18.41.18.63,0,.21-.04.42-.13.62-.07.19-.18.37-.31.56-.14.16-.31.31-.51.45-.19.13-.39.23-.61.31.38.06.72.21,1.03.44.31.23.54.52.69.88.04.11.06.22.09.32.03.12.04.24.04.34,0,.27-.06.54-.18.8Z" fill="#221e1f"/>
  <path d="M66.5,105.94v.96c0,.23.06.38.18.44.08.05.25.08.52.08h.38v.34c-.23-.02-.48-.04-.76-.04h-1.5c-.28,0-.53.02-.75.04v-.34h.35c.28,0,.46-.02.54-.06.12-.06.18-.21.18-.45v-.96h-2.94v-.34l3.39-5.16c.04-.06.07-.09.09-.11.03-.01.08-.02.14-.02.08,0,.13.02.15.06.01.03.02.09.02.17v5.05h1.11v.34h-1.11ZM65.71,101.49l-2.69,4.11h2.69v-4.11Z" fill="#221e1f"/>
  <path d="M79.73,7.52c-.12.29-.3.56-.53.81-.22.21-.48.38-.78.5-.3.13-.6.19-.92.19-.29,0-.55-.06-.8-.17-.25-.11-.46-.26-.65-.47-.18-.19-.32-.4-.41-.63-.09-.24-.14-.48-.14-.73,0-.17.05-.31.14-.42.1-.11.24-.16.41-.16.16,0,.29.05.39.14.11.1.16.23.16.4s-.06.29-.17.4c-.11.1-.23.15-.38.15-.05,0-.09,0-.11-.01-.04,0-.07-.01-.09-.02.04.16.11.32.22.47.09.14.21.27.36.39.16.11.32.2.5.27.18.07.37.11.56.11.25,0,.47-.07.68-.2.2-.13.37-.3.5-.52.11-.19.18-.43.23-.73.03-.21.04-.47.04-.78s-.01-.53-.03-.7c-.03-.26-.09-.48-.17-.68-.09-.21-.22-.38-.37-.5-.17-.14-.36-.2-.57-.2-.19,0-.37.03-.53.08-.2.06-.39.17-.56.32-.09.06-.16.13-.22.2-.04.04-.07.09-.11.15-.03.04-.05.07-.07.09-.02.02-.05.03-.09.03-.08,0-.13-.02-.15-.08-.01-.03-.02-.08-.02-.16v-.04s.01-3.26.01-3.26c0-.14,0-.22.02-.25.03-.03.1-.03.23.01.22.1.46.17.71.23.24.05.5.08.76.08.2,0,.36,0,.49-.02.17-.02.35-.06.56-.11l.37-.16.18-.06s.06.01.09.03c.02.03.03.06.02.1-.04.1-.12.22-.25.35-.07.07-.17.15-.29.25v.02c-.25.17-.5.29-.77.38-.27.09-.55.14-.83.14-.16,0-.32-.01-.47-.04-.17-.02-.32-.05-.46-.1v2.15c.11-.1.21-.18.31-.25.11-.08.22-.14.33-.17.12-.05.24-.09.37-.11.12-.02.25-.03.39-.03.29,0,.56.06.82.18.26.12.49.3.68.53.2.24.34.5.44.8.11.29.16.59.16.9s-.06.64-.19.95Z" fill="#221e1f"/>
  <path d="M11.15,15.84v-.28c.48,0,.79-.05.93-.14.15-.11.17-.31.06-.61l-.65-1.84h-3.06l-.51,1.59c-.14.4-.14.67,0,.81.13.13.44.19.94.19v.28h-2.41v-.28c.31,0,.54-.06.68-.19.15-.14.31-.46.49-.95l2.19-6.41.61-.27,2.43,7.03c.09.29.23.5.4.61.17.11.4.17.7.17v.28h-2.81ZM9.95,8.55l-1.4,4.09h2.83l-1.43-4.09Z" fill="#221e1f"/>
  <path d="M12.68,100.66c-.51.44-1.21.67-2.09.67h-3.54v-.28c.42,0,.7-.05.83-.14.14-.09.22-.29.22-.58v-5.88c0-.27-.07-.47-.22-.58-.16-.12-.44-.18-.83-.18v-.28h3.33c.82,0,1.47.18,1.96.53.46.34.69.78.69,1.33,0,.41-.13.76-.38,1.04-.29.32-.74.56-1.35.72.72.14,1.25.41,1.6.79.32.35.48.8.48,1.34,0,.59-.23,1.1-.69,1.5ZM11.81,94.18c-.35-.33-.83-.49-1.45-.49h-.65c-.32,0-.56.06-.7.18-.14.12-.22.32-.22.58v2.53h1.57c.53,0,.98-.19,1.36-.58.35-.36.53-.76.53-1.19,0-.39-.15-.73-.44-1.02ZM12.05,97.83c-.41-.39-.92-.58-1.51-.58h-1.74v3.07c0,.29.07.48.22.58.12.09.36.14.7.14h.75c.67,0,1.21-.2,1.61-.59.38-.36.56-.79.56-1.3s-.19-.95-.58-1.32Z" fill="#221e1f"/>
  <path d="M147.22,100.42c-.52.46-1.12.69-1.81.69-.91,0-1.67-.36-2.29-1.08-.66-.78-.99-1.81-.99-3.1,0-1.14.29-2.1.86-2.89.59-.8,1.34-1.2,2.24-1.2.21,0,.42.02.63.06.13.04.34.1.64.19l.06.03.79-.25.77,2-.17.11c-.35-.51-.7-.91-1.07-1.21-.53-.44-1.07-.66-1.62-.66-.68,0-1.24.36-1.7,1.09-.45.72-.67,1.63-.67,2.73,0,1.03.27,1.9.81,2.59.53.69,1.19,1.04,1.98,1.04.47,0,.9-.15,1.3-.44.43-.31.81-.78,1.15-1.41l.21.09c-.28.69-.64,1.23-1.09,1.62Z" fill="#221e1f"/>
  <path d="M147.7,14.51c-.68.83-1.66,1.25-2.92,1.25h-2.97v-.28c.38,0,.65-.06.81-.18.16-.12.24-.33.24-.62v-5.81c0-.26-.08-.45-.24-.57-.17-.12-.44-.17-.81-.17v-.28h2.97c1.26,0,2.23.41,2.92,1.24.61.72.91,1.62.91,2.72s-.3,2-.91,2.72ZM147.09,9.26c-.57-.77-1.34-1.15-2.3-1.15h-.33c-.31,0-.54.06-.68.17-.14.12-.21.31-.21.57v5.81c0,.29.07.49.21.62.14.12.36.18.68.18h.33c.97,0,1.73-.38,2.3-1.15.51-.69.77-1.53.77-2.54s-.26-1.84-.77-2.53Z" fill="#221e1f"/>
  <path d="M153.04,62.71h-5.59v-.28c.38,0,.64-.06.8-.18.17-.11.25-.31.25-.58v-5.89c0-.26-.08-.44-.25-.55-.16-.11-.42-.16-.8-.16v-.28h5.31l.78,1.88-.17.11-.25-.33c-.32-.44-.6-.76-.85-.93-.42-.29-.96-.44-1.6-.44h-.59c-.29,0-.51.05-.65.16-.14.11-.22.3-.22.55v2.64h1.18c.4,0,.7-.1.9-.3.21-.21.31-.57.31-1.07h.27v3.09h-.27c0-.48-.1-.84-.31-1.07-.2-.22-.5-.33-.9-.33h-1.18v2.93c0,.26.07.46.22.58.14.12.36.18.67.18h.55c.63,0,1.17-.14,1.62-.42.43-.26.88-.71,1.33-1.33l.21.1-.76,1.93Z" fill="#221e1f"/>
  <path d="M117.91,99.06c-.32-.46-.64-.82-.98-1.08-.51-.37-1.08-.56-1.71-.56h-.7c-.26,0-.45.06-.58.18-.12.11-.18.29-.18.53v2.63h1.16c.42,0,.72-.07.9-.21.23-.19.35-.55.35-1.11h.28v3.08h-.28c0-.54-.12-.92-.36-1.16-.2-.21-.5-.31-.91-.31h-1.13v2.92c0,.32.08.53.23.64.16.11.46.16.91.16v.28h-2.89v-.28c.43,0,.72-.05.85-.16.13-.11.19-.32.19-.64v-5.85c0-.25-.07-.43-.19-.53-.16-.12-.44-.18-.85-.18v-.28h5.27l.8,1.81-.16.11Z" fill="#221e1f"/>
</svg>