<?xml version="1.0" encoding="UTF-8"?>
<svg id="_레이어_1" data-name="레이어 1" xmlns="http://www.w3.org/2000/svg" width="137.31" height="138.69" viewBox="0 0 137.31 138.69">
  <path d="M134.5,126.58v-.28c.48,0,.79-.05,.93-.14,.15-.11,.17-.31,.06-.61l-.65-1.84h-3.06l-.51,1.59c-.14,.4-.14,.67,0,.81,.13,.13,.44,.19,.94,.19v.28h-2.41v-.28c.31,0,.54-.06,.68-.19,.15-.14,.31-.46,.49-.95l2.19-6.41,.61-.27,2.43,7.03c.09,.29,.23,.5,.4,.61,.17,.11,.4,.17,.7,.17v.28h-2.81Zm-1.2-7.29l-1.4,4.09h2.83l-1.43-4.09Z" fill="#221e1f"/>
  <path d="M14.89,7.25c-.51,.44-1.21,.67-2.09,.67h-3.54v-.28c.42,0,.7-.05,.83-.14,.14-.09,.22-.29,.22-.58V1.04c0-.27-.07-.47-.22-.58-.16-.12-.44-.18-.83-.18v-.28h3.33c.82,0,1.47,.18,1.96,.53,.46,.34,.69,.78,.69,1.33,0,.41-.13,.76-.38,1.04-.29,.32-.74,.56-1.35,.72,.72,.14,1.25,.41,1.6,.79,.32,.35,.48,.8,.48,1.34,0,.59-.23,1.1-.69,1.5Zm-.87-6.48c-.35-.33-.83-.49-1.45-.49h-.65c-.32,0-.56,.06-.7,.18-.14,.12-.22,.32-.22,.58V3.57h1.57c.53,0,.98-.19,1.36-.58,.35-.36,.53-.76,.53-1.19,0-.39-.15-.73-.44-1.02Zm.24,3.65c-.41-.39-.92-.58-1.51-.58h-1.74v3.07c0,.29,.07,.48,.22,.58,.12,.09,.36,.14,.7,.14h.75c.67,0,1.21-.2,1.61-.59,.38-.36,.56-.79,.56-1.3s-.19-.95-.58-1.32Z" fill="#221e1f"/>
  <path d="M15.39,128.28c-.61,.86-1.43,1.29-2.45,1.29s-1.85-.43-2.46-1.29c-.56-.77-.84-1.72-.84-2.84s.28-2.07,.84-2.85c.61-.86,1.43-1.29,2.46-1.29s1.84,.43,2.45,1.29c.56,.78,.84,1.73,.84,2.85s-.28,2.06-.84,2.84Zm-.56-5.49c-.48-.8-1.11-1.2-1.89-1.2s-1.43,.4-1.91,1.2c-.44,.74-.66,1.63-.66,2.67s.22,1.9,.66,2.63c.48,.8,1.12,1.2,1.91,1.2s1.41-.4,1.89-1.2c.44-.73,.66-1.61,.66-2.63s-.22-1.93-.66-2.67Z" fill="#221e1f"/>
  <path d="M98.16,126.25c-.42,.38-.98,.57-1.66,.57h-1.8v2.64c0,.28,.08,.48,.23,.6,.17,.14,.48,.2,.91,.2v.28h-2.89v-.28c.39,0,.66-.07,.82-.2,.15-.12,.23-.32,.23-.6v-5.85c0-.27-.08-.46-.23-.56-.15-.1-.42-.15-.82-.15v-.28h3.64c.63,0,1.16,.17,1.59,.52,.45,.37,.67,.86,.67,1.47,0,.69-.23,1.23-.68,1.63Zm-.53-2.83c-.33-.34-.77-.52-1.31-.52h-.85c-.28,0-.48,.05-.59,.15-.12,.11-.18,.29-.18,.56v2.92h1.62c.54,0,.98-.21,1.32-.62,.3-.37,.45-.81,.45-1.3s-.15-.87-.45-1.19Z" fill="#221e1f"/>
  <path d="M98.12,35.62c-.2,.19-.36,.32-.48,.39-.19,.11-.39,.16-.62,.16-.32,0-.62-.13-.89-.38-.23-.22-.43-.52-.59-.9-.17,.07-.34,.13-.53,.17-.17,.04-.32,.05-.47,.05-1.04,0-1.87-.43-2.49-1.29-.56-.77-.84-1.72-.84-2.84s.28-2.06,.84-2.85c.63-.86,1.46-1.29,2.49-1.29s1.82,.43,2.46,1.29c.6,.8,.9,1.75,.9,2.85,0,.77-.14,1.49-.43,2.16-.32,.75-.77,1.26-1.33,1.51,.1,.24,.24,.45,.42,.62,.21,.21,.43,.31,.67,.31,.16,0,.29-.01,.4-.04,.13-.03,.27-.09,.43-.17l.13,.17-.08,.06Zm-1.64-7.29c-.48-.8-1.13-1.2-1.93-1.2s-1.45,.4-1.93,1.2c-.44,.73-.66,1.62-.66,2.67,0,.51,.07,1.03,.21,1.57,.16,.61,.37,1.05,.63,1.32-.04-.44,.07-.76,.32-.96,.19-.14,.46-.2,.82-.2,.32,0,.65,.1,.97,.31,.41,.27,.77,.68,1.07,1.24,.4-.29,.7-.79,.91-1.5,.17-.57,.26-1.16,.26-1.77,0-1.05-.22-1.93-.66-2.67Zm-1.89,5.01c-.24-.18-.51-.27-.81-.27-.22,0-.38,.04-.49,.12-.21,.15-.31,.44-.31,.87,.27,.28,.54,.48,.81,.61,.24,.11,.49,.16,.76,.16,.14,0,.28-.02,.43-.08,.14-.04,.29-.1,.44-.17-.23-.59-.51-1-.83-1.25Z" fill="#221e1f"/>
  <polyline points="91.89 115.38 97.56 115.38 97.56 121.05" fill="none" stroke="#221e1f" stroke-miterlimit="10" stroke-width=".4"/>
  <polyline points="16.42 115.68 22.09 115.68 22.09 121.35" fill="none" stroke="#221e1f" stroke-miterlimit="10" stroke-width=".4"/>
  <g>
    <path d="M57.23,132.62c.21,0,.41-.01,.62-.02" fill="none" stroke="#221e1f" stroke-miterlimit="10" stroke-width=".4"/>
    <path d="M58.72,132.57c15.71-.68,28.52-4.85,32.59-10.34" fill="none" stroke="#221e1f" stroke-dasharray="0 0 1.21 .88" stroke-miterlimit="10" stroke-width=".4"/>
    <path d="M91.57,121.87c.12-.17,.22-.35,.32-.53" fill="none" stroke="#221e1f" stroke-miterlimit="10" stroke-width=".4"/>
  </g>
  <g>
    <path d="M16.42,121.33c.1,.18,.2,.35,.32,.53" fill="none" stroke="#221e1f" stroke-miterlimit="10" stroke-width=".4"/>
    <path d="M17.28,122.58c4.29,5.25,16.63,9.22,31.75,9.96" fill="none" stroke="#221e1f" stroke-dasharray="0 0 1.25 .91" stroke-miterlimit="10" stroke-width=".4"/>
    <path d="M49.48,132.56c.21,0,.41,.02,.62,.03" fill="none" stroke="#221e1f" stroke-miterlimit="10" stroke-width=".4"/>
  </g>
  <g>
    <path d="M5.11,60.87c0-.21,0-.41,.01-.62" fill="none" stroke="#221e1f" stroke-miterlimit="10" stroke-width=".4"/>
    <path d="M5.14,59.35c.53-24.63,4.81-44.85,10.5-50.98" fill="none" stroke="#221e1f" stroke-dasharray="0 0 1.23 .89" stroke-miterlimit="10" stroke-width=".4"/>
    <path d="M15.94,8.05c.15-.15,.3-.29,.46-.41" fill="none" stroke="#221e1f" stroke-miterlimit="10" stroke-width=".4"/>
  </g>
  <g>
    <path d="M16.42,121.33c-.15-.13-.31-.26-.46-.41" fill="none" stroke="#221e1f" stroke-miterlimit="10" stroke-width=".4"/>
    <path d="M15.36,120.27c-5.4-6.3-9.48-25.37-10.17-48.72" fill="none" stroke="#221e1f" stroke-dasharray="0 0 1.23 .89" stroke-miterlimit="10" stroke-width=".4"/>
    <path d="M5.17,71.1c0-.21-.01-.41-.02-.62" fill="none" stroke="#221e1f" stroke-miterlimit="10" stroke-width=".4"/>
  </g>
  <path d="M16.42,7.92c62.62,0,113.39,50.76,113.39,113.39" fill="none" stroke="#231815" stroke-linecap="round" stroke-linejoin="round" stroke-width=".75"/>
  <line x1="16.42" y1="121.18" x2="16.4" y2="7.79" fill="none" stroke="#231815" stroke-linejoin="round" stroke-width=".75"/>
  <line x1="129.81" y1="121.31" x2="16.42" y2="121.31" fill="none" stroke="#231815" stroke-linejoin="round" stroke-width=".75"/>
  <line x1="91.89" y1="121.31" x2="91.89" y2="36.68" fill="none" stroke="#231815" stroke-linejoin="round" stroke-width=".75"/>
  <line x1="91.89" y1="36.68" x2="129.81" y2="121.31" fill="none" stroke="#231815" stroke-linecap="round" stroke-miterlimit="10" stroke-width=".75"/>
  <path d="M56.23,135.45c-.12,.26-.28,.48-.49,.67-.22,.19-.48,.34-.77,.44-.28,.11-.57,.16-.86,.16s-.57-.04-.83-.13c-.29-.09-.54-.21-.75-.38-.23-.18-.4-.39-.52-.62-.12-.24-.18-.5-.18-.77,0-.25,.05-.49,.14-.71,.09-.21,.23-.41,.41-.59,.14-.15,.3-.29,.49-.41,.17-.11,.35-.22,.55-.31l-.13-.09c-.22-.14-.4-.26-.52-.37-.19-.17-.34-.35-.43-.53-.08-.16-.13-.29-.16-.41-.04-.14-.05-.28-.05-.42,0-.26,.05-.5,.15-.72,.1-.22,.25-.42,.44-.58,.19-.18,.4-.32,.65-.41,.24-.09,.49-.13,.77-.13,.24,0,.48,.04,.71,.11,.24,.07,.45,.18,.65,.33,.19,.14,.35,.31,.45,.52,.12,.21,.17,.44,.17,.69,0,.17-.03,.34-.1,.51-.06,.16-.16,.31-.27,.45-.14,.14-.28,.28-.44,.4-.16,.13-.33,.24-.53,.34l.44,.28c.27,.17,.49,.33,.65,.49,.2,.21,.35,.45,.43,.72,.04,.11,.06,.22,.08,.33,.02,.1,.03,.2,.03,.3,0,.29-.06,.56-.18,.83Zm-.45-.85c-.04-.13-.11-.25-.21-.35-.1-.11-.26-.25-.49-.41-.13-.09-.33-.21-.6-.38l-.21-.13-.61-.38c-.24,.13-.44,.27-.61,.41-.17,.14-.29,.3-.39,.47-.1,.17-.18,.33-.23,.48-.04,.17-.07,.33-.07,.49,0,.21,.04,.42,.13,.62,.09,.19,.21,.36,.38,.51,.17,.15,.36,.26,.57,.34,.21,.09,.43,.13,.67,.13,.21,0,.42-.04,.63-.11,.2-.06,.39-.16,.57-.28,.17-.14,.29-.29,.38-.45,.1-.17,.15-.36,.15-.55,0-.15-.03-.29-.09-.43Zm-.26-4.35c-.08-.17-.19-.32-.33-.43-.14-.13-.31-.23-.51-.29-.18-.06-.37-.1-.56-.1s-.37,.02-.55,.06c-.19,.06-.35,.14-.48,.24-.15,.1-.27,.22-.35,.37-.09,.14-.13,.3-.13,.47s.05,.35,.16,.5c.09,.14,.22,.26,.39,.38l1.38,.88c.16-.1,.31-.21,.44-.32,.13-.11,.25-.23,.35-.35,.1-.13,.18-.27,.23-.42,.05-.14,.08-.29,.08-.44,0-.2-.04-.38-.12-.55Z" fill="#221e1f"/>
  <path d="M3.73,69.06H1.94c-.33,0-.63,.02-.89,.04v-.34h.53c.31,0,.51-.02,.61-.08,.16-.07,.24-.22,.24-.45v-5.71c-.17,.08-.37,.14-.59,.19-.19,.04-.4,.08-.61,.1h-.24v-.34c.06,0,.12,0,.16-.01,.06,0,.13,0,.21-.01,.19-.01,.37-.05,.56-.1,.18-.04,.36-.1,.53-.18,.1-.06,.2-.12,.29-.18,.09-.07,.18-.15,.26-.23h.26v6.47c0,.24,.08,.39,.24,.45,.1,.05,.31,.08,.62,.08h.52v.34c-.27-.02-.56-.04-.89-.04Z"/>
  <path d="M9.8,69.1H5.71v-.26l2.24-2.51c.17-.2,.31-.38,.43-.55,.14-.2,.27-.4,.38-.6,.11-.22,.19-.42,.25-.62,.07-.23,.11-.45,.11-.66,0-.24-.03-.46-.09-.66-.06-.22-.15-.42-.27-.58-.14-.19-.31-.33-.51-.43-.19-.09-.39-.13-.61-.13-.36,0-.67,.1-.94,.3-.26,.2-.45,.47-.56,.82h.14c.17-.01,.31,.04,.42,.14,.11,.11,.17,.25,.17,.43,0,.16-.05,.29-.16,.41-.12,.12-.25,.17-.41,.17-.19,0-.33-.06-.44-.18-.1-.11-.15-.26-.15-.44,0-.25,.05-.5,.15-.74,.1-.23,.24-.43,.41-.61,.19-.22,.42-.38,.68-.48,.25-.1,.52-.15,.82-.15,.32,0,.61,.05,.89,.14,.29,.1,.56,.25,.79,.45,.22,.2,.38,.43,.5,.7,.11,.26,.17,.54,.17,.85,0,.29-.04,.55-.13,.78-.09,.22-.22,.45-.41,.67-.17,.19-.37,.39-.6,.6-.12,.12-.32,.31-.6,.57l-.62,.59-1.17,1.14h2.04c.22,0,.38,0,.51-.01,.23-.01,.37-.04,.42-.08,.07-.06,.13-.18,.18-.36,.02-.09,.05-.24,.09-.45l.03-.18h.28l-.31,1.93Z"/>
</svg>