<?xml version="1.0" encoding="UTF-8"?>
<svg id="_레이어_1" data-name="레이어 1" xmlns="http://www.w3.org/2000/svg" width="141.45" height="160.81" viewBox="0 0 141.45 160.81">
  <polyline points="100.3 100.66 100.76 100.66 100.76 160.66 141.08 100.66 141.08 100.22 141.08 100.66 101.2 100.66" fill="#dcdddd"/>
  <polyline points="40.72 100.44 40.72 160.44 .34 40.65 40.61 100.57 40.75 100.48" fill="#dcdddd"/>
  <polyline points="100.51 60.3 60.23 .38 141.02 60.12 100.7 60.12" fill="#dcdddd"/>
  <polyline points="100.76 100.44 40.76 100.44 100.74 60.12 100.74 100.44" fill="#dcdddd"/>
  <line x1="40.76" y1="100.44" x2="100.76" y2="100.44" fill="none" stroke="#221e1f" stroke-miterlimit="10" stroke-width=".75"/>
  <line x1="100.75" y1="60.12" x2="100.75" y2="100.44" fill="none" stroke="#221e1f" stroke-miterlimit="10" stroke-width=".75"/>
  <polyline points="100.75 94.61 95.08 94.61 95.08 100.28" fill="none" stroke="#221e1f" stroke-miterlimit="10" stroke-width=".4"/>
  <path d="M31.41,107.18v-.28c.48,0,.79-.05.93-.14.15-.11.17-.31.06-.61l-.65-1.84h-3.06l-.51,1.59c-.14.4-.14.67,0,.81.13.13.44.19.94.19v.28h-2.41v-.28c.31,0,.54-.06.68-.19.15-.14.31-.46.49-.95l2.19-6.41.61-.27,2.43,7.03c.09.29.23.5.4.61.17.11.4.17.7.17v.28h-2.81ZM30.21,99.9l-1.4,4.09h2.83l-1.43-4.09Z" fill="#221e1f"/>
  <path d="M107.34,108.84c-.51.44-1.21.67-2.09.67h-3.54v-.28c.42,0,.7-.05.83-.14.14-.09.22-.29.22-.58v-5.88c0-.27-.07-.47-.22-.58-.16-.12-.44-.18-.83-.18v-.28h3.33c.82,0,1.47.18,1.96.53.46.34.69.78.69,1.33,0,.41-.13.76-.38,1.04-.29.32-.74.56-1.35.72.72.14,1.25.41,1.6.79.32.35.48.8.48,1.34,0,.59-.23,1.1-.69,1.5ZM106.48,102.35c-.35-.33-.83-.49-1.45-.49h-.65c-.32,0-.56.06-.7.18-.14.12-.22.32-.22.58v2.53h1.57c.53,0,.98-.19,1.36-.58.35-.36.53-.76.53-1.19,0-.39-.15-.73-.44-1.02ZM106.72,106.01c-.41-.39-.92-.58-1.51-.58h-1.74v3.07c0,.29.07.48.22.58.12.09.36.14.7.14h.75c.67,0,1.21-.2,1.61-.59.38-.36.56-.79.56-1.3s-.19-.95-.58-1.32Z" fill="#221e1f"/>
  <path d="M105.47,58.23c-.52.46-1.12.69-1.81.69-.91,0-1.67-.36-2.29-1.08-.66-.78-.99-1.81-.99-3.1,0-1.14.29-2.1.86-2.89.59-.8,1.34-1.2,2.24-1.2.21,0,.42.02.63.06.13.04.34.1.64.19l.06.03.79-.25.77,2-.17.11c-.35-.51-.7-.91-1.07-1.21-.53-.44-1.07-.66-1.62-.66-.68,0-1.24.36-1.7,1.09-.45.72-.67,1.63-.67,2.73,0,1.03.27,1.9.81,2.59.53.69,1.19,1.04,1.98,1.04.47,0,.9-.15,1.3-.44.43-.31.81-.78,1.15-1.41l.21.09c-.28.69-.64,1.23-1.09,1.62Z" fill="#221e1f"/>
  <g>
    <path d="M109.25,75.7c-.03-.21-.05-.41-.08-.62" fill="none" stroke="#221e1f" stroke-miterlimit="10" stroke-width=".4"/>
    <path d="M109.03,74.24c-1.08-6.43-3.84-11.5-7.33-13.43" fill="none" stroke="#221e1f" stroke-dasharray="1.17 .85" stroke-miterlimit="10" stroke-width=".4"/>
    <path d="M101.33,60.62c-.19-.09-.38-.17-.57-.24" fill="none" stroke="#221e1f" stroke-miterlimit="10" stroke-width=".4"/>
  </g>
  <g>
    <path d="M100.75,100.28c.19-.07.38-.15.57-.24" fill="none" stroke="#221e1f" stroke-miterlimit="10" stroke-width=".4"/>
    <path d="M102.1,99.6c3.54-2.24,6.27-7.76,7.14-14.6" fill="none" stroke="#221e1f" stroke-dasharray="1.24 .9" stroke-miterlimit="10" stroke-width=".4"/>
    <path d="M109.29,84.55c.02-.2.04-.41.06-.62" fill="none" stroke="#221e1f" stroke-miterlimit="10" stroke-width=".4"/>
  </g>
  <path d="M71.68,111.85c-.36.28-.74.42-1.16.42-.59,0-1.11-.25-1.55-.76-.46-.51-.69-1.12-.69-1.83,0-.84.26-1.55.78-2.11.49-.53,1.06-.79,1.69-.79.31,0,.62.08.93.25.3.16.5.33.6.53.1.21.11.39.03.55-.07.15-.2.23-.37.23-.14,0-.25-.05-.33-.14-.05-.05-.1-.15-.16-.3l-.07-.16c-.11-.22-.23-.38-.35-.48-.14-.11-.33-.16-.55-.16-.39,0-.72.21-1.01.62-.31.46-.47,1.05-.47,1.78s.15,1.26.46,1.69c.31.44.73.65,1.25.65.26,0,.51-.07.75-.2.28-.16.58-.43.9-.81l.16.09c-.27.42-.55.74-.85.96Z"/>
  <path d="M79.39,112.09v-.27c.25,0,.43-.05.55-.15.12-.09.18-.25.18-.46v-3.04c0-.25-.08-.46-.25-.63-.17-.19-.39-.28-.65-.28-.24,0-.49.08-.76.24-.23.13-.48.32-.74.58v3.14c0,.21.06.37.18.46.12.1.31.15.57.15v.27h-2.13v-.27c.26,0,.45-.05.56-.15.11-.09.17-.25.17-.46v-3.06c0-.24-.08-.44-.25-.61-.17-.18-.36-.27-.59-.27-.29,0-.56.08-.81.24-.21.12-.45.33-.72.62v3.08c0,.21.06.37.17.46.11.1.31.15.59.15v.27h-2.2v-.27c.27,0,.47-.05.59-.15.13-.09.19-.25.19-.46v-3.2c0-.24-.06-.4-.18-.48-.11-.07-.29-.11-.56-.11l-.04-.2,1.44-.44v.99c.29-.29.56-.5.8-.65.36-.22.72-.33,1.06-.33.24,0,.46.08.68.24.24.19.4.43.48.73.3-.29.59-.51.87-.66.36-.2.69-.3,1.01-.3s.61.13.85.39c.22.24.33.52.33.83v3.22c0,.21.06.36.19.46.13.1.32.15.58.15v.27h-2.15Z"/>
  <g>
    <path d="M106.83,81.19v.95c0,.23.06.38.18.44.08.05.25.07.51.07h.38v.34c-.23-.02-.48-.04-.75-.04h-1.49c-.28,0-.53.02-.74.04v-.34h.34c.28,0,.46-.02.54-.06.12-.06.18-.21.18-.45v-.95h-2.92v-.34l3.37-5.14c.04-.06.06-.09.09-.11.03-.01.08-.02.14-.02.08,0,.13.02.15.06.01.03.02.09.02.17v5.03h1.1v.34h-1.1ZM106.05,76.76l-2.67,4.09h2.67v-4.09Z"/>
    <path d="M113.49,82.81c-.36.28-.74.42-1.16.42-.59,0-1.11-.25-1.55-.76-.46-.51-.69-1.12-.69-1.83,0-.84.26-1.55.78-2.11.49-.53,1.06-.79,1.69-.79.31,0,.62.08.93.25.3.16.5.33.6.52.1.21.11.39.03.55-.07.15-.2.23-.38.23-.14,0-.25-.05-.33-.14-.05-.05-.1-.15-.16-.3l-.08-.16c-.11-.22-.23-.38-.35-.48-.14-.11-.33-.16-.55-.16-.39,0-.72.21-1.01.62-.31.46-.47,1.05-.47,1.78s.15,1.26.46,1.69c.31.44.73.65,1.25.65.26,0,.51-.07.75-.2.28-.16.58-.43.9-.81l.16.09c-.27.42-.55.74-.85.96Z"/>
    <path d="M121.2,83.04v-.27c.25,0,.43-.05.55-.15.12-.09.18-.25.18-.46v-3.04c0-.25-.08-.46-.25-.63-.17-.19-.39-.28-.65-.28-.24,0-.49.08-.76.24-.23.13-.47.32-.74.58v3.14c0,.21.06.37.18.46.12.1.31.15.57.15v.27h-2.13v-.27c.26,0,.45-.05.56-.15.11-.09.17-.25.17-.46v-3.06c0-.24-.08-.44-.25-.61-.16-.18-.36-.27-.59-.27-.29,0-.56.08-.81.24-.21.12-.45.33-.72.62v3.08c0,.21.06.37.17.46.11.1.31.15.59.15v.27h-2.2v-.27c.27,0,.47-.05.59-.15.13-.09.19-.25.19-.46v-3.2c0-.24-.06-.4-.18-.48-.11-.07-.29-.11-.56-.11l-.04-.2,1.44-.44v.99c.29-.29.56-.5.8-.65.36-.22.72-.33,1.06-.33.24,0,.46.08.67.24.24.19.4.43.48.73.3-.29.59-.51.87-.66.36-.2.69-.3,1.01-.3s.61.13.85.39c.22.24.33.52.33.83v3.22c0,.21.06.36.19.46.13.1.32.15.58.15v.27h-2.15Z"/>
  </g>
  <line x1="100.75" y1="60.12" x2="40.76" y2="100.44" fill="none" stroke="#221e1f" stroke-miterlimit="10" stroke-width=".75"/>
  <path d="M65.82,110.97c-.12.32-.28.6-.5.84-.22.22-.47.39-.73.5-.27.12-.56.18-.86.18s-.6-.07-.88-.2c-.27-.13-.49-.31-.67-.55-.29-.39-.5-.87-.63-1.44-.09-.44-.14-.95-.14-1.53,0-.54.07-1.04.21-1.5.16-.51.4-.95.71-1.33.24-.32.53-.56.88-.73.35-.19.72-.28,1.11-.28.23,0,.43.02.61.08.17.06.32.15.45.27.12.11.2.24.26.38s.09.29.09.46c0,.15-.05.28-.14.38-.1.11-.22.16-.37.16-.15,0-.27-.05-.37-.15-.09-.09-.14-.21-.14-.35,0-.19.06-.32.17-.4.1-.06.24-.1.43-.1-.09-.15-.24-.26-.43-.34-.17-.06-.35-.1-.54-.1-.42,0-.8.17-1.12.49-.27.27-.47.61-.59,1.01-.07.22-.13.47-.16.73-.04.29-.05.61-.05.95v.26c.12-.33.3-.59.53-.77.25-.21.53-.31.86-.31.3,0,.58.06.84.17.27.12.5.3.71.53.21.23.37.5.47.82.11.29.16.61.16.94s-.06.66-.17.96ZM65,109.88c0-.32-.01-.56-.03-.72-.02-.27-.08-.49-.16-.66-.12-.23-.26-.4-.41-.5-.17-.12-.38-.18-.61-.18s-.44.06-.62.17c-.16.1-.3.26-.43.48-.11.17-.19.38-.25.62-.04.22-.06.44-.06.69,0,.21,0,.4.01.57,0,.21.03.4.06.58.06.34.18.63.38.86.23.27.51.41.84.41.24,0,.46-.07.66-.2.18-.12.32-.29.43-.52.08-.18.13-.4.16-.67.01-.15.02-.38.02-.69v-.25Z" fill="#221e1f"/>
  <g>
    <path d="M41.1,100.44c.06.2.13.39.21.58" fill="none" stroke="#221e1f" stroke-miterlimit="10" stroke-width=".4"/>
    <path d="M41.71,101.85c2.38,4.44,8.86,7.7,16.6,7.98" fill="none" stroke="#221e1f" stroke-dasharray="1.26 .92" stroke-miterlimit="10" stroke-width=".4"/>
    <path d="M58.77,109.85c.21,0,.41,0,.62,0" fill="none" stroke="#221e1f" stroke-miterlimit="10" stroke-width=".4"/>
  </g>
  <g>
    <path d="M100.83,100.44c-.06.2-.13.39-.21.58" fill="none" stroke="#221e1f" stroke-miterlimit="10" stroke-width=".4"/>
    <path d="M100.22,101.85c-2.38,4.44-8.86,7.7-16.6,7.98" fill="none" stroke="#221e1f" stroke-dasharray="1.26 .92" stroke-miterlimit="10" stroke-width=".4"/>
    <path d="M83.16,109.85c-.21,0-.41,0-.62,0" fill="none" stroke="#221e1f" stroke-miterlimit="10" stroke-width=".4"/>
  </g>
  <rect x="100.76" y="60.12" width="40.31" height="40.31" fill="none" stroke="#221e1f" stroke-linejoin="round" stroke-width=".75"/>
  <rect x="40.76" y="100.44" width="60" height="60" fill="none" stroke="#221e1f" stroke-linejoin="round" stroke-width=".75"/>
  <rect x="14.37" y="14.37" width="72.2" height="72.2" transform="translate(120.52 64.21) rotate(146.1)" fill="none" stroke="#221e1f" stroke-linejoin="round" stroke-width=".75"/>
  <line x1="60.3" y1=".38" x2="141.08" y2="60.12" fill="none" stroke="#221e1f" stroke-miterlimit="10" stroke-width=".4"/>
  <line x1=".38" y1="40.65" x2="40.76" y2="160.44" fill="none" stroke="#221e1f" stroke-linejoin="round" stroke-width=".4"/>
  <line x1="141.08" y1="100.44" x2="100.76" y2="160.44" fill="none" stroke="#221e1f" stroke-linejoin="round" stroke-width=".4"/>
</svg>