<svg id="레이어_1" data-name="레이어 1" xmlns="http://www.w3.org/2000/svg" width="151.51" height="85.33" viewBox="0 0 151.51 85.33">
  <polygon points="143.64 66.41 7.58 66.41 143.64 9.72 143.64 66.41" fill="none" stroke="#221e1f" stroke-linejoin="round" stroke-width="0.75"/>
  <circle cx="120.96" cy="43.74" r="22.68" fill="none" stroke="#221e1f" stroke-miterlimit="10" stroke-width="0.4"/>
  <circle cx="120.96" cy="43.74" r="1.42" fill="#231815"/>
  <g>
    <path d="M170.71,95.23l.61.09" transform="translate(-35.17 -55.62)" fill="none" stroke="#221e1f" stroke-miterlimit="10" stroke-width="0.4"/>
    <path d="M172.31,95.51a11,11,0,0,1,5.89,2.9" transform="translate(-35.17 -55.62)" fill="none" stroke="#221e1f" stroke-miterlimit="10" stroke-width="0.4" stroke-dasharray="1.38 1"/>
    <path d="M178.51,98.81a3.64,3.64,0,0,1,.3.54" transform="translate(-35.17 -55.62)" fill="none" stroke="#221e1f" stroke-miterlimit="10" stroke-width="0.4"/>
  </g>
  <g>
    <path d="M156.13,99.36a3.5,3.5,0,0,1,.29-.54" transform="translate(-35.17 -55.62)" fill="none" stroke="#221e1f" stroke-miterlimit="10" stroke-width="0.4"/>
    <path d="M157,98.12a11.39,11.39,0,0,1,5.41-2.57" transform="translate(-35.17 -55.62)" fill="none" stroke="#221e1f" stroke-miterlimit="10" stroke-width="0.4" stroke-dasharray="1.26 0.91"/>
    <path d="M162.87,95.46l.62-.12" transform="translate(-35.17 -55.62)" fill="none" stroke="#221e1f" stroke-miterlimit="10" stroke-width="0.4"/>
  </g>
  <polyline points="143.64 60.74 137.97 60.74 137.97 66.41" fill="none" stroke="#221e1f" stroke-miterlimit="10" stroke-width="0.4"/>
  <polyline points="120.96 60.74 126.63 60.74 126.63 66.41" fill="none" stroke="#221e1f" stroke-miterlimit="10" stroke-width="0.4"/>
  <polyline points="143.64 49.4 137.97 49.4 137.97 43.73" fill="none" stroke="#221e1f" stroke-miterlimit="10" stroke-width="0.4"/>
  <path d="M179.75,63.72v-.28a1.92,1.92,0,0,0,.92-.14c.16-.11.18-.32.07-.62l-.65-1.83H177l-.5,1.59c-.14.4-.14.67,0,.8a1.45,1.45,0,0,0,.94.2v.28h-2.41v-.28a1,1,0,0,0,.68-.2,2.61,2.61,0,0,0,.48-.94l2.2-6.41.6-.27,2.43,7a1.1,1.1,0,0,0,.4.61,1.19,1.19,0,0,0,.7.18v.28Zm-1.2-7.29-1.41,4.09H180Z" transform="translate(-35.17 -55.62)" fill="#221e1f"/>
  <path d="M40.8,126.45a3.07,3.07,0,0,1-2.09.67H35.17v-.28a1.71,1.71,0,0,0,.83-.14c.14-.09.21-.28.21-.58v-5.88a.72.72,0,0,0-.21-.58,1.44,1.44,0,0,0-.83-.18v-.28h3.32a3.28,3.28,0,0,1,2,.53,1.56,1.56,0,0,1,.69,1.33,1.47,1.47,0,0,1-.38,1,2.7,2.7,0,0,1-1.35.72,2.88,2.88,0,0,1,1.6.79,2,2,0,0,1-.21,2.84ZM39.93,120a2,2,0,0,0-1.45-.49h-.65a1.11,1.11,0,0,0-.7.18.75.75,0,0,0-.21.58v2.53h1.56a1.82,1.82,0,0,0,1.36-.58,1.65,1.65,0,0,0,.53-1.19A1.37,1.37,0,0,0,39.93,120Zm.24,3.66a2.11,2.11,0,0,0-1.51-.58H36.92v3.07a.67.67,0,0,0,.21.58,1.26,1.26,0,0,0,.7.14h.75a2.22,2.22,0,0,0,1.61-.59,1.79,1.79,0,0,0,0-2.62Z" transform="translate(-35.17 -55.62)" fill="#221e1f"/>
  <path d="M184.56,128.39a2.65,2.65,0,0,1-1.82.69,2.92,2.92,0,0,1-2.29-1.08,4.65,4.65,0,0,1-1-3.1,4.8,4.8,0,0,1,.86-2.89,2.69,2.69,0,0,1,2.24-1.2,3.36,3.36,0,0,1,.63.06l.63.2.07,0,.79-.25.77,2-.18.11a5.46,5.46,0,0,0-1.07-1.22,2.57,2.57,0,0,0-1.62-.65,2,2,0,0,0-1.7,1.08,5.21,5.21,0,0,0-.66,2.73,4.09,4.09,0,0,0,.81,2.59,2.38,2.38,0,0,0,2,1,2.1,2.1,0,0,0,1.3-.44,4,4,0,0,0,1.15-1.4l.2.08A4.16,4.16,0,0,1,184.56,128.39Z" transform="translate(-35.17 -55.62)" fill="#221e1f"/>
  <line x1="120.96" y1="43.74" x2="143.64" y2="43.74" fill="none" stroke="#221e1f" stroke-miterlimit="10" stroke-width="0.4"/>
  <g>
    <path d="M182.66,105.37c0-.21-.1-.41-.16-.6" transform="translate(-35.17 -55.62)" fill="none" stroke="#221e1f" stroke-miterlimit="10" stroke-width="0.4"/>
    <path d="M182.17,103.75a8.87,8.87,0,0,0-2.39-3.79" transform="translate(-35.17 -55.62)" fill="none" stroke="#221e1f" stroke-miterlimit="10" stroke-width="0.4" stroke-dasharray="1.46 1.06"/>
    <path d="M179.36,99.65a3.22,3.22,0,0,0-.55-.29" transform="translate(-35.17 -55.62)" fill="none" stroke="#221e1f" stroke-miterlimit="10" stroke-width="0.4"/>
  </g>
  <g>
    <path d="M178.81,122a4.74,4.74,0,0,0,.54-.29" transform="translate(-35.17 -55.62)" fill="none" stroke="#221e1f" stroke-miterlimit="10" stroke-width="0.4"/>
    <path d="M180,121.24a10.38,10.38,0,0,0,2.54-4.77" transform="translate(-35.17 -55.62)" fill="none" stroke="#221e1f" stroke-miterlimit="10" stroke-width="0.4" stroke-dasharray="1.13 0.82"/>
    <path d="M182.65,116.07l.15-.6" transform="translate(-35.17 -55.62)" fill="none" stroke="#221e1f" stroke-miterlimit="10" stroke-width="0.4"/>
  </g>
  <path d="M149.75,72.81a2.41,2.41,0,0,1-1.66.57h-1.81V76a.73.73,0,0,0,.23.6,1.46,1.46,0,0,0,.91.21v.28h-2.89v-.28a1.24,1.24,0,0,0,.82-.21.73.73,0,0,0,.23-.6V70.17a.61.61,0,0,0-.23-.55,1.56,1.56,0,0,0-.82-.16v-.27h3.64a2.45,2.45,0,0,1,1.59.51,1.8,1.8,0,0,1,.67,1.47A2.09,2.09,0,0,1,149.75,72.81ZM149.22,70a1.75,1.75,0,0,0-1.31-.52h-.85a.94.94,0,0,0-.6.16.7.7,0,0,0-.18.55V73.1h1.62a1.62,1.62,0,0,0,1.32-.63,2,2,0,0,0,.45-1.3A1.68,1.68,0,0,0,149.22,70Z" transform="translate(-35.17 -55.62)" fill="#221e1f"/>
  <path d="M157.55,131.45a2.46,2.46,0,0,1-.48.39,1.18,1.18,0,0,1-.61.16,1.28,1.28,0,0,1-.89-.38,2.66,2.66,0,0,1-.59-.9,3.27,3.27,0,0,1-.53.17,2.1,2.1,0,0,1-.48.06,2.9,2.9,0,0,1-2.48-1.29,4.67,4.67,0,0,1-.85-2.84,4.74,4.74,0,0,1,.85-2.85,3,3,0,0,1,4.94,0,4.62,4.62,0,0,1,.9,2.85,5.38,5.38,0,0,1-.43,2.16,2.72,2.72,0,0,1-1.33,1.51,1.74,1.74,0,0,0,.42.63.93.93,0,0,0,.67.31,1.54,1.54,0,0,0,.4,0,2,2,0,0,0,.43-.17l.13.17Zm-1.64-7.29a2.16,2.16,0,0,0-3.87,0,5.11,5.11,0,0,0-.66,2.67,6.69,6.69,0,0,0,.2,1.57,3,3,0,0,0,.63,1.32,1,1,0,0,1,.32-1,1.47,1.47,0,0,1,.83-.2,1.79,1.79,0,0,1,1,.31,3.41,3.41,0,0,1,1.07,1.24,2.87,2.87,0,0,0,.91-1.51,6.06,6.06,0,0,0,.25-1.77A5.2,5.2,0,0,0,155.91,124.16Zm-1.9,5a1.28,1.28,0,0,0-.81-.27.81.81,0,0,0-.48.12,1,1,0,0,0-.32.87,2.92,2.92,0,0,0,.81.62,2,2,0,0,0,.76.16,1.35,1.35,0,0,0,.43-.08,2.75,2.75,0,0,0,.45-.17A2.79,2.79,0,0,0,154,129.17Z" transform="translate(-35.17 -55.62)" fill="#221e1f"/>
  <path d="M185.18,99.64,183,95.71h-1.16v2.87a.74.74,0,0,0,.23.6,1.44,1.44,0,0,0,.83.18v.28h-2.81v-.28a1.44,1.44,0,0,0,.83-.18.76.76,0,0,0,.22-.6V92.66a.59.59,0,0,0-.22-.51,1.67,1.67,0,0,0-.83-.15v-.28h3.21a3,3,0,0,1,1.94.56,1.68,1.68,0,0,1,.67,1.4,1.83,1.83,0,0,1-.53,1.36,2.35,2.35,0,0,1-1.63.64l1.8,3.18a.85.85,0,0,0,.44.4,1.73,1.73,0,0,0,.69.1v.28Zm-.53-7.19a2,2,0,0,0-1.4-.45h-.61a1,1,0,0,0-.6.15.62.62,0,0,0-.2.51v2.78h1.67a1.56,1.56,0,0,0,1.28-.55,1.91,1.91,0,0,0,.36-1.21A1.52,1.52,0,0,0,184.65,92.45Z" transform="translate(-35.17 -55.62)" fill="#221e1f"/>
  <path d="M151.15,98.51v-.28a1.89,1.89,0,0,0,.89-.15.52.52,0,0,0,.26-.5v-6A.59.59,0,0,0,152,91a1.84,1.84,0,0,0-.89-.15v-.28h3v.28a1.86,1.86,0,0,0-.9.15.62.62,0,0,0-.25.57v6a.55.55,0,0,0,.25.5,1.91,1.91,0,0,0,.9.15v.28Z" transform="translate(-35.17 -55.62)" fill="#221e1f"/>
  <g>
    <path d="M170.71,126.2l.61-.1" transform="translate(-35.17 -55.62)" fill="none" stroke="#221e1f" stroke-miterlimit="10" stroke-width="0.4"/>
    <path d="M172.31,125.91a10.89,10.89,0,0,0,5.89-2.9" transform="translate(-35.17 -55.62)" fill="none" stroke="#221e1f" stroke-miterlimit="10" stroke-width="0.4" stroke-dasharray="1.38 1"/>
    <path d="M178.51,122.61a2.86,2.86,0,0,0,.3-.54" transform="translate(-35.17 -55.62)" fill="none" stroke="#221e1f" stroke-miterlimit="10" stroke-width="0.4"/>
  </g>
  <g>
    <path d="M156.13,122.06a3.5,3.5,0,0,0,.29.54" transform="translate(-35.17 -55.62)" fill="none" stroke="#221e1f" stroke-miterlimit="10" stroke-width="0.4"/>
    <path d="M157,123.3a11.39,11.39,0,0,0,5.41,2.57" transform="translate(-35.17 -55.62)" fill="none" stroke="#221e1f" stroke-miterlimit="10" stroke-width="0.4" stroke-dasharray="1.26 0.91"/>
    <path d="M162.87,126l.62.11" transform="translate(-35.17 -55.62)" fill="none" stroke="#221e1f" stroke-miterlimit="10" stroke-width="0.4"/>
  </g>
  <g>
    <path d="M117.79,137.38l.62,0" transform="translate(-35.17 -55.62)" fill="none" stroke="#221e1f" stroke-miterlimit="10" stroke-width="0.4"/>
    <path d="M119.31,137.33c28.67-1,51.93-6.81,58.82-14.45" transform="translate(-35.17 -55.62)" fill="none" stroke="#221e1f" stroke-miterlimit="10" stroke-width="0.4" stroke-dasharray="1.24 0.9"/>
    <path d="M178.42,122.54q.21-.24.39-.48" transform="translate(-35.17 -55.62)" fill="none" stroke="#221e1f" stroke-miterlimit="10" stroke-width="0.4"/>
  </g>
  <g>
    <path d="M42.74,122l.38.48" transform="translate(-35.17 -55.62)" fill="none" stroke="#221e1f" stroke-miterlimit="10" stroke-width="0.4"/>
    <path d="M43.72,123.18c7.26,7.53,30.49,13.25,59,14.17" transform="translate(-35.17 -55.62)" fill="none" stroke="#221e1f" stroke-miterlimit="10" stroke-width="0.4" stroke-dasharray="1.24 0.9"/>
    <path d="M103.15,137.36l.62,0" transform="translate(-35.17 -55.62)" fill="none" stroke="#221e1f" stroke-miterlimit="10" stroke-width="0.4"/>
  </g>
  <g>
    <path d="M152.27,105.36c0-.21.1-.41.16-.6" transform="translate(-35.17 -55.62)" fill="none" stroke="#221e1f" stroke-miterlimit="10" stroke-width="0.4"/>
    <path d="M152.76,103.75a8.85,8.85,0,0,1,2.39-3.8" transform="translate(-35.17 -55.62)" fill="none" stroke="#221e1f" stroke-miterlimit="10" stroke-width="0.4" stroke-dasharray="1.46 1.06"/>
    <path d="M155.57,99.64a4.14,4.14,0,0,1,.55-.29" transform="translate(-35.17 -55.62)" fill="none" stroke="#221e1f" stroke-miterlimit="10" stroke-width="0.4"/>
  </g>
  <g>
    <path d="M156.13,122a4.14,4.14,0,0,1-.55-.29" transform="translate(-35.17 -55.62)" fill="none" stroke="#221e1f" stroke-miterlimit="10" stroke-width="0.4"/>
    <path d="M154.94,121.23a10.3,10.3,0,0,1-2.55-4.76" transform="translate(-35.17 -55.62)" fill="none" stroke="#221e1f" stroke-miterlimit="10" stroke-width="0.4" stroke-dasharray="1.13 0.82"/>
    <path d="M152.28,116.06c-.05-.19-.1-.4-.14-.6" transform="translate(-35.17 -55.62)" fill="none" stroke="#221e1f" stroke-miterlimit="10" stroke-width="0.4"/>
  </g>
  <line x1="120.96" y1="43.73" x2="120.96" y2="66.4" fill="none" stroke="#221e1f" stroke-miterlimit="10" stroke-width="0.4"/>
  <path d="M109.68,141h-4.1v-.25l2.24-2.51.43-.55a5.07,5.07,0,0,0,.38-.61,3.5,3.5,0,0,0,.25-.62,2.28,2.28,0,0,0,.11-.66,2.34,2.34,0,0,0-.09-.66,1.82,1.82,0,0,0-.27-.58,1.57,1.57,0,0,0-.5-.43,1.6,1.6,0,0,0-.62-.13,1.53,1.53,0,0,0-.94.3,1.77,1.77,0,0,0-.56.82h.14a.57.57,0,0,1,.42.15.55.55,0,0,1,.18.43.57.57,0,0,1-.17.41.54.54,0,0,1-.41.18.55.55,0,0,1-.44-.19.63.63,0,0,1-.15-.44,1.92,1.92,0,0,1,.15-.74,2.16,2.16,0,0,1,.41-.62,2,2,0,0,1,.68-.48,2.21,2.21,0,0,1,.82-.15,2.86,2.86,0,0,1,.89.14,2.29,2.29,0,0,1,.79.45,2.21,2.21,0,0,1,.54,2.33,2.38,2.38,0,0,1-.41.66c-.17.19-.37.39-.6.61l-.61.57-.62.59-1.18,1.14H109a1.12,1.12,0,0,0,.42-.07.86.86,0,0,0,.18-.36l.09-.45,0-.18H110Z" transform="translate(-35.17 -55.62)"/>
  <path d="M152.39,112.08v1c0,.23.06.38.19.45a1.13,1.13,0,0,0,.51.07h.38v.35c-.23,0-.48,0-.75-.05h-1.5c-.28,0-.53,0-.75.05v-.35h.35a1.49,1.49,0,0,0,.54-.06c.12-.07.18-.22.18-.46v-1h-2.93v-.35l3.38-5.17a.65.65,0,0,1,.09-.11l.14,0c.08,0,.13,0,.15.07a.35.35,0,0,1,0,.17v5.06h1.11v.35Zm-.78-4.46-2.69,4.11h2.69Z" transform="translate(-35.17 -55.62)"/>
  <path d="M168.06,128.27v.95c0,.24.06.38.18.45a1.16,1.16,0,0,0,.52.07h.38v.35l-.76-.05h-1.5l-.74.05v-.35h.35a1.39,1.39,0,0,0,.53-.06c.13-.07.19-.22.19-.46v-.95h-2.93v-.35l3.38-5.17.09-.11.14,0c.08,0,.13,0,.15.07a.54.54,0,0,1,0,.17v5.06h1.11v.35Zm-.79-4.46-2.68,4.11h2.68Z" transform="translate(-35.17 -55.62)"/>
  <path d="M184.18,111.54v1c0,.23.06.38.18.44a1,1,0,0,0,.52.08h.38v.34l-.76,0H183l-.75,0V113h.35a1.49,1.49,0,0,0,.54-.06c.12-.07.18-.22.18-.46v-1H180.4v-.34l3.38-5.17a.65.65,0,0,1,.09-.11l.14,0c.08,0,.13,0,.15.07a.49.49,0,0,1,0,.17v5.06h1.11v.34Zm-.79-4.45-2.68,4.11h2.68Z" transform="translate(-35.17 -55.62)"/>
  <path d="M167.58,96.1v1c0,.23.06.37.18.44a1.16,1.16,0,0,0,.52.07h.38v.35c-.23,0-.48,0-.76,0h-1.49c-.29,0-.53,0-.75,0v-.35H166a1.39,1.39,0,0,0,.53-.06c.13-.06.19-.22.19-.45v-1H163.8v-.35l3.38-5.16a.39.39,0,0,1,.09-.11.26.26,0,0,1,.14,0q.12,0,.15.06a.59.59,0,0,1,0,.17v5.06h1.11v.35Zm-.79-4.46-2.68,4.11h2.68Z" transform="translate(-35.17 -55.62)"/>
  <path d="M114.39,139.13v1c0,.23.07.38.19.44a1.1,1.1,0,0,0,.51.08h.38V141l-.75,0h-1.5l-.74,0v-.34h.34a1.24,1.24,0,0,0,.54-.07q.18-.09.18-.45v-1h-2.93v-.34l3.39-5.17a.38.38,0,0,1,.08-.11l.14,0q.12,0,.15.06a.39.39,0,0,1,0,.18v5.06h1.11v.34Zm-.78-4.46-2.69,4.12h2.69Z" transform="translate(-35.17 -55.62)"/>
</svg>
