<?xml version="1.0" encoding="UTF-8"?>
<svg id="_레이어_1" data-name="레이어 1" xmlns="http://www.w3.org/2000/svg" width="151.6" height="119.43" viewBox="0 0 151.6 119.43">
  <polygon points="7.16 111.33 143.22 111.33 7.16 9.28 7.16 111.33" fill="none" stroke="#231815" stroke-linejoin="round" stroke-width=".75"/>
  <line x1="7.16" y1="111.33" x2="97.87" y2="77.32" fill="none" stroke="#231815" stroke-miterlimit="10" stroke-width=".4"/>
  <line x1="7.16" y1="111.33" x2="52.51" y2="43.3" fill="none" stroke="#231815" stroke-miterlimit="10" stroke-width=".4"/>
  <g>
    <line x1="34.31" y1="25.22" x2="30.05" y2="30.89" fill="none" stroke="#231815" stroke-miterlimit="10" stroke-width=".4"/>
    <line x1="32.04" y1="23.52" x2="27.79" y2="29.18" fill="none" stroke="#231815" stroke-miterlimit="10" stroke-width=".4"/>
  </g>
  <g>
    <line x1="78.45" y1="58.32" x2="74.2" y2="63.99" fill="none" stroke="#231815" stroke-miterlimit="10" stroke-width=".4"/>
    <line x1="76.18" y1="56.62" x2="71.93" y2="62.29" fill="none" stroke="#231815" stroke-miterlimit="10" stroke-width=".4"/>
  </g>
  <g>
    <line x1="122.45" y1="91.33" x2="118.2" y2="97" fill="none" stroke="#231815" stroke-miterlimit="10" stroke-width=".4"/>
    <line x1="120.18" y1="89.63" x2="115.93" y2="95.3" fill="none" stroke="#231815" stroke-miterlimit="10" stroke-width=".4"/>
  </g>
  <path d="M7.24,8.09v-.28c.48,0,.79-.05.93-.14.15-.11.17-.31.06-.61l-.65-1.84h-3.06l-.51,1.59c-.14.4-.14.67,0,.81.13.13.44.19.94.19v.28h-2.41v-.28c.31,0,.54-.06.68-.19.15-.14.31-.46.49-.95L5.91.27l.61-.27,2.43,7.03c.09.29.23.5.4.61.17.11.4.17.7.17v.28h-2.81ZM6.04.81l-1.4,4.09h2.83L6.04.81Z" fill="#221e1f"/>
  <path d="M5.63,118.59c-.51.44-1.21.67-2.09.67H0v-.28c.42,0,.7-.05.83-.14.14-.09.22-.29.22-.58v-5.88c0-.27-.07-.47-.22-.58-.16-.12-.44-.18-.83-.18v-.28h3.33c.82,0,1.47.18,1.96.53.46.34.69.78.69,1.33,0,.41-.13.76-.38,1.04-.29.32-.74.56-1.35.72.72.14,1.25.41,1.6.79.32.35.48.8.48,1.34,0,.59-.23,1.1-.69,1.5ZM4.76,112.11c-.35-.33-.83-.49-1.45-.49h-.65c-.32,0-.56.06-.7.18-.14.12-.22.32-.22.58v2.53h1.57c.53,0,.98-.19,1.36-.58.35-.36.53-.76.53-1.19,0-.39-.15-.73-.44-1.02ZM5,115.76c-.41-.39-.92-.58-1.51-.58h-1.74v3.07c0,.29.07.48.22.58.12.09.36.14.7.14h.75c.67,0,1.21-.2,1.61-.59.38-.36.56-.79.56-1.3s-.19-.95-.58-1.32Z" fill="#221e1f"/>
  <path d="M150.51,118.74c-.52.46-1.12.69-1.81.69-.91,0-1.67-.36-2.29-1.08-.66-.78-.99-1.81-.99-3.1,0-1.14.29-2.1.86-2.89.59-.8,1.34-1.2,2.24-1.2.21,0,.42.02.63.06.13.04.34.1.64.19l.06.03.79-.25.77,2-.17.11c-.35-.51-.7-.91-1.07-1.21-.53-.44-1.07-.66-1.62-.66-.68,0-1.24.36-1.7,1.09-.45.72-.67,1.63-.67,2.73,0,1.03.27,1.9.81,2.59.53.69,1.19,1.04,1.98,1.04.47,0,.9-.15,1.3-.44.43-.31.81-.78,1.15-1.41l.21.09c-.28.69-.64,1.23-1.09,1.62Z" fill="#221e1f"/>
  <path d="M58.98,36.67c-.42.38-.98.57-1.66.57h-1.8v2.64c0,.28.08.48.23.6.17.14.48.2.91.2v.28h-2.89v-.28c.39,0,.66-.07.82-.2.15-.12.23-.32.23-.6v-5.85c0-.27-.08-.46-.23-.56-.15-.1-.42-.15-.82-.15v-.28h3.64c.63,0,1.16.17,1.59.52.45.37.67.86.67,1.47,0,.69-.23,1.23-.68,1.63ZM58.45,33.84c-.33-.34-.77-.52-1.31-.52h-.85c-.28,0-.48.05-.59.15-.12.11-.18.29-.18.56v2.92h1.62c.54,0,.98-.21,1.32-.62.3-.37.45-.81.45-1.3s-.15-.87-.45-1.19Z" fill="#221e1f"/>
  <path d="M105.83,77.91c-.2.19-.36.32-.48.39-.19.11-.39.16-.62.16-.32,0-.62-.13-.89-.38-.23-.22-.43-.52-.59-.9-.17.07-.34.13-.53.17-.17.04-.32.05-.47.05-1.04,0-1.87-.43-2.49-1.29-.56-.77-.84-1.72-.84-2.84s.28-2.06.84-2.85c.63-.86,1.46-1.29,2.49-1.29s1.82.43,2.46,1.29c.6.8.9,1.75.9,2.85,0,.77-.14,1.49-.43,2.16-.32.75-.77,1.26-1.33,1.51.1.24.24.45.42.62.21.21.43.31.67.31.16,0,.29-.01.4-.04.13-.03.27-.09.43-.17l.13.17-.08.06ZM104.19,70.62c-.48-.8-1.13-1.2-1.93-1.2s-1.45.4-1.93,1.2c-.44.73-.66,1.62-.66,2.67,0,.51.07,1.03.21,1.57.16.61.37,1.05.63,1.32-.04-.44.07-.76.32-.96.19-.14.46-.2.82-.2.32,0,.65.1.97.31.41.27.77.68,1.07,1.24.4-.29.7-.79.91-1.5.17-.57.26-1.16.26-1.77,0-1.05-.22-1.93-.66-2.67ZM102.3,75.63c-.24-.18-.51-.27-.81-.27-.22,0-.38.04-.49.12-.21.15-.31.44-.31.87.27.28.54.48.81.61.24.11.49.16.76.16.14,0,.28-.02.43-.08.14-.04.29-.1.44-.17-.23-.59-.51-1-.83-1.25Z" fill="#221e1f"/>
  <polyline points="7.16 105.49 12.83 105.49 12.83 111.15" fill="none" stroke="#221e1f" stroke-miterlimit="10" stroke-width=".4"/>
</svg>