<svg xmlns="http://www.w3.org/2000/svg" width="20" height="20" viewBox="0 0 20 20" fill="none">
  <circle cx="10" cy="10" r="10" fill="black"/>
  <path opacity="0.2" d="M7.01056 5.92458C7.07379 5.75431 7.32616 5.75431 7.38939 5.92458L7.58677 6.4561C7.60701 6.5106 7.65194 6.55348 7.70907 6.5728L8.26611 6.76113C8.44456 6.82146 8.44456 7.06227 8.26611 7.1226L7.70907 7.31094C7.65194 7.33025 7.60701 7.37313 7.58677 7.42763L7.38939 7.95915C7.32616 8.12943 7.07379 8.12943 7.01056 7.95915L6.81318 7.42763C6.79294 7.37313 6.748 7.33025 6.69088 7.31094L6.13384 7.1226C5.95539 7.06227 5.95539 6.82146 6.13384 6.76113L6.69088 6.5728C6.748 6.55348 6.79294 6.5106 6.81318 6.4561L7.01056 5.92458Z" fill="#11F0A9"/>
  <path opacity="0.6" d="M6.88348 10.5957C6.98887 10.3119 7.40948 10.3119 7.51487 10.5957L7.84383 11.4815C7.87756 11.5724 7.95246 11.6438 8.04766 11.676L8.97607 11.9899C9.27349 12.0905 9.27349 12.4918 8.97607 12.5924L8.04766 12.9063C7.95246 12.9384 7.87756 13.0099 7.84383 13.1007L7.51487 13.9866C7.40948 14.2704 6.98887 14.2704 6.88348 13.9866L6.55452 13.1007C6.52079 13.0099 6.44589 12.9384 6.35069 12.9063L5.42228 12.5924C5.12486 12.4918 5.12486 12.0905 5.42228 11.9899L6.35069 11.676C6.44589 11.6438 6.52079 11.5724 6.55452 11.4815L6.88348 10.5957Z" fill="#11F0A9"/>
  <path d="M11.3569 6.72533C11.4375 6.50822 11.7593 6.50822 11.8399 6.72533L12.5284 8.57956C12.5543 8.64905 12.6116 8.70372 12.6844 8.72835L14.6276 9.38536C14.8552 9.46229 14.8552 9.76933 14.6276 9.84626L12.6844 10.5033C12.6116 10.5279 12.5543 10.5826 12.5284 10.6521L11.8399 12.5063C11.7593 12.7234 11.4375 12.7234 11.3569 12.5063L10.6683 10.6521C10.6425 10.5826 10.5852 10.5279 10.5124 10.5033L8.56909 9.84626C8.34155 9.76933 8.34155 9.46229 8.56909 9.38536L10.5124 8.72835C10.5852 8.70372 10.6425 8.64905 10.6683 8.57956L11.3569 6.72533Z" fill="#11F0A9"/>
</svg>