<svg
  width="current"
  height="current"
  viewBox="0 0 24 24"
  xmlns="http://www.w3.org/2000/svg"
  fill="current"
  stroke="current"
>
  <path
    d="M3.3866 7.09203C3.64175 6.4264 4.00515 5.85311 4.46907 5.36446C4.93299 4.87582 5.47809 4.5026 6.10438 4.23712C6.73067 3.97164 7.40722 3.84082 8.13789 3.84082C8.9768 3.84082 9.73067 4.0255 10.3956 4.39102C11.0606 4.75655 11.5941 5.24519 12 5.85311C12.4098 5.24519 12.9472 4.76039 13.6082 4.39102C14.2693 4.02166 15.0193 3.84082 15.8582 3.84082C16.5966 3.84082 17.2771 3.97164 17.9034 4.23712C18.5296 4.5026 19.0709 4.87582 19.5348 5.36446C19.9987 5.85311 20.3544 6.4264 20.6134 7.09203C20.8724 7.75766 21 8.4887 21 9.289C21 10.5702 20.6598 11.8361 19.9794 13.0904C19.299 14.3447 18.3363 15.5644 17.0876 16.7533C15.8389 17.9422 14.366 19.0773 12.6611 20.1584C12.5644 20.22 12.4523 20.2738 12.3286 20.3239C12.2049 20.3739 12.0928 20.4008 11.9961 20.4008C11.9072 20.4008 11.799 20.3739 11.6753 20.3239C11.5515 20.2738 11.4394 20.2161 11.3428 20.1584C9.63789 19.0773 8.16108 17.9422 6.91237 16.7533C5.66366 15.5644 4.69717 14.3447 4.01675 13.0904C3.33634 11.8361 3 10.5664 3 9.289C3 8.4887 3.12758 7.75766 3.3866 7.09203Z"
  />
</svg>
